<svg version="1.2" baseProfile="tiny-ps" xmlns="http://www.w3.org/2000/svg" width="25" height="25"><style></style><g id="1"><g id="Header"><g id="Accounts"><g id="Copy"><path id="Shape 15" d="M13 17H4c-2.39 0-4-1.61-4-4V4c0-2.39 1.61-4 4-4h9c2.39 0 4 1.61 4 4v9c0 2.39-1.61 4-4 4ZM4 3c-.68 0-1 .32-1 1v9c0 .68.32 1 1 1h9c.68 0 1-.32 1-1V4c0-.68-.32-1-1-1H4Zm17 22h-9c-2.39 0-4-1.61-4-4l.01-.8c0-1.66 2.99-1.87 2.99-.2v1c0 .68.32 1 1 1h9c.68 0 1-.32 1-1v-9c0-.68-.32-1-1-1h-1c-1.67 0-1.46-2.99.2-2.99L21 8c2.39 0 4 1.61 4 4v9c0 2.39-1.61 4-4 4Z" style="fill:#7178e3"/></g></g></g></g></svg>