<svg version="1.2" baseProfile="tiny-ps" xmlns="http://www.w3.org/2000/svg" viewBox="0 0 25 25" width="25" height="25">
	<title>1</title>
	<style>
		tspan { white-space:pre }
		.shp0 { fill: #7178e3 } 
	</style>
	<g id="1">
		<g id="Header">
			<g id="Accounts">
				<g id="Copy">
					<path id="Shape 15" class="shp0" d="M13 17L4 17C1.61 17 0 15.39 0 13L0 4C0 1.61 1.61 0 4 0L13 0C15.39 0 17 1.61 17 4L17 13C17 15.39 15.39 17 13 17ZM4 3C3.32 3 3 3.32 3 4L3 13C3 13.68 3.32 14 4 14L13 14C13.68 14 14 13.68 14 13L14 4C14 3.32 13.68 3 13 3L4 3ZM21 25L12 25C9.61 25 8 23.39 8 21L8.01 20.2C8.01 18.54 11 18.33 11 20L11 21C11 21.68 11.32 22 12 22L21 22C21.68 22 22 21.68 22 21L22 12C22 11.32 21.68 11 21 11L20 11C18.33 11 18.54 8.01 20.2 8.01L21 8C23.39 8 25 9.61 25 12L25 21C25 23.39 23.39 25 21 25Z" />
				</g>
			</g>
		</g>
	</g>
</svg>