<svg width="16" height="16" fill="none" xmlns="http://www.w3.org/2000/svg"><path d="M13.6 5.9H7.3a1.4 1.4 0 0 0-1.4 1.4v6.3A1.4 1.4 0 0 0 7.3 15h6.3a1.4 1.4 0 0 0 1.4-1.4V7.3a1.4 1.4 0 0 0-1.4-1.4Z" stroke="#000" stroke-opacity=".4" stroke-width="1.5" stroke-linecap="round" stroke-linejoin="round"/><path d="M3.1 10.1h-.7A1.4 1.4 0 0 1 1 8.7V2.4A1.4 1.4 0 0 1 2.4 1h6.3a1.4 1.4 0 0 1 1.4 1.4v.7" stroke="#000" stroke-opacity=".4" stroke-width="1.5" stroke-linecap="round" stroke-linejoin="round"/></svg>