<svg 
 xmlns="http://www.w3.org/2000/svg"
 xmlns:xlink="http://www.w3.org/1999/xlink"
 width="8px" height="12px">
<path fill-rule="evenodd"  fill="rgb(113, 120, 227)"
 d="M7.426,7.438 C7.325,7.538 7.200,7.590 7.85,7.664 L3.320,11.427 C2.557,12.190 1.320,12.190 0.557,11.427 C0.205,10.664 0.205,9.428 0.557,8.665 L3.220,6.4 L0.559,3.344 C0.205,2.579 0.205,1.338 0.559,0.573 C1.325,0.191 2.565,0.191 3.331,0.573 L7.256,4.497 C7.300,4.534 7.355,4.549 7.396,4.590 C7.599,4.793 7.744,5.31 7.839,5.283 C8.144,5.997 8.9,6.855 7.426,7.438 Z"/>
</svg>