<svg version="1.2" baseProfile="tiny-ps" xmlns="http://www.w3.org/2000/svg" viewBox="0 0 40 40" width="40" height="40">
	<title>Login</title>
	<style>
		tspan { white-space:pre }
		.shp0 { fill: #5865f2 } 
	</style>
	<g id="Login">
		<path id="Shape 9" fill-rule="evenodd" class="shp0" d="M20 0C31.05 0 40 8.95 40 20C40 31.05 31.05 40 20 40C8.95 40 0 31.05 0 20C0 8.95 8.95 0 20 0ZM27.51 13.05C26.13 12.41 24.65 11.94 23.1 11.67C23.07 11.66 23.04 11.68 23.03 11.7C22.84 12.05 22.63 12.49 22.48 12.84C20.82 12.59 19.16 12.59 17.53 12.84C17.38 12.48 17.16 12.05 16.97 11.7C16.95 11.68 16.93 11.67 16.9 11.67C15.35 11.94 13.87 12.41 12.49 13.05C12.47 13.05 12.46 13.06 12.46 13.07C9.65 17.31 8.88 21.44 9.26 25.52C9.26 25.54 9.27 25.56 9.28 25.57C11.14 26.94 12.93 27.78 14.7 28.33C14.72 28.34 14.75 28.33 14.77 28.3C15.19 27.73 15.56 27.12 15.88 26.49C15.9 26.45 15.88 26.41 15.84 26.39C15.25 26.17 14.69 25.89 14.15 25.58C14.11 25.55 14.1 25.49 14.14 25.46C14.26 25.38 14.37 25.29 14.48 25.2C14.5 25.18 14.53 25.18 14.55 25.19C18.1 26.82 21.94 26.82 25.44 25.19C25.46 25.18 25.49 25.18 25.51 25.2C25.62 25.29 25.73 25.38 25.85 25.46C25.89 25.49 25.88 25.55 25.84 25.58C25.3 25.9 24.74 26.17 24.15 26.39C24.11 26.41 24.1 26.45 24.11 26.49C24.44 27.12 24.81 27.73 25.22 28.3C25.24 28.33 25.27 28.34 25.3 28.33C27.07 27.78 28.86 26.94 30.72 25.57C30.73 25.56 30.74 25.54 30.74 25.52C31.2 20.8 29.99 16.71 27.54 13.08C27.53 13.06 27.52 13.05 27.51 13.05ZM16.41 23.04C15.34 23.04 14.46 22.05 14.46 20.83C14.46 19.62 15.32 18.63 16.41 18.63C17.5 18.63 18.37 19.63 18.36 20.83C18.36 22.05 17.49 23.04 16.41 23.04ZM23.61 23.04C22.54 23.04 21.66 22.05 21.66 20.83C21.66 19.62 22.52 18.63 23.61 18.63C24.7 18.63 25.57 19.63 25.56 20.83C25.56 22.05 24.7 23.04 23.61 23.04Z" />
	</g>
</svg>