<svg version="1.2" baseProfile="tiny-ps" xmlns="http://www.w3.org/2000/svg" width="40" height="40"><style></style><g id="Login"><path id="Shape 9" fill-rule="evenodd" d="M20 0c11.05 0 20 8.95 20 20s-8.95 20-20 20S0 31.05 0 20 8.95 0 20 0Zm7.51 13.05c-1.38-.64-2.86-1.11-4.41-1.38-.03-.01-.06.01-.07.03-.19.35-.4.79-.55 1.14-1.66-.25-3.32-.25-4.95 0-.15-.36-.37-.79-.56-1.14a.09.09 0 0 0-.07-.03c-1.55.27-3.03.74-4.41 1.38-.02 0-.03.01-.03.02-2.81 4.24-3.58 8.37-3.2 12.45 0 .02.01.04.02.05 1.86 1.37 3.65 2.21 5.42 2.76.02.01.05 0 .07-.03.42-.57.79-1.18 1.11-1.81.02-.04 0-.08-.04-.1-.59-.22-1.15-.5-1.69-.81-.04-.03-.05-.09-.01-.12.12-.08.23-.17.34-.26.02-.02.05-.02.07-.01 3.55 1.63 7.39 1.63 10.89 0 .02-.01.05-.01.07.01.11.09.22.18.34.26.04.03.03.09-.01.12-.54.32-1.1.59-1.69.81-.04.02-.05.06-.04.1.33.63.7 1.24 1.11 1.81.02.03.05.04.08.03 1.77-.55 3.56-1.39 5.42-2.76.01-.01.02-.03.02-.05.46-4.72-.75-8.81-3.2-12.44-.01-.02-.02-.03-.03-.03Zm-11.1 9.99c-1.07 0-1.95-.99-1.95-2.21 0-1.21.86-2.2 1.95-2.2 1.09 0 1.96 1 1.95 2.2 0 1.22-.87 2.21-1.95 2.21Zm7.2 0c-1.07 0-1.95-.99-1.95-2.21 0-1.21.86-2.2 1.95-2.2 1.09 0 1.96 1 1.95 2.2 0 1.22-.86 2.21-1.95 2.21Z" style="fill:#5865f2"/></g></svg>