<svg width="24" height="24" fill="none" xmlns="http://www.w3.org/2000/svg"><path d="M12 18.914a1.172 1.172 0 1 0 0-2.344 1.172 1.172 0 0 0 0 2.344Z" fill="#fff" opacity=".8"/><path d="M12 0C5.368 0 0 5.367 0 12c0 6.632 5.367 12 12 12 6.632 0 12-5.367 12-12 0-6.632-5.367-12-12-12Zm0 22.125A10.12 10.12 0 0 1 1.875 12 10.12 10.12 0 0 1 12 1.875 10.12 10.12 0 0 1 22.125 12 10.12 10.12 0 0 1 12 22.125Z" fill="#fff" opacity=".8"/><path d="M12 6.023a3.754 3.754 0 0 0-3.75 3.75.937.937 0 0 0 1.875 0c0-1.033.841-1.875 1.875-1.875s1.875.842 1.875 1.875A1.877 1.877 0 0 1 12 11.648a.938.938 0 0 0-.938.938v2.344a.937.937 0 1 0 1.876 0v-1.525a3.757 3.757 0 0 0 2.812-3.632A3.754 3.754 0 0 0 12 6.023Z" fill="#fff" opacity=".8"/></svg>