<svg width="20" height="20" viewBox="0 0 20 20" fill="none" xmlns="http://www.w3.org/2000/svg">
<path d="M20 10C20 4.4774 15.5226 0 10 0C4.4774 0 0 4.4774 0 10C0 15.5226 4.4774 20 10 20C15.5226 20 20 15.5226 20 10ZM15.1591 8.62067L10.5437 13.2361C10.3995 13.3802 10.2039 13.4612 10 13.4612C9.79607 13.4612 9.60049 13.3802 9.45625 13.2361L4.84087 8.62067C4.7027 8.47524 4.62681 8.28159 4.62937 8.081C4.63194 7.88042 4.71277 7.68877 4.85461 7.54692C4.99646 7.40507 5.18811 7.32425 5.38869 7.32168C5.58928 7.31911 5.78293 7.395 5.92837 7.53317L10 11.6043L14.0716 7.53317C14.2171 7.395 14.4107 7.31911 14.6113 7.32168C14.8119 7.32425 15.0035 7.40507 15.1454 7.54692C15.2872 7.68877 15.3681 7.88042 15.3706 8.081C15.3732 8.28159 15.2973 8.47524 15.1591 8.62067Z" fill="white" fill-opacity="0.6"/>
</svg>
