<svg width="172" height="44" viewBox="0 0 172 44" fill="none" xmlns="http://www.w3.org/2000/svg">
<g clip-path="url(#clip0_2812_3813)">
<path d="M25.488 20.8274C25.4363 16.0914 29.3628 13.7837 29.5523 13.6804C27.3307 10.4427 23.8864 9.99496 22.6808 9.96052C19.7876 9.65053 16.9805 11.6827 15.5166 11.6827C14.0528 11.6827 11.7451 9.97774 9.29961 10.0294C6.14805 10.0811 3.20315 11.9066 1.60153 14.7309C-1.72225 20.5002 0.757671 28.9732 3.94368 33.6403C5.54529 35.9308 7.40523 38.4796 9.85071 38.3763C12.2445 38.2729 13.14 36.8607 16.0161 36.8607C18.8921 36.8607 19.7015 38.3763 22.1986 38.3246C24.7647 38.2901 26.3835 36.0341 27.9162 33.7264C29.7589 31.1087 30.4995 28.5255 30.5339 28.4049C30.4823 28.3877 25.5569 26.5105 25.5052 20.8274H25.488Z" fill="black"/>
<path d="M20.7864 6.89519C22.0781 5.29357 22.9564 3.10642 22.698 0.884827C20.8381 0.970935 18.5132 2.17645 17.1699 3.74362C15.9816 5.12135 14.9311 7.39461 15.2066 9.5301C17.2904 9.68509 19.4431 8.47958 20.7864 6.89519Z" fill="black"/>
<path d="M55.6775 32.6071H47.5316L45.5684 38.3936H42.124L49.8393 17.0043H53.4214L61.1367 38.3936H57.6235L55.6602 32.6071H55.6775ZM48.3755 29.9377H54.8336L51.6476 20.5519H51.5615L48.3755 29.9377Z" fill="black"/>
<path d="M77.8251 30.5921C77.8251 35.4314 75.2246 38.5485 71.3153 38.5485C69.0937 38.5485 67.3371 37.5496 66.4071 35.8275H66.3382V43.5428H63.135V22.7907H66.2349V25.3911H66.2866C67.1821 23.7206 69.0765 22.6357 71.2464 22.6357C75.2074 22.6357 77.8079 25.77 77.8079 30.5921H77.8251ZM74.5357 30.5921C74.5357 27.4405 72.8997 25.3567 70.4198 25.3567C67.9399 25.3567 66.321 27.475 66.321 30.5921C66.321 33.7092 67.9743 35.8447 70.4198 35.8447C72.8652 35.8447 74.5357 33.7781 74.5357 30.5921Z" fill="black"/>
<path d="M94.9777 30.5921C94.9777 35.4314 92.3772 38.5485 88.4679 38.5485C86.2463 38.5485 84.4897 37.5496 83.5597 35.8275H83.4908V43.5428H80.2876V22.7907H83.3875V25.3911H83.4392C84.3347 23.7206 86.2291 22.6357 88.399 22.6357C92.36 22.6357 94.9604 25.77 94.9604 30.5921H94.9777ZM91.6883 30.5921C91.6883 27.4405 90.0523 25.3567 87.5724 25.3567C85.0924 25.3567 83.4736 27.475 83.4736 30.5921C83.4736 33.7092 85.1269 35.8447 87.5724 35.8447C90.0178 35.8447 91.6883 33.7781 91.6883 30.5921Z" fill="black"/>
<path d="M106.326 32.4348C106.567 34.553 108.617 35.948 111.441 35.948C114.265 35.948 116.074 34.553 116.074 32.6414C116.074 30.9882 114.903 29.9893 112.13 29.3004L109.357 28.6288C105.431 27.6816 103.605 25.8389 103.605 22.8595C103.605 19.1741 106.826 16.6425 111.389 16.6425C115.953 16.6425 119.001 19.1741 119.105 22.8595H115.867C115.678 20.724 113.904 19.4324 111.338 19.4324C108.772 19.4324 106.998 20.7413 106.998 22.6357C106.998 24.1512 108.117 25.0295 110.873 25.7183L113.232 26.3039C117.624 27.3372 119.449 29.111 119.449 32.2281C119.449 36.2235 116.263 38.7379 111.2 38.7379C106.464 38.7379 103.261 36.2924 103.054 32.4176H106.326V32.4348Z" fill="black"/>
<path d="M126.356 19.1052V22.7907H129.318V25.3222H126.356V33.9158C126.356 35.2591 126.941 35.8791 128.25 35.8791C128.577 35.8791 129.094 35.8275 129.3 35.8102V38.3246C128.939 38.4107 128.233 38.4796 127.527 38.4796C124.375 38.4796 123.135 37.2913 123.135 34.2775V25.3395H120.862V22.8079H123.135V19.1224H126.356V19.1052Z" fill="black"/>
<path d="M131.04 30.5921C131.04 25.6839 133.933 22.6013 138.428 22.6013C142.922 22.6013 145.816 25.6839 145.816 30.5921C145.816 35.5003 142.957 38.583 138.428 38.583C133.898 38.583 131.04 35.5175 131.04 30.5921ZM142.578 30.5921C142.578 27.2339 141.028 25.2362 138.445 25.2362C135.862 25.2362 134.312 27.2339 134.312 30.5921C134.312 33.9503 135.844 35.948 138.445 35.948C141.045 35.948 142.578 33.9848 142.578 30.5921Z" fill="black"/>
<path d="M148.468 22.8079H151.516V25.46H151.585C152.067 23.7034 153.496 22.6357 155.339 22.6357C155.804 22.6357 156.183 22.7046 156.441 22.7562V25.7528C156.183 25.6495 155.632 25.5634 155.012 25.5634C152.945 25.5634 151.671 26.9583 151.671 29.1455V38.3935H148.468V22.8079Z" fill="black"/>
<path d="M171.201 33.8126C170.77 36.6369 168.015 38.583 164.484 38.583C159.955 38.583 157.131 35.5519 157.131 30.661C157.131 25.77 159.955 22.6013 164.347 22.6013C168.738 22.6013 171.373 25.5634 171.373 30.2993V31.4015H160.368V31.591C160.368 34.2603 162.039 35.9997 164.57 35.9997C166.344 35.9997 167.739 35.1558 168.17 33.8126H171.201ZM160.386 29.1627H168.187C168.118 26.7689 166.585 25.2017 164.364 25.2017C162.142 25.2017 160.558 26.8033 160.386 29.1627Z" fill="black"/>
<path d="M47.9624 0.901917C51.0107 0.901917 52.8017 2.77908 52.8017 5.99953C52.8017 9.21998 51.0279 11.166 47.9624 11.166H44.2426V0.901917H47.9624ZM45.8442 9.71941H47.773C49.9257 9.71941 51.1657 8.37612 51.1657 6.01675C51.1657 3.65738 49.9085 2.34854 47.773 2.34854H45.8442V9.71941Z" fill="black"/>
<path d="M54.6099 7.30837C54.6099 4.81123 56.0048 3.2785 58.2609 3.2785C60.5169 3.2785 61.9118 4.79401 61.9118 7.30837C61.9118 9.82273 60.5169 11.3382 58.2609 11.3382C56.0048 11.3382 54.6099 9.82273 54.6099 7.30837ZM60.3447 7.30837C60.3447 5.62065 59.5869 4.63901 58.2609 4.63901C56.9348 4.63901 56.177 5.62065 56.177 7.30837C56.177 8.99609 56.9176 9.97773 58.2609 9.97773C59.6041 9.97773 60.3447 8.99609 60.3447 7.30837Z" fill="black"/>
<path d="M71.6421 11.1833H70.0577L68.4561 5.46569H68.3355L66.7339 11.1833H65.1667L63.0312 3.43353H64.5812L65.9762 9.35778H66.0967L67.6983 3.43353H69.1622L70.7638 9.35778H70.8843L72.2621 3.43353H73.7948L71.6593 11.1833H71.6421Z" fill="black"/>
<path d="M75.5684 3.43355H77.0494V4.67351H77.17C77.5489 3.81243 78.3238 3.29578 79.4777 3.29578C81.1998 3.29578 82.1643 4.32908 82.1643 6.17179V11.2005H80.6315V6.56789C80.6315 5.32793 80.0977 4.70795 78.961 4.70795C77.8244 4.70795 77.1011 5.46571 77.1011 6.67122V11.2005H75.5684V3.43355Z" fill="black"/>
<path d="M84.5928 0.402527H86.1255V11.1833H84.5928V0.402527Z" fill="black"/>
<path d="M88.261 7.30837C88.261 4.81123 89.6559 3.2785 91.912 3.2785C94.168 3.2785 95.563 4.79401 95.563 7.30837C95.563 9.82273 94.168 11.3382 91.912 11.3382C89.6559 11.3382 88.261 9.82273 88.261 7.30837ZM93.9958 7.30837C93.9958 5.62065 93.238 4.63901 91.912 4.63901C90.5859 4.63901 89.8282 5.62065 89.8282 7.30837C89.8282 8.99609 90.5687 9.97773 91.912 9.97773C93.2553 9.97773 93.9958 8.99609 93.9958 7.30837Z" fill="black"/>
<path d="M97.1824 8.99615C97.1824 7.60119 98.2157 6.79177 100.058 6.68844L102.159 6.56789V5.89625C102.159 5.06961 101.626 4.62184 100.575 4.62184C99.714 4.62184 99.1284 4.93183 98.9562 5.48293H97.4751C97.6301 4.15686 98.8873 3.29578 100.644 3.29578C102.59 3.29578 103.692 4.26019 103.692 5.89625V11.2005H102.211V10.1156H102.091C101.626 10.8905 100.782 11.3383 99.7656 11.3383C98.2673 11.3383 97.1824 10.4428 97.1824 9.01337V8.99615ZM102.159 8.34172V7.6873L100.265 7.80785C99.1973 7.87674 98.7151 8.23839 98.7151 8.92726C98.7151 9.61613 99.3179 10.0294 100.145 10.0294C101.298 10.0294 102.159 9.28891 102.159 8.34172Z" fill="black"/>
<path d="M105.706 7.30841C105.706 4.86294 106.964 3.31299 108.927 3.31299C109.995 3.31299 110.89 3.81242 111.303 4.6735H111.424V0.402527H112.957V11.1833H111.493V9.96055H111.372C110.907 10.8044 110.012 11.3211 108.944 11.3211C106.964 11.3211 105.724 9.77111 105.724 7.30841H105.706ZM107.291 7.30841C107.291 8.96169 108.066 9.94333 109.357 9.94333C110.649 9.94333 111.441 8.94447 111.441 7.30841C111.441 5.67235 110.632 4.6735 109.357 4.6735C108.083 4.6735 107.291 5.67235 107.291 7.30841Z" fill="black"/>
<path d="M119.277 7.30837C119.277 4.81123 120.672 3.2785 122.928 3.2785C125.184 3.2785 126.579 4.79401 126.579 7.30837C126.579 9.82273 125.184 11.3382 122.928 11.3382C120.672 11.3382 119.277 9.82273 119.277 7.30837ZM125.012 7.30837C125.012 5.62065 124.254 4.63901 122.928 4.63901C121.602 4.63901 120.844 5.62065 120.844 7.30837C120.844 8.99609 121.585 9.97773 122.928 9.97773C124.271 9.97773 125.012 8.99609 125.012 7.30837Z" fill="black"/>
<path d="M128.646 3.43355H130.127V4.67351H130.248C130.626 3.81243 131.401 3.29578 132.555 3.29578C134.277 3.29578 135.242 4.32908 135.242 6.17179V11.2005H133.709V6.56789C133.709 5.32793 133.175 4.70795 132.039 4.70795C130.902 4.70795 130.179 5.46571 130.179 6.67122V11.2005H128.646V3.43355Z" fill="black"/>
<path d="M143.87 1.50476V3.46803H145.558V4.75965H143.87V8.75508C143.87 9.5645 144.197 9.92615 144.972 9.92615C145.213 9.92615 145.334 9.92615 145.558 9.89171V11.1661C145.317 11.2006 145.024 11.2522 144.731 11.2522C143.026 11.2522 142.355 10.6495 142.355 9.15118V4.77688H141.132V3.48525H142.355V1.50476H143.887H143.87Z" fill="black"/>
<path d="M147.641 0.402527H149.157V4.6735H149.277C149.656 3.81241 150.465 3.27854 151.637 3.27854C153.29 3.27854 154.306 4.32906 154.306 6.17178V11.1833H152.773V6.55066C152.773 5.3107 152.205 4.69072 151.12 4.69072C149.863 4.69072 149.174 5.48292 149.174 6.65399V11.1833H147.641V0.402527Z" fill="black"/>
<path d="M163.244 9.0822C162.899 10.4772 161.659 11.321 159.885 11.321C157.664 11.321 156.303 9.80551 156.303 7.32559C156.303 4.84567 157.698 3.2785 159.885 3.2785C162.073 3.2785 163.347 4.75957 163.347 7.18782V7.72169H157.871V7.8078C157.922 9.16831 158.714 10.0294 159.937 10.0294C160.867 10.0294 161.504 9.70218 161.78 9.0822H163.261H163.244ZM157.853 6.58506H161.763C161.728 5.36232 160.988 4.57013 159.851 4.57013C158.714 4.57013 157.922 5.36232 157.836 6.58506H157.853Z" fill="black"/>
</g>
<defs>
<clipPath id="clip0_2812_3813">
<rect width="171.39" height="43.1403" fill="white" transform="translate(0 0.402527)"/>
</clipPath>
</defs>
</svg>
