<svg width="16" height="16" viewBox="0 0 16 16" fill="none" xmlns="http://www.w3.org/2000/svg">
<path d="M16 8C16 3.58192 12.4181 0 8 0C3.58192 0 0 3.58192 0 8C0 12.4181 3.58192 16 8 16C12.4181 16 16 12.4181 16 8ZM12.1273 6.89654L8.435 10.5888C8.31961 10.7042 8.16314 10.7689 8 10.7689C7.83686 10.7689 7.6804 10.7042 7.565 10.5888L3.87269 6.89654C3.76216 6.78019 3.70144 6.62527 3.7035 6.4648C3.70555 6.30433 3.77021 6.15101 3.88369 6.03754C3.99717 5.92406 4.15049 5.8594 4.31096 5.85735C4.47142 5.85529 4.62635 5.916 4.74269 6.02654L8 9.28346L11.2573 6.02654C11.3737 5.916 11.5286 5.85529 11.689 5.85735C11.8495 5.8594 12.0028 5.92406 12.1163 6.03754C12.2298 6.15101 12.2944 6.30433 12.2965 6.4648C12.2986 6.62527 12.2378 6.78019 12.1273 6.89654Z" fill="#7178E3"/>
</svg>
