<svg version="1.0" xmlns="http://www.w3.org/2000/svg" width="1706.667" height="1218.667" viewBox="0 -183 1280 1280"><path d="M119.5 1.1C68.5 7.6 24.2 43.9 7.4 93.2.3 114.1.9 83.2.4 451c-.2 227 0 334.5.7 341 2.6 23.7 11.6 46.8 25.7 66 6.6 9.1 20.4 22.9 29 29 14.4 10.3 33.4 19 51.1 23.2 8.5 2 11.7 2.1 226.1 2.9 119.6.5 355.2.8 523.5.6l306-.3 8.5-2.1c13.7-3.4 20.7-6 33.5-12.3 40.9-20.2 68.4-59.4 74.4-105.9.8-5.9 1.1-107.9 1.1-344.5-.1-277.4-.3-337.1-1.4-341.6-4.2-17.3-10.9-32.7-20.2-46.7-7.1-10.7-20.3-24.6-31.3-32.9-8.8-6.7-30-17.7-39.9-20.8-3-1-9.5-2.7-14.5-3.9l-9.2-2.2L645 .4c-296.1-.1-521.5.2-525.5.7zM904 317.6C736.2 485.4 656.9 564.1 653.5 566.1c-6.9 4-15 4.1-21.7.1-2.9-1.7-94.8-92.8-250.7-248.5L135 72h1014.5L904 317.6zm307 132.6-.5 342.3-2.2 7.7c-5.8 20.4-15.3 31.8-32.6 39.1l-7.2 3-172.7-173.4-172.7-173.4 193.7-193.8C1123.3 195.2 1210.7 108 1211 108c.3 0 .3 154 0 342.2zM268 301.5 458.5 492 283.8 666.7 109.1 841.4l-6.2-2.9c-12.3-5.9-20.8-17.3-24.6-33-1.6-6.5-1.8-30.1-2-350.8-.2-189 0-343.7.4-343.7.5 0 86.5 85.7 191.3 190.5zm300.5 300c45.1 45.5 62 61.9 64.9 63.1 5 2 13.3 2 18.2-.1 2.8-1.1 20.7-18.4 63.4-61l59.5-59.5 150.3 150.3C1007.4 776.9 1075 844.7 1075 845c0 .3-196.4.5-436.5.5S202 845.3 202 845c0-.6 304.3-305 305-305 .3 0 28 27.6 61.5 61.5z"/></svg>