<?xml version="1.0" standalone="no"?>
<!DOCTYPE svg PUBLIC "-//W3C//DTD SVG 20010904//EN"
 "http://www.w3.org/TR/2001/REC-SVG-20010904/DTD/svg10.dtd">
<svg version="1.0" xmlns="http://www.w3.org/2000/svg"
 width="1280.000000pt" height="914.000000pt" viewBox="0 -183 1280.000000 1280.000000"
 preserveAspectRatio="xMidYMid meet">
<g transform="translate(0.000000,914.000000) scale(0.100000,-0.100000)"
fill="#000000" stroke="none">
<path d="M1195 9129 c-510 -65 -953 -428 -1121 -921 -71 -209 -65 100 -70
-3578 -2 -2270 0 -3345 7 -3410 26 -237 116 -468 257 -660 66 -91 204 -229
290 -290 144 -103 334 -190 511 -232 85 -20 117 -21 2261 -29 1196 -5 3552 -8
5235 -6 l3060 3 85 21 c137 34 207 60 335 123 409 202 684 594 744 1059 8 59
11 1079 11 3445 -1 2774 -3 3371 -14 3416 -42 173 -109 327 -202 467 -71 107
-203 246 -313 329 -88 67 -300 177 -399 208 -30 10 -95 27 -145 39 l-92 22
-5185 1 c-2961 1 -5215 -2 -5255 -7z m7845 -3165 c-1678 -1678 -2471 -2465
-2505 -2485 -69 -40 -150 -41 -217 -1 -29 17 -948 928 -2507 2485 l-2461 2457
5072 0 5073 0 -2455 -2456z m3070 -1326 l-5 -3423 -22 -77 c-58 -204 -153
-318 -326 -391 l-72 -30 -1727 1734 -1727 1734 1937 1938 c1065 1065 1939
1937 1942 1937 3 0 3 -1540 0 -3422z m-9430 1487 l1905 -1905 -1747 -1747
-1747 -1747 -62 29 c-123 59 -208 173 -246 330 -16 65 -18 301 -20 3508 -2
1890 0 3437 4 3437 5 0 865 -857 1913 -1905z m3005 -3000 c451 -455 620 -619
649 -631 50 -20 133 -20 182 1 28 11 207 184 634 610 l595 595 1503 -1503
c826 -826 1502 -1504 1502 -1507 0 -3 -1964 -5 -4365 -5 -2401 0 -4365 2
-4365 5 0 6 3043 3050 3050 3050 3 0 280 -276 615 -615z"/>
</g>
</svg>
