<svg width="14" height="14" viewBox="0 0 14 14" fill="none" xmlns="http://www.w3.org/2000/svg">
<path d="M7 0.5C10.5841 0.5 13.5 3.41594 13.5 7C13.5 10.5841 10.5841 13.5 7 13.5C3.41594 13.5 0.5 10.5841 0.5 7C0.5 3.41594 3.41594 0.5 7 0.5ZM7 10.4972C7.12361 10.4972 7.24445 10.4605 7.34723 10.3919C7.45001 10.3232 7.53012 10.2256 7.57742 10.1114C7.62473 9.99716 7.63711 9.87149 7.61299 9.75026C7.58888 9.62902 7.52935 9.51765 7.44194 9.43025C7.35453 9.34284 7.24317 9.28331 7.12193 9.2592C7.00069 9.23508 6.87503 9.24746 6.76082 9.29476C6.64662 9.34207 6.54901 9.42218 6.48033 9.52496C6.41166 9.62774 6.375 9.74857 6.375 9.87219C6.375 10.0379 6.44085 10.1969 6.55806 10.3141C6.67527 10.4313 6.83424 10.4972 7 10.4972ZM6.32125 4.21125L6.50062 8.02375C6.50062 8.15636 6.5533 8.28354 6.64707 8.3773C6.74084 8.47107 6.86802 8.52375 7.00063 8.52375C7.13323 8.52375 7.26041 8.47107 7.35418 8.3773C7.44795 8.28354 7.50063 8.15636 7.50063 8.02375L7.68 4.21313V4.21156C7.68393 4.11998 7.66929 4.02854 7.63695 3.94277C7.60461 3.85699 7.55525 3.77865 7.49183 3.71245C7.42842 3.64626 7.35226 3.59358 7.26795 3.55759C7.18364 3.5216 7.09292 3.50305 7.00125 3.50305C6.90958 3.50305 6.81886 3.5216 6.73455 3.55759C6.65024 3.59358 6.57408 3.64626 6.51067 3.71245C6.44725 3.77865 6.39789 3.85699 6.36555 3.94277C6.33321 4.02854 6.31857 4.11998 6.3225 4.21156L6.32125 4.21125Z" fill="#FA574C"/>
</svg>
