<svg width="12" height="12" viewBox="0 0 12 12" fill="none" xmlns="http://www.w3.org/2000/svg">
<path fill-rule="evenodd" clip-rule="evenodd" d="M6 12C9.31371 12 12 9.31371 12 6C12 2.68629 9.31371 0 6 0C2.68629 0 0 2.68629 0 6C0 9.31371 2.68629 12 6 12ZM8.41202 4.28327C8.56846 4.05571 8.51082 3.74442 8.28327 3.58798C8.05571 3.43154 7.74442 3.48918 7.58798 3.71673L5.15308 7.25839L3.8254 6.12037C3.61573 5.94066 3.30008 5.96494 3.12037 6.1746C2.94066 6.38427 2.96494 6.69992 3.1746 6.87963L4.92459 8.37963C5.03229 8.47194 5.17413 8.51416 5.31478 8.49578C5.45543 8.47741 5.58165 8.40015 5.66201 8.28327L8.41202 4.28327Z" fill="#E8EBEF"/>
</svg>
