<svg version="1.2" baseProfile="tiny-ps" xmlns="http://www.w3.org/2000/svg" viewBox="0 0 40 40" width="40" height="40">
	<title>Login</title>
	<style>
		tspan { white-space:pre }
		.shp0 { fill: #1778f2 } 
	</style>
	<g id="Login">
		<path id="Shape 1" class="shp0" d="M20.01 0C8.96 0 0 8.95 0 19.99C0 31.04 8.96 39.99 20.01 39.99C31.06 39.99 40.01 31.04 40.01 19.99C40.01 8.95 31.06 0 20.01 0M25.2 13.32L23.32 13.32C21.84 13.32 21.56 14.02 21.56 15.05L21.56 17.32L25.08 17.32L24.62 20.87L21.56 20.87L21.56 29.99L17.88 29.99L17.88 20.87L14.81 20.87L14.81 17.32L17.88 17.32L17.88 14.7C17.88 11.65 19.74 10 22.46 10C23.76 10 24.88 10.09 25.2 10.14L25.2 13.32Z" />
	</g>
</svg>