<svg width="16" height="16" fill="none" xmlns="http://www.w3.org/2000/svg"><path d="M8 1C4.134 1 1 4.216 1 8.178c0 3.172 2.006 5.86 4.787 6.81a.545.545 0 0 0 .12.012c.259 0 .359-.19.359-.356 0-.172-.007-.622-.01-1.222a3.193 3.193 0 0 1-.706.084c-1.347 0-1.653-1.047-1.653-1.047-.319-.828-.778-1.05-.778-1.05-.61-.428-.003-.44.043-.44h.004c.703.062 1.071.744 1.071.744.35.612.82.784 1.238.784.277-.006.55-.07.8-.188.063-.462.244-.778.444-.959-1.553-.181-3.188-.797-3.188-3.547 0-.784.272-1.425.719-1.925-.072-.181-.313-.912.069-1.9a.583.583 0 0 1 .156-.016c.253 0 .825.097 1.769.754a6.507 6.507 0 0 1 3.506 0c.944-.657 1.516-.754 1.769-.754a.582.582 0 0 1 .156.016c.381.988.14 1.719.069 1.9a2.82 2.82 0 0 1 .719 1.925c0 2.756-1.638 3.363-3.197 3.54.25.223.475.66.475 1.329 0 .96-.01 1.734-.01 1.969 0 .168.097.359.357.359a.603.603 0 0 0 .125-.012c2.784-.95 4.787-3.641 4.787-6.81C15 4.216 11.866 1 8 1Z" fill="#000"/></svg>