<svg width="936" height="260" xmlns="http://www.w3.org/2000/svg" xml:space="preserve" version="1.1">

 <g>
  <title>Layer 1</title>
  <g stroke="null" id="svg_9">
   <path stroke="null" id="svg_1" fill="#3e4855" d="m402.19995,125.64999l60.39001,-87.26001l-46.57001,0l-54.76001,77.79004l0,-77.79004l-40.94,0l0,179.13l40.94,0l0,-82.90997l57.32001,82.90997l46.57001,0l-62.95001,-91.87z" class="st0"/>
   <path stroke="null" id="svg_2" fill="#3e4855" d="m549.91992,159.79001c0,17.48999 -9.27002,26.48999 -23.95001,26.48999c-13.14001,0 -22.40997,-8.22998 -22.40997,-23.39996l0,-73.30002l-38.63,0l0,78.95999c0,16.71997 4.64001,29.58002 13.64996,39.09003c9.27002,9.51996 20.86005,14.14996 34.51001,14.14996c16.73999,0 29.10004,-5.14001 36.83002,-15.69l0,12.09003l38.63,0l0,-128.60004l-38.63,0l0,70.21002z" class="st0"/>
   <path stroke="null" id="svg_3" fill="#3e4855" d="m685.43994,153.55002l46.88,-63.97l-45.06995,0l-38.63,56.04001l0,-107.23001l-38.63,0l0,179.12997l38.63,0l0,-56.54999l41.20996,56.54999l43.79004,0l-48.18005,-63.96997z" class="st0"/>
   <path stroke="null" id="svg_4" fill="#3e4855" d="m831.69995,101.60001c-8.95996,-10.48999 -21.75,-15.60999 -38.13,-15.60999c-16.89001,0 -31.21997,6.64999 -43.25,19.70001c-12.03003,13.04999 -17.91003,28.91998 -17.91003,47.84998s5.89001,35.06 17.91003,48.10999c12.03003,13.04999 26.35999,19.45001 43.25,19.45001c16.38,0 29.17004,-5.12 38.13,-15.60999l0,12.02997l38.38,0l0,-127.94998l-38.38,0l0,12.03zm-52.45996,74.71997c-5.63,-5.63 -8.43994,-13.31 -8.43994,-22.77002s2.80994,-17.13995 8.43994,-22.76996c5.63,-5.63 13.05005,-8.44 22.01001,-8.44s16.38,2.82001 22.01001,8.44c5.63,5.63 8.43994,13.31 8.43994,22.76996s-2.80994,17.14001 -8.43994,22.77002c-5.63,5.63 -13.05005,8.44 -22.01001,8.44s-16.38,-2.81 -22.01001,-8.44z" class="st0"/>
   <path stroke="null" id="svg_5" fill="#3e4855" d="m927.06995,71.66c9.20996,-9.20999 9.20996,-23.54001 0,-32.5c-8.95996,-9.20999 -23.29004,-9.20999 -32.5,0c-8.95996,8.95999 -8.95996,23.29001 0,32.5c9.21008,8.95999 23.54004,8.95999 32.5,0zm3.07007,145.85999l0,-127.94998l-38.38,0l0,127.94998l38.38,0z" class="st0"/>
   <g stroke="null" id="svg_6">
    <path stroke="null" id="svg_7" fill="#3e4855" clip-rule="evenodd" fill-rule="evenodd" d="m127.94995,66.39999c-33.98999,0 -61.54999,27.56 -61.54999,61.54999c0,33.98999 27.56,61.54999 61.54999,61.54999c33.98999,0 61.54999,-27.56 61.54999,-61.54999c0.01007,-33.98999 -27.54999,-61.54999 -61.54999,-61.54999zm0,89.57001c-15.46997,0 -28.01001,-12.53998 -28.01001,-28.01001c0,-15.46997 12.54004,-28.01001 28.01001,-28.01001c15.46997,0 28.01001,12.54004 28.01001,28.01001c0.01001,15.47003 -12.52997,28.01001 -28.01001,28.01001z" class="st1"/>
    <path stroke="null" id="svg_8" fill="#3e4855" clip-rule="evenodd" fill-rule="evenodd" d="m204.72998,0l-153.54999,0c-28.27002,0 -51.17999,22.91 -51.17999,51.17999l0,153.54001c0,28.27002 22.90997,51.17999 51.17999,51.17999l153.53998,0c28.27002,0 51.17999,-22.90997 51.17999,-51.17999l0,-153.54001c0.01001,-28.25998 -22.90997,-51.17999 -51.16998,-51.17999zm5.76001,173.14999c0.67999,0.5 1.33002,1.06 1.94,1.66998c5.75,5.76001 6.51001,15 1.77997,21.63c-5.68994,7.98004 -16.81995,9.41003 -24.31995,3.33002c-0.18005,-0.14001 -0.35004,-0.28998 -0.52002,-0.44c-1.97998,-1.73999 -4.88,-1.88 -6.97003,-0.27002c-15.08997,11.57001 -33.96997,18.45001 -54.44995,18.45001c-20.48004,0 -39.36005,-6.88 -54.45001,-18.45001c-2.09003,-1.59998 -4.98999,-1.46997 -6.97003,0.27002c-0.16998,0.15002 -0.33997,0.28998 -0.51996,0.44c-7.5,6.07001 -18.63,4.64001 -24.32001,-3.33002c-4.73004,-6.63 -3.97003,-15.85999 1.77997,-21.63c0.62,-0.62 1.27002,-1.17999 1.94,-1.66998c2.07001,-1.52997 2.79004,-4.32001 1.67004,-6.65002c-5.58002,-11.67999 -8.70001,-24.75 -8.70001,-38.54999c0,-13.79999 3.13,-26.88 8.70001,-38.56c1.12,-2.34998 0.34998,-5.12997 -1.74005,-6.67999c-0.17999,-0.13 -0.35999,-0.26999 -0.53998,-0.41998c-7.5,-6.07001 -8.41998,-17.26001 -1.79999,-24.48001c5.5,-6.01001 14.70001,-7.17999 21.52997,-2.75c0.73004,0.48001 1.41003,1 2.04004,1.54999c1.95001,1.73001 4.83997,1.80002 6.90997,0.22c15.09003,-11.56998 33.97003,-18.44998 54.45001,-18.44998c20.47998,0 39.35999,6.88 54.45001,18.44998c2.08997,1.61002 4.98999,1.47 6.96997,-0.26999c0.17004,-0.14999 0.34003,-0.29001 0.52002,-0.44c7.5,-6.07001 18.63,-4.63998 24.32001,3.32999c4.72998,6.63 3.96997,15.86002 -1.78003,21.63c-0.62,0.62 -1.26996,1.18002 -1.94,1.68002c-2.07001,1.53 -2.78998,4.31998 -1.66998,6.63998c5.58002,11.67999 8.70001,24.75 8.70001,38.54999c0,13.79999 -3.12,26.87 -8.70001,38.54999c-1.09003,2.33002 -0.38,5.12006 1.69,6.65002z" class="st1"/>
   </g>
  </g>
 </g>
</svg>