<svg version="1.2" baseProfile="tiny-ps" xmlns="http://www.w3.org/2000/svg" width="60" height="60"><style></style><g id="Logos"><g id="2"><path id="Rectangle 11" d="M12 0h36c6.63 0 12 5.37 12 12v36c0 6.63-5.37 12-12 12H12C5.37 60 0 54.63 0 48V12C0 5.37 5.37 0 12 0Z" style="fill:#5963ff"/><path id="Shape 5" d="M36.57 30c0 3.63-2.94 6.57-6.57 6.57-3.63 0-6.57-2.94-6.57-6.57 0-3.63 2.94-6.57 6.57-6.57 3.63 0 6.57 2.94 6.57 6.57Zm13.24 10.99c-.15-.15-.3-.28-.46-.39-.48-.36-.65-1.02-.39-1.56C50.27 36.3 51 33.24 51 30c0-3.24-.73-6.3-2.04-9.04-.26-.54-.09-1.2.39-1.56.16-.11.31-.24.46-.39 1.35-1.35 1.52-3.52.42-5.07a3.96 3.96 0 0 0-5.71-.78c-.04.03-.08.07-.12.1-.46.41-1.14.44-1.63.07A20.887 20.887 0 0 0 30 9c-4.8 0-9.23 1.61-12.77 4.33-.48.37-1.16.35-1.62-.05-.14-.14-.3-.26-.48-.37-1.6-1.04-3.75-.76-5.04.65a3.94 3.94 0 0 0 .42 5.74l.12.09c.49.37.67 1.02.41 1.57C9.73 23.7 9 26.76 9 30c0 3.24.73 6.3 2.04 9.04.26.54.09 1.2-.39 1.56-.16.11-.31.24-.46.39-1.35 1.35-1.52 3.52-.42 5.07a3.96 3.96 0 0 0 5.71.78c.04-.03.08-.07.12-.1.46-.41 1.14-.44 1.63-.07C20.77 49.39 25.2 51 30 51s9.23-1.61 12.77-4.33c.49-.37 1.17-.34 1.63.07.04.03.08.07.12.1a3.96 3.96 0 0 0 5.71-.78c1.1-1.55.93-3.72-.42-5.07ZM30 44.43c-7.97 0-14.43-6.46-14.43-14.43S22.03 15.57 30 15.57 44.43 22.03 44.43 30 37.97 44.43 30 44.43Z" style="fill:#fff"/></g></g></svg>