<svg width="936" height="260" xmlns="http://www.w3.org/2000/svg" xml:space="preserve"><g stroke="null" fill="#5963ff"><path d="m402.2 125.65 60.39-87.26h-46.57l-54.76 77.79V38.39h-40.94v179.13h40.94v-82.91l57.32 82.91h46.57l-62.95-91.87zm147.72 34.14c0 17.49-9.27 26.49-23.95 26.49-13.14 0-22.41-8.23-22.41-23.4v-73.3h-38.63v78.96c0 16.72 4.64 29.58 13.65 39.09 9.27 9.52 20.86 14.15 34.51 14.15 16.74 0 29.1-5.14 36.83-15.69v12.09h38.63V89.58h-38.63v70.21zm135.52-6.24 46.88-63.97h-45.07l-38.63 56.04V38.39h-38.63v179.13h38.63v-56.55l41.21 56.55h43.79l-48.18-63.97z" class="st0"/><path d="M831.7 101.6c-8.96-10.49-21.75-15.61-38.13-15.61-16.89 0-31.22 6.65-43.25 19.7-12.03 13.05-17.91 28.92-17.91 47.85s5.89 35.06 17.91 48.11c12.03 13.05 26.36 19.45 43.25 19.45 16.38 0 29.17-5.12 38.13-15.61v12.03h38.38V89.57H831.7v12.03zm-52.46 74.72c-5.63-5.63-8.44-13.31-8.44-22.77s2.81-17.14 8.44-22.77c5.63-5.63 13.05-8.44 22.01-8.44s16.38 2.82 22.01 8.44c5.63 5.63 8.44 13.31 8.44 22.77s-2.81 17.14-8.44 22.77c-5.63 5.63-13.05 8.44-22.01 8.44s-16.38-2.81-22.01-8.44zM927.07 71.66c9.21-9.21 9.21-23.54 0-32.5-8.96-9.21-23.29-9.21-32.5 0-8.96 8.96-8.96 23.29 0 32.5 9.21 8.96 23.54 8.96 32.5 0zm3.07 145.86V89.57h-38.38v127.95h38.38z" class="st0"/><g clip-rule="evenodd" fill-rule="evenodd"><path d="M127.95 66.4c-33.99 0-61.55 27.56-61.55 61.55 0 33.99 27.56 61.55 61.55 61.55 33.99 0 61.55-27.56 61.55-61.55.01-33.99-27.55-61.55-61.55-61.55zm0 89.57c-15.47 0-28.01-12.54-28.01-28.01 0-15.47 12.54-28.01 28.01-28.01 15.47 0 28.01 12.54 28.01 28.01.01 15.47-12.53 28.01-28.01 28.01z" class="st1"/><path d="M204.73 0H51.18C22.91 0 0 22.91 0 51.18v153.54c0 28.27 22.91 51.18 51.18 51.18h153.54c28.27 0 51.18-22.91 51.18-51.18V51.18C255.91 22.92 232.99 0 204.73 0zm5.76 173.15c.68.5 1.33 1.06 1.94 1.67 5.75 5.76 6.51 15 1.78 21.63-5.69 7.98-16.82 9.41-24.32 3.33-.18-.14-.35-.29-.52-.44-1.98-1.74-4.88-1.88-6.97-.27-15.09 11.57-33.97 18.45-54.45 18.45-20.48 0-39.36-6.88-54.45-18.45-2.09-1.6-4.99-1.47-6.97.27-.17.15-.34.29-.52.44-7.5 6.07-18.63 4.64-24.32-3.33-4.73-6.63-3.97-15.86 1.78-21.63.62-.62 1.27-1.18 1.94-1.67 2.07-1.53 2.79-4.32 1.67-6.65-5.58-11.68-8.7-24.75-8.7-38.55 0-13.8 3.13-26.88 8.7-38.56 1.12-2.35.35-5.13-1.74-6.68-.18-.13-.36-.27-.54-.42-7.5-6.07-8.42-17.26-1.8-24.48 5.5-6.01 14.7-7.18 21.53-2.75.73.48 1.41 1 2.04 1.55 1.95 1.73 4.84 1.8 6.91.22 15.09-11.57 33.97-18.45 54.45-18.45 20.48 0 39.36 6.88 54.45 18.45 2.09 1.61 4.99 1.47 6.97-.27.17-.15.34-.29.52-.44 7.5-6.07 18.63-4.64 24.32 3.33 4.73 6.63 3.97 15.86-1.78 21.63a17.8 17.8 0 0 1-1.94 1.68c-2.07 1.53-2.79 4.32-1.67 6.64 5.58 11.68 8.7 24.75 8.7 38.55 0 13.8-3.12 26.87-8.7 38.55a5.425 5.425 0 0 0 1.69 6.65z" class="st1"/></g></g></svg>