<svg version="1.2" baseProfile="tiny-ps" xmlns="http://www.w3.org/2000/svg" viewBox="0 0 60 60" width="60" height="60">
	<title>Logos</title>
	<style>
		tspan { white-space:pre }
		.shp0 { fill: #5963ff } 
		.shp1 { fill: #ffffff } 
	</style>
	<g id="Logos">
		<g id="2">
			<path id="Rectangle 11" class="shp0" d="M12 0L48 0C54.63 0 60 5.37 60 12L60 48C60 54.63 54.63 60 48 60L12 60C5.37 60 0 54.63 0 48L0 12C0 5.37 5.37 0 12 0Z" />
			<path id="Shape 5" class="shp1" d="M36.57 30C36.57 33.63 33.63 36.57 30 36.57C26.37 36.57 23.43 33.63 23.43 30C23.43 26.37 26.37 23.43 30 23.43C33.63 23.43 36.57 26.37 36.57 30ZM49.81 40.99C49.66 40.84 49.51 40.71 49.35 40.6C48.87 40.24 48.7 39.58 48.96 39.04C50.27 36.3 51 33.24 51 30C51 26.76 50.27 23.7 48.96 20.96C48.7 20.42 48.87 19.76 49.35 19.4C49.51 19.29 49.66 19.16 49.81 19.01C51.16 17.66 51.33 15.49 50.23 13.94C48.89 12.07 46.28 11.74 44.52 13.16C44.48 13.19 44.44 13.23 44.4 13.26C43.94 13.67 43.26 13.7 42.77 13.33C39.23 10.61 34.8 9 30 9C25.2 9 20.77 10.61 17.23 13.33C16.75 13.7 16.07 13.68 15.61 13.28C15.47 13.14 15.31 13.02 15.13 12.91C13.53 11.87 11.38 12.15 10.09 13.56C8.53 15.25 8.75 17.87 10.51 19.3C10.55 19.33 10.59 19.36 10.63 19.39C11.12 19.76 11.3 20.41 11.04 20.96C9.73 23.7 9 26.76 9 30C9 33.24 9.73 36.3 11.04 39.04C11.3 39.58 11.13 40.24 10.65 40.6C10.49 40.71 10.34 40.84 10.19 40.99C8.84 42.34 8.67 44.51 9.77 46.06C11.11 47.93 13.72 48.26 15.48 46.84C15.52 46.81 15.56 46.77 15.6 46.74C16.06 46.33 16.74 46.3 17.23 46.67C20.77 49.39 25.2 51 30 51C34.8 51 39.23 49.39 42.77 46.67C43.26 46.3 43.94 46.33 44.4 46.74C44.44 46.77 44.48 46.81 44.52 46.84C46.28 48.26 48.89 47.93 50.23 46.06C51.33 44.51 51.16 42.34 49.81 40.99ZM30 44.43C22.03 44.43 15.57 37.97 15.57 30C15.57 22.03 22.03 15.57 30 15.57C37.97 15.57 44.43 22.03 44.43 30C44.43 37.97 37.97 44.43 30 44.43Z" />
		</g>
	</g>
</svg>