<svg width="16" height="16" viewBox="0 0 16 16" fill="none" xmlns="http://www.w3.org/2000/svg">
<path d="M13.6569 2.34313C12.1458 0.832156 10.1369 0 8 0C5.86313 0 3.85416 0.832156 2.34313 2.34313C0.832156 3.85416 0 5.86313 0 8C0 10.1369 0.832156 12.1458 2.34313 13.6569C3.85416 15.1678 5.86313 16 8 16C10.1369 16 12.1458 15.1678 13.6569 13.6569C15.1678 12.1458 16 10.1369 16 8C16 5.86313 15.1678 3.85416 13.6569 2.34313ZM8 2.1875C8.94772 2.1875 9.71875 2.95853 9.71875 3.90625C9.71875 4.85397 8.94772 5.625 8 5.625C7.05228 5.625 6.28125 4.85397 6.28125 3.90625C6.28125 2.95853 7.05228 2.1875 8 2.1875ZM10.1875 13.125H5.8125V12.1875H6.75V7.5H5.8125V6.5625H9.25V12.1875H10.1875V13.125Z" fill="white"/>
</svg>
