<svg version="1.2" baseProfile="tiny-ps" xmlns="http://www.w3.org/2000/svg" width="6" height="15"><style></style><g id="1"><g id="Recent Activity"><g id="Small Button"><path id="i" d="M5.28 12.91c-.22.06-.42.09-.59.09-.38 0-.64-.06-.79-.19-.16-.12-.23-.35-.23-.69 0-.14.02-.33.07-.6.05-.26.1-.5.16-.7l.72-2.56c.07-.23.12-.49.15-.77.02-.28.04-.48.04-.59 0-.54-.19-.98-.57-1.32-.38-.33-.92-.5-1.62-.5-.38 0-.79.07-1.23.21-.43.13-.89.3-1.36.49l-.2.79c.14-.05.31-.11.51-.16.2-.06.39-.09.58-.09.38 0 .64.06.77.19.14.13.21.36.21.69 0 .18-.03.38-.07.6-.04.22-.1.45-.16.7l-.73 2.56c-.06.27-.11.52-.14.73-.03.21-.04.42-.04.63 0 .53.19.96.58 1.3.39.35.94.52 1.64.52.46 0 .86-.06 1.2-.18.35-.12.81-.3 1.39-.53l.2-.79c-.1.05-.26.1-.49.17ZM5.45.87C5.11.55 4.7.39 4.23.39c-.48 0-.88.16-1.22.48-.34.32-.51.7-.51 1.14 0 .45.17.83.51 1.14.34.31.74.47 1.22.47.47 0 .88-.16 1.22-.47.33-.31.5-.69.5-1.14 0-.44-.17-.82-.5-1.14Z" style="fill:#3e4855"/></g></g></g></svg>