<svg version="1.2" baseProfile="tiny-ps" xmlns="http://www.w3.org/2000/svg" viewBox="0 0 6 15" width="6" height="15">
	<title>1</title>
	<style>
		tspan { white-space:pre }
		.shp0 { fill: #3e4855 } 
	</style>
	<g id="1">
		<g id="Recent Activity">
			<g id="Small Button">
				<path id="i" class="shp0" d="M5.28 12.91C5.06 12.97 4.86 13 4.69 13C4.31 13 4.05 12.94 3.9 12.81C3.74 12.69 3.67 12.46 3.67 12.12C3.67 11.98 3.69 11.79 3.74 11.52C3.79 11.26 3.84 11.02 3.9 10.82L4.62 8.26C4.69 8.03 4.74 7.77 4.77 7.49C4.79 7.21 4.81 7.01 4.81 6.9C4.81 6.36 4.62 5.92 4.24 5.58C3.86 5.25 3.32 5.08 2.62 5.08C2.24 5.08 1.83 5.15 1.39 5.29C0.96 5.42 0.5 5.59 0.03 5.78L-0.17 6.57C-0.03 6.52 0.14 6.46 0.34 6.41C0.54 6.35 0.73 6.32 0.92 6.32C1.3 6.32 1.56 6.38 1.69 6.51C1.83 6.64 1.9 6.87 1.9 7.2C1.9 7.38 1.87 7.58 1.83 7.8C1.79 8.02 1.73 8.25 1.67 8.5L0.94 11.06C0.88 11.33 0.83 11.58 0.8 11.79C0.77 12 0.76 12.21 0.76 12.42C0.76 12.95 0.95 13.38 1.34 13.72C1.73 14.07 2.28 14.24 2.98 14.24C3.44 14.24 3.84 14.18 4.18 14.06C4.53 13.94 4.99 13.76 5.57 13.53L5.77 12.74C5.67 12.79 5.51 12.84 5.28 12.91ZM5.45 0.87C5.11 0.55 4.7 0.39 4.23 0.39C3.75 0.39 3.35 0.55 3.01 0.87C2.67 1.19 2.5 1.57 2.5 2.01C2.5 2.46 2.67 2.84 3.01 3.15C3.35 3.46 3.75 3.62 4.23 3.62C4.7 3.62 5.11 3.46 5.45 3.15C5.78 2.84 5.95 2.46 5.95 2.01C5.95 1.57 5.78 1.19 5.45 0.87Z" />
			</g>
		</g>
	</g>
</svg>