<svg width="29" height="29" viewBox="0 0 29 29" fill="none" xmlns="http://www.w3.org/2000/svg">
<path d="M16.1421 20.7782L13.7801 23.1402C12.7188 24.2015 11.2911 24.8097 9.81124 24.8309C8.33138 24.8521 6.92054 24.2845 5.88909 23.253C4.85764 22.2216 4.29007 20.8108 4.31124 19.3309C4.33241 17.851 4.94058 16.4234 6.00197 15.362L8.31185 13.0521" stroke="#5963FF" stroke-width="2" stroke-linecap="round" stroke-linejoin="round"/>
<path d="M13.0521 8.31184L15.362 6.00196C16.4234 4.94057 17.851 4.3324 19.3309 4.31123C20.8108 4.29006 22.2216 4.85763 23.253 5.88908C24.2845 6.92053 24.8521 8.33137 24.8309 9.81123C24.8097 11.2911 24.2016 12.7187 23.1402 13.7801L20.7782 16.1421" stroke="#5963FF" stroke-width="2" stroke-linecap="round" stroke-linejoin="round"/>
<path d="M11 18.364L18.4731 10.8909" stroke="#5963FF" stroke-width="2" stroke-linecap="round" stroke-linejoin="round"/>
</svg>
