<svg width="29" height="29" fill="none" xmlns="http://www.w3.org/2000/svg"><path d="M16.142 20.778 13.78 23.14a5.744 5.744 0 0 1-3.969 1.69 5.422 5.422 0 0 1-3.922-1.577 5.422 5.422 0 0 1-1.578-3.922 5.744 5.744 0 0 1 1.691-3.969l2.31-2.31M13.052 8.312l2.31-2.31a5.744 5.744 0 0 1 3.969-1.69 5.422 5.422 0 0 1 3.922 1.577 5.422 5.422 0 0 1 1.578 3.922 5.744 5.744 0 0 1-1.69 3.97l-2.363 2.361M11 18.364l7.473-7.473" stroke="#5963FF" stroke-width="2" stroke-linecap="round" stroke-linejoin="round"/></svg>