<svg width="16" height="16" fill="none" xmlns="http://www.w3.org/2000/svg"><path d="M15.5 3.422a6.307 6.307 0 0 1-1.767.478 3.047 3.047 0 0 0 1.354-1.675 6.18 6.18 0 0 1-1.955.734A3.098 3.098 0 0 0 10.885 2c-1.7 0-3.077 1.357-3.077 3.029a2.86 2.86 0 0 0 .08.69 8.772 8.772 0 0 1-6.345-3.165 2.99 2.99 0 0 0-.418 1.522A3.02 3.02 0 0 0 2.5 6.597a3.047 3.047 0 0 1-1.4-.378v.037c0 1.469 1.063 2.69 2.47 2.969-.265.07-.538.106-.811.106a2.95 2.95 0 0 1-.579-.056 3.076 3.076 0 0 0 2.877 2.103A6.237 6.237 0 0 1 .5 12.63 8.708 8.708 0 0 0 5.21 14c5.668 0 8.764-4.616 8.764-8.619a8.11 8.11 0 0 0-.01-.39A6.201 6.201 0 0 0 15.5 3.42Z" fill="#fff"/></svg>