<svg width="16" height="16" xmlns="http://www.w3.org/2000/svg" fill="white">
   <path d="m8,4.34088c-2.06212,0 -3.73414,1.67202 -3.73414,3.73414c0,2.06212 1.67202,3.73414 3.73414,3.73414c2.06212,0 3.73414,-1.67202 3.73414,-3.73414c0.00061,-2.06212 -1.67141,-3.73414 -3.73414,-3.73414zm0,5.43406c-0.93854,0 -1.69932,-0.76078 -1.69932,-1.69932c0,-0.93854 0.76078,-1.69932 1.69932,-1.69932c0.93854,0 1.69932,0.76078 1.69932,1.69932c0.00061,0.93854 -0.76017,1.69932 -1.69932,1.69932z"/>
   <path d="m12.65812,0.3125l-9.31563,0c-1.7151,0 -3.10501,1.38991 -3.10501,3.105l0,9.31502c0,1.71509 1.38991,3.105 3.10501,3.105l9.31502,0c1.7151,0 3.10501,-1.38991 3.10501,-3.105l0,-9.31502c0.00061,-1.71449 -1.38991,-3.105 -3.1044,-3.105zm0.34945,10.50472c0.04125,0.03033 0.08069,0.06431 0.1177,0.10131c0.34884,0.34945 0.39495,0.91002 0.10799,1.31226c-0.3452,0.48414 -1.02044,0.57089 -1.47545,0.20203c-0.01092,-0.00849 -0.02124,-0.01759 -0.03155,-0.02669c-0.12012,-0.10556 -0.29606,-0.11406 -0.42286,-0.01638c-0.91548,0.70193 -2.0609,1.11933 -3.30339,1.11933c-1.24249,0 -2.38791,-0.4174 -3.30339,-1.11933c-0.1268,-0.09707 -0.30273,-0.08918 -0.42286,0.01638c-0.01031,0.0091 -0.02063,0.01759 -0.03155,0.02669c-0.45501,0.36826 -1.13025,0.2815 -1.47546,-0.20203c-0.28696,-0.40223 -0.24086,-0.9622 0.10799,-1.31226c0.03761,-0.03761 0.07705,-0.07159 0.1177,-0.10131c0.12558,-0.09282 0.16927,-0.26209 0.10132,-0.40345c-0.33853,-0.70861 -0.52782,-1.50154 -0.52782,-2.33876c0,-0.83722 0.18989,-1.63076 0.52782,-2.33937c0.06795,-0.14257 0.02123,-0.31123 -0.10557,-0.40526c-0.01092,-0.00789 -0.02184,-0.01638 -0.03276,-0.02548c-0.45501,-0.36826 -0.51083,-1.04714 -0.1092,-1.48516c0.33368,-0.36462 0.89183,-0.4356 1.30619,-0.16684c0.04429,0.02912 0.08554,0.06067 0.12377,0.09404c0.1183,0.10496 0.29363,0.1092 0.41922,0.01335c0.91549,-0.70193 2.06091,-1.11933 3.30339,-1.11933c1.24249,0 2.38791,0.4174 3.30339,1.11933c0.1268,0.09768 0.30273,0.08918 0.42286,-0.01638c0.01032,-0.0091 0.02063,-0.01759 0.03155,-0.02669c0.45501,-0.36826 1.13025,-0.2815 1.47546,0.20202c0.28696,0.40223 0.24085,0.9622 -0.10799,1.31226c-0.03761,0.03761 -0.07705,0.07159 -0.1177,0.10192c-0.12558,0.09282 -0.16926,0.26209 -0.10131,0.40284c0.33853,0.70861 0.52782,1.50154 0.52782,2.33876c0,0.83722 -0.18929,1.63016 -0.52782,2.33876c-0.06613,0.14136 -0.02305,0.31063 0.10253,0.40345l0,0z"/>
</svg>