<svg version="1.2" baseProfile="tiny-ps" xmlns="http://www.w3.org/2000/svg" width="29" height="27"><style></style><g id="1"><g id="Header"><g id="Logout"><path id="Shape 17" d="M15.67 27H3.31C1.49 27 0 25.48 0 23.62V3.38C0 1.52 1.49 0 3.31 0h12.36c1.83 0 3.31 1.52 3.31 3.38v3.75c0 .88-.69 1.59-1.55 1.59-.86 0-1.56-.71-1.56-1.59V3.38a.2.2 0 0 0-.2-.2H3.31a.2.2 0 0 0-.2.2v20.24c0 .11.09.2.2.2h12.36a.2.2 0 0 0 .2-.2v-3.71c0-.87.7-1.58 1.56-1.58.86 0 1.55.71 1.55 1.58v3.71c0 1.86-1.48 3.38-3.31 3.38Zm11.78-11.91H10.5c-.86 0-1.55-.71-1.55-1.59 0-.88.69-1.59 1.55-1.59h16.95c.86 0 1.55.71 1.55 1.59 0 .88-.69 1.59-1.55 1.59Zm0 0c-.39 0-.79-.16-1.09-.47l-3.96-4.07c-.6-.62-.6-1.62 0-2.24.6-.62 1.58-.62 2.18 0l3.97 4.07c.6.62.6 1.62 0 2.24-.31.31-.7.47-1.1.47Zm-3.96 4.07c-.39 0-.79-.16-1.09-.47-.6-.62-.6-1.62 0-2.24l3.96-4.07c.6-.62 1.58-.62 2.19 0 .6.62.6 1.62 0 2.24l-3.97 4.07c-.3.31-.69.47-1.09.47Z" style="fill:#495d75"/></g></g></g></svg>