<svg width="422" height="518" viewBox="0 0 422 518" fill="none" xmlns="http://www.w3.org/2000/svg">
<path d="M43.2497 334.369C-20.516 386.497 -2.73416 474.959 50.4045 491.397C103.543 507.834 153.31 491.397 223.713 487.375C294.115 483.354 318.559 495.22 324.803 442.422C328.372 412.242 266.436 338.559 192.464 312.695C137.029 293.312 70.5657 312.038 43.2497 334.369Z" fill="#F4F4F4" stroke="black" stroke-width="4.84893" stroke-linecap="round"/>
<path d="M386.414 316.727C409.73 339.847 429.686 394.607 413.806 431.113C397.927 467.619 362.936 501.431 290.705 499.437C218.474 497.444 165.926 489.855 144.367 508.993C122.808 528.13 95.5132 502.908 99.9545 463.968C104.396 425.028 145.666 435.98 159.911 394.607" fill="#F4F4F4"/>
<path d="M386.414 316.727C409.73 339.847 429.686 394.607 413.806 431.113C397.927 467.619 362.936 501.431 290.705 499.437C218.474 497.444 165.926 489.855 144.367 508.993C122.808 528.13 95.5132 502.908 99.9545 463.968C104.396 425.028 145.666 435.98 159.911 394.607" stroke="black" stroke-width="4.84893" stroke-linecap="round"/>
<path fill-rule="evenodd" clip-rule="evenodd" d="M211.002 270.312L179.01 361.152C187.489 407.217 156.926 437.037 96.6763 413.731C36.4266 390.425 -0.543182 327.411 39.5959 247.313C76.9369 177.858 141.972 178.896 195.27 179.747C200.647 179.833 205.904 179.917 211.002 179.927C216.099 179.917 221.356 179.833 226.733 179.747C280.032 178.896 345.066 177.858 382.407 247.313C422.546 327.411 385.576 390.425 325.327 413.731C265.077 437.037 234.514 407.217 242.994 361.152L211.002 270.312Z" fill="#F4F4F4"/>
<path d="M179.01 361.152L176.625 361.591L176.508 360.956L176.723 360.347L179.01 361.152ZM211.002 270.312L208.715 269.507L211.002 263.014L213.288 269.507L211.002 270.312ZM96.6763 413.731L97.551 411.47L96.6763 413.731ZM39.5959 247.313L37.4283 246.227L37.444 246.196L37.4605 246.165L39.5959 247.313ZM195.27 179.747L195.309 177.323L195.27 179.747ZM211.002 179.927L211.006 182.351L210.997 182.351L211.002 179.927ZM226.733 179.747L226.694 177.323L226.733 179.747ZM382.407 247.313L384.543 246.165L384.559 246.196L384.575 246.227L382.407 247.313ZM325.327 413.731L324.452 411.47H324.452L325.327 413.731ZM242.994 361.152L245.28 360.347L245.495 360.956L245.378 361.591L242.994 361.152ZM176.723 360.347L208.715 269.507L213.288 271.118L181.296 361.957L176.723 360.347ZM97.551 411.47C127.319 422.985 149.034 421.098 162.187 411.497C175.28 401.942 180.766 384.085 176.625 361.591L181.394 360.713C185.733 384.284 180.177 404.37 165.046 415.414C149.975 426.414 126.283 427.783 95.8016 415.992L97.551 411.47ZM41.7634 248.399C21.9539 287.93 21.2855 322.972 32.7336 350.9C44.1984 378.867 67.9445 400.017 97.551 411.47L95.8016 415.992C65.1584 404.139 40.2948 382.129 28.247 352.739C16.1826 323.308 17.0988 286.795 37.4283 246.227L41.7634 248.399ZM195.232 182.172C168.517 181.745 139.316 181.298 112.149 189.487C85.1246 197.633 60.0735 214.345 41.7313 248.461L37.4605 246.165C56.4593 210.827 82.596 193.33 110.749 184.844C138.759 176.401 168.725 176.899 195.309 177.323L195.232 182.172ZM210.997 182.351C205.88 182.342 200.605 182.257 195.232 182.172L195.309 177.323C200.689 177.409 205.929 177.493 211.006 177.502L210.997 182.351ZM210.997 177.502C216.074 177.493 221.314 177.409 226.694 177.323L226.772 182.172C221.398 182.257 216.124 182.342 211.006 182.351L210.997 177.502ZM226.694 177.323C253.278 176.899 283.244 176.401 311.254 184.844C339.407 193.33 365.544 210.827 384.543 246.165L380.272 248.461C361.93 214.345 336.879 197.633 309.854 189.487C282.687 181.298 253.486 181.745 226.772 182.172L226.694 177.323ZM384.575 246.227C404.904 286.795 405.821 323.308 393.756 352.739C381.708 382.129 356.845 404.139 326.202 415.992L324.452 411.47C354.059 400.017 377.805 378.867 389.269 350.9C400.718 322.972 400.049 287.93 380.24 248.399L384.575 246.227ZM326.202 415.992C295.72 427.783 272.028 426.414 256.957 415.414C241.826 404.37 236.27 384.284 240.609 360.713L245.378 361.591C241.237 384.085 246.724 401.942 259.816 411.497C272.969 421.098 294.684 422.985 324.452 411.47L326.202 415.992ZM240.707 361.957L208.715 271.118L213.288 269.507L245.28 360.347L240.707 361.957Z" fill="black"/>
<path d="M287.305 338.705C296.486 330.919 305.667 321.836 316.378 312.753C304.892 295.63 319.263 274.082 317.946 270.863" stroke="black" stroke-width="4.84893" stroke-linecap="round" stroke-linejoin="round"/>
<path d="M138.343 338.705C129.162 330.919 119.981 321.836 109.27 312.753C120.756 295.63 106.385 274.082 107.701 270.863" stroke="black" stroke-width="4.84893" stroke-linecap="round" stroke-linejoin="round"/>
<path d="M212.532 232.208C232.873 232.208 251.299 223.815 265.409 210.05C282.625 193.254 293.416 168.458 293.416 141.15C293.416 91.4616 257.692 50.092 212.532 50.092C167.373 50.092 131.649 91.4616 131.649 141.15C131.649 168.458 142.44 193.254 159.656 210.05C173.766 223.815 192.192 232.208 212.532 232.208Z" fill="#F4F4F4" stroke="#F4F4F4" stroke-width="2.42447"/>
<path d="M211.002 232.208C231.343 232.208 249.769 223.815 263.878 210.05C281.095 193.254 291.885 168.458 291.885 141.15C291.885 91.4616 256.162 50.092 211.002 50.092C165.842 50.092 130.119 91.4616 130.119 141.15C130.119 168.458 140.909 193.254 158.126 210.05C172.236 223.815 190.662 232.208 211.002 232.208Z" fill="#F4F4F4" stroke="black" stroke-width="4.84893"/>
<path d="M209.321 1.54602C96.1886 1.54602 17.7803 106.688 17.7803 134.892C17.7803 163.095 106.942 184.19 209.321 184.19C304.531 184.19 404.221 164.307 404.221 134.892C404.221 105.476 322.453 1.54602 209.321 1.54602Z" fill="black" stroke="black" stroke-width="2.42447"/>
<path d="M103.787 180.101C132.86 183.738 176.799 187.374 207.306 187.374C244.08 187.374 281.354 184.822 315.777 180.101" stroke="#F4F4F4" stroke-width="4.84893"/>
<path d="M54.1205 125.194C77.2915 64.8187 137.703 45.1864 134.07 42.7621C130.436 40.3377 61.432 79.6729 54.1205 125.194Z" fill="#F4F4F4"/>
<path d="M223.165 207.799C213.595 213.919 208.405 214.653 198.836 207.799" stroke="black" stroke-width="4.84893" stroke-linecap="round" stroke-linejoin="round"/>
<ellipse cx="212.612" cy="317.392" rx="3.80874" ry="5.54484" fill="#F4F4F4"/>
<path d="M227.914 357.566C214.097 343.739 213.55 321.868 226.692 308.717C239.834 295.565 261.689 296.113 275.507 309.94C281.567 316.005 287.857 320.833 290.68 326.673C294.292 334.148 292.225 343.282 276.729 358.789C261.32 374.209 251.807 375.669 243.682 371.386C238.255 368.525 233.447 363.103 227.914 357.566Z" fill="#F4F4F4"/>
<path d="M291.111 289.623C293.377 289.875 294.955 290.647 296.034 291.728C297.116 292.812 297.785 294.298 298.066 296.143C298.636 299.884 297.574 304.887 295.431 310.108C293.302 315.295 290.173 320.533 286.806 324.681C283.397 328.881 279.907 331.761 277.106 332.552C271.299 334.191 264.906 331.769 259.223 326.084C253.558 320.417 248.768 311.651 246.273 301.112C243.81 290.712 245.72 279.624 249.826 270.686C253.96 261.685 260.166 255.169 266.03 253.514C267.342 253.143 268.277 253.32 269.033 253.804C269.841 254.322 270.573 255.276 271.255 256.709C272.395 259.107 273.209 262.416 274.124 266.141C274.316 266.923 274.513 267.724 274.719 268.539C275.877 273.133 277.29 278.075 279.721 282.013C282.182 286 285.729 289.023 291.111 289.623Z" fill="#F4F4F4" stroke="black" stroke-width="2.42447"/>
<path d="M148.434 274.464C154.753 282.45 160.243 286.695 165.043 288.717C169.879 290.754 173.922 290.496 177.226 289.67C178.725 289.295 180.074 288.803 181.229 288.381C181.329 288.345 181.427 288.309 181.523 288.274C182.788 287.814 183.727 287.495 184.498 287.413C185.196 287.339 185.631 287.47 186.007 287.833C186.452 288.262 186.941 289.139 187.37 290.889C190.737 304.606 179.719 320.198 162.063 325.363C144.407 330.529 127.725 323.041 124.359 309.324C123.54 305.987 124.042 301.388 125.53 296.443C127.007 291.531 129.411 286.431 132.222 282.166C135.053 277.871 138.205 274.564 141.119 273.062C142.558 272.321 143.869 272.054 145.036 272.243C146.187 272.43 147.342 273.084 148.434 274.464Z" fill="#F4F4F4" stroke="black" stroke-width="2.42447"/>
<path d="M217.905 271.149C224.059 278.951 229.407 283.103 234.084 285.084C238.798 287.08 242.738 286.832 245.958 286.028C247.417 285.663 248.731 285.183 249.854 284.773C249.951 284.738 250.046 284.703 250.14 284.669C251.371 284.22 252.279 283.912 253.024 283.833C253.694 283.762 254.108 283.889 254.467 284.237C254.895 284.651 255.37 285.501 255.789 287.209C259.07 300.582 248.381 315.771 231.226 320.79C214.071 325.809 197.858 318.49 194.576 305.117C193.778 301.866 194.261 297.384 195.703 292.562C197.136 287.772 199.468 282.8 202.197 278.643C204.946 274.456 208.005 271.238 210.83 269.78C212.223 269.061 213.49 268.804 214.616 268.988C215.727 269.17 216.845 269.805 217.905 271.149Z" fill="black" stroke="#F4F4F4" stroke-width="2.42447"/>
<path d="M177.922 255.863L178.253 255.778L178.49 255.533C182.912 250.982 185.505 249.597 187.569 249.155C188.621 248.93 189.605 248.933 190.774 248.968C190.882 248.971 190.991 248.974 191.101 248.978C192.178 249.012 193.406 249.051 194.829 248.897L194.836 248.896C198.891 248.435 201.372 247.186 202.993 246.37C203.144 246.294 203.288 246.222 203.425 246.154C204.294 245.725 204.585 245.661 204.726 245.676L204.728 245.676C204.746 245.678 204.792 245.683 204.892 245.764C205.013 245.862 205.193 246.056 205.434 246.432C206.478 248.098 206.256 250.765 204.622 254.389C203.027 257.929 200.257 261.99 196.941 266.093C190.316 274.289 181.701 282.418 176.584 286.503C171.591 290.489 166.122 292.353 161.305 292.242C156.511 292.131 152.359 290.072 149.805 286.16C147.28 282.138 147.423 277.74 149.499 273.248C151.595 268.713 155.638 264.162 160.735 260.092C162.291 258.87 164.254 258.348 167.111 257.873C167.747 257.767 168.424 257.664 169.143 257.555C171.591 257.182 174.515 256.737 177.922 255.863Z" fill="#F4F4F4" stroke="black" stroke-width="2.42447"/>
<path d="M256.622 268.957C256.667 270.886 255.205 272.575 251.919 274.012C248.699 275.419 244.183 276.361 239.186 276.997C231.95 277.918 223.984 278.168 217.895 278.36C215.569 278.433 213.517 278.498 211.885 278.588C200.876 279.195 191.75 271.323 191.511 261.226C191.45 258.668 191.978 257.391 192.728 256.621C193.531 255.794 194.799 255.311 196.803 254.83C197.365 254.695 197.969 254.564 198.612 254.424C202.439 253.593 207.624 252.465 213.407 248.513C216.311 246.53 220.385 246.048 225.059 246.766C229.71 247.48 234.786 249.36 239.508 251.87C244.228 254.379 248.533 257.484 251.656 260.6C253.217 262.157 254.46 263.695 255.313 265.138C256.172 266.59 256.596 267.878 256.622 268.957Z" fill="#F4F4F4" stroke="black" stroke-width="2.42447"/>
<path d="M139.035 347.645C168.052 347.645 261.774 347.645 283.211 347.645C308.791 347.645 292.131 257.506 212.118 257.506C132.106 257.506 110.018 347.645 139.035 347.645Z" fill="black"/>
<path d="M221.301 320.164C213.198 325.346 208.803 325.968 200.7 320.164" stroke="#F4F4F4" stroke-width="2.42447" stroke-linecap="round" stroke-linejoin="round"/>
<path d="M271.229 298.429C278.645 292.292 265.388 292.621 273.844 278.061C272.001 277.217 264.776 272.779 260.445 270.476C254.161 267.136 266.364 277.987 267.691 282.77C269.018 287.552 261.927 306.128 271.229 298.429Z" fill="#F4F4F4"/>
<path d="M181.313 273.142C185.056 269.932 178.365 270.104 182.633 262.488C183.827 260.358 183.499 260.297 181.313 259.092C178.141 257.345 178.857 262.449 179.527 264.951C180.197 267.452 176.617 277.169 181.313 273.142Z" fill="#F4F4F4"/>
<path d="M157.473 289.999C162.445 285.735 153.557 285.963 159.226 275.847C160.812 273.019 160.377 272.937 157.473 271.337C153.26 269.016 154.211 275.796 155.101 279.119C155.99 282.441 151.236 295.347 157.473 289.999Z" fill="#F4F4F4"/>
<path d="M146.712 313.618C148.013 313.618 149.067 312.467 149.067 311.047C149.067 309.627 148.013 308.476 146.712 308.476C145.412 308.476 144.357 309.627 144.357 311.047C144.357 312.467 145.412 313.618 146.712 313.618Z" fill="#F4F4F4"/>
<path d="M141.315 324.423C142.615 324.423 143.669 323.272 143.669 321.852C143.669 320.432 142.615 319.281 141.315 319.281C140.014 319.281 138.96 320.432 138.96 321.852C138.96 323.272 140.014 324.423 141.315 324.423Z" fill="#F4F4F4"/>
<path d="M271.727 314.418C273.027 314.418 274.081 313.267 274.081 311.847C274.081 310.427 273.027 309.276 271.727 309.276C270.426 309.276 269.372 310.427 269.372 311.847C269.372 313.267 270.426 314.418 271.727 314.418Z" fill="#F4F4F4"/>
<path d="M269.186 325.508C270.486 325.508 271.54 324.356 271.54 322.936C271.54 321.517 270.486 320.365 269.186 320.365C267.885 320.365 266.831 321.517 266.831 322.936C266.831 324.356 267.885 325.508 269.186 325.508Z" fill="#F4F4F4"/>
<path d="M281.379 324.116C282.68 324.116 283.734 322.965 283.734 321.545C283.734 320.125 282.68 318.974 281.379 318.974C280.079 318.974 279.024 320.125 279.024 321.545C279.024 322.965 280.079 324.116 281.379 324.116Z" fill="#F4F4F4"/>
<path d="M154.811 321.722C156.111 321.722 157.165 320.571 157.165 319.151C157.165 317.731 156.111 316.58 154.811 316.58C153.51 316.58 152.456 317.731 152.456 319.151C152.456 320.571 153.51 321.722 154.811 321.722Z" fill="#F4F4F4"/>
<path d="M267.312 328.261C252.539 315.462 230.701 316.484 218.535 330.545C206.369 344.607 213.165 362.974 223.256 379.181C232.36 388.962 242.403 401.887 248.427 404.285C256.137 407.355 257.687 393.477 272.032 376.897C286.296 360.411 287.069 350.811 282.217 343.008C278.977 337.797 273.227 333.387 267.312 328.261Z" fill="#F4F4F4"/>
<path d="M272.623 410.004C242.803 404.156 233.596 392.872 223.21 379.345C212.825 365.818 206.324 344.77 218.49 330.709C230.656 316.648 252.494 315.626 267.267 328.425C273.182 333.551 281.854 339.736 287.582 352.062" stroke="black" stroke-width="4.84893" stroke-linecap="round"/>
<path d="M155.639 328.261C170.412 315.462 192.25 316.484 204.416 330.545C216.582 344.606 209.786 362.973 199.696 379.181C190.591 388.961 180.548 401.887 174.524 404.285C166.814 407.354 165.264 393.476 150.919 376.897C136.655 360.411 135.882 350.811 140.734 343.008C143.975 337.797 149.724 333.387 155.639 328.261Z" fill="#F4F4F4"/>
<path d="M150.329 410.003C180.149 404.156 189.356 392.872 199.742 379.345C210.128 365.818 216.628 344.77 204.462 330.709C192.296 316.648 170.458 315.626 155.686 328.425C149.77 333.551 141.098 339.736 135.37 352.062" stroke="black" stroke-width="4.84893" stroke-linecap="round"/>
<path d="M249.279 300.275C235.34 301.327 236.126 302.108 229.29 304.876" stroke="#F4F4F4" stroke-width="2.42447" stroke-linecap="round"/>
<path d="M171.523 300.336C185.09 301.361 184.325 302.121 190.979 304.815" stroke="#F4F4F4" stroke-width="2.42447" stroke-linecap="round"/>
<path d="M166.474 291.894C169.854 287.542 172.769 285.15 178.367 284.171C183.964 283.193 188.359 284.042 192.258 287.384" stroke="#F4F4F4" stroke-width="2.42447" stroke-linecap="round"/>
<path d="M254.326 291.894C250.946 287.542 248.031 285.15 242.433 284.171C236.835 283.193 232.441 284.042 228.542 287.384" stroke="#F4F4F4" stroke-width="2.42447" stroke-linecap="round"/>
</svg>
