<svg width="241" height="284" viewBox="0 0 241 284" fill="none" xmlns="http://www.w3.org/2000/svg">
<path d="M72.7003 65.0214L122.836 47.0482L172.972 49.8861L184.323 75.427L167.296 88.6704L158.783 112.319L137.971 124.617L98.2412 116.103L72.7003 65.0214Z" fill="#EEEEEE"/>
<path d="M184.323 171.915L134.188 189.888L84.0517 187.05L72.7002 161.509L89.7275 148.266L89.7275 123.671L119.052 112.319L158.782 120.833L184.323 171.915Z" fill="#EEEEEE"/>
<path d="M173.706 266.158C173.415 266.426 173.162 266.971 172.751 266.501C172.386 266.799 171.662 268.157 170.789 267.903C172.647 266.605 171.692 266.18 169.834 266.486C165.417 280.212 146.936 274.341 135.931 275.117C120.808 288.41 115.473 285.598 103.491 271.208C90.255 271.603 77.1385 270.462 63.9997 268.649C56.0388 267.254 48.3316 267.344 41.3855 263.427C16.8239 252.558 9.84783 217.385 31.2683 199.833C53.5916 174.41 22.3151 137.61 95.5224 119.811C89.8744 110.263 80.9212 102.527 74.6839 93.5306C69.4612 89.2114 41.0124 95.1493 44.5489 83.5046C49.9208 72.1508 56.9342 71.099 45.5487 60.4539C45.5181 60.4764 45.4856 60.4964 45.4517 60.5135H45.586C45.4995 60.6149 45.4387 60.7356 45.4088 60.8655C45.3789 60.9954 45.3808 61.1305 45.4144 61.2595C41.6317 56.6941 37.5505 51.6215 33.5738 47.2053C31.1266 43.7738 27.6945 41.4314 25.031 38.2013C24.4565 37.5821 22.4569 33.5837 22.1361 35.374C27.4856 58.0816 13.1829 48.3914 11.6907 33.0988C11.6907 32.1738 10.4372 32.2559 10.3552 31.3532C10.1612 30.7191 10.5119 29.809 9.47478 30.0552C3.5806 31.1966 0.0664678 24.3186 1.70789 19.343C0.215688 18.3956 -1.21682 16.5605 1.65566 16.4187C1.74519 13.3453 1.60343 10.0331 4.14017 7.646C-1.6794 -0.79848 -0.194667 -2.74549 7.63938 4.31894C11.4296 2.14814 15.7122 1.63341 19.4576 4.12498C23.1881 -0.962595 20.2485 8.32484 24.7922 7.26555C32.9993 10.3987 25.8367 15.5161 30.8356 15.725C31.2534 17.5228 27.6274 18.4329 31.7757 20.4694L31.7384 20.4321C31.9174 23.3638 33.5589 26.1687 33.2306 29.1526C40.5946 40.5511 50.5625 48.9359 59.6052 59.6034C63.0746 58.2308 64.8279 53.1283 67.6108 50.4727C70.3043 46.243 74.8629 44.5645 78.0562 40.7749C97.6936 20.0591 131.432 18.2314 157.829 25.6017C183.674 34.5535 202.185 58.38 217.584 79.9761C209.862 89.368 192.762 86.5407 181.473 90.196C175.139 91.8596 165.678 88.1148 166.215 97.4843C165.119 103.624 161.97 109.144 158.754 114.12C163.365 121.482 186.315 120.266 193.873 128.33C219.718 151.157 216.435 158.916 221.397 188.33C246.399 214.193 249.144 245.636 211.966 261.13C207.84 263.897 203.58 263.703 198.917 264.158C190.478 265.337 182.01 267.142 173.676 266.187L173.706 266.158ZM105.199 157.237C104.744 157.237 104.61 157.588 104.453 157.901C103.08 157.901 104.162 159.341 104.535 157.983C104.938 157.879 105.281 157.692 105.192 157.237C105.438 157.304 105.543 157.14 105.617 156.946C107.356 156.476 105.229 155.454 105.617 156.984C105.237 156.857 105.237 156.857 105.199 157.237ZM199.775 258.056L199.723 258.168V258.086C199.476 256.885 198.924 258.086 198.335 257.698C199.126 256.408 202.065 256.206 203.05 254.938C202.513 257.228 203.267 255.483 203.416 255.736C198.38 256.848 201.998 259.832 202.513 257.228C204.348 257.698 205.751 256.154 207.445 256.147C218.487 252.461 229.917 244.211 232.693 232.432C233.931 228.068 236.132 219.206 233.066 216.378H233.111C232.447 215.531 232.123 214.468 232.2 213.395C232.491 213.208 232.491 213.208 232.2 213.021C233.334 208.628 215.786 190.523 214.227 198.579C213.712 199.751 212.735 200.72 212.399 201.959C199.462 220.966 182.107 236.005 157.62 227.911C158.553 229.045 160.478 230.194 157.784 229.634C152.196 224.465 145.19 220.869 140.758 214.402C139.624 214.528 138.453 215.036 137.543 214.178C132.186 216.543 126.224 213.588 123.531 219.929C119.741 224.66 114.94 228.482 109.48 231.117C104.021 233.751 98.0406 235.131 91.9784 235.155C46.6455 235.006 45.5412 195.797 42.2136 207.21C39.8634 207.069 43.191 206.643 41.8331 205.532L41.8704 205.584C41.1243 204.726 41.2885 203.891 41.2362 202.846C41.8331 202.608 41.7958 203.122 41.2362 202.846C41.2343 202.915 41.2188 202.982 41.1907 203.044C41.1626 203.106 41.1223 203.162 41.0723 203.209C41.0223 203.255 40.9636 203.291 40.8995 203.315C40.8354 203.339 40.7673 203.349 40.699 203.346L40.7363 203.383C42.6464 199.654 37.6624 202.57 36.394 203.682L36.4388 203.719C32.7829 201.19 27.4259 219.72 25.9934 222.04V221.943L25.9412 221.996C23.5089 230.589 26.2322 241.391 31.9548 248.851V248.776C32.2457 251.387 37.0133 253.364 38.8786 255.311C41.3201 257.515 44.3558 258.952 47.6079 259.444V259.496C48.0854 259.832 48.6674 259.496 49.1896 259.72C49.2941 260.003 49.4209 260.376 49.5254 260.66C65.8426 266.732 83.8012 265.255 100.932 265.322C100.469 262.092 97.037 258.056 98.089 254.132C98.8799 251.081 96.5968 251.148 97.037 249.142C97.8577 248.724 97.6637 248.314 97.4474 247.613C99.4842 247.374 100.171 243.636 101.066 241.734C113.108 229.015 130.164 232.887 133.394 223.652C136.155 218.631 135.551 228.404 128.522 231.208C111.601 232.7 97.1862 245.487 102.663 263.539C102.282 266.687 107.453 267.202 109.452 269.507C109.952 269.723 111.064 268.619 110.743 269.984C116.443 281.681 127.157 280.988 135.103 271.29C138.684 267.687 143.84 266.001 147.309 262.666C162.761 258.191 178.989 262.898 194.008 259.272C195.738 258.429 193.045 260.988 194.008 259.272C194.059 259.132 194.072 258.981 194.046 258.834C194.02 258.688 193.955 258.55 193.858 258.437C194.269 258.735 194.672 258.347 195.007 258.161C195.515 257.952 195.142 258.959 195.664 258.907C196.186 258.854 196.805 259.086 197.096 258.638L197.052 258.683L198.424 257.661C197.783 258.989 199.118 258.384 199.775 258.056ZM98.7754 101.871C98.6784 99.3343 96.9475 97.4619 96.8132 94.7241C79.9737 90.0469 101.29 105.832 103.968 111.882C104.871 111.397 103.677 110.39 103.289 109.808C102.148 106.891 100.924 103.937 98.8127 101.721L98.7754 101.871ZM148.839 267.478C147.077 268.567 145.184 269.427 143.206 270.037C149.846 272.275 160.06 274.184 165.365 268.276C167.014 264.986 150.323 265.971 148.794 267.53L148.839 267.478ZM70.4087 61.0506C70.7146 59.3349 72.0427 59.4916 72.9902 58.2756V58.4099C73.7363 57.3655 74.5421 55.6348 76.0865 56.3361C76.4148 56.0377 77.3549 55.5901 76.8326 55.0231C86.3305 48.5704 93.7467 37.2092 104.379 31.2488C94.4853 26.855 85.0546 41.0286 79.0411 47.914C77.3176 49.8237 64.1191 64.5269 70.446 60.991C70.3789 61.0656 70.3938 61.073 70.446 60.991L70.4087 61.0506ZM146.183 182.429L146.257 182.362L146.145 182.429L146.765 182.093C182.458 191.567 152.935 136.454 113.429 155.037V155.454C102.7 158.438 96.9624 172.157 103.297 181.564C117.018 185.003 132.805 181.593 146.183 182.429ZM178.034 169.538C179.787 168.86 177.25 167.875 176.899 167.3C175.639 163.199 174.106 159.187 172.311 155.29C170.864 153.351 171.147 139.938 174.064 146.256C174.698 154.246 177.593 163.25 182.13 169.553C177.914 178.99 182.734 181.34 186.949 189.344C188.175 191.487 188.906 193.875 189.091 196.336C189.276 198.798 188.908 201.269 188.016 203.57C186.054 196.647 180.966 190.5 175.064 186.032C163.746 188.016 150.607 185.831 138.871 187.352C133.976 192.015 140.482 200.616 140.781 206.487C145.481 222.495 166.947 227.576 181.525 222.54C235.021 198.43 221.352 129.703 164.268 121.997C157.605 125.466 149.659 142.698 141.094 132.314C137.677 128.122 136.297 133.254 131.738 130.076C127.791 132.217 123.344 136.208 118.308 135.775C111.974 132.045 107.467 121.027 99.2977 122.639C81.7047 125.421 57.9041 136.663 52.7262 150.501C55.233 150.792 52.9425 152.538 51.8756 153.373C46.8842 162.183 46.2948 174.357 44.7056 184.16C43.6387 198.826 51.6667 217.177 64.2012 225.614C81.5927 234.685 109.221 235.401 120.905 217.55H120.867C122.121 217.624 123.583 214.387 122.449 213.618C120.211 207.859 130.074 187.181 121.352 187.77V187.815C114.637 182.832 98.3949 193.865 96.0969 182.668C87.7779 179.788 74.0497 192.365 75.042 202.272C77.0191 210.724 71.0951 203.458 70.9384 199.594C71.8785 191.858 76.5118 185.86 81.7494 180.37C71.6248 169.665 76.4148 174.208 77.5937 161.877C77.4146 161.348 76.8923 161.982 77.0266 162.355C76.1164 163.183 77.1535 161.034 76.5864 160.676C79.9066 156.946 75.6986 145.175 78.7501 144.369C82.0106 151.762 81.7793 160.855 79.3918 168.479C78.2502 172.381 84.3981 174.596 86.4498 177.632C102.782 171.254 93.9108 176.61 100.7 161.467C100.902 160.251 102.193 159.43 102.073 157.923C105.244 153.574 109.571 150.949 114.309 148.86C116.704 149.606 117.495 147.301 119.532 146.808C119.957 146.167 120.741 146.503 121.345 146.644C122.569 146.779 123.15 145.346 124.404 146.383C130.805 139.214 140.162 145.003 146.578 147.748C146.742 148.121 147.011 148.83 147.518 148.494C152.263 144.302 161.045 149.084 162.194 154.701C178.317 166.95 170.17 185.719 178.041 169.62L178.034 169.538ZM82.2941 63.2737C76.6759 71.6212 83.4505 87.6523 94.3809 83.0645C95.127 80.3939 93.0528 76.1269 95.4553 73.9561C98.5292 81.9977 96.4177 93.1128 101.931 100.558C106.856 121.109 135.424 125.294 150.241 116.223C163.999 108.405 164.186 90.0096 165.909 76.3059C165.963 76.4641 166.049 76.6091 166.163 76.7311C167.842 74.717 167.282 79.439 167.394 80.5207C169.961 88.0402 181.287 81.11 180.212 74.7394C181.824 68.1225 170.819 51.3902 165.663 60.8343C164.044 63.3781 163.82 58.8798 164.238 57.7087C162.91 50.316 122.539 53.1134 116.204 54.2772C115.995 55.5229 113.28 53.5983 112.235 55.0231C111.064 55.4334 110.243 54.1205 108.9 54.859C105.916 54.2324 103.349 59.2006 101.439 57.097C87.7854 58.9917 96.2163 60.6031 93.3065 65.6086C90.4639 61.916 86.4648 60.8567 82.2941 63.2737ZM11.8175 11.5326C13.541 11.7414 14.3916 13.39 15.5928 14.4419C17.8311 14.6433 24.2849 13.1439 22.5539 17.8137C22.5017 18.8133 23.8074 18.7238 24.1729 18.0151C29.045 11.6445 24.6877 10.1749 19.5546 7.95931C15.6152 3.02839 3.72982 5.31109 11.8175 11.5326ZM159.001 156.581C156.553 155.939 154.987 154.022 153.285 152.582C151.592 152.784 150.45 151.568 148.951 151.09C148.204 149.598 145.832 150.784 145.601 149.002C144.787 147.614 142.885 149.434 141.676 148.032C140.139 150.605 138.356 146.055 137.05 148.897C153.166 150.978 164.85 162.429 165.618 178.856C165.924 184.92 173.132 180.295 170.468 178.11C169.923 180.034 170.379 181.094 168.23 179.385C168.561 178.914 168.698 178.333 168.612 177.763C168.526 177.194 168.223 176.679 167.767 176.327C168.633 172.918 166.126 171.814 166.275 168.658C164.343 166.569 163.641 163.876 162.373 161.43C160.955 160.907 161.806 159.236 160.59 158.595C159.374 157.953 159.471 157.909 159.001 156.581ZM12.5338 16.4113C8.51231 4.92318 2.55098 7.83996 5.31155 18.9252C3.26723 19.5966 5.87112 24.065 7.33348 25.2735C8.54216 26.8326 10.4746 25.6166 11.8101 26.2582C12.0936 27.1235 13.0635 26.5044 13.4291 25.9673C14.6154 23.7293 16.5627 26.0269 18.0325 26.3402C19.0323 23.2892 14.9735 23.8188 13.1083 22.6103C11.9518 22.5656 12.8845 24.8483 11.6758 24.5499C10.1164 21.3496 5.22201 15.8742 12.5338 16.4113ZM141.355 122.937C137.684 123.459 132.051 123.012 129.298 124.727C132.096 129.725 139.893 127.622 141.355 122.945V122.937ZM120.815 147.987C118.54 148.897 117.047 150.374 114.578 150.553C112.444 151.21 104.2 155.947 110.526 153.5C117.861 150.121 126.754 149.68 134.133 148.211C129.918 147.129 125.046 148.666 120.815 147.995V147.987ZM168.498 171.575C169.58 172.955 169.849 174.081 169.073 175.626C172.908 179.781 172.162 170.366 170.565 168.397C169.834 169.538 169.521 170.553 168.498 171.575ZM161.231 156.984C162.462 157.73 162.545 159.162 163.395 159.967C167.782 161.415 163.611 157.55 162.268 156.118C162.028 156.141 161.801 156.236 161.616 156.39C161.431 156.545 161.297 156.751 161.231 156.984ZM74.3854 57.9548C74.7808 57.9996 75.221 57.1641 74.654 57.2089C74.3854 57.2909 73.9452 57.8504 74.3854 57.9548ZM120.927 232.193C120.756 232.037 119.607 232.402 119.935 232.663C120.125 232.664 120.312 232.622 120.484 232.54C120.656 232.459 120.807 232.34 120.927 232.193ZM123.106 186.599C122.569 186.502 122.755 187.24 123.106 187.129C123.456 187.017 123.524 186.651 123.106 186.599ZM156.8 227.628V227.523L156.68 227.561L156.8 227.628ZM26.068 220.735C25.9337 220.645 25.8666 220.675 25.889 220.817C25.9114 220.959 26.068 220.869 26.068 220.735Z" fill="#04040A"/>
<path d="M46.5039 63.2365L46.2577 62.2518H46.2129L46.4293 63.1768L46.5039 63.2365Z" fill="#04040A"/>
<path d="M46.4296 63.2169L46.5524 63.1632C46.4372 63.0788 46.4219 63.1095 46.4987 63.24L46.4296 63.2169Z" fill="#04040A"/>
<path d="M46.2596 62.2518H46.1162C46.1463 62.2556 46.1767 62.2556 46.2068 62.2518H46.2596Z" fill="#04040A"/>
<path d="M45.4153 61.2151V61.3284C45.4983 61.2756 45.4832 61.2303 45.37 61.1849L45.4153 61.2151Z" fill="#04040A"/>
<path d="M31.7768 20.4714C31.8751 20.0635 32.0943 20.5621 31.739 20.4336L31.7768 20.4714Z" fill="#04040A"/>
<path d="M33.7198 17.6352C33.6123 17.5814 33.5663 17.6352 33.5893 17.7197H33.6814L33.7198 17.6352Z" fill="#04040A"/>
<path d="M33.6795 17.6955V17.5975C33.5968 17.6427 33.6043 17.6578 33.6795 17.6352C33.7547 17.6126 33.6795 17.6955 33.6795 17.6955Z" fill="#04040A"/>
<path d="M34.0813 16.464V16.6C34.2775 16.6378 34.3076 16.3583 34.0813 16.4338V16.464Z" fill="#04040A"/>
<path d="M34.6483 16.2246C34.4543 16.2992 34.1634 16.1426 34.0813 16.4708C34.335 16.5901 34.4916 16.3738 34.6931 16.3067L34.6483 16.2246Z" fill="#04040A"/>
<path d="M34.6943 16.2718C34.6263 16.0603 34.9285 16.0301 34.6489 16.2189L34.6943 16.2718Z" fill="#04040A"/>
<path d="M54.466 150.255C53.4885 149.457 56.3313 148.867 56.9505 148.278C57.3758 149.248 55.3091 150.001 54.466 150.255Z" fill="#04040A"/>
<path d="M111.109 215.327C114.026 213.79 115.436 215.513 111.109 215.327V215.327Z" fill="#04040A"/>
<path d="M58.7475 146.592C57.5688 148.718 57.345 146.234 58.7848 146.629L58.7475 146.592Z" fill="#04040A"/>
<path d="M111.072 215.319C110.602 215.379 110.109 216.005 109.684 215.7C109.37 214.842 110.788 215.349 111.072 215.319Z" fill="#04040A"/>
<path d="M117.257 214.528C118.004 214.603 117.317 214.998 116.952 214.663L117.257 214.528Z" fill="#04040A"/>
<path d="M120.368 213.73C119.622 214.387 119.249 213.775 120.368 213.797V213.73Z" fill="#04040A"/>
<path d="M139.163 139.08L139.278 139.141L139.147 139.18L139.163 139.08Z" fill="#04040A"/>
<path d="M58.7846 146.629C58.2922 145.816 59.2994 145.697 58.7399 146.585L58.7846 146.629Z" fill="#04040A"/>
<path d="M121.364 187.773L121.226 187.704C121.31 187.551 121.387 187.842 121.364 187.773Z" fill="#04040A"/>
<path d="M120.349 213.801L120.295 213.685C120.218 213.793 120.241 213.816 120.372 213.739L120.349 213.801Z" fill="#04040A"/>
<path d="M120.961 217.557L120.846 217.642C121.099 217.749 120.784 217.504 120.961 217.557Z" fill="#04040A"/>
<path d="M108.961 215.685L109 215.792L108.892 215.777L108.961 215.685Z" fill="#04040A"/>
<path d="M37.1699 209.142C38.3338 205.793 39.453 207.986 37.1699 209.105V209.142Z" fill="#04040A"/>
<path d="M40.4308 203.809C39.625 206.271 38.0732 204.555 40.3338 203.712L40.4308 203.809Z" fill="#04040A"/>
<path d="M96.8288 257.959C97.2168 257.997 97.3585 258.705 97.0601 258.892C96.9688 258.862 96.8867 258.809 96.8213 258.739C96.756 258.669 96.7096 258.583 96.6865 258.49C96.6634 258.396 96.6643 258.299 96.6892 258.206C96.7141 258.113 96.7622 258.028 96.8288 257.959Z" fill="#04040A"/>
<path d="M36.4167 203.719C36.5585 204.197 36.0138 205.301 35.5438 204.935C35.8423 204.547 35.9765 203.951 36.4615 203.757L36.4167 203.719Z" fill="#04040A"/>
<path d="M144.154 263.674C144.068 263.688 143.979 263.672 143.902 263.631C143.825 263.589 143.764 263.523 143.729 263.442C143.736 262.928 144.915 263.241 144.154 263.674Z" fill="#04040A"/>
<path d="M96.3296 256.311C96.1058 256.109 95.8223 255.744 96.3296 255.706C96.8369 255.669 96.7623 256.363 96.3296 256.311Z" fill="#04040A"/>
<path d="M127.112 232.104L126.807 231.82C126.845 231.766 126.899 231.723 126.961 231.698C127.022 231.672 127.09 231.664 127.156 231.675C127.222 231.686 127.284 231.715 127.334 231.759C127.384 231.803 127.421 231.861 127.441 231.925L127.112 232.104Z" fill="#04040A"/>
<path d="M35.0243 205.787C35.0243 205.953 34.7375 206.059 34.7903 205.787C34.8005 205.764 34.8169 205.745 34.8377 205.731C34.8584 205.718 34.8826 205.711 34.9073 205.711C34.932 205.711 34.9562 205.718 34.977 205.731C34.9977 205.745 35.0142 205.764 35.0243 205.787Z" fill="#04040A"/>
<path d="M38.1171 205.644C38.3398 205.644 38.2062 206.008 38.028 206.008C38.0503 205.889 37.9389 205.703 38.1171 205.644Z" fill="#04040A"/>
<path d="M41.8408 205.569C41.8408 205.935 41.4528 205.965 41.1991 205.786C41.3334 205.48 41.6095 205.607 41.8781 205.614L41.8408 205.569Z" fill="#04040A"/>
<path d="M131.65 230.851C131.65 230.896 131.65 230.963 131.575 230.986C131.313 231.158 131.463 230.559 131.65 230.851Z" fill="#04040A"/>
<path d="M41.6986 208.873L41.5872 208.925C41.5872 208.791 41.4089 208.642 41.5872 208.605C41.6466 208.702 41.6689 208.791 41.6986 208.873Z" fill="#04040A"/>
<path d="M96.1272 254.483C95.7991 253.521 96.172 253.394 96.1272 254.483V254.483Z" fill="#04040A"/>
<path d="M120.781 234.776C120.781 234.776 120.691 234.829 120.66 234.822C120.343 234.708 120.872 234.467 120.781 234.776Z" fill="#04040A"/>
<path d="M43.0953 210.135L43.1255 210.286L43.0122 210.263L43.0953 210.135Z" fill="#04040A"/>
<path d="M40.7208 203.384C40.7388 203.431 40.7451 203.481 40.7392 203.532C40.7333 203.582 40.7153 203.63 40.6868 203.671C40.6583 203.713 40.6202 203.747 40.5756 203.771C40.531 203.794 40.4814 203.807 40.4309 203.807L40.3344 203.71C40.3789 203.465 40.4904 203.332 40.7579 203.421L40.7208 203.384Z" fill="#04040A"/>
<path d="M37.1417 209.105V209.241C37.0134 209.188 37.036 209.15 37.2021 209.143L37.1417 209.105Z" fill="#04040A"/>
<path d="M47.6266 259.474C47.6266 259.635 47.3425 259.535 47.6266 259.527V259.474Z" fill="#04040A"/>
<path d="M96.1108 254.482C95.8062 254.564 95.6799 254.133 95.9622 254.416C95.9771 254.453 96.1034 254.46 96.1108 254.482Z" fill="#04040A"/>
<path d="M31.9592 248.884L31.867 248.769C31.7366 249.045 32.0052 248.715 31.9592 248.884Z" fill="#04040A"/>
<path d="M156.442 68.227C154.025 69.5325 153.793 63.0574 150.973 62.744C145.124 58.5516 137.864 60.6851 135.305 66.9066C133.373 55.1052 155.741 56.5822 156.442 68.227Z" fill="black"/>
<path d="M145.638 104.377C141.698 107.741 121.897 110.173 121.763 103.273C127.791 106.623 136.737 105.69 143.556 103.78C145.086 101.617 146.802 100.856 145.638 104.377Z" fill="black"/>
<path d="M116.04 58.477C120.047 58.477 127.866 62.6172 126.553 66.8768C124.136 64.0197 121.539 61.0731 117.6 60.2226C112.004 58.5143 108.005 62.8261 105.662 66.2949C103.842 61.0731 111.631 58.0891 116.025 58.4547L116.04 58.477Z" fill="black"/>
<path d="M176.019 73.8964C172.714 72.9341 169.118 72.6879 165.85 72.1508C164.895 68.7342 172.244 68.5328 174.371 69.9726C175.333 70.7111 178.623 73.4563 176.019 73.8964Z" fill="black"/>
<path d="M137.38 90.6735C133.769 74.0158 139.394 84.1089 138.469 93.0979C138.081 96.507 128.248 95.9476 129.471 93.4262C132.008 91.3225 137.626 96.231 137.38 90.6735Z" fill="black"/>
<path d="M120.995 73.1056C114.482 71.4048 110.117 76.8355 107.095 70.0397C108.498 69.5249 109.393 71.3899 110.52 71.6733C112.467 70.7707 127.896 71.6137 120.995 73.1056Z" fill="black"/>
<path d="M84.309 76.0896C79.1758 73.0087 90.2032 67.4212 91.5536 72.8371C90.1062 74.7319 85.3088 72.5835 84.309 76.0896Z" fill="black"/>
<path d="M136.372 73.6203C140.148 69.0325 147.773 73.8739 151.944 70.3752C151.742 73.1055 148.467 74.5378 146.124 73.0757C142.677 71.8971 139.014 74.7467 136.372 73.6203Z" fill="black"/>
<path d="M132.321 171.627C133.969 171.411 135.007 173.761 133.365 174.216C131.724 174.671 130.187 171.761 132.321 171.627Z" fill="#04040A"/>
<path d="M120.413 175.111C122.286 175.111 123.226 178.095 120.838 177.975C119.182 177.886 118.764 175.409 120.413 175.111Z" fill="#04040A"/>
<path d="M149.966 178.803C149.758 178.819 149.549 178.792 149.352 178.724C149.154 178.657 148.972 178.55 148.817 178.411C148.662 178.272 148.536 178.103 148.448 177.914C148.359 177.725 148.31 177.52 148.302 177.312C148.675 174.134 153.443 178.535 149.966 178.803Z" fill="#04040A"/>
<path d="M110.422 169.926C110.422 171.717 108.236 171.597 107.833 170.113C107.311 167.882 110.153 167.949 110.422 169.926Z" fill="#04040A"/>
<path d="M118.376 159.042C120.189 159.669 119.174 163.041 117.413 161.474C117.223 161.275 117.094 161.026 117.041 160.756C116.989 160.486 117.015 160.206 117.116 159.95C117.217 159.694 117.39 159.473 117.613 159.312C117.836 159.151 118.101 159.058 118.376 159.042Z" fill="#04040A"/>
<path d="M138.342 159.326C138.326 159.569 138.238 159.801 138.091 159.995C137.943 160.188 137.741 160.334 137.511 160.414C137.281 160.493 137.033 160.503 136.797 160.442C136.561 160.382 136.349 160.253 136.186 160.072C136.07 159.921 135.993 159.745 135.959 159.558C135.925 159.371 135.936 159.178 135.991 158.997C136.046 158.815 136.143 158.648 136.275 158.511C136.406 158.374 136.568 158.271 136.748 158.209C136.928 158.146 137.119 158.128 137.308 158.154C137.496 158.18 137.675 158.251 137.83 158.36C137.986 158.469 138.114 158.614 138.202 158.781C138.291 158.949 138.339 159.136 138.342 159.326Z" fill="#04040A"/>
<path d="M152.025 168.867C151.846 170.031 149.787 169.837 149.787 168.666C149.727 167.024 152.204 167.45 152.025 168.867Z" fill="#04040A"/>
<path d="M131.597 177.2C131.335 177.819 130.186 177.416 130.06 176.901C130.283 176.133 131.574 176.469 131.597 177.2Z" fill="#04040A"/>
<path d="M124.516 175.79C124.337 175.738 123.77 175.79 123.972 175.447C124.173 175.104 125.523 175.782 124.516 175.79Z" fill="#04040A"/>
<path d="M138.573 176.498C138.655 176.924 137.872 176.968 137.685 176.707C137.611 176.275 138.431 176.051 138.573 176.498Z" fill="#04040A"/>
<path d="M109.84 176.797C109.266 176.871 108.893 176.275 109.527 175.984C110.049 175.827 110.422 176.588 109.84 176.797Z" fill="#04040A"/>
<path d="M135.849 165.331C135.648 165.271 135.529 164.891 135.633 164.585C136.021 164.376 136.461 165.257 135.849 165.331Z" fill="#04040A"/>
<path d="M119.234 169.158C119.234 168.897 119.6 168.524 119.764 168.822C119.764 169.054 119.376 169.479 119.234 169.158Z" fill="#04040A"/>
<path d="M154.219 179.952C154.235 179.912 154.263 179.878 154.3 179.856C154.336 179.834 154.379 179.825 154.422 179.83C154.465 179.835 154.504 179.854 154.535 179.884C154.565 179.914 154.585 179.954 154.59 179.996C154.524 180.219 154.264 180.152 154.219 179.952Z" fill="#04040A"/>
<path d="M113.407 155.46C113.407 155.319 113.407 155.178 113.407 155.029C113.6 155.163 113.533 155.319 113.407 155.46Z" fill="#04040A"/>
<path d="M97.4537 33.4791C97.4983 33.6872 97.2532 33.6426 97.1641 33.5237C97.2011 33.486 97.2493 33.4613 97.3015 33.4533C97.3537 33.4453 97.4071 33.4543 97.4537 33.4791Z" fill="#04040A"/>
<path d="M76.9033 55.0612L76.7733 55.1071C76.888 55.2065 76.9109 55.1835 76.8421 55.0306L76.9033 55.0612Z" fill="#04040A"/>
<path d="M163.902 268.067L163.709 268.312C163.434 268.097 163.723 267.703 163.902 268.067Z" fill="#04040A"/>
<path d="M148.794 267.508L148.998 267.607C148.885 267.607 148.87 267.554 148.839 267.463L148.794 267.508Z" fill="#04040A"/>
<path d="M100.491 105.599C100.365 105.8 100.119 105.651 100.209 105.443C100.216 105.421 100.229 105.401 100.246 105.384C100.262 105.367 100.282 105.354 100.305 105.345C100.327 105.337 100.351 105.333 100.374 105.335C100.398 105.337 100.421 105.344 100.442 105.355C100.462 105.367 100.48 105.382 100.494 105.402C100.508 105.421 100.518 105.443 100.523 105.466C100.527 105.489 100.527 105.513 100.521 105.536C100.516 105.559 100.506 105.581 100.491 105.599Z" fill="#04040A"/>
</svg>
