<svg width="422" height="519" fill="none" xmlns="http://www.w3.org/2000/svg"><path d="M43.25 334.822c-63.766 52.129-45.984 140.591 7.154 157.029 53.139 16.437 102.906 0 173.309-4.022 70.402-4.021 94.846 7.845 101.09-44.953 3.569-30.18-58.367-103.863-132.339-129.727-55.435-19.383-121.898-.657-149.214 21.673Z" fill="#F4F4F4" stroke="#000" stroke-width="4.849" stroke-linecap="round"/><path d="M386.414 317.181c23.316 23.12 43.272 77.88 27.392 114.386-15.879 36.506-50.87 70.318-123.101 68.324-72.231-1.993-124.779-9.582-146.338 9.556-21.559 19.137-48.854-6.085-44.412-45.025 4.441-38.94 45.711-27.988 59.956-69.361" fill="#F4F4F4"/><path d="M386.414 317.181c23.316 23.12 43.272 77.88 27.392 114.386-15.879 36.506-50.87 70.318-123.101 68.324-72.231-1.993-124.779-9.582-146.338 9.556-21.559 19.137-48.854-6.085-44.412-45.025 4.441-38.94 45.711-27.988 59.956-69.361" stroke="#000" stroke-width="4.849" stroke-linecap="round"/><path fill-rule="evenodd" clip-rule="evenodd" d="m211.002 270.766-31.992 90.84c8.479 46.065-22.084 75.885-82.334 52.579-60.25-23.306-97.22-86.32-57.08-166.418 37.34-69.455 102.376-68.417 155.674-67.566 5.377.086 10.634.17 15.732.18 5.097-.01 10.354-.094 15.731-.18 53.299-.851 118.333-1.889 155.674 67.566 40.139 80.098 3.169 143.112-57.08 166.418-60.25 23.306-90.813-6.514-82.333-52.579l-31.992-90.84Z" fill="#F4F4F4"/><path d="m179.01 361.606-2.385.439-.117-.635.215-.609 2.287.805Zm31.992-90.84-2.287-.805 2.287-6.493 2.286 6.493-2.286.805ZM96.676 414.185l.875-2.261-.875 2.261Zm-57.08-166.418-2.168-1.086.016-.031.017-.031 2.135 1.148Zm155.674-67.566.039-2.424-.039 2.424Zm15.732.18.004 2.424h-.009l.005-2.424Zm15.731-.18-.039-2.424.039 2.424Zm155.674 67.566 2.136-1.148.016.031.016.031-2.168 1.086Zm-57.08 166.418-.875-2.261.875 2.261Zm-82.333-52.579 2.286-.805.215.609-.117.635-2.384-.439Zm-66.271-.805 31.992-90.84 4.573 1.611-31.992 90.839-4.573-1.61Zm-79.172 51.123c29.768 11.515 51.483 9.628 64.636.027 13.093-9.555 18.579-27.412 14.438-49.906l4.769-.878c4.339 23.571-1.217 43.657-16.348 54.701-15.071 11-38.763 12.369-69.244.578l1.749-4.522ZM41.763 248.853c-19.81 39.531-20.477 74.573-9.03 102.501 11.465 27.967 35.212 49.117 64.818 60.57l-1.75 4.522c-30.643-11.853-55.506-33.863-67.554-63.253-12.064-29.431-11.148-65.944 9.181-106.512l4.335 2.172Zm153.469-66.228c-26.715-.426-55.916-.873-83.083 7.316-27.024 8.146-52.075 24.858-70.418 58.974l-4.27-2.296c18.998-35.338 45.135-52.835 73.288-61.321 28.01-8.443 57.976-7.945 84.56-7.521l-.077 4.848Zm15.765.18c-5.117-.009-10.392-.094-15.765-.18l.077-4.848c5.38.086 10.62.17 15.697.179l-.009 4.849Zm0-4.849c5.077-.009 10.317-.093 15.697-.179l.078 4.848c-5.374.086-10.648.171-15.766.18l-.009-4.849Zm15.697-.179c26.584-.424 56.55-.922 84.56 7.521 28.153 8.486 54.29 25.983 73.289 61.321l-4.271 2.296c-18.342-34.116-43.393-50.828-70.418-58.974-27.167-8.189-56.368-7.742-83.082-7.316l-.078-4.848Zm157.881 68.904c20.329 40.568 21.246 77.081 9.181 106.512-12.048 29.39-36.911 51.4-67.554 63.253l-1.75-4.522c29.607-11.453 53.353-32.603 64.817-60.57 11.449-27.928 10.78-62.97-9.029-102.501l4.335-2.172Zm-58.373 169.765c-30.482 11.791-54.174 10.422-69.245-.578-15.131-11.044-20.687-31.13-16.348-54.701l4.769.878c-4.141 22.494 1.346 40.351 14.438 49.906 13.153 9.601 34.868 11.488 64.636-.027l1.75 4.522Zm-85.495-54.035-31.992-90.839 4.573-1.611 31.992 90.84-4.573 1.61Z" fill="#000"/><path d="M287.305 339.159c9.181-7.786 18.362-16.869 29.073-25.952-11.486-17.123 2.885-38.671 1.568-41.89m-179.603 67.842c-9.181-7.786-18.362-16.869-29.073-25.952 11.486-17.123-2.885-38.671-1.569-41.89" stroke="#000" stroke-width="4.849" stroke-linecap="round" stroke-linejoin="round"/><path d="M212.532 232.662c20.341 0 38.767-8.393 52.877-22.158 17.216-16.796 28.007-41.592 28.007-68.9 0-49.688-35.724-91.058-80.884-91.058-45.159 0-80.883 41.37-80.883 91.058 0 27.308 10.791 52.104 28.007 68.9 14.11 13.765 32.536 22.158 52.876 22.158Z" fill="#F4F4F4" stroke="#F4F4F4" stroke-width="2.424"/><path d="M211.002 235.381c20.948 0 39.924-8.643 54.455-22.819 17.731-17.298 28.843-42.834 28.843-70.958 0-51.172-36.79-93.777-83.298-93.777-46.509 0-83.299 42.605-83.299 93.777 0 28.124 11.113 53.66 28.843 70.958 14.531 14.176 33.508 22.819 54.456 22.819Z" fill="#F4F4F4" stroke="#000" stroke-width="4.849"/><path d="M209.321 2C96.189 2 17.781 107.142 17.781 135.346c0 28.203 89.161 49.298 191.54 49.298 95.21 0 194.9-19.883 194.9-49.298C404.221 105.93 322.453 2 209.321 2Z" fill="#000" stroke="#000" stroke-width="2.424"/><path d="M54.12 125.648c23.172-60.375 83.583-80.008 79.95-82.432-3.634-2.424-72.638 36.91-79.95 82.432Z" fill="#F4F4F4"/><path d="M223.165 208.253c-9.57 6.12-14.76 6.854-24.329 0" stroke="#000" stroke-width="4.849" stroke-linecap="round" stroke-linejoin="round"/><ellipse cx="212.612" cy="317.846" rx="3.809" ry="5.545" fill="#F4F4F4"/><path d="M227.914 358.02c-13.817-13.827-14.364-35.698-1.222-48.849 13.142-13.152 34.997-12.604 48.815 1.223 6.06 6.065 12.35 10.893 15.173 16.733 3.612 7.475 1.545 16.609-13.951 32.116-15.409 15.42-24.922 16.88-33.047 12.597-5.427-2.861-10.235-8.283-15.768-13.82Z" fill="#F4F4F4"/><path d="M291.111 290.077c2.266.252 3.844 1.024 4.923 2.105 1.082 1.084 1.751 2.57 2.032 4.415.57 3.741-.492 8.744-2.635 13.965-2.129 5.187-5.258 10.425-8.625 14.572-3.409 4.201-6.899 7.081-9.7 7.872-5.807 1.639-12.2-.783-17.883-6.468-5.665-5.667-10.455-14.433-12.95-24.972-2.463-10.4-.553-21.488 3.553-30.426 4.134-9.001 10.34-15.517 16.204-17.172 1.312-.371 2.247-.194 3.003.29.808.518 1.54 1.472 2.222 2.905 1.14 2.398 1.954 5.707 2.869 9.432.192.782.389 1.583.595 2.398 1.158 4.594 2.571 9.536 5.002 13.474 2.461 3.987 6.008 7.01 11.39 7.61Zm-142.677-15.159c6.319 7.986 11.809 12.231 16.609 14.253 4.836 2.037 8.879 1.779 12.183.953 1.499-.375 2.848-.867 4.003-1.289l.294-.107c1.265-.46 2.204-.779 2.975-.861.698-.074 1.133.057 1.509.42.445.429.934 1.306 1.363 3.056 3.367 13.717-7.651 29.309-25.307 34.474-17.656 5.166-34.338-2.322-37.704-16.039-.819-3.337-.317-7.936 1.171-12.881 1.477-4.912 3.881-10.012 6.692-14.277 2.831-4.295 5.983-7.602 8.897-9.104 1.439-.741 2.75-1.008 3.917-.819 1.151.187 2.306.841 3.398 2.221Z" fill="#F4F4F4" stroke="#000" stroke-width="2.424"/><path d="M217.905 271.603c6.154 7.802 11.502 11.954 16.179 13.935 4.714 1.996 8.654 1.748 11.874.944 1.459-.365 2.773-.845 3.896-1.255l.286-.104c1.231-.449 2.139-.757 2.884-.836.67-.071 1.084.056 1.443.404.428.414.903 1.264 1.322 2.972 3.281 13.373-7.408 28.562-24.563 33.581-17.155 5.019-33.368-2.3-36.65-15.673-.798-3.251-.315-7.733 1.127-12.555 1.433-4.79 3.765-9.762 6.494-13.919 2.749-4.187 5.808-7.405 8.633-8.863 1.393-.719 2.66-.976 3.786-.792 1.111.182 2.229.817 3.289 2.161Z" fill="#000" stroke="#F4F4F4" stroke-width="2.424"/><path d="m177.922 256.317.331-.085.237-.245c4.422-4.551 7.015-5.936 9.079-6.378 1.052-.225 2.036-.222 3.205-.187l.327.01c1.077.034 2.305.073 3.728-.081l.007-.001c4.055-.461 6.536-1.71 8.157-2.526l.432-.216c.869-.429 1.16-.493 1.301-.478h.002c.018.002.064.007.164.088.121.098.301.292.542.668 1.044 1.666.822 4.333-.812 7.957-1.595 3.54-4.365 7.601-7.681 11.704-6.625 8.196-15.24 16.325-20.357 20.41-4.993 3.986-10.462 5.85-15.279 5.739-4.794-.111-8.946-2.17-11.5-6.082-2.525-4.022-2.382-8.42-.306-12.912 2.096-4.535 6.139-9.086 11.236-13.156 1.556-1.222 3.519-1.744 6.376-2.219.636-.106 1.313-.209 2.032-.318 2.448-.373 5.372-.818 8.779-1.692Z" fill="#F4F4F4" stroke="#000" stroke-width="2.424"/><path d="M256.622 269.41c.045 1.929-1.417 3.619-4.703 5.056-3.22 1.407-7.736 2.349-12.733 2.985-7.236.921-15.202 1.171-21.291 1.363-2.326.073-4.378.138-6.01.228-11.009.607-20.135-7.265-20.374-17.362-.061-2.558.467-3.835 1.217-4.605.803-.827 2.071-1.31 4.075-1.791.562-.135 1.166-.266 1.809-.406 3.827-.832 9.012-1.959 14.795-5.911 2.904-1.983 6.978-2.465 11.652-1.747 4.651.714 9.727 2.594 14.449 5.104 4.72 2.508 9.025 5.614 12.148 8.73 1.561 1.557 2.804 3.095 3.657 4.538.859 1.452 1.283 2.74 1.309 3.818Z" fill="#F4F4F4" stroke="#000" stroke-width="2.424"/><path d="M139.035 348.099h144.176c25.58 0 8.92-90.139-71.093-90.139-80.012 0-102.1 90.139-73.083 90.139Z" fill="#000"/><path d="M221.301 320.618c-8.103 5.182-12.498 5.804-20.601 0" stroke="#F4F4F4" stroke-width="2.424" stroke-linecap="round" stroke-linejoin="round"/><path d="M271.229 298.883c7.416-6.137-5.841-5.808 2.615-20.368-1.843-.844-9.068-5.282-13.399-7.585-6.284-3.34 5.919 7.511 7.246 12.294 1.327 4.782-5.764 23.358 3.538 15.659Zm-89.916-25.287c3.743-3.21-2.948-3.038 1.32-10.654 1.194-2.13.866-2.191-1.32-3.396-3.172-1.747-2.456 3.357-1.786 5.859.67 2.501-2.91 12.218 1.786 8.191Zm-23.84 16.857c4.972-4.264-3.916-4.036 1.753-14.152 1.586-2.828 1.151-2.91-1.753-4.51-4.213-2.321-3.262 4.459-2.372 7.782.889 3.322-3.865 16.228 2.372 10.88Zm-10.761 23.619c1.301 0 2.355-1.151 2.355-2.571 0-1.42-1.054-2.571-2.355-2.571-1.3 0-2.355 1.151-2.355 2.571 0 1.42 1.055 2.571 2.355 2.571Zm-5.397 10.805c1.3 0 2.354-1.151 2.354-2.571 0-1.42-1.054-2.571-2.354-2.571-1.301 0-2.355 1.151-2.355 2.571 0 1.42 1.054 2.571 2.355 2.571Zm130.412-10.005c1.3 0 2.354-1.151 2.354-2.571 0-1.42-1.054-2.571-2.354-2.571-1.301 0-2.355 1.151-2.355 2.571 0 1.42 1.054 2.571 2.355 2.571Zm-2.541 11.089c1.3 0 2.354-1.151 2.354-2.571 0-1.42-1.054-2.571-2.354-2.571-1.301 0-2.355 1.151-2.355 2.571 0 1.42 1.054 2.571 2.355 2.571Zm12.193-1.391c1.301 0 2.355-1.151 2.355-2.571 0-1.42-1.054-2.571-2.355-2.571-1.3 0-2.355 1.151-2.355 2.571 0 1.42 1.055 2.571 2.355 2.571Zm-126.568-2.394c1.3 0 2.354-1.151 2.354-2.571 0-1.42-1.054-2.571-2.354-2.571-1.301 0-2.355 1.151-2.355 2.571 0 1.42 1.054 2.571 2.355 2.571Zm112.501 6.539c-14.773-12.799-36.611-11.777-48.777 2.284-12.166 14.062-5.37 32.429 4.721 48.636 9.104 9.781 19.147 22.706 25.171 25.104 7.71 3.07 9.26-10.808 23.605-27.388 14.264-16.486 15.037-26.086 10.185-33.889-3.24-5.211-8.99-9.621-14.905-14.747Z" fill="#F4F4F4"/><path d="M272.623 410.457c-29.82-5.847-39.027-17.131-49.413-30.658-10.385-13.527-16.886-34.575-4.72-48.636s34.004-15.083 48.777-2.284c5.915 5.126 14.587 11.311 20.315 23.637" stroke="#000" stroke-width="4.849" stroke-linecap="round"/><path d="M155.639 328.715c14.773-12.799 36.611-11.777 48.777 2.284 12.166 14.061 5.37 32.428-4.72 48.636-9.105 9.78-19.148 22.706-25.172 25.104-7.71 3.069-9.26-10.809-23.605-27.388-14.264-16.486-15.037-26.086-10.185-33.889 3.241-5.211 8.99-9.621 14.905-14.747Z" fill="#F4F4F4"/><path d="M150.329 410.457c29.82-5.847 39.027-17.131 49.413-30.658 10.386-13.527 16.886-34.575 4.72-48.636s-34.004-15.083-48.776-2.284c-5.916 5.126-14.588 11.31-20.316 23.637" stroke="#000" stroke-width="4.849" stroke-linecap="round"/><path d="M249.279 300.729c-13.939 1.052-13.153 1.833-19.989 4.601m-57.767-4.54c13.567 1.025 12.802 1.785 19.456 4.479m-24.505-12.921c3.38-4.352 6.295-6.744 11.893-7.723 5.597-.978 9.992-.129 13.891 3.213m62.068 4.51c-3.38-4.352-6.295-6.744-11.893-7.723-5.598-.978-9.992-.129-13.891 3.213" stroke="#F4F4F4" stroke-width="2.424" stroke-linecap="round"/></svg>