<svg width="214" height="262" viewBox="0 0 214 262" fill="none" xmlns="http://www.w3.org/2000/svg">
<g clip-path="url(#clip0)">
<path d="M24.2998 169C9.09978 178.1 -9.20022 202.2 13.2998 228.6C33.5998 252.4 68.5998 245.1 99.8998 248.7C129.5 252.1 139.6 258 142.6 237.6C145.6 217.2 111 112 24.2998 169Z" fill="#F4F4F4" stroke="black" stroke-width="4" stroke-linecap="round" stroke-linejoin="round"/>
<path d="M189.5 168C200.2 179.8 218.1 187.9 208.4 217.4C198.7 246.9 138.8 242.6 128.4 242.6C110.1 242.6 113.9 259.8 95.6 259.8C85.4 259.8 65.7 249.3 75.5 230.5C85.3 214.8 95.6 224.752 101.605 207.598" fill="#F4F4F4"/>
<path d="M189.5 168C200.2 179.8 218.1 187.9 208.4 217.4C198.7 246.9 138.8 242.6 128.4 242.6C110.1 242.6 113.9 259.8 95.6 259.8C85.4 259.8 65.7 249.3 75.5 230.5C85.3 214.8 95.6 224.752 101.605 207.598" stroke="black" stroke-width="4" stroke-linecap="round" stroke-linejoin="round"/>
<path d="M182.3 126.9C163.9 92.7 130.9 95.8 105.9 96.4C80.8998 95.7 47.7998 92.6 29.4998 126.9C9.59981 163.9 30.9998 213.5 68.1998 211.5C85.5998 211.5 103.5 199.5 103.5 164.5L103.8 162.3L103.9 164.2C103.9 197.7 126.2 207.4 143.6 207.4C180.8 209.4 202.1 163.9 182.3 126.9Z" fill="#F4F4F4" stroke="black" stroke-width="4"/>
<path d="M58.3999 119C59.3999 130 61.3999 133 56.3999 144.5C59.8999 148 62.8999 151.5 65.8999 154.5" stroke="black" stroke-width="2" stroke-linecap="round" stroke-linejoin="round"/>
<path d="M53.8997 176.5C50.8997 170 57.3997 153.5 75.8997 151.5" stroke="black" stroke-width="2" stroke-linecap="round" stroke-linejoin="round"/>
<path d="M155.4 119C154.4 130 152.4 133 157.4 144.5C153.9 148 150.9 151.5 147.9 154.5" stroke="black" stroke-width="2" stroke-linecap="round" stroke-linejoin="round"/>
<path d="M159.9 176.5C162.9 170 156.4 153.5 137.9 151.5" stroke="black" stroke-width="2" stroke-linecap="round" stroke-linejoin="round"/>
<path d="M133.428 164.508C144.354 165.493 142.9 159.636 142.9 155.636C142.9 145.136 139.4 129 105.4 129C71.3999 129 133.428 154.508 133.428 164.508Z" fill="#F4F4F4" stroke="black" stroke-width="4"/>
<path d="M137.578 146.313C140.028 144 139.915 135.436 134.158 133.804C127.68 135.309 125.336 125.681 122.887 127.993C120.437 130.306 120.948 137.582 125.287 142.178C129.626 146.774 135.129 148.625 137.578 146.313Z" fill="black"/>
<path d="M145.998 150.208C145.998 144.469 138.907 154.082 132.03 139.817C124.316 139.817 118.062 144.469 118.062 150.208C118.062 155.946 124.316 160.598 132.03 160.598C139.744 160.598 145.998 155.946 145.998 150.208Z" fill="black"/>
<path d="M123.6 132.258C123.7 136.487 110.3 136.238 105.8 136.487C101.3 136.735 97.4999 133.502 97.3999 129.274C97.2999 125.046 101.035 127.398 106.1 123.929C111.164 120.46 123.5 128.03 123.6 132.258Z" fill="black"/>
<path d="M99.6 125.5C101.6 128.3 92.9 136 89.2 138.6C85.5 141.2 81 141.1 79 138.4C77 135.6 79.3 132.3 83 129.7C84.3 128.8 86.2 129 89.3 128.3C92.5 125.4 93.3 126.3 95.4 126.1C98.4 125.8 98.8 124.4 99.6 125.5Z" fill="black"/>
<path d="M105.9 102.5C126 102.5 141.9 84.1 141.9 62C141.9 39.9 126 21.5 105.9 21.5C85.7999 21.5 69.8999 39.9 69.8999 62C69.8999 84.1 85.7999 102.5 105.9 102.5Z" fill="#F4F4F4" stroke="black" stroke-width="4"/>
<path d="M106.252 1C55.8985 1 21 50.3161 21 63.4C21 76.4839 60.6846 79 106.252 79C148.629 79 193 71.4516 193 63.4C193 55.3484 156.606 1 106.252 1Z" fill="black" stroke="black" stroke-width="2"/>
<path d="M85.1875 12.7566C76.3386 12.7566 49.2001 26.9157 51.4124 37.83C53.6247 48.7442 86.4889 20.9676 85.1875 12.7566Z" fill="#F4F4F4"/>
<path d="M113.4 86.5C107.5 89 104.3 89.3 98.3999 86.5" stroke="black" stroke-width="2" stroke-linecap="round" stroke-linejoin="round"/>
<path d="M73.6347 164.6C85.9649 164.6 127.819 164.887 134.9 164.6C134.9 154.1 136.4 129.6 102.4 129.6C68.3998 129.6 61.3046 164.6 73.6347 164.6Z" fill="#F4F4F4" stroke="black" stroke-width="4"/>
<path d="M82.0528 148.913C80.1768 145.252 83.6886 143.782 81.5494 135.097C82.0156 134.593 83.3059 133.497 84.7379 133.139C86.5279 132.691 83.2835 136.719 82.9479 139.572C82.6123 142.425 84.4062 153.506 82.0528 148.913Z" fill="black"/>
<path d="M92.7487 136.206C93.2431 134.978 92.3175 134.484 92.8813 131.569C92.7585 131.4 92.4184 131.032 92.041 130.912C91.5692 130.761 92.4243 132.113 92.5128 133.071C92.6012 134.028 92.1284 137.748 92.7487 136.206Z" fill="black" stroke="black"/>
<path d="M115.78 138.361C116.997 139.578 115.991 135.037 115.991 132.58C115.796 132.369 115.256 131.91 114.657 131.76C113.908 131.573 115.265 133.258 115.406 134.452C115.546 135.646 114.563 137.144 115.78 138.361Z" fill="black" stroke="black"/>
<path d="M112.9 142.5C113.452 142.5 113.9 142.052 113.9 141.5C113.9 140.948 113.452 140.5 112.9 140.5C112.348 140.5 111.9 140.948 111.9 141.5C111.9 142.052 112.348 142.5 112.9 142.5Z" fill="black"/>
<path d="M87.8999 146.5C88.4522 146.5 88.8999 146.052 88.8999 145.5C88.8999 144.948 88.4522 144.5 87.8999 144.5C87.3476 144.5 86.8999 144.948 86.8999 145.5C86.8999 146.052 87.3476 146.5 87.8999 146.5Z" fill="black"/>
<path d="M102.9 149.5C103.452 149.5 103.9 149.052 103.9 148.5C103.9 147.948 103.452 147.5 102.9 147.5C102.348 147.5 101.9 147.948 101.9 148.5C101.9 149.052 102.348 149.5 102.9 149.5Z" fill="black"/>
<path d="M117.9 152.5C118.452 152.5 118.9 152.052 118.9 151.5C118.9 150.948 118.452 150.5 117.9 150.5C117.348 150.5 116.9 150.948 116.9 151.5C116.9 152.052 117.348 152.5 117.9 152.5Z" fill="black"/>
<path d="M92.8999 156.5C93.4522 156.5 93.8999 156.052 93.8999 155.5C93.8999 154.948 93.4522 154.5 92.8999 154.5C92.3476 154.5 91.8999 154.948 91.8999 155.5C91.8999 156.052 92.3476 156.5 92.8999 156.5Z" fill="black"/>
<path d="M78.8999 157.5C79.4522 157.5 79.8999 157.052 79.8999 156.5C79.8999 155.948 79.4522 155.5 78.8999 155.5C78.3476 155.5 77.8999 155.948 77.8999 156.5C77.8999 157.052 78.3476 157.5 78.8999 157.5Z" fill="black"/>
<path d="M98.8999 138.5C99.4522 138.5 99.8999 138.052 99.8999 137.5C99.8999 136.948 99.4522 136.5 98.8999 136.5C98.3476 136.5 97.8999 136.948 97.8999 137.5C97.8999 138.052 98.3476 138.5 98.8999 138.5Z" fill="black"/>
</g>
<defs>
<clipPath id="clip0">
<rect width="212.4" height="261.8" fill="white" transform="translate(0.799805)"/>
</clipPath>
</defs>
</svg>
