<svg width="422" height="519" viewBox="0 0 422 519" fill="none" xmlns="http://www.w3.org/2000/svg">
<path d="M43.2497 334.822C-20.516 386.951 -2.73416 475.413 50.4045 491.851C103.543 508.288 153.31 491.851 223.713 487.829C294.115 483.808 318.559 495.674 324.803 442.876C328.372 412.696 266.436 339.013 192.464 313.149C137.029 293.766 70.5657 312.492 43.2497 334.822Z" fill="#F4F4F4" stroke="black" stroke-width="4.84893" stroke-linecap="round"/>
<path d="M386.414 317.181C409.73 340.301 429.686 395.061 413.806 431.567C397.927 468.073 362.936 501.885 290.705 499.891C218.474 497.898 165.926 490.309 144.367 509.447C122.808 528.584 95.5132 503.362 99.9545 464.422C104.396 425.482 145.666 436.434 159.911 395.061" fill="#F4F4F4"/>
<path d="M386.414 317.181C409.73 340.301 429.686 395.061 413.806 431.567C397.927 468.073 362.936 501.885 290.705 499.891C218.474 497.898 165.926 490.309 144.367 509.447C122.808 528.584 95.5132 503.362 99.9545 464.422C104.396 425.482 145.666 436.434 159.911 395.061" stroke="black" stroke-width="4.84893" stroke-linecap="round"/>
<path fill-rule="evenodd" clip-rule="evenodd" d="M211.002 270.766L179.01 361.606C187.489 407.671 156.926 437.491 96.6763 414.185C36.4266 390.879 -0.543182 327.865 39.5959 247.767C76.9369 178.312 141.972 179.35 195.27 180.201C200.647 180.287 205.904 180.371 211.002 180.381C216.099 180.371 221.356 180.287 226.733 180.201C280.032 179.35 345.066 178.312 382.407 247.767C422.546 327.865 385.576 390.879 325.327 414.185C265.077 437.491 234.514 407.671 242.994 361.606L211.002 270.766Z" fill="#F4F4F4"/>
<path d="M179.01 361.606L176.625 362.045L176.508 361.41L176.723 360.801L179.01 361.606ZM211.002 270.766L208.715 269.961L211.002 263.468L213.288 269.961L211.002 270.766ZM96.6763 414.185L97.551 411.924L96.6763 414.185ZM39.5959 247.767L37.4283 246.681L37.444 246.65L37.4605 246.619L39.5959 247.767ZM195.27 180.201L195.309 177.777L195.27 180.201ZM211.002 180.381L211.006 182.805L210.997 182.805L211.002 180.381ZM226.733 180.201L226.694 177.777L226.733 180.201ZM382.407 247.767L384.543 246.619L384.559 246.65L384.575 246.681L382.407 247.767ZM325.327 414.185L324.452 411.924H324.452L325.327 414.185ZM242.994 361.606L245.28 360.801L245.495 361.41L245.378 362.045L242.994 361.606ZM176.723 360.801L208.715 269.961L213.288 271.572L181.296 362.411L176.723 360.801ZM97.551 411.924C127.319 423.439 149.034 421.552 162.187 411.951C175.28 402.396 180.766 384.539 176.625 362.045L181.394 361.167C185.733 384.738 180.177 404.824 165.046 415.868C149.975 426.868 126.283 428.237 95.8016 416.446L97.551 411.924ZM41.7634 248.853C21.9539 288.384 21.2855 323.426 32.7336 351.354C44.1984 379.321 67.9445 400.471 97.551 411.924L95.8016 416.446C65.1584 404.593 40.2948 382.583 28.247 353.193C16.1826 323.762 17.0988 287.249 37.4283 246.681L41.7634 248.853ZM195.232 182.625C168.517 182.199 139.316 181.752 112.149 189.941C85.1246 198.087 60.0735 214.799 41.7313 248.915L37.4605 246.619C56.4593 211.281 82.596 193.784 110.749 185.298C138.759 176.855 168.725 177.353 195.309 177.777L195.232 182.625ZM210.997 182.805C205.88 182.796 200.605 182.711 195.232 182.625L195.309 177.777C200.689 177.863 205.929 177.947 211.006 177.956L210.997 182.805ZM210.997 177.956C216.074 177.947 221.314 177.863 226.694 177.777L226.772 182.625C221.398 182.711 216.124 182.796 211.006 182.805L210.997 177.956ZM226.694 177.777C253.278 177.353 283.244 176.855 311.254 185.298C339.407 193.784 365.544 211.281 384.543 246.619L380.272 248.915C361.93 214.799 336.879 198.087 309.854 189.941C282.687 181.752 253.486 182.199 226.772 182.625L226.694 177.777ZM384.575 246.681C404.904 287.249 405.821 323.762 393.756 353.193C381.708 382.583 356.845 404.593 326.202 416.446L324.452 411.924C354.059 400.471 377.805 379.321 389.269 351.354C400.718 323.426 400.049 288.384 380.24 248.853L384.575 246.681ZM326.202 416.446C295.72 428.237 272.028 426.868 256.957 415.868C241.826 404.824 236.27 384.738 240.609 361.167L245.378 362.045C241.237 384.539 246.724 402.396 259.816 411.951C272.969 421.552 294.684 423.439 324.452 411.924L326.202 416.446ZM240.707 362.411L208.715 271.572L213.288 269.961L245.28 360.801L240.707 362.411Z" fill="black"/>
<path d="M287.305 339.159C296.486 331.373 305.667 322.29 316.378 313.207C304.892 296.084 319.263 274.536 317.946 271.317" stroke="black" stroke-width="4.84893" stroke-linecap="round" stroke-linejoin="round"/>
<path d="M138.343 339.159C129.162 331.373 119.981 322.29 109.27 313.207C120.756 296.084 106.385 274.536 107.701 271.317" stroke="black" stroke-width="4.84893" stroke-linecap="round" stroke-linejoin="round"/>
<path d="M212.532 232.662C232.873 232.662 251.299 224.269 265.409 210.504C282.625 193.708 293.416 168.912 293.416 141.604C293.416 91.9156 257.692 50.546 212.532 50.546C167.373 50.546 131.649 91.9156 131.649 141.604C131.649 168.912 142.44 193.708 159.656 210.504C173.766 224.269 192.192 232.662 212.532 232.662Z" fill="#F4F4F4" stroke="#F4F4F4" stroke-width="2.42447"/>
<path d="M211.002 235.381C231.95 235.381 250.926 226.738 265.457 212.562C283.188 195.264 294.3 169.728 294.3 141.604C294.3 90.4317 257.51 47.8267 211.002 47.8267C164.493 47.8267 127.703 90.4317 127.703 141.604C127.703 169.728 138.816 195.264 156.546 212.562C171.077 226.738 190.054 235.381 211.002 235.381Z" fill="#F4F4F4" stroke="black" stroke-width="4.84893"/>
<path d="M209.321 2C96.1886 2 17.7803 107.142 17.7803 135.346C17.7803 163.549 106.942 184.644 209.321 184.644C304.531 184.644 404.221 164.761 404.221 135.346C404.221 105.93 322.453 2 209.321 2Z" fill="black" stroke="black" stroke-width="2.42447"/>
<path d="M54.1205 125.648C77.2915 65.2726 137.703 45.6404 134.07 43.216C130.436 40.7917 61.432 80.1269 54.1205 125.648Z" fill="#F4F4F4"/>
<path d="M223.165 208.253C213.595 214.373 208.405 215.107 198.836 208.253" stroke="black" stroke-width="4.84893" stroke-linecap="round" stroke-linejoin="round"/>
<ellipse cx="212.612" cy="317.846" rx="3.80874" ry="5.54484" fill="#F4F4F4"/>
<path d="M227.914 358.02C214.097 344.193 213.55 322.322 226.692 309.171C239.834 296.019 261.689 296.567 275.507 310.394C281.567 316.459 287.857 321.287 290.68 327.127C294.292 334.602 292.225 343.736 276.729 359.243C261.32 374.663 251.807 376.123 243.682 371.84C238.255 368.979 233.447 363.557 227.914 358.02Z" fill="#F4F4F4"/>
<path d="M291.111 290.077C293.377 290.329 294.955 291.101 296.034 292.182C297.116 293.266 297.785 294.752 298.066 296.597C298.636 300.338 297.574 305.341 295.431 310.562C293.302 315.749 290.173 320.987 286.806 325.134C283.397 329.335 279.907 332.215 277.106 333.006C271.299 334.645 264.906 332.223 259.223 326.538C253.558 320.871 248.768 312.105 246.273 301.566C243.81 291.166 245.72 280.078 249.826 271.14C253.96 262.139 260.166 255.623 266.03 253.968C267.342 253.597 268.277 253.774 269.033 254.258C269.841 254.776 270.573 255.73 271.255 257.163C272.395 259.561 273.209 262.87 274.124 266.595C274.316 267.377 274.513 268.178 274.719 268.993C275.877 273.587 277.29 278.529 279.721 282.467C282.182 286.454 285.729 289.477 291.111 290.077Z" fill="#F4F4F4" stroke="black" stroke-width="2.42447"/>
<path d="M148.434 274.918C154.753 282.904 160.243 287.149 165.043 289.171C169.879 291.208 173.922 290.95 177.226 290.124C178.725 289.749 180.074 289.257 181.229 288.835C181.329 288.799 181.427 288.763 181.523 288.728C182.788 288.268 183.727 287.949 184.498 287.867C185.196 287.793 185.631 287.924 186.007 288.287C186.452 288.716 186.941 289.593 187.37 291.343C190.737 305.06 179.719 320.652 162.063 325.817C144.407 330.983 127.725 323.495 124.359 309.778C123.54 306.441 124.042 301.842 125.53 296.897C127.007 291.985 129.411 286.885 132.222 282.62C135.053 278.325 138.205 275.018 141.119 273.516C142.558 272.775 143.869 272.508 145.036 272.697C146.187 272.884 147.342 273.538 148.434 274.918Z" fill="#F4F4F4" stroke="black" stroke-width="2.42447"/>
<path d="M217.905 271.603C224.059 279.405 229.407 283.557 234.084 285.538C238.798 287.534 242.738 287.286 245.958 286.482C247.417 286.117 248.731 285.637 249.854 285.227C249.951 285.192 250.046 285.157 250.14 285.123C251.371 284.674 252.279 284.366 253.024 284.287C253.694 284.216 254.108 284.343 254.467 284.691C254.895 285.105 255.37 285.955 255.789 287.663C259.07 301.036 248.381 316.225 231.226 321.244C214.071 326.263 197.858 318.944 194.576 305.571C193.778 302.32 194.261 297.838 195.703 293.016C197.136 288.226 199.468 283.254 202.197 279.097C204.946 274.91 208.005 271.692 210.83 270.234C212.223 269.515 213.49 269.258 214.616 269.442C215.727 269.624 216.845 270.259 217.905 271.603Z" fill="black" stroke="#F4F4F4" stroke-width="2.42447"/>
<path d="M177.922 256.317L178.253 256.232L178.49 255.987C182.912 251.436 185.505 250.051 187.569 249.609C188.621 249.384 189.605 249.387 190.774 249.422C190.882 249.425 190.991 249.428 191.101 249.432C192.178 249.466 193.406 249.505 194.829 249.351L194.836 249.35C198.891 248.889 201.372 247.64 202.993 246.824C203.144 246.748 203.288 246.676 203.425 246.608C204.294 246.179 204.585 246.115 204.726 246.13L204.728 246.13C204.746 246.132 204.792 246.137 204.892 246.218C205.013 246.316 205.193 246.51 205.434 246.886C206.478 248.552 206.256 251.219 204.622 254.843C203.027 258.383 200.257 262.444 196.941 266.547C190.316 274.743 181.701 282.872 176.584 286.957C171.591 290.943 166.122 292.807 161.305 292.696C156.511 292.585 152.359 290.526 149.805 286.614C147.28 282.592 147.423 278.194 149.499 273.702C151.595 269.167 155.638 264.616 160.735 260.546C162.291 259.324 164.254 258.802 167.111 258.327C167.747 258.221 168.424 258.118 169.143 258.009C171.591 257.636 174.515 257.191 177.922 256.317Z" fill="#F4F4F4" stroke="black" stroke-width="2.42447"/>
<path d="M256.622 269.41C256.667 271.339 255.205 273.029 251.919 274.466C248.699 275.873 244.183 276.815 239.186 277.451C231.95 278.372 223.984 278.622 217.895 278.814C215.569 278.887 213.517 278.952 211.885 279.042C200.876 279.649 191.75 271.777 191.511 261.68C191.45 259.122 191.978 257.845 192.728 257.075C193.531 256.248 194.799 255.765 196.803 255.284C197.365 255.149 197.969 255.018 198.612 254.878C202.439 254.046 207.624 252.919 213.407 248.967C216.311 246.984 220.385 246.502 225.059 247.22C229.71 247.934 234.786 249.814 239.508 252.324C244.228 254.832 248.533 257.938 251.656 261.054C253.217 262.611 254.46 264.149 255.313 265.592C256.172 267.044 256.596 268.332 256.622 269.41Z" fill="#F4F4F4" stroke="black" stroke-width="2.42447"/>
<path d="M139.035 348.099C168.052 348.099 261.774 348.099 283.211 348.099C308.791 348.099 292.131 257.96 212.118 257.96C132.106 257.96 110.018 348.099 139.035 348.099Z" fill="black"/>
<path d="M221.301 320.618C213.198 325.8 208.803 326.422 200.7 320.618" stroke="#F4F4F4" stroke-width="2.42447" stroke-linecap="round" stroke-linejoin="round"/>
<path d="M271.229 298.883C278.645 292.746 265.388 293.075 273.844 278.515C272.001 277.671 264.776 273.233 260.445 270.93C254.161 267.59 266.364 278.441 267.691 283.224C269.018 288.006 261.927 306.582 271.229 298.883Z" fill="#F4F4F4"/>
<path d="M181.313 273.596C185.056 270.386 178.365 270.558 182.633 262.942C183.827 260.812 183.499 260.751 181.313 259.546C178.141 257.799 178.857 262.903 179.527 265.405C180.197 267.906 176.617 277.623 181.313 273.596Z" fill="#F4F4F4"/>
<path d="M157.473 290.453C162.445 286.189 153.557 286.417 159.226 276.301C160.812 273.473 160.377 273.391 157.473 271.791C153.26 269.47 154.211 276.25 155.101 279.573C155.99 282.895 151.236 295.801 157.473 290.453Z" fill="#F4F4F4"/>
<path d="M146.712 314.072C148.013 314.072 149.067 312.921 149.067 311.501C149.067 310.081 148.013 308.93 146.712 308.93C145.412 308.93 144.357 310.081 144.357 311.501C144.357 312.921 145.412 314.072 146.712 314.072Z" fill="#F4F4F4"/>
<path d="M141.315 324.877C142.615 324.877 143.669 323.726 143.669 322.306C143.669 320.886 142.615 319.735 141.315 319.735C140.014 319.735 138.96 320.886 138.96 322.306C138.96 323.726 140.014 324.877 141.315 324.877Z" fill="#F4F4F4"/>
<path d="M271.727 314.872C273.027 314.872 274.081 313.721 274.081 312.301C274.081 310.881 273.027 309.73 271.727 309.73C270.426 309.73 269.372 310.881 269.372 312.301C269.372 313.721 270.426 314.872 271.727 314.872Z" fill="#F4F4F4"/>
<path d="M269.186 325.961C270.486 325.961 271.54 324.81 271.54 323.39C271.54 321.97 270.486 320.819 269.186 320.819C267.885 320.819 266.831 321.97 266.831 323.39C266.831 324.81 267.885 325.961 269.186 325.961Z" fill="#F4F4F4"/>
<path d="M281.379 324.57C282.68 324.57 283.734 323.419 283.734 321.999C283.734 320.579 282.68 319.428 281.379 319.428C280.079 319.428 279.024 320.579 279.024 321.999C279.024 323.419 280.079 324.57 281.379 324.57Z" fill="#F4F4F4"/>
<path d="M154.811 322.176C156.111 322.176 157.165 321.025 157.165 319.605C157.165 318.185 156.111 317.034 154.811 317.034C153.51 317.034 152.456 318.185 152.456 319.605C152.456 321.025 153.51 322.176 154.811 322.176Z" fill="#F4F4F4"/>
<path d="M267.312 328.715C252.539 315.916 230.701 316.938 218.535 330.999C206.369 345.061 213.165 363.428 223.256 379.635C232.36 389.416 242.403 402.341 248.427 404.739C256.137 407.809 257.687 393.931 272.032 377.351C286.296 360.865 287.069 351.265 282.217 343.462C278.977 338.251 273.227 333.841 267.312 328.715Z" fill="#F4F4F4"/>
<path d="M272.623 410.457C242.803 404.61 233.596 393.326 223.21 379.799C212.825 366.272 206.324 345.224 218.49 331.163C230.656 317.102 252.494 316.08 267.267 328.879C273.182 334.005 281.854 340.19 287.582 352.516" stroke="black" stroke-width="4.84893" stroke-linecap="round"/>
<path d="M155.639 328.715C170.412 315.916 192.25 316.938 204.416 330.999C216.582 345.06 209.786 363.427 199.696 379.635C190.591 389.415 180.548 402.341 174.524 404.739C166.814 407.808 165.264 393.93 150.919 377.351C136.655 360.865 135.882 351.265 140.734 343.462C143.975 338.251 149.724 333.841 155.639 328.715Z" fill="#F4F4F4"/>
<path d="M150.329 410.457C180.149 404.61 189.356 393.326 199.742 379.799C210.128 366.272 216.628 345.224 204.462 331.163C192.296 317.102 170.458 316.08 155.686 328.879C149.77 334.005 141.098 340.189 135.37 352.516" stroke="black" stroke-width="4.84893" stroke-linecap="round"/>
<path d="M249.279 300.729C235.34 301.781 236.126 302.562 229.29 305.33" stroke="#F4F4F4" stroke-width="2.42447" stroke-linecap="round"/>
<path d="M171.523 300.79C185.09 301.815 184.325 302.575 190.979 305.269" stroke="#F4F4F4" stroke-width="2.42447" stroke-linecap="round"/>
<path d="M166.474 292.348C169.854 287.996 172.769 285.604 178.367 284.625C183.964 283.647 188.359 284.496 192.258 287.838" stroke="#F4F4F4" stroke-width="2.42447" stroke-linecap="round"/>
<path d="M254.326 292.348C250.946 287.996 248.031 285.604 242.433 284.625C236.835 283.647 232.441 284.496 228.542 287.838" stroke="#F4F4F4" stroke-width="2.42447" stroke-linecap="round"/>
</svg>
