<svg xmlns="http://www.w3.org/2000/svg" viewBox="0 0 403 232" width="480" height="260">
  <g fill="#5963ff">
    <path d="M83.7 95.8v-21c0-24.9 12.1-40.8 32.4-40.8 20.4 0 32.1 15.5 32.1 40.8v21c0 25.5-11.7 40.7-32.1 40.7-20.3 0-32.4-15.7-32.4-40.7zm53.7.8V74.1c0-18.6-8-29.8-21.4-29.7-13.5 0-21.7 11.4-21.7 29.7v22.5c0 18.3 8 29.7 21.7 29.7 13.4.1 21.4-11.2 21.4-29.7z"/>
    <path d="M83.8 157.1v-21c0-24.9 12.1-40.8 32.4-40.8 20.4 0 32.1 15.5 32.1 40.8v21c0 25.5-11.7 40.7-32.1 40.7-20.3 0-32.4-15.8-32.4-40.7zm53.8.7v-22.5c0-18.6-8-29.8-21.4-29.7-13.5 0-21.7 11.4-21.7 29.7v22.5c0 18.3 8 29.7 21.7 29.7 13.4.1 21.4-11.1 21.4-29.7z"/>
    <path d="M115.9 231.8C52 231.8 0 179.8 0 115.9S52 0 115.9 0c63.9 0 115.9 52 115.9 115.9s-52 115.9-115.9 115.9zm0-221.7c-58.4 0-105.8 47.5-105.8 105.8s47.5 105.8 105.8 105.8c58.4 0 105.8-47.5 105.8-105.8S174.3 10.1 115.9 10.1z"/>
    <path d="M255 119.2l1.3-9.3c1.1-8.3 6.5-14.1 14.1-14.1 7.7 0 11.3 5.5 10.1 14.1l-1.3 9.3c-1.2 8.7-6.3 14.1-14 14.1-7.7.1-11.4-5.8-10.2-14.1zm18.5.5l1.4-10.2c.7-5.1-1.3-8.3-5.3-8.3-4.1.1-7 3.4-7.6 8.3l-1.4 10.2c-.7 4.9 1.2 8.3 5.3 8.3 3.9 0 6.9-3.2 7.6-8.3z"/>
    <path d="M285.4 130.5l4.5-31.8c.2-1.7 1.7-3 3.4-3 1.2 0 2.1.7 2.5 1.7l8.5 23.4h.2l3.1-22.3c.3-1.5 1.7-2.8 3.3-2.8 1.5 0 2.7 1.3 2.4 2.8l-4.4 31.8c-.3 1.7-1.8 3-3.4 3-1.2 0-2.1-.6-2.4-1.7l-8.5-23.5h-.2l-3.1 22.4c-.2 1.5-1.7 2.8-3.3 2.8-1.7.1-2.8-1.2-2.6-2.8z"/>
    <path d="M320.5 132.7c-1.9 0-2.8-1.1-2.6-3l4.2-30.2c.3-1.9 1.5-3 3.4-3h16.2c1.4 0 2.4 1.3 2.1 2.7-.2 1.4-1.5 2.7-2.8 2.7h-13.5l-1.4 9.8h10.7c1.4 0 2.4 1.2 2.2 2.7-.2 1.4-1.5 2.7-2.9 2.7h-10.7l-1.4 10.2h13.4c1.3 0 2.3 1.3 2.1 2.7-.2 1.4-1.5 2.7-2.9 2.7h-16.1z"/>
    <path d="M350.4 118.5v-7.7c0-9.1 4.4-15 11.9-15s11.8 5.7 11.8 15v7.7c0 9.3-4.3 14.9-11.8 14.9-7.4 0-11.9-5.8-11.9-14.9zm19.8.2v-8.3c0-6.8-2.9-10.9-7.8-10.9-5 0-8 4.2-8 10.9v8.3c0 6.7 2.9 10.9 8 10.9 4.8.1 7.8-4.1 7.8-10.9z"/>
    <path d="M382.1 131.4V98.6c0-1.3.8-2.1 2.1-2.1h17.1c.9 0 1.8.8 1.8 1.9 0 1-.8 1.9-1.8 1.9h-15.2v12.3h12.4c1 0 1.8.8 1.8 1.9 0 1.1-.8 1.9-1.8 1.9h-12.4v15a2 2 0 01-2 2 2 2 0 01-2-2z"/>
  </g>
</svg>