<svg width="16" height="16" fill="none" xmlns="http://www.w3.org/2000/svg"><path d="M12.75 10.5h-2a.25.25 0 0 0-.25.25v2c0 .138.112.25.25.25h2a.25.25 0 0 0 .25-.25v-2a.25.25 0 0 0-.25-.25ZM10.25 8.5h-1.5a.25.25 0 0 0-.25.25v1.5c0 .138.112.25.25.25h1.5a.25.25 0 0 0 .25-.25v-1.5a.25.25 0 0 0-.25-.25ZM14.75 13h-1.5a.25.25 0 0 0-.25.25v1.5c0 .138.112.25.25.25h1.5a.25.25 0 0 0 .25-.25v-1.5a.25.25 0 0 0-.25-.25ZM14.75 8.5h-1a.25.25 0 0 0-.25.25v1c0 .138.112.25.25.25h1a.25.25 0 0 0 .25-.25v-1a.25.25 0 0 0-.25-.25ZM9.75 13.5h-1a.25.25 0 0 0-.25.25v1c0 .138.112.25.25.25h1a.25.25 0 0 0 .25-.25v-1a.25.25 0 0 0-.25-.25ZM12.75 3h-2a.25.25 0 0 0-.25.25v2c0 .138.112.25.25.25h2a.25.25 0 0 0 .25-.25v-2a.25.25 0 0 0-.25-.25Z" fill="#3e4855"/><path d="M14 1.5H9.5A.5.5 0 0 0 9 2v4.5a.5.5 0 0 0 .5.5H14a.5.5 0 0 0 .5-.5V2a.5.5 0 0 0-.5-.5Z" stroke="#3e4855" stroke-linecap="round" stroke-linejoin="round"/><path d="M5.25 3h-2a.25.25 0 0 0-.25.25v2c0 .138.112.25.25.25h2a.25.25 0 0 0 .25-.25v-2A.25.25 0 0 0 5.25 3Z" fill="#3e4855"/><path d="M6.5 1.5H2a.5.5 0 0 0-.5.5v4.5A.5.5 0 0 0 2 7h4.5a.5.5 0 0 0 .5-.5V2a.5.5 0 0 0-.5-.5Z" stroke="#3e4855" stroke-linecap="round" stroke-linejoin="round"/><path d="M5.25 10.5h-2a.25.25 0 0 0-.25.25v2c0 .138.112.25.25.25h2a.25.25 0 0 0 .25-.25v-2a.25.25 0 0 0-.25-.25Z" fill="#3e4855"/><path d="M6.5 9H2a.5.5 0 0 0-.5.5V14a.5.5 0 0 0 .5.5h4.5A.5.5 0 0 0 7 14V9.5a.5.5 0 0 0-.5-.5Z" stroke="#3e4855" stroke-linecap="round" stroke-linejoin="round"/></svg>