<svg 
 xmlns="http://www.w3.org/2000/svg"
 xmlns:xlink="http://www.w3.org/1999/xlink"
 width="64px" height="64px">
<defs>
<linearGradient id="PSgrad_0" x1="0%" x2="0%" y1="100%" y2="0%">
  <stop offset="0%" stop-color="rgb(89,95,173)" stop-opacity="1" />
  <stop offset="100%" stop-color="rgb(122,129,212)" stop-opacity="1" />
</linearGradient>

</defs>
<path fill-rule="evenodd"  fill="rgb(1, 1, 1)"
 d="M29.999,59.999 C13.457,59.999 0.0,46.541 0.0,29.999 C0.0,13.457 13.457,0.0 29.999,0.0 C46.541,0.0 59.999,13.457 59.999,29.999 C59.999,46.541 46.541,59.999 29.999,59.999 ZM29.999,3.848 C15.579,3.848 3.848,15.579 3.848,29.999 C3.848,44.419 15.579,56.151 29.999,56.151 C44.419,56.151 56.151,44.419 56.151,29.999 C56.151,15.579 44.419,3.848 29.999,3.848 ZM52.374,31.524 C52.355,31.810 52.107,32.26 51.821,32.1 L48.998,31.745 C48.726,31.720 48.520,31.484 48.538,31.211 C48.564,30.808 48.577,30.402 48.577,30.0 C48.577,27.548 48.109,25.174 47.187,22.934 C47.81,22.678 47.194,22.384 47.447,22.272 L50.38,21.123 C50.297,21.8 50.602,21.126 50.711,21.387 C51.849,24.117 52.425,27.12 52.425,29.999 C52.425,30.506 52.408,31.16 52.374,31.524 ZM44.738,17.885 C44.524,18.61 44.210,18.30 44.28,17.820 C42.541,16.106 40.782,14.698 38.788,13.627 C38.544,13.496 38.445,13.197 38.569,12.949 L39.844,10.419 C39.971,10.166 40.282,10.63 40.532,10.196 C42.997,11.508 45.166,13.243 46.992,15.364 C47.176,15.578 47.144,15.904 46.926,16.84 L44.738,17.885 ZM34.716,29.427 L33.32,30.995 C32.553,31.454 32.221,31.925 32.36,32.408 C31.850,32.892 31.747,33.504 31.728,34.247 L27.539,34.247 C27.539,32.821 27.700,31.695 28.22,30.870 C28.344,30.45 28.866,29.330 29.589,28.724 C30.312,28.119 30.861,27.565 31.237,27.62 C31.613,26.559 31.801,26.5 31.801,25.399 C31.801,23.924 31.166,23.187 29.897,23.187 C29.311,23.187 28.837,23.402 28.476,23.832 C28.115,24.261 27.924,24.842 27.905,25.575 L22.954,25.575 C22.973,23.622 23.588,22.101 24.799,21.12 C26.10,19.923 27.709,19.378 29.897,19.378 C32.74,19.378 33.762,19.881 34.958,20.887 C36.154,21.893 36.752,23.324 36.752,25.179 C36.752,25.990 36.591,26.727 36.269,27.391 C35.947,28.55 35.429,28.734 34.716,29.427 ZM33.106,11.680 C32.86,11.508 31.44,11.422 30.2,11.422 C30.1,11.422 30.0,11.422 29.999,11.422 C28.786,11.422 27.575,11.539 26.394,11.771 C26.122,11.824 25.856,11.656 25.795,11.385 L25.173,8.621 C25.111,8.345 25.286,8.68 25.563,8.12 C27.16,7.721 28.506,7.573 29.999,7.573 C30.0,7.573 30.1,7.573 30.3,7.573 C31.288,7.573 32.574,7.683 33.834,7.900 C34.113,7.948 34.295,8.220 34.241,8.498 L33.695,11.278 C33.642,11.551 33.380,11.726 33.106,11.680 ZM15.634,18.219 C15.461,18.429 15.149,18.459 14.934,18.292 L12.698,16.552 C12.475,16.378 12.434,16.53 12.613,15.833 C14.380,13.664 16.502,11.870 18.930,10.491 C19.176,10.352 19.490,10.446 19.624,10.695 L20.967,13.190 C21.96,13.430 21.15,13.732 20.778,13.867 C18.829,14.986 17.65,16.478 15.634,18.219 ZM12.625,23.406 C11.826,25.508 11.421,27.723 11.421,29.999 C11.421,30.1 11.421,30.3 11.421,30.4 C11.421,30.282 11.205,30.511 10.928,30.519 L8.95,30.595 C7.811,30.603 7.575,30.376 7.573,30.91 C7.573,30.61 7.573,30.30 7.573,29.999 C7.573,27.223 8.73,24.519 9.60,21.954 C9.161,21.690 9.464,21.564 9.725,21.672 L12.346,22.749 C12.603,22.855 12.724,23.146 12.625,23.406 ZM9.49,36.438 L11.758,35.606 C12.23,35.525 12.301,35.673 12.390,35.936 C13.110,38.78 14.204,40.46 15.649,41.799 C15.826,42.13 15.804,42.327 15.595,42.509 L13.456,44.368 C13.243,44.554 12.916,44.531 12.735,44.314 C10.944,42.158 9.593,39.728 8.714,37.79 C8.625,36.810 8.779,36.521 9.49,36.438 ZM19.471,45.912 C19.624,45.681 19.933,45.619 20.168,45.766 C22.90,46.969 24.184,47.796 26.404,48.230 C26.676,48.283 26.860,48.539 26.814,48.813 L26.344,51.607 C26.297,51.886 26.30,52.77 25.752,52.24 C23.7,51.498 20.421,50.477 18.53,48.982 C17.813,48.831 17.749,48.509 17.905,48.274 L19.471,45.912 ZM29.677,36.224 C30.458,36.224 31.110,36.456 31.633,36.920 C32.155,37.384 32.416,37.977 32.416,38.700 C32.416,39.422 32.155,40.16 31.633,40.479 C31.110,40.943 30.458,41.175 29.677,41.175 C28.896,41.175 28.244,40.943 27.722,40.479 C27.199,40.16 26.938,39.422 26.938,38.700 C26.938,37.977 27.199,37.384 27.722,36.920 C28.244,36.456 28.896,36.224 29.677,36.224 ZM32.416,48.421 C34.663,48.131 36.805,47.440 38.798,46.365 C39.42,46.234 39.346,46.315 39.484,46.556 L40.895,49.13 C41.36,49.259 40.951,49.575 40.703,49.710 C38.246,51.48 35.600,51.901 32.822,52.249 C32.542,52.284 32.288,52.77 32.259,51.795 L31.970,48.977 C31.941,48.700 32.141,48.457 32.416,48.421 ZM47.190,37.55 C47.296,36.798 47.582,36.668 47.842,36.767 L50.491,37.772 C50.756,37.872 50.891,38.171 50.784,38.433 C49.736,41.18 48.233,43.355 46.308,45.391 C46.114,45.597 45.786,45.599 45.585,45.400 L43.570,43.408 C43.372,43.213 43.371,42.898 43.561,42.696 C45.115,41.39 46.333,39.145 47.190,37.55 Z"/>
<path fill="url(#PSgrad_0)"
 d="M29.999,59.999 C13.457,59.999 0.0,46.541 0.0,29.999 C0.0,13.457 13.457,0.0 29.999,0.0 C46.541,0.0 59.999,13.457 59.999,29.999 C59.999,46.541 46.541,59.999 29.999,59.999 ZM29.999,3.848 C15.579,3.848 3.848,15.579 3.848,29.999 C3.848,44.419 15.579,56.151 29.999,56.151 C44.419,56.151 56.151,44.419 56.151,29.999 C56.151,15.579 44.419,3.848 29.999,3.848 ZM52.374,31.524 C52.355,31.810 52.107,32.26 51.821,32.1 L48.998,31.745 C48.726,31.720 48.520,31.484 48.538,31.211 C48.564,30.808 48.577,30.402 48.577,30.0 C48.577,27.548 48.109,25.174 47.187,22.934 C47.81,22.678 47.194,22.384 47.447,22.272 L50.38,21.123 C50.297,21.8 50.602,21.126 50.711,21.387 C51.849,24.117 52.425,27.12 52.425,29.999 C52.425,30.506 52.408,31.16 52.374,31.524 ZM44.738,17.885 C44.524,18.61 44.210,18.30 44.28,17.820 C42.541,16.106 40.782,14.698 38.788,13.627 C38.544,13.496 38.445,13.197 38.569,12.949 L39.844,10.419 C39.971,10.166 40.282,10.63 40.532,10.196 C42.997,11.508 45.166,13.243 46.992,15.364 C47.176,15.578 47.144,15.904 46.926,16.84 L44.738,17.885 ZM34.716,29.427 L33.32,30.995 C32.553,31.454 32.221,31.925 32.36,32.408 C31.850,32.892 31.747,33.504 31.728,34.247 L27.539,34.247 C27.539,32.821 27.700,31.695 28.22,30.870 C28.344,30.45 28.866,29.330 29.589,28.724 C30.312,28.119 30.861,27.565 31.237,27.62 C31.613,26.559 31.801,26.5 31.801,25.399 C31.801,23.924 31.166,23.187 29.897,23.187 C29.311,23.187 28.837,23.402 28.476,23.832 C28.115,24.261 27.924,24.842 27.905,25.575 L22.954,25.575 C22.973,23.622 23.588,22.101 24.799,21.12 C26.10,19.923 27.709,19.378 29.897,19.378 C32.74,19.378 33.762,19.881 34.958,20.887 C36.154,21.893 36.752,23.324 36.752,25.179 C36.752,25.990 36.591,26.727 36.269,27.391 C35.947,28.55 35.429,28.734 34.716,29.427 ZM33.106,11.680 C32.86,11.508 31.44,11.422 30.2,11.422 C30.1,11.422 30.0,11.422 29.999,11.422 C28.786,11.422 27.575,11.539 26.394,11.771 C26.122,11.824 25.856,11.656 25.795,11.385 L25.173,8.621 C25.111,8.345 25.286,8.68 25.563,8.12 C27.16,7.721 28.506,7.573 29.999,7.573 C30.0,7.573 30.1,7.573 30.3,7.573 C31.288,7.573 32.574,7.683 33.834,7.900 C34.113,7.948 34.295,8.220 34.241,8.498 L33.695,11.278 C33.642,11.551 33.380,11.726 33.106,11.680 ZM15.634,18.219 C15.461,18.429 15.149,18.459 14.934,18.292 L12.698,16.552 C12.475,16.378 12.434,16.53 12.613,15.833 C14.380,13.664 16.502,11.870 18.930,10.491 C19.176,10.352 19.490,10.446 19.624,10.695 L20.967,13.190 C21.96,13.430 21.15,13.732 20.778,13.867 C18.829,14.986 17.65,16.478 15.634,18.219 ZM12.625,23.406 C11.826,25.508 11.421,27.723 11.421,29.999 C11.421,30.1 11.421,30.3 11.421,30.4 C11.421,30.282 11.205,30.511 10.928,30.519 L8.95,30.595 C7.811,30.603 7.575,30.376 7.573,30.91 C7.573,30.61 7.573,30.30 7.573,29.999 C7.573,27.223 8.73,24.519 9.60,21.954 C9.161,21.690 9.464,21.564 9.725,21.672 L12.346,22.749 C12.603,22.855 12.724,23.146 12.625,23.406 ZM9.49,36.438 L11.758,35.606 C12.23,35.525 12.301,35.673 12.390,35.936 C13.110,38.78 14.204,40.46 15.649,41.799 C15.826,42.13 15.804,42.327 15.595,42.509 L13.456,44.368 C13.243,44.554 12.916,44.531 12.735,44.314 C10.944,42.158 9.593,39.728 8.714,37.79 C8.625,36.810 8.779,36.521 9.49,36.438 ZM19.471,45.912 C19.624,45.681 19.933,45.619 20.168,45.766 C22.90,46.969 24.184,47.796 26.404,48.230 C26.676,48.283 26.860,48.539 26.814,48.813 L26.344,51.607 C26.297,51.886 26.30,52.77 25.752,52.24 C23.7,51.498 20.421,50.477 18.53,48.982 C17.813,48.831 17.749,48.509 17.905,48.274 L19.471,45.912 ZM29.677,36.224 C30.458,36.224 31.110,36.456 31.633,36.920 C32.155,37.384 32.416,37.977 32.416,38.700 C32.416,39.422 32.155,40.16 31.633,40.479 C31.110,40.943 30.458,41.175 29.677,41.175 C28.896,41.175 28.244,40.943 27.722,40.479 C27.199,40.16 26.938,39.422 26.938,38.700 C26.938,37.977 27.199,37.384 27.722,36.920 C28.244,36.456 28.896,36.224 29.677,36.224 ZM32.416,48.421 C34.663,48.131 36.805,47.440 38.798,46.365 C39.42,46.234 39.346,46.315 39.484,46.556 L40.895,49.13 C41.36,49.259 40.951,49.575 40.703,49.710 C38.246,51.48 35.600,51.901 32.822,52.249 C32.542,52.284 32.288,52.77 32.259,51.795 L31.970,48.977 C31.941,48.700 32.141,48.457 32.416,48.421 ZM47.190,37.55 C47.296,36.798 47.582,36.668 47.842,36.767 L50.491,37.772 C50.756,37.872 50.891,38.171 50.784,38.433 C49.736,41.18 48.233,43.355 46.308,45.391 C46.114,45.597 45.786,45.599 45.585,45.400 L43.570,43.408 C43.372,43.213 43.371,42.898 43.561,42.696 C45.115,41.39 46.333,39.145 47.190,37.55 Z"/>
</svg>