<svg width="16" height="16" fill="none" xmlns="http://www.w3.org/2000/svg"><path d="M8 .5C3.86.5.5 3.86.5 8c0 4.14 3.36 7.5 7.5 7.5 4.14 0 7.5-3.36 7.5-7.5C15.5 3.86 12.14.5 8 .5Zm-.234 11.875a.78.78 0 1 1 0-1.562.78.78 0 0 1 0 1.562Zm1.306-3.984c-.633.425-.72.814-.72 1.171a.547.547 0 1 1-1.094 0c0-.855.394-1.536 1.204-2.08.753-.505 1.179-.826 1.179-1.53 0-.479-.274-.843-.84-1.112-.133-.063-.43-.125-.794-.12-.458.005-.814.115-1.087.335-.517.416-.56.868-.56.875a.548.548 0 0 1-1.094-.053c.004-.095.07-.95.967-1.672.465-.374 1.057-.569 1.758-.577.496-.006.962.078 1.278.227.946.447 1.465 1.193 1.465 2.097 0 1.321-.883 1.915-1.662 2.439Z" fill="#555"/></svg>