<svg width="14" height="14" viewBox="0 0 14 14" fill="none" xmlns="http://www.w3.org/2000/svg">
<path d="M13.2716 12.1684L10.3313 9.22813C11.0391 8.28574 11.4213 7.13865 11.42 5.96C11.42 2.94938 8.97063 0.5 5.96 0.5C2.94938 0.5 0.5 2.94938 0.5 5.96C0.5 8.97063 2.94938 11.42 5.96 11.42C7.13865 11.4213 8.28574 11.0391 9.22813 10.3313L12.1684 13.2716C12.3173 13.4046 12.5114 13.4756 12.711 13.47C12.9105 13.4645 13.1004 13.3827 13.2415 13.2415C13.3827 13.1004 13.4645 12.9105 13.47 12.711C13.4756 12.5114 13.4046 12.3173 13.2716 12.1684ZM2.06 5.96C2.06 5.18865 2.28873 4.43463 2.71727 3.79328C3.14581 3.15192 3.7549 2.65205 4.46754 2.35687C5.18017 2.06169 5.96433 1.98446 6.72085 2.13494C7.47738 2.28542 8.17229 2.65686 8.71772 3.20228C9.26314 3.74771 9.63458 4.44262 9.78506 5.19915C9.93555 5.95567 9.85831 6.73983 9.56313 7.45247C9.26795 8.1651 8.76808 8.77419 8.12673 9.20273C7.48537 9.63127 6.73135 9.86 5.96 9.86C4.92604 9.85876 3.93478 9.44747 3.20365 8.71635C2.47253 7.98522 2.06124 6.99396 2.06 5.96Z" fill="#4A5D75"/>
</svg>
