<svg version="1.2" baseProfile="tiny-ps" xmlns="http://www.w3.org/2000/svg" width="32" height="36"><path d="M18.86 34.87a3.93 3.93 0 0 0 0-5.55L6.67 17.12a3.917 3.917 0 0 0-5.54 0 3.93 3.93 0 0 0 0 5.55l12.19 12.2a3.917 3.917 0 0 0 5.54 0Zm-5.69-.06a3.905 3.905 0 0 1 0-5.53l12.15-12.17a3.911 3.911 0 0 1 5.52 0 3.917 3.917 0 0 1 0 5.54L18.69 34.81c-1.52 1.53-4 1.53-5.52 0ZM16.03 0c2.21 0 3.99 1.79 3.99 3.99v23.99c0 2.2-1.78 3.99-3.99 3.99-2.2 0-3.99-1.79-3.99-3.99V3.99c0-2.2 1.79-3.99 3.99-3.99Z" style="fill-opacity:.329;fill:#b3c4d5"/></svg>