<svg version="1.2" baseProfile="tiny-ps" xmlns="http://www.w3.org/2000/svg" width="29" height="30"><path d="m27.58 12.41-.41.23c-.88.5-1.41 1.38-1.41 2.37 0 .98.53 1.87 1.41 2.36l.41.23c.65.37 1.12.95 1.32 1.66.19.7.09 1.44-.29 2.07l-1.4 2.36c-.78 1.3-2.5 1.76-3.85 1l-.42-.23c-.88-.49-1.93-.5-2.81 0-.88.49-1.41 1.38-1.41 2.36v.47c0 1.5-1.26 2.72-2.81 2.72h-2.82c-1.55 0-2.82-1.22-2.82-2.72v-.47c0-.98-.52-1.87-1.4-2.36-.89-.49-1.94-.49-2.82 0l-.41.23c-1.34.75-3.07.31-3.85-1L.38 21.33c-.37-.63-.47-1.37-.28-2.07.2-.71.66-1.29 1.32-1.66l.41-.23c.88-.49 1.41-1.38 1.41-2.36 0-.99-.53-1.87-1.41-2.37l-.42-.23C.76 12.05.3 11.46.1 10.75c-.19-.7-.09-1.44.28-2.07l1.41-2.36c.78-1.3 2.5-1.75 3.85-1l.41.23c.88.49 1.93.5 2.82 0a2.67 2.67 0 0 0 1.4-2.36v-.46c0-1.51 1.27-2.73 2.82-2.73h2.82c1.55 0 2.81 1.22 2.81 2.73v.46c0 .99.53 1.87 1.41 2.36.88.5 1.94.5 2.81 0l.42-.23c1.34-.75 3.07-.31 3.85 1l1.4 2.36c.38.63.48 1.37.29 2.07-.2.71-.67 1.3-1.32 1.66Zm-2.81-4.73-.42.24c-1.76.98-3.87.98-5.63 0-1.76-.99-2.81-2.76-2.81-4.73v-.46h-2.82v.46c0 1.97-1.05 3.74-2.82 4.73-1.76.98-3.87.98-5.63 0l-.41-.24-1.41 2.37.42.23c1.76.99 2.81 2.75 2.81 4.73 0 1.97-1.05 3.74-2.81 4.72l-.42.23 1.41 2.37.41-.23c.88-.5 1.85-.74 2.82-.74.97 0 1.93.24 2.81.74 1.77.98 2.82 2.75 2.82 4.72v.47h2.82v-.47c0-1.97 1.05-3.74 2.81-4.72 1.77-.99 3.87-.99 5.63 0l.42.23 1.4-2.37-.41-.23c-1.76-.98-2.82-2.75-2.82-4.72 0-1.98 1.06-3.74 2.82-4.73l.41-.23-1.4-2.37ZM14.5 19.1c-2.33 0-4.23-1.84-4.23-4.09 0-2.26 1.9-4.1 4.23-4.1 2.33 0 4.22 1.84 4.22 4.1 0 2.25-1.89 4.09-4.22 4.09Zm0-5.46c-.78 0-1.41.61-1.41 1.37 0 .75.63 1.36 1.41 1.36.78 0 1.41-.61 1.41-1.36 0-.76-.63-1.37-1.41-1.37Z" style="fill:#4a5d75"/></svg>