<svg width="17" height="17" viewBox="0 0 17 17" fill="none" xmlns="http://www.w3.org/2000/svg">
<g clip-path="url(#clip0_2754_144)">
<path d="M6.54 13.0601C6.54 13.0601 6.52 13.0601 6.5 13.0601C3.07 13.0601 1.07 11.9901 1 11.5601V9.89006C2.15 10.5901 4.18 11.0601 6.5 11.0601C6.56 11.0601 6.62 11.0601 6.68 11.0601C6.77 10.7101 6.9 10.3701 7.06 10.0401C6.87 10.0401 6.7 10.0601 6.5 10.0601C3.07 10.0601 1.07 8.99006 1 8.56006V6.89006C2.15 7.59006 4.18 8.06006 6.5 8.06006C7.36 8.06006 8.18 7.99006 8.93 7.88006C9.78 7.31006 10.79 6.97006 11.89 6.95006C11.92 6.93006 11.97 6.91006 12 6.89006V6.94006C12.34 6.94006 12.68 6.98006 13 7.04006V2.56006C13 2.07006 12.63 1.62006 12 1.23006C10.85 0.530059 8.82 0.0600586 6.5 0.0600586C4.18 0.0600586 2.15 0.530059 1 1.23006C0.37 1.61006 0 2.07006 0 2.56006V11.5601C0 12.0501 0.37 12.5001 1 12.8901C2.15 13.5901 4.18 14.0601 6.5 14.0601C6.58 14.0601 6.66 14.0601 6.74 14.0601C6.64 13.7401 6.57 13.4101 6.53 13.0601H6.54ZM6.5 1.06006C9.93 1.06006 11.93 2.13006 12 2.56006C11.93 3.00006 9.93 4.06006 6.5 4.06006C3.07 4.06006 1.07 2.99006 1 2.56006C1.07 2.12006 3.07 1.06006 6.5 1.06006ZM1 3.89006C2.15 4.59006 4.18 5.06006 6.5 5.06006C8.82 5.06006 10.85 4.59006 12 3.89006V5.56006C11.93 6.00006 9.93 7.06006 6.5 7.06006C3.07 7.06006 1.07 5.99006 1 5.56006V3.89006Z" fill="white"/>
<path d="M12 7.93994C9.52 7.93994 7.5 9.94994 7.5 12.4399C7.5 14.9299 9.52 16.9399 12 16.9399C14.48 16.9399 16.5 14.9299 16.5 12.4399C16.5 9.94994 14.49 7.93994 12 7.93994ZM12.35 14.1499L11.29 15.2099L10.23 14.1499L8.5 12.4199L9.56 11.3599L11.29 13.0899L14.44 9.93994L15.5 10.9999L12.35 14.1499Z" fill="white"/>
</g>
<defs>
<clipPath id="clip0_2754_144">
<rect width="16.5" height="16.88" fill="white" transform="translate(0 0.0600586)"/>
</clipPath>
</defs>
</svg>
