<svg width="408" height="282" viewBox="0 0 408 282" fill="none" xmlns="http://www.w3.org/2000/svg">
<path fill-rule="evenodd" clip-rule="evenodd" d="M132.264 202.24C165.72 178.433 207.498 177.766 246.078 163.72C297.725 144.917 342.599 94.3673 396.268 106.123C451.605 118.245 501.249 167.357 514.319 222.477C527.003 275.968 475.394 321.173 459.765 373.899C447.068 416.732 461.773 468.619 431.59 501.566C401.105 534.845 350.957 542.534 305.847 541.918C265.562 541.368 231.326 518.26 196.313 498.354C163.092 479.467 132.117 459.305 108.164 429.531C78.6653 392.865 38.2614 354.887 43.2255 308.071C48.207 261.089 93.7606 229.639 132.264 202.24Z" fill="#303030"/>
</svg>
