<svg width="439" height="234" viewBox="0 0 439 234" fill="none" xmlns="http://www.w3.org/2000/svg">
<path fill-rule="evenodd" clip-rule="evenodd" d="M210.749 -425.731C238.737 -400.874 244.071 -351.267 262.682 -314.038C287.598 -264.199 344.11 -242.752 338.109 -170.969C331.922 -96.9561 287.403 -6.13037 232.689 44.7339C179.591 94.0951 127.775 61.1671 72.3029 76.1325C27.2389 88.2899 -23.9995 139.047 -60.9377 123.949C-98.2465 108.7 -111.669 53.5557 -116.067 -0.860098C-119.995 -49.4551 -100.26 -105.217 -83.8755 -159.865C-68.3294 -211.715 -51.2329 -261.689 -23.5602 -309.395C10.5187 -368.145 44.7189 -440.792 92.9814 -464.755C141.413 -488.801 178.538 -454.339 210.749 -425.731Z" fill="#303030"/>
</svg>
