<svg xmlns="http://www.w3.org/2000/svg" width="16" height="7"><path fill-rule="evenodd" fill="#7E8C9D" d="M5.2 7.2c-.287 0-.374-.201-.457-.204C2.177 6.864.592 4.9.42 4.676c-.163-.88.21-2.121.434-2.771.91-.647 2.636-.467 2.876.399.154.187.704.876 1.245 1.076.549.48 1.18-.885 1.503-1.222C8.289.267 10.65.55 11.257.2c2.566-.067 4.149 2.78 4.322 2.121.678.881 1.051 2.121-.434 3.599-.918-.175-2.211-.363-2.889-1.244-.135-.164-.688-.696-1.006-.717-.771-.044-1.405.542-1.729.881C7.838 6.597 6.175 7.2 5.2 7.2Z"/></svg>