<svg version="1.2" baseProfile="tiny-ps" xmlns="http://www.w3.org/2000/svg" width="33" height="32"><style>.shp0{fill:#fff}</style><g id="Wallet"><g id="Notifications"><g id="1"><g id="Close Button"><path id="Rectangle 13" d="M22.46 10.54c.72.71.72 1.87 0 2.58l-8.34 8.34c-.71.72-1.87.72-2.58 0a1.81 1.81 0 0 1 0-2.58l8.34-8.34a1.81 1.81 0 0 1 2.58 0Zm-8.34 0 8.34 8.34c.72.71.72 1.87 0 2.58-.71.72-1.87.72-2.58 0l-8.34-8.34a1.81 1.81 0 0 1 0-2.58 1.81 1.81 0 0 1 2.58 0Z" style="fill:transparent"/></g></g></g></g></svg>