<svg version="1.2" baseProfile="tiny-ps" xmlns="http://www.w3.org/2000/svg" width="40" height="40"><path d="M20.01 0C8.97 0 .02 8.95.02 19.99c0 11.05 8.95 20 19.99 20S40 31.04 40 19.99C40 8.95 31.05 0 20.01 0m7.95 15.92c.01.17.01.35.01.53 0 5.42-4.12 11.67-11.67 11.67-2.32 0-4.47-.68-6.29-1.84.32.03.65.05.98.05 1.92 0 3.69-.65 5.1-1.75a4.13 4.13 0 0 1-3.84-2.85 4.322 4.322 0 0 0 1.86-.07 4.107 4.107 0 0 1-3.29-4.02v-.06c.55.31 1.18.5 1.85.52a4.104 4.104 0 0 1-1.82-3.42c0-.75.2-1.45.56-2.06 2.02 2.48 5.04 4.12 8.45 4.29a4.106 4.106 0 0 1 6.99-3.74 8.36 8.36 0 0 0 2.6-1c-.3.96-.95 1.76-1.8 2.27.83-.1 1.62-.32 2.36-.65-.55.83-1.25 1.55-2.05 2.13" style="fill:#21a3f2"/></svg>