<svg xmlns="http://www.w3.org/2000/svg" viewBox="0 0 700 700" style="enable-background:new 0 0 700 700" xml:space="preserve"><linearGradient id="a" gradientUnits="userSpaceOnUse" x1="350" y1="700" x2="350" y2="0"><stop offset="0" style="stop-color:#adadad"/><stop offset="1" style="stop-color:#d4d4d4"/></linearGradient><path d="M350 700C156.7 700 0 543.3 0 350S156.7 0 350 0s350 156.7 350 350c-.2 193.2-156.8 349.8-350 350zm0-655.1C181.5 44.9 44.9 181.5 44.9 350S181.5 655.1 350 655.1c168.5 0 305.1-136.6 305.1-305.1C654.9 181.6 518.4 45.1 350 44.9zm26.4 559.4-3.4-32.9c-.3-3.2 2-6.1 5.2-6.5 26.1-3.3 51.3-11.5 74.5-24 2.8-1.6 6.4-.6 8 2.2l16.5 28.7c1.6 2.8.7 6.4-2.1 8.1l-.1.1c-28.5 15.6-59.7 25.6-91.9 29.6-3.2.4-6.2-1.9-6.6-5.1-.1-.1-.1-.1-.1-.2zm-75.9 2.7c-31.9-6.1-62.4-18.1-89.8-35.5-2.7-1.8-3.5-5.4-1.8-8.2 0 0 0-.1.1-.1l18.3-27.6c1.8-2.7 5.4-3.5 8.2-1.7 22.3 13.9 46.9 23.7 72.7 28.7 3.2.6 5.3 3.6 4.8 6.8l-5.5 32.6c-.7 3.3-3.8 5.5-7 5 0 0 0-.1 0 0zm231.3-77.3-23.5-23.2c-2.3-2.3-2.3-6-.1-8.3 18-19.2 32.4-41.5 42.3-65.8 1.2-3 4.6-4.5 7.6-3.4l30.9 11.7c3.1 1.1 4.6 4.6 3.5 7.6v.1c-12.2 30.1-29.9 57.6-52.2 81.2-2.3 2.3-6.1 2.4-8.5.1.1 0 .1 0 0 0zM148.6 517c-20.8-24.9-36.7-53.6-46.9-84.4-1-3.1.7-6.4 3.8-7.4h.1l31.6-9.7c3.1-.9 6.4.8 7.4 3.9 8.4 24.9 21.3 48.1 38 68.4 2.1 2.5 1.8 6.2-.6 8.3l-25 21.7c-2.5 2-6.2 1.7-8.4-.8zm456-143.7-32.9-3c-3.2-.3-5.6-3-5.4-6.2.3-4.7.5-9.4.5-14.1.1-28.3-5.4-56.3-16.2-82.4-1.3-3 .1-6.4 3-7.7l30.2-13.4c3-1.3 6.5 0 7.8 3v.1c13.3 31.8 20.1 66 20 100.5 0 5.9-.2 11.9-.6 17.8-.2 3.3-3 5.8-6.3 5.6 0-.2-.1-.2-.1-.2zM94.5 357c-3.3.1-6-2.5-6.1-5.8V350c-.1-32.1 5.8-64 17.3-94 1.2-3 4.6-4.5 7.7-3.3h.1l30.6 12.6c3 1.2 4.4 4.6 3.3 7.7-9.3 24.6-14.1 50.6-14 76.9 0 3.2-2.5 5.9-5.8 6L94.5 357zm79.8-143.5-26.1-20.4c-2.6-2-3.1-5.7-1.1-8.3 0 0 0-.1.1-.1 20.5-25.2 45.5-46.3 73.7-62.3 2.8-1.6 6.5-.6 8.1 2.3v.1l15.7 29.1c1.5 2.8.5 6.3-2.2 7.9a220.09 220.09 0 0 0-60 50.8c-2.1 2.4-5.8 2.8-8.2.9zm339.4-5.5c-17.2-19.9-37.9-36.5-61.1-48.9-2.9-1.5-4-5-2.6-7.9l14.9-29.5c1.5-2.9 5-4.1 7.9-2.6h.1c28.7 15.2 54.2 35.7 75.4 60.3 2.1 2.5 1.8 6.2-.7 8.3 0 0-.1 0-.1.1l-25.5 21c-2.5 2-6.3 1.6-8.3-.8zM301 132.8l-7.3-32.3c-.7-3.2 1.3-6.3 4.4-7.1h.1c17-3.4 34.4-5.1 51.8-5.1 15 0 29.9 1.3 44.7 3.8 3.2.6 5.3 3.6 4.8 6.8v.2l-6.3 32.4c-.6 3.2-3.7 5.2-6.9 4.7-12-2-24-3-36.2-3-14.1 0-28.2 1.4-42 4.1-3.2.7-6.4-1.3-7.1-4.5zm69.2 266.7c0-7.3 1.2-14.6 3.6-21.5 2.6-6.3 6.6-11.9 11.7-16.5l19.7-18.3c7.4-6.8 13.5-14.9 18.1-23.8 3.8-8.1 5.8-16.9 5.6-25.8 1.1-19-6.6-37.5-20.9-50.1-17-12.7-38-19-59.1-17.6-21.5-1.3-42.8 5.5-59.5 19.1a68.872 68.872 0 0 0-21.5 53.2h57.8c-.2-7.3 2.2-14.5 6.7-20.3 4.1-4.9 10.2-7.7 16.6-7.5 14.8 0 22.2 8.6 22.2 25.8 0 7-2.3 13.8-6.6 19.4-5.7 7.2-12.1 13.7-19.2 19.4-8.1 6.7-14.4 15.3-18.3 25-4.2 12.7-6.1 26-5.6 39.4h48.9l-.2.1zm-46.8 72.8c13.3 10.8 32.3 10.8 45.6 0 11.5-10.5 12.2-28.3 1.7-39.8-.6-.6-1.1-1.2-1.7-1.7a36.139 36.139 0 0 0-45.6 0c-11.5 10.5-12.2 28.3-1.7 39.8l1.7 1.7z" style="fill-rule:evenodd;clip-rule:evenodd;fill:url(#a)"/></svg>