<?xml version="1.0" encoding="utf-8"?>
<!-- Generator: Adobe Illustrator 24.1.2, SVG Export Plug-In . SVG Version: 6.00 Build 0)  -->
<svg version="1.1" id="Layer_1" xmlns="http://www.w3.org/2000/svg" xmlns:xlink="http://www.w3.org/1999/xlink" x="0px" y="0px"
	 viewBox="0 0 700 700" style="enable-background:new 0 0 700 700;" xml:space="preserve">
<style type="text/css">
	.st0{fill-rule:evenodd;clip-rule:evenodd;fill:url(#SVGID_1_);}
</style>
<linearGradient id="SVGID_1_" gradientUnits="userSpaceOnUse" x1="350" y1="700" x2="350" y2="0">
	<stop  offset="0" style="stop-color:#ADADAD"/>
	<stop  offset="1" style="stop-color:#D4D4D4"/>
</linearGradient>
<path class="st0" d="M350,700C156.7,700,0,543.3,0,350S156.7,0,350,0s350,156.7,350,350C699.8,543.2,543.2,699.8,350,700z M350,44.9
	C181.5,44.9,44.9,181.5,44.9,350S181.5,655.1,350,655.1c168.5,0,305.1-136.6,305.1-305.1c0,0,0,0,0,0
	C654.9,181.6,518.4,45.1,350,44.9z M376.4,604.3l-3.4-32.9c-0.3-3.2,2-6.1,5.2-6.5c26.1-3.3,51.3-11.5,74.5-24
	c2.8-1.6,6.4-0.6,8,2.2l16.5,28.7c1.6,2.8,0.7,6.4-2.1,8.1c0,0-0.1,0.1-0.1,0.1c-28.5,15.6-59.7,25.6-91.9,29.6
	c-3.2,0.4-6.2-1.9-6.6-5.1C376.4,604.4,376.4,604.4,376.4,604.3z M300.5,607c-31.9-6.1-62.4-18.1-89.8-35.5
	c-2.7-1.8-3.5-5.4-1.8-8.2c0,0,0-0.1,0.1-0.1l18.3-27.6c1.8-2.7,5.4-3.5,8.2-1.7c22.3,13.9,46.9,23.7,72.7,28.7
	c3.2,0.6,5.3,3.6,4.8,6.8l-5.5,32.6C306.8,605.3,303.7,607.5,300.5,607C300.5,607,300.5,606.9,300.5,607L300.5,607z M531.8,529.7
	l-23.5-23.2c-2.3-2.3-2.3-6-0.1-8.3c18-19.2,32.4-41.5,42.3-65.8c1.2-3,4.6-4.5,7.6-3.4l30.9,11.7c3.1,1.1,4.6,4.6,3.5,7.6
	c0,0,0,0.1,0,0.1c-12.2,30.1-29.9,57.6-52.2,81.2C538,531.9,534.2,532,531.8,529.7C531.9,529.7,531.9,529.7,531.8,529.7z M148.6,517
	c-20.8-24.9-36.7-53.6-46.9-84.4c-1-3.1,0.7-6.4,3.8-7.4c0,0,0.1,0,0.1,0l31.6-9.7c3.1-0.9,6.4,0.8,7.4,3.9
	c8.4,24.9,21.3,48.1,38,68.4c2.1,2.5,1.8,6.2-0.6,8.3l-25,21.7C154.5,519.8,150.8,519.5,148.6,517C148.6,517,148.6,517,148.6,517z
	 M604.6,373.3l-32.9-3c-3.2-0.3-5.6-3-5.4-6.2c0.3-4.7,0.5-9.4,0.5-14.1c0.1-28.3-5.4-56.3-16.2-82.4c-1.3-3,0.1-6.4,3-7.7
	l30.2-13.4c3-1.3,6.5,0,7.8,3c0,0,0,0.1,0,0.1c13.3,31.8,20.1,66,20,100.5c0,5.9-0.2,11.9-0.6,17.8c-0.2,3.3-3,5.8-6.3,5.6
	C604.7,373.3,604.6,373.3,604.6,373.3z M94.5,357c-3.3,0.1-6-2.5-6.1-5.8c0,0,0,0,0-0.1c0-0.4,0-0.7,0-1.1c-0.1-32.1,5.8-64,17.3-94
	c1.2-3,4.6-4.5,7.7-3.3c0,0,0.1,0,0.1,0l30.6,12.6c3,1.2,4.4,4.6,3.3,7.7c-9.3,24.6-14.1,50.6-14,76.9l0,0c0,3.2-2.5,5.9-5.8,6
	L94.5,357z M174.3,213.5l-26.1-20.4c-2.6-2-3.1-5.7-1.1-8.3c0,0,0-0.1,0.1-0.1c20.5-25.2,45.5-46.3,73.7-62.3
	c2.8-1.6,6.5-0.6,8.1,2.3c0,0,0,0.1,0,0.1l15.7,29.1c1.5,2.8,0.5,6.3-2.2,7.9c-22.9,13.2-43.2,30.4-60,50.8
	C180.4,215,176.7,215.4,174.3,213.5L174.3,213.5z M513.7,208c-17.2-19.9-37.9-36.5-61.1-48.9c-2.9-1.5-4-5-2.6-7.9l14.9-29.5
	c1.5-2.9,5-4.1,7.9-2.6c0,0,0.1,0,0.1,0c28.7,15.2,54.2,35.7,75.4,60.3c2.1,2.5,1.8,6.2-0.7,8.3c0,0-0.1,0-0.1,0.1l-25.5,21
	C519.5,210.8,515.7,210.4,513.7,208L513.7,208z M301,132.8l-7.3-32.3c-0.7-3.2,1.3-6.3,4.4-7.1c0,0,0.1,0,0.1,0
	c17-3.4,34.4-5.1,51.8-5.1l0,0c15,0,29.9,1.3,44.7,3.8c3.2,0.6,5.3,3.6,4.8,6.8c0,0.1,0,0.1,0,0.2l-6.3,32.4
	c-0.6,3.2-3.7,5.2-6.9,4.7c-12-2-24-3-36.2-3l0,0c-14.1,0-28.2,1.4-42,4.1C304.9,138,301.7,136,301,132.8
	C301,132.8,301,132.8,301,132.8z M370.2,399.5c0-7.3,1.2-14.6,3.6-21.5c2.6-6.3,6.6-11.9,11.7-16.5l19.7-18.3
	c7.4-6.8,13.5-14.9,18.1-23.8c3.8-8.1,5.8-16.9,5.6-25.8c1.1-19-6.6-37.5-20.9-50.1c-17-12.7-38-19-59.1-17.6
	c-21.5-1.3-42.8,5.5-59.5,19.1c-14.6,13.8-22.4,33.2-21.5,53.2h57.8c-0.2-7.3,2.2-14.5,6.7-20.3c4.1-4.9,10.2-7.7,16.6-7.5
	c14.8,0,22.2,8.6,22.2,25.8c0,7-2.3,13.8-6.6,19.4c-5.7,7.2-12.1,13.7-19.2,19.4c-8.1,6.7-14.4,15.3-18.3,25
	c-4.2,12.7-6.1,26-5.6,39.4h48.9L370.2,399.5z M323.4,472.3c13.3,10.8,32.3,10.8,45.6,0c11.5-10.5,12.2-28.3,1.7-39.8
	c-0.6-0.6-1.1-1.2-1.7-1.7c-13.3-10.8-32.3-10.8-45.6,0c-11.5,10.5-12.2,28.3-1.7,39.8C322.2,471.1,322.8,471.7,323.4,472.3z"/>
</svg>
