<svg version="1.2" baseProfile="tiny-ps" xmlns="http://www.w3.org/2000/svg" width="16" height="26"><style></style><g id="1"><g id="Balance"><g id="3"><g id="Buttons"><path id="Icon" d="M9.43.54c.76.77.76 2.01 0 2.78L3.32 9.43c-.77.76-2.01.76-2.78 0a1.98 1.98 0 0 1 0-2.78L6.65.54a1.98 1.98 0 0 1 2.78 0ZM6.57.57c-.76.77-.76 2.01 0 2.77l6.09 6.09c.76.76 2 .76 2.77 0 .76-.77.76-2.01 0-2.77L9.34.57c-.76-.76-2-.76-2.77 0ZM8 2c1.1 0 2 .9 2 2v12c0 1.1-.9 2-2 2s-2-.9-2-2V4c0-1.1.9-2 2-2ZM2 22h12c1.1 0 2 .9 2 2s-.9 2-2 2H2c-1.1 0-2-.9-2-2s.9-2 2-2Z" style="fill:#7177e3"/></g></g></g></g></svg>