<svg version="1.2" baseProfile="tiny-ps" xmlns="http://www.w3.org/2000/svg" viewBox="0 0 16 26" width="16" height="26">
	<title>1</title>
	<style>
		tspan { white-space:pre }
		.shp0 { fill: #7177e3 } 
	</style>
	<g id="1">
		<g id="Balance">
			<g id="3">
				<g id="Buttons">
					<g id="1">
						<path id="Icon" class="shp0" d="M9.43 0.54C10.19 1.31 10.19 2.55 9.43 3.32L3.32 9.43C2.55 10.19 1.31 10.19 0.54 9.43C-0.22 8.66 -0.22 7.42 0.54 6.65L6.65 0.54C7.42 -0.22 8.66 -0.22 9.43 0.54ZM6.57 0.57C5.81 1.34 5.81 2.58 6.57 3.34L12.66 9.43C13.42 10.19 14.66 10.19 15.43 9.43C16.19 8.66 16.19 7.42 15.43 6.66L9.34 0.57C8.58 -0.19 7.34 -0.19 6.57 0.57ZM8 2C9.1 2 10 2.9 10 4L10 16C10 17.1 9.1 18 8 18C6.9 18 6 17.1 6 16L6 4C6 2.9 6.9 2 8 2ZM2 22L14 22C15.1 22 16 22.9 16 24C16 25.1 15.1 26 14 26L2 26C0.9 26 0 25.1 0 24C0 22.9 0.9 22 2 22Z" />
					</g>
				</g>
			</g>
		</g>
	</g>
</svg>