<svg width="30" height="30" viewBox="0 0 30 30" fill="none" xmlns="http://www.w3.org/2000/svg">
<path fill-rule="evenodd" clip-rule="evenodd" d="M17.6476 7.32839C18.0851 6.89086 18.7945 6.89086 19.232 7.32839L22.6719 10.7682C23.1094 11.2057 23.1094 11.9151 22.6719 12.3526L12.3524 22.6721C12.1423 22.8822 11.8573 23.0002 11.5602 23.0002H8.12036C7.5016 23.0002 7 22.4986 7 21.8799V18.4401C7 18.1429 7.11804 17.858 7.32815 17.6478L17.6476 7.32839ZM9.24073 18.9041V20.7595H11.0961L20.2952 11.5604L18.4398 9.70504L9.24073 18.9041Z" fill="#6D75F4"/>
<path fill-rule="evenodd" clip-rule="evenodd" d="M14.6378 10.3383C15.0753 9.90074 15.7847 9.90074 16.2222 10.3383L19.6621 13.7781C20.0996 14.2156 20.0996 14.925 19.6621 15.3625C19.2245 15.8 18.5152 15.8 18.0776 15.3625L14.6378 11.9227C14.2003 11.4852 14.2003 10.7758 14.6378 10.3383Z" fill="#6D75F4"/>
<rect x="0.5" y="0.500244" width="29" height="29" rx="6.5" stroke="#7178DE"/>
</svg>
