<svg width="64" height="56" fill="none" xmlns="http://www.w3.org/2000/svg"><g clip-path="url(#a)"><path d="M7.088 16.083c-.982-.775-1.964-.405-2.183.83l-.831 4.67c-.219 1.23-.578 3.245-.792 4.48l-.808 4.559c-.219 1.229.477 1.706 1.544 1.055l10.93-6.669c1.066-.651 1.139-1.819.156-2.593l-8.016-6.332Z" fill="#000"/><path d="M10.316 54.047c-1.229-.028-2.116-.377-2.65-1.039-.488-.606-.645-1.403-.465-2.369 0 0 .685-3.716 1.594-8.706l.73-4.076 3.7-20.607 1.913-10.89c.281-1.903 1.65-3.009 3.745-3.009h31.03c4.593 0 7.995 1.129 10.116 3.363a8.275 8.275 0 0 1 1.752 2.818c.718 1.93.825 4.26.32 6.921l-.54 3.424c-.297 1.583-.836 2.891-1.61 3.924-.747 1-1.538 1.79-2.358 2.358-.387.27-.791.51-1.207.73.59.252 1.145.55 1.662.892l.1.062c.124.078.253.163.366.253.965.701 1.835 1.728 2.56 3.025.18.32.303.64.393.881.437 1.241.516 2.745.235 4.486l-.932 4.872c-.724 4.087-2.514 7.264-5.31 9.425-2.779 2.167-6.483 3.262-11.014 3.262h-34.13ZM41.82 40.383c1.892 0 2.302-.881 2.459-1.83l.466-2.773c.09-.527.05-.92-.112-1.111-.186-.22-.674-.348-1.336-.348H27.174l-1.078 6.057h15.723v.005Zm.242-19.03c.74 0 1.325-.162 1.773-.499.416-.32.663-.746.775-1.342l.146-.999c.056-.325.107-.87-.112-1.123-.197-.23-.713-.364-1.415-.364H30.205l-.769 4.333h12.625v-.005Z" fill="#000"/><path d="M49.914 4.48c4.294 0 7.393 1.004 9.301 3.008a7.127 7.127 0 0 1 1.516 2.442c.64 1.718.741 3.823.27 6.315l-.545 3.458c-.258 1.387-.73 2.526-1.398 3.425-.673.898-1.375 1.61-2.1 2.11a10.656 10.656 0 0 1-2.795 1.387l-.151.696c1.325.286 2.453.763 3.413 1.403.129.084.264.163.387.258.876.64 1.64 1.544 2.285 2.695.129.224.224.46.314.713.376 1.055.438 2.357.185 3.924l-.926 4.844c-.68 3.828-2.307 6.747-4.895 8.751-2.588 2.01-6.029 3.01-10.317 3.01H10.316c-1.628-.034-2.268-.725-2.01-2.078 0 0 .686-3.716 1.6-8.712l.73-4.08 3.7-20.602L16.25 6.55c.207-1.387 1.083-2.083 2.638-2.083h31.026v.012ZM28.1 22.476h13.96c.982 0 1.801-.241 2.447-.724.64-.488 1.044-1.167 1.207-2.043l.151-1.033c.31-1.852-.566-2.773-2.632-2.773H29.267L28.1 22.476Zm-3.351 19.03h17.07c2.066 0 3.256-.926 3.57-2.767l.466-2.768c.309-1.847-.544-2.762-2.554-2.762h-17.07l-.326 1.853-1.156 6.444ZM49.914 2.234H18.877c-2.655 0-4.468 1.482-4.85 3.963l-1.909 10.868L8.42 37.661l-.73 4.08c-.915 4.986-1.594 8.702-1.594 8.702-.303 1.616.213 2.672.696 3.272.752.927 1.92 1.415 3.475 1.454h34.18c4.783 0 8.718-1.173 11.699-3.48 3.02-2.335 4.945-5.737 5.725-10.116l.927-4.827.005-.034.006-.034c.314-1.925.219-3.62-.286-5.035a6.084 6.084 0 0 0-.477-1.066c-.792-1.41-1.758-2.549-2.88-3.38a6.802 6.802 0 0 0-.421-.292l-.079-.05c-.022-.017-.045-.028-.062-.045.786-.606 1.539-1.392 2.246-2.34.87-1.163 1.482-2.628 1.807-4.351l.006-.034.006-.034.539-3.424c.538-2.851.41-5.366-.377-7.483a9.416 9.416 0 0 0-1.998-3.21c-2.33-2.454-6.006-3.7-10.918-3.7ZM31.148 18.143h12.08c.191 0 .331.011.438.028l-.017.134-.005.023v.017l-.146.993c-.073.37-.214.522-.354.63-.23.173-.595.263-1.083.263H30.777l.371-2.088Zm-3.037 17.306h15.184c.152 0 .27.006.36.017a7.69 7.69 0 0 0-.017.13l-.466 2.767c-.09.538-.151.898-1.353.898H27.432l.68-3.812Z" fill="#000"/><path d="M7.79 17.402c-.993-.758-1.987-.37-2.206.864l-.83 4.67a888.67 888.67 0 0 0-.792 4.48l-.808 4.558c-.22 1.23.482 1.718 1.56 1.078l11.345-6.72c1.078-.64 1.14-1.779.146-2.53l-8.415-6.4Z" stroke="#000" stroke-width="6.026"/><path d="M7.79 17.402c-.993-.758-1.987-.37-2.206.864l-.83 4.67a888.67 888.67 0 0 0-.792 4.48l-.808 4.558c-.22 1.23.482 1.718 1.56 1.078l11.345-6.72c1.078-.64 1.14-1.779.146-2.53l-8.415-6.4Z" fill="#000"/><path d="M55.275 22.998c.724-.505 1.425-1.212 2.1-2.11.667-.898 1.133-2.038 1.397-3.425l.544-3.457c.472-2.493.37-4.598-.27-6.316a7.043 7.043 0 0 0-1.515-2.441c-1.908-2.01-5.007-3.015-9.301-3.015H17.198c-1.555 0-2.43.696-2.638 2.083l-1.347 7.65-.724 4.06-.13.707 7.46 6.191c1.904 1.578 1.752 3.952-.336 5.271L9.132 34.764l-.185 1.05-.725 4.081c-.915 4.996-1.6 8.712-1.6 8.712-.258 1.347.388 2.038 2.01 2.077h34.136c4.294 0 7.73-1.005 10.317-3.014 2.594-2.004 4.222-4.923 4.901-8.752l.926-4.844c.253-1.566.191-2.869-.185-3.924a4.295 4.295 0 0 0-.314-.713c-.646-1.156-1.41-2.055-2.285-2.694-.118-.101-.258-.18-.387-.264-.96-.64-2.089-1.117-3.413-1.404l.151-.696c.988-.32 1.92-.78 2.796-1.38ZM44.177 33.726l-.472 2.767c-.308 1.847-1.498 2.773-3.564 2.773H23.07l1.15-6.455.326-1.853h17.07c2.015 0 2.869.92 2.56 2.768Zm.005-17.295-.151 1.032c-.157.876-.562 1.555-1.201 2.044-.646.483-1.465.724-2.448.724H26.416l1.173-6.579h13.96c2.072 0 2.948.926 2.633 2.779Z" stroke="#000" stroke-width="3.348"/><path d="M48.23 2.796c4.114 0 7.106.954 8.897 2.84a6.401 6.401 0 0 1 1.392 2.25c.607 1.634.69 3.655.242 6.035l-.54 3.442c-.246 1.29-.684 2.368-1.296 3.194-.64.853-1.302 1.52-1.97 1.987a10.131 10.131 0 0 1-2.65 1.308l-.309.1-.067.315-.151.696-.118.55.55.118c1.212.264 2.296.707 3.222 1.325l.112.067c.084.05.163.101.219.152l.017.017.017.01c.808.59 1.527 1.438 2.127 2.521.096.163.174.348.27.623.342.96.393 2.184.162 3.632l-.926 4.85c-.65 3.677-2.228 6.506-4.693 8.404-2.475 1.92-5.832 2.896-9.975 2.896H8.638c-.68-.017-1.15-.162-1.353-.415-.163-.202-.202-.539-.118-1 0 0 .685-3.715 1.6-8.717l.724-4.081.146-.808 10.15-6.433c1.161-.741 1.846-1.797 1.925-2.981.078-1.185-.466-2.319-1.527-3.2l-7.213-5.984.067-.387.724-4.059 1.347-7.668c.169-1.111.809-1.605 2.083-1.605H48.23v.006ZM25.742 20.791h14.634c1.106 0 2.044-.28 2.79-.842.758-.578 1.235-1.38 1.415-2.408l.151-1.022c.18-1.05.017-1.88-.482-2.47-.54-.64-1.449-.96-2.7-.96H27.117l-.084.46-1.173 6.58-.118.662Zm-3.346 19.036h17.739c2.958 0 3.873-1.763 4.12-3.24l.472-2.767c.174-1.055.011-1.891-.488-2.481-.528-.623-1.415-.943-2.628-.943H24.075l-.084.466-.326 1.852-1.15 6.456-.119.657ZM48.23 2.234H17.198c-1.555 0-2.43.696-2.638 2.083l-1.347 7.65-.724 4.06-.13.707 7.46 6.191c1.904 1.578 1.752 3.952-.336 5.271L9.132 34.764l-.185 1.05-.725 4.081c-.915 4.996-1.6 8.712-1.6 8.712-.258 1.347.388 2.038 2.01 2.077h34.136c4.294 0 7.73-1.005 10.317-3.014 2.594-2.004 4.222-4.923 4.901-8.752l.926-4.844c.253-1.566.191-2.869-.185-3.924a4.295 4.295 0 0 0-.314-.713c-.646-1.156-1.41-2.055-2.285-2.694-.118-.101-.258-.18-.387-.264-.96-.64-2.089-1.117-3.413-1.404l.151-.696c.988-.32 1.92-.78 2.796-1.38.724-.506 1.425-1.213 2.1-2.111.667-.898 1.133-2.038 1.397-3.425l.544-3.457c.472-2.493.37-4.598-.27-6.316a7.043 7.043 0 0 0-1.515-2.441c-1.908-2.01-5.007-3.015-9.301-3.015ZM26.416 20.231l1.173-6.579h13.96c2.072 0 2.948.926 2.633 2.779l-.151 1.032c-.157.876-.562 1.555-1.201 2.044-.646.483-1.465.724-2.448.724H26.416ZM23.07 39.266l1.15-6.455.327-1.853h17.07c2.015 0 2.869.92 2.56 2.768l-.472 2.767c-.308 1.847-1.498 2.773-3.564 2.773H23.07Z" stroke="#000" stroke-width="3.348"/><path d="M55.275 22.998c.724-.505 1.425-1.212 2.1-2.11.667-.898 1.133-2.038 1.397-3.425l.544-3.457c.472-2.493.37-4.598-.27-6.316a7.043 7.043 0 0 0-1.515-2.441c-1.908-2.01-5.007-3.015-9.301-3.015H17.198c-1.555 0-2.43.696-2.638 2.083l-1.347 7.65-.724 4.06-.13.707 7.46 6.191c1.904 1.578 1.752 3.952-.336 5.271L9.132 34.764l-.185 1.05-.725 4.081c-.915 4.996-1.6 8.712-1.6 8.712-.258 1.347.388 2.038 2.01 2.077h34.136c4.294 0 7.73-1.005 10.317-3.014 2.594-2.004 4.222-4.923 4.901-8.752l.926-4.844c.253-1.566.191-2.869-.185-3.924a4.295 4.295 0 0 0-.314-.713c-.646-1.156-1.41-2.055-2.285-2.694-.118-.101-.258-.18-.387-.264-.96-.64-2.089-1.117-3.413-1.404l.151-.696c.988-.32 1.92-.78 2.796-1.38ZM44.177 33.726l-.472 2.767c-.308 1.847-1.498 2.773-3.564 2.773H23.07l1.15-6.455.326-1.853h17.07c2.015 0 2.869.92 2.56 2.768Zm.005-17.295-.151 1.032c-.157.876-.562 1.555-1.201 2.044-.646.483-1.465.724-2.448.724H26.416l1.173-6.579h13.96c2.072 0 2.948.926 2.633 2.779Z" fill="#fff"/><path d="M7.088 16.644c-.982-.775-1.964-.404-2.183.83l-.831 4.671c-.219 1.23-.578 3.245-.792 4.48l-.808 4.558c-.219 1.23.477 1.706 1.544 1.055l10.93-6.669c1.066-.65 1.139-1.818.156-2.593l-8.016-6.332Z" fill="#fff"/></g><defs><clipPath id="a"><path fill="#fff" transform="translate(.588 .83)" d="M0 0h62.95v54.339H0z"/></clipPath></defs></svg>