<svg width="38" height="52" fill="none" xmlns="http://www.w3.org/2000/svg"><g clip-path="url(#a)"><path d="M23.898 24.015c-.049-.017-.057-.073-.032-.114l12.4-12.433v-1.326a.4.4 0 0 0-.399-.399H13.044V.012l-8.43 1.766v1.277h.473s2.066 0 2.066 2.059v4.63H.62a.236.236 0 0 0-.236.235v2.872h6.77v15.932c0 5.004 3.205 8.462 8.852 8.006 1.196-.098 2.302-.561 3.246-1.172.423-.268.676-.732.676-1.236v-1.563c-1.84 1.213-3.377 1.156-3.377 1.156-3.572 0-3.507-4.524-3.507-4.524v-16.6h16.428l-11.83 11.92c-.025 1.563-.05 2.791-.05 2.816 0 .032.025.073.057.081 10.846 1.839 13.767 8.836 13.767 10.895 0 0 1.164 9.926-8.763 10.61 0 0-6.5.293-7.64-2.32-.04-.089-.008-.194.082-.235 1.082-.496 1.814-1.457 1.814-2.758 0-1.937-1.172-3.507-3.629-3.507-2.002 0-3.629 1.57-3.629 3.507 0 0-.927 8.356 13.002 8.12C38.601 51.71 37.6 38.35 37.6 38.35c-.529-9.56-12.555-13.897-13.702-14.336Z" fill="#fff"/></g><defs><clipPath id="a"><path fill="#fff" transform="translate(.384 .012)" d="M0 0h37.233v51.976H0z"/></clipPath></defs></svg>