<svg width="144" height="144" fill="none" xmlns="http://www.w3.org/2000/svg"><path d="M143.063 72c0-39.154-31.847-71-71-71-39.154 0-71 31.846-71 71 0 39.153 31.846 71 71 71 39.153 0 71-31.847 71-71Z" stroke="#292929" stroke-opacity=".5" stroke-width="2"/><path d="M72.063 9.67c34.371 0 62.329 27.959 62.329 62.33 0 34.371-27.958 62.329-62.33 62.329-34.37 0-62.328-27.958-62.328-62.329S37.692 9.67 72.063 9.67Z" fill="#242424" fill-opacity=".5"/><path d="M72.063 9.67c34.433 0 62.441 27.959 62.441 62.33 0 34.371-28.008 62.329-62.441 62.329C37.63 134.329 9.62 106.371 9.62 72S37.63 9.67 72.063 9.67Zm0-7.544c-38.658 0-70 31.286-70 69.874 0 38.588 31.342 69.874 70 69.874 38.657 0 70-31.286 70-69.874.008-38.588-31.334-69.874-70-69.874Z" fill="#373737" fill-opacity=".5"/><path d="M72.067 141.966c-38.58 0-69.966-31.386-69.966-69.966S33.488 2.034 72.067 2.034a3.578 3.578 0 0 1 3.58 3.58 3.578 3.578 0 0 1-3.58 3.579C37.437 9.193 9.27 37.36 9.27 71.992s28.167 62.798 62.798 62.798 62.799-28.167 62.799-62.798a3.578 3.578 0 0 1 3.58-3.58 3.578 3.578 0 0 1 3.579 3.58c.009 38.588-31.378 69.974-69.958 69.974Z" fill="url(#a)"/><defs><radialGradient id="a" cx="0" cy="0" r="1" gradientUnits="userSpaceOnUse" gradientTransform="matrix(93.05391 67.48512 -67.48101 93.04825 41.083 31.794)"><stop offset=".387" stop-color="#FFFDFD"/><stop offset=".853" stop-color="#FFFDFD" stop-opacity="0"/></radialGradient></defs></svg>