<svg width="78" height="76" fill="none" xmlns="http://www.w3.org/2000/svg"><g clip-path="url(#a)"><path d="M76.99 41.292c-8.895-3.6-8.892-5.5.362-10.628-3.431-.508-5.772-1.239-7.127-2.272-3.102-3.763 3.288-10.867 3.288-10.867s-.054.046-.151.12c.073-.084.14-.166.216-.25-1.498.331-2.76.494-3.807.494-4.935 0-7.831-.858-5.737-6.916.324-.883.675-1.812 1.045-2.782.43-1.068.905-2.193 1.42-3.373-5.577 3.796-8.344 3.595-12.5 3.595-3.693 0-6.35-1.989-7.127-6.834-2.659 4.1-4.864 6.171-7.024 6.171-2.29 0-4.528-2.329-7.195-7.027-.23 1.785-.64 2.785-.788 3.285-.794 2.234-1.941 3.234-3.456 3.234-2.546 0-6.13-2.807-10.818-7.24.014.05.022.096.035.145l-.072-.114s1.746 5.891-.651 9.957c-.961 1.024-2.384 1.527-4.239 1.527-2.297 0-5.426-.813-8.976-2.288 2.095 2.878 3.92 5.475 5.23 7.73 1.892 3.67 2.85 7.553-.425 8.969-.837.29-1.892.478-3.199.557 7.044 6.886 7.127 9.834-1.563 13.93 10.002 2.858 2.335 8.962-2.303 13.508 11.474-.06 12.705 5.468 8.842 13.867-.524.821-1.11 2.11-1.11 2.11 6.037-3.463 10.999-4.61 15.094-4.607 3.278 0 5.019 1.595 5.554 5.663 2.035-2.508 4.732-3.986 6.392-3.93 2.052.069 3.386.773 4.48 2.012 1.23 1.807 2.475 4.198 3.865 6.965 1.455-6.085 4.916-9.327 8.566-8.783 3.777.562 7.538 2.796 7.538 2.796-.772-2.962-.691-5.112.105-6.57.929-1.349 2.708-2.243 5.894-2.058 2.265.13 10.558 1.737 10.558 1.737-4.181-5.022-6.957-9.963-7.027-13.982.243-3.525 2.246-6.408 6.811-7.85Z" fill="#000"/><path d="M41 39.393c.335-.13.705-.136 1.11-.041a1.627 1.627 0 0 1-.275-1.114l-1.026.18.192.975Zm-6.133-2.636c-.826.244-.877.244-1.623-.017.492.487.627 1.011.44 1.642.446-.318.913-.386 1.431-.288-.272-.544-.272-.544-.248-1.337Zm1.973-1.128c-.056-.231-.137-.451-.153-.671-.017-.218.035-.438.056-.66-.505.328-1.058.366-1.614.119.119.212.28.43.356.669.079.241.07.508.1.755.513-.24.597-.253 1.255-.212Zm2.066 5.226c.159.345.164.706.067 1.106.424-.261.864-.302 1.36-.19-.248-.36-.345-.71-.329-1.055-.372.05-.731.093-1.098.139Zm3.758-3.71c.472-.209.963-.203 1.503.025-.477-.56-.561-1.114-.3-1.712-.423.375-.93.497-1.498.38.087.226.195.43.24.642.05.217.041.443.055.665Zm-6.48 1.74c.208.345.265.733.19 1.16a1.734 1.734 0 0 1 1.063-.24c-.065-.336-.13-.66-.186-.956-.346.011-.708.022-1.067.036Z" fill="#ADADAD"/><path d="M68.735 50.926c-1.115-5.16 2.994-8.256 5.17-9.56-4.174-.663-4.795-3.438-4.87-4.737-.076-1.31 1.077-3.47 4.135-5.076.214-.112.438-.229.673-.354-3.418-.864-5.3-2.135-5.975-3.98-.756-2.066.092-4.585 2.816-8.17-.316.022-.618.033-.91.033-2.249 0-5.872-.432-6.752-1.793-1.525-2.35-1.306-3.867.904-9.416-3.933 2.334-15.723 4.315-17.55-3.492-2.36 3.136-4.422 4.56-6.526 4.56-2.248 0-4.314-1.547-6.668-5.08-.683 2.185-2.022 4.571-4.767 4.571-2.184 0-4.82-1.48-8.985-5.141.37 3.158-.068 5.506-1.32 7.122-1.177 1.522-3.008 2.291-5.44 2.291-1.577 0-3.448-.331-5.586-.992 3.807 5.454 6.226 9.884 4.825 12.887-.613 1.31-1.86 2.198-3.788 2.68 1.077.977 1.922 1.893 2.551 2.768l.09-.361.072-.003c.022.087.078.185.06.258-.02.071-.1.125-.162.185 1.042 1.478 1.457 2.843 1.309 4.177-.235 2.12-1.82 3.935-5.178 5.843 2.305.92 3.528 2.032 3.866 3.47.607 2.579-1.82 5.223-5.826 8.834 10.712 1.272 10.3 7.465 7.745 13.357 6.92-3.938 16.539-4.479 18.312.79 1.672-1.597 3.283-2.38 4.89-2.38 3.258 0 5.83 3.06 8.633 8.169.592-1.9 1.34-3.449 2.241-4.623 1.474-1.924 3.348-2.897 5.57-2.897 1.981 0 3.936.628 6.39 2.231-.176-2.152.248-3.788 1.228-5.065 1.223-1.595 3.547-2.274 6.401-2.274 2.1 0 4.635.418 7.68 1.274-2.23-1.861-4.859-7.69-5.258-10.106ZM65.98 29.107c.024.006.046.008.07.014l.165.394c-.016.013-.03.03-.046.043-.076-.06-.186-.109-.216-.182-.032-.076.014-.177.027-.269Zm-.904 6.182a.587.587 0 0 1 .645.443.494.494 0 0 1-.43.59.587.587 0 0 1-.655-.451.497.497 0 0 1 .44-.582Zm-50.353 4.014c.39-.046.775.223.845.595a.657.657 0 0 1-.583.77c-.389.045-.775-.224-.845-.596a.658.658 0 0 1 .583-.769Zm-1.336-3.386c-.07-.356.17-.666.543-.71a.694.694 0 0 1 .769.547c.07.356-.17.666-.543.71a.694.694 0 0 1-.769-.547Zm1.655-2.345c-.076-.408.208-.77.64-.818a.817.817 0 0 1 .89.639c.079.41-.196.771-.628.823a.808.808 0 0 1-.902-.644Zm1.423 3.266c.47-.06.907.248.993.696.087.448-.213.845-.68.905a.89.89 0 0 1-.994-.696c-.089-.448.21-.848.68-.905Zm4.308-.78c.589-.065 1.161.34 1.267.897a.992.992 0 0 1-.886 1.163c-.588.065-1.16-.34-1.266-.897-.11-.562.297-1.095.885-1.163ZM19.15 33.07c-.105-.522.262-1.016.81-1.087.545-.07 1.088.304 1.193.826.106.522-.262 1.017-.81 1.087-.545.074-1.087-.301-1.193-.826Zm34.284 4.22c.13.677-.332 1.288-1.04 1.38-.712.093-1.395-.382-1.528-1.067-.13-.677.332-1.288 1.04-1.38.715-.093 1.398.385 1.528 1.067Zm.31-3.334c.65-.073 1.283.375 1.399.995.118.625-.33 1.209-.986 1.282-.65.074-1.282-.375-1.398-.994-.116-.625.33-1.21.985-1.283Zm-6.45 1.24c-.793.097-1.538-.43-1.681-1.191-.14-.75.375-1.421 1.166-1.516.786-.096 1.525.429 1.671 1.182.143.75-.37 1.426-1.155 1.524Zm2.063-.86c.75-.092 1.49.43 1.623 1.145.13.714-.373 1.375-1.118 1.467-.75.092-1.49-.43-1.622-1.144-.13-.715.375-1.375 1.117-1.467Zm-1.811 2.275c.799-.098 1.566.446 1.711 1.212.146.76-.386 1.46-1.188 1.557-.799.098-1.565-.445-1.711-1.212-.146-.76.389-1.46 1.188-1.557Zm.823 4.19c.772-.09 1.523.446 1.658 1.18.135.736-.389 1.421-1.158 1.508-.773.09-1.523-.446-1.658-1.18-.132-.736.391-1.42 1.158-1.508Zm.659-.866c-.119-.718.38-1.351 1.126-1.433.755-.081 1.466.43 1.59 1.15.124.723-.38 1.364-1.134 1.443-.759.073-1.463-.443-1.582-1.16Zm2.586-5.433c-.691.09-1.374-.386-1.504-1.049-.13-.663.34-1.28 1.032-1.364.685-.084 1.358.386 1.493 1.04.135.661-.327 1.284-1.02 1.373Zm-2.58-1.76c-.727.089-1.413-.4-1.545-1.101-.127-.685.351-1.307 1.072-1.394.726-.09 1.412.4 1.544 1.1.13.685-.35 1.307-1.072 1.394Zm-2.566-1.783c-.731.095-1.452-.413-1.579-1.112-.127-.698.362-1.34 1.088-1.424.73-.087 1.434.41 1.569 1.104.135.695-.351 1.34-1.078 1.432Zm-.572.907c.143.753-.389 1.457-1.174 1.555-.788.097-1.56-.44-1.71-1.193-.15-.758.39-1.47 1.183-1.563.789-.095 1.558.448 1.701 1.201Zm-3.755-.263c-.791.098-1.544-.427-1.69-1.182-.149-.756.367-1.44 1.158-1.541.791-.098 1.544.426 1.69 1.182.149.755-.367 1.44-1.158 1.54Zm-2.6-1.846c-.764.093-1.485-.423-1.625-1.157-.138-.728.367-1.386 1.136-1.478.764-.093 1.485.424 1.626 1.157.14.729-.367 1.386-1.137 1.479Zm-.537.857c.14.774-.394 1.478-1.199 1.578-.813.1-1.6-.456-1.744-1.228-.14-.774.394-1.478 1.199-1.579.812-.1 1.603.457 1.744 1.229Zm-3.815-.346c-.759.09-1.485-.432-1.62-1.163-.132-.717.376-1.375 1.132-1.467.76-.093 1.487.424 1.627 1.155.135.725-.372 1.386-1.139 1.475Zm-.58.854c.148.755-.367 1.44-1.158 1.54-.792.101-1.545-.426-1.69-1.182-.149-.755.367-1.44 1.158-1.54.788-.101 1.541.424 1.69 1.182Zm-4.414 7.641c.799-.1 1.568.44 1.717 1.204.148.764-.381 1.465-1.18 1.563-.8.1-1.569-.44-1.717-1.204-.149-.764.38-1.465 1.18-1.563Zm-2.057.886c-.746.09-1.474-.418-1.618-1.13-.143-.715.365-1.392 1.115-1.481.745-.09 1.474.418 1.617 1.13.144.715-.364 1.392-1.114 1.481Zm1.792-2.302c-.794.104-1.544-.415-1.693-1.173-.145-.75.362-1.43 1.148-1.53.785-.101 1.533.415 1.682 1.165.148.753-.354 1.435-1.137 1.538Zm.046-3.516c-.149-.758.391-1.47 1.185-1.563.791-.092 1.558.454 1.701 1.207.143.753-.392 1.454-1.177 1.552-.791.095-1.563-.443-1.709-1.196Zm.867-3.076c-.73.087-1.415-.394-1.55-1.093-.135-.703.345-1.331 1.085-1.418.73-.084 1.412.405 1.542 1.103.13.696-.346 1.318-1.077 1.408Zm-.675.93c.132.695-.354 1.336-1.08 1.429-.732.092-1.453-.416-1.577-1.112-.124-.698.365-1.34 1.09-1.421.73-.087 1.434.41 1.567 1.103Zm-1.788 2.35c.136.693-.342 1.32-1.074 1.41-.718.087-1.404-.4-1.536-1.087-.135-.693.343-1.32 1.074-1.41.716-.087 1.401.397 1.537 1.087Zm-1.808 2.35c.13.663-.34 1.28-1.034 1.365-.694.084-1.372-.397-1.496-1.058-.121-.657.34-1.266 1.026-1.355.694-.087 1.374.385 1.504 1.049Zm-1.86-2.856c-.651.08-1.288-.372-1.404-.989-.116-.62.324-1.2.972-1.277.65-.079 1.287.372 1.404.99.116.619-.325 1.198-.972 1.276Zm-.845 1.074c.116.603-.295 1.147-.926 1.225-.632.08-1.229-.34-1.348-.943-.116-.603.295-1.146.926-1.225.635-.082 1.232.337 1.348.943ZM21.568 40.2c.607-.079 1.183.32 1.296.902.113.579-.28 1.103-.888 1.177-.608.076-1.18-.33-1.29-.91-.109-.574.283-1.093.882-1.17Zm.783-1.166c-.119-.625.327-1.21.983-1.283.65-.073 1.282.375 1.398.995.119.625-.326 1.21-.982 1.283-.651.073-1.283-.375-1.399-.995Zm1.755 2.88c.656-.075 1.288.378 1.396.995.108.623-.327 1.185-.97 1.261-.656.076-1.287-.378-1.395-.995-.108-.622.326-1.184.969-1.26Zm.731-1.056c-.137-.683.332-1.305 1.048-1.392.71-.087 1.38.383 1.517 1.06.138.682-.332 1.304-1.047 1.391-.708.084-1.38-.383-1.518-1.06Zm1.836 2.796c.691-.082 1.342.38 1.469 1.038.124.66-.324 1.253-1.015 1.34-.691.087-1.345-.37-1.474-1.03-.133-.663.324-1.267 1.02-1.348Zm.632-1.011c-.124-.723.38-1.364 1.137-1.44.75-.077 1.45.429 1.579 1.14.13.724-.373 1.368-1.126 1.45-.758.08-1.468-.433-1.59-1.15Zm1.933 2.777c.71-.087 1.382.383 1.517 1.06.138.682-.332 1.304-1.047 1.391-.71.087-1.382-.383-1.517-1.06-.136-.682.334-1.304 1.047-1.39Zm.597-.94c-.149-.731.364-1.424 1.133-1.525.767-.1 1.526.424 1.674 1.158.149.731-.364 1.424-1.134 1.525-.766.103-1.525-.422-1.673-1.158Zm3.728.266c.783-.095 1.525.43 1.671 1.182.143.748-.373 1.424-1.158 1.522-.783.095-1.526-.43-1.671-1.182-.146-.747.37-1.424 1.158-1.522Zm2.578 1.82c.772-.092 1.507.427 1.647 1.161.14.737-.364 1.405-1.131 1.503-.775.098-1.523-.427-1.658-1.166-.135-.739.375-1.405 1.142-1.497Zm1.17.131c-.59-.405-.824-1.144-.56-1.752.305-.702.953-.935 2.006-.71-.389-.445-.524-.93-.383-1.5-.494.288-.991.345-1.569.16.262.395.384.778.3 1.19-.081.411-.31.726-.683.938-.562.318-1.301.242-1.82-.184-.531-.438-.715-1.139-.45-1.723.291-.65.888-.897 1.83-.775-.095-.22-.221-.44-.278-.671-.054-.228-.035-.47-.049-.712a1.805 1.805 0 0 1-1.495.068c.264.35.41.723.367 1.136-.044.41-.24.739-.586.978-.548.375-1.307.34-1.863-.087-.543-.416-.748-1.122-.494-1.712.297-.685.894-.913 1.982-.739-.416-.497-.535-1.027-.332-1.639-.37.234-.74.34-1.161.272a1.629 1.629 0 0 1-1.029-.57c-.437-.514-.475-1.22-.102-1.74.415-.576 1.071-.714 1.981-.418-.602-.84-.659-1.449-.189-2.02.346-.418 1.037-.75 1.982-.345-.332-.345-.508-.703-.508-1.116a1.315 1.315 0 0 1 .47-1.038c.483-.424 1.226-.481 1.82-.147.66.372.92 1.005.745 1.785.25-.084.507-.209.785-.247.273-.038.565.016.832.03-.446-.802-.386-1.476.191-1.954.521-.432 1.313-.454 1.906-.06.508.337.932 1.052.557 1.91.688-.524 1.417-.595 2.135-.04.656.508.756 1.163.44 1.902.324-.285.664-.446 1.077-.446.416 0 .789.134 1.104.408.548.473.694 1.22.357 1.807-.367.636-1.059.84-1.99.563.456.524.575 1.078.343 1.725.38-.266.767-.386 1.204-.32.437.062.797.266 1.066.608.427.541.43 1.256.008 1.764-.41.492-1.147.647-1.781.375-.743-.318-1.013-.9-.891-1.897-.705.397-.872.348-1.488.296.297.446.365.91.21 1.43.454-.267.905-.337 1.394-.182.335.106.61.301.818.576.418.551.408 1.282-.024 1.78-.435.5-1.196.644-1.842.342-.696-.323-1.012-.962-.874-1.812-.462.29-.948.386-1.526.225.335.522.384 1.027.162 1.55.34-.262.724-.398 1.172-.351.445.043.815.239 1.099.578.456.55.456 1.318.003 1.816-.473.516-1.267.62-1.915.25-.54-.307-1.004-1.02-.67-1.88-.534.423-1.136.507-1.821.236.537.828.51 1.519-.06 2.019-.515.453-1.32.48-1.914.07Zm3.171-.706c.794-.093 1.542.437 1.682 1.193.14.758-.38 1.437-1.172 1.532-.793.093-1.541-.437-1.681-1.193-.14-.76.38-1.44 1.171-1.532Zm2.6 1.916c.734-.087 1.444.413 1.58 1.117.134.7-.354 1.347-1.091 1.44-.743.092-1.458-.413-1.59-1.125-.13-.699.364-1.343 1.101-1.432Zm.608-.927c-.12-.745.402-1.402 1.169-1.476.78-.076 1.503.452 1.627 1.185.125.742-.391 1.405-1.158 1.484-.785.081-1.522-.454-1.639-1.193Zm1.752-2.31c-.146-.747.364-1.43 1.15-1.527.783-.098 1.53.424 1.676 1.171.146.747-.364 1.43-1.15 1.527-.783.098-1.53-.424-1.676-1.17Zm3.736.383c.713-.095 1.415.389 1.552 1.071.138.682-.34 1.32-1.052 1.41-.713.09-1.412-.4-1.545-1.078-.132-.677.34-1.31 1.045-1.403Zm.726-.954c-.127-.679.351-1.307 1.056-1.388.71-.084 1.401.402 1.525 1.076.127.68-.35 1.307-1.055 1.389-.708.084-1.399-.403-1.526-1.077Zm1.812-2.356c-.124-.66.33-1.252 1.018-1.337.69-.084 1.344.375 1.47 1.033.13.66-.318 1.255-1.006 1.345-.697.09-1.358-.375-1.482-1.04Zm1.828-2.342c-.125-.617.313-1.201.96-1.286.649-.084 1.288.362 1.41.981.124.617-.313 1.202-.961 1.286-.648.081-1.288-.361-1.41-.981Zm2.74-3.538c.607-.08 1.182.32 1.298.9.114.578-.28 1.102-.888 1.179-.6.073-1.172-.324-1.288-.892-.116-.584.273-1.111.878-1.187Zm-.945 6.462c.615-.074 1.206.342 1.323.932.116.595-.297 1.139-.921 1.215-.615.073-1.207-.343-1.323-.932-.116-.596.297-1.142.92-1.215Zm.907-1.15c-.108-.568.28-1.073.877-1.14.589-.069 1.137.322 1.245.885.108.568-.28 1.073-.878 1.141-.59.068-1.139-.323-1.244-.886Zm1.85-2.353c-.1-.514.258-.986.796-1.054.537-.068 1.058.299 1.158.812.1.514-.26.987-.797 1.055-.54.068-1.058-.3-1.158-.813Zm1.878-2.361a.795.795 0 0 1 .702-.932c.47-.06.937.268 1.026.717a.795.795 0 0 1-.702.932c-.472.06-.94-.27-1.026-.717Zm.243-3.462c-.47.06-.907-.248-.993-.694-.09-.448.21-.845.68-.904.47-.06.907.247.993.693.09.448-.21.847-.68.904Zm-.945 1.426c.1.514-.256.99-.794 1.057-.537.068-1.058-.296-1.158-.81-.1-.513.257-.989.794-1.057.537-.068 1.058.297 1.158.81Zm-1.609-3.133c-.507.068-1.012-.28-1.115-.766-.102-.49.249-.96.764-1.022.508-.063 1.013.29 1.107.777.095.484-.248.943-.756 1.01Zm-.87 1.32c.109.56-.283 1.082-.868 1.161-.589.079-1.177-.329-1.285-.894-.108-.56.283-1.082.869-1.16.586-.08 1.177.331 1.285.894Zm-1.692-3.057c-.542.076-1.088-.299-1.196-.823-.108-.519.257-1.016.805-1.09.542-.076 1.088.3 1.196.824.108.519-.257 1.013-.805 1.09Zm-.826 1.245c.119.603-.289 1.15-.92 1.228-.632.082-1.232-.337-1.35-.94-.12-.603.288-1.15.92-1.228.632-.079 1.231.337 1.35.94Zm-1.768-3.006c-.578.063-1.14-.345-1.229-.89-.089-.547.303-1.047.87-1.107.577-.062 1.139.345 1.228.892a.964.964 0 0 1-.87 1.105Zm-.759 1.204c.119.62-.321 1.201-.966 1.28-.648.08-1.288-.37-1.407-.986-.119-.62.321-1.201.967-1.28.65-.079 1.287.367 1.406.986Zm-1.814-2.992c-.589.071-1.137-.323-1.242-.888-.105-.56.28-1.06.872-1.13.589-.071 1.137.323 1.242.888.105.56-.28 1.06-.872 1.13Zm-.753 1.19c.124.64-.316 1.213-.991 1.291-.659.077-1.285-.372-1.404-1.008-.119-.63.319-1.2.983-1.282.661-.076 1.29.367 1.412 1ZM47.37 24.2c-.585.076-1.144-.315-1.252-.875-.105-.551.273-1.057.85-1.13.587-.076 1.145.315 1.253.875.108.551-.272 1.057-.85 1.13Zm-.771 1.212c.11.62-.332 1.196-.98 1.272-.656.079-1.296-.38-1.407-1.005-.11-.62.332-1.196.98-1.272.656-.079 1.296.378 1.407 1.005Zm-1.647 2.324c.132.698-.34 1.32-1.072 1.41-.737.093-1.428-.4-1.557-1.106-.127-.696.35-1.318 1.082-1.405.732-.084 1.415.402 1.547 1.1ZM43.03 24.85c-.632.073-1.248-.364-1.358-.968-.114-.603.313-1.163.945-1.242.64-.078 1.26.365 1.368.976.108.603-.323 1.16-.955 1.234Zm-.694 1.095c.127.677-.34 1.28-1.053 1.364-.702.082-1.363-.389-1.493-1.06-.132-.676.33-1.285 1.042-1.372.71-.087 1.374.386 1.504 1.068Zm-1.884-2.962c-.608.076-1.18-.326-1.29-.908-.112-.579.285-1.098.895-1.171.597-.07 1.167.329 1.28.902.114.576-.278 1.1-.885 1.177Zm-.762 1.168c.119.642-.321 1.215-.993 1.294-.672.079-1.301-.37-1.42-1.011-.12-.641.321-1.215.993-1.294.672-.081 1.301.367 1.42 1.011Zm-1.67 2.316c.14.69-.338 1.328-1.062 1.418-.715.09-1.41-.397-1.541-1.079-.135-.684.34-1.315 1.053-1.407.715-.095 1.412.386 1.55 1.068Zm-1.901-2.908c-.61.079-1.213-.337-1.331-.921-.12-.59.297-1.144.915-1.218.613-.073 1.21.348 1.323.93.113.584-.297 1.13-.907 1.209Zm-.78 1.095c.123.641-.311 1.218-.983 1.302-.673.084-1.304-.359-1.428-1.003-.125-.641.31-1.217.982-1.302.672-.081 1.304.362 1.428 1.003Zm-1.699 2.34c.133.677-.33 1.285-1.042 1.372-.71.087-1.374-.386-1.504-1.068-.127-.677.34-1.28 1.053-1.364.702-.081 1.364.389 1.493 1.06Zm-1.89-2.951c-.604.073-1.177-.335-1.285-.916-.108-.57.287-1.09.886-1.163.607-.076 1.18.326 1.293.905.113.579-.284 1.1-.894 1.174Zm-.804 1.163c.119.608-.313 1.176-.953 1.25-.632.073-1.247-.364-1.358-.97-.113-.604.313-1.163.945-1.24.632-.076 1.247.356 1.366.96Zm-1.728 2.353c.116.628-.335 1.21-.99 1.28-.651.07-1.28-.38-1.396-1-.116-.628.334-1.21.99-1.28.651-.07 1.283.38 1.396 1Zm-1.76 2.343c.121.638-.319 1.212-.994 1.288-.658.076-1.285-.375-1.404-1.011-.118-.63.322-1.201.989-1.28.658-.076 1.287.37 1.409 1.003Zm-1.822-3.003c-.576.068-1.134-.33-1.237-.878-.102-.549.286-1.057.861-1.128.575-.068 1.134.329 1.237.878.102.552-.286 1.06-.861 1.128Zm-.902 1.206c.113.563-.262 1.071-.848 1.147-.588.076-1.145-.304-1.258-.867-.113-.562.262-1.07.848-1.147.591-.076 1.147.308 1.258.867Zm-1.774 2.354c.11.546-.28 1.065-.853 1.133-.567.068-1.123-.32-1.234-.862-.11-.546.281-1.065.853-1.133.567-.068 1.123.32 1.234.862Zm-1.695-3.155c-.494.057-.978-.291-1.058-.759a.826.826 0 0 1 .731-.956c.489-.063.977.28 1.067.747.086.468-.252.91-.74.968Zm-1.048 1.377c.092.47-.224.889-.718.949a.935.935 0 0 1-1.04-.737c-.088-.47.233-.886.73-.943.486-.051.936.267 1.028.731Zm-.893 6.5c.089.487-.262.944-.77 1.003-.51.06-1.012-.293-1.104-.777a.862.862 0 0 1 .775-1.01c.513-.058 1.01.3 1.099.785Zm-1.59-3.247c-.465.06-.91-.25-.994-.693-.084-.437.216-.837.672-.896.465-.06.91.25.994.692.083.438-.216.837-.672.897Zm-.465 9.028c.47-.06.937.266 1.026.714.09.449-.23.876-.702.935-.47.06-.937-.266-1.026-.715a.799.799 0 0 1 .702-.934Zm.945-1.419c-.094-.516.265-.978.813-1.04.548-.066 1.06.304 1.155.834.095.516-.264.978-.813 1.04a1.047 1.047 0 0 1-1.155-.834Zm1.585 3.12c.529-.063 1.047.302 1.147.804.103.511-.262.992-.796 1.055-.53.062-1.048-.302-1.148-.805-.102-.51.262-.992.797-1.054Zm.831 4.206c.505-.056.975.278 1.067.764.094.49-.24.921-.756.981-.505.057-.975-.277-1.067-.763-.094-.49.24-.922.756-.982Zm.867-1.342c-.11-.562.267-1.065.856-1.141.588-.074 1.142.31 1.252.872.111.563-.267 1.065-.855 1.141-.589.076-1.142-.31-1.253-.872Zm1.682 3.082c.537-.068 1.06.293 1.16.807.103.513-.253.989-.79 1.057-.538.068-1.061-.294-1.161-.807-.103-.514.254-.99.79-1.057Zm.829-1.27c-.12-.595.291-1.14.918-1.217.615-.076 1.209.34 1.325.927.119.595-.291 1.141-.918 1.217-.613.076-1.21-.34-1.325-.926Zm1.744 3.036c.556-.07 1.098.304 1.204.837.105.533-.265 1.025-.821 1.098-.556.07-1.099-.304-1.204-.837-.105-.533.262-1.027.82-1.098Zm.793-1.25c-.11-.603.314-1.158.948-1.236.64-.08 1.255.353 1.374.967.116.612-.31 1.171-.956 1.247-.64.076-1.25-.364-1.366-.978Zm1.782 3.044c.57-.074 1.104.299 1.212.842.108.544-.256 1.033-.826 1.106-.57.074-1.104-.299-1.212-.842-.108-.547.257-1.033.826-1.106Zm.791-1.234c-.119-.625.308-1.18.967-1.253.645-.073 1.25.359 1.366.976.118.625-.308 1.18-.967 1.253-.645.073-1.247-.36-1.366-.976Zm1.634-2.323c-.136-.683.345-1.319 1.06-1.408.708-.087 1.399.394 1.537 1.068.137.682-.335 1.32-1.05 1.413-.713.095-1.412-.392-1.547-1.073Zm1.908 2.88c.632-.073 1.247.364 1.358.967.114.604-.313 1.163-.945 1.24-.64.078-1.26-.365-1.368-.976-.108-.603.323-1.16.955-1.231Zm.689-1.098c-.125-.676.343-1.282 1.053-1.364.71-.084 1.374.388 1.503 1.068.13.677-.332 1.285-1.042 1.372-.715.087-1.387-.391-1.514-1.076Zm1.914 2.94c.62-.054 1.198.37 1.29.946.095.59-.321 1.117-.926 1.177-.623.062-1.215-.373-1.301-.954a1.02 1.02 0 0 1 .937-1.169Zm.712-1.13c-.126-.65.316-1.245.997-1.332.68-.087 1.336.364 1.466 1.011.132.658-.316 1.256-1.002 1.343-.683.084-1.334-.373-1.46-1.022Zm1.658-2.34c-.135-.7.356-1.348 1.09-1.44.735-.092 1.448.405 1.588 1.106.138.704-.345 1.353-1.08 1.448-.745.096-1.463-.404-1.598-1.114Zm1.944 2.875c.642-.078 1.25.354 1.369.968.118.622-.308 1.176-.964 1.252-.643.074-1.247-.358-1.363-.978-.114-.611.31-1.163.958-1.242Zm.71-1.084c-.124-.655.335-1.269 1.02-1.359.691-.092 1.374.38 1.507 1.044.132.66-.335 1.282-1.026 1.37-.697.084-1.377-.392-1.501-1.055Zm1.873 2.976c.589-.074 1.159.323 1.27.886.11.562-.279 1.081-.87 1.154-.589.074-1.158-.323-1.269-.885-.108-.563.281-1.082.87-1.155Zm.813-1.16c-.113-.612.316-1.166.964-1.243.632-.073 1.24.362 1.358.968.119.611-.308 1.171-.953 1.247-.64.079-1.253-.358-1.369-.973Zm1.693-2.335c-.124-.65.324-1.24 1.007-1.323.68-.085 1.33.372 1.458 1.021.13.658-.324 1.25-1.013 1.335-.677.078-1.325-.38-1.452-1.033Zm1.722-2.34c-.13-.676.33-1.285 1.04-1.375.71-.09 1.38.378 1.514 1.055.135.684-.326 1.298-1.045 1.386-.712.084-1.38-.386-1.509-1.066Zm1.887 2.935c.61-.073 1.196.34 1.31.921.113.58-.29 1.117-.897 1.196-.604.079-1.196-.329-1.317-.91-.122-.582.291-1.133.904-1.207Zm.813-1.15c-.116-.608.319-1.176.958-1.247.632-.07 1.245.37 1.356.973.11.603-.319 1.163-.953 1.237-.632.076-1.248-.36-1.361-.962Zm1.752-2.35c-.116-.617.302-1.168.95-1.25.654-.082 1.267.35 1.383.976.116.616-.303 1.168-.95 1.25-.651.081-1.264-.351-1.383-.976Zm1.771-2.359c-.11-.603.319-1.155.953-1.233.64-.08 1.253.358 1.369.972.113.612-.316 1.169-.961 1.242-.637.076-1.248-.364-1.36-.98Zm1.78 3.05c.569-.074 1.106.296 1.214.839.11.546-.254 1.035-.82 1.109-.57.073-1.108-.297-1.215-.84-.111-.546.25-1.035.82-1.109Zm.947-1.254c-.1-.532.272-1.021.831-1.09.556-.067 1.096.316 1.196.849.1.532-.272 1.021-.831 1.09-.56.065-1.096-.316-1.196-.849Zm1.8-2.35c-.1-.514.26-.987.797-1.054.537-.066 1.058.298 1.158.812.1.514-.26.986-.796 1.054-.538.068-1.059-.296-1.159-.812Zm1.83-2.367c-.088-.481.241-.91.749-.973a.972.972 0 0 1 1.08.77c.089.48-.24.91-.748.972a.968.968 0 0 1-1.08-.77Zm2.52-3.24c.45-.06.899.25.988.683.086.43-.216.84-.67.9-.45.059-.899-.25-.988-.683a.767.767 0 0 1 .67-.9Zm.829 4.232c.41-.054.81.223.888.617.078.391-.2.755-.61.804-.413.049-.81-.234-.88-.625-.07-.389.197-.742.602-.796Zm.383-5.704a.66.66 0 0 1 .588-.767c.392-.043.775.232.843.601a.66.66 0 0 1-.589.766c-.391.041-.777-.23-.842-.6Zm1.406 3.448c.351-.043.705.204.767.538a.598.598 0 0 1-.534.693c-.354.038-.702-.214-.759-.549a.596.596 0 0 1 .526-.682Zm.208-10.52a.546.546 0 0 1 .597.425c.051.274-.14.519-.43.549a.545.545 0 0 1-.588-.432.464.464 0 0 1 .421-.541Zm-.793-4.048a.426.426 0 0 1 .472.334.36.36 0 0 1-.324.432.428.428 0 0 1-.483-.342c-.038-.212.108-.397.335-.424Zm-.197 6.807a.666.666 0 0 1-.605.772c-.392.04-.77-.231-.84-.603a.661.661 0 0 1 .594-.778c.397-.046.786.231.85.61Zm-.732-10.72c.089.133.165.247.246.372-.273-.014-.362-.155-.246-.372Zm-.11 6.565c.07.356-.168.669-.543.712a.694.694 0 0 1-.77-.546c-.07-.356.167-.669.543-.712a.694.694 0 0 1 .77.546Zm-1.556-4.587a.59.59 0 0 1 .632.462.498.498 0 0 1-.467.579.587.587 0 0 1-.624-.47.498.498 0 0 1 .46-.571Zm-.785-3.94c.175-.022.348.1.383.266a.302.302 0 0 1-.276.356.352.352 0 0 1-.375-.277.302.302 0 0 1 .268-.345Zm-.133 6.701c.087.41-.183.78-.61.837a.817.817 0 0 1-.915-.63c-.081-.41.192-.775.62-.83.425-.054.824.22.905.623Zm-.95-4.1c.057.328-.173.613-.524.651a.659.659 0 0 1-.723-.527c-.06-.329.164-.62.513-.66a.66.66 0 0 1 .734.535Zm-1.506-4.466c.21-.024.426.128.464.33a.366.366 0 0 1-.321.42c-.211.025-.427-.127-.465-.328a.364.364 0 0 1 .322-.422Zm-.046 6.759c.091.448-.206.85-.67.913-.47.062-.91-.24-1.002-.685-.091-.448.206-.85.67-.913.47-.063.91.24 1.002.685Zm-.97-4.128a.63.63 0 0 1-.545.742c-.364.051-.74-.204-.813-.557a.63.63 0 0 1 .546-.742.744.744 0 0 1 .812.557Zm-1.565-4.44a.425.425 0 0 1 .475.328c.046.223-.103.416-.335.44a.426.426 0 0 1-.47-.34c-.04-.214.103-.401.33-.428Zm-.003 6.766c.094.473-.221.892-.715.954a.933.933 0 0 1-1.043-.734c-.089-.47.23-.886.727-.945.486-.058.94.26 1.03.725Zm-.996-4.114c.067.367-.178.69-.562.739a.737.737 0 0 1-.823-.582c-.068-.366.178-.69.561-.739a.737.737 0 0 1 .824.582Zm-1.585-4.443c.208-.03.427.12.47.32a.366.366 0 0 1-.313.43.433.433 0 0 1-.47-.32.367.367 0 0 1 .313-.43Zm.022 6.747c.097.465-.233.913-.724.979-.489.065-.977-.275-1.069-.745-.092-.467.243-.913.734-.97.486-.057.961.274 1.059.736Zm-1.02-4.111a.63.63 0 0 1-.565.742c-.378.043-.745-.218-.81-.58a.627.627 0 0 1 .556-.73c.378-.052.748.206.818.568Zm-1.575-4.386a.36.36 0 0 1 .413.274c.04.185-.078.348-.273.373a.358.358 0 0 1-.404-.286c-.035-.176.08-.331.264-.361Zm.011 6.707c.092.464-.23.893-.715.961-.492.066-.975-.271-1.061-.744-.087-.468.24-.894.726-.954.486-.06.958.272 1.05.736Zm-1.828-4.65c.349-.046.705.198.77.532a.598.598 0 0 1-.527.699c-.345.04-.688-.196-.758-.525a.596.596 0 0 1 .515-.706Zm-.799-3.761c.097-.025.36.125.375.196.03.14-.062.263-.213.28a.268.268 0 0 1-.308-.22c-.021-.123.017-.224.146-.256Zm.003 6.612c.092.45-.21.858-.683.918-.473.06-.918-.25-1.005-.704-.086-.45.22-.856.694-.91.467-.055.905.25.994.696Zm-1.766-4.577c.308-.04.613.169.672.462a.52.52 0 0 1-.453.614c-.308.041-.613-.168-.672-.462a.52.52 0 0 1 .453-.614Zm.17 6.908c.103.533-.267 1.025-.823 1.095-.556.07-1.096-.307-1.202-.84-.102-.532.268-1.024.824-1.095.559-.07 1.099.308 1.201.84Zm-1.031-4.111a.729.729 0 0 1-.661.847c-.43.047-.848-.252-.926-.66-.081-.413.216-.804.65-.856.435-.049.864.256.937.669Zm-1.69-4.482a.468.468 0 0 1 .53.37c.045.242-.114.448-.368.478a.468.468 0 0 1-.521-.38c-.043-.234.113-.435.359-.468Zm.081 6.81c.094.509-.251.957-.786 1.02a1.007 1.007 0 0 1-1.115-.808c-.089-.5.254-.943.78-1.008.53-.065 1.026.286 1.121.796Zm-1.9-4.698a.736.736 0 0 1 .828.573c.073.367-.173.696-.553.748a.736.736 0 0 1-.829-.574c-.073-.367.173-.695.553-.747Zm-.757 2.91c.082.451-.24.87-.712.927-.48.057-.945-.274-1.029-.734-.08-.45.24-.87.713-.926.48-.058.945.274 1.029.733Zm-1.781-4.576a.58.58 0 0 1 .648.46c.056.296-.14.551-.451.589a.58.58 0 0 1-.648-.46c-.057-.295.14-.554.45-.589Zm.154 6.892c.105.527-.273 1.027-.827 1.092-.548.065-1.085-.313-1.19-.837-.105-.527.273-1.027.826-1.092.548-.063 1.088.315 1.19.837ZM37.615 15.9a.7.7 0 0 1-.607.813c-.41.057-.826-.234-.902-.628a.7.7 0 0 1 .608-.813c.41-.054.826.234.901.628Zm-1.63-4.402a.395.395 0 0 1 .423.299c.038.19-.105.372-.307.391a.396.396 0 0 1-.416-.31.336.336 0 0 1 .3-.38Zm.005 6.723c.097.465-.235.913-.726.975-.489.063-.978-.277-1.07-.744a.83.83 0 0 1 .738-.97c.486-.057.963.277 1.058.739Zm-1.822-4.585a.622.622 0 0 1 .696.481c.062.313-.148.59-.478.63a.625.625 0 0 1-.685-.472.532.532 0 0 1 .467-.639Zm.164 6.897c.1.53-.283 1.028-.837 1.087-.55.06-1.085-.323-1.182-.845-.1-.53.283-1.027.837-1.087.55-.06 1.085.324 1.182.845Zm-1.063-4.098c.083.392-.2.772-.613.824-.405.051-.81-.229-.894-.617-.084-.391.2-.772.613-.823.408-.052.813.23.894.616Zm-1.634-4.388a.393.393 0 0 1 .43.29.333.333 0 0 1-.297.397.392.392 0 0 1-.422-.302c-.037-.181.095-.358.29-.385Zm-.024 6.693c.092.46-.23.886-.71.943-.472.057-.934-.267-1.026-.718-.092-.459.23-.886.71-.943.475-.057.937.267 1.026.718Zm-1.776-4.56a.58.58 0 0 1 .648.46c.056.295-.14.55-.451.589a.58.58 0 0 1-.648-.46c-.057-.296.137-.554.45-.59Zm.094 6.91c.095.509-.251.957-.788 1.02-.532.06-1.023-.294-1.115-.808-.09-.5.254-.943.78-1.008.535-.065 1.029.286 1.123.796Zm-1.895-4.693c.378-.049.748.21.818.571a.629.629 0 0 1-.564.742c-.378.046-.745-.218-.813-.579a.635.635 0 0 1 .559-.734Zm.194 7.028c.103.532-.27 1.021-.829 1.092-.556.068-1.096-.31-1.198-.845-.103-.533.27-1.022.829-1.092.556-.068 1.096.312 1.198.845Zm-1.045-4.13c.087.404-.2.793-.628.852-.424.06-.85-.23-.937-.64-.087-.406.2-.794.629-.854.424-.06.85.23.936.641Zm-1.679-4.466a.468.468 0 0 1 .53.37c.045.242-.114.448-.368.478a.465.465 0 0 1-.52-.377c-.044-.237.113-.44.358-.47Zm-.024 6.805c.092.451-.208.859-.683.918-.473.06-.918-.25-1.004-.7-.087-.446.21-.846.675-.911.472-.063.918.242 1.012.693Zm-1.766-4.574a.615.615 0 0 1 .675.462.518.518 0 0 1-.453.615.615.615 0 0 1-.675-.462c-.062-.294.143-.571.453-.615Zm.044 6.922c.091.465-.23.894-.716.962-.491.065-.974-.272-1.06-.745-.087-.467.24-.894.725-.954.489-.057.959.272 1.05.737Zm-1.81-4.652c.354-.038.703.217.757.548a.6.6 0 0 1-.546.685c-.356.03-.702-.228-.75-.56a.602.602 0 0 1 .54-.674Zm-.66-3.767a.39.39 0 0 1 .213.207c.054.136-.057.26-.208.277-.143.016-.281-.074-.305-.201-.011-.071.213-.31.3-.283Zm-.308 6.644a.632.632 0 0 1-.562.745c-.378.046-.745-.215-.813-.576a.629.629 0 0 1 .554-.734c.378-.052.748.204.82.565Zm-1.547-4.388a.356.356 0 0 1 .386.285c.035.185-.09.345-.284.364a.357.357 0 0 1-.397-.293c-.03-.183.1-.34.295-.356Zm-.214 6.744c.068.367-.178.69-.561.74a.737.737 0 0 1-.824-.582c-.067-.367.179-.69.562-.74a.737.737 0 0 1 .823.582Zm-1.57-4.445c.21-.022.426.13.46.331a.366.366 0 0 1-.326.419c-.21.021-.426-.13-.462-.332a.369.369 0 0 1 .327-.418Zm-.206 6.79a.63.63 0 0 1-.556.734c-.37.044-.737-.217-.805-.568a.63.63 0 0 1 .556-.733c.37-.044.737.217.805.568Zm-1.56-4.45a.426.426 0 0 1 .47.336c.042.223-.109.413-.344.435a.427.427 0 0 1-.464-.348c-.038-.214.11-.4.338-.424Zm-.268 6.796a.558.558 0 0 1-.491.674.66.66 0 0 1-.748-.517c-.065-.331.157-.622.502-.668.348-.04.67.182.737.51Zm-1.509-4.438c.208-.03.427.12.47.32a.366.366 0 0 1-.313.43.433.433 0 0 1-.47-.32.365.365 0 0 1 .313-.43Zm-.974 6.354a.585.585 0 0 1 .64.448.497.497 0 0 1-.435.587.59.59 0 0 1-.648-.438.498.498 0 0 1 .443-.597Zm-.773-3.944a.352.352 0 0 1 .384.267.298.298 0 0 1-.257.353.355.355 0 0 1-.391-.255.303.303 0 0 1 .264-.364Zm-1.8 13.596a.32.32 0 0 1-.349-.255c-.032-.166.084-.31.26-.326a.32.32 0 0 1 .348.255c.03.166-.086.31-.26.326Zm.77 4.155a.322.322 0 0 1-.347-.26c-.03-.166.09-.31.265-.324a.32.32 0 0 1 .346.26c.03.167-.09.31-.265.324Zm.44-6.74a.463.463 0 0 1 .418-.54.544.544 0 0 1 .596.421.464.464 0 0 1-.407.55.545.545 0 0 1-.608-.43Zm.777 4.148a.502.502 0 0 1 .456-.574.585.585 0 0 1 .634.457.497.497 0 0 1-.445.579c-.305.04-.6-.172-.645-.462Zm1.406 4.562a.509.509 0 0 1-.57-.415c-.04-.256.138-.479.408-.506a.51.51 0 0 1 .56.41c.045.256-.128.479-.398.511Zm.789 4.044a.391.391 0 0 1-.435-.307c-.04-.207.092-.38.308-.405a.391.391 0 0 1 .434.307c.043.207-.089.38-.307.405Zm.191-6.767c-.073-.375.181-.706.573-.755a.746.746 0 0 1 .828.584c.073.375-.18.707-.572.756-.394.046-.759-.21-.829-.585Zm.864 4.128a.599.599 0 0 1 .532-.68c.35-.04.702.21.761.544a.598.598 0 0 1-.537.69c-.354.033-.702-.222-.756-.554Zm1.534 4.563c-.273.022-.538-.177-.575-.43a.465.465 0 0 1 .418-.527c.275-.027.55.177.586.438a.466.466 0 0 1-.43.519Zm.05-6.878c-.08-.432.233-.837.684-.889.453-.051.899.264.977.696.081.432-.232.837-.683.889-.453.051-.899-.267-.977-.696Zm.91 4.15c-.08-.394.179-.742.59-.797a.777.777 0 0 1 .874.6c.08.395-.178.743-.589.797a.78.78 0 0 1-.874-.6Zm1.648 4.606a.62.62 0 0 1-.686-.495c-.057-.31.162-.584.491-.62a.62.62 0 0 1 .675.487c.06.313-.154.59-.48.628Zm.753 3.883a.32.32 0 0 1-.349-.255c-.032-.166.084-.31.26-.327a.32.32 0 0 1 .348.256c.032.166-.084.31-.26.326Zm.105-6.699c-.078-.426.213-.804.667-.856a.85.85 0 0 1 .94.68c.078.426-.214.804-.668.856a.852.852 0 0 1-.939-.68Zm1.717 4.656a.654.654 0 0 1-.72-.528c-.06-.328.164-.62.512-.66a.658.658 0 0 1 .729.516c.062.337-.165.63-.521.672Zm.829-2.838c-.09-.448.21-.847.68-.904.47-.06.907.244.994.693.089.448-.21.847-.68.904-.47.06-.908-.244-.994-.693Zm1.774 4.645a.67.67 0 0 1-.754-.517c-.07-.334.154-.638.505-.687.351-.05.683.18.753.516.068.334-.154.639-.505.688Zm.782-2.84c-.089-.451.238-.878.708-.93.47-.049.923.275 1.004.72.081.449-.235.862-.702.92-.464.053-.92-.265-1.01-.71Zm1.79 4.625c-.34.046-.675-.185-.737-.51a.562.562 0 0 1 .494-.661c.34-.046.675.185.737.51a.565.565 0 0 1-.494.661Zm.813-2.829c-.086-.437.213-.837.67-.9.464-.062.91.248.996.69.086.438-.214.838-.67.9-.464.06-.91-.247-.996-.69Zm1.75 4.582c-.308.038-.614-.174-.67-.468a.52.52 0 0 1 .459-.611c.308-.038.613.174.67.467a.517.517 0 0 1-.46.612Zm-.163-6.91c-.102-.53.278-1.028.832-1.09.548-.063 1.085.317 1.188.84.102.53-.278 1.026-.832 1.089-.548.062-1.085-.315-1.188-.84Zm1.032 4.124a.728.728 0 0 1 .631-.853c.43-.062.864.234.95.647.087.413-.205.807-.636.864-.435.054-.864-.245-.945-.658Zm1.682 4.5a.5.5 0 0 1-.551-.396c-.049-.256.132-.484.402-.508a.506.506 0 0 1 .546.405c.04.25-.136.47-.397.5Zm-.092-6.831c-.095-.506.264-.978.79-1.041.53-.063 1.051.304 1.145.807.095.505-.264.978-.79 1.04-.532.063-1.05-.303-1.145-.806Zm1.906 4.723c-.397.046-.783-.234-.85-.612a.664.664 0 0 1 .607-.769c.391-.038.77.234.84.603a.668.668 0 0 1-.597.778Zm.742-2.924c-.092-.468.243-.913.732-.973.483-.06.96.272 1.06.734.1.464-.229.913-.72.98-.489.066-.98-.274-1.072-.741Zm1.82 4.62a.67.67 0 0 1-.726-.503c-.068-.324.162-.628.502-.672a.67.67 0 0 1 .726.503.564.564 0 0 1-.502.672Zm-.203-6.96c-.102-.549.295-1.063.867-1.122.57-.06 1.123.334 1.223.875.102.549-.294 1.062-.867 1.122-.57.06-1.123-.334-1.223-.875Zm2 4.79a.854.854 0 0 1-.947-.668c-.08-.429.208-.807.656-.861a.854.854 0 0 1 .948.668c.084.43-.205.808-.656.862Zm.67-3.01c-.089-.5.254-.946.778-1.008.532-.066 1.026.285 1.123.796.094.508-.251.956-.786 1.019-.532.06-1.023-.296-1.115-.807Zm1.887 4.682a.712.712 0 0 1-.788-.551c-.073-.36.176-.683.554-.726.37-.04.715.206.782.56a.608.608 0 0 1-.547.717Zm.816-2.88a.764.764 0 0 1 .672-.897c.45-.057.899.255.983.687a.764.764 0 0 1-.672.897c-.451.057-.9-.255-.983-.687Zm1.728 4.505a.512.512 0 0 1-.573-.416c-.043-.255.135-.478.405-.505a.51.51 0 0 1 .562.408c.048.258-.124.48-.394.513Zm-.073-6.813c-.095-.497.248-.948.772-1.013.52-.065 1.018.282 1.115.782.1.506-.246.96-.78 1.022-.521.063-1.013-.288-1.107-.79Zm1.879 4.677a.712.712 0 0 1-.789-.551c-.073-.36.176-.682.554-.726.37-.04.715.207.783.56.062.356-.178.671-.548.717Zm-.21-6.995c-.112-.543.275-1.065.847-1.136.567-.07 1.123.319 1.236.86.111.543-.275 1.065-.847 1.135-.567.068-1.126-.318-1.237-.858Zm1.994 4.775a.851.851 0 0 1-.945-.674c-.08-.43.21-.807.662-.859a.851.851 0 0 1 .945.674c.08.43-.208.807-.662.86Zm.724-3.014a.83.83 0 0 1 .75-.959c.489-.049.961.29 1.048.75.089.47-.251.913-.74.968-.491.057-.977-.291-1.058-.759Zm1.82 4.631c-.327.035-.651-.193-.71-.503a.563.563 0 0 1 .501-.657c.327-.036.651.193.71.502a.568.568 0 0 1-.502.658Zm-.12-6.951c-.102-.5.252-.979.778-1.052.524-.07 1.047.29 1.153.794.102.5-.251.978-.778 1.051-.523.074-1.047-.288-1.153-.793Zm1.904 4.712c-.397.043-.783-.237-.848-.614-.065-.373.203-.718.591-.767.395-.049.786.226.856.604a.67.67 0 0 1-.6.777Zm-.181-7.055c-.105-.527.27-1.027.823-1.095.548-.065 1.086.31 1.19.832.106.527-.269 1.03-.822 1.095-.546.065-1.086-.31-1.191-.832Zm1.026 4.1c-.07-.41.221-.787.648-.842.432-.054.864.25.94.663.078.414-.222.805-.657.854-.434.049-.861-.261-.931-.674Zm1.703 4.515a.503.503 0 0 1-.567-.397.427.427 0 0 1 .386-.503.504.504 0 0 1 .557.389.427.427 0 0 1-.376.51Zm.025-6.84c-.087-.443.218-.848.685-.903.457-.054.894.256.98.69.087.444-.218.849-.685.903-.457.054-.894-.255-.98-.69Zm1.746 4.581c-.307.036-.613-.176-.666-.472a.517.517 0 0 1 .461-.607c.308-.035.613.177.667.473a.517.517 0 0 1-.462.606Zm-.002-6.924c-.092-.448.232-.877.702-.932.47-.052.923.27 1.007.715.083.446-.23.861-.697.921-.464.063-.92-.258-1.012-.704Zm1.787 4.623c-.34.046-.675-.185-.737-.511a.562.562 0 0 1 .494-.66c.34-.047.675.184.737.51a.562.562 0 0 1-.494.66Zm-.003-6.97c-.089-.45.208-.849.672-.911.47-.063.91.242 1 .688.088.448-.209.847-.673.91-.47.06-.91-.242-.999-.688Zm1.766 4.652c-.343.043-.689-.196-.761-.522a.596.596 0 0 1 .512-.707c.349-.049.705.196.773.53.07.332-.173.655-.524.699Zm.03-7.025c-.079-.427.215-.802.669-.853a.85.85 0 0 1 .94.679c.078.427-.217.802-.67.853a.853.853 0 0 1-.94-.68Zm1.714 4.655a.656.656 0 0 1-.718-.53c-.06-.329.167-.617.518-.657a.655.655 0 0 1 .726.521c.062.337-.167.63-.526.666Zm.767 3.867c-.176.016-.349-.106-.378-.274a.302.302 0 0 1 .283-.351.352.352 0 0 1 .37.285c.027.169-.097.321-.276.34Zm.998-6.25a.623.623 0 0 1-.683-.5c-.054-.305.16-.576.478-.614a.618.618 0 0 1 .689.489c.062.312-.154.587-.484.625Zm.764 3.88a.322.322 0 0 1-.35-.252c-.033-.166.08-.313.256-.33a.322.322 0 0 1 .35.254.278.278 0 0 1-.256.328Zm.991-6.31c-.27.03-.537-.16-.586-.415a.465.465 0 0 1 .403-.538.548.548 0 0 1 .594.407.46.46 0 0 1-.41.546Zm.972-6.497c-.27.04-.553-.152-.605-.413a.465.465 0 0 1 .403-.538.548.548 0 0 1 .594.407c.056.25-.125.5-.392.544Zm.767 4.03a.39.39 0 0 1-.432-.31c-.04-.207.094-.38.31-.402a.39.39 0 0 1 .432.31c.043.204-.094.377-.31.402Zm.13-10.712a.322.322 0 0 1-.352-.253c-.032-.166.081-.313.257-.329a.322.322 0 0 1 .35.253c.033.166-.08.312-.256.328Zm.823 4.146a.32.32 0 0 1-.36-.242c-.037-.165.068-.315.244-.34a.326.326 0 0 1 .364.259.277.277 0 0 1-.248.323Z" fill="#ADADAD"/><path d="M39.162 36.398c-.332.04-.694.087-1.023.128.06.299.119.614.18.924l.97-.123c-.04-.304-.087-.633-.127-.929Zm.84-1.106c.437-.217.883-.25 1.382-.122-.319-.511-.351-1.003-.138-1.5-.464.383-.999.478-1.639.293.343.416.443.85.395 1.329Z" fill="#ADADAD"/><path d="m29.632 53.037 2.108-10.19-5.458 7.777-2.649 2.413h-4.155l-2.405-8.345-1.201 5.815-2.776 2.53H.988L7.754 20.33l2.775-2.527h12.257L27.21 32.49l8.777-12.28 2.646-2.408h12.645l-6.762 32.705-2.776 2.53H29.632Z" fill="#000"/><path d="m50.293 18.61-6.512 31.473-2.351 2.144H30.62L33.315 39.2l-7.64 10.883-2.352 2.144h-3.24l-3.137-10.883-1.809 8.74-2.351 2.143H1.976l6.51-31.474 2.35-2.144h11.35l4.725 15.68 9.678-13.536 2.352-2.144h11.352Zm1.974-1.618H38.323l-.46.419-2.35 2.144-.128.114-.1.139-7.78 10.88-3.78-12.549-.345-1.147H10.22l-.459.419-2.351 2.144-.392.353-.108.517L.402 51.899 0 53.844h13.404l.46-.418 2.35-2.144.39-.354.107-.516.492-2.375 1.336 4.639.337 1.166h5.069l.459-.419 2.351-2.144.133-.12.102-.146 3.178-4.528-1.118 5.408-.402 1.949H42.05l.459-.419 2.351-2.144.389-.353.108-.517 6.509-31.474.4-1.943Z" fill="#000"/><path d="M36.59 20.753h11.349l-6.51 31.474H30.62l3.048-14.74-10.342 14.74h-3.243l-4.246-14.74-3.048 14.74H1.976l6.51-31.474h11.349l4.967 16.487L36.59 20.753Z" fill="#000"/><path d="M38.944 18.61h11.35l-6.512 31.473h-10.81l3.048-14.74-10.343 14.74h-3.242l-4.247-14.74-3.05 14.74H4.328L10.84 18.61h11.35l4.967 16.487L38.944 18.61Z" fill="#fff"/><path d="m49.621 19.16-6.282 30.377h-9.692l2.91-14.077.535-2.59-1.518 2.161-10.18 14.506h-2.549l-4.133-14.343-.613-2.122-.448 2.163-2.959 14.3H5l6.282-30.374h10.502l4.849 16.096.321 1.065.645-.902 11.625-16.26h10.397Zm.672-.55h-11.35L27.158 35.095 22.189 18.61H10.84L4.329 50.083h10.81l3.048-14.74 4.249 14.74h3.242l10.346-14.74-3.049 14.74h10.81l6.51-31.474Z" fill="#fff"/><path d="M74.067 35.126c-.732-3.543-3.969-6.035-7.805-6.43-.475-.048-1.07-.154-1.769-.206-5.32-.391-18.692-3.402-18.692-3.402l-1.355 2.187s-5.492 36.116-5.554 36.556c4.93-.462 13.285-1.285 15.286-1.47l1.385-.93-2.516-5.462.92-.022a25.061 25.061 0 0 0 5.753-.652 25.24 25.24 0 0 0 5.897-2.28c8.334-5.668 9.003-13.82 8.45-17.889ZM54.907 48.07l-.948.127 1.318-11.169.496-.092a11.1 11.1 0 0 1 2.908-.223v.033c3.21.236 4.495 2.171 4.622 3.902.205 3.068-2.88 6.682-8.396 7.421Z" fill="#000"/><path d="M41.09 60.676c.016-.12.302-1.951.89-5.756 1.396-8.995 3.996-25.737 4.393-28.495l.09-.617.615-.07c2.689-.308 10.126-.941 15.952-.941 1.423 0 2.668.038 3.707.114.47.035.886.09 1.253.139.194.027.375.051.54.068 4.306.443 7.726 3.282 8.506 7.068l.006.027.002.027c.373 2.723.837 12.117-8.795 18.672l-.035.025-.035.019a26.025 26.025 0 0 1-6.083 2.353c-2.1.47-3.814.663-5.942.677l-.21.005-.775 6.378-.645.06c-2.001.184-7.635.704-12.565 1.165l-1.012.096.143-1.014Zm15.974-16.19c4.997-.7 7.8-3.873 7.621-6.555-.048-.672-.475-2.9-3.88-3.15l-.634-.046c-.666.005-1.33.076-1.979.21l-1.128 9.54Z" fill="#fff"/><path d="M63.028 25.607c1.328 0 2.57.032 3.647.114.7.052 1.293.155 1.768.206 3.837.395 7.073 2.886 7.805 6.43.556 4.068-.116 12.22-8.45 17.892a25.238 25.238 0 0 1-5.896 2.28 25.05 25.05 0 0 1-5.753.652l-.92.022-.781 6.421c-2 .185-7.638.704-12.565 1.166.063-.44 4.738-30.46 5.284-34.248 2.484-.283 10.01-.935 15.86-.935Zm-6.885 19.818.948-.127c5.515-.74 8.599-4.354 8.396-7.422-.127-1.73-1.415-3.666-4.622-3.902v-.033a11.28 11.28 0 0 0-2.908.223l-.496.093-1.318 11.168Zm6.885-21.435c-5.861 0-13.34.639-16.042.946l-1.231.14-.178 1.235c-.394 2.75-2.991 19.473-4.387 28.457l-.9 5.794-.285 2.027 2.027-.19c4.638-.435 10.078-.938 12.562-1.166l1.29-.12.157-1.296.61-5.03c1.963-.038 3.62-.242 5.594-.685l.019-.005.018-.005a26.915 26.915 0 0 0 6.27-2.425l.072-.038.068-.046c3.963-2.698 6.714-6.18 8.174-10.35 1.385-3.952 1.202-7.4.967-9.104l-.008-.055-.011-.054c-.853-4.133-4.554-7.231-9.214-7.71-.154-.016-.327-.04-.513-.065a19.648 19.648 0 0 0-1.301-.144 55.136 55.136 0 0 0-3.758-.111Zm-4.112 11.647c.405-.057.815-.09 1.226-.095l.602.043c2.686.199 3.088 1.75 3.137 2.408.137 2.07-2.057 4.617-5.894 5.498l.929-7.854Z" fill="#000"/></g><defs><clipPath id="a"><path fill="#fff" d="M0 0h78v76H0z"/></clipPath></defs></svg>