<svg width="78" height="76" viewBox="0 0 78 76" fill="none" xmlns="http://www.w3.org/2000/svg">
<g clip-path="url(#clip0)">
<path d="M76.9904 41.2923C68.0948 37.6916 68.0975 35.7921 77.3521 30.6642C73.9208 30.156 71.5802 29.425 70.2249 28.3924C67.1229 24.6286 73.5131 17.5251 73.5131 17.5251C73.5131 17.5251 73.4592 17.5713 73.362 17.6447C73.4349 17.5605 73.5024 17.4789 73.5779 17.3947C72.0796 17.7262 70.8189 17.8893 69.7714 17.8893C64.8363 17.8893 61.9395 17.0305 64.0345 10.9733C64.3584 10.0901 64.7094 9.1607 65.0793 8.19056C65.5085 7.12258 65.9837 5.99754 66.4993 4.81815C60.9217 8.61449 58.1545 8.41339 53.9997 8.41339C50.3065 8.41339 47.6499 6.42419 46.8724 1.57891C44.2132 5.6796 42.0076 7.75032 39.8478 7.75032C37.5584 7.75032 35.3204 5.42144 32.6531 0.7229C32.4236 2.50829 32.0132 3.50833 31.8647 4.00834C31.071 6.24212 29.9237 7.24215 28.4091 7.24215C25.8633 7.24215 22.2781 4.43499 17.5914 0.00276566C17.6049 0.0516804 17.613 0.0978777 17.6265 0.146793L17.5536 0.032658C17.5536 0.032658 19.3003 5.92417 16.903 9.98953C15.9419 11.014 14.5191 11.5168 12.6644 11.5168C10.367 11.5168 7.238 10.7042 3.68788 9.22864C5.78286 12.1065 7.60786 14.7044 8.91722 16.9599C10.8097 20.6285 11.7681 24.5118 8.49336 25.9276C7.65645 26.2184 6.60087 26.4059 5.29421 26.4847C12.3378 33.3708 12.4214 36.3193 3.73108 40.4145C13.7335 43.2733 6.06633 49.3768 1.42823 53.9232C12.902 53.8634 14.1331 59.3908 10.2698 67.7905C9.74603 68.6112 9.16019 69.8993 9.16019 69.8993C15.1967 66.4372 20.1588 65.2904 24.2543 65.2931C27.5317 65.2931 29.273 66.8883 29.8076 70.9564C31.8431 68.4481 34.5402 66.9698 36.2005 67.0269C38.2523 67.0948 39.5859 67.7987 40.6793 69.0378C41.9104 70.845 43.1549 73.2363 44.5453 76.0028C46.0004 69.9183 49.4614 66.6763 53.1115 67.2198C56.8883 67.7824 60.649 70.0161 60.649 70.0161C59.8769 67.0541 59.9579 64.9045 60.7543 63.4452C61.683 62.0974 63.4621 61.2033 66.6478 61.3881C68.9129 61.5185 77.2064 63.1246 77.2064 63.1246C73.0245 58.1027 70.2492 53.1623 70.179 49.1431C70.422 45.6185 72.4252 42.7353 76.9904 41.2923Z" fill="black"/>
<path d="M41.0005 39.3927C41.3353 39.2623 41.7051 39.2568 42.1101 39.352C41.8617 38.9715 41.7915 38.5965 41.8347 38.2378C41.4838 38.3003 41.1409 38.3601 40.8088 38.4171C40.8682 38.7188 40.933 39.0449 41.0005 39.3927Z" fill="#ADADAD"/>
<path d="M34.8669 36.7567C34.0408 37.0013 33.9895 37.0013 33.2444 36.7404C33.7357 37.2269 33.8707 37.7513 33.6845 38.3818C34.1299 38.0639 34.597 37.9959 35.1153 38.0937C34.8426 37.5503 34.8426 37.5503 34.8669 36.7567Z" fill="#ADADAD"/>
<path d="M36.8405 35.629C36.7838 35.398 36.7029 35.1779 36.6867 34.9578C36.6705 34.7404 36.7218 34.5203 36.7434 34.2974C36.2385 34.6262 35.6851 34.6643 35.1289 34.417C35.2477 34.629 35.4097 34.8464 35.4853 35.0855C35.5636 35.3274 35.5555 35.5937 35.5852 35.841C36.0981 35.6018 36.1818 35.5882 36.8405 35.629Z" fill="#ADADAD"/>
<path d="M38.9056 40.8547C39.0648 41.1999 39.0702 41.5613 38.973 41.9608C39.3969 41.6999 39.837 41.6591 40.3337 41.7705C40.0853 41.4118 39.9881 41.0613 40.0043 40.7162C39.6318 40.7651 39.2727 40.8086 38.9056 40.8547Z" fill="#ADADAD"/>
<path d="M42.6637 37.1454C43.1362 36.9361 43.6275 36.9416 44.1674 37.1698C43.6896 36.61 43.6059 36.0557 43.8678 35.4578C43.4439 35.8328 42.9364 35.9551 42.3694 35.8383C42.4558 36.0638 42.5638 36.2676 42.6097 36.4796C42.6583 36.697 42.6502 36.9225 42.6637 37.1454Z" fill="#ADADAD"/>
<path d="M36.1842 38.8845C36.3921 39.2296 36.4488 39.6182 36.3732 40.0449C36.7188 39.841 37.0751 39.7731 37.4369 39.8057C37.3721 39.4687 37.3073 39.1454 37.2506 38.8492C36.9051 38.86 36.5433 38.8709 36.1842 38.8845Z" fill="#ADADAD"/>
<path d="M68.7347 50.9258C67.6197 45.7652 71.7287 42.67 73.9047 41.3656C69.7309 40.7026 69.11 37.928 69.0344 36.629C68.9588 35.3192 70.1116 33.1588 73.1703 31.5528C73.3836 31.4414 73.6077 31.3245 73.8426 31.1995C70.4247 30.3353 68.543 29.0636 67.8681 27.2184C67.1122 25.1531 67.9599 22.634 70.6839 19.0496C70.368 19.0714 70.0657 19.0822 69.7741 19.0822C67.5253 19.0822 63.9022 18.6501 63.0221 17.2887C61.4968 14.9381 61.7155 13.4217 63.9265 7.87258C59.9931 10.2069 48.2034 12.188 46.3757 4.38061C44.0162 7.51659 41.9536 8.94055 39.8505 8.94055C37.6017 8.94055 35.5364 7.3943 33.1823 3.86157C32.4992 6.04643 31.1602 8.43238 28.4146 8.43238C26.2305 8.43238 23.5956 6.95135 19.4299 3.29089C19.7998 6.44862 19.3624 8.79653 18.1098 10.4134C16.9327 11.9352 15.1023 12.7043 12.6699 12.7043C11.0932 12.7043 9.22234 12.3727 7.08417 11.7124C10.8908 17.1664 13.3097 21.5959 11.9085 24.5987C11.2957 25.9086 10.0484 26.7972 8.12085 27.2782C9.19804 28.2565 10.043 29.1723 10.6721 30.0473C10.7018 29.9277 10.7315 29.8054 10.7612 29.6859C10.7855 29.6859 10.8098 29.6831 10.8341 29.6831C10.8557 29.7701 10.9124 29.8679 10.8935 29.9413C10.8746 30.012 10.7936 30.0663 10.7315 30.1261C11.7736 31.6044 12.1893 32.9686 12.0408 34.3029C11.806 36.4225 10.2212 38.2378 6.86279 40.1455C9.16834 41.0667 10.3913 42.1782 10.7288 43.6157C11.3362 46.1946 8.90917 48.8387 4.9028 52.4503C15.6152 53.722 15.2022 59.9152 12.6483 65.8067C19.5676 61.8691 29.1867 61.3283 30.9604 66.5975C32.6315 64.9996 34.2432 64.217 35.8496 64.217C39.1081 64.217 41.6809 67.2769 44.4832 72.3858C45.0745 70.4862 45.8223 68.9373 46.724 67.7633C48.198 65.8393 50.0716 64.8665 52.2935 64.8665C54.2751 64.8665 56.2297 65.4942 58.6837 67.0975C58.5082 64.9453 58.9321 63.3093 59.9121 62.0321C61.135 60.437 63.4595 59.7576 66.3131 59.7576C68.4135 59.7576 70.9485 60.1761 73.9938 61.0321C71.7638 59.1706 69.1343 53.3416 68.7347 50.9258ZM65.981 29.107C66.0053 29.1125 66.0269 29.1152 66.0512 29.1206C66.1052 29.2511 66.1619 29.3842 66.2159 29.5147C66.1997 29.5282 66.1862 29.5445 66.17 29.5581C66.0944 29.4984 65.9837 29.4494 65.954 29.3761C65.9216 29.3 65.9675 29.1994 65.981 29.107ZM65.0766 35.2893C65.3736 35.2513 65.6625 35.4497 65.7219 35.7323C65.7812 36.0149 65.5869 36.2812 65.2926 36.322C64.9902 36.3654 64.6933 36.1616 64.6366 35.8709C64.5826 35.5882 64.7824 35.3274 65.0766 35.2893ZM14.7243 39.3031C15.1131 39.2569 15.4992 39.5259 15.5694 39.8982C15.6395 40.2705 15.375 40.621 14.9862 40.6672C14.5975 40.7134 14.2114 40.4444 14.1412 40.0721C14.071 39.7025 14.3356 39.3493 14.7243 39.3031ZM13.388 35.9171C13.3178 35.5611 13.5581 35.2513 13.9306 35.2078C14.2951 35.1643 14.6326 35.4035 14.7 35.754C14.7702 36.11 14.53 36.4198 14.1574 36.4633C13.7929 36.5068 13.4555 36.2676 13.388 35.9171ZM15.0429 33.5719C14.9673 33.1642 15.2508 32.8028 15.6827 32.7539C16.1012 32.7077 16.4954 32.9903 16.5736 33.3925C16.6519 33.8029 16.3766 34.1643 15.9446 34.2159C15.5154 34.2703 15.1185 33.9849 15.0429 33.5719ZM16.4657 36.8383C16.9354 36.7785 17.3728 37.0856 17.4591 37.534C17.5455 37.9824 17.2459 38.3791 16.7788 38.4389C16.3091 38.4987 15.8717 38.1916 15.7853 37.7432C15.6962 37.2948 15.9959 36.8954 16.4657 36.8383ZM20.7744 36.0584C21.3629 35.9932 21.9353 36.3981 22.0406 36.9551C22.1485 37.5204 21.7436 38.053 21.1551 38.1182C20.5665 38.1834 19.9942 37.7785 19.8889 37.2215C19.7782 36.6589 20.1859 36.1263 20.7744 36.0584ZM19.1492 33.0691C19.0439 32.5474 19.411 32.0528 19.9591 31.9821C20.5044 31.9115 21.0471 32.2865 21.1524 32.8083C21.2576 33.33 20.8905 33.8246 20.3424 33.8953C19.7971 33.9686 19.2545 33.5936 19.1492 33.0691ZM53.4328 37.2894C53.5624 37.966 53.1007 38.5775 52.3934 38.6699C51.6807 38.7623 50.9976 38.2867 50.8654 37.6019C50.7358 36.9253 51.1974 36.3138 51.9047 36.2214C52.6202 36.129 53.3032 36.6073 53.4328 37.2894ZM53.7432 33.955C54.3939 33.8817 55.0256 34.33 55.1417 34.9496C55.2605 35.5747 54.8123 36.1589 54.1563 36.2323C53.5057 36.3057 52.8739 35.8573 52.7578 35.2377C52.6418 34.6127 53.0872 34.0284 53.7432 33.955ZM47.2936 35.1942C46.4999 35.292 45.7548 34.7648 45.6117 34.004C45.4713 33.2539 45.987 32.5827 46.778 32.4876C47.5636 32.3925 48.3033 32.917 48.4491 33.6697C48.5922 34.4197 48.0792 35.0964 47.2936 35.1942ZM49.3562 34.3355C50.1067 34.2431 50.8465 34.7648 50.9787 35.4795C51.1083 36.1942 50.6062 36.8546 49.8611 36.947C49.1105 37.0394 48.3708 36.5176 48.2385 35.8029C48.1089 35.0882 48.6138 34.4279 49.3562 34.3355ZM47.5447 36.61C48.3438 36.5122 49.1105 37.0557 49.2563 37.822C49.4021 38.5829 48.8703 39.2813 48.0685 39.3791C47.2693 39.477 46.5026 38.9335 46.3568 38.1671C46.2111 37.4062 46.7456 36.7079 47.5447 36.61ZM48.3681 40.8004C49.1402 40.7107 49.8908 41.2461 50.0257 41.9798C50.1607 42.7162 49.637 43.401 48.8676 43.488C48.0954 43.5777 47.3449 43.0423 47.2099 42.3086C47.0777 41.5722 47.6014 40.8873 48.3681 40.8004ZM49.0269 39.9335C48.9081 39.2161 49.4075 38.5829 50.1526 38.5014C50.9085 38.4199 51.6186 38.9308 51.7428 39.6509C51.8669 40.3737 51.3621 41.0151 50.6089 41.0939C49.8503 41.1673 49.1456 40.6509 49.0269 39.9335ZM51.6132 34.5013C50.922 34.5909 50.239 34.1154 50.1094 33.4523C49.9798 32.7892 50.4496 32.1724 51.1407 32.0881C51.8264 32.0039 52.4987 32.474 52.6337 33.1289C52.7686 33.7893 52.307 34.4116 51.6132 34.5013ZM49.0322 32.7403C48.306 32.83 47.6203 32.3408 47.488 31.6397C47.3611 30.9549 47.839 30.3326 48.5598 30.2457C49.286 30.156 49.9717 30.6451 50.104 31.3462C50.2336 32.0311 49.7531 32.6534 49.0322 32.7403ZM46.4675 30.9576C45.7359 31.0528 45.0151 30.5446 44.8882 29.8462C44.7613 29.1478 45.25 28.5065 45.9762 28.4222C46.7051 28.3353 47.4097 28.8326 47.5447 29.5255C47.6797 30.2212 47.1937 30.8653 46.4675 30.9576ZM45.8952 31.8653C46.0383 32.618 45.5064 33.3219 44.7208 33.4197C43.9325 33.5175 43.1604 32.9795 43.0119 32.2267C42.8607 31.4685 43.4007 30.7565 44.1944 30.6642C44.9827 30.569 45.7521 31.1125 45.8952 31.8653ZM42.1399 31.6017C41.3489 31.6995 40.5957 31.175 40.4499 30.4196C40.3014 29.6641 40.817 28.9793 41.608 28.8788C42.3991 28.7809 43.1523 29.3054 43.2981 30.0609C43.4466 30.8163 42.9309 31.5011 42.1399 31.6017ZM39.5401 29.7565C38.7761 29.8489 38.0552 29.3326 37.9148 28.5989C37.7772 27.8706 38.282 27.2129 39.0514 27.1206C39.8154 27.0282 40.5363 27.5445 40.6766 28.2782C40.817 29.0065 40.3095 29.6641 39.5401 29.7565ZM39.0028 30.6125C39.1432 31.387 38.6087 32.0908 37.8042 32.1914C36.9915 32.2919 36.2032 31.7348 36.0601 30.9631C35.9198 30.1886 36.4543 29.4848 37.2588 29.3842C38.0714 29.2837 38.8624 29.8408 39.0028 30.6125ZM35.1881 30.2674C34.4295 30.3571 33.7033 29.8353 33.5683 29.1043C33.436 28.3869 33.9436 27.7293 34.6995 27.6369C35.4608 27.5445 36.187 28.0608 36.3274 28.7918C36.4624 29.5174 35.9549 30.1777 35.1881 30.2674ZM34.6077 31.1207C34.7562 31.8762 34.2405 32.561 33.4495 32.6615C32.6585 32.7621 31.9053 32.2349 31.7595 31.4794C31.611 30.7239 32.1267 30.0391 32.9177 29.9386C33.706 29.838 34.4592 30.3625 34.6077 31.1207ZM30.1937 38.7623C30.9928 38.6617 31.7622 39.2025 31.9107 39.9661C32.0592 40.7297 31.53 41.4309 30.7309 41.5287C29.9318 41.6292 29.1624 41.0884 29.0139 40.3248C28.8654 39.5612 29.3946 38.8601 30.1937 38.7623ZM28.1365 39.6482C27.3914 39.7379 26.6625 39.2297 26.5194 38.5177C26.3763 37.803 26.8838 37.1263 27.6344 37.0367C28.3795 36.947 29.1084 37.4552 29.2515 38.1671C29.3946 38.8818 28.887 39.5585 28.1365 39.6482ZM29.9291 37.3465C29.1354 37.4497 28.3849 36.9307 28.2364 36.1725C28.0906 35.4225 28.5981 34.7431 29.3838 34.6426C30.1694 34.542 30.9172 35.0583 31.0657 35.8084C31.2142 36.5611 30.712 37.2432 29.9291 37.3465ZM29.975 33.83C29.8265 33.0719 30.3665 32.3599 31.1602 32.2675C31.9512 32.1751 32.7179 32.7213 32.861 33.474C33.0041 34.2268 32.4695 34.9279 31.6839 35.0257C30.8929 35.1208 30.1208 34.5828 29.975 33.83ZM30.8416 30.7538C30.1127 30.8408 29.427 30.3598 29.292 29.6614C29.157 28.9576 29.6375 28.3298 30.3773 28.2429C31.1062 28.1586 31.7892 28.6478 31.9188 29.3462C32.0484 30.0419 31.5732 30.6642 30.8416 30.7538ZM30.1667 31.6832C30.299 32.3789 29.813 33.0202 29.0868 33.1126C28.3552 33.205 27.6344 32.6968 27.5102 32.0012C27.386 31.3028 27.8746 30.6614 28.6008 30.5799C29.3298 30.493 30.0344 30.9903 30.1667 31.6832ZM28.3795 34.0338C28.5145 34.7268 28.0366 35.3545 27.305 35.4442C26.5869 35.5312 25.9011 35.0447 25.7689 34.3572C25.6339 33.6643 26.1117 33.0365 26.8433 32.9468C27.5588 32.8599 28.2445 33.3436 28.3795 34.0338ZM26.5707 36.3845C26.7003 37.0475 26.2305 37.6644 25.5367 37.7486C24.8429 37.8329 24.1652 37.3519 24.041 36.6915C23.9196 36.0339 24.3812 35.4252 25.0669 35.3355C25.7608 35.2486 26.4411 35.7214 26.5707 36.3845ZM24.7106 33.5284C24.0599 33.6072 23.4228 33.1561 23.3067 32.5392C23.1906 31.9196 23.6307 31.3381 24.2786 31.262C24.9292 31.1832 25.5664 31.6343 25.6825 32.2512C25.7986 32.8708 25.3585 33.4496 24.7106 33.5284ZM23.8656 34.6018C23.9816 35.2051 23.5713 35.7486 22.9396 35.8274C22.3078 35.9062 21.7112 35.4877 21.5924 34.8844C21.4763 34.2811 21.8867 33.7376 22.5184 33.6588C23.1528 33.5773 23.7495 33.9958 23.8656 34.6018ZM21.5681 40.1998C22.1755 40.121 22.7506 40.5205 22.864 41.102C22.9774 41.6809 22.5832 42.2053 21.9758 42.2787C21.3683 42.3548 20.796 41.9499 20.6853 41.3683C20.5773 40.795 20.9688 40.2759 21.5681 40.1998ZM22.351 39.034C22.2322 38.409 22.6777 37.8247 23.3337 37.7514C23.9843 37.678 24.6161 38.1264 24.7322 38.746C24.851 39.371 24.4055 39.9553 23.7495 40.0286C23.0988 40.102 22.4671 39.6536 22.351 39.034ZM24.1058 41.9146C24.7619 41.8385 25.3936 42.2923 25.5016 42.9092C25.6096 43.5315 25.1749 44.094 24.5324 44.1701C23.8764 44.2462 23.2446 43.7923 23.1366 43.1755C23.0286 42.5532 23.4633 41.9907 24.1058 41.9146ZM24.8375 40.8575C24.6998 40.1754 25.1695 39.5531 25.8849 39.4661C26.595 39.3791 27.2645 39.8493 27.4022 40.5259C27.5399 41.208 27.0701 41.8303 26.3547 41.9173C25.6474 42.0015 24.9751 41.5341 24.8375 40.8575ZM26.6733 43.6538C27.3644 43.5722 28.015 44.0342 28.1419 44.6918C28.2661 45.3522 27.8179 45.9446 27.1268 46.0316C26.4357 46.1185 25.7824 45.662 25.6528 45.0016C25.5205 44.3386 25.9767 43.7353 26.6733 43.6538ZM27.305 42.6428C27.1808 41.92 27.6856 41.2787 28.4416 41.2026C29.1921 41.1265 29.8913 41.6319 30.0209 42.3439C30.1505 43.0668 29.6483 43.7108 28.8951 43.7923C28.1365 43.8739 27.4265 43.3603 27.305 42.6428ZM29.238 45.4201C29.948 45.3332 30.6202 45.8033 30.7552 46.4799C30.8929 47.162 30.4232 47.7843 29.7077 47.8713C28.9977 47.9583 28.3255 47.4881 28.1905 46.8115C28.0555 46.1294 28.5253 45.5071 29.238 45.4201ZM29.8346 44.4799C29.6861 43.7489 30.1991 43.0559 30.9685 42.9554C31.7352 42.8548 32.4938 43.3793 32.6423 44.113C32.7908 44.844 32.2779 45.537 31.5084 45.6375C30.7417 45.7408 29.9831 45.2163 29.8346 44.4799ZM33.5629 44.7462C34.3458 44.6511 35.0882 45.1755 35.234 45.9283C35.3771 46.6756 34.8615 47.3523 34.0759 47.4501C33.2929 47.5452 32.5505 47.0207 32.4047 46.268C32.259 45.5207 32.7746 44.844 33.5629 44.7462ZM36.1411 46.5669C36.9132 46.4745 37.6476 46.9935 37.788 47.7273C37.9283 48.4637 37.4235 49.1322 36.6568 49.23C35.882 49.3279 35.1341 48.8034 34.9992 48.0642C34.8642 47.3251 35.3744 46.6593 36.1411 46.5669ZM37.3101 46.6973C36.7216 46.2924 36.4867 45.5533 36.7513 44.9446C37.0563 44.2434 37.7043 44.0097 38.7572 44.2353C38.3684 43.7896 38.2334 43.3059 38.3738 42.7352C37.8797 43.0233 37.383 43.0804 36.8053 42.8956C37.0671 43.2896 37.1886 43.6728 37.1049 44.0858C37.0239 44.4962 36.7945 44.8114 36.4219 45.0234C35.8604 45.3413 35.1206 45.2652 34.6023 44.8386C34.0705 44.4011 33.8869 43.7 34.1515 43.1157C34.443 42.4662 35.0397 42.2189 35.9819 42.3412C35.8874 42.1211 35.7605 41.901 35.7038 41.67C35.6498 41.4417 35.6687 41.1999 35.6552 40.958C35.2016 41.1836 34.6995 41.2298 34.1595 41.0259C34.4241 41.3765 34.5699 41.7488 34.5267 42.1618C34.4835 42.5722 34.2864 42.901 33.9409 43.1401C33.3928 43.5152 32.6342 43.4798 32.0781 43.0532C31.5354 42.6374 31.3303 41.9309 31.584 41.3412C31.881 40.6564 32.4776 40.4281 33.5656 40.602C33.1499 40.1047 33.0311 39.5748 33.2336 38.9634C32.8637 39.1971 32.4938 39.3031 32.0727 39.2351C31.6569 39.1699 31.3114 38.9824 31.0441 38.6644C30.6067 38.1508 30.5689 37.4443 30.9415 36.9253C31.3573 36.3491 32.0133 36.2106 32.9231 36.5068C32.321 35.6671 32.2644 35.0583 32.7341 34.4877C33.0797 34.0692 33.7708 33.7376 34.7157 34.1425C34.3836 33.7974 34.2081 33.4387 34.2081 33.0257C34.2054 32.6099 34.3647 32.262 34.6779 31.9876C35.1611 31.5636 35.9036 31.5066 36.4975 31.8408C37.1589 32.2131 37.4181 32.8463 37.2426 33.6262C37.4937 33.542 37.7502 33.417 38.0282 33.3789C38.3009 33.3409 38.5925 33.3952 38.8597 33.4088C38.4143 32.6072 38.4737 31.9332 39.0514 31.4549C39.5725 31.0229 40.3635 31.0011 40.9574 31.3952C41.465 31.7321 41.8888 32.4468 41.5136 33.3056C42.202 32.7811 42.9309 32.7104 43.649 33.2648C44.3051 33.773 44.4049 34.4279 44.0891 35.167C44.413 34.8817 44.7532 34.7214 45.1663 34.7214C45.582 34.7214 45.9546 34.8545 46.2704 35.129C46.8185 35.6018 46.9643 36.3491 46.6268 36.9361C46.2596 37.572 45.5685 37.7758 44.6371 37.4986C45.0934 38.0231 45.2122 38.5775 44.98 39.2242C45.3606 38.9579 45.7467 38.8384 46.1841 38.9036C46.6214 38.9661 46.9805 39.1699 47.2504 39.5123C47.677 40.0531 47.6797 40.7678 47.2585 41.276C46.8482 41.7678 46.1112 41.9227 45.4767 41.651C44.7343 41.333 44.4643 40.7515 44.5858 39.7542C43.8812 40.1509 43.7138 40.102 43.0983 40.0504C43.3953 40.496 43.4627 40.9607 43.3089 41.4798C43.7624 41.2134 44.2133 41.1428 44.7019 41.2977C45.0367 41.4037 45.312 41.5993 45.5199 41.8738C45.9384 42.4254 45.9276 43.1565 45.4956 43.6538C45.061 44.1538 44.2997 44.2978 43.6544 43.9962C42.9579 43.6728 42.642 43.0342 42.7797 42.1836C42.3181 42.4744 41.8321 42.5695 41.2544 42.4091C41.5891 42.9309 41.6377 43.4364 41.4164 43.9581C41.7565 43.6972 42.1399 43.5614 42.588 43.6076C43.0335 43.651 43.4034 43.8467 43.6868 44.1864C44.1431 44.7353 44.1431 45.5044 43.6895 46.0017C43.2171 46.518 42.4234 46.6213 41.7754 46.2517C41.2355 45.9446 40.7711 45.2326 41.1059 44.3712C40.5714 44.7951 39.9693 44.8793 39.2836 44.6076C39.8208 45.4364 39.7938 46.1267 39.2242 46.6267C38.7086 47.0805 37.904 47.1077 37.3101 46.6973ZM40.4823 45.9908C41.276 45.8984 42.0238 46.4283 42.1642 47.1838C42.3046 47.942 41.7835 48.6213 40.9925 48.7164C40.1988 48.8088 39.451 48.2789 39.3106 47.5235C39.1702 46.7626 39.6913 46.0832 40.4823 45.9908ZM43.0821 47.9066C43.8164 47.8197 44.5264 48.3197 44.6614 49.0235C44.7964 49.7246 44.3078 50.3714 43.5707 50.4638C42.8283 50.5562 42.1129 50.0507 41.9806 49.3387C41.851 48.6403 42.3451 47.9963 43.0821 47.9066ZM43.6895 46.98C43.5707 46.2354 44.0918 45.5777 44.8585 45.5044C45.6387 45.4283 46.3622 45.9555 46.4864 46.6892C46.6106 47.4311 46.095 48.0941 45.3282 48.1729C44.5426 48.2545 43.8056 47.7191 43.6895 46.98ZM45.4416 44.6701C45.2959 43.9228 45.8061 43.2407 46.5917 43.1429C47.3746 43.045 48.1224 43.5668 48.2682 44.3141C48.414 45.0614 47.9038 45.7435 47.1182 45.8413C46.3352 45.9392 45.5874 45.4174 45.4416 44.6701ZM49.178 45.0533C49.8908 44.9581 50.5927 45.4419 50.7304 46.124C50.868 46.806 50.3902 47.4446 49.6775 47.5343C48.9648 47.624 48.2655 47.1349 48.1332 46.4555C48.001 45.7788 48.4734 45.1457 49.178 45.0533ZM49.9043 44.0994C49.7774 43.42 50.2552 42.7923 50.9598 42.7108C51.6699 42.6265 52.361 43.113 52.4852 43.7869C52.6121 44.4663 52.1342 45.094 51.4296 45.1755C50.7223 45.2598 50.0311 44.7734 49.9043 44.0994ZM51.7158 41.7434C51.5916 41.083 52.0451 40.4906 52.7336 40.4064C53.4247 40.3221 54.078 40.7814 54.2049 41.439C54.3345 42.0993 53.8863 42.6945 53.1979 42.7842C52.5014 42.8738 51.8399 42.4091 51.7158 41.7434ZM53.5435 39.4009C53.4193 38.784 53.8566 38.1998 54.5046 38.1155C55.1525 38.0313 55.7923 38.4769 55.9138 39.0965C56.038 39.7134 55.6006 40.2977 54.9527 40.3819C54.3048 40.4634 53.6649 40.0205 53.5435 39.4009ZM56.2837 35.8627C56.8911 35.7839 57.4661 36.1834 57.5822 36.7622C57.6956 37.341 57.3015 37.8655 56.694 37.9416C56.0947 38.015 55.5223 37.6182 55.4063 37.0503C55.2902 36.466 55.6789 35.9388 56.2837 35.8627ZM55.3388 42.3249C55.9543 42.2515 56.5455 42.6673 56.6616 43.257C56.7777 43.8521 56.3647 44.3956 55.741 44.4717C55.1255 44.5451 54.5343 44.1293 54.4182 43.5396C54.3021 42.9445 54.7151 42.3983 55.3388 42.3249ZM56.2459 41.1754C56.1379 40.6074 56.5266 40.102 57.1233 40.0341C57.7118 39.9661 58.2599 40.3574 58.3678 40.92C58.4758 41.4879 58.0871 41.9934 57.4904 42.0613C56.8992 42.1292 56.3512 41.7379 56.2459 41.1754ZM58.0952 38.8221C57.9953 38.3085 58.3543 37.8356 58.8916 37.7677C59.4288 37.6997 59.9499 38.0666 60.0498 38.5802C60.1496 39.0938 59.7906 39.5667 59.2533 39.6346C58.7134 39.7025 58.1951 39.3357 58.0952 38.8221ZM59.9742 36.4606C59.8878 36.0122 60.2063 35.5855 60.6761 35.5285C61.1458 35.4687 61.6129 35.7975 61.702 36.2459C61.7884 36.6943 61.4698 37.1209 61.0001 37.178C60.5276 37.2378 60.0606 36.9089 59.9742 36.4606ZM60.2171 32.9985C59.7474 33.0583 59.31 32.7512 59.2236 32.3055C59.1346 31.8571 59.4342 31.4604 59.904 31.4006C60.3737 31.3408 60.8111 31.6479 60.8975 32.0936C60.9866 32.5419 60.6869 32.9414 60.2171 32.9985ZM59.2722 34.4252C59.3721 34.9388 59.0158 35.4143 58.4785 35.4823C57.9413 35.5502 57.4202 35.1861 57.3204 34.6725C57.2205 34.1588 57.5768 33.6833 58.1141 33.6153C58.6513 33.5474 59.1724 33.9116 59.2722 34.4252ZM57.6632 31.2919C57.1557 31.3598 56.6508 31.012 56.5482 30.5256C56.4457 30.0364 56.7966 29.5663 57.3123 29.5038C57.8198 29.4413 58.3246 29.7946 58.4191 30.281C58.5136 30.7647 58.1708 31.224 57.6632 31.2919ZM56.7939 32.6126C56.9019 33.1724 56.5104 33.6942 55.9246 33.773C55.3361 33.8518 54.7475 33.4441 54.6395 32.8789C54.5316 32.3191 54.923 31.7973 55.5089 31.7185C56.0947 31.6397 56.6859 32.0501 56.7939 32.6126ZM55.1012 29.5554C54.5586 29.6315 54.0132 29.2565 53.9052 28.732C53.7972 28.213 54.1617 27.7157 54.7097 27.6423C55.2524 27.5662 55.7977 27.9412 55.9057 28.4657C56.0137 28.9847 55.6492 29.4793 55.1012 29.5554ZM54.2751 30.8C54.3939 31.4033 53.9862 31.9495 53.3545 32.0283C52.7228 32.1099 52.1234 31.6914 52.0046 31.0881C51.8858 30.4848 52.2935 29.9386 52.9252 29.8598C53.557 29.781 54.1563 30.1967 54.2751 30.8ZM52.5068 27.7945C51.929 27.857 51.3675 27.4494 51.2784 26.9032C51.1893 26.3569 51.5808 25.8569 52.1477 25.7971C52.7255 25.7346 53.287 26.1423 53.3761 26.6885C53.4625 27.2347 53.071 27.7347 52.5068 27.7945ZM51.7482 28.9983C51.8669 29.6179 51.4269 30.1995 50.7817 30.2783C50.1337 30.3571 49.4939 29.9087 49.3751 29.2918C49.2563 28.6722 49.6964 28.0907 50.3416 28.0119C50.9922 27.9331 51.6294 28.3787 51.7482 28.9983ZM49.934 26.0064C49.3454 26.077 48.7974 25.683 48.6921 25.1178C48.5868 24.558 48.9729 24.0579 49.5641 23.9873C50.1526 23.9166 50.7007 24.3107 50.806 24.8759C50.9112 25.4357 50.5252 25.9357 49.934 26.0064ZM49.1807 27.1966C49.3049 27.8353 48.8649 28.4086 48.1899 28.4874C47.5312 28.5635 46.9049 28.1152 46.7861 27.4793C46.6673 26.8488 47.1047 26.2781 47.7688 26.1966C48.4302 26.1205 49.0592 26.5635 49.1807 27.1966ZM47.3719 24.1993C46.7861 24.2753 46.2272 23.884 46.1193 23.3242C46.014 22.7726 46.3919 22.2671 46.9697 22.1937C47.5555 22.1177 48.1143 22.509 48.2223 23.0688C48.3303 23.6204 47.9497 24.1259 47.3719 24.1993ZM46.5998 25.4113C46.7105 26.0308 46.2677 26.6069 45.6198 26.683C44.9638 26.7618 44.324 26.3026 44.2133 25.6776C44.1026 25.058 44.5453 24.4819 45.1933 24.4058C45.8493 24.327 46.4891 24.7835 46.5998 25.4113ZM44.953 27.7347C45.0853 28.4331 44.6128 29.0554 43.8812 29.1451C43.1442 29.2375 42.4531 28.7456 42.3235 28.0391C42.1966 27.3434 42.6744 26.7211 43.4061 26.6341C44.1377 26.5499 44.8207 27.0363 44.953 27.7347ZM43.0308 24.8487C42.3991 24.9221 41.7835 24.4846 41.6728 23.8813C41.5595 23.278 41.986 22.7182 42.6177 22.6394C43.2576 22.5606 43.8785 23.0036 43.9865 23.615C44.0945 24.2183 43.6625 24.7754 43.0308 24.8487ZM42.337 25.9439C42.4639 26.6205 41.9968 27.2238 41.2841 27.3081C40.5822 27.3896 39.9207 26.9195 39.7911 26.2482C39.6589 25.5716 40.1205 24.9629 40.8332 24.8759C41.5433 24.7889 42.2074 25.2618 42.337 25.9439ZM40.4526 22.9818C39.8451 23.0579 39.2728 22.6557 39.1621 22.0742C39.0514 21.4954 39.4483 20.9763 40.0584 20.9029C40.6551 20.8323 41.2247 21.2318 41.3381 21.8051C41.4515 22.3813 41.06 22.9057 40.4526 22.9818ZM39.6913 24.1503C39.81 24.7917 39.37 25.3651 38.6978 25.4439C38.0255 25.5227 37.3965 25.0743 37.2777 24.433C37.1589 23.7916 37.599 23.2182 38.2712 23.1394C38.9434 23.0579 39.5725 23.5063 39.6913 24.1503ZM38.0201 26.4656C38.1605 27.1559 37.6827 27.7945 36.9591 27.8842C36.2437 27.9738 35.5499 27.4874 35.4176 26.8053C35.2826 26.1205 35.7578 25.4901 36.4705 25.3977C37.1859 25.3026 37.8825 25.7835 38.0201 26.4656ZM36.1195 23.5579C35.5094 23.6367 34.9074 23.221 34.7886 22.6367C34.6698 22.047 35.0856 21.4926 35.7038 21.4193C36.3166 21.3459 36.9132 21.7671 37.0266 22.3486C37.14 22.9329 36.7297 23.4791 36.1195 23.5579ZM35.3393 24.6531C35.4635 25.2944 35.0289 25.8705 34.3566 25.9548C33.6844 26.039 33.0527 25.596 32.9285 24.952C32.8043 24.3107 33.2389 23.7346 33.9112 23.6503C34.5834 23.5688 35.2151 24.0117 35.3393 24.6531ZM33.6412 26.9928C33.7735 27.6695 33.3118 28.2782 32.5991 28.3652C31.8891 28.4521 31.225 27.9793 31.0954 27.2972C30.9685 26.6205 31.4355 26.0173 32.1483 25.933C32.8502 25.8515 33.5116 26.3216 33.6412 26.9928ZM31.7514 24.0416C31.1467 24.115 30.5743 23.7074 30.4663 23.1258C30.3584 22.5552 30.7525 22.0361 31.3519 21.9628C31.9593 21.8867 32.5316 22.2889 32.645 22.8677C32.7584 23.4465 32.3615 23.9683 31.7514 24.0416ZM30.9469 25.2047C31.0657 25.8134 30.6337 26.3814 29.9939 26.4548C29.3622 26.5281 28.7466 26.0906 28.6359 25.4846C28.5226 24.8813 28.9491 24.3215 29.5808 24.2454C30.2126 24.1694 30.8281 24.6014 30.9469 25.2047ZM29.2191 27.5581C29.3352 28.1858 28.8843 28.7674 28.2283 28.838C27.5777 28.9087 26.9486 28.4576 26.8325 27.838C26.7165 27.2102 27.1673 26.6287 27.8233 26.558C28.474 26.4874 29.1057 26.9385 29.2191 27.5581ZM27.4589 29.9005C27.5804 30.5392 27.1403 31.1125 26.4654 31.1886C25.8066 31.2647 25.1803 30.8136 25.0615 30.1777C24.9427 29.5473 25.3828 28.9766 26.0496 28.8978C26.7084 28.8217 27.3374 29.2674 27.4589 29.9005ZM25.6366 26.8977C25.0615 26.9657 24.5027 26.5689 24.4001 26.02C24.2975 25.471 24.6863 24.9629 25.2613 24.8922C25.8363 24.8243 26.3952 25.221 26.4978 25.77C26.6004 26.3216 26.2116 26.8298 25.6366 26.8977ZM24.7349 28.1043C24.8483 28.6668 24.473 29.175 23.8872 29.2511C23.2986 29.3272 22.7425 28.9467 22.6291 28.3842C22.5157 27.8217 22.891 27.3135 23.4768 27.2374C24.068 27.1613 24.6242 27.5445 24.7349 28.1043ZM22.9612 30.4576C23.0718 31.0038 22.6804 31.5229 22.108 31.5908C21.5411 31.6588 20.985 31.2702 20.8743 30.7294C20.7636 30.1832 21.1551 29.6641 21.7274 29.5962C22.2943 29.5282 22.8505 29.9168 22.9612 30.4576ZM21.2657 27.3026C20.7717 27.3597 20.2884 27.0119 20.2075 26.5444C20.1265 26.0798 20.4558 25.6477 20.9391 25.5879C21.4277 25.5254 21.9164 25.8678 22.0055 26.3352C22.0919 26.8026 21.7544 27.2456 21.2657 27.3026ZM20.2183 28.6804C20.31 29.1505 19.9942 29.569 19.5001 29.6288C19.0061 29.6886 18.5498 29.3652 18.4607 28.8924C18.3716 28.4222 18.6929 28.0065 19.1897 27.9494C19.6756 27.8978 20.1265 28.2157 20.2183 28.6804ZM19.3246 35.1806C19.4137 35.6671 19.0628 36.1236 18.5552 36.1834C18.045 36.2432 17.5428 35.8899 17.451 35.4062C17.3566 34.9143 17.7129 34.4496 18.2259 34.3953C18.7388 34.3382 19.2356 34.6969 19.3246 35.1806ZM17.7345 31.9332C17.2702 31.993 16.8247 31.6832 16.741 31.2403C16.6573 30.8027 16.957 30.4033 17.4133 30.3435C17.8776 30.2837 18.3231 30.5935 18.4067 31.0365C18.4904 31.474 18.1908 31.8734 17.7345 31.9332ZM17.2702 40.9607C17.7399 40.9009 18.207 41.227 18.2961 41.6754C18.3851 42.1238 18.0666 42.5505 17.5941 42.6102C17.1244 42.67 16.6573 42.3439 16.5682 41.8955C16.4819 41.4472 16.8004 41.0205 17.2702 40.9607ZM18.2151 39.5422C18.1206 39.0259 18.4796 38.5639 19.0277 38.5014C19.5757 38.4362 20.0887 38.8058 20.1832 39.3357C20.2776 39.852 19.9186 40.314 19.3705 40.3765C18.8225 40.4417 18.3123 40.0721 18.2151 39.5422ZM19.7998 42.6619C20.3289 42.5994 20.8473 42.9635 20.9472 43.4662C21.0498 43.9771 20.6853 44.4581 20.1508 44.5206C19.6216 44.5831 19.1033 44.219 19.0034 43.7163C18.9008 43.2054 19.2653 42.7244 19.7998 42.6619ZM20.6313 46.8685C21.1362 46.8115 21.6059 47.1457 21.6977 47.6322C21.7922 48.1213 21.4574 48.5534 20.9418 48.6132C20.4369 48.6702 19.9672 48.336 19.8754 47.8496C19.7809 47.3604 20.1157 46.9283 20.6313 46.8685ZM21.4979 45.5261C21.3872 44.9636 21.7652 44.4608 22.3537 44.3848C22.9423 44.3114 23.4957 44.6945 23.6064 45.2571C23.7171 45.8196 23.3391 46.3223 22.7506 46.3984C22.162 46.4745 21.6086 46.0886 21.4979 45.5261ZM23.1798 48.6077C23.7171 48.5398 24.2408 48.9012 24.3407 49.4148C24.4433 49.9284 24.0869 50.404 23.5497 50.4719C23.0125 50.5399 22.4887 50.1784 22.3888 49.6648C22.2862 49.1512 22.6426 48.6757 23.1798 48.6077ZM24.0086 47.3387C23.8899 46.7435 24.3002 46.1973 24.9265 46.1212C25.5421 46.0451 26.136 46.4609 26.2521 47.0479C26.3709 47.643 25.9605 48.1892 25.3342 48.2653C24.7214 48.3414 24.1247 47.9256 24.0086 47.3387ZM25.7527 50.3741C26.3088 50.3034 26.8514 50.6785 26.9567 51.2111C27.062 51.7437 26.6922 52.2356 26.136 52.309C25.5799 52.3796 25.0372 52.0046 24.9319 51.472C24.8267 50.9393 25.1938 50.4448 25.7527 50.3741ZM26.5464 49.1241C26.4357 48.5208 26.8595 47.9664 27.494 47.8876C28.1338 47.8088 28.7493 48.2409 28.8681 48.855C28.9842 49.4665 28.5577 50.0263 27.9124 50.1024C27.2726 50.1784 26.6625 49.7382 26.5464 49.1241ZM28.3282 52.1676C28.8978 52.0943 29.4324 52.4666 29.5403 53.0101C29.6483 53.5536 29.2839 54.0427 28.7142 54.1161C28.1446 54.1895 27.6101 53.8172 27.5021 53.2737C27.3941 52.7274 27.7585 52.241 28.3282 52.1676ZM29.1192 50.9339C29.0004 50.3089 29.427 49.7545 30.0857 49.6811C30.7309 49.6078 31.3357 50.0399 31.4517 50.6567C31.5705 51.2817 31.144 51.8361 30.4852 51.9095C29.84 51.9829 29.238 51.5508 29.1192 50.9339ZM30.7525 48.6105C30.6175 47.9284 31.0981 47.2925 31.8135 47.2028C32.5208 47.1158 33.212 47.5968 33.3496 48.2708C33.4873 48.9529 33.0149 49.5915 32.2994 49.6839C31.5867 49.779 30.8875 49.2925 30.7525 48.6105ZM32.6612 51.491C33.2929 51.4176 33.9085 51.8551 34.0192 52.4584C34.1326 53.0617 33.706 53.6215 33.0743 53.6976C32.4344 53.7764 31.8135 53.3334 31.7055 52.722C31.5975 52.1187 32.0295 51.5616 32.6612 51.491ZM33.3496 50.3931C33.2255 49.7165 33.6925 49.1105 34.4025 49.0289C35.1125 48.9447 35.7767 49.4175 35.9063 50.0969C36.0358 50.7736 35.5742 51.3823 34.8642 51.4692C34.1488 51.5562 33.4765 51.0779 33.3496 50.3931ZM35.2637 53.3334C35.8847 53.2791 36.4624 53.703 36.5542 54.2791C36.6487 54.8688 36.2329 55.396 35.6282 55.4558C35.0046 55.5183 34.4133 55.0835 34.3269 54.502C34.2405 53.9096 34.6617 53.3878 35.2637 53.3334ZM35.9765 52.203C35.8496 51.5535 36.2923 50.9584 36.9726 50.8714C37.653 50.7844 38.309 51.2355 38.4386 51.8823C38.5709 52.5399 38.1227 53.1378 37.437 53.2247C36.754 53.309 36.1033 52.8525 35.9765 52.203ZM37.6341 49.8632C37.4991 49.1621 37.9904 48.5153 38.7248 48.4229C39.4591 48.3306 40.1718 48.8279 40.3122 49.529C40.4499 50.2328 39.9666 50.8823 39.2323 50.9774C38.4872 51.0725 37.7691 50.5725 37.6341 49.8632ZM39.5779 52.7383C40.2204 52.6595 40.8278 53.0916 40.9466 53.7057C41.0654 54.328 40.6389 54.8824 39.9828 54.9585C39.3403 55.0319 38.7356 54.5998 38.6195 53.9802C38.5061 53.3688 38.9299 52.8171 39.5779 52.7383ZM40.2879 51.654C40.1637 50.9991 40.6227 50.385 41.3084 50.2953C41.9995 50.2029 42.6825 50.6757 42.8148 51.3388C42.9471 51.9992 42.4801 52.6215 41.7889 52.7084C41.0924 52.7927 40.4121 52.3171 40.2879 51.654ZM42.1615 54.6297C42.75 54.5563 43.3197 54.9531 43.4304 55.5156C43.541 56.0781 43.1523 56.5971 42.561 56.6705C41.9725 56.7439 41.4029 56.3471 41.2922 55.7846C41.1842 55.2221 41.573 54.7031 42.1615 54.6297ZM42.9741 53.4693C42.8607 52.8579 43.29 52.3035 43.9379 52.2274C44.5696 52.1541 45.1771 52.5889 45.2958 53.1949C45.4146 53.8063 44.9881 54.3661 44.3429 54.4422C43.703 54.521 43.0902 54.0835 42.9741 53.4693ZM44.6668 51.135C44.5426 50.4855 44.9908 49.8958 45.6738 49.8116C46.3541 49.7273 47.0048 50.1839 47.1317 50.8334C47.2612 51.491 46.8077 52.0834 46.1193 52.1676C45.4416 52.2465 44.7937 51.7872 44.6668 51.135ZM46.3892 48.7952C46.2596 48.1186 46.7186 47.5099 47.4286 47.4202C48.1386 47.3305 48.8082 47.7979 48.9432 48.4746C49.0781 49.1594 48.6165 49.7735 47.8984 49.8605C47.1856 49.9447 46.5188 49.4746 46.3892 48.7952ZM48.2763 51.7301C48.8865 51.6568 49.4723 52.0698 49.5857 52.6514C49.6991 53.2302 49.2968 53.7682 48.6894 53.847C48.0847 53.9259 47.4934 53.5182 47.3719 52.9367C47.2504 52.3552 47.6635 51.8035 48.2763 51.7301ZM49.0889 50.5806C48.9729 49.9719 49.4075 49.404 50.0473 49.3333C50.6791 49.2626 51.2919 49.7029 51.4026 50.3062C51.5133 50.9094 51.084 51.4692 50.4496 51.5426C49.8179 51.6187 49.2023 51.1839 49.0889 50.5806ZM50.8411 48.23C50.725 47.6131 51.1434 47.0615 51.7914 46.98C52.4447 46.8984 53.0575 47.3305 53.1736 47.9555C53.2897 48.5724 52.8712 49.1241 52.2233 49.2056C51.5727 49.2871 50.9598 48.855 50.8411 48.23ZM52.6121 45.8712C52.5014 45.2679 52.9306 44.7163 53.5651 44.6375C54.2049 44.5587 54.8177 44.9962 54.9338 45.6103C55.0472 46.2218 54.6179 46.7789 53.9727 46.8522C53.3356 46.9283 52.7255 46.4881 52.6121 45.8712ZM54.3912 48.9202C54.9608 48.8469 55.4981 49.2165 55.606 49.7599C55.7167 50.3062 55.3523 50.7953 54.7853 50.8687C54.2157 50.9421 53.6784 50.5725 53.5705 50.029C53.4598 49.4828 53.8215 48.9936 54.3912 48.9202ZM55.3388 47.6675C55.2389 47.1349 55.6114 46.6457 56.1703 46.5778C56.7264 46.5098 57.2664 46.893 57.3663 47.4256C57.4661 47.9583 57.0936 48.4474 56.5347 48.5153C55.9759 48.5806 55.4387 48.2001 55.3388 47.6675ZM57.1395 45.3169C57.0396 44.8032 57.3986 44.3304 57.9359 44.2625C58.4731 44.1973 58.9942 44.5614 59.0941 45.075C59.194 45.5886 58.8349 46.0614 58.2976 46.1294C57.7604 46.1973 57.2394 45.8332 57.1395 45.3169ZM58.9699 42.9499C58.8808 42.4689 59.2102 42.0396 59.7177 41.9771C60.2306 41.9146 60.7058 42.2542 60.7976 42.7461C60.8867 43.2271 60.5573 43.6565 60.0498 43.719C59.5368 43.7842 59.0617 43.4445 58.9699 42.9499ZM61.4887 39.7107C61.9396 39.6509 62.3877 39.9607 62.4768 40.3928C62.5632 40.8221 62.2608 41.2325 61.8073 41.2923C61.3564 41.352 60.9083 41.0422 60.8192 40.6102C60.7355 40.1808 61.0379 39.7705 61.4887 39.7107ZM62.3175 43.9418C62.7279 43.8875 63.1274 44.1646 63.2057 44.5587C63.284 44.95 63.0059 45.3141 62.5956 45.3631C62.1825 45.412 61.7857 45.1294 61.7155 44.738C61.6453 44.3494 61.9126 43.9962 62.3175 43.9418ZM62.7009 38.2378C62.6334 37.8655 62.9034 37.5149 63.2894 37.4715C63.6809 37.428 64.0642 37.7025 64.1317 38.072C64.1992 38.4443 63.9292 38.7949 63.5432 38.8384C63.1517 38.8791 62.7657 38.6074 62.7009 38.2378ZM64.1074 41.6863C64.4584 41.6428 64.812 41.8901 64.8741 42.2244C64.9362 42.5586 64.6906 42.8793 64.3396 42.9173C63.9859 42.9554 63.6377 42.7026 63.581 42.3684C63.5243 42.0396 63.7646 41.7298 64.1074 41.6863ZM64.3153 31.1669C64.5934 31.1343 64.8606 31.3245 64.9119 31.5908C64.9632 31.8653 64.7716 32.1099 64.4827 32.1398C64.2046 32.1669 63.94 31.974 63.8941 31.7077C63.8483 31.4386 64.0345 31.1995 64.3153 31.1669ZM63.5216 27.1178C63.7457 27.0907 63.9508 27.2374 63.994 27.4521C64.0345 27.6668 63.8941 27.857 63.6701 27.8842C63.4379 27.9141 63.2273 27.7646 63.1868 27.5418C63.149 27.3298 63.2948 27.145 63.5216 27.1178ZM63.3245 33.9251C63.392 34.3029 63.1166 34.6561 62.7198 34.6969C62.3283 34.7377 61.9504 34.4659 61.8802 34.0936C61.8073 33.7159 62.0772 33.3599 62.4741 33.3164C62.871 33.2702 63.2597 33.5474 63.3245 33.9251ZM62.5929 23.2047C62.682 23.3378 62.7576 23.4519 62.8386 23.5769C62.5659 23.5634 62.4768 23.4221 62.5929 23.2047ZM62.4822 29.7701C62.5524 30.1261 62.3148 30.4386 61.9396 30.4821C61.5751 30.5256 61.2376 30.2864 61.1701 29.9359C61.0999 29.5799 61.3375 29.2674 61.7128 29.2239C62.0772 29.1804 62.4147 29.4195 62.4822 29.7701ZM60.9272 25.183C61.2241 25.1531 61.5076 25.3623 61.5589 25.645C61.6102 25.9357 61.3969 26.1993 61.0918 26.2238C60.7949 26.2482 60.5141 26.0363 60.4682 25.7537C60.4223 25.4683 60.6302 25.2129 60.9272 25.183ZM60.1416 21.2426C60.317 21.2209 60.4898 21.3432 60.5249 21.5089C60.56 21.6829 60.4331 21.8459 60.2495 21.8649C60.0741 21.8812 59.904 21.7562 59.8743 21.5877C59.8473 21.422 59.9661 21.2644 60.1416 21.2426ZM60.0093 27.944C60.0957 28.3543 59.8257 28.7239 59.3991 28.7809C58.9699 28.838 58.5676 28.5608 58.4839 28.1505C58.4029 27.7401 58.6756 27.376 59.1049 27.3216C59.5287 27.2673 59.9283 27.5418 60.0093 27.944ZM59.059 23.8433C59.1157 24.1721 58.8862 24.4574 58.5352 24.4955C58.1897 24.5335 57.8738 24.3025 57.8117 23.9683C57.7523 23.6394 57.9764 23.3487 58.3246 23.3079C58.6783 23.2672 58.9996 23.5009 59.059 23.8433ZM57.5525 19.3784C57.7631 19.354 57.9791 19.5061 58.0169 19.7072C58.0547 19.9083 57.9035 20.104 57.6956 20.1285C57.485 20.1529 57.2691 20.0007 57.2313 19.7996C57.1935 19.5985 57.3419 19.4029 57.5525 19.3784ZM57.5066 26.1368C57.5984 26.5852 57.3015 26.9874 56.8371 27.0499C56.3674 27.1124 55.9273 26.8108 55.8355 26.3651C55.7437 25.9167 56.0407 25.5145 56.505 25.452C56.9748 25.3895 57.4148 25.6912 57.5066 26.1368ZM56.5374 22.009C56.6103 22.3595 56.362 22.6992 55.9921 22.7508C55.6276 22.8025 55.2524 22.547 55.1795 22.1937C55.1066 21.8432 55.355 21.5035 55.7248 21.4519C56.0893 21.4002 56.4618 21.6557 56.5374 22.009ZM54.9716 17.5686C55.1957 17.5414 55.4036 17.6827 55.4468 17.8974C55.4927 18.1202 55.3442 18.3132 55.112 18.3376C54.8879 18.3621 54.6827 18.2153 54.6422 17.9979C54.6017 17.7833 54.7448 17.5958 54.9716 17.5686ZM54.9689 24.3351C55.0634 24.808 54.7475 25.2265 54.2535 25.289C53.7594 25.3515 53.3005 25.0281 53.2114 24.5552C53.1223 24.0851 53.4409 23.6693 53.9376 23.6096C54.4236 23.5525 54.8771 23.8704 54.9689 24.3351ZM53.9727 20.2208C54.0402 20.5877 53.7945 20.9111 53.4112 20.96C53.0197 21.0089 52.658 20.7535 52.5878 20.3785C52.5203 20.0116 52.7659 19.6882 53.1493 19.6393C53.5408 19.5904 53.9025 19.8458 53.9727 20.2208ZM52.388 15.7778C52.5959 15.7479 52.8145 15.8973 52.8577 16.0984C52.9009 16.2968 52.7551 16.4979 52.5446 16.5278C52.3367 16.5577 52.118 16.4082 52.0748 16.2071C52.0343 16.006 52.1774 15.8076 52.388 15.7778ZM52.4096 22.5253C52.5068 22.99 52.1774 23.4384 51.6861 23.5036C51.1974 23.5688 50.7088 23.2291 50.617 22.759C50.5252 22.2916 50.86 21.8459 51.3513 21.7888C51.8372 21.7318 52.3124 22.0633 52.4096 22.5253ZM51.3891 18.4137C51.4593 18.7751 51.2028 19.1121 50.8249 19.1556C50.4469 19.1991 50.0797 18.9382 50.0149 18.5768C49.9501 18.2208 50.2012 17.892 50.5711 17.8458C50.949 17.7941 51.3189 18.0523 51.3891 18.4137ZM49.8152 14.0277C50.0095 13.9978 50.1877 14.1174 50.2282 14.3022C50.2687 14.4869 50.1499 14.65 49.9555 14.6745C49.7612 14.6989 49.5857 14.5766 49.5506 14.3891C49.5155 14.2125 49.6316 14.0576 49.8152 14.0277ZM49.826 20.7345C49.9178 21.1991 49.5965 21.6285 49.1105 21.6964C48.6192 21.7617 48.1359 21.4247 48.0496 20.9519C47.9632 20.4844 48.2898 20.0578 48.7758 19.998C49.2617 19.9382 49.7342 20.2698 49.826 20.7345ZM47.9983 16.0848C48.3465 16.0386 48.7029 16.2832 48.7677 16.6175C48.8325 16.9517 48.5895 17.2751 48.2412 17.3159C47.8957 17.3566 47.5528 17.1202 47.4826 16.7914C47.4097 16.4571 47.65 16.131 47.9983 16.0848ZM47.1991 12.3238C47.2963 12.2994 47.5582 12.4488 47.5744 12.5195C47.6041 12.6608 47.5123 12.7831 47.3611 12.7994C47.2099 12.8184 47.0777 12.726 47.0534 12.5793C47.0318 12.457 47.0696 12.3564 47.1991 12.3238ZM47.2018 18.9355C47.2936 19.3866 46.9913 19.7942 46.5188 19.854C46.0464 19.9138 45.6009 19.604 45.5145 19.1502C45.4281 18.6991 45.7332 18.2941 46.2084 18.2398C46.6754 18.1854 47.1128 18.4898 47.2018 18.9355ZM45.4362 14.3592C45.744 14.3185 46.0491 14.5277 46.1085 14.8212C46.1679 15.1147 45.9627 15.3919 45.6549 15.4354C45.3471 15.4761 45.0421 15.2669 44.9827 14.9734C44.9233 14.6799 45.1285 14.4 45.4362 14.3592ZM45.6063 21.2671C45.7089 21.7997 45.339 22.2916 44.7829 22.3622C44.2268 22.4329 43.6868 22.0552 43.5815 21.5225C43.4789 20.9899 43.8488 20.498 44.4049 20.4274C44.9638 20.3567 45.5037 20.7345 45.6063 21.2671ZM44.575 17.1555C44.6506 17.5713 44.3483 17.9599 43.9136 18.0034C43.4843 18.0496 43.0659 17.7507 42.9876 17.343C42.9066 16.93 43.2036 16.5387 43.6382 16.487C44.0729 16.4381 44.5021 16.7425 44.575 17.1555ZM42.885 12.6744C43.1388 12.6418 43.3683 12.8021 43.4142 13.044C43.46 13.2858 43.3008 13.4923 43.047 13.5222C42.7932 13.5494 42.5691 13.3864 42.526 13.1418C42.4828 12.9081 42.6393 12.707 42.885 12.6744ZM42.966 19.4844C43.0605 19.9926 42.7149 20.441 42.1804 20.5035C41.6485 20.566 41.1572 20.21 41.0654 19.6964C40.9763 19.1964 41.3192 18.7534 41.8456 18.6882C42.3748 18.623 42.8715 18.9735 42.966 19.4844ZM41.0654 14.7859C41.4569 14.7342 41.8213 14.9842 41.8942 15.3593C41.9671 15.7261 41.7214 16.0549 41.3408 16.1066C40.9493 16.1582 40.5849 15.9082 40.512 15.5332C40.4391 15.1663 40.6847 14.8375 41.0654 14.7859ZM40.3095 17.6963C40.3905 18.1474 40.0692 18.5659 39.5968 18.623C39.1162 18.68 38.6519 18.3485 38.5682 17.8892C38.4872 17.4381 38.8084 17.0196 39.2809 16.9626C39.7614 16.9055 40.2258 17.237 40.3095 17.6963ZM38.5277 13.12C38.8381 13.082 39.1189 13.2831 39.1756 13.5793C39.2323 13.8755 39.0352 14.131 38.7248 14.169C38.4143 14.207 38.1335 14.006 38.0768 13.7097C38.0201 13.4135 38.2172 13.1554 38.5277 13.12ZM38.6816 20.0116C38.7868 20.5388 38.4089 21.0388 37.8555 21.104C37.3074 21.1693 36.7702 20.7915 36.6649 20.267C36.5596 19.7399 36.9375 19.2398 37.491 19.1746C38.039 19.1121 38.579 19.4898 38.6816 20.0116ZM37.6152 15.9C37.6881 16.2886 37.4127 16.6555 37.0077 16.7126C36.5974 16.7696 36.1816 16.4789 36.106 16.0848C36.0331 15.6962 36.3085 15.3294 36.7135 15.2723C37.1238 15.218 37.5396 15.506 37.6152 15.9ZM35.9846 11.4977C36.1789 11.476 36.3706 11.6118 36.4084 11.7966C36.4462 11.9869 36.3031 12.1689 36.1006 12.188C35.9063 12.2043 35.7173 12.0629 35.6849 11.8782C35.6552 11.6934 35.7929 11.5194 35.9846 11.4977ZM35.99 18.2208C36.0871 18.6855 35.7551 19.1339 35.2637 19.1964C34.7751 19.2589 34.2864 18.9192 34.1946 18.4518C34.1056 17.9844 34.4403 17.5387 34.9317 17.4816C35.4176 17.4246 35.8955 17.7588 35.99 18.2208ZM34.1676 13.6364C34.4943 13.5929 34.8021 13.8049 34.8642 14.1174C34.9263 14.4299 34.7157 14.7071 34.3863 14.7478C34.0678 14.7859 33.7654 14.5766 33.7006 14.275C33.6385 13.9625 33.8437 13.6799 34.1676 13.6364ZM34.3323 20.5334C34.4322 21.0633 34.0489 21.5606 33.4954 21.6204C32.9447 21.6801 32.4101 21.297 32.3129 20.7752C32.2131 20.2453 32.5964 19.748 33.1499 19.6882C33.7006 19.6284 34.2351 20.0116 34.3323 20.5334ZM33.2686 16.4354C33.3523 16.8267 33.0689 17.2072 32.6558 17.2588C32.2509 17.3104 31.8459 17.0305 31.7622 16.6419C31.6785 16.2506 31.962 15.8701 32.375 15.8185C32.7827 15.7669 33.1877 16.0495 33.2686 16.4354ZM31.6353 12.0466C31.827 12.0195 32.0241 12.1526 32.0646 12.3374C32.1078 12.5276 31.9674 12.7124 31.7676 12.7342C31.5732 12.7559 31.3815 12.6173 31.3465 12.4325C31.3087 12.2505 31.4409 12.0738 31.6353 12.0466ZM31.611 18.7398C31.7028 19.1991 31.3815 19.6257 30.901 19.6828C30.4286 19.7399 29.9669 19.4165 29.8751 18.9654C29.7833 18.5061 30.1046 18.0795 30.5851 18.0224C31.0603 17.9653 31.5219 18.2887 31.611 18.7398ZM29.8346 14.1799C30.1451 14.1418 30.4259 14.3429 30.4825 14.6391C30.5392 14.9353 30.3422 15.1908 30.0317 15.2288C29.7212 15.2669 29.4405 15.0658 29.3838 14.7696C29.3271 14.4734 29.5215 14.2152 29.8346 14.1799ZM29.9291 21.0904C30.0236 21.5986 29.678 22.047 29.1408 22.1095C28.6089 22.1693 28.1176 21.816 28.0258 21.3024C27.9367 20.8024 28.2796 20.3594 28.806 20.2942C29.3406 20.229 29.8346 20.5796 29.9291 21.0904ZM28.0339 16.3973C28.4119 16.3484 28.7817 16.6066 28.8519 16.968C28.9221 17.3294 28.6683 17.6664 28.2877 17.7099C27.9097 17.7561 27.5426 17.4925 27.4751 17.1311C27.413 16.7751 27.664 16.4463 28.0339 16.3973ZM28.2283 23.4248C28.3309 23.9574 27.9583 24.4465 27.3995 24.5172C26.8433 24.5851 26.3034 24.2074 26.2008 23.6721C26.0982 23.1394 26.4708 22.6503 27.0296 22.5796C27.5858 22.5117 28.1257 22.8921 28.2283 23.4248ZM27.1835 19.2942C27.2699 19.6991 26.9837 20.0877 26.5545 20.1475C26.1306 20.2073 25.7041 19.9165 25.6177 19.5061C25.5313 19.1012 25.8174 18.7126 26.2467 18.6529C26.6706 18.5931 27.0971 18.8838 27.1835 19.2942ZM25.5043 14.8294C25.7581 14.7967 25.9875 14.9571 26.0334 15.1989C26.0793 15.4408 25.92 15.6473 25.6663 15.6772C25.4125 15.7071 25.1857 15.5413 25.1452 15.2995C25.102 15.0631 25.2586 14.8592 25.5043 14.8294ZM25.48 21.6339C25.5718 22.085 25.2721 22.4927 24.797 22.5525C24.3245 22.6122 23.8791 22.3024 23.7927 21.8513C23.7063 21.4057 24.0032 21.0062 24.4676 20.941C24.94 20.8785 25.3855 21.1828 25.48 21.6339ZM23.7144 17.0604C24.0221 17.0196 24.3272 17.2289 24.3893 17.5224C24.4514 17.8159 24.2435 18.0958 23.9358 18.1365C23.628 18.1773 23.3229 17.9681 23.2608 17.6746C23.1987 17.3811 23.4039 17.1039 23.7144 17.0604ZM23.7576 23.9819C23.8494 24.4465 23.5281 24.8759 23.0421 24.9438C22.5508 25.0091 22.0676 24.6721 21.9812 24.1993C21.8948 23.7318 22.2214 23.3052 22.7074 23.2454C23.196 23.1883 23.6658 23.5172 23.7576 23.9819ZM21.9488 19.3295C22.3024 19.2915 22.6507 19.5469 22.7047 19.8784C22.7587 20.2154 22.5076 20.5334 22.1593 20.5633C21.803 20.5931 21.4574 20.335 21.4088 20.0034C21.3629 19.6719 21.6059 19.3676 21.9488 19.3295ZM21.2873 15.5631C21.3737 15.5902 21.4682 15.6854 21.5006 15.7696C21.5546 15.9055 21.4439 16.0305 21.2927 16.0468C21.1497 16.0631 21.012 15.9734 20.9877 15.8457C20.9769 15.775 21.2009 15.5359 21.2873 15.5631ZM20.9796 22.2073C21.0498 22.5688 20.796 22.9057 20.418 22.9519C20.0401 22.9981 19.6729 22.7372 19.6054 22.3758C19.5406 22.0198 19.789 21.691 20.1589 21.6421C20.5368 21.5905 20.9067 21.8459 20.9796 22.2073ZM19.4326 17.8186C19.6216 17.8023 19.7863 17.9273 19.8187 18.1039C19.8538 18.2887 19.7296 18.449 19.5352 18.4681C19.3408 18.4898 19.1681 18.3594 19.1384 18.1746C19.1087 17.9925 19.2383 17.8349 19.4326 17.8186ZM19.2194 24.5634C19.2869 24.9303 19.0412 25.2536 18.6578 25.3026C18.2664 25.3515 17.9046 25.096 17.8344 24.721C17.7669 24.3541 18.0126 24.0308 18.3959 23.9819C18.7874 23.9329 19.1492 24.1884 19.2194 24.5634ZM17.6481 20.1176C17.8587 20.0958 18.0747 20.248 18.1098 20.4491C18.1449 20.6502 17.9937 20.8459 17.7831 20.8676C17.5725 20.8894 17.3566 20.7372 17.3215 20.5361C17.2864 20.3377 17.4376 20.142 17.6481 20.1176ZM17.443 26.9086C17.5104 27.2619 17.254 27.5961 16.8868 27.6423C16.517 27.6858 16.1498 27.4249 16.0823 27.0744C16.0148 26.7211 16.2713 26.3868 16.6384 26.3406C17.0083 26.2972 17.3755 26.558 17.443 26.9086ZM15.8825 22.4573C16.1066 22.4329 16.3118 22.5796 16.3523 22.7943C16.3955 23.0171 16.2443 23.2074 16.0094 23.2291C15.7853 23.2508 15.5829 23.0987 15.5451 22.8813C15.5073 22.6666 15.6557 22.4818 15.8825 22.4573ZM15.6152 29.2538C15.6827 29.5853 15.4668 29.8815 15.1239 29.9277C14.7702 29.9766 14.4409 29.7511 14.3761 29.4114C14.3113 29.0799 14.5327 28.7891 14.8782 28.7429C15.2265 28.7021 15.5478 28.925 15.6152 29.2538ZM14.1061 24.8161C14.314 24.7862 14.5327 24.9357 14.5759 25.1368C14.6191 25.3352 14.4733 25.5363 14.2627 25.5661C14.0548 25.596 13.8361 25.4466 13.7929 25.2455C13.7497 25.0444 13.8955 24.846 14.1061 24.8161ZM13.1315 31.1696C13.4285 31.1343 13.7147 31.3354 13.7713 31.618C13.828 31.9006 13.631 32.1642 13.3367 32.205C13.0424 32.2457 12.7509 32.0474 12.6888 31.7675C12.6267 31.4767 12.8291 31.2049 13.1315 31.1696ZM12.3594 27.2265C12.5349 27.2048 12.7077 27.3244 12.7428 27.4928C12.7779 27.6613 12.6618 27.8189 12.4863 27.8461C12.3135 27.8733 12.1353 27.7564 12.0948 27.5907C12.0543 27.4195 12.1758 27.251 12.3594 27.2265ZM10.5587 40.8221C10.3913 40.8384 10.2401 40.727 10.2104 40.5667C10.178 40.4009 10.2941 40.2569 10.4696 40.2406C10.637 40.2243 10.7882 40.3357 10.8179 40.496C10.8476 40.6618 10.7315 40.8058 10.5587 40.8221ZM11.3281 44.9772C11.1607 44.9908 11.0095 44.8766 10.9825 44.7163C10.9528 44.5505 11.0716 44.4065 11.2471 44.3929C11.4145 44.3793 11.5657 44.4935 11.5927 44.6538C11.6224 44.8196 11.5036 44.9636 11.3281 44.9772ZM11.7682 38.2378C11.7196 37.9715 11.9085 37.7296 12.1866 37.697C12.4647 37.6644 12.732 37.8519 12.7833 38.1182C12.8345 38.3845 12.6537 38.6291 12.3756 38.6672C12.0921 38.7052 11.8168 38.5123 11.7682 38.2378ZM12.5457 42.3847C12.4998 42.1021 12.705 41.8439 13.0019 41.8113C13.2989 41.7787 13.5851 41.9852 13.6364 42.2678C13.6877 42.5504 13.4879 42.8113 13.1909 42.8467C12.8858 42.8874 12.5916 42.6755 12.5457 42.3847ZM13.9522 46.9473C13.6769 46.98 13.4258 46.7979 13.3826 46.5316C13.3421 46.2761 13.5203 46.0533 13.7902 46.0261C14.0602 45.9989 14.3032 46.1783 14.3491 46.4365C14.395 46.6919 14.2222 46.9147 13.9522 46.9473ZM14.7405 50.991C14.5327 51.0154 14.3464 50.8823 14.3059 50.6839C14.2654 50.4774 14.3977 50.3034 14.6137 50.279C14.8215 50.2545 15.0078 50.3877 15.0483 50.5861C15.0915 50.7926 14.9592 50.9665 14.7405 50.991ZM14.9322 44.2244C14.8593 43.8494 15.1131 43.5179 15.5046 43.469C15.896 43.4201 16.2605 43.6782 16.3334 44.0532C16.4063 44.4282 16.1525 44.7598 15.761 44.8087C15.3669 44.8549 15.0024 44.5994 14.9322 44.2244ZM15.7961 48.3523C15.7448 48.0208 15.9851 47.7137 16.328 47.6729C16.6789 47.6322 17.0299 47.8822 17.0893 48.2164C17.1487 48.5534 16.9003 48.8713 16.552 48.9067C16.1984 48.9393 15.8501 48.6838 15.7961 48.3523ZM17.3296 52.915C17.0569 52.9367 16.7923 52.7383 16.7545 52.4856C16.714 52.2274 16.9057 51.9856 17.173 51.9584C17.4484 51.9312 17.7237 52.135 17.7588 52.3959C17.7939 52.6541 17.5968 52.8932 17.3296 52.915ZM17.3809 46.037C17.2999 45.6049 17.613 45.2 18.0639 45.1484C18.5174 45.0967 18.9629 45.412 19.0412 45.844C19.1222 46.2761 18.809 46.681 18.3582 46.7327C17.9046 46.7843 17.4591 46.4664 17.3809 46.037ZM18.2907 50.1866C18.2097 49.7926 18.4688 49.4447 18.8792 49.3904C19.2923 49.336 19.6729 49.5969 19.7539 49.9909C19.8349 50.385 19.5757 50.7328 19.1654 50.7872C18.7523 50.8415 18.3717 50.5779 18.2907 50.1866ZM19.9375 54.7927C19.6108 54.8308 19.3084 54.6134 19.2518 54.2982C19.1951 53.9884 19.4137 53.7139 19.7431 53.6786C20.0617 53.646 20.3586 53.8579 20.418 54.165C20.4774 54.4775 20.2641 54.7547 19.9375 54.7927ZM20.6907 58.676C20.5233 58.6923 20.3721 58.5809 20.3424 58.4206C20.31 58.2548 20.4261 58.1108 20.6016 58.0945C20.769 58.0782 20.9202 58.1896 20.9499 58.3499C20.9823 58.5157 20.8662 58.6597 20.6907 58.676ZM20.796 51.9774C20.7177 51.5508 21.0093 51.173 21.4628 51.1214C21.911 51.0698 22.324 51.3687 22.4023 51.8008C22.4806 52.2274 22.189 52.6052 21.7355 52.6568C21.29 52.7084 20.8743 52.4095 20.796 51.9774ZM22.513 56.6325C22.1674 56.6705 21.8516 56.4395 21.7922 56.1053C21.7328 55.7765 21.9569 55.4857 22.3051 55.4449C22.6507 55.4042 22.9693 55.6297 23.034 55.9613C23.0961 56.2982 22.8694 56.5917 22.513 56.6325ZM23.3418 53.7954C23.2527 53.347 23.5524 52.9476 24.0221 52.8905C24.4919 52.8307 24.9292 53.1351 25.0156 53.5835C25.1047 54.0318 24.8051 54.4313 24.3353 54.4884C23.8656 54.5482 23.4282 54.2438 23.3418 53.7954ZM25.1155 58.4396C24.7646 58.4885 24.4298 58.2603 24.3623 57.9233C24.2921 57.589 24.5162 57.2847 24.8672 57.2358C25.2181 57.1868 25.5502 57.4151 25.6204 57.7521C25.6879 58.0863 25.4665 58.3907 25.1155 58.4396ZM25.8984 55.5998C25.8094 55.1487 26.136 54.7221 26.6058 54.6705C27.0755 54.6215 27.5291 54.9449 27.6101 55.3906C27.691 55.839 27.3752 56.252 26.9081 56.3091C26.4438 56.3634 25.9875 56.0455 25.8984 55.5998ZM27.6883 60.225C27.3482 60.2712 27.0134 60.0402 26.9513 59.7141C26.8892 59.3962 27.1133 59.0972 27.4454 59.0538C27.7855 59.0076 28.1203 59.2386 28.1824 59.5647C28.2418 59.8826 28.0204 60.1788 27.6883 60.225ZM28.501 57.3961C28.4146 56.9586 28.7142 56.5591 29.1705 56.4966C29.6348 56.4341 30.0803 56.7439 30.1667 57.1868C30.2531 57.6244 29.9534 58.0238 29.4972 58.0863C29.0328 58.1461 28.5874 57.839 28.501 57.3961ZM30.2504 61.9778C29.9426 62.0158 29.6375 61.8039 29.5808 61.5104C29.5215 61.2169 29.7293 60.9397 30.0398 60.8989C30.3476 60.8609 30.6526 61.0729 30.7093 61.3663C30.7687 61.6626 30.5608 61.9397 30.2504 61.9778ZM30.0884 55.0672C29.9858 54.5373 30.3665 54.04 30.9199 53.9775C31.4679 53.915 32.0052 54.2954 32.1078 54.8172C32.2104 55.3471 31.8297 55.8444 31.2763 55.9069C30.7282 55.9694 30.191 55.5917 30.0884 55.0672ZM31.1197 59.1924C31.0414 58.7847 31.3249 58.3988 31.7514 58.3391C32.1807 58.2766 32.6153 58.5728 32.7017 58.9858C32.7881 59.3989 32.4965 59.7929 32.0646 59.85C31.6299 59.9043 31.2007 59.6054 31.1197 59.1924ZM32.8016 63.6925C32.5397 63.7224 32.2968 63.5458 32.2509 63.2958C32.2023 63.0403 32.3831 62.812 32.6531 62.7876C32.9123 62.7631 33.1553 62.9425 33.1985 63.1925C33.2389 63.4425 33.0635 63.6626 32.8016 63.6925ZM32.7098 56.8607C32.6153 56.3553 32.9744 55.8825 33.5008 55.82C34.03 55.7575 34.551 56.1243 34.6455 56.627C34.74 57.1325 34.3809 57.6053 33.8545 57.6678C33.3226 57.7303 32.8043 57.3635 32.7098 56.8607ZM34.6158 61.5837C34.2189 61.6299 33.8329 61.35 33.7654 60.9723C33.6979 60.5946 33.976 60.2413 34.3728 60.2033C34.7643 60.1652 35.1422 60.437 35.2124 60.8065C35.2826 61.1843 35.01 61.5375 34.6158 61.5837ZM35.3582 58.6597C35.2664 58.1923 35.6012 57.7467 36.0898 57.6869C36.5731 57.6271 37.0509 57.9586 37.1508 58.4206C37.2507 58.8853 36.9214 59.3337 36.43 59.4016C35.9414 59.4668 35.45 59.1271 35.3582 58.6597ZM37.1778 63.2795C36.8458 63.3202 36.5191 63.0919 36.4516 62.7767C36.3841 62.4533 36.6136 62.149 36.9538 62.1055C37.2858 62.0647 37.6125 62.293 37.68 62.6082C37.7475 62.9343 37.518 63.2387 37.1778 63.2795ZM36.9753 56.32C36.8728 55.771 37.2696 55.2574 37.842 55.1976C38.4116 55.1379 38.965 55.5319 39.0649 56.0727C39.1675 56.6216 38.7707 57.1352 38.1983 57.195C37.6287 57.2548 37.0752 56.8607 36.9753 56.32ZM38.9758 61.1109C38.5277 61.1653 38.1119 60.8718 38.0282 60.4424C37.9472 60.013 38.2361 59.6353 38.6843 59.581C39.1324 59.5266 39.5482 59.8201 39.6319 60.2495C39.7156 60.6788 39.4267 61.0566 38.9758 61.1109ZM39.6454 58.0999C39.5563 57.5999 39.8991 57.1542 40.4229 57.0917C40.9547 57.0265 41.4488 57.3771 41.546 57.888C41.6404 58.3961 41.2949 58.8445 40.7603 58.907C40.2285 58.9668 39.7372 58.6108 39.6454 58.0999ZM41.5325 62.7822C41.1626 62.8284 40.8143 62.5838 40.7441 62.2305C40.6712 61.8718 40.9196 61.5484 41.2976 61.5049C41.6674 61.4642 42.013 61.7115 42.0805 62.0647C42.1426 62.4234 41.9023 62.7387 41.5325 62.7822ZM42.3478 59.9016C42.2641 59.4695 42.5691 59.0619 43.02 59.0048C43.4708 58.9478 43.919 59.2603 44.0027 59.6924C44.0864 60.1245 43.7813 60.5321 43.3305 60.5891C42.8796 60.6462 42.4315 60.3337 42.3478 59.9016ZM44.0756 64.4072C43.8002 64.4398 43.5464 64.2578 43.5032 63.9914C43.46 63.736 43.6382 63.5132 43.9082 63.486C44.1782 63.4561 44.4211 63.6354 44.4697 63.8936C44.5183 64.1518 44.3456 64.3746 44.0756 64.4072ZM44.0027 57.5945C43.9082 57.0972 44.2511 56.6461 44.7748 56.5808C45.2959 56.5156 45.7926 56.8635 45.8898 57.3635C45.9897 57.8689 45.6441 58.3228 45.1096 58.3853C44.5885 58.4478 44.0972 58.0972 44.0027 57.5945ZM45.8817 62.2713C45.5118 62.3175 45.1636 62.0729 45.0934 61.7196C45.0205 61.3609 45.2689 61.0375 45.6468 60.994C46.0167 60.9533 46.3622 61.2006 46.4297 61.5538C46.4918 61.9098 46.2515 62.2251 45.8817 62.2713ZM45.6711 55.2765C45.5604 54.733 45.9465 54.2112 46.5188 54.1405C47.0858 54.0699 47.6419 54.4585 47.7553 54.9993C47.866 55.5428 47.4799 56.0645 46.9076 56.1352C46.3406 56.2031 45.7818 55.8172 45.6711 55.2765ZM47.6662 60.0511C47.218 60.1054 46.8023 59.8092 46.7213 59.3771C46.6403 58.9478 46.9319 58.57 47.3827 58.5184C47.8309 58.4641 48.2466 58.7603 48.3276 59.1924C48.4086 59.6217 48.1197 59.9994 47.6662 60.0511ZM48.3897 57.0374C48.3087 56.5645 48.6516 56.127 49.1402 56.0781C49.6289 56.0292 50.1013 56.3689 50.1877 56.8281C50.2768 57.2983 49.9367 57.7412 49.448 57.7956C48.9567 57.8526 48.4707 57.5048 48.3897 57.0374ZM50.2093 61.668C49.8827 61.7033 49.5587 61.475 49.4993 61.1653C49.4372 60.85 49.6694 60.5429 50.0014 60.5076C50.3281 60.4723 50.6521 60.7006 50.7115 61.0104C50.7709 61.3256 50.5387 61.6299 50.2093 61.668ZM50.0905 54.7167C49.9879 54.2166 50.3416 53.7384 50.868 53.665C51.3918 53.5943 51.9155 53.9557 52.0208 54.4585C52.1234 54.9585 51.7698 55.4368 51.2433 55.5102C50.7196 55.5835 50.1958 55.2221 50.0905 54.7167ZM51.9938 59.4288C51.597 59.4723 51.2109 59.1924 51.1461 58.8146C51.0813 58.4423 51.3486 58.0972 51.7374 58.0483C52.1315 57.9994 52.523 58.2738 52.5932 58.6516C52.6607 59.032 52.388 59.3853 51.9938 59.4288ZM51.8129 52.3742C51.7077 51.847 52.0829 51.347 52.6364 51.279C53.1844 51.2138 53.7216 51.5888 53.8269 52.1106C53.9322 52.6378 53.557 53.1405 53.0035 53.2057C52.4582 53.2709 51.9182 52.8959 51.8129 52.3742ZM52.8388 56.4749C52.7686 56.0645 53.0602 55.6868 53.4868 55.6324C53.9187 55.5781 54.3507 55.8825 54.4263 56.2955C54.5046 56.7086 54.2049 57.0999 53.7702 57.1488C53.3356 57.1977 52.909 56.8879 52.8388 56.4749ZM54.5424 60.9886C54.2751 61.0267 54.0213 60.8473 53.9754 60.5919C53.9295 60.3419 54.1023 60.119 54.3615 60.0891C54.6206 60.0565 54.869 60.2304 54.9176 60.4777C54.9662 60.7277 54.8015 60.9533 54.5424 60.9886ZM54.5667 54.1487C54.4803 53.7057 54.7853 53.3008 55.2524 53.2465C55.7086 53.1921 56.146 53.5019 56.2324 53.9367C56.3188 54.3797 56.0137 54.7846 55.5466 54.8389C55.0904 54.8933 54.653 54.5835 54.5667 54.1487ZM56.3134 58.7304C56.0056 58.7657 55.7005 58.5537 55.6465 58.2575C55.5925 57.9613 55.8004 57.6869 56.1082 57.6515C56.416 57.6162 56.721 57.8282 56.775 58.1244C56.8317 58.4179 56.6211 58.6951 56.3134 58.7304ZM56.3107 51.8062C56.2189 51.3578 56.5428 50.9285 57.0126 50.8741C57.4823 50.8225 57.9359 51.1432 58.0196 51.5888C58.1033 52.0345 57.7901 52.4503 57.3231 52.51C56.8587 52.5726 56.4025 52.2519 56.3107 51.8062ZM58.0979 56.4287C57.7577 56.4749 57.4229 56.2439 57.3609 55.9178C57.2988 55.5998 57.5228 55.3009 57.8549 55.2574C58.1951 55.2112 58.5298 55.4422 58.5919 55.7683C58.654 56.0863 58.4299 56.3852 58.0979 56.4287ZM58.0952 49.4583C58.0061 49.0099 58.303 48.6105 58.7674 48.5479C59.2371 48.4854 59.6772 48.7898 59.7663 49.2355C59.8554 49.6839 59.5584 50.0833 59.0941 50.1458C58.6243 50.2056 58.1843 49.904 58.0952 49.4583ZM59.8608 54.1106C59.5179 54.1541 59.1724 53.915 59.0995 53.5889C59.0266 53.2574 59.2641 52.9313 59.6124 52.8823C59.9607 52.8334 60.317 53.078 60.3845 53.4123C60.4547 53.7438 60.2117 54.0672 59.8608 54.1106ZM59.8905 47.0859C59.8122 46.6593 60.1065 46.2843 60.56 46.2327C61.0082 46.181 61.4212 46.4799 61.4995 46.912C61.5778 47.3387 61.2835 47.7137 60.83 47.7653C60.3845 47.8169 59.9715 47.518 59.8905 47.0859ZM61.6048 51.741C61.2592 51.7763 60.9461 51.5453 60.8867 51.2111C60.8273 50.8823 61.0541 50.5942 61.405 50.5535C61.7506 50.5127 62.0691 50.741 62.1312 51.0752C62.1933 51.4122 61.9639 51.7057 61.6048 51.741ZM62.3715 55.608C62.196 55.6243 62.0233 55.502 61.9936 55.3335C61.9612 55.1596 62.0934 54.9966 62.277 54.983C62.4525 54.9694 62.6226 55.0998 62.6469 55.2683C62.6739 55.4368 62.5497 55.589 62.3715 55.608ZM63.3704 49.3578C63.0437 49.3931 62.7441 49.173 62.6874 48.8577C62.6334 48.5534 62.8467 48.2816 63.1652 48.2436C63.4919 48.2028 63.797 48.4202 63.8537 48.7327C63.9157 49.0452 63.6998 49.3197 63.3704 49.3578ZM64.1344 53.2383C63.967 53.2546 63.8159 53.1459 63.7835 52.9856C63.7511 52.8198 63.8645 52.6731 64.0399 52.6568C64.2073 52.6405 64.3585 52.7492 64.3909 52.9095C64.4206 53.0753 64.3072 53.222 64.1344 53.2383ZM65.1252 46.9283C64.8552 46.9582 64.588 46.768 64.5394 46.5126C64.4908 46.2571 64.6771 46.0098 64.9416 45.9745C65.2089 45.9392 65.4816 46.1267 65.5356 46.3821C65.5923 46.643 65.4006 46.8984 65.1252 46.9283ZM66.0971 40.4308C65.8271 40.4716 65.5437 40.2786 65.4924 40.0178C65.4438 39.7623 65.6301 39.515 65.8946 39.4797C66.1619 39.4444 66.4346 39.6319 66.4886 39.8873C66.5453 40.1373 66.3644 40.3873 66.0971 40.4308ZM66.8638 44.4608C66.6559 44.4826 66.4697 44.3494 66.4319 44.1511C66.3914 43.9445 66.5264 43.7706 66.7423 43.7489C66.9502 43.7271 67.1365 43.8603 67.1743 44.0587C67.2175 44.2625 67.0798 44.4364 66.8638 44.4608ZM66.9934 33.7485C66.826 33.7648 66.6749 33.6561 66.6425 33.4958C66.6101 33.33 66.7234 33.1833 66.8989 33.167C67.0663 33.1507 67.2175 33.2594 67.2499 33.4197C67.2823 33.5855 67.1689 33.7322 66.9934 33.7485ZM67.8168 37.8954C67.6494 37.9171 67.4929 37.8139 67.4578 37.6535C67.42 37.4878 67.5253 37.3383 67.7007 37.3139C67.8735 37.2921 68.0355 37.4062 68.0652 37.572C68.0895 37.7351 67.9842 37.8737 67.8168 37.8954Z" fill="#ADADAD"/>
<path d="M39.162 36.398C38.8299 36.4388 38.4682 36.485 38.1388 36.5257C38.1982 36.8247 38.2576 37.1399 38.3197 37.4497C38.6653 37.4062 38.9892 37.3654 39.2889 37.3274C39.2484 37.023 39.2025 36.6942 39.162 36.398Z" fill="#ADADAD"/>
<path d="M40.0017 35.292C40.439 35.0746 40.8845 35.042 41.3839 35.1697C41.0653 34.6588 41.0329 34.167 41.2462 33.6697C40.7819 34.0528 40.2473 34.1479 39.6075 33.9632C39.9504 34.3789 40.0502 34.8137 40.0017 35.292Z" fill="#ADADAD"/>
<path d="M29.632 53.0371L31.7405 42.8465L26.2817 50.624L23.6333 53.0371H19.4784L17.073 44.6917L15.8716 50.5071L13.0963 53.0371H0.988132L7.7536 20.3294L10.5289 17.8021H22.7856L27.2104 32.4902L35.9872 20.2098L38.6329 17.8021H51.2783L44.5155 50.5071L41.7402 53.0371H29.632Z" fill="black"/>
<path d="M50.2931 18.6093L43.7814 50.0833L41.4299 52.2274H30.6203L33.3146 39.1997L25.6744 50.0833L23.323 52.2274H20.0833L16.9463 41.3438L15.1375 50.0833L12.786 52.2274H1.97637L8.48537 20.7534L10.8368 18.6093H22.1864L26.9109 34.2892L36.5893 20.7534L38.9408 18.6093H50.2931ZM52.2665 16.9924H50.2904H38.9408H38.3226L37.8636 17.4109L35.5122 19.555L35.3853 19.6691L35.2854 19.8077L27.5048 30.6886L23.7252 18.1392L23.3797 16.9924H22.1891H10.8395H10.2213L9.76233 17.4109L7.41088 19.555L7.01943 19.9083L6.91144 20.4246L0.40244 51.8986L0.000183105 53.8443H1.97637H12.786H13.4042L13.8632 53.4258L16.2146 51.2817L16.6034 50.9284L16.7114 50.4121L17.2027 48.037L18.5391 52.6758L18.8765 53.8416H20.0833H23.3257H23.9439L24.4029 53.4231L26.7543 51.279L26.8866 51.1594L26.9892 51.0127L30.1667 46.4853L29.0491 51.8931L28.6468 53.8416H30.623H41.4326H42.0508L42.5098 53.4231L44.8612 51.279L45.25 50.9257L45.358 50.4094L51.867 18.9354L52.2665 16.9924Z" fill="black"/>
<path d="M36.5893 20.7534H47.9388L41.4298 52.2273H30.6202L33.6682 37.4877L23.3256 52.2273H20.0832L15.8366 37.4877L12.7886 52.2273H1.9763L8.48529 20.7534H19.8349L24.8023 37.2404L36.5893 20.7534Z" fill="black"/>
<path d="M38.9436 18.6093H50.2932L43.7815 50.0832H32.9718L36.0198 35.3436L25.6772 50.0832H22.4349L18.1882 35.3436L15.1376 50.0832H4.32793L10.8396 18.6093H22.1892L27.1567 35.0963L38.9436 18.6093Z" fill="white"/>
<path d="M49.621 19.1609L43.3387 49.537H33.6468L36.5571 35.4604L37.0916 32.8707L35.5744 35.0311L25.3938 49.537H22.8452L18.712 35.1941L18.0992 33.0718L17.651 35.2349L14.6921 49.5343H5.00016L11.2824 19.1609H21.7843L26.6329 35.2566L26.9542 36.3219L27.5994 35.4197L39.2244 19.1609H49.621ZM50.2932 18.6093H38.9436L27.1567 35.0963L22.1892 18.6093H10.8396L4.32793 50.0832H15.1376L18.1855 35.3436L22.4349 50.0832H25.6772L36.0225 35.3436L32.9745 50.0832H43.7842L50.2932 18.6093Z" fill="white"/>
<path d="M74.0667 35.1261C73.335 31.5825 70.0981 29.0906 66.2618 28.6965C65.7867 28.6476 65.1927 28.5416 64.4935 28.49C59.1724 28.0987 45.8007 25.0877 45.8007 25.0877L44.4455 27.2753C44.4455 27.2753 38.9542 63.3907 38.8922 63.8309C43.8218 63.369 52.1774 62.5456 54.1779 62.3608L55.5629 61.4314L53.0467 55.9692L53.9673 55.9475C56.0596 55.9366 57.6929 55.7491 59.7204 55.2953C61.7776 54.7844 63.7565 54.0181 65.6166 53.0153C73.9506 47.3467 74.6201 39.1942 74.0667 35.1261ZM54.9068 48.0695L53.9592 48.1972L55.2767 37.0284L55.7734 36.936C56.7237 36.7349 57.701 36.6588 58.681 36.7131V36.7457C61.891 36.9822 63.176 38.917 63.3029 40.648C63.5081 43.7161 60.4223 47.3304 54.9068 48.0695Z" fill="black"/>
<path d="M41.0897 60.676C41.1059 60.5565 41.3921 58.7249 41.9806 54.9204C43.3764 45.9255 45.9762 29.183 46.3731 26.4248L46.4622 25.8079L47.0777 25.7373C49.7666 25.4302 57.2043 24.797 63.0303 24.797C64.453 24.797 65.6976 24.8351 66.737 24.9112C67.2067 24.9465 67.6225 25.0008 67.9896 25.0497C68.184 25.0769 68.3649 25.1014 68.5296 25.1177C72.8356 25.5606 76.2562 28.4004 77.0364 32.1859L77.0418 32.213L77.0445 32.2402C77.417 34.9631 77.8814 44.3575 68.2488 50.9121L68.2137 50.9365L68.1786 50.9556C66.2618 51.9909 64.2155 52.7817 62.0962 53.3089C59.9958 53.779 58.2815 53.972 56.1541 53.9856L55.9435 53.991L55.1687 60.3689L54.5235 60.4287C52.523 60.6135 46.8887 61.1326 41.9591 61.5945L40.9467 61.6896L41.0897 60.676ZM57.0639 44.4852C62.0611 43.7868 64.8634 40.6128 64.6852 37.9306C64.6366 37.2594 64.2101 35.0311 60.8057 34.7811L60.1713 34.7349C59.5045 34.7403 58.8403 34.811 58.1924 34.9441L57.0639 44.4852Z" fill="white"/>
<path d="M63.0277 25.6068C64.3559 25.6068 65.5978 25.6394 66.675 25.7209C67.3742 25.7726 67.9681 25.8758 68.4433 25.9275C72.2796 26.3215 75.5165 28.8134 76.2481 32.357C76.8043 36.4251 76.132 44.5776 67.798 50.249C65.9379 51.2517 63.9591 52.0181 61.9019 52.5289C59.8744 52.9828 58.2411 53.1703 56.1488 53.1811L55.2282 53.2029L54.448 59.6243C52.4475 59.8091 46.8105 60.3281 41.8835 60.7901C41.9456 60.3499 46.6215 30.3298 47.1669 26.5416C49.6506 26.259 57.1774 25.6068 63.0277 25.6068ZM56.1434 45.4254L57.091 45.2977C62.6065 44.5585 65.6896 40.9443 65.4871 37.8762C65.3602 36.1452 64.0724 34.2104 60.8652 33.9739V33.9413C60.6627 33.9305 60.4602 33.925 60.2605 33.925C59.4856 33.925 58.7135 34.0065 57.9576 34.1642L57.4609 34.2566L56.1434 45.4254ZM63.0277 23.9899C57.1666 23.9899 49.6884 24.6285 46.986 24.9356L45.7549 25.0769L45.5767 26.3106C45.1826 29.0607 42.5855 45.7841 41.1897 54.7682C40.5796 58.6949 40.3096 60.4368 40.2907 60.5618L40.0045 62.5891L42.032 62.3989C46.6701 61.9641 52.11 61.4613 54.5938 61.2331L55.8842 61.1135L56.0408 59.8172L56.6509 54.7872C58.6136 54.7491 60.2713 54.5453 62.2447 54.1024L62.2636 54.0969L62.2825 54.0915C64.4666 53.548 66.5751 52.7328 68.5513 51.6675L68.6242 51.6295L68.6916 51.5833C72.6548 48.8848 75.4058 45.4037 76.8664 41.2323C78.2513 37.2811 78.0677 33.8326 77.8329 32.1288L77.8248 32.0744L77.814 32.0201C76.9608 27.8868 73.2596 24.7888 68.5999 24.3105C68.446 24.2942 68.2732 24.2698 68.0869 24.2453C67.7089 24.1937 67.2797 24.1366 66.7857 24.1013C65.7355 24.0279 64.4693 23.9899 63.0277 23.9899ZM58.916 35.637C59.321 35.58 59.7313 35.5474 60.1417 35.5419L60.7437 35.5854C63.4299 35.7838 63.8322 37.3355 63.8808 37.9931C64.0184 40.0638 61.8236 42.6101 57.9873 43.4906L58.916 35.637Z" fill="black"/>
</g>
<defs>
<clipPath id="clip0">
<rect width="78" height="76" fill="white" transform="translate(0.000183105)"/>
</clipPath>
</defs>
</svg>
