<?xml version="1.0" encoding="utf-8"?>
<!-- Generator: Adobe Illustrator 25.4.1, SVG Export Plug-In . SVG Version: 6.00 Build 0)  -->
<svg version="1.1" id="Ebene_1" xmlns="http://www.w3.org/2000/svg" xmlns:xlink="http://www.w3.org/1999/xlink" x="0px" y="0px"
	 viewBox="0 0 200 200" style="enable-background:new 0 0 200 200;" xml:space="preserve">
<style type="text/css">
	.st0{fill:#B4B4B4;}
	.st1{fill:#FFFFFF;}
</style>
<circle cx="100.1" cy="99.7" r="76.4"/>
<g>
	<path class="st0" d="M128.6,41.7l6.8,13.7l6.5-0.7c1.4-0.2,2.7,0.9,2.9,2.3c0,0.1,0,0.2,0,0.3c0,1.3-1,2.5-2.3,2.6l-6.7,0.7
		l-4.1,10.6l5.5,5.6l7.1-0.8c1.5-0.2,2.7,0.9,2.9,2.3c0,0.1,0,0.2,0,0.3c0,1.3-1,2.5-2.3,2.6l-6.6,0.7l-1.3,4.7
		c-0.4,1.4-1.8,2.2-3.2,1.8c-1.2-0.3-1.9-1.4-1.9-2.5c0-0.2,0-0.5,0.1-0.7l1.3-4.9l-5.3-5.4l-13.6,4.7l-4.5,27l3.1,2.1l12.9,8.5
		l14.2-4.9l4.4-11.4l-3.8-7.4c-0.2-0.4-0.3-0.8-0.3-1.2c0-1,0.5-1.9,1.4-2.3c1.3-0.7,2.9-0.1,3.5,1.2l3.5,6.8l7.9-0.8
		c1.5-0.2,2.7,0.9,2.9,2.3c0,0.1,0,0.2,0,0.3c0,1.3-1,2.5-2.3,2.6l-8.1,0.8l-4.1,10.6l1.8,1.8l3.7,3.8l11.4-1.1
		c1.7-5.9,2.7-12.1,2.7-18.5C164.8,74.2,150,52.2,128.6,41.7z"/>
	<path class="st0" d="M36.5,100.3L43,101l3.7-7.4L41.9,84c-0.2-0.4-0.3-0.8-0.3-1.2c0-1,0.5-1.9,1.4-2.3c1.3-0.7,2.9-0.1,3.5,1.2
		l4.4,8.8l8.2-0.9c1.5-0.2,2.7,0.9,2.9,2.3c0,0.1,0,0.2,0,0.3c0,1.3-1,2.5-2.3,2.6l-8.3,0.9l-4.1,8.2l4.4,11.4l7.1,2.5
		c0.1,0,0.1,0.1,0.2,0.1c0.1,0,0.2,0,0.4,0.1l15.9,6.1l29.4-17.9l4.7-27.9l-13.5-17H79.8l-9.7,12.2c-0.9,1.1-2.6,1.3-3.7,0.4
		c-0.7-0.5-1-1.3-1-2.1c0-0.6,0.2-1.1,0.6-1.6l9.4-11.9l-3.8-7.5c-0.2-0.4-0.3-0.8-0.3-1.2c0-1,0.5-1.9,1.4-2.3
		c1.3-0.7,2.9-0.1,3.5,1.2l3.8,7.6h15.2l4.2-10.9l-5-9.9c-33.1,2.8-59.2,30.6-59.2,64.4c0,0.2,0,0.4,0,0.7
		C35.7,100.3,36.1,100.2,36.5,100.3z"/>
	<path class="st0" d="M109.6,46.9l-5.3,0.6l-4.1,10.8L113,74.5l13.7-4.7l4.4-11.5l-9.8-19.7c-6.6-2.3-13.7-3.5-21-3.6l3.6,7.2
		l5.1-0.5c1.5-0.2,2.7,0.9,2.9,2.3c0,0.1,0,0.2,0,0.3C111.9,45.6,110.9,46.8,109.6,46.9z"/>
	<path class="st0" d="M46.7,116.8l-4.1-10.6l-6.7-0.7c-0.1,0-0.2-0.1-0.3-0.1c0.6,6.4,2.1,12.6,4.4,18.4v-0.1
		c0.1-0.1,0.2-0.2,0.3-0.3l0,0l0,0l0,0l5.7-5.8L46.7,116.8z"/>
	<path class="st0" d="M141.4,117.3l-13.4,4.6l-0.6,9.1l5.8,5.9l7.1-0.8c1.5-0.2,2.7,0.9,2.9,2.3c0,0.1,0,0.2,0,0.3
		c0,1.3-1,2.5-2.3,2.6l-6.6,0.7l-1.3,4.7c-0.3,1.2-1.4,1.9-2.5,1.9c-0.2,0-0.5,0-0.7-0.1c-1.4-0.4-2.2-1.8-1.8-3.2l1.3-4.9l-5.2-5.3
		l-4.4,2.1l-1.4,5.2c-0.4,1.4-1.8,2.2-3.2,1.8c-1.4-0.4-2.2-1.8-1.8-3.2l1.3-4.7l-2.4-2c-0.6-0.5-1-1.3-1-2c0-0.6,0.2-1.2,0.6-1.7
		c0.9-1.1,2.6-1.3,3.7-0.4l2.4,2l4.3-2l0.6-9L107,110.9l-28.6,17.4l3.7,33.5c5.7,1.7,11.7,2.6,18,2.6c27.3,0,50.6-16.9,60.1-40.8
		l-11.5,1.1L141.4,117.3z"/>
	<path class="st0" d="M73.2,128.9l-15.6-6c0,0-0.1,0-0.1-0.1c-0.1,0-0.2,0-0.3,0l-6.7-2.3l-6.4,6.8l2.6,9l2.1,2.8
		c7.1,9.3,16.8,16.6,27.8,20.9l-2.4-23.2L73.2,128.9z"/>
</g>
<g>
	<path class="st1" d="M128.6,41.7l6.8,13.7l6.5-0.7c0.1,0,0.2,0,0.3,0c1.3,0,2.4,1,2.6,2.3c0,0.1,0,0.2,0,0.3c0,1.3-1,2.5-2.3,2.6
		l-6.7,0.7l-4.1,10.6l5.5,5.6l7.1-0.8c0.1,0,0.2,0,0.3,0c1.3,0,2.4,1,2.6,2.3c0,0.1,0,0.2,0,0.3c0,1.3-1,2.5-2.3,2.6l-6.6,0.7
		l-1.3,4.7c-0.3,1.2-1.4,1.9-2.5,1.9c-0.2,0-0.5,0-0.7-0.1c-1.2-0.3-1.9-1.4-1.9-2.5c0-0.2,0-0.5,0.1-0.7l1.3-4.9l-5.3-5.4
		l-13.6,4.7l-4.5,27l3.1,2.1l12.9,8.5l14.2-4.9l4.4-11.4l-3.8-7.4c-0.2-0.4-0.3-0.8-0.3-1.2c0-1,0.5-1.9,1.4-2.3
		c0.4-0.2,0.8-0.3,1.2-0.3c1,0,1.9,0.5,2.3,1.4l3.5,6.8l7.9-0.8c0.1,0,0.2,0,0.3,0c1.3,0,2.4,1,2.6,2.3c0,0.1,0,0.2,0,0.3
		c0,1.3-1,2.5-2.3,2.6l-8.1,0.8l-4.1,10.6l1.8,1.8l3.7,3.8l11.4-1.1c1.7-5.9,2.7-12.1,2.7-18.5C164.8,74.2,150,52.2,128.6,41.7z
		 M142.2,52.9c-0.2,0-0.3,0-0.5,0l-5.3,0.6l-3.9-7.8C136,47.8,139.3,50.2,142.2,52.9L142.2,52.9z M160.7,116.6l-9.5,0.9l-3.1-3.2
		l-1-1l3.3-8.6l7.1-0.7c2.2-0.2,3.8-2.1,3.8-4.3c0-0.2,0-0.3,0-0.5c-0.2-2.2-2.1-3.8-4.3-3.8c-0.2,0-0.3,0-0.5,0l-6.7,0.7l-2.9-5.7
		c-0.7-1.5-2.2-2.4-3.9-2.4c-0.7,0-1.3,0.2-1.9,0.5c-1.5,0.7-2.4,2.2-2.4,3.9c0,0.7,0.2,1.3,0.5,1.9l3.4,6.7l-3.8,10l-12.7,4.3
		l-12.2-8l-2.2-1.5l4.2-24.9l11.6-4l3.9,4l-1.1,4c-0.1,0.4-0.2,0.8-0.2,1.1c0,1.9,1.3,3.7,3.2,4.2c0.4,0.1,0.8,0.2,1.1,0.2
		c1.9,0,3.7-1.3,4.2-3.2l1-3.5l5.4-0.6c2.2-0.2,3.8-2.1,3.8-4.3c0-0.2,0-0.3,0-0.5c-0.2-2.2-2.1-3.8-4.3-3.8c-0.2,0-0.3,0-0.5,0
		l-6.2,0.7l-4.1-4.2l3.3-8.6l5.7-0.6c2.2-0.2,3.8-2.1,3.8-4.3c0,0,0,0,0-0.1c2.5,2.7,4.7,5.7,6.7,8.8c6.4,10.1,9.8,21.7,9.8,33.7
		C163.1,105.4,162.3,111.1,160.7,116.6z"/>
	<path class="st1" d="M36.5,100.3L43,101l3.7-7.4L41.9,84c-0.2-0.4-0.3-0.8-0.3-1.2c0-1,0.5-1.9,1.4-2.3c0.4-0.2,0.8-0.3,1.2-0.3
		c1,0,1.9,0.5,2.3,1.4l4.4,8.8l8.2-0.9c0.1,0,0.2,0,0.3,0c1.3,0,2.4,1,2.6,2.3c0,0.1,0,0.2,0,0.3c0,1.3-1,2.5-2.3,2.6l-8.3,0.9
		l-4.1,8.2l4.4,11.4l7.1,2.5c0.1,0,0.1,0.1,0.2,0.1c0.1,0,0.2,0,0.4,0.1l15.9,6.1l29.4-17.9l4.7-27.9L95.9,61.3H79.8l-9.7,12.2
		c-0.5,0.7-1.3,1-2.1,1c-0.6,0-1.1-0.2-1.6-0.6c-0.7-0.5-1-1.3-1-2.1c0-0.6,0.2-1.1,0.6-1.6l9.4-11.9l-3.8-7.5
		c-0.2-0.4-0.3-0.8-0.3-1.2c0-1,0.5-1.9,1.4-2.3c0.4-0.2,0.8-0.3,1.2-0.3c1,0,1.9,0.5,2.3,1.4L80,56h15.2l4.2-10.9l-5-9.9
		C61.3,38,35.2,65.8,35.2,99.6c0,0.2,0,0.4,0,0.7c0.3-0.1,0.5-0.1,0.8-0.1C36.3,100.2,36.4,100.2,36.5,100.3z M53.8,57
		c10.4-11.3,24.5-18.4,39.8-19.9l4.1,8.2l-3.5,9.1h-13l-3.4-6.6c-0.7-1.5-2.2-2.4-3.9-2.4c-0.7,0-1.3,0.2-1.9,0.5
		c-1.5,0.7-2.4,2.2-2.4,3.9c0,0.7,0.2,1.3,0.5,1.9l3.3,6.5l-8.8,11c-0.6,0.8-0.9,1.7-0.9,2.7c0,1.3,0.6,2.6,1.6,3.4
		c0.8,0.6,1.7,0.9,2.7,0.9c1.3,0,2.6-0.6,3.4-1.6L80.6,63H95l12.5,15.7l-4.4,26.4l-28,17.1L60,116.4c-0.2-0.1-0.3-0.1-0.4-0.1
		c-0.1,0-0.1,0-0.2-0.1L53,114l-3.8-10l3.4-6.8l7.4-0.8c2.2-0.2,3.8-2.1,3.8-4.3c0-0.2,0-0.3,0-0.5c-0.2-2.2-2.1-3.8-4.3-3.8
		c-0.2,0-0.4,0-0.5,0l-7,0.8l-3.9-7.7c-0.7-1.5-2.2-2.4-3.9-2.4c-0.7,0-1.3,0.2-1.9,0.5c-1.5,0.7-2.4,2.2-2.4,3.9
		c0,0.7,0.2,1.3,0.5,1.9l4.4,8.8L42,99.2l-4.9-0.5C37.3,83.1,43.2,68.4,53.8,57z"/>
	<path class="st1" d="M109.6,46.9l-5.3,0.6l-4.1,10.8L113,74.5l13.7-4.7l4.4-11.5l-9.8-19.7c-6.6-2.3-13.7-3.5-21-3.6l3.6,7.2
		l5.1-0.5c0.1,0,0.2,0,0.3,0c1.3,0,2.4,1,2.6,2.3c0,0.1,0,0.2,0,0.3C111.9,45.6,110.9,46.8,109.6,46.9z M113.6,43.8
		c-0.2-2.2-2.1-3.8-4.3-3.8c-0.2,0-0.4,0-0.5,0l-3.9,0.4l-1.8-3.6c5.8,0.3,11.5,1.3,17,3.2l9.1,18.4l-3.8,10l-11.8,4L102,58l3.4-8.9
		l4.3-0.5c2.2-0.2,3.8-2.1,3.8-4.3C113.6,44.1,113.6,44,113.6,43.8z"/>
	<path class="st1" d="M46.7,116.8l-4.1-10.6l-6.7-0.7c-0.1,0-0.2-0.1-0.3-0.1c0.6,6.4,2.1,12.6,4.4,18.4v-0.1
		c0.1-0.1,0.2-0.2,0.3-0.3l0,0l0,0l0,0l5.7-5.8L46.7,116.8z M40.6,120.6c-1.5-4.3-2.5-8.7-3.1-13.2l3.9,0.4l3.3,8.6L40.6,120.6z"/>
	<path class="st1" d="M141.4,117.3l-13.4,4.6l-0.6,9.1l5.8,5.9l7.1-0.8c0.1,0,0.2,0,0.3,0c1.3,0,2.4,1,2.6,2.3c0,0.1,0,0.2,0,0.3
		c0,1.3-1,2.5-2.3,2.6l-6.6,0.7l-1.3,4.7c-0.3,1.2-1.4,1.9-2.5,1.9c-0.2,0-0.5,0-0.7-0.1c-1.4-0.4-2.2-1.8-1.8-3.2l1.3-4.9l-5.2-5.3
		l-4.4,2.1l-1.4,5.2c-0.3,1.2-1.4,1.9-2.5,1.9c-0.2,0-0.5,0-0.7-0.1c-1.4-0.4-2.2-1.8-1.8-3.2l1.3-4.7l-2.4-2c-0.6-0.5-1-1.3-1-2
		c0-0.6,0.2-1.2,0.6-1.7c0.5-0.6,1.3-1,2-1c0.6,0,1.2,0.2,1.7,0.6l2.4,2l4.3-2l0.6-9L107,110.9l-28.6,17.4l3.7,33.5
		c5.7,1.7,11.7,2.6,18,2.6c27.3,0,50.6-16.9,60.1-40.8l-11.5,1.1L141.4,117.3z M157.5,125.6c-4.7,10.5-12.2,19.4-21.7,26
		c-10.5,7.3-22.9,11.1-35.8,11.1c-5.5,0-11.1-0.7-16.4-2.2l-3.4-31.3l26.8-16.3l14.1,9.3l-0.5,7l-2.4,1.1l-1.6-1.3
		c-0.8-0.6-1.7-1-2.7-1c-1.3,0-2.5,0.6-3.3,1.6c-0.6,0.8-1,1.7-1,2.7c0,1.3,0.6,2.5,1.6,3.3l1.6,1.3l-1,3.7
		c-0.3,1.1-0.2,2.3,0.4,3.3s1.5,1.7,2.6,2c0.4,0.1,0.8,0.2,1.1,0.2c1.9,0,3.7-1.3,4.2-3.2l1.2-4.5l2.6-1.2l3.7,3.7l-1.1,4
		c-0.3,1.1-0.2,2.3,0.4,3.3s1.5,1.7,2.6,2c0.4,0.1,0.8,0.2,1.1,0.2c1.9,0,3.7-1.3,4.2-3.2l1-3.5l5.4-0.6c2.2-0.2,3.8-2.1,3.8-4.3
		c0-0.2,0-0.3,0-0.5c-0.2-2.2-2.1-3.8-4.3-3.8c-0.2,0-0.3,0-0.5,0l-6.2,0.7l-4.7-4.8l0.5-7.3l11.3-3.9l6.5,6.6l0.6,0.6l0.8-0.1
		L157.5,125.6z"/>
	<path class="st1" d="M73.2,128.9l-15.6-6c0,0-0.1,0-0.1-0.1c-0.1,0-0.2,0-0.3,0l-6.7-2.3l-6.4,6.8l2.6,9l2.1,2.8
		c7.1,9.3,16.8,16.6,27.8,20.9l-2.4-23.2L73.2,128.9z M50.1,138.1l-1.9-2.6l-2.3-7.8l5-5.3l5.7,2c0.1,0,0.2,0.1,0.3,0.1l14.7,5.6
		l0.9,6.9l2.1,20.3C65,153.1,56.6,146.5,50.1,138.1z"/>
</g>
</svg>
