<svg width="100" height="100" xmlns="http://www.w3.org/2000/svg" xml:space="preserve"><path fill="#fff" d="M70.6 1.3h22.3c3.5 0 6 2.4 6 5.9v45.5c0 1.8-.7 3.2-2 4.5-13.4 13.6-27 27.2-40.5 40.8-2.7 2.7-6 2.7-8.7 0-15-15.1-30-30.2-44.9-45.3-2.7-2.7-2.5-5.9.4-8.8C15.4 31.6 27.7 19.3 40 6.9c6.6-6.7 4.7-5.5 13.4-5.5 5.7-.1 11.5-.1 17.2-.1zm-5.8 44.4c.4-.4.8-.7 1.1-1 3.2-3.1 4-6.8 2.9-11-1.1-3.9-4-5.6-7.7-6.5-1.2-.3-2.4-.4-3.6-.5-4.9 0-9.8 0-14.7-.1-1.6 0-2.1.6-2.1 2.1v11.6c0 3.1 0 3.1-3.1 3.5-5.3.8-8.9 3.7-9.7 8.2-.4 2-.3 4.1 0 6.2.6 4.8.6 4.8 5.5 4.8h.6c2.2 0 2.6-.5 1.8-2.5-.7-1.8-1.2-3.5-1.1-5.4.1-2.5 1.4-4.1 3.8-4.7 2-.5 2.3-.3 2.3 1.8v15.4c0 2.6.4 3.1 3 3.1 3 0 6-.2 9 0 3.3.2 6.3-.7 9.4-1.7 3.1-1 5.7-3 7.4-5.9 3.5-6.2 1.8-12.8-4.8-17.4zm10.4-27.9c0 4.2 3.5 7.6 7.7 7.5 3.9 0 7.5-3.5 7.5-7.2-.1-5-3-8.1-7.7-8.1-4.3.2-7.5 3.5-7.5 7.8z" class="st1"/><path fill="#4BA0D4" d="M64.8 45.7c6.6 4.6 8.3 11.2 4.8 17.4-1.7 2.9-4.3 4.9-7.4 5.9-3 1-6.1 1.9-9.4 1.7-3-.2-6 0-9 0-2.5 0-3-.4-3-3.1V52.2c0-2.1-.3-2.3-2.3-1.8-2.4.6-3.7 2.2-3.8 4.7-.1 1.9.4 3.7 1.1 5.4.8 2 .5 2.4-1.8 2.5h-.6c-4.9 0-4.9 0-5.5-4.8-.2-2.1-.3-4.1 0-6.2.8-4.5 4.4-7.4 9.7-8.2 3.1-.5 3.1-.5 3.1-3.5V28.7c0-1.5.5-2.2 2.1-2.1 4.9.1 9.8 0 14.7.1 1.2 0 2.4.2 3.6.5 3.6.9 6.6 2.7 7.7 6.5 1.1 4.2.3 7.9-2.9 11-.3.3-.7.6-1.1 1zm-16.5 11v5.4c0 .6-.2 1.4.7 1.4 3.7-.1 7.4.5 10.9-1.1 2.8-1.2 4-3.8 3.4-7.2-.4-2.9-2.2-4.7-5.1-5-2.9-.3-5.7-.2-8.6-.4-1.1-.1-1.4.4-1.4 1.4.2 1.9.1 3.7.1 5.5zm0-18.5v4c0 .5-.1 1.3.6 1.2 3.4-.1 6.9.7 10.1-.8 2.1-1 2.9-3.4 2.4-6-.4-2.1-1.7-3-4.2-3.2-2-.1-4-.3-6-.3-3.3 0-2.8-.3-2.8 2.7-.1.8-.1 1.6-.1 2.4zm26.9-20.4c0-4.4 3.2-7.6 7.5-7.7 4.7 0 7.7 3 7.7 8.1 0 3.7-3.6 7.1-7.5 7.2-4.2 0-7.7-3.4-7.7-7.6z" class="st2"/><path fill="#fff" d="M48.3 56.7v-5.4c0-1 .3-1.5 1.4-1.4 2.9.1 5.8.1 8.6.4 3 .3 4.7 2.1 5.1 5 .5 3.3-.7 5.9-3.4 7.2-3.5 1.6-7.2 1-10.9 1.1-.9 0-.7-.8-.7-1.4-.1-1.9-.1-3.7-.1-5.5zm0-18.5v-2.4c0-3-.5-2.7 2.8-2.7 2 0 4 .1 6 .3 2.6.2 3.8 1.2 4.2 3.2.6 2.6-.3 5.1-2.4 6-3.2 1.5-6.7.7-10.1.8-.8 0-.6-.7-.6-1.2.1-1.4.1-2.7.1-4z" class="st1"/></svg>