<svg width="100" height="100" xmlns="http://www.w3.org/2000/svg" xml:space="preserve" version="1.1">

 <g>
  <title>Layer 1</title>
  <g id="svg_1">
   <path id="svg_2" fill="#fff" d="m70.6,1.3c7.4,0 14.9,0 22.3,0c3.5,0 6,2.4 6,5.9c0,15.2 0,30.3 0,45.5c0,1.8 -0.7,3.2 -2,4.5c-13.4,13.6 -27,27.2 -40.5,40.8c-2.7,2.7 -6,2.7 -8.7,0c-15,-15.1 -30,-30.2 -44.9,-45.3c-2.7,-2.7 -2.5,-5.9 0.4,-8.8c12.2,-12.3 24.5,-24.6 36.8,-37c6.6,-6.7 4.7,-5.5 13.4,-5.5c5.7,-0.1 11.5,-0.1 17.2,-0.1zm-5.8,44.4c0.4,-0.4 0.8,-0.7 1.1,-1c3.2,-3.1 4,-6.8 2.9,-11c-1.1,-3.9 -4,-5.6 -7.7,-6.5c-1.2,-0.3 -2.4,-0.4 -3.6,-0.5c-4.9,0 -9.8,0 -14.7,-0.1c-1.6,0 -2.1,0.6 -2.1,2.1c0,3.9 0,7.7 0,11.6c0,3.1 0,3.1 -3.1,3.5c-5.3,0.8 -8.9,3.7 -9.7,8.2c-0.4,2 -0.3,4.1 0,6.2c0.6,4.8 0.6,4.8 5.5,4.8c0.2,0 0.4,0 0.6,0c2.2,0 2.6,-0.5 1.8,-2.5c-0.7,-1.8 -1.2,-3.5 -1.1,-5.4c0.1,-2.5 1.4,-4.1 3.8,-4.7c2,-0.5 2.3,-0.3 2.3,1.8c0,5.1 0,10.3 0,15.4c0,2.6 0.4,3.1 3,3.1c3,0 6,-0.2 9,0c3.3,0.2 6.3,-0.7 9.4,-1.7c3.1,-1 5.7,-3 7.4,-5.9c3.5,-6.2 1.8,-12.8 -4.8,-17.4zm10.4,-27.9c0,4.2 3.5,7.6 7.7,7.5c3.9,0 7.5,-3.5 7.5,-7.2c-0.1,-5 -3,-8.1 -7.7,-8.1c-4.3,0.2 -7.5,3.5 -7.5,7.8z" class="st1"/>
   <path id="svg_3" fill="#4BA0D4" d="m64.8,45.7c6.6,4.6 8.3,11.2 4.8,17.4c-1.7,2.9 -4.3,4.9 -7.4,5.9c-3,1 -6.1,1.9 -9.4,1.7c-3,-0.2 -6,0 -9,0c-2.5,0 -3,-0.4 -3,-3.1c0,-5.1 0,-10.3 0,-15.4c0,-2.1 -0.3,-2.3 -2.3,-1.8c-2.4,0.6 -3.7,2.2 -3.8,4.7c-0.1,1.9 0.4,3.7 1.1,5.4c0.8,2 0.5,2.4 -1.8,2.5c-0.2,0 -0.4,0 -0.6,0c-4.9,0 -4.9,0 -5.5,-4.8c-0.2,-2.1 -0.3,-4.1 0,-6.2c0.8,-4.5 4.4,-7.4 9.7,-8.2c3.1,-0.5 3.1,-0.5 3.1,-3.5c0,-3.9 0,-7.7 0,-11.6c0,-1.5 0.5,-2.2 2.1,-2.1c4.9,0.1 9.8,0 14.7,0.1c1.2,0 2.4,0.2 3.6,0.5c3.6,0.9 6.6,2.7 7.7,6.5c1.1,4.2 0.3,7.9 -2.9,11c-0.3,0.3 -0.7,0.6 -1.1,1zm-16.5,11c0,1.8 0,3.6 0,5.4c0,0.6 -0.2,1.4 0.7,1.4c3.7,-0.1 7.4,0.5 10.9,-1.1c2.8,-1.2 4,-3.8 3.4,-7.2c-0.4,-2.9 -2.2,-4.7 -5.1,-5c-2.9,-0.3 -5.7,-0.2 -8.6,-0.4c-1.1,-0.1 -1.4,0.4 -1.4,1.4c0.2,1.9 0.1,3.7 0.1,5.5zm0,-18.5c0,1.3 0,2.7 0,4c0,0.5 -0.1,1.3 0.6,1.2c3.4,-0.1 6.9,0.7 10.1,-0.8c2.1,-1 2.9,-3.4 2.4,-6c-0.4,-2.1 -1.7,-3 -4.2,-3.2c-2,-0.1 -4,-0.3 -6,-0.3c-3.3,0 -2.8,-0.3 -2.8,2.7c-0.1,0.8 -0.1,1.6 -0.1,2.4z" class="st2"/>
   <path id="svg_4" fill="#4BA0D4" d="m75.2,17.8c0,-4.4 3.2,-7.6 7.5,-7.7c4.7,0 7.7,3 7.7,8.1c0,3.7 -3.6,7.1 -7.5,7.2c-4.2,0 -7.7,-3.4 -7.7,-7.6z" class="st2"/>
   <path id="svg_5" fill="#fff" d="m48.3,56.7c0,-1.8 0,-3.6 0,-5.4c0,-1 0.3,-1.5 1.4,-1.4c2.9,0.1 5.8,0.1 8.6,0.4c3,0.3 4.7,2.1 5.1,5c0.5,3.3 -0.7,5.9 -3.4,7.2c-3.5,1.6 -7.2,1 -10.9,1.1c-0.9,0 -0.7,-0.8 -0.7,-1.4c-0.1,-1.9 -0.1,-3.7 -0.1,-5.5z" class="st1"/>
   <path id="svg_6" fill="#fff" d="m48.3,38.2c0,-0.8 0,-1.6 0,-2.4c0,-3 -0.5,-2.7 2.8,-2.7c2,0 4,0.1 6,0.3c2.6,0.2 3.8,1.2 4.2,3.2c0.6,2.6 -0.3,5.1 -2.4,6c-3.2,1.5 -6.7,0.7 -10.1,0.8c-0.8,0 -0.6,-0.7 -0.6,-1.2c0.1,-1.4 0.1,-2.7 0.1,-4z" class="st1"/>
  </g>
 </g>
</svg>