<svg xmlns="http://www.w3.org/2000/svg" xmlns:xlink="http://www.w3.org/1999/xlink" viewBox="0 0 180.14 178.77" style="enable-background:new 0 0 180.14 178.77" xml:space="preserve"><style>.st3{enable-background:new}.st23{fill:none;stroke:#b77c15;stroke-width:3;stroke-linejoin:round;stroke-miterlimit:10}</style><g id="cards"><path d="M163.17 123.47c2.27 5.01.02 10.97-4.99 13.23L73.48 175c-5.01 2.27-10.97.02-13.23-4.99L8.48 55.54c-2.27-5.01-.02-10.97 4.99-13.23L98.16 4c5.01-2.27 10.97-.02 13.23 4.99l51.78 114.48z" style="fill:#d3a737"/><path class="st23" d="M163.17 123.47c2.27 5.01.02 10.97-4.99 13.23L73.48 175c-5.01 2.27-10.97.02-13.23-4.99L8.48 55.54c-2.27-5.01-.02-10.97 4.99-13.23L98.16 4c5.01-2.27 10.97-.02 13.23 4.99l51.78 114.48z"/><path d="M172.64 155.33c.55 5.47-3.47 10.4-8.94 10.96l-92.48 9.37c-5.47.55-10.4-3.47-10.96-8.94l-12.67-125c-.55-5.47 3.47-10.4 8.94-10.96l92.48-9.37c5.47-.55 10.4 3.47 10.96 8.94l12.67 125z" style="fill:#eacb47"/><path class="st23" d="M172.64 155.33c.55 5.47-3.47 10.4-8.94 10.96l-92.48 9.37c-5.47.55-10.4-3.47-10.96-8.94l-12.67-125c-.55-5.47 3.47-10.4 8.94-10.96l92.48-9.37c5.47-.55 10.4 3.47 10.96 8.94l12.67 125z"/><g id="_x34_D_00000133491843806107232480000001845008356761798276_"><path d="M74.09 131.59a47.116 47.116 0 0 1-4.94-6.56c-3.34-4.76-5.76-10.39-6.98-16.26-2.09-9.99-.72-20.41 3.98-30.13 4.45-9.24 11.87-16.1 22.03-20.4 7.92-3.35 20.57-4.24 25.65-4.47 1.27-.06 2.55-.09 3.8-.09 3.89 0 6.24.27 6.33.28l3.4.4-14.85 2.7 9.35.99 6.27-3.04h.12c4.89.11 12.37 2.6 18.7 9.27 5.32 5.6 11.56 15.99 11.06 33.67l-.01.2-.14.14c-14.56 15.24-76.83 29.88-82.55 31.2l-.52 2.86-.7-.76z"/><path d="M117.62 54.21c3.9 0 6.27.28 6.27.28l-17.83 3.24c.19-.01.38-.02.57-.04 1.03-.15 2.07-.28 3.13-.39l12.18 1.3 6.29-3.04c11.16.25 30.12 12.21 29.26 42.4-15 15.7-82.63 31.13-82.63 31.13l-.39 2.16a47.069 47.069 0 0 1-4.89-6.49c-3.3-4.71-5.69-10.23-6.92-16.09-2.07-9.88-.71-20.18 3.94-29.8 4.4-9.12 11.72-15.9 21.77-20.15 8.27-3.5 21.8-4.26 25.47-4.43 1.38-.06 2.64-.08 3.78-.08m0-1.03c-1.26 0-2.54.03-3.82.09-5.1.23-17.83 1.12-25.82 4.51-10.28 4.35-17.79 11.3-22.3 20.65-4.74 9.83-6.13 20.36-4.02 30.46 1.24 5.92 3.68 11.61 7.07 16.45 1.47 2.34 3.14 4.56 4.98 6.6l1.4 1.56.37-2.06.27-1.5c3.31-.78 18.57-4.42 35.1-9.54 25.09-7.78 41.03-15.08 47.38-21.73l.27-.29.01-.39c.51-17.86-5.81-28.36-11.2-34.03-6.06-6.38-13.17-9-18.14-9.38l1.65-.3-6.8-.8c-.11-.03-2.49-.3-6.4-.3zm-1.52 3.76 7.97-1.45 3.06-.56-5.38 2.6-5.65-.59z"/><path d="M152.39 88.99c3.7 21.92-15.15 44.92-37.07 48.62s-42.69-11.08-46.38-33 11.08-42.69 33-46.38c21.91-3.7 46.75 8.84 50.45 30.76z" style="fill:#0c0c3a"/><g class="st3"><path d="M76.88 120.53v-5.94l8.1-1.48v5.94z"/><g class="st3"><defs><path id="SVGID_00000128469410091813737910000003218264868927636902_" class="st3" d="M72.5 103.25v-5.94c0 8.22 2.27 14.94 4.38 17.27v5.94c-2.11-2.32-4.38-9.04-4.38-17.27z"/></defs><clipPath id="SVGID_00000106832108567349552690000010717649711676624537_"><use xlink:href="#SVGID_00000128469410091813737910000003218264868927636902_" style="overflow:visible"/></clipPath><path d="M72.5 103.25v-5.94 6.59-.65m0 .65v-5.94c.02 1.62.13 3.18.31 4.65v5.94a42.69 42.69 0 0 1-.31-4.65m.31 4.65v-5.94c.18 1.49.43 2.89.73 4.17v5.94a44.32 44.32 0 0 1-.73-4.17m.74 4.18v-5.94c.29 1.23.62 2.37.98 3.38v5.94c-.36-1.02-.7-2.15-.98-3.38m.98 3.38v-5.94c.32.9.67 1.71 1.02 2.4v5.94c-.35-.7-.7-1.5-1.02-2.4m1.02 2.4v-5.94c.32.63.66 1.17.99 1.61v5.94c-.33-.44-.66-.98-.99-1.61m.99 1.61v-5.94c.11.15.22.28.34.41v5.94c-.12-.13-.23-.26-.34-.41" style="clip-path:url(#SVGID_00000106832108567349552690000010717649711676624537_);enable-background:new"/></g><g class="st3"><defs><path id="SVGID_00000160167423136548938390000011180669977397725333_" class="st3" d="M62.59 104.06v-5.94c0-5.91 1.31-12.15 4.41-18.48 6.9-14.09 22.94-22.72 42.76-24.73v5.94C89.93 62.86 73.9 71.49 66.99 85.58c-3.09 6.32-4.4 12.56-4.4 18.48z"/></defs><clipPath id="SVGID_00000050659665712780353050000012875544946442743711_"><use xlink:href="#SVGID_00000160167423136548938390000011180669977397725333_" style="overflow:visible"/></clipPath><g style="clip-path:url(#SVGID_00000050659665712780353050000012875544946442743711_);enable-background:new"><path d="M62.59 104.06v-5.94c0-5.91 1.31-12.15 4.41-18.48 3.25-6.64 8.54-12.07 15.29-16.16v5.94C75.54 73.51 70.26 78.94 67 85.58c-3.1 6.32-4.41 12.56-4.41 18.48"/><path d="M82.28 69.42v-5.94c2.16-1.31 4.47-2.48 6.91-3.51v5.94c-2.44 1.03-4.75 2.2-6.91 3.51m6.91-3.52v-5.94c2.24-.95 4.58-1.77 7.03-2.48v5.94a64.64 64.64 0 0 0-7.03 2.48m7.03-2.48v-5.94c2.45-.71 5-1.3 7.63-1.76v5.94c-2.63.47-5.18 1.05-7.63 1.76m7.63-1.76v-5.94c1.92-.34 3.89-.61 5.9-.81v5.94c-2.01.2-3.97.48-5.9.81"/></g></g><path d="m109.75 60.85 1.48-.15-6.7 6.39C93 69 78.84 76.94 74.59 89.9c-4.45 13.6-.89 27.11 2.29 30.63l8.11-1.48-7.46 17.68-.54-.51C65.73 125.74 56.95 106.1 67 85.58c6.9-14.09 22.93-22.72 42.75-24.73z"/><path d="M109.75 60.85v-5.94l1.48-.15v5.94z"/></g><linearGradient id="left_bracket_top_00000049928954164963347740000008936195450626081680_" gradientUnits="userSpaceOnUse" x1="68.004" y1="112.893" x2="89.621" y2="75.996" gradientTransform="rotate(-9.564 90.292 103.964)"><stop offset="0" style="stop-color:#3b2bad"/><stop offset="1" style="stop-color:#5864c3"/></linearGradient><path id="left_bracket_top_00000131329148720643055790000006322036282855435923_" style="fill:url(#left_bracket_top_00000049928954164963347740000008936195450626081680_);stroke:#000;stroke-width:1.368;stroke-miterlimit:10" d="M75.08 130.37c-11.09-10.48-18.01-30.57-8.02-51.28s32.9-24.16 43.41-24.61l-7.89 4.73C91.43 61.09 75.8 70.72 71.85 83.54c-4.2 13.65-.54 28.94 3.85 32.55l6.19-2.12-6.81 16.4z"/><g id="E_00000179647528648233865140000014493712041872755135_"><path d="m97.44 56.49.99 5.86 1.78.93c1.15.6 2 1.23 2.62 1.87-.29.73-.73 1.84-1.32 3.31-1.93 4.79-5.15 12.78-8.93 22.7-3.41 3.01-12.45 12.53-13.62 14.37l-.9 1.42.99 5.86 5.94-1.48-6.71 18.06c-.43 1.08-.68 2.13-.75 3.1-.04.58-.02 1.13.07 1.65l.99 5.86c0-.02 0-.04-.01-.06.16 1.02.57 1.89 1.21 2.56 1.34 1.38 3.58 1.81 6.68 1.29 1.23-.21 2.59-.57 4.08-1.07 10.02-3.39 17.84-5.86 23.56-7.65 3.98-1.25 6.85-2.16 8.71-2.82l.57-.21 7.71-21.38-.99-5.86-22.06 6.31 2.1-5.72 19.75-5.13 8.41-19.18-.99-5.86-17.45 3.67 1.43-3.9 21.74-3.67 6.53-17.61-.99-5.86-51.14 8.64zm-18.92 82.94c0 .05.01.1.02.15-.01-.06-.02-.1-.02-.15zm.01-1.24c-.01.06-.01.12-.02.19.01-.07.01-.13.02-.19zm-.03.65v.07c-.01-.02 0-.05 0-.07zm.3-2.18.06-.22c-.03.07-.04.14-.06.22zm-.23 1.16.03-.22-.03.22zm.09-.57c.01-.08.03-.15.05-.23-.02.08-.03.15-.05.23zm.32-1.22c.02-.06.04-.13.06-.19-.02.06-.04.13-.06.19zm25.2-66.01c.02-.07.04-.13.06-.21-.02.08-.04.15-.06.21zm-.08.23.06-.18-.06.18zm.26-2.01c-.01-.1-.02-.21-.04-.32.02.1.03.21.04.32zm-.12 1.54zm.06-.24c.02-.08.03-.17.04-.25-.01.08-.03.17-.04.25zm.05-.31.03-.27-.03.27zm.03-.31c.01-.09.01-.18.01-.27-.01.09-.01.18-.01.27zm0-.32c0-.1-.01-.2-.01-.3.01.1.01.21.01.3z"/><linearGradient id="SVGID_00000093875131237825774740000004956893346012749709_" gradientUnits="userSpaceOnUse" x1="127.584" y1="54.969" x2="116.198" y2="88.042" gradientTransform="rotate(-9.564 90.292 103.964)"><stop offset="0" style="stop-color:#fff13e"/><stop offset="1" style="stop-color:#ffffcd"/></linearGradient><path style="fill:url(#SVGID_00000093875131237825774740000004956893346012749709_)" d="M83.36 137.4c-1.59 0-2.68-.42-3.25-1.25-.88-1.29-.53-3.47.09-5.08l10.38-28.5-7.71 1.93c3.14-3.56 8.66-9.38 11.17-11.59l.23-.2.1-.28c3.78-10.12 7-18.28 8.92-23.15.86-2.17 1.42-3.6 1.62-4.16.99-2.78.15-5.5-2.25-7.64l43.05-7.27L140.69 64l-21.74 3.67-5.33 14.82 20.6-4.34-6.57 15.27-19.82 5.17-6.17 17.15 25.59-7.37-6.14 17.4c-1.82.65-4.6 1.53-8.37 2.72-5.72 1.81-13.55 4.3-23.58 7.72-2.32.8-4.27 1.19-5.8 1.19z"/><path d="m143.87 51.74-4.07 11.2-20.36 3.43-1.38.23-.47 1.32-4.37 12.14-1.45 4.04 4.2-.89 16.24-3.42-5.43 12.62-18.64 4.87-1.22.32-.43 1.19-5.16 14.35-1.59 4.41 4.5-1.3 21.1-6.08-5.18 14.67c-1.8.62-4.39 1.44-7.79 2.52-5.72 1.82-13.56 4.3-23.61 7.73-2.18.74-4 1.12-5.4 1.12-.8 0-1.85-.13-2.26-.73-.5-.74-.42-2.33.24-4.01l9.6-26.35 1.54-4.24-4.37 1.09-1.7.43c2.99-3.23 6.6-6.96 8.43-8.57l.45-.4.21-.56c3.77-10.11 6.99-18.25 8.91-23.12.89-2.26 1.43-3.63 1.64-4.21.92-2.57.53-5.08-1.02-7.23l38.84-6.57m3.66-3.05-48 8.11c1.76.93 5.78 3.61 4.24 7.93-.62 1.73-5.05 12.56-10.54 27.3-3.33 2.93-12.44 12.69-13.59 14.52l9.03-2.26-9.6 26.35c-1.28 3.31-1.31 7.96 4.28 7.96 1.58 0 3.6-.37 6.18-1.25 16.98-5.79 27.74-8.93 32.24-10.55l.27-.1 7.1-20.13-25.57 7.36 5.16-14.35 19.77-5.16 7.72-17.93-20.76 4.38 4.37-12.14 21.74-3.67 5.96-16.37z" style="fill:#d34600"/><path d="m141.58 65.07 5.95-16.38-48 8.11c1.76.93 5.78 3.61 4.24 7.93-.62 1.73-5.05 12.56-10.54 27.3-3.33 2.93-12.44 12.69-13.59 14.52l9.03-2.26-9.6 26.35c-1.65 4.25-1.22 10.69 10.45 6.71 16.98-5.79 27.74-8.93 32.24-10.55l.27-.1 7.1-20.13-25.57 7.36 5.16-14.35 19.77-5.16 7.72-17.93-20.76 4.38 4.37-12.14 21.76-3.66z" style="fill:none;stroke:#000;stroke-width:1.368;stroke-miterlimit:10"/></g><path d="M157.03 86.02c-.03-.16-.06-.32-.09-.49-.01-.04-.02-.08-.02-.12-.04-.24-.09-.47-.14-.71-.01-.06-.03-.13-.04-.19-.06-.3-.13-.6-.21-.9-.02-.08-.04-.16-.06-.23-.06-.23-.11-.45-.17-.68-.03-.1-.06-.2-.08-.31-.06-.21-.12-.42-.18-.64-.02-.06-.03-.13-.05-.19l-.03-.09c-.1-.34-.21-.67-.32-1.01-.02-.05-.04-.11-.06-.16l-.3-.87c-.03-.09-.06-.18-.1-.27-.12-.34-.25-.67-.38-1.01-.01-.01-.01-.03-.02-.04-.13-.32-.25-.64-.39-.96-.02-.04-.03-.09-.05-.13-.02-.04-.04-.08-.06-.13-.15-.36-.3-.71-.46-1.06-.01-.02-.01-.03-.02-.05-.15-.34-.31-.67-.47-1.01-.04-.08-.08-.16-.11-.23-.17-.34-.33-.68-.51-1.01-.03-.05-.05-.1-.08-.15-.16-.3-.32-.59-.48-.89-.02-.04-.05-.09-.07-.13-.01-.02-.03-.05-.04-.07-.18-.32-.36-.63-.55-.95-.04-.06-.08-.13-.12-.19-.17-.28-.34-.55-.51-.82l-.09-.15c-.19-.3-.39-.59-.59-.88l-.14-.2c-.19-.27-.38-.54-.57-.8-.01-.02-.02-.04-.04-.05l-.01-.01c-.21-.28-.42-.55-.63-.81l-.15-.18c-.21-.26-.43-.52-.64-.76l-.06-.06c-.2-.23-.41-.45-.61-.67l-.15-.15c-.22-.22-.43-.44-.65-.65l-.04-.04c-.09-.08-.17-.16-.26-.24-.05-.05-.1-.09-.15-.14-.15-.14-.31-.27-.46-.4l-.68-.56-11.85 26.41.99 5.86 11.09-9.53c.85 1.87 1.55 3.7 2.08 5.67.56 6.88-.56 13.65-3.26 19.63-.16.36-.33.71-.5 1.06-.05.11-.11.21-.16.31-.13.25-.26.51-.39.76-.06.11-.12.22-.17.32-.16.29-.33.59-.49.88-.03.05-.05.1-.08.15-.2.33-.4.67-.61.99l-.18.27c-.16.24-.31.48-.47.72-.07.1-.14.21-.21.31-.17.25-.35.5-.53.75l-.15.21c-.23.31-.47.62-.71.92-.06.07-.12.15-.18.22l-.57.69c-.08.1-.16.19-.24.28-.19.22-.38.44-.58.65-.07.08-.14.15-.2.23-.26.28-.53.56-.8.84l-.16.16c-.22.22-.45.44-.68.66-.09.09-.18.17-.27.25-.21.19-.42.39-.63.57l-.25.22-.57.48c-.14.11-.27.23-.41.34-.2.16-.4.31-.6.47-.13.1-.26.21-.4.31-.22.17-.45.33-.68.5-.12.08-.23.17-.34.25-.35.24-.7.48-1.05.71-.29.2-.57.4-.86.6-.1.06-.19.13-.29.19-.19.13-.39.26-.58.38-.14.09-.28.17-.42.26-.16.1-.33.2-.49.3-.14.08-.28.16-.43.25-.16.09-.33.19-.49.28-.14.08-.29.16-.44.23-.17.09-.33.18-.5.26-.15.08-.3.15-.44.22-.17.09-.34.17-.52.25-.12.06-.25.12-.37.17-.19.09-.37.17-.56.25-.13.06-.26.11-.39.17l-.57.24c-.13.05-.26.11-.39.16-.2.08-.4.15-.6.23-.13.05-.26.1-.38.14-.2.07-.4.14-.59.21-.15.05-.29.1-.44.15-.21.07-.42.13-.63.2-.14.04-.28.09-.42.13-.24.07-.48.14-.72.2-.12.03-.24.07-.36.1-.35.09-.71.19-1.07.27-.01 0-.02.01-.04.01h-.01c-.51.12-1.03.24-1.56.35-.13.03-.27.06-.4.08-.54.11-1.08.21-1.64.3-.33.06-.67.11-1 .16-.11.02-.22.03-.33.05-.23.03-.47.07-.7.1-.1.01-.21.03-.31.04-.47.06-.94.12-1.43.17-.17.02-.35.03-.54.04h-.03c-.18.01-.37.02-.56.02h-.71c-.2 0-.4-.01-.6-.01h-.08l-.62-.03h-.07c-.21-.01-.43-.02-.64-.04h-.05c-.22-.01-.45-.03-.66-.05-.22-.02-.43-.04-.64-.05h-.04c-.19-.02-.38-.03-.56-.05-.02 0-.04 0-.06-.01-.17-.02-.34-.03-.5-.05-.03 0-.05-.01-.08-.01-.07-.01-.14-.02-.21-.02-.02 0-.05-.01-.07-.01l-.25-.03c-.02 0-.04 0-.06-.01-.06-.01-.12-.01-.17-.02-.02 0-.05-.01-.07-.01-.05-.01-.09-.01-.13-.02-.02 0-.04-.01-.07-.01-.11-.01-.21-.03-.28-.03-.02 0-.03 0-.05-.01h-.03c-.04-.01-.07-.01-.08-.01l-8.7 2.91-6.1 4.38 2.51 1.47c6.38 3.08 18.41 3.86 26.88 2.43 9.25-1.56 17.59-5.68 22.58-9.49 13.07-9.52 20.38-25.95 18.63-41.87-.08-.73-.19-1.48-.33-2.23l.09.48-.98-5.84zm.74 4.58c-.01-.07-.03-.14-.04-.21l.03.17c.01.02.01.03.01.04zm-.31-1.35c0-.01 0-.02-.01-.03v.01c.01.01.01.02.01.02zm-.22-.87c-.02-.06-.03-.13-.05-.19.01.02.01.04.02.06 0 .04.02.08.03.13zm-9.69-17.55.03.03c-.09-.08-.17-.16-.26-.24.08.06.15.13.23.21zm1.41 1.46.06.06c.02.02.04.05.06.07-.06-.06-.11-.13-.17-.19.01.03.03.04.05.06zm1.47 1.82c.02.02.03.04.05.07.01.02.03.04.04.06-.06-.07-.11-.15-.17-.22.03.03.06.06.08.09zm1.35 1.94.09.15c.01.01.01.02.02.03-.05-.08-.1-.16-.16-.24.02.02.03.04.05.06zm1.27 2.11c.04.07.07.13.11.2 0 .01.01.01.01.02-.05-.08-.09-.16-.14-.24.01.01.01.02.02.02zm.59 1.09c.03.05.05.1.08.15 0 .01.01.02.01.02-.04-.07-.08-.14-.11-.21 0 .01.01.03.02.04zm.7 1.39c0 .01.01.02.01.02-.01-.03-.03-.06-.04-.09.01.03.02.05.03.07zm.47 1c.01.02.02.03.02.05.01.03.02.06.04.08-.04-.09-.08-.17-.12-.26.02.05.04.09.06.13zm.59 1.37c0 .01.01.02.01.04a.488.488 0 0 1-.03-.07c.01.01.01.02.02.03zm.38.96c.01.01.01.03.02.04.02.05.04.1.05.15-.04-.1-.08-.21-.12-.31.02.04.04.08.05.12zm.4 1.05c0 .01.01.02.01.03-.01-.02-.02-.05-.03-.07.01.01.01.02.02.04zm.44 1.3c.02.05.03.09.04.14-.02-.08-.05-.15-.07-.23l.03.09zm.32 1.01a5.052 5.052 0 0 0-.02-.08c0 .03.01.05.02.08zm-8.95 7.99c-.01-.09-.03-.19-.04-.28.02.09.03.19.04.28zm-.88-24.9.02.02-.48-.42.46.4z"/><linearGradient id="right_bracket_top_00000091696106377685734220000017789946411190576316_" gradientUnits="userSpaceOnUse" x1="138.677" y1="78.499" x2="126.378" y2="114.278" gradientTransform="rotate(-9.564 90.292 103.964)"><stop offset="0" style="stop-color:#3b2bad"/><stop offset="1" style="stop-color:#5864c3"/></linearGradient><path id="right_bracket_top_00000109751390040103689150000007833297084019807620_" style="fill:url(#right_bracket_top_00000091696106377685734220000017789946411190576316_);stroke:#000;stroke-width:1.368;stroke-miterlimit:10" d="M95.68 136.77c16.1 6.52 34.61-1.5 42.57-7.66 12.46-9.2 20.09-25.34 18.26-41.84-.93-8.34-5.83-18.84-11.45-23.56l-10.22 23.22 9.5-8.27c1.75 3.78 2.92 7.1 3.41 11.47 1.7 15.34-4.55 29.53-16.62 37.47-6.07 4.38-12.54 6.38-20.69 7.29-2.72.3-7.92-.42-7.92-.42l-6.84 2.3z"/><path d="m71.66 120.18 11.99-11.85-8.79 20.75z" style="fill:#3b2bad"/><path d="m92.65 141.58 28.77-9.68s-.34-4.37-.86-4.09c-.52.28-32.05 11.64-32.05 11.64l4.14 2.13zm-9-33.25 1.29 5.86s-5.43 13.39-5.39 12.88-.36-7.37-.36-7.37l4.46-11.37zm-8.69 7.92 8.69-7.92-1.03-.43-8.3 7.57z"/></g></g></svg>