<svg width="512" height="512" fill="none" xmlns="http://www.w3.org/2000/svg"><path fill="#fff" d="M0 0h512v512H0z"/><path d="M183.478 130c12.537 0 23.614 1.027 33.233 3.081 9.618 1.946 18.21 4.541 25.775 7.784l-14.103 33.405a89.82 89.82 0 0 0-18.319-4.865c-6.268-1.081-12.482-1.621-18.642-1.621-10.159 0-17.454 1.838-21.885 5.513-4.323 3.676-6.484 9.784-6.484 18.325v23.027h56.089l-5.673 35.513h-50.416V376H112.15V250.162H76v-35.513h36.15v-24.973c0-11.352 2.702-21.514 8.106-30.487 5.403-8.973 13.401-16.054 23.992-21.243 10.591-5.297 23.668-7.946 39.23-7.946Zm124.698 246h-55.441l59.007-90.486-53.496-81.73h57.387l27.559 55.135 26.585-55.135h54.469l-50.578 79.784L433 376h-58.035l-34.043-64.378L308.176 376Z" fill="#000"/></svg>