<svg width="566" height="205" viewBox="0 0 566 155" fill="none" xmlns="http://www.w3.org/2000/svg"><g clip-path="url(#a)" fill-rule="evenodd" clip-rule="evenodd"><path d="M25.849 87.53h-7.112v-4.332h25.347v4.331h-5.972v58.034h-3.647c0-2.644-1.322-4.832-3.146-4.012-.69.392-1.36.818-2.006 1.277a18.233 18.233 0 0 1-11.078 3.738C9.118 146.566 0 143.238 0 125.824V25.849C0 12.263 10.257 9.117 17.415 9.117a23.843 23.843 0 0 1 12.764 4.559c1.14.683 2.462.82 2.462-1.323v-2.097h4.149v42.625h-4.878c-2.325 0-3.191-.82-3.191-2.963a189.047 189.047 0 0 0-2.462-27.353c-1.322-6.154-4.559-10.12-8.799-10.12-5.516-.365-6.2 6.929-6.2 10.348v112.968a7.564 7.564 0 0 0 1.915 5.562 7.385 7.385 0 0 0 5.06 2.233 7.565 7.565 0 0 0 7.294-7.795l.32-48.233Zm136.263-77.273h-24.344v4.012h6.473v123.316c0 2.644-1.185 3.647-5.151 3.83h-1.322v3.464h27.353v-3.555h-2.781c-4.559 0-6.337-2.006-6.474-6.155v-47.64h8.252c11.625 0 18.235-5.653 18.235-13.083v-49.92c0-7.43-5.79-14.269-20.241-14.269Zm8.479 38.158v26.532a7.392 7.392 0 0 1-2.096 5.736 7.392 7.392 0 0 1-5.699 2.196h-6.793V14.497h6.109a8.48 8.48 0 0 1 8.479 8.297v25.62ZM78.229 83.198l6.474-54.021 7.294 54.204-13.768-.183Zm16.275-72.94 15.592 125.002a5.974 5.974 0 0 0 1.933 4.527 5.977 5.977 0 0 0 2.173 1.272c.806.265 1.66.355 2.504.265h.684v3.51H92.818v-3.51h1.823c3.83 0 4.149-1.323 4.149-4.559l-6.11-49.418H77.729l-5.79 49.418a4.058 4.058 0 0 0 1.003 2.644 8.338 8.338 0 0 0 5.972 1.823v3.511H59.675v-3.83c5.927-.319 6.154-1.322 6.93-5.242L82.058 10.257h12.445Z" fill="#fff"/><path d="M218.824 0a13.676 13.676 0 0 0-13.677 13.677v127.647A13.675 13.675 0 0 0 218.824 155h332.794a13.675 13.675 0 0 0 13.676-13.676V13.676A13.676 13.676 0 0 0 551.618 0H218.824Zm49.052 40.391h12.446l-6.109 29.541h.228a23.845 23.845 0 0 1 8.206-6.884 22.245 22.245 0 0 1 10.394-2.598 16.73 16.73 0 0 1 12.446 4.012 14.955 14.955 0 0 1 4.057 10.94v3.511a23.566 23.566 0 0 1-.456 3.51l-7.659 36.106h-12.445l7.34-34.92a44.08 44.08 0 0 0 .547-2.735 9.73 9.73 0 0 0 .319-2.508c.036-.653.036-1.307 0-1.96a5.428 5.428 0 0 0-.775-2.735 6.11 6.11 0 0 0-2.599-2.417 11.119 11.119 0 0 0-5.151-.957 13.678 13.678 0 0 0-6.702 1.641 20.694 20.694 0 0 0-9.117 9.118 28.051 28.051 0 0 0-2.325 6.656l-6.383 30.817h-12.491c-.866 0-1.732.274-2.644.411a41.073 41.073 0 0 1-5.152.319 14.992 14.992 0 0 1-5.561-.866 9.442 9.442 0 0 1-3.511-2.325 10.317 10.317 0 0 1-1.732-3.374 16.746 16.746 0 0 1-.456-3.92 36.383 36.383 0 0 1 0-3.648c.243-1.276.426-2.188.547-2.735l6.474-30.954h-9.574l1.961-9.118h9.847l3.51-16.959h12.126l-3.51 16.96h9.437l4.467-21.929Zm-6.427 30.863-7.842 37.884h-4.011a4.563 4.563 0 0 1-3.693-1.094 5.335 5.335 0 0 1-.775-3.054c.017-.89.124-1.776.319-2.644 0-1.095.456-2.234.775-3.51l5.79-27.673 9.437.091Zm65.191-9.117h-11.853l-11.671 56.392h12.446l5.242-25.073a50.108 50.108 0 0 1 2.417-8.07 25.536 25.536 0 0 1 3.966-6.792 17.145 17.145 0 0 1 6.017-4.559 19.287 19.287 0 0 1 8.389-1.732h.319a36.465 36.465 0 0 0-5.334 10.257 41.052 41.052 0 0 0-2.052 12.81 27.645 27.645 0 0 0 1.824 10.395 24.213 24.213 0 0 0 5.151 7.795 23.671 23.671 0 0 0 7.887 4.969 29.311 29.311 0 0 0 9.938 1.642 31.234 31.234 0 0 0 17.278-4.559 21.083 21.083 0 0 0 5.972-5.927c.203.645.463 1.27.775 1.869a13.945 13.945 0 0 0 3.83 4.559 18.526 18.526 0 0 0 5.698 2.827c2.157.662 4.4 1 6.656 1.003 3.49.116 6.974-.362 10.303-1.414a22.785 22.785 0 0 0 8.753-5.47 7.566 7.566 0 0 0 2.28 5.242 7.286 7.286 0 0 0 5.242 2.006 21.99 21.99 0 0 0 4.924-.547l4.832-1.231 1.459-6.747a18.575 18.575 0 0 0 4.559 4.559 19.308 19.308 0 0 0 7.339 2.963c2.013.407 4.057.636 6.109.684a23.349 23.349 0 0 0 9.665-1.914 19.52 19.52 0 0 0 8.206-7.431v.228l-1.641 7.658h11.944l3.237-15.272a20.581 20.581 0 0 0 1.823 6.747 16.585 16.585 0 0 0 5.015 6.018 20.461 20.461 0 0 0 7.431 3.054 42.166 42.166 0 0 0 9.117 1.003 38.007 38.007 0 0 0 9.118-1.094 24.84 24.84 0 0 0 8.115-3.282 18.82 18.82 0 0 0 5.698-5.835 15.406 15.406 0 0 0 2.188-8.389c.052-2-.321-3.989-1.094-5.835a13.677 13.677 0 0 0-2.963-4.148 17.455 17.455 0 0 0-4.148-2.964 87.432 87.432 0 0 0-4.924-2.188 62.752 62.752 0 0 0-5.926-1.823c-1.961-.502-3.739-1.186-5.38-1.778a14.987 14.987 0 0 1-3.92-2.189 3.867 3.867 0 0 1-1.414-3.145 6.347 6.347 0 0 1 .775-3.42 5.606 5.606 0 0 1 2.189-2.188 9.116 9.116 0 0 1 3.054-1.185 18.54 18.54 0 0 1 3.601-.319c2.838-.14 5.655.54 8.115 1.96a7.107 7.107 0 0 1 3.282 6.246h11.808a19.24 19.24 0 0 0-1.641-8.753 13.681 13.681 0 0 0-4.559-5.607 18.24 18.24 0 0 0-7.021-2.827 40.16 40.16 0 0 0-8.662-.866 37.876 37.876 0 0 0-8.524.957 25.19 25.19 0 0 0-7.431 3.055 17.817 17.817 0 0 0-5.38 5.38 15.456 15.456 0 0 0-1.96 7.886 13.666 13.666 0 0 0 1.003 5.47 12.752 12.752 0 0 0 2.735 4.058 19.144 19.144 0 0 0 3.921 2.826 35.145 35.145 0 0 0 4.832 2.097c1.96.73 3.966 1.368 6.018 1.96a39.25 39.25 0 0 1 5.561 1.961c1.5.529 2.879 1.35 4.058 2.416a4.563 4.563 0 0 1 1.641 3.602 6.884 6.884 0 0 1-1.185 4.057 7.842 7.842 0 0 1-2.872 2.416 15.784 15.784 0 0 1-3.83 1.277c-1.34.232-2.697.354-4.057.364a17.23 17.23 0 0 1-9.118-2.188 7.976 7.976 0 0 1-3.373-7.659h-11.033l12.765-59.994h-12.4l-6.382 29.359a13.265 13.265 0 0 0-6.793-7.248 25.027 25.027 0 0 0-10.303-2.052 26.349 26.349 0 0 0-12.992 3.373 29.943 29.943 0 0 0-9.665 8.206 37.354 37.354 0 0 0-5.197 9.483c.559-2.532.865-5.113.912-7.705a21.275 21.275 0 0 0-.456-3.738 8.343 8.343 0 0 0-2.508-4.559 15.453 15.453 0 0 0-6.336-3.51 37.524 37.524 0 0 0-11.945-1.504c-3.2-.017-6.394.304-9.528.957a22.287 22.287 0 0 0-7.886 3.191 19.234 19.234 0 0 0-5.881 5.79 22.114 22.114 0 0 0-3.328 8.434c0-.365 0-.73-.228-1.094a22.797 22.797 0 0 0-3.51-8.434 20.103 20.103 0 0 0-7.386-6.383 25.8 25.8 0 0 0-12.263-2.507 28.764 28.764 0 0 0-13.676 3.054 33.55 33.55 0 0 0-5.289 3.374l1.368-6.109a22.785 22.785 0 0 0-3.054 0h-2.964a13.675 13.675 0 0 0-5.698 1.185 21.117 21.117 0 0 0-4.924 2.964 25.353 25.353 0 0 0-4.239 4.057 30.717 30.717 0 0 0-3.192 4.559l2.189-11.397Zm109.275 47.275v.41h-.502a11.91 11.91 0 0 1-2.188.228 2.639 2.639 0 0 1-2.097-.684 2.778 2.778 0 0 1-.547-1.869c.021-.877.144-1.749.365-2.598.273-.958.547-1.961.729-2.964l1.55-7.34v2.098a26.204 26.204 0 0 0 2.69 12.719Zm-46.546-30.27a41.56 41.56 0 0 1 .684 7.476v3.328a24.072 24.072 0 0 1 6.565-3.055 50.775 50.775 0 0 1 9.117-1.413c4.24-.274 8.388-.593 12.491-.957a6.608 6.608 0 0 0 4.924-2.189 8.343 8.343 0 0 0 1.641-5.288 5.292 5.292 0 0 0-2.826-5.334 14.817 14.817 0 0 0-6.702-1.413 20.65 20.65 0 0 0-9.117 1.824 9.797 9.797 0 0 0-4.97 7.02h-11.807Zm-3.647 14.314h-38.431c0 .365 0 .73-.228 1.003v2.644a14.265 14.265 0 0 0 3.055 9.482 13.276 13.276 0 0 0 4.8 2.954c1.794.629 3.701.865 5.594.693a15.68 15.68 0 0 0 8.662-2.325 11.444 11.444 0 0 0 4.923-6.883h8.16c.277-1.69.831-3.324 1.641-4.833a22.026 22.026 0 0 1 1.824-2.735Zm-8.251-8.206a3.69 3.69 0 0 0 0-.866v-2.599a10.955 10.955 0 0 0-3.192-8.206 11.529 11.529 0 0 0-8.753-3.282 14.994 14.994 0 0 0-11.169 4.24 24.844 24.844 0 0 0-6.017 10.713h29.131Zm17.779 21.244a6.889 6.889 0 0 1-.866-3.51 6.693 6.693 0 0 1 2.234-5.334 12.987 12.987 0 0 1 5.151-2.872 26.76 26.76 0 0 1 6.428-1.185l6.154-.456a29.812 29.812 0 0 0 4.24-.775 7.383 7.383 0 0 0 3.51-1.824 46.898 46.898 0 0 1-1.869 7.66 18.209 18.209 0 0 1-3.191 6.153 13.678 13.678 0 0 1-5.106 4.149 17.36 17.36 0 0 1-7.659 1.55 17.918 17.918 0 0 1-3.51-.365 13.223 13.223 0 0 1-3.191-1.185 9.113 9.113 0 0 1-2.325-2.006ZM478.129 83.7a18.198 18.198 0 0 0-.729-5.243 10.904 10.904 0 0 0-2.188-4.285 9.985 9.985 0 0 0-3.83-2.918 13.673 13.673 0 0 0-5.698-1.094 16.185 16.185 0 0 0-9.118 2.37 19.246 19.246 0 0 0-6.109 6.155 29.236 29.236 0 0 0-3.647 8.617 41.697 41.697 0 0 0-1.094 9.436 14.225 14.225 0 0 0 3.191 9.847 12.54 12.54 0 0 0 9.756 3.511 14.18 14.18 0 0 0 8.388-2.553 21.07 21.07 0 0 0 6.018-6.337 29.773 29.773 0 0 0 3.738-8.525 35.247 35.247 0 0 0 1.322-8.844V83.7Z" fill="url(#b)"/></g><defs><linearGradient id="b" x1="197.443" y1="-156.596" x2="559.413" y2="294.682" gradientUnits="userSpaceOnUse"><stop stop-color="#00FFF0"/><stop offset="1" stop-color="#EB00FF"/></linearGradient><clipPath id="a"><path fill="#fff" d="M0 0h565.294v155H0z"/></clipPath></defs></svg>