<svg version="1.1" id="Layer_1" xmlns="http://www.w3.org/2000/svg" x="0" y="0" viewBox="0 0 275 275" style="enable-background:new 0 0 275 275" xml:space="preserve"><style>.st4{fill:#28aae1}</style><path d="M255.6 86.9c-.2-.4-.5-.7-.7-1.1-1.7-5.5-4.1-10.8-7.1-15.9-8.4-14.1-21.4-24.9-37.2-31.8l2.9-15.7-14.9 1.1L201.7 4 98.2 11.8l-7.3 36.6c-3.4 1.8-6.7 3.6-10.1 5.6C50.1 72.3 26.4 98.3 14 127.1c-12.7 29.4-12.1 58.4 1.7 81.5 8.4 14.1 21.1 24.9 36.9 31.8l-3.2 16 16.6-1.2c-.9 4.3-1.8 10.2-3 15.1l103.6-7.8 3.5-17.7c7.5-3.2 15-6.9 22.3-11.3 61.4-36.8 89.6-102.3 63.2-146.6z" style="fill:#221f1f"/><linearGradient id="SVGID_1_" gradientUnits="userSpaceOnUse" x1="146.969" y1="28.131" x2="105.544" y2="229.422"><stop offset=".306" style="stop-color:#f9e310"/><stop offset=".536" style="stop-color:#f5a717"/><stop offset=".834" style="stop-color:#f05f20"/><stop offset=".973" style="stop-color:#ee4323"/></linearGradient><path d="M111.3 25.1C99 86.7 81 176.9 68.6 239.3l72.2-5.2c12.7-64.9 29.4-149.7 42-214.1l-71.5 5.1z" style="fill:url(#SVGID_1_)"/><path d="m107.1 20.2-45 225 83-6.2 44.1-225-82.1 6.2zm33.7 213.6-72.2 5.5c8.8-43.8 37.3-186.6 42.8-214.1l71.5-5.2c-3.5 17.7-39.2 198.9-42.1 213.8z" style="fill:#fff"/><path class="st4" d="M244.5 86.8c-.4-.1-.8-.5-.8-.9 0-.2.1-.4.2-.6-1.1-2.8-2.4-5.6-3.9-8.3-.2.3-.5.5-.8.5-.5 0-.9-.4-.9-.9s.4-.9.9-.9c-1.6-2.6-3.3-5.1-5.2-7.5h-.1c-.5 0-.9-.4-.9-.9 0-.1 0-.2.1-.3-6.3-7.3-14.1-13.2-23.1-17.5l-2.7 13.8c.4.1.6.5.6.9 0 .5-.4.9-.9.9h-.1l-5.2 26.2c.4.1.8.4.8.9s-.4.9-.9.9h-.2l-5.2 26.2c.5 0 .9.4.9.9s-.4.9-.9.9c-.1 0-.2 0-.3-.1l-4.1 20.9c0 .1 0 .3-.1.4l-1 4.9h.1c.5 0 .9.4.9.9s-.4.9-.9.9c-.2 0-.3-.1-.5-.1l-4.1 20.6c.1.1.1.2.1.4 0 .3-.1.5-.3.7l-.9 4.7c.1 0 .2-.1.3-.1.5 0 .9.4.9.9s-.4.9-.9.9c-.2 0-.4-.1-.6-.2l-4.1 20.6c.1.2.2.3.2.6s-.2.6-.5.8l-.9 4.6c.1-.1.3-.1.4-.1.5 0 .9.4.9.9s-.4.9-.9.9c-.3 0-.5-.1-.7-.3l-2.1 10.5c.1-.1.3-.2.4-.3 6.8-4.1 13.2-8.5 19.2-13.3-.2.2-.4.3-.7.3-.5 0-.9-.4-.9-.9s.4-.9.9-.9.9.4.9.9c0 .3-.1.5-.3.7 1.3-1.1 2.7-2.2 4-3.3-.1-.2-.2-.3-.2-.5 0-.5.4-.9.9-.9.3 0 .5.1.7.3 5.3-4.6 10.2-9.5 14.7-14.5-.1-.1-.1-.3-.1-.4 0-.5.4-.9.9-.9.1 0 .2 0 .3.1 5.8-6.6 10.8-13.5 15-20.6 0-.1-.1-.2-.1-.3 0-.5.4-.9.8-.9 4.4-7.7 7.9-15.5 10.4-23.3-.2-.2-.4-.4-.4-.7 0-.5.4-.9.9-.9 5.1-16.8 5.3-33.4.1-48.2zm-64.7 124.9c-.5 0-.9-.4-.9-.9s.4-.9.9-.9.9.4.9.9c.1.4-.4.9-.9.9zm5.4-3.2c-.5 0-.9-.4-.9-.9s.4-.9.9-.9.9.4.9.9c.1.5-.4.9-.9.9zm0-6.2c-.5 0-.9-.4-.9-.9s.4-.9.9-.9.9.4.9.9c.1.5-.4.9-.9.9zm0-6.2c-.5 0-.9-.4-.9-.9s.4-.9.9-.9.9.4.9.9c.1.4-.4.9-.9.9zm0-6.3c-.5 0-.9-.4-.9-.9s.4-.9.9-.9.9.4.9.9-.4.9-.9.9zm0-6.2c-.5 0-.9-.4-.9-.9s.4-.9.9-.9.9.4.9.9c.1.5-.4.9-.9.9zm5.4 21.8c-.5 0-.9-.4-.9-.9s.4-.9.9-.9.9.4.9.9c.1.5-.4.9-.9.9zm0-6.2c-.5 0-.9-.4-.9-.9s.4-.9.9-.9.9.4.9.9-.4.9-.9.9zm0-6.3c-.5 0-.9-.4-.9-.9s.4-.9.9-.9.9.4.9.9c.1.5-.4.9-.9.9zm0-6.2c-.5 0-.9-.4-.9-.9s.4-.9.9-.9.9.4.9.9c.1.5-.4.9-.9.9zm0-6.2c-.5 0-.9-.4-.9-.9s.4-.9.9-.9.9.4.9.9c.1.4-.4.9-.9.9zm0-6.3c-.5 0-.9-.4-.9-.9s.4-.9.9-.9.9.4.9.9c.1.5-.4.9-.9.9zm0-6.2c-.5 0-.9-.4-.9-.9s.4-.9.9-.9.9.4.9.9c.1.5-.4.9-.9.9zm0-6.3c-.5 0-.9-.4-.9-.9s.4-.9.9-.9.9.4.9.9c.1.5-.4.9-.9.9zm0-6.2c-.5 0-.9-.4-.9-.9s.4-.9.9-.9.9.4.9.9c.1.5-.4.9-.9.9zm5.4 40.6c-.5 0-.9-.4-.9-.9s.4-.9.9-.9.9.4.9.9c.1.4-.4.9-.9.9zm0-6.3c-.5 0-.9-.4-.9-.9s.4-.9.9-.9.9.4.9.9-.4.9-.9.9zm0-6.2c-.5 0-.9-.4-.9-.9s.4-.9.9-.9.9.4.9.9c.1.5-.4.9-.9.9zm0-6.3c-.5 0-.9-.4-.9-.9s.4-.9.9-.9.9.4.9.9c.1.5-.4.9-.9.9zm0-6.2c-.5 0-.9-.4-.9-.9s.4-.9.9-.9.9.4.9.9c.1.5-.4.9-.9.9zm0-6.2c-.5 0-.9-.4-.9-.9s.4-.9.9-.9.9.4.9.9c.1.4-.4.9-.9.9zm0-6.3c-.5 0-.9-.4-.9-.9s.4-.9.9-.9.9.4.9.9c.1.5-.4.9-.9.9zm0-6.2c-.5 0-.9-.4-.9-.9s.4-.9.9-.9.9.4.9.9c.1.5-.4.9-.9.9zm0-6.3c-.5 0-.9-.4-.9-.9s.4-.9.9-.9.9.4.9.9c.1.5-.4.9-.9.9zm0-6.2c-.5 0-.9-.4-.9-.9s.4-.9.9-.9.9.4.9.9c.1.5-.4.9-.9.9zm0-6.2c-.5 0-.9-.4-.9-.9s.4-.9.9-.9.9.4.9.9c.1.4-.4.9-.9.9zm0-6.3c-.5 0-.9-.4-.9-.9s.4-.9.9-.9.9.4.9.9c.1.5-.4.9-.9.9zm5.4 65.5c-.5 0-.9-.4-.9-.9s.4-.9.9-.9.9.4.9.9c.1.5-.4.9-.9.9zm0-6.2c-.5 0-.9-.4-.9-.9s.4-.9.9-.9.9.4.9.9c.1.5-.4.9-.9.9zm0-6.2c-.5 0-.9-.4-.9-.9s.4-.9.9-.9.9.4.9.9c.1.4-.4.9-.9.9zm0-6.3c-.5 0-.9-.4-.9-.9s.4-.9.9-.9.9.4.9.9c.1.5-.4.9-.9.9zm0-6.2c-.5 0-.9-.4-.9-.9s.4-.9.9-.9.9.4.9.9c.1.5-.4.9-.9.9zm0-6.3c-.5 0-.9-.4-.9-.9s.4-.9.9-.9.9.4.9.9c.1.5-.4.9-.9.9zm0-6.2c-.5 0-.9-.4-.9-.9s.4-.9.9-.9.9.4.9.9c.1.5-.4.9-.9.9zm0-6.2c-.5 0-.9-.4-.9-.9s.4-.9.9-.9.9.4.9.9c.1.4-.4.9-.9.9zm0-6.3c-.5 0-.9-.4-.9-.9s.4-.9.9-.9.9.4.9.9c.1.5-.4.9-.9.9zm0-6.2c-.5 0-.9-.4-.9-.9s.4-.9.9-.9.9.4.9.9c.1.5-.4.9-.9.9zm0-6.2c-.5 0-.9-.4-.9-.9s.4-.9.9-.9.9.4.9.9c.1.4-.4.9-.9.9zm0-6.3c-.5 0-.9-.4-.9-.9s.4-.9.9-.9.9.4.9.9c.1.5-.4.9-.9.9zm0-6.2c-.5 0-.9-.4-.9-.9s.4-.9.9-.9.9.4.9.9c.1.5-.4.9-.9.9zm0-6.3c-.5 0-.9-.4-.9-.9s.4-.9.9-.9.9.4.9.9c.1.5-.4.9-.9.9zm0-6.2c-.5 0-.9-.4-.9-.9s.4-.9.9-.9.9.4.9.9-.4.9-.9.9zm0-6.2c-.5 0-.9-.4-.9-.9s.4-.9.9-.9.9.4.9.9-.4.9-.9.9zm5.4 90.4c-.5 0-.9-.4-.9-.9s.4-.9.9-.9.9.4.9.9-.3.9-.9.9zm0-6.2c-.5 0-.9-.4-.9-.9s.4-.9.9-.9.9.4.9.9c.1.5-.3.9-.9.9zm0-6.3c-.5 0-.9-.4-.9-.9s.4-.9.9-.9.9.4.9.9c.1.5-.3.9-.9.9zm0-6.2c-.5 0-.9-.4-.9-.9s.4-.9.9-.9.9.4.9.9c.1.5-.3.9-.9.9zm0-6.2c-.5 0-.9-.4-.9-.9s.4-.9.9-.9.9.4.9.9c.1.4-.3.9-.9.9zm0-6.3c-.5 0-.9-.4-.9-.9s.4-.9.9-.9.9.4.9.9c.1.5-.3.9-.9.9zm0-6.2c-.5 0-.9-.4-.9-.9s.4-.9.9-.9.9.4.9.9c.1.5-.3.9-.9.9zm0-6.3c-.5 0-.9-.4-.9-.9s.4-.9.9-.9.9.4.9.9c.1.5-.3.9-.9.9zm0-6.2c-.5 0-.9-.4-.9-.9s.4-.9.9-.9.9.4.9.9c.1.5-.3.9-.9.9zm0-6.2c-.5 0-.9-.4-.9-.9s.4-.9.9-.9.9.4.9.9c.1.4-.3.9-.9.9zm0-6.3c-.5 0-.9-.4-.9-.9s.4-.9.9-.9.9.4.9.9c.1.5-.3.9-.9.9zm0-6.2c-.5 0-.9-.4-.9-.9s.4-.9.9-.9.9.4.9.9c.1.5-.3.9-.9.9zm0-6.2c-.5 0-.9-.4-.9-.9s.4-.9.9-.9.9.4.9.9c.1.4-.3.9-.9.9zm0-6.3c-.5 0-.9-.4-.9-.9s.4-.9.9-.9.9.4.9.9c.1.5-.3.9-.9.9zm0-6.2c-.5 0-.9-.4-.9-.9s.4-.9.9-.9.9.4.9.9-.3.9-.9.9zm0-6.3c-.5 0-.9-.4-.9-.9s.4-.9.9-.9.9.4.9.9c.1.5-.3.9-.9.9zm0-6.2c-.5 0-.9-.4-.9-.9s.4-.9.9-.9.9.4.9.9-.3.9-.9.9zm0-6.2c-.5 0-.9-.4-.9-.9s.4-.9.9-.9.9.4.9.9-.3.9-.9.9zm0-6.3c-.5 0-.9-.4-.9-.9s.4-.9.9-.9.9.4.9.9-.3.9-.9.9zm0-6.2c-.5 0-.9-.4-.9-.9s.4-.9.9-.9.9.4.9.9-.3.9-.9.9zm5.4 115.4c-.5 0-.9-.4-.9-.9s.4-.9.9-.9.9.4.9.9c.1.5-.3.9-.9.9zm0-6.2c-.5 0-.9-.4-.9-.9s.4-.9.9-.9.9.4.9.9c.1.4-.3.9-.9.9zm0-6.3c-.5 0-.9-.4-.9-.9s.4-.9.9-.9.9.4.9.9c.1.5-.3.9-.9.9zm0-6.2c-.5 0-.9-.4-.9-.9s.4-.9.9-.9.9.4.9.9c.1.5-.3.9-.9.9zm0-6.3c-.5 0-.9-.4-.9-.9s.4-.9.9-.9.9.4.9.9c.1.5-.3.9-.9.9zm0-6.2c-.5 0-.9-.4-.9-.9s.4-.9.9-.9.9.4.9.9c.1.5-.3.9-.9.9zm0-6.2c-.5 0-.9-.4-.9-.9s.4-.9.9-.9.9.4.9.9c.1.4-.3.9-.9.9zm0-6.3c-.5 0-.9-.4-.9-.9s.4-.9.9-.9.9.4.9.9c.1.5-.3.9-.9.9zm0-6.2c-.5 0-.9-.4-.9-.9s.4-.9.9-.9.9.4.9.9c.1.5-.3.9-.9.9zm0-6.2c-.5 0-.9-.4-.9-.9s.4-.9.9-.9.9.4.9.9c.1.4-.3.9-.9.9zm0-6.3c-.5 0-.9-.4-.9-.9s.4-.9.9-.9.9.4.9.9c.1.5-.3.9-.9.9zm0-6.2c-.5 0-.9-.4-.9-.9s.4-.9.9-.9.9.4.9.9c.1.5-.3.9-.9.9zm0-6.3c-.5 0-.9-.4-.9-.9s.4-.9.9-.9.9.4.9.9c.1.5-.3.9-.9.9zm0-6.2c-.5 0-.9-.4-.9-.9s.4-.9.9-.9.9.4.9.9-.3.9-.9.9zm0-6.2c-.5 0-.9-.4-.9-.9s.4-.9.9-.9.9.4.9.9-.3.9-.9.9zm0-6.3c-.5 0-.9-.4-.9-.9s.4-.9.9-.9.9.4.9.9-.3.9-.9.9zm0-6.2c-.5 0-.9-.4-.9-.9s.4-.9.9-.9.9.4.9.9c.1.5-.3.9-.9.9zm0-6.3c-.5 0-.9-.4-.9-.9s.4-.9.9-.9.9.4.9.9-.3.9-.9.9zm0-6.2c-.5 0-.9-.4-.9-.9s.4-.9.9-.9.9.4.9.9c.1.5-.3.9-.9.9zm0-6.2c-.5 0-.9-.4-.9-.9s.4-.9.9-.9.9.4.9.9-.3.9-.9.9zm0-6.3c-.5 0-.9-.4-.9-.9s.4-.9.9-.9.9.4.9.9c.1.5-.3.9-.9.9zm0-6.2c-.5 0-.9-.4-.9-.9s.4-.9.9-.9.9.4.9.9c.1.5-.3.9-.9.9zm5.4 121.6c-.5 0-.9-.4-.9-.9s.4-.9.9-.9.9.4.9.9c.1.5-.3.9-.9.9zm0-6.2c-.5 0-.9-.4-.9-.9s.4-.9.9-.9.9.4.9.9c.1.5-.3.9-.9.9zm0-6.2c-.5 0-.9-.4-.9-.9s.4-.9.9-.9.9.4.9.9c.1.4-.3.9-.9.9zm0-6.3c-.5 0-.9-.4-.9-.9s.4-.9.9-.9.9.4.9.9c.1.5-.3.9-.9.9zm0-6.2c-.5 0-.9-.4-.9-.9s.4-.9.9-.9.9.4.9.9c.1.5-.3.9-.9.9zm0-6.3c-.5 0-.9-.4-.9-.9s.4-.9.9-.9.9.4.9.9c.1.5-.3.9-.9.9zm0-6.2c-.5 0-.9-.4-.9-.9s.4-.9.9-.9.9.4.9.9c.1.5-.3.9-.9.9zm0-6.2c-.5 0-.9-.4-.9-.9s.4-.9.9-.9.9.4.9.9c.1.4-.3.9-.9.9zm0-6.3c-.5 0-.9-.4-.9-.9s.4-.9.9-.9.9.4.9.9c.1.5-.3.9-.9.9zm0-6.2c-.5 0-.9-.4-.9-.9s.4-.9.9-.9.9.4.9.9c.1.5-.3.9-.9.9zm0-6.2c-.5 0-.9-.4-.9-.9s.4-.9.9-.9.9.4.9.9c.1.4-.3.9-.9.9zm0-6.3c-.5 0-.9-.4-.9-.9s.4-.9.9-.9.9.4.9.9c.1.5-.3.9-.9.9zm0-6.2c-.5 0-.9-.4-.9-.9s.4-.9.9-.9.9.4.9.9-.3.9-.9.9zm0-6.3c-.5 0-.9-.4-.9-.9s.4-.9.9-.9.9.4.9.9c.1.5-.3.9-.9.9zm0-6.2c-.5 0-.9-.4-.9-.9s.4-.9.9-.9.9.4.9.9-.3.9-.9.9zm0-6.2c-.5 0-.9-.4-.9-.9s.4-.9.9-.9.9.4.9.9-.3.9-.9.9zm0-6.3c-.5 0-.9-.4-.9-.9s.4-.9.9-.9.9.4.9.9-.3.9-.9.9zm0-6.2c-.5 0-.9-.4-.9-.9s.4-.9.9-.9.9.4.9.9-.3.9-.9.9zm0-6.2c-.5 0-.9-.4-.9-.9s.4-.9.9-.9.9.4.9.9c.1.4-.3.9-.9.9zm0-6.3c-.5 0-.9-.4-.9-.9s.4-.9.9-.9.9.4.9.9-.3.9-.9.9zm5.4 115.4c-.5 0-.9-.4-.9-.9s.4-.9.9-.9.9.4.9.9c.1.5-.3.9-.9.9zm0-6.2c-.5 0-.9-.4-.9-.9s.4-.9.9-.9.9.4.9.9c.1.5-.3.9-.9.9zm0-6.3c-.5 0-.9-.4-.9-.9s.4-.9.9-.9.9.4.9.9c.1.5-.3.9-.9.9zm0-6.2c-.5 0-.9-.4-.9-.9s.4-.9.9-.9.9.4.9.9c.1.5-.3.9-.9.9zm0-6.2c-.5 0-.9-.4-.9-.9s.4-.9.9-.9.9.4.9.9c.1.4-.3.9-.9.9zm0-6.3c-.5 0-.9-.4-.9-.9s.4-.9.9-.9.9.4.9.9c.1.5-.3.9-.9.9zm0-6.2c-.5 0-.9-.4-.9-.9s.4-.9.9-.9.9.4.9.9c.1.5-.3.9-.9.9zm0-6.2c-.5 0-.9-.4-.9-.9s.4-.9.9-.9.9.4.9.9c.1.4-.3.9-.9.9zm0-6.3c-.5 0-.9-.4-.9-.9s.4-.9.9-.9.9.4.9.9c.1.5-.3.9-.9.9zm0-6.2c-.5 0-.9-.4-.9-.9s.4-.9.9-.9.9.4.9.9c.1.5-.3.9-.9.9zm0-6.3c-.5 0-.9-.4-.9-.9s.4-.9.9-.9.9.4.9.9c.1.5-.3.9-.9.9zm0-6.2c-.5 0-.9-.4-.9-.9s.4-.9.9-.9.9.4.9.9-.3.9-.9.9zm0-6.2c-.5 0-.9-.4-.9-.9s.4-.9.9-.9.9.4.9.9-.3.9-.9.9zm0-6.3c-.5 0-.9-.4-.9-.9s.4-.9.9-.9.9.4.9.9-.3.9-.9.9zm0-6.2c-.5 0-.9-.4-.9-.9s.4-.9.9-.9.9.4.9.9c.1.5-.3.9-.9.9zm0-6.3c-.5 0-.9-.4-.9-.9s.4-.9.9-.9.9.4.9.9-.3.9-.9.9zm0-6.2c-.5 0-.9-.4-.9-.9s.4-.9.9-.9.9.4.9.9c.1.5-.3.9-.9.9zm0-6.2c-.5 0-.9-.4-.9-.9s.4-.9.9-.9.9.4.9.9-.3.9-.9.9zm0-6.3c-.5 0-.9-.4-.9-.9s.4-.9.9-.9.9.4.9.9c.1.5-.3.9-.9.9zm5.4 103c-.5 0-.9-.4-.9-.9s.4-.9.9-.9.9.4.9.9c.1.4-.3.9-.9.9zm0-6.3c-.5 0-.9-.4-.9-.9s.4-.9.9-.9.9.4.9.9c.1.5-.3.9-.9.9zm0-6.2c-.5 0-.9-.4-.9-.9s.4-.9.9-.9.9.4.9.9c.1.5-.3.9-.9.9zm0-6.3c-.5 0-.9-.4-.9-.9s.4-.9.9-.9.9.4.9.9c.1.5-.3.9-.9.9zm0-6.2c-.5 0-.9-.4-.9-.9s.4-.9.9-.9.9.4.9.9c.1.5-.3.9-.9.9zm0-6.2c-.5 0-.9-.4-.9-.9s.4-.9.9-.9.9.4.9.9c.1.4-.3.9-.9.9zm0-6.3c-.5 0-.9-.4-.9-.9s.4-.9.9-.9.9.4.9.9c.1.5-.3.9-.9.9zm0-6.2c-.5 0-.9-.4-.9-.9s.4-.9.9-.9.9.4.9.9c.1.5-.3.9-.9.9zm0-6.2c-.5 0-.9-.4-.9-.9s.4-.9.9-.9.9.4.9.9c.1.4-.3.9-.9.9zm0-6.3c-.5 0-.9-.4-.9-.9s.4-.9.9-.9.9.4.9.9c.1.5-.3.9-.9.9zm0-6.2c-.5 0-.9-.4-.9-.9s.4-.9.9-.9.9.4.9.9-.3.9-.9.9zm0-6.3c-.5 0-.9-.4-.9-.9s.4-.9.9-.9.9.4.9.9c.1.5-.3.9-.9.9zm0-6.2c-.5 0-.9-.4-.9-.9s.4-.9.9-.9.9.4.9.9-.3.9-.9.9zm0-6.2c-.5 0-.9-.4-.9-.9s.4-.9.9-.9.9.4.9.9-.3.9-.9.9zm0-6.3c-.5 0-.9-.4-.9-.9s.4-.9.9-.9.9.4.9.9-.3.9-.9.9zm0-6.2c-.5 0-.9-.4-.9-.9s.4-.9.9-.9.9.4.9.9-.3.9-.9.9zm0-6.2c-.5 0-.9-.4-.9-.9s.4-.9.9-.9.9.4.9.9c.1.4-.3.9-.9.9zm5.4 90.4c-.5 0-.9-.4-.9-.9s.4-.9.9-.9.9.4.9.9c.1.5-.3.9-.9.9zm0-6.2c-.5 0-.9-.4-.9-.9s.4-.9.9-.9.9.4.9.9c.1.4-.3.9-.9.9zm0-6.3c-.5 0-.9-.4-.9-.9s.4-.9.9-.9.9.4.9.9c.1.5-.3.9-.9.9zm0-6.2c-.5 0-.9-.4-.9-.9s.4-.9.9-.9.9.4.9.9c.1.5-.3.9-.9.9zm0-6.2c-.5 0-.9-.4-.9-.9s.4-.9.9-.9.9.4.9.9c.1.4-.3.9-.9.9zm0-6.3c-.5 0-.9-.4-.9-.9s.4-.9.9-.9.9.4.9.9c.1.5-.3.9-.9.9zm0-6.2c-.5 0-.9-.4-.9-.9s.4-.9.9-.9.9.4.9.9c.1.5-.3.9-.9.9zm0-6.3c-.5 0-.9-.4-.9-.9s.4-.9.9-.9.9.4.9.9c.1.5-.3.9-.9.9zm0-6.2c-.5 0-.9-.4-.9-.9s.4-.9.9-.9.9.4.9.9-.3.9-.9.9zm0-6.2c-.5 0-.9-.4-.9-.9s.4-.9.9-.9.9.4.9.9-.3.9-.9.9zm0-6.3c-.5 0-.9-.4-.9-.9s.4-.9.9-.9.9.4.9.9-.3.9-.9.9zm0-6.2c-.5 0-.9-.4-.9-.9s.4-.9.9-.9.9.4.9.9c.1.5-.3.9-.9.9zm0-6.3c-.5 0-.9-.4-.9-.9s.4-.9.9-.9.9.4.9.9-.3.9-.9.9zm0-6.2c-.5 0-.9-.4-.9-.9s.4-.9.9-.9.9.4.9.9c.1.5-.3.9-.9.9zm5.4 71.7c-.5 0-.9-.4-.9-.9s.4-.9.9-.9.9.4.9.9c.1.5-.3.9-.9.9zm0-6.2c-.5 0-.9-.4-.9-.9s.4-.9.9-.9.9.4.9.9c.1.5-.3.9-.9.9zm0-6.2c-.5 0-.9-.4-.9-.9s.4-.9.9-.9.9.4.9.9c.1.4-.3.9-.9.9zm0-6.3c-.5 0-.9-.4-.9-.9s.4-.9.9-.9.9.4.9.9c.1.5-.3.9-.9.9zm0-6.2c-.5 0-.9-.4-.9-.9s.4-.9.9-.9.9.4.9.9c.1.5-.3.9-.9.9zm0-6.2c-.5 0-.9-.4-.9-.9s.4-.9.9-.9.9.4.9.9c.1.4-.3.9-.9.9zm0-6.3c-.5 0-.9-.4-.9-.9s.4-.9.9-.9.9.4.9.9c.1.5-.3.9-.9.9zm0-6.2c-.5 0-.9-.4-.9-.9s.4-.9.9-.9.9.4.9.9-.3.9-.9.9zm0-6.3c-.5 0-.9-.4-.9-.9s.4-.9.9-.9.9.4.9.9c.1.5-.3.9-.9.9zm0-6.2c-.5 0-.9-.4-.9-.9s.4-.9.9-.9.9.4.9.9-.3.9-.9.9zm0-6.2c-.5 0-.9-.4-.9-.9s.4-.9.9-.9.9.4.9.9-.3.9-.9.9zm5.4 7.4c.5 0 .9.4.9.9s-.4.9-.9.9-.9-.4-.9-.9.4-.9.9-.9zm0 39.4c-.5 0-.9-.4-.9-.9s.4-.9.9-.9.9.4.9.9c.1.4-.3.9-.9.9zm0-6.3c-.5 0-.9-.4-.9-.9s.4-.9.9-.9.9.4.9.9c.1.5-.3.9-.9.9zm0-6.2c-.5 0-.9-.4-.9-.9s.4-.9.9-.9.9.4.9.9c.1.5-.3.9-.9.9zm0-6.3c-.5 0-.9-.4-.9-.9s.4-.9.9-.9.9.4.9.9c.1.5-.3.9-.9.9zm0-6.2c-.5 0-.9-.4-.9-.9s.4-.9.9-.9.9.4.9.9-.3.9-.9.9zm0-6.2c-.5 0-.9-.4-.9-.9s.4-.9.9-.9.9.4.9.9-.3.9-.9.9zM88.4 62.9c-.1.1-.3.2-.4.3.5 0 .9.4.9.9s-.4.9-.9.9-1-.4-1-.9c0-.2 0-.3.1-.4-1.4.9-2.9 1.8-4.3 2.7.4.1.6.5.6.9 0 .5-.4.9-.9.9s-.9-.4-.9-.9v-.1c-1.3.8-2.5 1.7-3.8 2.5.2.2.3.4.3.6 0 .5-.4.9-.9.9-.4 0-.7-.2-.8-.5l-3.6 2.7c0 .5-.4.9-.9.9-.1 0-.2 0-.3-.1C66 78.5 60.7 83.1 55.8 88c.5.1.8.4.8.9s-.4.9-.9.9-.9-.4-.9-.8c-3.7 3.7-7.1 7.5-10.3 11.5.1-.1.3-.1.4-.1.5 0 .9.4.9.9s-.4.9-.9.9-.9-.4-.9-.9v-.2c-3.3 4.1-6.3 8.3-9 12.6v.1c0 .4-.3.8-.7.9-1.7 2.8-3.3 5.5-4.8 8.4v.1c0 .4-.2.7-.5.8-1.2 2.3-2.3 4.6-3.3 7-1 2.3-1.9 4.6-2.7 6.9h.1c.5 0 .9.4.9.9s-.4.9-.9.9c-.3 0-.5-.1-.7-.3-1.7 5-3 10-3.8 14.9 0 .1 0 .2-.1.3-.3 1.7-.5 3.4-.7 5 .4.1.7.5.7.9 0 .5-.4.9-.9.9-.1 1.5-.2 2.9-.2 4.4h.2c.5 0 .9.4.9.9s-.4.9-.9.9h-.2c0 1.5 0 2.9.1 4.4h.1c.5 0 .9.4.9.9s-.4.9-.9.9c.1 1.5.3 3 .5 4.5.2.2.4.4.4.8 0 .2-.1.4-.2.6.8 5 2.2 9.7 4.1 14.3.2-.1.4-.2.6-.2.5 0 .9.4.9.9s-.4.8-.8.9c1 2.2 2.1 4.4 3.4 6.6.3.5.6 1 1 1.5.1-.4.5-.6.9-.6.5 0 .9.4.9.9s-.4.9-.9.9h-.1c1.8 2.7 3.9 5.3 6.1 7.7l.1.1c1.2 1.3 2.4 2.5 3.8 3.7 0-.5.4-.9.9-.9s.9.4.9.9-.4.9-.9.9c4.9 4.3 10.5 7.9 16.7 10.9l4.7-23.4c-.4-.1-.8-.5-.8-.9 0-.5.4-.9.9-.9h.2l5.2-26.2c-.5 0-.9-.4-.9-.9s.4-.9.9-.9c.1 0 .3 0 .4.1l4.1-20.7c0-.1-.1-.2-.1-.3 0-.2.1-.4.2-.6l.9-4.7h-.2c-.5 0-.9-.4-.9-.9s.4-.9.9-.9c.2 0 .4.1.6.2l4.1-20.5c-.1-.2-.2-.4-.2-.6 0-.4.2-.6.5-.8l.9-4.6c-.1.1-.3.1-.5.1-.5 0-.9-.4-.9-.9s.4-.9.9-.9c.3 0 .6.2.7.4L82 99.2c-.2-.2-.4-.4-.4-.7 0-.4.3-.8.7-.9l.9-4.7c-.2.2-.4.3-.7.3-.5 0-.9-.4-.9-.9s.4-.9.9-.9c.4 0 .8.3.9.6l4.1-20.7c-.3-.1-.6-.5-.6-.9 0-.5.4-.9.9-.9l1.4-7c-.2 0-.5.2-.8.4zM23.1 189.8c-.5 0-.9-.4-.9-.9s.4-.9.9-.9.9.4.9.9-.3.9-.9.9zm0-6.2c-.5 0-.9-.4-.9-.9s.4-.9.9-.9.9.4.9.9c.1.5-.3.9-.9.9zm0-6.3c-.5 0-.9-.4-.9-.9s.4-.9.9-.9.9.4.9.9c.1.5-.3.9-.9.9zm0-6.2c-.5 0-.9-.4-.9-.9s.4-.9.9-.9.9.4.9.9c.1.5-.3.9-.9.9zm0-6.2c-.5 0-.9-.4-.9-.9s.4-.9.9-.9.9.4.9.9c.1.4-.3.9-.9.9zm0-6.3c-.5 0-.9-.4-.9-.9s.4-.9.9-.9.9.4.9.9c.1.5-.3.9-.9.9zm0-6.2c-.5 0-.9-.4-.9-.9s.4-.9.9-.9.9.4.9.9c.1.5-.3.9-.9.9zm0-6.3c-.5 0-.9-.4-.9-.9s.4-.9.9-.9.9.4.9.9c.1.5-.3.9-.9.9zm5.4 53.1c-.5 0-.9-.4-.9-.9s.4-.9.9-.9.9.4.9.9-.3.9-.9.9zm0-6.3c-.5 0-.9-.4-.9-.9s.4-.9.9-.9.9.4.9.9c.1.5-.3.9-.9.9zm0-6.2c-.5 0-.9-.4-.9-.9s.4-.9.9-.9.9.4.9.9c.1.5-.3.9-.9.9zm0-6.2c-.5 0-.9-.4-.9-.9s.4-.9.9-.9.9.4.9.9c.1.4-.3.9-.9.9zm0-6.3c-.5 0-.9-.4-.9-.9s.4-.9.9-.9.9.4.9.9c.1.5-.3.9-.9.9zm0-6.2c-.5 0-.9-.4-.9-.9s.4-.9.9-.9.9.4.9.9c.1.5-.3.9-.9.9zm0-6.3c-.5 0-.9-.4-.9-.9s.4-.9.9-.9.9.4.9.9c.1.5-.3.9-.9.9zm0-6.2c-.5 0-.9-.4-.9-.9s.4-.9.9-.9.9.4.9.9c.1.5-.3.9-.9.9zm0-6.2c-.5 0-.9-.4-.9-.9s.4-.9.9-.9.9.4.9.9c.1.4-.3.9-.9.9zm0-6.3c-.5 0-.9-.4-.9-.9s.4-.9.9-.9.9.4.9.9c.1.5-.3.9-.9.9zm0-6.2c-.5 0-.9-.4-.9-.9s.4-.9.9-.9.9.4.9.9c.1.5-.3.9-.9.9zm0-6.2c-.5 0-.9-.4-.9-.9s.4-.9.9-.9.9.4.9.9c.1.4-.3.9-.9.9zm5.4 77.9c-.5 0-.9-.4-.9-.9s.4-.9.9-.9.9.4.9.9c.1.5-.3.9-.9.9zm0-6.2c-.5 0-.9-.4-.9-.9s.4-.9.9-.9.9.4.9.9c.1.5-.3.9-.9.9zm0-6.2c-.5 0-.9-.4-.9-.9s.4-.9.9-.9.9.4.9.9c.1.4-.3.9-.9.9zm0-6.3c-.5 0-.9-.4-.9-.9s.4-.9.9-.9.9.4.9.9-.3.9-.9.9zm0-6.2c-.5 0-.9-.4-.9-.9s.4-.9.9-.9.9.4.9.9c.1.5-.3.9-.9.9zm0-6.3c-.5 0-.9-.4-.9-.9s.4-.9.9-.9.9.4.9.9c.1.5-.3.9-.9.9zm0-6.2c-.5 0-.9-.4-.9-.9s.4-.9.9-.9.9.4.9.9c.1.5-.3.9-.9.9zm0-6.2c-.5 0-.9-.4-.9-.9s.4-.9.9-.9.9.4.9.9c.1.4-.3.9-.9.9zm0-6.3c-.5 0-.9-.4-.9-.9s.4-.9.9-.9.9.4.9.9c.1.5-.3.9-.9.9zm0-6.2c-.5 0-.9-.4-.9-.9s.4-.9.9-.9.9.4.9.9c.1.5-.3.9-.9.9zm0-6.3c-.5 0-.9-.4-.9-.9s.4-.9.9-.9.9.4.9.9c.1.5-.3.9-.9.9zm0-6.2c-.5 0-.9-.4-.9-.9s.4-.9.9-.9.9.4.9.9c.1.5-.3.9-.9.9zm0-6.2c-.5 0-.9-.4-.9-.9s.4-.9.9-.9.9.4.9.9c.1.4-.3.9-.9.9zm0-6.3c-.5 0-.9-.4-.9-.9s.4-.9.9-.9.9.4.9.9c.1.5-.3.9-.9.9zm0-6.2c-.5 0-.9-.4-.9-.9s.4-.9.9-.9.9.4.9.9c.1.5-.3.9-.9.9zm5.4 90.5c-.5 0-.9-.4-.9-.9s.4-.9.9-.9.9.4.9.9c.1.4-.3.9-.9.9zm0-6.3c-.5 0-.9-.4-.9-.9s.4-.9.9-.9.9.4.9.9c.1.5-.3.9-.9.9zm0-6.2c-.5 0-.9-.4-.9-.9s.4-.9.9-.9.9.4.9.9-.3.9-.9.9zm0-6.3c-.5 0-.9-.4-.9-.9s.4-.9.9-.9.9.4.9.9c.1.5-.3.9-.9.9zm0-6.2c-.5 0-.9-.4-.9-.9s.4-.9.9-.9.9.4.9.9c.1.5-.3.9-.9.9zm0-6.2c-.5 0-.9-.4-.9-.9s.4-.9.9-.9.9.4.9.9c.1.4-.3.9-.9.9zm0-6.3c-.5 0-.9-.4-.9-.9s.4-.9.9-.9.9.4.9.9c.1.5-.3.9-.9.9zm0-6.2c-.5 0-.9-.4-.9-.9s.4-.9.9-.9.9.4.9.9c.1.5-.3.9-.9.9zm0-6.3c-.5 0-.9-.4-.9-.9s.4-.9.9-.9.9.4.9.9c.1.5-.3.9-.9.9zm0-6.2c-.5 0-.9-.4-.9-.9s.4-.9.9-.9.9.4.9.9c.1.5-.3.9-.9.9zm0-6.2c-.5 0-.9-.4-.9-.9s.4-.9.9-.9.9.4.9.9c.1.4-.3.9-.9.9zm0-6.3c-.5 0-.9-.4-.9-.9s.4-.9.9-.9.9.4.9.9c.1.5-.3.9-.9.9zm0-6.2c-.5 0-.9-.4-.9-.9s.4-.9.9-.9.9.4.9.9c.1.5-.3.9-.9.9zm0-6.2c-.5 0-.9-.4-.9-.9s.4-.9.9-.9.9.4.9.9c.1.4-.3.9-.9.9zm0-6.3c-.5 0-.9-.4-.9-.9s.4-.9.9-.9.9.4.9.9c.1.5-.3.9-.9.9zm0-6.2c-.5 0-.9-.4-.9-.9s.4-.9.9-.9.9.4.9.9c.1.5-.3.9-.9.9zm0-6.3c-.5 0-.9-.4-.9-.9s.4-.9.9-.9.9.4.9.9c.1.5-.3.9-.9.9zM44.7 221c-.5 0-.9-.4-.9-.9s.4-.9.9-.9.9.4.9.9c.1.5-.3.9-.9.9zm0-6.2c-.5 0-.9-.4-.9-.9s.4-.9.9-.9.9.4.9.9c.1.4-.3.9-.9.9zm0-6.3c-.5 0-.9-.4-.9-.9s.4-.9.9-.9.9.4.9.9c.1.5-.3.9-.9.9zm0-6.2c-.5 0-.9-.4-.9-.9s.4-.9.9-.9.9.4.9.9c.1.5-.3.9-.9.9zm0-6.2c-.5 0-.9-.4-.9-.9s.4-.9.9-.9.9.4.9.9c.1.4-.3.9-.9.9zm0-6.3c-.5 0-.9-.4-.9-.9s.4-.9.9-.9.9.4.9.9-.3.9-.9.9zm0-6.2c-.5 0-.9-.4-.9-.9s.4-.9.9-.9.9.4.9.9c.1.5-.3.9-.9.9zm0-6.3c-.5 0-.9-.4-.9-.9s.4-.9.9-.9.9.4.9.9c.1.5-.3.9-.9.9zm0-6.2c-.5 0-.9-.4-.9-.9s.4-.9.9-.9.9.4.9.9c.1.5-.3.9-.9.9zm0-6.2c-.5 0-.9-.4-.9-.9s.4-.9.9-.9.9.4.9.9c.1.4-.3.9-.9.9zm0-6.3c-.5 0-.9-.4-.9-.9s.4-.9.9-.9.9.4.9.9c.1.5-.3.9-.9.9zm0-6.2c-.5 0-.9-.4-.9-.9s.4-.9.9-.9.9.4.9.9c.1.5-.3.9-.9.9zm0-6.3c-.5 0-.9-.4-.9-.9s.4-.9.9-.9.9.4.9.9c.1.5-.3.9-.9.9zm0-6.2c-.5 0-.9-.4-.9-.9s.4-.9.9-.9.9.4.9.9c.1.5-.3.9-.9.9zm0-6.2c-.5 0-.9-.4-.9-.9s.4-.9.9-.9.9.4.9.9c.1.4-.3.9-.9.9zm0-6.3c-.5 0-.9-.4-.9-.9s.4-.9.9-.9.9.4.9.9c.1.5-.3.9-.9.9zm0-6.2c-.5 0-.9-.4-.9-.9s.4-.9.9-.9.9.4.9.9c.1.5-.3.9-.9.9zm0-6.2c-.5 0-.9-.4-.9-.9s.4-.9.9-.9.9.4.9.9c.1.4-.3.9-.9.9zm0-6.3c-.5 0-.9-.4-.9-.9s.4-.9.9-.9.9.4.9.9c.1.5-.3.9-.9.9zm5.5 115.4c-.5 0-.9-.4-.9-.9s.4-.9.9-.9.9.4.9.9-.4.9-.9.9zm0-6.2c-.5 0-.9-.4-.9-.9s.4-.9.9-.9.9.4.9.9-.4.9-.9.9zm0-6.2c-.5 0-.9-.4-.9-.9s.4-.9.9-.9.9.4.9.9c0 .4-.4.9-.9.9zm0-6.3c-.5 0-.9-.4-.9-.9s.4-.9.9-.9.9.4.9.9-.4.9-.9.9zm0-6.2c-.5 0-.9-.4-.9-.9s.4-.9.9-.9.9.4.9.9-.4.9-.9.9zm0-6.3c-.5 0-.9-.4-.9-.9s.4-.9.9-.9.9.4.9.9-.4.9-.9.9zm0-6.2c-.5 0-.9-.4-.9-.9s.4-.9.9-.9.9.4.9.9-.4.9-.9.9zm0-6.2c-.5 0-.9-.4-.9-.9s.4-.9.9-.9.9.4.9.9c0 .4-.4.9-.9.9zm0-6.3c-.5 0-.9-.4-.9-.9s.4-.9.9-.9.9.4.9.9-.4.9-.9.9zm0-6.2c-.5 0-.9-.4-.9-.9s.4-.9.9-.9.9.4.9.9-.4.9-.9.9zm0-6.3c-.5 0-.9-.4-.9-.9s.4-.9.9-.9.9.4.9.9-.4.9-.9.9zm0-6.2c-.5 0-.9-.4-.9-.9s.4-.9.9-.9.9.4.9.9-.4.9-.9.9zm0-6.2c-.5 0-.9-.4-.9-.9s.4-.9.9-.9.9.4.9.9c0 .4-.4.9-.9.9zm0-6.3c-.5 0-.9-.4-.9-.9s.4-.9.9-.9.9.4.9.9-.4.9-.9.9zm0-6.2c-.5 0-.9-.4-.9-.9s.4-.9.9-.9.9.4.9.9-.4.9-.9.9zm0-6.2c-.5 0-.9-.4-.9-.9s.4-.9.9-.9.9.4.9.9c0 .4-.4.9-.9.9zm0-6.3c-.5 0-.9-.4-.9-.9s.4-.9.9-.9.9.4.9.9-.4.9-.9.9zm0-6.2c-.5 0-.9-.4-.9-.9s.4-.9.9-.9.9.4.9.9-.4.9-.9.9zm0-6.3c-.5 0-.9-.4-.9-.9s.4-.9.9-.9.9.4.9.9-.4.9-.9.9zm0-6.2c-.5 0-.9-.4-.9-.9s.4-.9.9-.9.9.4.9.9-.4.9-.9.9zm0-6.2c-.5 0-.9-.4-.9-.9s.4-.9.9-.9.9.4.9.9-.4.9-.9.9zm5.4 127.8c-.5 0-.9-.4-.9-.9s.4-.9.9-.9.9.4.9.9-.4.9-.9.9zm0-6.2c-.5 0-.9-.4-.9-.9s.4-.9.9-.9.9.4.9.9-.4.9-.9.9zm0-6.2c-.5 0-.9-.4-.9-.9s.4-.9.9-.9.9.4.9.9c0 .4-.4.9-.9.9zm0-6.3c-.5 0-.9-.4-.9-.9s.4-.9.9-.9.9.4.9.9-.4.9-.9.9zm0-6.2c-.5 0-.9-.4-.9-.9s.4-.9.9-.9.9.4.9.9-.4.9-.9.9zm0-6.2c-.5 0-.9-.4-.9-.9s.4-.9.9-.9.9.4.9.9c0 .4-.4.9-.9.9zm0-6.3c-.5 0-.9-.4-.9-.9s.4-.9.9-.9.9.4.9.9-.4.9-.9.9zm0-6.2c-.5 0-.9-.4-.9-.9s.4-.9.9-.9.9.4.9.9-.4.9-.9.9zm0-6.3c-.5 0-.9-.4-.9-.9s.4-.9.9-.9.9.4.9.9-.4.9-.9.9zm0-6.2c-.5 0-.9-.4-.9-.9s.4-.9.9-.9.9.4.9.9-.4.9-.9.9zm0-6.2c-.5 0-.9-.4-.9-.9s.4-.9.9-.9.9.4.9.9c0 .4-.4.9-.9.9zm0-6.3c-.5 0-.9-.4-.9-.9s.4-.9.9-.9.9.4.9.9-.4.9-.9.9zm0-6.2c-.5 0-.9-.4-.9-.9s.4-.9.9-.9.9.4.9.9-.4.9-.9.9zm0-6.3c-.5 0-.9-.4-.9-.9s.4-.9.9-.9.9.4.9.9-.4.9-.9.9zm0-6.2c-.5 0-.9-.4-.9-.9s.4-.9.9-.9.9.4.9.9-.4.9-.9.9zm0-6.2c-.5 0-.9-.4-.9-.9s.4-.9.9-.9.9.4.9.9c0 .4-.4.9-.9.9zm0-6.3c-.5 0-.9-.4-.9-.9s.4-.9.9-.9.9.4.9.9-.4.9-.9.9zm0-6.2c-.5 0-.9-.4-.9-.9s.4-.9.9-.9.9.4.9.9-.4.9-.9.9zm0-6.2c-.5 0-.9-.4-.9-.9s.4-.9.9-.9.9.4.9.9c0 .4-.4.9-.9.9zm0-6.3c-.5 0-.9-.4-.9-.9s.4-.9.9-.9.9.4.9.9-.4.9-.9.9zm0-6.2c-.5 0-.9-.4-.9-.9s.4-.9.9-.9.9.4.9.9-.4.9-.9.9zm0-6.3c-.5 0-.9-.4-.9-.9s.4-.9.9-.9.9.4.9.9-.4.9-.9.9zm5.4 103c-.5 0-.9-.4-.9-.9s.4-.9.9-.9.9.4.9.9-.4.9-.9.9zm0-6.3c-.5 0-.9-.4-.9-.9s.4-.9.9-.9.9.4.9.9-.4.9-.9.9zm0-6.2c-.5 0-.9-.4-.9-.9s.4-.9.9-.9.9.4.9.9-.4.9-.9.9zm0-6.2c-.5 0-.9-.4-.9-.9s.4-.9.9-.9.9.4.9.9c0 .4-.4.9-.9.9zm0-6.3c-.5 0-.9-.4-.9-.9s.4-.9.9-.9.9.4.9.9-.4.9-.9.9zm0-6.2c-.5 0-.9-.4-.9-.9s.4-.9.9-.9.9.4.9.9-.4.9-.9.9zm0-6.3c-.5 0-.9-.4-.9-.9s.4-.9.9-.9.9.4.9.9-.4.9-.9.9zm0-6.2c-.5 0-.9-.4-.9-.9s.4-.9.9-.9.9.4.9.9-.4.9-.9.9zm0-6.2c-.5 0-.9-.4-.9-.9s.4-.9.9-.9.9.4.9.9c0 .4-.4.9-.9.9zm0-6.3c-.5 0-.9-.4-.9-.9s.4-.9.9-.9.9.4.9.9-.4.9-.9.9zm0-6.2c-.5 0-.9-.4-.9-.9s.4-.9.9-.9.9.4.9.9-.4.9-.9.9zm0-6.2c-.5 0-.9-.4-.9-.9s.4-.9.9-.9.9.4.9.9c0 .4-.4.9-.9.9zm0-6.3c-.5 0-.9-.4-.9-.9s.4-.9.9-.9.9.4.9.9-.4.9-.9.9zm0-6.2c-.5 0-.9-.4-.9-.9s.4-.9.9-.9.9.4.9.9-.4.9-.9.9zm0-6.3c-.5 0-.9-.4-.9-.9s.4-.9.9-.9.9.4.9.9-.4.9-.9.9zm0-6.2c-.5 0-.9-.4-.9-.9s.4-.9.9-.9.9.4.9.9-.4.9-.9.9zm0-6.2c-.5 0-.9-.4-.9-.9s.4-.9.9-.9.9.4.9.9-.4.9-.9.9zm0-6.3c-.5 0-.9-.4-.9-.9s.4-.9.9-.9.9.4.9.9-.4.9-.9.9zm0-6.2c-.5 0-.9-.4-.9-.9s.4-.9.9-.9.9.4.9.9-.4.9-.9.9zm5.4 84.2c-.5 0-.9-.4-.9-.9s.4-.9.9-.9.9.4.9.9-.4.9-.9.9zm0-6.2c-.5 0-.9-.4-.9-.9s.4-.9.9-.9.9.4.9.9c0 .4-.4.9-.9.9zm0-6.3c-.5 0-.9-.4-.9-.9s.4-.9.9-.9.9.4.9.9-.4.9-.9.9zm0-6.2c-.5 0-.9-.4-.9-.9s.4-.9.9-.9.9.4.9.9-.4.9-.9.9zm0-6.3c-.5 0-.9-.4-.9-.9s.4-.9.9-.9.9.4.9.9-.4.9-.9.9zm0-6.2c-.5 0-.9-.4-.9-.9s.4-.9.9-.9.9.4.9.9-.4.9-.9.9zm0-6.2c-.5 0-.9-.4-.9-.9s.4-.9.9-.9.9.4.9.9c0 .4-.4.9-.9.9zm0-6.3c-.5 0-.9-.4-.9-.9s.4-.9.9-.9.9.4.9.9-.4.9-.9.9zm0-6.2c-.5 0-.9-.4-.9-.9s.4-.9.9-.9.9.4.9.9-.4.9-.9.9zm0-6.2c-.5 0-.9-.4-.9-.9s.4-.9.9-.9.9.4.9.9c0 .4-.4.9-.9.9zm0-6.3c-.5 0-.9-.4-.9-.9s.4-.9.9-.9.9.4.9.9-.4.9-.9.9zm0-6.2c-.5 0-.9-.4-.9-.9s.4-.9.9-.9.9.4.9.9-.4.9-.9.9zm0-6.3c-.5 0-.9-.4-.9-.9s.4-.9.9-.9.9.4.9.9-.4.9-.9.9zm0-6.2c-.5 0-.9-.4-.9-.9s.4-.9.9-.9.9.4.9.9-.4.9-.9.9zm0-6.2c-.5 0-.9-.4-.9-.9s.4-.9.9-.9.9.4.9.9-.4.9-.9.9zm5.4 59.2c-.5 0-.9-.4-.9-.9s.4-.9.9-.9.9.4.9.9-.4.9-.9.9zm0-6.2c-.5 0-.9-.4-.9-.9s.4-.9.9-.9.9.4.9.9-.4.9-.9.9zm0-6.2c-.5 0-.9-.4-.9-.9s.4-.9.9-.9.9.4.9.9c0 .4-.4.9-.9.9zm0-6.3c-.5 0-.9-.4-.9-.9s.4-.9.9-.9.9.4.9.9-.4.9-.9.9zm0-6.2c-.5 0-.9-.4-.9-.9s.4-.9.9-.9.9.4.9.9-.4.9-.9.9zm0-6.3c-.5 0-.9-.4-.9-.9s.4-.9.9-.9.9.4.9.9-.4.9-.9.9zm0-6.2c-.5 0-.9-.4-.9-.9s.4-.9.9-.9.9.4.9.9-.4.9-.9.9zm0-6.2c-.5 0-.9-.4-.9-.9s.4-.9.9-.9.9.4.9.9-.4.9-.9.9zm0-6.3c-.5 0-.9-.4-.9-.9s.4-.9.9-.9.9.4.9.9-.4.9-.9.9zm0-6.2c-.5 0-.9-.4-.9-.9s.4-.9.9-.9.9.4.9.9-.4.9-.9.9zm0-6.3c-.5 0-.9-.4-.9-.9s.4-.9.9-.9.9.4.9.9-.4.9-.9.9zm5.4 34.4c-.5 0-.9-.4-.9-.9s.4-.9.9-.9.9.4.9.9c0 .4-.4.9-.9.9zm0-6.3c-.5 0-.9-.4-.9-.9s.4-.9.9-.9.9.4.9.9-.4.9-.9.9zm0-6.2c-.5 0-.9-.4-.9-.9s.4-.9.9-.9.9.4.9.9-.4.9-.9.9zm0-6.3c-.5 0-.9-.4-.9-.9s.4-.9.9-.9.9.4.9.9-.4.9-.9.9zm0-6.2c-.5 0-.9-.4-.9-.9s.4-.9.9-.9.9.4.9.9-.4.9-.9.9zm0-6.2c-.5 0-.9-.4-.9-.9s.4-.9.9-.9.9.4.9.9-.4.9-.9.9zm0-6.3c-.5 0-.9-.4-.9-.9s.4-.9.9-.9.9.4.9.9-.4.9-.9.9zm5.4 9.4c-.5 0-.9-.4-.9-.9s.4-.9.9-.9.9.4.9.9-.4.9-.9.9zm0-6.3c-.5 0-.9-.4-.9-.9s.4-.9.9-.9.9.4.9.9-.4.9-.9.9zm0-6.2c-.5 0-.9-.4-.9-.9s.4-.9.9-.9.9.4.9.9-.4.9-.9.9z"/></svg>