<?xml version="1.0" encoding="utf-8"?>
<!-- Generator: Adobe Illustrator 25.2.3, SVG Export Plug-In . SVG Version: 6.00 Build 0)  -->
<svg version="1.1" id="Layer_1" xmlns="http://www.w3.org/2000/svg" xmlns:xlink="http://www.w3.org/1999/xlink" x="0px" y="0px"
	 viewBox="0 0 275 275" style="enable-background:new 0 0 275 275;" xml:space="preserve">
<style type="text/css">
	.st0{fill:#E82329;}
	.st1{fill:#221F1F;}
	.st2{fill:url(#SVGID_1_);}
	.st3{fill:#FFFFFF;}
	.st4{fill:#28AAE1;}
</style>
<g>
	<path class="st1" d="M255.6,86.9c-0.2-0.4-0.5-0.7-0.7-1.1c-1.7-5.5-4.1-10.8-7.1-15.9c-8.4-14.1-21.4-24.9-37.2-31.8l2.9-15.7
		l-14.9,1.1l3.1-19.5L98.2,11.8l-7.3,36.6c-3.4,1.8-6.7,3.6-10.1,5.6C50.1,72.3,26.4,98.3,14,127.1c-12.7,29.4-12.1,58.4,1.7,81.5
		c8.4,14.1,21.1,24.9,36.9,31.8l-3.2,16l16.6-1.2c-0.9,4.3-1.8,10.2-3,15.1l103.6-7.8l3.5-17.7c7.5-3.2,15-6.9,22.3-11.3
		C253.8,196.7,282,131.2,255.6,86.9z"/>
	<g>
		<linearGradient id="SVGID_1_" gradientUnits="userSpaceOnUse" x1="146.9689" y1="28.1305" x2="105.544" y2="229.4216">
			<stop  offset="0.3059" style="stop-color:#F9E310"/>
			<stop  offset="0.5362" style="stop-color:#F5A717"/>
			<stop  offset="0.8343" style="stop-color:#F05F20"/>
			<stop  offset="0.9732" style="stop-color:#EE4323"/>
		</linearGradient>
		<path class="st2" d="M111.3,25.1C99,86.7,81,176.9,68.6,239.3l72.2-5.2c12.7-64.9,29.4-149.7,42-214.1L111.3,25.1z"/>
	</g>
	<path class="st3" d="M107.1,20.2l-45,225l83-6.2l44.1-225L107.1,20.2z M140.8,233.8c0,0-72.2,5.5-72.2,5.5
		c8.8-43.8,37.3-186.6,42.8-214.1l71.5-5.2C179.4,37.7,143.7,218.9,140.8,233.8z"/>
	<path class="st4" d="M244.5,86.8c-0.4-0.1-0.8-0.5-0.8-0.9c0-0.2,0.1-0.4,0.2-0.6c-1.1-2.8-2.4-5.6-3.9-8.3
		c-0.2,0.3-0.5,0.5-0.8,0.5c-0.5,0-0.9-0.4-0.9-0.9c0-0.5,0.4-0.9,0.9-0.9c0,0,0,0,0,0c-1.6-2.6-3.3-5.1-5.2-7.5c0,0-0.1,0-0.1,0
		c-0.5,0-0.9-0.4-0.9-0.9c0-0.1,0-0.2,0.1-0.3c-6.3-7.3-14.1-13.2-23.1-17.5l-2.7,13.8c0.4,0.1,0.6,0.5,0.6,0.9
		c0,0.5-0.4,0.9-0.9,0.9c0,0,0,0-0.1,0l-5.2,26.2c0.4,0.1,0.8,0.4,0.8,0.9c0,0.5-0.4,0.9-0.9,0.9c-0.1,0-0.1,0-0.2,0l-5.2,26.2
		c0.5,0,0.9,0.4,0.9,0.9c0,0.5-0.4,0.9-0.9,0.9c-0.1,0-0.2,0-0.3-0.1l-4.1,20.9c0,0,0,0,0,0c0,0.1,0,0.3-0.1,0.4l-1,4.9
		c0,0,0.1,0,0.1,0c0.5,0,0.9,0.4,0.9,0.9c0,0.5-0.4,0.9-0.9,0.9c-0.2,0-0.3-0.1-0.5-0.1l-4.1,20.6c0.1,0.1,0.1,0.2,0.1,0.4
		c0,0.3-0.1,0.5-0.3,0.7l-0.9,4.7c0.1,0,0.2-0.1,0.3-0.1c0.5,0,0.9,0.4,0.9,0.9c0,0.5-0.4,0.9-0.9,0.9c-0.2,0-0.4-0.1-0.6-0.2
		l-4.1,20.6c0.1,0.2,0.2,0.3,0.2,0.6c0,0.3-0.2,0.6-0.5,0.8l-0.9,4.6c0.1-0.1,0.3-0.1,0.4-0.1c0.5,0,0.9,0.4,0.9,0.9
		c0,0.5-0.4,0.9-0.9,0.9c-0.3,0-0.5-0.1-0.7-0.3l-2.1,10.5c0.1-0.1,0.3-0.2,0.4-0.3c6.8-4.1,13.2-8.5,19.2-13.3
		c-0.2,0.2-0.4,0.3-0.7,0.3c-0.5,0-0.9-0.4-0.9-0.9c0-0.5,0.4-0.9,0.9-0.9c0.5,0,0.9,0.4,0.9,0.9c0,0.3-0.1,0.5-0.3,0.7
		c1.3-1.1,2.7-2.2,4-3.3c-0.1-0.2-0.2-0.3-0.2-0.5c0-0.5,0.4-0.9,0.9-0.9c0.3,0,0.5,0.1,0.7,0.3c5.3-4.6,10.2-9.5,14.7-14.5
		c-0.1-0.1-0.1-0.3-0.1-0.4c0-0.5,0.4-0.9,0.9-0.9c0.1,0,0.2,0,0.3,0.1c5.8-6.6,10.8-13.5,15-20.6c0-0.1-0.1-0.2-0.1-0.3
		c0-0.5,0.4-0.9,0.8-0.9c4.4-7.7,7.9-15.5,10.4-23.3c-0.2-0.2-0.4-0.4-0.4-0.7c0-0.5,0.4-0.9,0.9-0.9
		C249.5,118.2,249.7,101.6,244.5,86.8z M179.8,211.7c-0.5,0-0.9-0.4-0.9-0.9c0-0.5,0.4-0.9,0.9-0.9c0.5,0,0.9,0.4,0.9,0.9
		C180.8,211.2,180.3,211.7,179.8,211.7z M185.2,208.5c-0.5,0-0.9-0.4-0.9-0.9c0-0.5,0.4-0.9,0.9-0.9c0.5,0,0.9,0.4,0.9,0.9
		C186.2,208.1,185.7,208.5,185.2,208.5z M185.2,202.3c-0.5,0-0.9-0.4-0.9-0.9c0-0.5,0.4-0.9,0.9-0.9c0.5,0,0.9,0.4,0.9,0.9
		C186.2,201.9,185.7,202.3,185.2,202.3z M185.2,196.1c-0.5,0-0.9-0.4-0.9-0.9c0-0.5,0.4-0.9,0.9-0.9c0.5,0,0.9,0.4,0.9,0.9
		C186.2,195.6,185.7,196.1,185.2,196.1z M185.2,189.8c-0.5,0-0.9-0.4-0.9-0.9s0.4-0.9,0.9-0.9c0.5,0,0.9,0.4,0.9,0.9
		S185.7,189.8,185.2,189.8z M185.2,183.6c-0.5,0-0.9-0.4-0.9-0.9c0-0.5,0.4-0.9,0.9-0.9c0.5,0,0.9,0.4,0.9,0.9
		C186.2,183.2,185.7,183.6,185.2,183.6z M190.6,205.4c-0.5,0-0.9-0.4-0.9-0.9c0-0.5,0.4-0.9,0.9-0.9c0.5,0,0.9,0.4,0.9,0.9
		C191.6,205,191.1,205.4,190.6,205.4z M190.6,199.2c-0.5,0-0.9-0.4-0.9-0.9s0.4-0.9,0.9-0.9c0.5,0,0.9,0.4,0.9,0.9
		S191.1,199.2,190.6,199.2z M190.6,192.9c-0.5,0-0.9-0.4-0.9-0.9c0-0.5,0.4-0.9,0.9-0.9c0.5,0,0.9,0.4,0.9,0.9
		C191.6,192.5,191.1,192.9,190.6,192.9z M190.6,186.7c-0.5,0-0.9-0.4-0.9-0.9c0-0.5,0.4-0.9,0.9-0.9c0.5,0,0.9,0.4,0.9,0.9
		C191.6,186.3,191.1,186.7,190.6,186.7z M190.6,180.5c-0.5,0-0.9-0.4-0.9-0.9c0-0.5,0.4-0.9,0.9-0.9c0.5,0,0.9,0.4,0.9,0.9
		C191.6,180,191.1,180.5,190.6,180.5z M190.6,174.2c-0.5,0-0.9-0.4-0.9-0.9c0-0.5,0.4-0.9,0.9-0.9c0.5,0,0.9,0.4,0.9,0.9
		C191.6,173.8,191.1,174.2,190.6,174.2z M190.6,168c-0.5,0-0.9-0.4-0.9-0.9c0-0.5,0.4-0.9,0.9-0.9c0.5,0,0.9,0.4,0.9,0.9
		C191.6,167.6,191.1,168,190.6,168z M190.6,161.7c-0.5,0-0.9-0.4-0.9-0.9c0-0.5,0.4-0.9,0.9-0.9c0.5,0,0.9,0.4,0.9,0.9
		C191.6,161.3,191.1,161.7,190.6,161.7z M190.6,155.5c-0.5,0-0.9-0.4-0.9-0.9c0-0.5,0.4-0.9,0.9-0.9c0.5,0,0.9,0.4,0.9,0.9
		C191.6,155.1,191.1,155.5,190.6,155.5z M196,196.1c-0.5,0-0.9-0.4-0.9-0.9c0-0.5,0.4-0.9,0.9-0.9c0.5,0,0.9,0.4,0.9,0.9
		C197,195.6,196.5,196.1,196,196.1z M196,189.8c-0.5,0-0.9-0.4-0.9-0.9s0.4-0.9,0.9-0.9c0.5,0,0.9,0.4,0.9,0.9
		S196.5,189.8,196,189.8z M196,183.6c-0.5,0-0.9-0.4-0.9-0.9c0-0.5,0.4-0.9,0.9-0.9c0.5,0,0.9,0.4,0.9,0.9
		C197,183.2,196.5,183.6,196,183.6z M196,177.3c-0.5,0-0.9-0.4-0.9-0.9c0-0.5,0.4-0.9,0.9-0.9c0.5,0,0.9,0.4,0.9,0.9
		C197,176.9,196.5,177.3,196,177.3z M196,171.1c-0.5,0-0.9-0.4-0.9-0.9c0-0.5,0.4-0.9,0.9-0.9c0.5,0,0.9,0.4,0.9,0.9
		C197,170.7,196.5,171.1,196,171.1z M196,164.9c-0.5,0-0.9-0.4-0.9-0.9c0-0.5,0.4-0.9,0.9-0.9c0.5,0,0.9,0.4,0.9,0.9
		C197,164.4,196.5,164.9,196,164.9z M196,158.6c-0.5,0-0.9-0.4-0.9-0.9c0-0.5,0.4-0.9,0.9-0.9c0.5,0,0.9,0.4,0.9,0.9
		C197,158.2,196.5,158.6,196,158.6z M196,152.4c-0.5,0-0.9-0.4-0.9-0.9c0-0.5,0.4-0.9,0.9-0.9c0.5,0,0.9,0.4,0.9,0.9
		C197,152,196.5,152.4,196,152.4z M196,146.1c-0.5,0-0.9-0.4-0.9-0.9c0-0.5,0.4-0.9,0.9-0.9c0.5,0,0.9,0.4,0.9,0.9
		C197,145.7,196.5,146.1,196,146.1z M196,139.9c-0.5,0-0.9-0.4-0.9-0.9c0-0.5,0.4-0.9,0.9-0.9c0.5,0,0.9,0.4,0.9,0.9
		C197,139.5,196.5,139.9,196,139.9z M196,133.7c-0.5,0-0.9-0.4-0.9-0.9c0-0.5,0.4-0.9,0.9-0.9c0.5,0,0.9,0.4,0.9,0.9
		C197,133.2,196.5,133.7,196,133.7z M196,127.4c-0.5,0-0.9-0.4-0.9-0.9c0-0.5,0.4-0.9,0.9-0.9c0.5,0,0.9,0.4,0.9,0.9
		C197,127,196.5,127.4,196,127.4z M201.4,192.9c-0.5,0-0.9-0.4-0.9-0.9c0-0.5,0.4-0.9,0.9-0.9c0.5,0,0.9,0.4,0.9,0.9
		C202.4,192.5,201.9,192.9,201.4,192.9z M201.4,186.7c-0.5,0-0.9-0.4-0.9-0.9c0-0.5,0.4-0.9,0.9-0.9c0.5,0,0.9,0.4,0.9,0.9
		C202.4,186.3,201.9,186.7,201.4,186.7z M201.4,180.5c-0.5,0-0.9-0.4-0.9-0.9c0-0.5,0.4-0.9,0.9-0.9c0.5,0,0.9,0.4,0.9,0.9
		C202.4,180,201.9,180.5,201.4,180.5z M201.4,174.2c-0.5,0-0.9-0.4-0.9-0.9c0-0.5,0.4-0.9,0.9-0.9c0.5,0,0.9,0.4,0.9,0.9
		C202.4,173.8,201.9,174.2,201.4,174.2z M201.4,168c-0.5,0-0.9-0.4-0.9-0.9c0-0.5,0.4-0.9,0.9-0.9c0.5,0,0.9,0.4,0.9,0.9
		C202.4,167.6,201.9,168,201.4,168z M201.4,161.7c-0.5,0-0.9-0.4-0.9-0.9c0-0.5,0.4-0.9,0.9-0.9c0.5,0,0.9,0.4,0.9,0.9
		C202.4,161.3,201.9,161.7,201.4,161.7z M201.4,155.5c-0.5,0-0.9-0.4-0.9-0.9c0-0.5,0.4-0.9,0.9-0.9c0.5,0,0.9,0.4,0.9,0.9
		C202.4,155.1,201.9,155.5,201.4,155.5z M201.4,149.3c-0.5,0-0.9-0.4-0.9-0.9c0-0.5,0.4-0.9,0.9-0.9c0.5,0,0.9,0.4,0.9,0.9
		C202.4,148.8,201.9,149.3,201.4,149.3z M201.4,143c-0.5,0-0.9-0.4-0.9-0.9c0-0.5,0.4-0.9,0.9-0.9c0.5,0,0.9,0.4,0.9,0.9
		C202.4,142.6,201.9,143,201.4,143z M201.4,136.8c-0.5,0-0.9-0.4-0.9-0.9c0-0.5,0.4-0.9,0.9-0.9c0.5,0,0.9,0.4,0.9,0.9
		C202.4,136.4,201.9,136.8,201.4,136.8z M201.4,130.6c-0.5,0-0.9-0.4-0.9-0.9c0-0.5,0.4-0.9,0.9-0.9c0.5,0,0.9,0.4,0.9,0.9
		C202.4,130.1,201.9,130.6,201.4,130.6z M201.4,124.3c-0.5,0-0.9-0.4-0.9-0.9c0-0.5,0.4-0.9,0.9-0.9c0.5,0,0.9,0.4,0.9,0.9
		C202.4,123.9,201.9,124.3,201.4,124.3z M201.4,118.1c-0.5,0-0.9-0.4-0.9-0.9c0-0.5,0.4-0.9,0.9-0.9c0.5,0,0.9,0.4,0.9,0.9
		C202.4,117.7,201.9,118.1,201.4,118.1z M201.4,111.8c-0.5,0-0.9-0.4-0.9-0.9c0-0.5,0.4-0.9,0.9-0.9c0.5,0,0.9,0.4,0.9,0.9
		C202.4,111.4,201.9,111.8,201.4,111.8z M201.4,105.6c-0.5,0-0.9-0.4-0.9-0.9s0.4-0.9,0.9-0.9c0.5,0,0.9,0.4,0.9,0.9
		S201.9,105.6,201.4,105.6z M201.4,99.4c-0.5,0-0.9-0.4-0.9-0.9s0.4-0.9,0.9-0.9c0.5,0,0.9,0.4,0.9,0.9S201.9,99.4,201.4,99.4z
		 M206.8,189.8c-0.5,0-0.9-0.4-0.9-0.9s0.4-0.9,0.9-0.9c0.5,0,0.9,0.4,0.9,0.9S207.4,189.8,206.8,189.8z M206.8,183.6
		c-0.5,0-0.9-0.4-0.9-0.9c0-0.5,0.4-0.9,0.9-0.9c0.5,0,0.9,0.4,0.9,0.9C207.8,183.2,207.4,183.6,206.8,183.6z M206.8,177.3
		c-0.5,0-0.9-0.4-0.9-0.9c0-0.5,0.4-0.9,0.9-0.9c0.5,0,0.9,0.4,0.9,0.9C207.8,176.9,207.4,177.3,206.8,177.3z M206.8,171.1
		c-0.5,0-0.9-0.4-0.9-0.9c0-0.5,0.4-0.9,0.9-0.9c0.5,0,0.9,0.4,0.9,0.9C207.8,170.7,207.4,171.1,206.8,171.1z M206.8,164.9
		c-0.5,0-0.9-0.4-0.9-0.9c0-0.5,0.4-0.9,0.9-0.9c0.5,0,0.9,0.4,0.9,0.9C207.8,164.4,207.4,164.9,206.8,164.9z M206.8,158.6
		c-0.5,0-0.9-0.4-0.9-0.9c0-0.5,0.4-0.9,0.9-0.9c0.5,0,0.9,0.4,0.9,0.9C207.8,158.2,207.4,158.6,206.8,158.6z M206.8,152.4
		c-0.5,0-0.9-0.4-0.9-0.9c0-0.5,0.4-0.9,0.9-0.9c0.5,0,0.9,0.4,0.9,0.9C207.8,152,207.4,152.4,206.8,152.4z M206.8,146.1
		c-0.5,0-0.9-0.4-0.9-0.9c0-0.5,0.4-0.9,0.9-0.9c0.5,0,0.9,0.4,0.9,0.9C207.8,145.7,207.4,146.1,206.8,146.1z M206.8,139.9
		c-0.5,0-0.9-0.4-0.9-0.9c0-0.5,0.4-0.9,0.9-0.9c0.5,0,0.9,0.4,0.9,0.9C207.8,139.5,207.4,139.9,206.8,139.9z M206.8,133.7
		c-0.5,0-0.9-0.4-0.9-0.9c0-0.5,0.4-0.9,0.9-0.9c0.5,0,0.9,0.4,0.9,0.9C207.8,133.2,207.4,133.7,206.8,133.7z M206.8,127.4
		c-0.5,0-0.9-0.4-0.9-0.9c0-0.5,0.4-0.9,0.9-0.9c0.5,0,0.9,0.4,0.9,0.9C207.8,127,207.4,127.4,206.8,127.4z M206.8,121.2
		c-0.5,0-0.9-0.4-0.9-0.9c0-0.5,0.4-0.9,0.9-0.9c0.5,0,0.9,0.4,0.9,0.9C207.8,120.8,207.4,121.2,206.8,121.2z M206.8,115
		c-0.5,0-0.9-0.4-0.9-0.9c0-0.5,0.4-0.9,0.9-0.9c0.5,0,0.9,0.4,0.9,0.9C207.8,114.5,207.4,115,206.8,115z M206.8,108.7
		c-0.5,0-0.9-0.4-0.9-0.9c0-0.5,0.4-0.9,0.9-0.9c0.5,0,0.9,0.4,0.9,0.9C207.8,108.3,207.4,108.7,206.8,108.7z M206.8,102.5
		c-0.5,0-0.9-0.4-0.9-0.9s0.4-0.9,0.9-0.9c0.5,0,0.9,0.4,0.9,0.9S207.4,102.5,206.8,102.5z M206.8,96.2c-0.5,0-0.9-0.4-0.9-0.9
		c0-0.5,0.4-0.9,0.9-0.9c0.5,0,0.9,0.4,0.9,0.9C207.8,95.8,207.4,96.2,206.8,96.2z M206.8,90c-0.5,0-0.9-0.4-0.9-0.9
		s0.4-0.9,0.9-0.9c0.5,0,0.9,0.4,0.9,0.9S207.4,90,206.8,90z M206.8,83.8c-0.5,0-0.9-0.4-0.9-0.9s0.4-0.9,0.9-0.9
		c0.5,0,0.9,0.4,0.9,0.9S207.4,83.8,206.8,83.8z M206.8,77.5c-0.5,0-0.9-0.4-0.9-0.9s0.4-0.9,0.9-0.9c0.5,0,0.9,0.4,0.9,0.9
		S207.4,77.5,206.8,77.5z M206.8,71.3c-0.5,0-0.9-0.4-0.9-0.9s0.4-0.9,0.9-0.9c0.5,0,0.9,0.4,0.9,0.9S207.4,71.3,206.8,71.3z
		 M212.2,186.7c-0.5,0-0.9-0.4-0.9-0.9c0-0.5,0.4-0.9,0.9-0.9c0.5,0,0.9,0.4,0.9,0.9C213.2,186.3,212.8,186.7,212.2,186.7z
		 M212.2,180.5c-0.5,0-0.9-0.4-0.9-0.9c0-0.5,0.4-0.9,0.9-0.9c0.5,0,0.9,0.4,0.9,0.9C213.2,180,212.8,180.5,212.2,180.5z
		 M212.2,174.2c-0.5,0-0.9-0.4-0.9-0.9c0-0.5,0.4-0.9,0.9-0.9c0.5,0,0.9,0.4,0.9,0.9C213.2,173.8,212.8,174.2,212.2,174.2z
		 M212.2,168c-0.5,0-0.9-0.4-0.9-0.9c0-0.5,0.4-0.9,0.9-0.9c0.5,0,0.9,0.4,0.9,0.9C213.2,167.6,212.8,168,212.2,168z M212.2,161.7
		c-0.5,0-0.9-0.4-0.9-0.9c0-0.5,0.4-0.9,0.9-0.9c0.5,0,0.9,0.4,0.9,0.9C213.2,161.3,212.8,161.7,212.2,161.7z M212.2,155.5
		c-0.5,0-0.9-0.4-0.9-0.9c0-0.5,0.4-0.9,0.9-0.9c0.5,0,0.9,0.4,0.9,0.9C213.2,155.1,212.8,155.5,212.2,155.5z M212.2,149.3
		c-0.5,0-0.9-0.4-0.9-0.9c0-0.5,0.4-0.9,0.9-0.9c0.5,0,0.9,0.4,0.9,0.9C213.2,148.8,212.8,149.3,212.2,149.3z M212.2,143
		c-0.5,0-0.9-0.4-0.9-0.9c0-0.5,0.4-0.9,0.9-0.9c0.5,0,0.9,0.4,0.9,0.9C213.2,142.6,212.8,143,212.2,143z M212.2,136.8
		c-0.5,0-0.9-0.4-0.9-0.9c0-0.5,0.4-0.9,0.9-0.9c0.5,0,0.9,0.4,0.9,0.9C213.2,136.4,212.8,136.8,212.2,136.8z M212.2,130.6
		c-0.5,0-0.9-0.4-0.9-0.9c0-0.5,0.4-0.9,0.9-0.9c0.5,0,0.9,0.4,0.9,0.9C213.2,130.1,212.8,130.6,212.2,130.6z M212.2,124.3
		c-0.5,0-0.9-0.4-0.9-0.9c0-0.5,0.4-0.9,0.9-0.9c0.5,0,0.9,0.4,0.9,0.9C213.2,123.9,212.8,124.3,212.2,124.3z M212.2,118.1
		c-0.5,0-0.9-0.4-0.9-0.9c0-0.5,0.4-0.9,0.9-0.9c0.5,0,0.9,0.4,0.9,0.9C213.2,117.7,212.8,118.1,212.2,118.1z M212.2,111.8
		c-0.5,0-0.9-0.4-0.9-0.9c0-0.5,0.4-0.9,0.9-0.9c0.5,0,0.9,0.4,0.9,0.9C213.2,111.4,212.8,111.8,212.2,111.8z M212.2,105.6
		c-0.5,0-0.9-0.4-0.9-0.9s0.4-0.9,0.9-0.9c0.5,0,0.9,0.4,0.9,0.9S212.8,105.6,212.2,105.6z M212.2,99.4c-0.5,0-0.9-0.4-0.9-0.9
		s0.4-0.9,0.9-0.9c0.5,0,0.9,0.4,0.9,0.9S212.8,99.4,212.2,99.4z M212.2,93.1c-0.5,0-0.9-0.4-0.9-0.9s0.4-0.9,0.9-0.9
		c0.5,0,0.9,0.4,0.9,0.9S212.8,93.1,212.2,93.1z M212.2,86.9c-0.5,0-0.9-0.4-0.9-0.9c0-0.5,0.4-0.9,0.9-0.9c0.5,0,0.9,0.4,0.9,0.9
		C213.2,86.5,212.8,86.9,212.2,86.9z M212.2,80.6c-0.5,0-0.9-0.4-0.9-0.9s0.4-0.9,0.9-0.9c0.5,0,0.9,0.4,0.9,0.9
		S212.8,80.6,212.2,80.6z M212.2,74.4c-0.5,0-0.9-0.4-0.9-0.9c0-0.5,0.4-0.9,0.9-0.9c0.5,0,0.9,0.4,0.9,0.9
		C213.2,74,212.8,74.4,212.2,74.4z M212.2,68.2c-0.5,0-0.9-0.4-0.9-0.9s0.4-0.9,0.9-0.9c0.5,0,0.9,0.4,0.9,0.9
		S212.8,68.2,212.2,68.2z M212.2,61.9c-0.5,0-0.9-0.4-0.9-0.9c0-0.5,0.4-0.9,0.9-0.9c0.5,0,0.9,0.4,0.9,0.9
		C213.2,61.5,212.8,61.9,212.2,61.9z M212.2,55.7c-0.5,0-0.9-0.4-0.9-0.9c0-0.5,0.4-0.9,0.9-0.9c0.5,0,0.9,0.4,0.9,0.9
		C213.2,55.3,212.8,55.7,212.2,55.7z M217.6,177.3c-0.5,0-0.9-0.4-0.9-0.9c0-0.5,0.4-0.9,0.9-0.9c0.5,0,0.9,0.4,0.9,0.9
		C218.6,176.9,218.2,177.3,217.6,177.3z M217.6,171.1c-0.5,0-0.9-0.4-0.9-0.9c0-0.5,0.4-0.9,0.9-0.9c0.5,0,0.9,0.4,0.9,0.9
		C218.6,170.7,218.2,171.1,217.6,171.1z M217.6,164.9c-0.5,0-0.9-0.4-0.9-0.9c0-0.5,0.4-0.9,0.9-0.9c0.5,0,0.9,0.4,0.9,0.9
		C218.6,164.4,218.2,164.9,217.6,164.9z M217.6,158.6c-0.5,0-0.9-0.4-0.9-0.9c0-0.5,0.4-0.9,0.9-0.9c0.5,0,0.9,0.4,0.9,0.9
		C218.6,158.2,218.2,158.6,217.6,158.6z M217.6,152.4c-0.5,0-0.9-0.4-0.9-0.9c0-0.5,0.4-0.9,0.9-0.9c0.5,0,0.9,0.4,0.9,0.9
		C218.6,152,218.2,152.4,217.6,152.4z M217.6,146.1c-0.5,0-0.9-0.4-0.9-0.9c0-0.5,0.4-0.9,0.9-0.9c0.5,0,0.9,0.4,0.9,0.9
		C218.6,145.7,218.2,146.1,217.6,146.1z M217.6,139.9c-0.5,0-0.9-0.4-0.9-0.9c0-0.5,0.4-0.9,0.9-0.9c0.5,0,0.9,0.4,0.9,0.9
		C218.6,139.5,218.2,139.9,217.6,139.9z M217.6,133.7c-0.5,0-0.9-0.4-0.9-0.9c0-0.5,0.4-0.9,0.9-0.9c0.5,0,0.9,0.4,0.9,0.9
		C218.6,133.2,218.2,133.7,217.6,133.7z M217.6,127.4c-0.5,0-0.9-0.4-0.9-0.9c0-0.5,0.4-0.9,0.9-0.9c0.5,0,0.9,0.4,0.9,0.9
		C218.6,127,218.2,127.4,217.6,127.4z M217.6,121.2c-0.5,0-0.9-0.4-0.9-0.9c0-0.5,0.4-0.9,0.9-0.9c0.5,0,0.9,0.4,0.9,0.9
		C218.6,120.8,218.2,121.2,217.6,121.2z M217.6,115c-0.5,0-0.9-0.4-0.9-0.9c0-0.5,0.4-0.9,0.9-0.9c0.5,0,0.9,0.4,0.9,0.9
		C218.6,114.5,218.2,115,217.6,115z M217.6,108.7c-0.5,0-0.9-0.4-0.9-0.9c0-0.5,0.4-0.9,0.9-0.9c0.5,0,0.9,0.4,0.9,0.9
		C218.6,108.3,218.2,108.7,217.6,108.7z M217.6,102.5c-0.5,0-0.9-0.4-0.9-0.9s0.4-0.9,0.9-0.9c0.5,0,0.9,0.4,0.9,0.9
		S218.2,102.5,217.6,102.5z M217.6,96.2c-0.5,0-0.9-0.4-0.9-0.9c0-0.5,0.4-0.9,0.9-0.9c0.5,0,0.9,0.4,0.9,0.9
		C218.6,95.8,218.2,96.2,217.6,96.2z M217.6,90c-0.5,0-0.9-0.4-0.9-0.9s0.4-0.9,0.9-0.9c0.5,0,0.9,0.4,0.9,0.9S218.2,90,217.6,90z
		 M217.6,83.8c-0.5,0-0.9-0.4-0.9-0.9s0.4-0.9,0.9-0.9c0.5,0,0.9,0.4,0.9,0.9S218.2,83.8,217.6,83.8z M217.6,77.5
		c-0.5,0-0.9-0.4-0.9-0.9s0.4-0.9,0.9-0.9c0.5,0,0.9,0.4,0.9,0.9S218.2,77.5,217.6,77.5z M217.6,71.3c-0.5,0-0.9-0.4-0.9-0.9
		s0.4-0.9,0.9-0.9c0.5,0,0.9,0.4,0.9,0.9S218.2,71.3,217.6,71.3z M217.6,65.1c-0.5,0-0.9-0.4-0.9-0.9c0-0.5,0.4-0.9,0.9-0.9
		c0.5,0,0.9,0.4,0.9,0.9C218.6,64.6,218.2,65.1,217.6,65.1z M217.6,58.8c-0.5,0-0.9-0.4-0.9-0.9s0.4-0.9,0.9-0.9
		c0.5,0,0.9,0.4,0.9,0.9S218.2,58.8,217.6,58.8z M223,174.2c-0.5,0-0.9-0.4-0.9-0.9c0-0.5,0.4-0.9,0.9-0.9c0.5,0,0.9,0.4,0.9,0.9
		C224,173.8,223.6,174.2,223,174.2z M223,168c-0.5,0-0.9-0.4-0.9-0.9c0-0.5,0.4-0.9,0.9-0.9c0.5,0,0.9,0.4,0.9,0.9
		C224,167.6,223.6,168,223,168z M223,161.7c-0.5,0-0.9-0.4-0.9-0.9c0-0.5,0.4-0.9,0.9-0.9c0.5,0,0.9,0.4,0.9,0.9
		C224,161.3,223.6,161.7,223,161.7z M223,155.5c-0.5,0-0.9-0.4-0.9-0.9c0-0.5,0.4-0.9,0.9-0.9c0.5,0,0.9,0.4,0.9,0.9
		C224,155.1,223.6,155.5,223,155.5z M223,149.3c-0.5,0-0.9-0.4-0.9-0.9c0-0.5,0.4-0.9,0.9-0.9c0.5,0,0.9,0.4,0.9,0.9
		C224,148.8,223.6,149.3,223,149.3z M223,143c-0.5,0-0.9-0.4-0.9-0.9c0-0.5,0.4-0.9,0.9-0.9c0.5,0,0.9,0.4,0.9,0.9
		C224,142.6,223.6,143,223,143z M223,136.8c-0.5,0-0.9-0.4-0.9-0.9c0-0.5,0.4-0.9,0.9-0.9c0.5,0,0.9,0.4,0.9,0.9
		C224,136.4,223.6,136.8,223,136.8z M223,130.6c-0.5,0-0.9-0.4-0.9-0.9c0-0.5,0.4-0.9,0.9-0.9c0.5,0,0.9,0.4,0.9,0.9
		C224,130.1,223.6,130.6,223,130.6z M223,124.3c-0.5,0-0.9-0.4-0.9-0.9c0-0.5,0.4-0.9,0.9-0.9c0.5,0,0.9,0.4,0.9,0.9
		C224,123.9,223.6,124.3,223,124.3z M223,118.1c-0.5,0-0.9-0.4-0.9-0.9c0-0.5,0.4-0.9,0.9-0.9c0.5,0,0.9,0.4,0.9,0.9
		C224,117.7,223.6,118.1,223,118.1z M223,111.8c-0.5,0-0.9-0.4-0.9-0.9c0-0.5,0.4-0.9,0.9-0.9c0.5,0,0.9,0.4,0.9,0.9
		C224,111.4,223.6,111.8,223,111.8z M223,105.6c-0.5,0-0.9-0.4-0.9-0.9s0.4-0.9,0.9-0.9c0.5,0,0.9,0.4,0.9,0.9
		S223.6,105.6,223,105.6z M223,99.4c-0.5,0-0.9-0.4-0.9-0.9s0.4-0.9,0.9-0.9c0.5,0,0.9,0.4,0.9,0.9S223.6,99.4,223,99.4z M223,93.1
		c-0.5,0-0.9-0.4-0.9-0.9s0.4-0.9,0.9-0.9c0.5,0,0.9,0.4,0.9,0.9S223.6,93.1,223,93.1z M223,86.9c-0.5,0-0.9-0.4-0.9-0.9
		c0-0.5,0.4-0.9,0.9-0.9c0.5,0,0.9,0.4,0.9,0.9C224,86.5,223.6,86.9,223,86.9z M223,80.6c-0.5,0-0.9-0.4-0.9-0.9s0.4-0.9,0.9-0.9
		c0.5,0,0.9,0.4,0.9,0.9S223.6,80.6,223,80.6z M223,74.4c-0.5,0-0.9-0.4-0.9-0.9c0-0.5,0.4-0.9,0.9-0.9c0.5,0,0.9,0.4,0.9,0.9
		C224,74,223.6,74.4,223,74.4z M223,68.2c-0.5,0-0.9-0.4-0.9-0.9s0.4-0.9,0.9-0.9c0.5,0,0.9,0.4,0.9,0.9S223.6,68.2,223,68.2z
		 M223,61.9c-0.5,0-0.9-0.4-0.9-0.9c0-0.5,0.4-0.9,0.9-0.9c0.5,0,0.9,0.4,0.9,0.9C224,61.5,223.6,61.9,223,61.9z M228.4,164.9
		c-0.5,0-0.9-0.4-0.9-0.9c0-0.5,0.4-0.9,0.9-0.9c0.5,0,0.9,0.4,0.9,0.9C229.4,164.4,229,164.9,228.4,164.9z M228.4,158.6
		c-0.5,0-0.9-0.4-0.9-0.9c0-0.5,0.4-0.9,0.9-0.9c0.5,0,0.9,0.4,0.9,0.9C229.4,158.2,229,158.6,228.4,158.6z M228.4,152.4
		c-0.5,0-0.9-0.4-0.9-0.9c0-0.5,0.4-0.9,0.9-0.9c0.5,0,0.9,0.4,0.9,0.9C229.4,152,229,152.4,228.4,152.4z M228.4,146.1
		c-0.5,0-0.9-0.4-0.9-0.9c0-0.5,0.4-0.9,0.9-0.9c0.5,0,0.9,0.4,0.9,0.9C229.4,145.7,229,146.1,228.4,146.1z M228.4,139.9
		c-0.5,0-0.9-0.4-0.9-0.9c0-0.5,0.4-0.9,0.9-0.9c0.5,0,0.9,0.4,0.9,0.9C229.4,139.5,229,139.9,228.4,139.9z M228.4,133.7
		c-0.5,0-0.9-0.4-0.9-0.9c0-0.5,0.4-0.9,0.9-0.9c0.5,0,0.9,0.4,0.9,0.9C229.4,133.2,229,133.7,228.4,133.7z M228.4,127.4
		c-0.5,0-0.9-0.4-0.9-0.9c0-0.5,0.4-0.9,0.9-0.9c0.5,0,0.9,0.4,0.9,0.9C229.4,127,229,127.4,228.4,127.4z M228.4,121.2
		c-0.5,0-0.9-0.4-0.9-0.9c0-0.5,0.4-0.9,0.9-0.9c0.5,0,0.9,0.4,0.9,0.9C229.4,120.8,229,121.2,228.4,121.2z M228.4,115
		c-0.5,0-0.9-0.4-0.9-0.9c0-0.5,0.4-0.9,0.9-0.9c0.5,0,0.9,0.4,0.9,0.9C229.4,114.5,229,115,228.4,115z M228.4,108.7
		c-0.5,0-0.9-0.4-0.9-0.9c0-0.5,0.4-0.9,0.9-0.9c0.5,0,0.9,0.4,0.9,0.9C229.4,108.3,229,108.7,228.4,108.7z M228.4,102.5
		c-0.5,0-0.9-0.4-0.9-0.9s0.4-0.9,0.9-0.9c0.5,0,0.9,0.4,0.9,0.9S229,102.5,228.4,102.5z M228.4,96.2c-0.5,0-0.9-0.4-0.9-0.9
		c0-0.5,0.4-0.9,0.9-0.9c0.5,0,0.9,0.4,0.9,0.9C229.4,95.8,229,96.2,228.4,96.2z M228.4,90c-0.5,0-0.9-0.4-0.9-0.9s0.4-0.9,0.9-0.9
		c0.5,0,0.9,0.4,0.9,0.9S229,90,228.4,90z M228.4,83.8c-0.5,0-0.9-0.4-0.9-0.9s0.4-0.9,0.9-0.9c0.5,0,0.9,0.4,0.9,0.9
		S229,83.8,228.4,83.8z M228.4,77.5c-0.5,0-0.9-0.4-0.9-0.9s0.4-0.9,0.9-0.9c0.5,0,0.9,0.4,0.9,0.9S229,77.5,228.4,77.5z
		 M228.4,71.3c-0.5,0-0.9-0.4-0.9-0.9s0.4-0.9,0.9-0.9c0.5,0,0.9,0.4,0.9,0.9S229,71.3,228.4,71.3z M228.4,65.1
		c-0.5,0-0.9-0.4-0.9-0.9c0-0.5,0.4-0.9,0.9-0.9c0.5,0,0.9,0.4,0.9,0.9C229.4,64.6,229,65.1,228.4,65.1z M233.8,155.5
		c-0.5,0-0.9-0.4-0.9-0.9c0-0.5,0.4-0.9,0.9-0.9c0.5,0,0.9,0.4,0.9,0.9C234.8,155.1,234.4,155.5,233.8,155.5z M233.8,149.3
		c-0.5,0-0.9-0.4-0.9-0.9c0-0.5,0.4-0.9,0.9-0.9c0.5,0,0.9,0.4,0.9,0.9C234.8,148.8,234.4,149.3,233.8,149.3z M233.8,143
		c-0.5,0-0.9-0.4-0.9-0.9c0-0.5,0.4-0.9,0.9-0.9c0.5,0,0.9,0.4,0.9,0.9C234.8,142.6,234.4,143,233.8,143z M233.8,136.8
		c-0.5,0-0.9-0.4-0.9-0.9c0-0.5,0.4-0.9,0.9-0.9c0.5,0,0.9,0.4,0.9,0.9C234.8,136.4,234.4,136.8,233.8,136.8z M233.8,130.6
		c-0.5,0-0.9-0.4-0.9-0.9c0-0.5,0.4-0.9,0.9-0.9c0.5,0,0.9,0.4,0.9,0.9C234.8,130.1,234.4,130.6,233.8,130.6z M233.8,124.3
		c-0.5,0-0.9-0.4-0.9-0.9c0-0.5,0.4-0.9,0.9-0.9c0.5,0,0.9,0.4,0.9,0.9C234.8,123.9,234.4,124.3,233.8,124.3z M233.8,118.1
		c-0.5,0-0.9-0.4-0.9-0.9c0-0.5,0.4-0.9,0.9-0.9c0.5,0,0.9,0.4,0.9,0.9C234.8,117.7,234.4,118.1,233.8,118.1z M233.8,111.8
		c-0.5,0-0.9-0.4-0.9-0.9c0-0.5,0.4-0.9,0.9-0.9c0.5,0,0.9,0.4,0.9,0.9C234.8,111.4,234.4,111.8,233.8,111.8z M233.8,105.6
		c-0.5,0-0.9-0.4-0.9-0.9s0.4-0.9,0.9-0.9c0.5,0,0.9,0.4,0.9,0.9S234.4,105.6,233.8,105.6z M233.8,99.4c-0.5,0-0.9-0.4-0.9-0.9
		s0.4-0.9,0.9-0.9c0.5,0,0.9,0.4,0.9,0.9S234.4,99.4,233.8,99.4z M233.8,93.1c-0.5,0-0.9-0.4-0.9-0.9s0.4-0.9,0.9-0.9
		c0.5,0,0.9,0.4,0.9,0.9S234.4,93.1,233.8,93.1z M233.8,86.9c-0.5,0-0.9-0.4-0.9-0.9c0-0.5,0.4-0.9,0.9-0.9c0.5,0,0.9,0.4,0.9,0.9
		C234.8,86.5,234.4,86.9,233.8,86.9z M233.8,80.6c-0.5,0-0.9-0.4-0.9-0.9s0.4-0.9,0.9-0.9c0.5,0,0.9,0.4,0.9,0.9
		S234.4,80.6,233.8,80.6z M233.8,74.4c-0.5,0-0.9-0.4-0.9-0.9c0-0.5,0.4-0.9,0.9-0.9c0.5,0,0.9,0.4,0.9,0.9
		C234.8,74,234.4,74.4,233.8,74.4z M239.2,146.1c-0.5,0-0.9-0.4-0.9-0.9c0-0.5,0.4-0.9,0.9-0.9c0.5,0,0.9,0.4,0.9,0.9
		C240.2,145.7,239.8,146.1,239.2,146.1z M239.2,139.9c-0.5,0-0.9-0.4-0.9-0.9c0-0.5,0.4-0.9,0.9-0.9c0.5,0,0.9,0.4,0.9,0.9
		C240.2,139.5,239.8,139.9,239.2,139.9z M239.2,133.7c-0.5,0-0.9-0.4-0.9-0.9c0-0.5,0.4-0.9,0.9-0.9c0.5,0,0.9,0.4,0.9,0.9
		C240.2,133.2,239.8,133.7,239.2,133.7z M239.2,127.4c-0.5,0-0.9-0.4-0.9-0.9c0-0.5,0.4-0.9,0.9-0.9c0.5,0,0.9,0.4,0.9,0.9
		C240.2,127,239.8,127.4,239.2,127.4z M239.2,121.2c-0.5,0-0.9-0.4-0.9-0.9c0-0.5,0.4-0.9,0.9-0.9c0.5,0,0.9,0.4,0.9,0.9
		C240.2,120.8,239.8,121.2,239.2,121.2z M239.2,115c-0.5,0-0.9-0.4-0.9-0.9c0-0.5,0.4-0.9,0.9-0.9c0.5,0,0.9,0.4,0.9,0.9
		C240.2,114.5,239.8,115,239.2,115z M239.2,108.7c-0.5,0-0.9-0.4-0.9-0.9c0-0.5,0.4-0.9,0.9-0.9c0.5,0,0.9,0.4,0.9,0.9
		C240.2,108.3,239.8,108.7,239.2,108.7z M239.2,102.5c-0.5,0-0.9-0.4-0.9-0.9s0.4-0.9,0.9-0.9c0.5,0,0.9,0.4,0.9,0.9
		S239.8,102.5,239.2,102.5z M239.2,96.2c-0.5,0-0.9-0.4-0.9-0.9c0-0.5,0.4-0.9,0.9-0.9c0.5,0,0.9,0.4,0.9,0.9
		C240.2,95.8,239.8,96.2,239.2,96.2z M239.2,90c-0.5,0-0.9-0.4-0.9-0.9s0.4-0.9,0.9-0.9c0.5,0,0.9,0.4,0.9,0.9S239.8,90,239.2,90z
		 M239.2,83.8c-0.5,0-0.9-0.4-0.9-0.9s0.4-0.9,0.9-0.9c0.5,0,0.9,0.4,0.9,0.9S239.8,83.8,239.2,83.8z M244.6,91.2
		c0.5,0,0.9,0.4,0.9,0.9s-0.4,0.9-0.9,0.9c-0.5,0-0.9-0.4-0.9-0.9S244.1,91.2,244.6,91.2z M244.6,130.6c-0.5,0-0.9-0.4-0.9-0.9
		c0-0.5,0.4-0.9,0.9-0.9c0.5,0,0.9,0.4,0.9,0.9C245.6,130.1,245.2,130.6,244.6,130.6z M244.6,124.3c-0.5,0-0.9-0.4-0.9-0.9
		c0-0.5,0.4-0.9,0.9-0.9c0.5,0,0.9,0.4,0.9,0.9C245.6,123.9,245.2,124.3,244.6,124.3z M244.6,118.1c-0.5,0-0.9-0.4-0.9-0.9
		c0-0.5,0.4-0.9,0.9-0.9c0.5,0,0.9,0.4,0.9,0.9C245.6,117.7,245.2,118.1,244.6,118.1z M244.6,111.8c-0.5,0-0.9-0.4-0.9-0.9
		c0-0.5,0.4-0.9,0.9-0.9c0.5,0,0.9,0.4,0.9,0.9C245.6,111.4,245.2,111.8,244.6,111.8z M244.6,105.6c-0.5,0-0.9-0.4-0.9-0.9
		s0.4-0.9,0.9-0.9c0.5,0,0.9,0.4,0.9,0.9S245.2,105.6,244.6,105.6z M244.6,99.4c-0.5,0-0.9-0.4-0.9-0.9s0.4-0.9,0.9-0.9
		c0.5,0,0.9,0.4,0.9,0.9S245.2,99.4,244.6,99.4z"/>
	<path class="st4" d="M88.4,62.9c-0.1,0.1-0.3,0.2-0.4,0.3c0.5,0,0.9,0.4,0.9,0.9c0,0.5-0.4,0.9-0.9,0.9S87,64.6,87,64.1
		c0-0.2,0-0.3,0.1-0.4c-1.4,0.9-2.9,1.8-4.3,2.7c0.4,0.1,0.6,0.5,0.6,0.9c0,0.5-0.4,0.9-0.9,0.9c-0.5,0-0.9-0.4-0.9-0.9
		c0,0,0,0,0-0.1c-1.3,0.8-2.5,1.7-3.8,2.5c0.2,0.2,0.3,0.4,0.3,0.6c0,0.5-0.4,0.9-0.9,0.9c-0.4,0-0.7-0.2-0.8-0.5
		c-1.2,0.9-2.4,1.8-3.6,2.7c0,0,0,0,0,0c0,0.5-0.4,0.9-0.9,0.9c-0.1,0-0.2,0-0.3-0.1c-5.6,4.3-10.9,8.9-15.8,13.8
		c0.5,0.1,0.8,0.4,0.8,0.9c0,0.5-0.4,0.9-0.9,0.9c-0.5,0-0.9-0.4-0.9-0.8c-3.7,3.7-7.1,7.5-10.3,11.5c0.1-0.1,0.3-0.1,0.4-0.1
		c0.5,0,0.9,0.4,0.9,0.9s-0.4,0.9-0.9,0.9c-0.5,0-0.9-0.4-0.9-0.9c0-0.1,0-0.2,0-0.2c-3.3,4.1-6.3,8.3-9,12.6c0,0,0,0.1,0,0.1
		c0,0.4-0.3,0.8-0.7,0.9c-1.7,2.8-3.3,5.5-4.8,8.4c0,0,0,0.1,0,0.1c0,0.4-0.2,0.7-0.5,0.8c-1.2,2.3-2.3,4.6-3.3,7
		c-1,2.3-1.9,4.6-2.7,6.9c0,0,0.1,0,0.1,0c0.5,0,0.9,0.4,0.9,0.9c0,0.5-0.4,0.9-0.9,0.9c-0.3,0-0.5-0.1-0.7-0.3
		c-1.7,5-3,10-3.8,14.9c0,0,0,0,0,0c0,0.1,0,0.2-0.1,0.3c-0.3,1.7-0.5,3.4-0.7,5c0.4,0.1,0.7,0.5,0.7,0.9c0,0.5-0.4,0.9-0.9,0.9
		c-0.1,1.5-0.2,2.9-0.2,4.4c0.1,0,0.1,0,0.2,0c0.5,0,0.9,0.4,0.9,0.9c0,0.5-0.4,0.9-0.9,0.9c-0.1,0-0.1,0-0.2,0c0,1.5,0,2.9,0.1,4.4
		c0,0,0.1,0,0.1,0c0.5,0,0.9,0.4,0.9,0.9c0,0.5-0.4,0.9-0.9,0.9c0.1,1.5,0.3,3,0.5,4.5c0.2,0.2,0.4,0.4,0.4,0.8
		c0,0.2-0.1,0.4-0.2,0.6c0.8,5,2.2,9.7,4.1,14.3c0.2-0.1,0.4-0.2,0.6-0.2c0.5,0,0.9,0.4,0.9,0.9c0,0.5-0.4,0.8-0.8,0.9
		c1,2.2,2.1,4.4,3.4,6.6c0.3,0.5,0.6,1,1,1.5c0.1-0.4,0.5-0.6,0.9-0.6c0.5,0,0.9,0.4,0.9,0.9c0,0.5-0.4,0.9-0.9,0.9c0,0,0,0-0.1,0
		c1.8,2.7,3.9,5.3,6.1,7.7c0,0,0,0,0.1,0.1c1.2,1.3,2.4,2.5,3.8,3.7c0-0.5,0.4-0.9,0.9-0.9c0.5,0,0.9,0.4,0.9,0.9
		c0,0.5-0.4,0.9-0.9,0.9c4.9,4.3,10.5,7.9,16.7,10.9l4.7-23.4c-0.4-0.1-0.8-0.5-0.8-0.9c0-0.5,0.4-0.9,0.9-0.9c0.1,0,0.1,0,0.2,0
		l5.2-26.2c0,0,0,0,0,0c-0.5,0-0.9-0.4-0.9-0.9c0-0.5,0.4-0.9,0.9-0.9c0.1,0,0.3,0,0.4,0.1l4.1-20.7c0-0.1-0.1-0.2-0.1-0.3
		c0-0.2,0.1-0.4,0.2-0.6l0.9-4.7c-0.1,0-0.2,0-0.2,0c-0.5,0-0.9-0.4-0.9-0.9c0-0.5,0.4-0.9,0.9-0.9c0.2,0,0.4,0.1,0.6,0.2l4.1-20.5
		c-0.1-0.2-0.2-0.4-0.2-0.6c0-0.4,0.2-0.6,0.5-0.8l0.9-4.6c-0.1,0.1-0.3,0.1-0.5,0.1c-0.5,0-0.9-0.4-0.9-0.9c0-0.5,0.4-0.9,0.9-0.9
		c0.3,0,0.6,0.2,0.7,0.4L82,99.2c-0.2-0.2-0.4-0.4-0.4-0.7c0-0.4,0.3-0.8,0.7-0.9l0.9-4.7c-0.2,0.2-0.4,0.3-0.7,0.3
		c-0.5,0-0.9-0.4-0.9-0.9s0.4-0.9,0.9-0.9c0.4,0,0.8,0.3,0.9,0.6l4.1-20.7c-0.3-0.1-0.6-0.5-0.6-0.9c0-0.5,0.4-0.9,0.9-0.9l1.4-7
		C89,62.5,88.7,62.7,88.4,62.9z M23.1,189.8c-0.5,0-0.9-0.4-0.9-0.9s0.4-0.9,0.9-0.9s0.9,0.4,0.9,0.9S23.7,189.8,23.1,189.8z
		 M23.1,183.6c-0.5,0-0.9-0.4-0.9-0.9c0-0.5,0.4-0.9,0.9-0.9s0.9,0.4,0.9,0.9C24.1,183.2,23.7,183.6,23.1,183.6z M23.1,177.3
		c-0.5,0-0.9-0.4-0.9-0.9c0-0.5,0.4-0.9,0.9-0.9s0.9,0.4,0.9,0.9C24.1,176.9,23.7,177.3,23.1,177.3z M23.1,171.1
		c-0.5,0-0.9-0.4-0.9-0.9c0-0.5,0.4-0.9,0.9-0.9s0.9,0.4,0.9,0.9C24.1,170.7,23.7,171.1,23.1,171.1z M23.1,164.9
		c-0.5,0-0.9-0.4-0.9-0.9c0-0.5,0.4-0.9,0.9-0.9s0.9,0.4,0.9,0.9C24.1,164.4,23.7,164.9,23.1,164.9z M23.1,158.6
		c-0.5,0-0.9-0.4-0.9-0.9c0-0.5,0.4-0.9,0.9-0.9s0.9,0.4,0.9,0.9C24.1,158.2,23.7,158.6,23.1,158.6z M23.1,152.4
		c-0.5,0-0.9-0.4-0.9-0.9c0-0.5,0.4-0.9,0.9-0.9s0.9,0.4,0.9,0.9C24.1,152,23.7,152.4,23.1,152.4z M23.1,146.1
		c-0.5,0-0.9-0.4-0.9-0.9c0-0.5,0.4-0.9,0.9-0.9s0.9,0.4,0.9,0.9C24.1,145.7,23.7,146.1,23.1,146.1z M28.5,199.2
		c-0.5,0-0.9-0.4-0.9-0.9s0.4-0.9,0.9-0.9c0.5,0,0.9,0.4,0.9,0.9S29.1,199.2,28.5,199.2z M28.5,192.9c-0.5,0-0.9-0.4-0.9-0.9
		c0-0.5,0.4-0.9,0.9-0.9c0.5,0,0.9,0.4,0.9,0.9C29.5,192.5,29.1,192.9,28.5,192.9z M28.5,186.7c-0.5,0-0.9-0.4-0.9-0.9
		c0-0.5,0.4-0.9,0.9-0.9c0.5,0,0.9,0.4,0.9,0.9C29.5,186.3,29.1,186.7,28.5,186.7z M28.5,180.5c-0.5,0-0.9-0.4-0.9-0.9
		c0-0.5,0.4-0.9,0.9-0.9c0.5,0,0.9,0.4,0.9,0.9C29.5,180,29.1,180.5,28.5,180.5z M28.5,174.2c-0.5,0-0.9-0.4-0.9-0.9
		c0-0.5,0.4-0.9,0.9-0.9c0.5,0,0.9,0.4,0.9,0.9C29.5,173.8,29.1,174.2,28.5,174.2z M28.5,168c-0.5,0-0.9-0.4-0.9-0.9
		c0-0.5,0.4-0.9,0.9-0.9c0.5,0,0.9,0.4,0.9,0.9C29.5,167.6,29.1,168,28.5,168z M28.5,161.7c-0.5,0-0.9-0.4-0.9-0.9
		c0-0.5,0.4-0.9,0.9-0.9c0.5,0,0.9,0.4,0.9,0.9C29.5,161.3,29.1,161.7,28.5,161.7z M28.5,155.5c-0.5,0-0.9-0.4-0.9-0.9
		c0-0.5,0.4-0.9,0.9-0.9c0.5,0,0.9,0.4,0.9,0.9C29.5,155.1,29.1,155.5,28.5,155.5z M28.5,149.3c-0.5,0-0.9-0.4-0.9-0.9
		c0-0.5,0.4-0.9,0.9-0.9c0.5,0,0.9,0.4,0.9,0.9C29.5,148.8,29.1,149.3,28.5,149.3z M28.5,143c-0.5,0-0.9-0.4-0.9-0.9
		c0-0.5,0.4-0.9,0.9-0.9c0.5,0,0.9,0.4,0.9,0.9C29.5,142.6,29.1,143,28.5,143z M28.5,136.8c-0.5,0-0.9-0.4-0.9-0.9
		c0-0.5,0.4-0.9,0.9-0.9c0.5,0,0.9,0.4,0.9,0.9C29.5,136.4,29.1,136.8,28.5,136.8z M28.5,130.6c-0.5,0-0.9-0.4-0.9-0.9
		c0-0.5,0.4-0.9,0.9-0.9c0.5,0,0.9,0.4,0.9,0.9C29.5,130.1,29.1,130.6,28.5,130.6z M33.9,208.5c-0.5,0-0.9-0.4-0.9-0.9
		c0-0.5,0.4-0.9,0.9-0.9c0.5,0,0.9,0.4,0.9,0.9C34.9,208.1,34.5,208.5,33.9,208.5z M33.9,202.3c-0.5,0-0.9-0.4-0.9-0.9
		c0-0.5,0.4-0.9,0.9-0.9c0.5,0,0.9,0.4,0.9,0.9C34.9,201.9,34.5,202.3,33.9,202.3z M33.9,196.1c-0.5,0-0.9-0.4-0.9-0.9
		c0-0.5,0.4-0.9,0.9-0.9c0.5,0,0.9,0.4,0.9,0.9C34.9,195.6,34.5,196.1,33.9,196.1z M33.9,189.8c-0.5,0-0.9-0.4-0.9-0.9
		s0.4-0.9,0.9-0.9c0.5,0,0.9,0.4,0.9,0.9S34.5,189.8,33.9,189.8z M33.9,183.6c-0.5,0-0.9-0.4-0.9-0.9c0-0.5,0.4-0.9,0.9-0.9
		c0.5,0,0.9,0.4,0.9,0.9C34.9,183.2,34.5,183.6,33.9,183.6z M33.9,177.3c-0.5,0-0.9-0.4-0.9-0.9c0-0.5,0.4-0.9,0.9-0.9
		c0.5,0,0.9,0.4,0.9,0.9C34.9,176.9,34.5,177.3,33.9,177.3z M33.9,171.1c-0.5,0-0.9-0.4-0.9-0.9c0-0.5,0.4-0.9,0.9-0.9
		c0.5,0,0.9,0.4,0.9,0.9C34.9,170.7,34.5,171.1,33.9,171.1z M33.9,164.9c-0.5,0-0.9-0.4-0.9-0.9c0-0.5,0.4-0.9,0.9-0.9
		c0.5,0,0.9,0.4,0.9,0.9C34.9,164.4,34.5,164.9,33.9,164.9z M33.9,158.6c-0.5,0-0.9-0.4-0.9-0.9c0-0.5,0.4-0.9,0.9-0.9
		c0.5,0,0.9,0.4,0.9,0.9C34.9,158.2,34.5,158.6,33.9,158.6z M33.9,152.4c-0.5,0-0.9-0.4-0.9-0.9c0-0.5,0.4-0.9,0.9-0.9
		c0.5,0,0.9,0.4,0.9,0.9C34.9,152,34.5,152.4,33.9,152.4z M33.9,146.1c-0.5,0-0.9-0.4-0.9-0.9c0-0.5,0.4-0.9,0.9-0.9
		c0.5,0,0.9,0.4,0.9,0.9C34.9,145.7,34.5,146.1,33.9,146.1z M33.9,139.9c-0.5,0-0.9-0.4-0.9-0.9c0-0.5,0.4-0.9,0.9-0.9
		c0.5,0,0.9,0.4,0.9,0.9C34.9,139.5,34.5,139.9,33.9,139.9z M33.9,133.7c-0.5,0-0.9-0.4-0.9-0.9c0-0.5,0.4-0.9,0.9-0.9
		c0.5,0,0.9,0.4,0.9,0.9C34.9,133.2,34.5,133.7,33.9,133.7z M33.9,127.4c-0.5,0-0.9-0.4-0.9-0.9c0-0.5,0.4-0.9,0.9-0.9
		c0.5,0,0.9,0.4,0.9,0.9C34.9,127,34.5,127.4,33.9,127.4z M33.9,121.2c-0.5,0-0.9-0.4-0.9-0.9c0-0.5,0.4-0.9,0.9-0.9
		c0.5,0,0.9,0.4,0.9,0.9C34.9,120.8,34.5,121.2,33.9,121.2z M39.3,211.7c-0.5,0-0.9-0.4-0.9-0.9c0-0.5,0.4-0.9,0.9-0.9
		s0.9,0.4,0.9,0.9C40.3,211.2,39.9,211.7,39.3,211.7z M39.3,205.4c-0.5,0-0.9-0.4-0.9-0.9c0-0.5,0.4-0.9,0.9-0.9s0.9,0.4,0.9,0.9
		C40.3,205,39.9,205.4,39.3,205.4z M39.3,199.2c-0.5,0-0.9-0.4-0.9-0.9s0.4-0.9,0.9-0.9s0.9,0.4,0.9,0.9S39.9,199.2,39.3,199.2z
		 M39.3,192.9c-0.5,0-0.9-0.4-0.9-0.9c0-0.5,0.4-0.9,0.9-0.9s0.9,0.4,0.9,0.9C40.3,192.5,39.9,192.9,39.3,192.9z M39.3,186.7
		c-0.5,0-0.9-0.4-0.9-0.9c0-0.5,0.4-0.9,0.9-0.9s0.9,0.4,0.9,0.9C40.3,186.3,39.9,186.7,39.3,186.7z M39.3,180.5
		c-0.5,0-0.9-0.4-0.9-0.9c0-0.5,0.4-0.9,0.9-0.9s0.9,0.4,0.9,0.9C40.3,180,39.9,180.5,39.3,180.5z M39.3,174.2
		c-0.5,0-0.9-0.4-0.9-0.9c0-0.5,0.4-0.9,0.9-0.9s0.9,0.4,0.9,0.9C40.3,173.8,39.9,174.2,39.3,174.2z M39.3,168
		c-0.5,0-0.9-0.4-0.9-0.9c0-0.5,0.4-0.9,0.9-0.9s0.9,0.4,0.9,0.9C40.3,167.6,39.9,168,39.3,168z M39.3,161.7c-0.5,0-0.9-0.4-0.9-0.9
		c0-0.5,0.4-0.9,0.9-0.9s0.9,0.4,0.9,0.9C40.3,161.3,39.9,161.7,39.3,161.7z M39.3,155.5c-0.5,0-0.9-0.4-0.9-0.9
		c0-0.5,0.4-0.9,0.9-0.9s0.9,0.4,0.9,0.9C40.3,155.1,39.9,155.5,39.3,155.5z M39.3,149.3c-0.5,0-0.9-0.4-0.9-0.9
		c0-0.5,0.4-0.9,0.9-0.9s0.9,0.4,0.9,0.9C40.3,148.8,39.9,149.3,39.3,149.3z M39.3,143c-0.5,0-0.9-0.4-0.9-0.9
		c0-0.5,0.4-0.9,0.9-0.9s0.9,0.4,0.9,0.9C40.3,142.6,39.9,143,39.3,143z M39.3,136.8c-0.5,0-0.9-0.4-0.9-0.9c0-0.5,0.4-0.9,0.9-0.9
		s0.9,0.4,0.9,0.9C40.3,136.4,39.9,136.8,39.3,136.8z M39.3,130.6c-0.5,0-0.9-0.4-0.9-0.9c0-0.5,0.4-0.9,0.9-0.9s0.9,0.4,0.9,0.9
		C40.3,130.1,39.9,130.6,39.3,130.6z M39.3,124.3c-0.5,0-0.9-0.4-0.9-0.9c0-0.5,0.4-0.9,0.9-0.9s0.9,0.4,0.9,0.9
		C40.3,123.9,39.9,124.3,39.3,124.3z M39.3,118.1c-0.5,0-0.9-0.4-0.9-0.9c0-0.5,0.4-0.9,0.9-0.9s0.9,0.4,0.9,0.9
		C40.3,117.7,39.9,118.1,39.3,118.1z M39.3,111.8c-0.5,0-0.9-0.4-0.9-0.9c0-0.5,0.4-0.9,0.9-0.9s0.9,0.4,0.9,0.9
		C40.3,111.4,39.9,111.8,39.3,111.8z M44.7,221c-0.5,0-0.9-0.4-0.9-0.9c0-0.5,0.4-0.9,0.9-0.9c0.5,0,0.9,0.4,0.9,0.9
		C45.7,220.6,45.3,221,44.7,221z M44.7,214.8c-0.5,0-0.9-0.4-0.9-0.9c0-0.5,0.4-0.9,0.9-0.9c0.5,0,0.9,0.4,0.9,0.9
		C45.7,214.3,45.3,214.8,44.7,214.8z M44.7,208.5c-0.5,0-0.9-0.4-0.9-0.9c0-0.5,0.4-0.9,0.9-0.9c0.5,0,0.9,0.4,0.9,0.9
		C45.7,208.1,45.3,208.5,44.7,208.5z M44.7,202.3c-0.5,0-0.9-0.4-0.9-0.9c0-0.5,0.4-0.9,0.9-0.9c0.5,0,0.9,0.4,0.9,0.9
		C45.7,201.9,45.3,202.3,44.7,202.3z M44.7,196.1c-0.5,0-0.9-0.4-0.9-0.9c0-0.5,0.4-0.9,0.9-0.9c0.5,0,0.9,0.4,0.9,0.9
		C45.7,195.6,45.3,196.1,44.7,196.1z M44.7,189.8c-0.5,0-0.9-0.4-0.9-0.9s0.4-0.9,0.9-0.9c0.5,0,0.9,0.4,0.9,0.9
		S45.3,189.8,44.7,189.8z M44.7,183.6c-0.5,0-0.9-0.4-0.9-0.9c0-0.5,0.4-0.9,0.9-0.9c0.5,0,0.9,0.4,0.9,0.9
		C45.7,183.2,45.3,183.6,44.7,183.6z M44.7,177.3c-0.5,0-0.9-0.4-0.9-0.9c0-0.5,0.4-0.9,0.9-0.9c0.5,0,0.9,0.4,0.9,0.9
		C45.7,176.9,45.3,177.3,44.7,177.3z M44.7,171.1c-0.5,0-0.9-0.4-0.9-0.9c0-0.5,0.4-0.9,0.9-0.9c0.5,0,0.9,0.4,0.9,0.9
		C45.7,170.7,45.3,171.1,44.7,171.1z M44.7,164.9c-0.5,0-0.9-0.4-0.9-0.9c0-0.5,0.4-0.9,0.9-0.9c0.5,0,0.9,0.4,0.9,0.9
		C45.7,164.4,45.3,164.9,44.7,164.9z M44.7,158.6c-0.5,0-0.9-0.4-0.9-0.9c0-0.5,0.4-0.9,0.9-0.9c0.5,0,0.9,0.4,0.9,0.9
		C45.7,158.2,45.3,158.6,44.7,158.6z M44.7,152.4c-0.5,0-0.9-0.4-0.9-0.9c0-0.5,0.4-0.9,0.9-0.9c0.5,0,0.9,0.4,0.9,0.9
		C45.7,152,45.3,152.4,44.7,152.4z M44.7,146.1c-0.5,0-0.9-0.4-0.9-0.9c0-0.5,0.4-0.9,0.9-0.9c0.5,0,0.9,0.4,0.9,0.9
		C45.7,145.7,45.3,146.1,44.7,146.1z M44.7,139.9c-0.5,0-0.9-0.4-0.9-0.9c0-0.5,0.4-0.9,0.9-0.9c0.5,0,0.9,0.4,0.9,0.9
		C45.7,139.5,45.3,139.9,44.7,139.9z M44.7,133.7c-0.5,0-0.9-0.4-0.9-0.9c0-0.5,0.4-0.9,0.9-0.9c0.5,0,0.9,0.4,0.9,0.9
		C45.7,133.2,45.3,133.7,44.7,133.7z M44.7,127.4c-0.5,0-0.9-0.4-0.9-0.9c0-0.5,0.4-0.9,0.9-0.9c0.5,0,0.9,0.4,0.9,0.9
		C45.7,127,45.3,127.4,44.7,127.4z M44.7,121.2c-0.5,0-0.9-0.4-0.9-0.9c0-0.5,0.4-0.9,0.9-0.9c0.5,0,0.9,0.4,0.9,0.9
		C45.7,120.8,45.3,121.2,44.7,121.2z M44.7,115c-0.5,0-0.9-0.4-0.9-0.9c0-0.5,0.4-0.9,0.9-0.9c0.5,0,0.9,0.4,0.9,0.9
		C45.7,114.5,45.3,115,44.7,115z M44.7,108.7c-0.5,0-0.9-0.4-0.9-0.9c0-0.5,0.4-0.9,0.9-0.9c0.5,0,0.9,0.4,0.9,0.9
		C45.7,108.3,45.3,108.7,44.7,108.7z M50.2,224.1c-0.5,0-0.9-0.4-0.9-0.9c0-0.5,0.4-0.9,0.9-0.9s0.9,0.4,0.9,0.9
		C51.1,223.7,50.7,224.1,50.2,224.1z M50.2,217.9c-0.5,0-0.9-0.4-0.9-0.9c0-0.5,0.4-0.9,0.9-0.9s0.9,0.4,0.9,0.9
		C51.1,217.5,50.7,217.9,50.2,217.9z M50.2,211.7c-0.5,0-0.9-0.4-0.9-0.9c0-0.5,0.4-0.9,0.9-0.9s0.9,0.4,0.9,0.9
		C51.1,211.2,50.7,211.7,50.2,211.7z M50.2,205.4c-0.5,0-0.9-0.4-0.9-0.9c0-0.5,0.4-0.9,0.9-0.9s0.9,0.4,0.9,0.9
		C51.1,205,50.7,205.4,50.2,205.4z M50.2,199.2c-0.5,0-0.9-0.4-0.9-0.9s0.4-0.9,0.9-0.9s0.9,0.4,0.9,0.9S50.7,199.2,50.2,199.2z
		 M50.2,192.9c-0.5,0-0.9-0.4-0.9-0.9c0-0.5,0.4-0.9,0.9-0.9s0.9,0.4,0.9,0.9C51.1,192.5,50.7,192.9,50.2,192.9z M50.2,186.7
		c-0.5,0-0.9-0.4-0.9-0.9c0-0.5,0.4-0.9,0.9-0.9s0.9,0.4,0.9,0.9C51.1,186.3,50.7,186.7,50.2,186.7z M50.2,180.5
		c-0.5,0-0.9-0.4-0.9-0.9c0-0.5,0.4-0.9,0.9-0.9s0.9,0.4,0.9,0.9C51.1,180,50.7,180.5,50.2,180.5z M50.2,174.2
		c-0.5,0-0.9-0.4-0.9-0.9c0-0.5,0.4-0.9,0.9-0.9s0.9,0.4,0.9,0.9C51.1,173.8,50.7,174.2,50.2,174.2z M50.2,168
		c-0.5,0-0.9-0.4-0.9-0.9c0-0.5,0.4-0.9,0.9-0.9s0.9,0.4,0.9,0.9C51.1,167.6,50.7,168,50.2,168z M50.2,161.7c-0.5,0-0.9-0.4-0.9-0.9
		c0-0.5,0.4-0.9,0.9-0.9s0.9,0.4,0.9,0.9C51.1,161.3,50.7,161.7,50.2,161.7z M50.2,155.5c-0.5,0-0.9-0.4-0.9-0.9
		c0-0.5,0.4-0.9,0.9-0.9s0.9,0.4,0.9,0.9C51.1,155.1,50.7,155.5,50.2,155.5z M50.2,149.3c-0.5,0-0.9-0.4-0.9-0.9
		c0-0.5,0.4-0.9,0.9-0.9s0.9,0.4,0.9,0.9C51.1,148.8,50.7,149.3,50.2,149.3z M50.2,143c-0.5,0-0.9-0.4-0.9-0.9
		c0-0.5,0.4-0.9,0.9-0.9s0.9,0.4,0.9,0.9C51.1,142.6,50.7,143,50.2,143z M50.2,136.8c-0.5,0-0.9-0.4-0.9-0.9c0-0.5,0.4-0.9,0.9-0.9
		s0.9,0.4,0.9,0.9C51.1,136.4,50.7,136.8,50.2,136.8z M50.2,130.6c-0.5,0-0.9-0.4-0.9-0.9c0-0.5,0.4-0.9,0.9-0.9s0.9,0.4,0.9,0.9
		C51.1,130.1,50.7,130.6,50.2,130.6z M50.2,124.3c-0.5,0-0.9-0.4-0.9-0.9c0-0.5,0.4-0.9,0.9-0.9s0.9,0.4,0.9,0.9
		C51.1,123.9,50.7,124.3,50.2,124.3z M50.2,118.1c-0.5,0-0.9-0.4-0.9-0.9c0-0.5,0.4-0.9,0.9-0.9s0.9,0.4,0.9,0.9
		C51.1,117.7,50.7,118.1,50.2,118.1z M50.2,111.8c-0.5,0-0.9-0.4-0.9-0.9c0-0.5,0.4-0.9,0.9-0.9s0.9,0.4,0.9,0.9
		C51.1,111.4,50.7,111.8,50.2,111.8z M50.2,105.6c-0.5,0-0.9-0.4-0.9-0.9s0.4-0.9,0.9-0.9s0.9,0.4,0.9,0.9S50.7,105.6,50.2,105.6z
		 M50.2,99.4c-0.5,0-0.9-0.4-0.9-0.9s0.4-0.9,0.9-0.9s0.9,0.4,0.9,0.9S50.7,99.4,50.2,99.4z M55.6,227.2c-0.5,0-0.9-0.4-0.9-0.9
		c0-0.5,0.4-0.9,0.9-0.9c0.5,0,0.9,0.4,0.9,0.9C56.5,226.8,56.1,227.2,55.6,227.2z M55.6,221c-0.5,0-0.9-0.4-0.9-0.9
		c0-0.5,0.4-0.9,0.9-0.9c0.5,0,0.9,0.4,0.9,0.9C56.5,220.6,56.1,221,55.6,221z M55.6,214.8c-0.5,0-0.9-0.4-0.9-0.9
		c0-0.5,0.4-0.9,0.9-0.9c0.5,0,0.9,0.4,0.9,0.9C56.5,214.3,56.1,214.8,55.6,214.8z M55.6,208.5c-0.5,0-0.9-0.4-0.9-0.9
		c0-0.5,0.4-0.9,0.9-0.9c0.5,0,0.9,0.4,0.9,0.9C56.5,208.1,56.1,208.5,55.6,208.5z M55.6,202.3c-0.5,0-0.9-0.4-0.9-0.9
		c0-0.5,0.4-0.9,0.9-0.9c0.5,0,0.9,0.4,0.9,0.9C56.5,201.9,56.1,202.3,55.6,202.3z M55.6,196.1c-0.5,0-0.9-0.4-0.9-0.9
		c0-0.5,0.4-0.9,0.9-0.9c0.5,0,0.9,0.4,0.9,0.9C56.5,195.6,56.1,196.1,55.6,196.1z M55.6,189.8c-0.5,0-0.9-0.4-0.9-0.9
		s0.4-0.9,0.9-0.9c0.5,0,0.9,0.4,0.9,0.9S56.1,189.8,55.6,189.8z M55.6,183.6c-0.5,0-0.9-0.4-0.9-0.9c0-0.5,0.4-0.9,0.9-0.9
		c0.5,0,0.9,0.4,0.9,0.9C56.5,183.2,56.1,183.6,55.6,183.6z M55.6,177.3c-0.5,0-0.9-0.4-0.9-0.9c0-0.5,0.4-0.9,0.9-0.9
		c0.5,0,0.9,0.4,0.9,0.9C56.5,176.9,56.1,177.3,55.6,177.3z M55.6,171.1c-0.5,0-0.9-0.4-0.9-0.9c0-0.5,0.4-0.9,0.9-0.9
		c0.5,0,0.9,0.4,0.9,0.9C56.5,170.7,56.1,171.1,55.6,171.1z M55.6,164.9c-0.5,0-0.9-0.4-0.9-0.9c0-0.5,0.4-0.9,0.9-0.9
		c0.5,0,0.9,0.4,0.9,0.9C56.5,164.4,56.1,164.9,55.6,164.9z M55.6,158.6c-0.5,0-0.9-0.4-0.9-0.9c0-0.5,0.4-0.9,0.9-0.9
		c0.5,0,0.9,0.4,0.9,0.9C56.5,158.2,56.1,158.6,55.6,158.6z M55.6,152.4c-0.5,0-0.9-0.4-0.9-0.9c0-0.5,0.4-0.9,0.9-0.9
		c0.5,0,0.9,0.4,0.9,0.9C56.5,152,56.1,152.4,55.6,152.4z M55.6,146.1c-0.5,0-0.9-0.4-0.9-0.9c0-0.5,0.4-0.9,0.9-0.9
		c0.5,0,0.9,0.4,0.9,0.9C56.5,145.7,56.1,146.1,55.6,146.1z M55.6,139.9c-0.5,0-0.9-0.4-0.9-0.9c0-0.5,0.4-0.9,0.9-0.9
		c0.5,0,0.9,0.4,0.9,0.9C56.5,139.5,56.1,139.9,55.6,139.9z M55.6,133.7c-0.5,0-0.9-0.4-0.9-0.9c0-0.5,0.4-0.9,0.9-0.9
		c0.5,0,0.9,0.4,0.9,0.9C56.5,133.2,56.1,133.7,55.6,133.7z M55.6,127.4c-0.5,0-0.9-0.4-0.9-0.9c0-0.5,0.4-0.9,0.9-0.9
		c0.5,0,0.9,0.4,0.9,0.9C56.5,127,56.1,127.4,55.6,127.4z M55.6,121.2c-0.5,0-0.9-0.4-0.9-0.9c0-0.5,0.4-0.9,0.9-0.9
		c0.5,0,0.9,0.4,0.9,0.9C56.5,120.8,56.1,121.2,55.6,121.2z M55.6,115c-0.5,0-0.9-0.4-0.9-0.9c0-0.5,0.4-0.9,0.9-0.9
		c0.5,0,0.9,0.4,0.9,0.9C56.5,114.5,56.1,115,55.6,115z M55.6,108.7c-0.5,0-0.9-0.4-0.9-0.9c0-0.5,0.4-0.9,0.9-0.9
		c0.5,0,0.9,0.4,0.9,0.9C56.5,108.3,56.1,108.7,55.6,108.7z M55.6,102.5c-0.5,0-0.9-0.4-0.9-0.9s0.4-0.9,0.9-0.9
		c0.5,0,0.9,0.4,0.9,0.9S56.1,102.5,55.6,102.5z M55.6,96.2c-0.5,0-0.9-0.4-0.9-0.9c0-0.5,0.4-0.9,0.9-0.9c0.5,0,0.9,0.4,0.9,0.9
		C56.5,95.8,56.1,96.2,55.6,96.2z M61,199.2c-0.5,0-0.9-0.4-0.9-0.9s0.4-0.9,0.9-0.9c0.5,0,0.9,0.4,0.9,0.9S61.5,199.2,61,199.2z
		 M61,192.9c-0.5,0-0.9-0.4-0.9-0.9c0-0.5,0.4-0.9,0.9-0.9c0.5,0,0.9,0.4,0.9,0.9C61.9,192.5,61.5,192.9,61,192.9z M61,186.7
		c-0.5,0-0.9-0.4-0.9-0.9c0-0.5,0.4-0.9,0.9-0.9c0.5,0,0.9,0.4,0.9,0.9C61.9,186.3,61.5,186.7,61,186.7z M61,180.5
		c-0.5,0-0.9-0.4-0.9-0.9c0-0.5,0.4-0.9,0.9-0.9c0.5,0,0.9,0.4,0.9,0.9C61.9,180,61.5,180.5,61,180.5z M61,174.2
		c-0.5,0-0.9-0.4-0.9-0.9c0-0.5,0.4-0.9,0.9-0.9c0.5,0,0.9,0.4,0.9,0.9C61.9,173.8,61.5,174.2,61,174.2z M61,168
		c-0.5,0-0.9-0.4-0.9-0.9c0-0.5,0.4-0.9,0.9-0.9c0.5,0,0.9,0.4,0.9,0.9C61.9,167.6,61.5,168,61,168z M61,161.7
		c-0.5,0-0.9-0.4-0.9-0.9c0-0.5,0.4-0.9,0.9-0.9c0.5,0,0.9,0.4,0.9,0.9C61.9,161.3,61.5,161.7,61,161.7z M61,155.5
		c-0.5,0-0.9-0.4-0.9-0.9c0-0.5,0.4-0.9,0.9-0.9c0.5,0,0.9,0.4,0.9,0.9C61.9,155.1,61.5,155.5,61,155.5z M61,149.3
		c-0.5,0-0.9-0.4-0.9-0.9c0-0.5,0.4-0.9,0.9-0.9c0.5,0,0.9,0.4,0.9,0.9C61.9,148.8,61.5,149.3,61,149.3z M61,143
		c-0.5,0-0.9-0.4-0.9-0.9c0-0.5,0.4-0.9,0.9-0.9c0.5,0,0.9,0.4,0.9,0.9C61.9,142.6,61.5,143,61,143z M61,136.8
		c-0.5,0-0.9-0.4-0.9-0.9c0-0.5,0.4-0.9,0.9-0.9c0.5,0,0.9,0.4,0.9,0.9C61.9,136.4,61.5,136.8,61,136.8z M61,130.6
		c-0.5,0-0.9-0.4-0.9-0.9c0-0.5,0.4-0.9,0.9-0.9c0.5,0,0.9,0.4,0.9,0.9C61.9,130.1,61.5,130.6,61,130.6z M61,124.3
		c-0.5,0-0.9-0.4-0.9-0.9c0-0.5,0.4-0.9,0.9-0.9c0.5,0,0.9,0.4,0.9,0.9C61.9,123.9,61.5,124.3,61,124.3z M61,118.1
		c-0.5,0-0.9-0.4-0.9-0.9c0-0.5,0.4-0.9,0.9-0.9c0.5,0,0.9,0.4,0.9,0.9C61.9,117.7,61.5,118.1,61,118.1z M61,111.8
		c-0.5,0-0.9-0.4-0.9-0.9c0-0.5,0.4-0.9,0.9-0.9c0.5,0,0.9,0.4,0.9,0.9C61.9,111.4,61.5,111.8,61,111.8z M61,105.6
		c-0.5,0-0.9-0.4-0.9-0.9s0.4-0.9,0.9-0.9c0.5,0,0.9,0.4,0.9,0.9S61.5,105.6,61,105.6z M61,99.4c-0.5,0-0.9-0.4-0.9-0.9
		s0.4-0.9,0.9-0.9c0.5,0,0.9,0.4,0.9,0.9S61.5,99.4,61,99.4z M61,93.1c-0.5,0-0.9-0.4-0.9-0.9s0.4-0.9,0.9-0.9
		c0.5,0,0.9,0.4,0.9,0.9S61.5,93.1,61,93.1z M61,86.9c-0.5,0-0.9-0.4-0.9-0.9c0-0.5,0.4-0.9,0.9-0.9c0.5,0,0.9,0.4,0.9,0.9
		C61.9,86.5,61.5,86.9,61,86.9z M66.4,171.1c-0.5,0-0.9-0.4-0.9-0.9c0-0.5,0.4-0.9,0.9-0.9s0.9,0.4,0.9,0.9
		C67.3,170.7,66.9,171.1,66.4,171.1z M66.4,164.9c-0.5,0-0.9-0.4-0.9-0.9c0-0.5,0.4-0.9,0.9-0.9s0.9,0.4,0.9,0.9
		C67.3,164.4,66.9,164.9,66.4,164.9z M66.4,158.6c-0.5,0-0.9-0.4-0.9-0.9c0-0.5,0.4-0.9,0.9-0.9s0.9,0.4,0.9,0.9
		C67.3,158.2,66.9,158.6,66.4,158.6z M66.4,152.4c-0.5,0-0.9-0.4-0.9-0.9c0-0.5,0.4-0.9,0.9-0.9s0.9,0.4,0.9,0.9
		C67.3,152,66.9,152.4,66.4,152.4z M66.4,146.1c-0.5,0-0.9-0.4-0.9-0.9c0-0.5,0.4-0.9,0.9-0.9s0.9,0.4,0.9,0.9
		C67.3,145.7,66.9,146.1,66.4,146.1z M66.4,139.9c-0.5,0-0.9-0.4-0.9-0.9c0-0.5,0.4-0.9,0.9-0.9s0.9,0.4,0.9,0.9
		C67.3,139.5,66.9,139.9,66.4,139.9z M66.4,133.7c-0.5,0-0.9-0.4-0.9-0.9c0-0.5,0.4-0.9,0.9-0.9s0.9,0.4,0.9,0.9
		C67.3,133.2,66.9,133.7,66.4,133.7z M66.4,127.4c-0.5,0-0.9-0.4-0.9-0.9c0-0.5,0.4-0.9,0.9-0.9s0.9,0.4,0.9,0.9
		C67.3,127,66.9,127.4,66.4,127.4z M66.4,121.2c-0.5,0-0.9-0.4-0.9-0.9c0-0.5,0.4-0.9,0.9-0.9s0.9,0.4,0.9,0.9
		C67.3,120.8,66.9,121.2,66.4,121.2z M66.4,115c-0.5,0-0.9-0.4-0.9-0.9c0-0.5,0.4-0.9,0.9-0.9s0.9,0.4,0.9,0.9
		C67.3,114.5,66.9,115,66.4,115z M66.4,108.7c-0.5,0-0.9-0.4-0.9-0.9c0-0.5,0.4-0.9,0.9-0.9s0.9,0.4,0.9,0.9
		C67.3,108.3,66.9,108.7,66.4,108.7z M66.4,102.5c-0.5,0-0.9-0.4-0.9-0.9s0.4-0.9,0.9-0.9s0.9,0.4,0.9,0.9S66.9,102.5,66.4,102.5z
		 M66.4,96.2c-0.5,0-0.9-0.4-0.9-0.9c0-0.5,0.4-0.9,0.9-0.9s0.9,0.4,0.9,0.9C67.3,95.8,66.9,96.2,66.4,96.2z M66.4,90
		c-0.5,0-0.9-0.4-0.9-0.9s0.4-0.9,0.9-0.9s0.9,0.4,0.9,0.9S66.9,90,66.4,90z M66.4,83.8c-0.5,0-0.9-0.4-0.9-0.9s0.4-0.9,0.9-0.9
		s0.9,0.4,0.9,0.9S66.9,83.8,66.4,83.8z M71.8,143c-0.5,0-0.9-0.4-0.9-0.9c0-0.5,0.4-0.9,0.9-0.9s0.9,0.4,0.9,0.9
		C72.7,142.6,72.3,143,71.8,143z M71.8,136.8c-0.5,0-0.9-0.4-0.9-0.9c0-0.5,0.4-0.9,0.9-0.9s0.9,0.4,0.9,0.9
		C72.7,136.4,72.3,136.8,71.8,136.8z M71.8,130.6c-0.5,0-0.9-0.4-0.9-0.9c0-0.5,0.4-0.9,0.9-0.9s0.9,0.4,0.9,0.9
		C72.7,130.1,72.3,130.6,71.8,130.6z M71.8,124.3c-0.5,0-0.9-0.4-0.9-0.9c0-0.5,0.4-0.9,0.9-0.9s0.9,0.4,0.9,0.9
		C72.7,123.9,72.3,124.3,71.8,124.3z M71.8,118.1c-0.5,0-0.9-0.4-0.9-0.9c0-0.5,0.4-0.9,0.9-0.9s0.9,0.4,0.9,0.9
		C72.7,117.7,72.3,118.1,71.8,118.1z M71.8,111.8c-0.5,0-0.9-0.4-0.9-0.9c0-0.5,0.4-0.9,0.9-0.9s0.9,0.4,0.9,0.9
		C72.7,111.4,72.3,111.8,71.8,111.8z M71.8,105.6c-0.5,0-0.9-0.4-0.9-0.9s0.4-0.9,0.9-0.9s0.9,0.4,0.9,0.9S72.3,105.6,71.8,105.6z
		 M71.8,99.4c-0.5,0-0.9-0.4-0.9-0.9s0.4-0.9,0.9-0.9s0.9,0.4,0.9,0.9S72.3,99.4,71.8,99.4z M71.8,93.1c-0.5,0-0.9-0.4-0.9-0.9
		s0.4-0.9,0.9-0.9s0.9,0.4,0.9,0.9S72.3,93.1,71.8,93.1z M71.8,86.9c-0.5,0-0.9-0.4-0.9-0.9c0-0.5,0.4-0.9,0.9-0.9s0.9,0.4,0.9,0.9
		C72.7,86.5,72.3,86.9,71.8,86.9z M71.8,80.6c-0.5,0-0.9-0.4-0.9-0.9s0.4-0.9,0.9-0.9s0.9,0.4,0.9,0.9S72.3,80.6,71.8,80.6z
		 M77.2,115c-0.5,0-0.9-0.4-0.9-0.9c0-0.5,0.4-0.9,0.9-0.9c0.5,0,0.9,0.4,0.9,0.9C78.1,114.5,77.7,115,77.2,115z M77.2,108.7
		c-0.5,0-0.9-0.4-0.9-0.9c0-0.5,0.4-0.9,0.9-0.9c0.5,0,0.9,0.4,0.9,0.9C78.1,108.3,77.7,108.7,77.2,108.7z M77.2,102.5
		c-0.5,0-0.9-0.4-0.9-0.9s0.4-0.9,0.9-0.9c0.5,0,0.9,0.4,0.9,0.9S77.7,102.5,77.2,102.5z M77.2,96.2c-0.5,0-0.9-0.4-0.9-0.9
		c0-0.5,0.4-0.9,0.9-0.9c0.5,0,0.9,0.4,0.9,0.9C78.1,95.8,77.7,96.2,77.2,96.2z M77.2,90c-0.5,0-0.9-0.4-0.9-0.9s0.4-0.9,0.9-0.9
		c0.5,0,0.9,0.4,0.9,0.9S77.7,90,77.2,90z M77.2,83.8c-0.5,0-0.9-0.4-0.9-0.9s0.4-0.9,0.9-0.9c0.5,0,0.9,0.4,0.9,0.9
		S77.7,83.8,77.2,83.8z M77.2,77.5c-0.5,0-0.9-0.4-0.9-0.9s0.4-0.9,0.9-0.9c0.5,0,0.9,0.4,0.9,0.9S77.7,77.5,77.2,77.5z M82.6,86.9
		c-0.5,0-0.9-0.4-0.9-0.9c0-0.5,0.4-0.9,0.9-0.9c0.5,0,0.9,0.4,0.9,0.9C83.5,86.5,83.1,86.9,82.6,86.9z M82.6,80.6
		c-0.5,0-0.9-0.4-0.9-0.9s0.4-0.9,0.9-0.9c0.5,0,0.9,0.4,0.9,0.9S83.1,80.6,82.6,80.6z M82.6,74.4c-0.5,0-0.9-0.4-0.9-0.9
		c0-0.5,0.4-0.9,0.9-0.9c0.5,0,0.9,0.4,0.9,0.9C83.5,74,83.1,74.4,82.6,74.4z"/>
</g>
</svg>
