<svg xmlns="http://www.w3.org/2000/svg" xmlns:xlink="http://www.w3.org/1999/xlink" id="Layer_1" data-name="Layer 1" viewBox="0 0 864.21 273.75" style="background-color: #0ab688;"><defs><style>.cls-1{fill:white;}.cls-2{fill:white;}.cls-3{fill:#0ab688;}</style><linearGradient id="linear-gradient" x1="-1.66" y1="136.3" x2="164.46" y2="107.01" gradientUnits="userSpaceOnUse"><stop offset="0" stop-color="#04b586"/><stop offset="1" stop-color="#00b8bf"/></linearGradient></defs><path class="cls-1" d="M241.62,201.08a8.77,8.77,0,0,1-9.2-9.05V106.28a8.63,8.63,0,0,1,2.67-6.45,9.37,9.37,0,0,1,6.82-2.59,8.63,8.63,0,0,1,6.6,2.59,9,9,0,0,1,2.45,6.45V192a8.89,8.89,0,0,1-2.52,6.45A9.08,9.08,0,0,1,241.62,201.08ZM305.7,96.49a7.17,7.17,0,0,1,5.86,2.9,9.4,9.4,0,0,1,2.3,5.86,8.08,8.08,0,0,1-2.67,5.78L249,170.52l-.74-21.22,50.14-49.39A10.21,10.21,0,0,1,305.7,96.49Zm-1.78,104.59a7.92,7.92,0,0,1-6.68-3.42L263,152.57l13.5-13.8,35.45,46.88a10.09,10.09,0,0,1,2.08,6.08,8.37,8.37,0,0,1-3.12,6.75A10.61,10.61,0,0,1,303.92,201.08Z"/><path class="cls-1" d="M392.33,120.23a8.65,8.65,0,0,1,6.38,2.52,8.84,8.84,0,0,1,2.52,6.53V192a8.89,8.89,0,0,1-2.52,6.45,9.13,9.13,0,0,1-12.76,0,8.89,8.89,0,0,1-2.52-6.45v-7.27l3.27,1.33c0,1.29-.7,2.85-2.08,4.68a28.24,28.24,0,0,1-5.64,5.41,34.7,34.7,0,0,1-8.38,4.53,29,29,0,0,1-10.46,1.85,33.93,33.93,0,0,1-18.54-5.27,37,37,0,0,1-13.13-14.53,45.54,45.54,0,0,1-4.82-21.29A45.9,45.9,0,0,1,328.47,140a37.4,37.4,0,0,1,13-14.53,32.69,32.69,0,0,1,18.1-5.27,34.19,34.19,0,0,1,11.72,1.93,35.06,35.06,0,0,1,9.27,4.89,28.18,28.18,0,0,1,6.08,6q2.14,3,2.15,5.12l-5.34,1.93V129.28a8.93,8.93,0,0,1,2.52-6.46A8.55,8.55,0,0,1,392.33,120.23Zm-30,66A20.14,20.14,0,0,0,373.79,183a22.08,22.08,0,0,0,7.64-8.9,28.42,28.42,0,0,0,2.74-12.61,28.77,28.77,0,0,0-2.74-12.76,22.08,22.08,0,0,0-7.64-8.9,20.14,20.14,0,0,0-11.42-3.26,19.91,19.91,0,0,0-11.28,3.26,22.08,22.08,0,0,0-7.64,8.9,28.77,28.77,0,0,0-2.74,12.76,28.42,28.42,0,0,0,2.74,12.61,22.08,22.08,0,0,0,7.64,8.9A19.91,19.91,0,0,0,362.37,186.24Z"/><path class="cls-1" d="M439.8,192a8.88,8.88,0,0,1-9.05,9.05,8.35,8.35,0,0,1-6.23-2.6A8.89,8.89,0,0,1,422,192V100.35a8.87,8.87,0,0,1,9.05-9,8.27,8.27,0,0,1,6.3,2.6,9,9,0,0,1,2.45,6.45Z"/><path class="cls-1" d="M524.8,120.23a8.65,8.65,0,0,1,6.38,2.52,8.84,8.84,0,0,1,2.52,6.53V192a8.89,8.89,0,0,1-2.52,6.45,9.13,9.13,0,0,1-12.76,0A8.89,8.89,0,0,1,515.9,192v-7.27l3.26,1.33q0,1.93-2.07,4.68a28.51,28.51,0,0,1-5.64,5.41,34.89,34.89,0,0,1-8.38,4.53,29,29,0,0,1-10.46,1.85,33.88,33.88,0,0,1-18.54-5.27,37,37,0,0,1-13.13-14.53,45.41,45.41,0,0,1-4.82-21.29A45.78,45.78,0,0,1,460.94,140a37.4,37.4,0,0,1,13-14.53A32.65,32.65,0,0,1,492,120.23a34.15,34.15,0,0,1,11.72,1.93,35.13,35.13,0,0,1,9.28,4.89,28.41,28.41,0,0,1,6.08,6q2.14,3,2.15,5.12l-5.34,1.93V129.28a8.93,8.93,0,0,1,2.52-6.46A8.55,8.55,0,0,1,524.8,120.23Zm-30,66A20.19,20.19,0,0,0,506.26,183a22.16,22.16,0,0,0,7.64-8.9,28.56,28.56,0,0,0,2.74-12.61,28.91,28.91,0,0,0-2.74-12.76,22.16,22.16,0,0,0-7.64-8.9,20.19,20.19,0,0,0-11.43-3.26,19.88,19.88,0,0,0-11.27,3.26,22.08,22.08,0,0,0-7.64,8.9,28.77,28.77,0,0,0-2.74,12.76,28.42,28.42,0,0,0,2.74,12.61,22.08,22.08,0,0,0,7.64,8.9A19.88,19.88,0,0,0,494.83,186.24Z"/><path class="cls-1" d="M594.67,120.23q11.87,0,17.5,5.71a28.2,28.2,0,0,1,7.42,14.76l-2.52-1.33,1.18-2.38a34.25,34.25,0,0,1,5.49-7.34,33.5,33.5,0,0,1,9-6.68,25.11,25.11,0,0,1,11.79-2.74q10.68,0,16.24,4.6a23.26,23.26,0,0,1,7.64,12.24,64.42,64.42,0,0,1,2.08,17v38a8.89,8.89,0,0,1-2.52,6.45,9.13,9.13,0,0,1-12.76,0,8.89,8.89,0,0,1-2.52-6.45v-38a30.62,30.62,0,0,0-1.19-8.83,12.09,12.09,0,0,0-4.3-6.3c-2.08-1.58-5-2.37-8.9-2.37a18.59,18.59,0,0,0-9.64,2.37,15.41,15.41,0,0,0-6,6.3,19.28,19.28,0,0,0-2,8.83v38a8.89,8.89,0,0,1-2.52,6.45,9.13,9.13,0,0,1-12.76,0,8.89,8.89,0,0,1-2.52-6.45v-38a30.62,30.62,0,0,0-1.19-8.83,12.15,12.15,0,0,0-4.3-6.3q-3.12-2.37-8.9-2.37a18.63,18.63,0,0,0-9.65,2.37,15.32,15.32,0,0,0-6,6.3,19.16,19.16,0,0,0-2,8.83v38a8.89,8.89,0,0,1-2.52,6.45,9.13,9.13,0,0,1-12.76,0A8.89,8.89,0,0,1,553,192V130.76a8.89,8.89,0,0,1,2.52-6.45,9.13,9.13,0,0,1,12.76,0,8.89,8.89,0,0,1,2.52,6.45v6.38l-2.22-.44a32.46,32.46,0,0,1,3.71-5.42,32,32,0,0,1,5.78-5.41,30.78,30.78,0,0,1,7.57-4.08A25.52,25.52,0,0,1,594.67,120.23Z"/><path class="cls-1" d="M697.47,112.07c-3.36,0-5.74-.54-7.12-1.63s-2.08-3-2.08-5.79v-2.82c0-2.86.77-4.82,2.3-5.86s3.88-1.55,7-1.55q5.19,0,7.27,1.63t2.07,5.78v2.82q0,4.3-2.22,5.86T697.47,112.07Zm9,80a8.89,8.89,0,0,1-2.52,6.45,9.13,9.13,0,0,1-12.76,0,8.89,8.89,0,0,1-2.52-6.45V130.76a8.89,8.89,0,0,1,2.52-6.45,9.13,9.13,0,0,1,12.76,0,8.89,8.89,0,0,1,2.52,6.45Z"/><path class="cls-1" d="M767.19,120.23q11,0,16.69,4.6a23.35,23.35,0,0,1,7.86,12.24,62.7,62.7,0,0,1,2.15,17v38a8.89,8.89,0,0,1-2.52,6.45,9.13,9.13,0,0,1-12.76,0,8.89,8.89,0,0,1-2.52-6.45v-38a28.93,28.93,0,0,0-1.26-8.83,12.2,12.2,0,0,0-4.53-6.3c-2.17-1.58-5.29-2.37-9.34-2.37a19.62,19.62,0,0,0-10,2.37,16.18,16.18,0,0,0-6.23,6.3,18.07,18.07,0,0,0-2.16,8.83v38a8.89,8.89,0,0,1-2.52,6.45,9.12,9.12,0,0,1-12.75,0,8.86,8.86,0,0,1-2.53-6.45V130.76a8.86,8.86,0,0,1,2.53-6.45,9.12,9.12,0,0,1,12.75,0,8.89,8.89,0,0,1,2.52,6.45v6.38l-2.22-.44a28.74,28.74,0,0,1,3.86-5.42,36.55,36.55,0,0,1,5.93-5.41,29.81,29.81,0,0,1,7.71-4.08A27.26,27.26,0,0,1,767.19,120.23Z"/><path class="cls-1" d="M814.06,123.2h35.16a8.1,8.1,0,0,1,8.31,8.3,7.62,7.62,0,0,1-2.37,5.71,8.18,8.18,0,0,1-5.94,2.3H814.06a8.1,8.1,0,0,1-8.3-8.3,7.62,7.62,0,0,1,2.37-5.71A8.15,8.15,0,0,1,814.06,123.2Zm15.88-18.55a8.27,8.27,0,0,1,6.3,2.6,9,9,0,0,1,2.45,6.45v66a6.4,6.4,0,0,0,.82,3.41,4.61,4.61,0,0,0,2.22,1.92,7.67,7.67,0,0,0,3,.6A7.81,7.81,0,0,0,848,185a8.26,8.26,0,0,1,3.41-.67,5,5,0,0,1,3.78,1.93,7.79,7.79,0,0,1,1.71,5.34q0,4.15-4.53,6.83a18.79,18.79,0,0,1-9.71,2.67,52.09,52.09,0,0,1-6.9-.52,18.76,18.76,0,0,1-7.12-2.52,15.49,15.49,0,0,1-5.57-6.16q-2.22-4.15-2.22-11.42V113.7a8.87,8.87,0,0,1,9.05-9Z"/><path class="cls-2" d="M86.3,241.43l-1.74.76-1.94-.83C-8.31,201.76.21,134.61.21,134.61a47.88,47.88,0,0,1,1.67-10.84v0c.32-1.16.65-2.34,1-3.55C6.09,110.1,11.79,98.65,18.75,87c.65-1.06,1.28-2.14,1.94-3.2C45.65,43,84.56,0,84.56,0s15.21,16.77,32.69,39.31c.73,1,1.48,1.92,2.24,2.9,7.16,9.33,14.63,19.57,21.51,29.91.68,1,1.39,2.09,2,3.13a262.6,262.6,0,0,1,16.6,28.8v0c.58,1.19,1.13,2.35,1.64,3.51,4.56,10.06,7.41,19.34,7.61,27C168.89,134.61,177.44,201.87,86.3,241.43Z"/><path class="cls-3" d="M119.49,42.21c-.76-1-1.51-1.94-2.24-2.9L98.54,58.05a9.12,9.12,0,1,0,3.95,7.52,9,9,0,0,0-1.43-4.87ZM93.37,71a5.46,5.46,0,1,1,5.47-5.44A5.45,5.45,0,0,1,93.37,71Z"/><path class="cls-3" d="M143,75.25c-.65-1-1.36-2.09-2-3.13L117.6,96.91a9,9,0,0,0-5.72-2.07A9.12,9.12,0,1,0,121,104a8.76,8.76,0,0,0-1.08-4.19Zm-31.16,34.17a5.46,5.46,0,1,1,5.47-5.47A5.46,5.46,0,0,1,111.88,109.42Z"/><path class="cls-3" d="M132,136.83l29.33-29.25c-.51-1.16-1.06-2.32-1.64-3.51l-30.21,30.11a9.27,9.27,0,0,0-2.68-1.31,9.12,9.12,0,1,0-5,17.53,8.79,8.79,0,0,0,2.52.37,9.22,9.22,0,0,0,8.78-6.63,9.11,9.11,0,0,0-.81-6.93C132.12,137.08,132,137,132,136.83Zm-2.47,6.3a5.46,5.46,0,1,1-10.49-3,5.39,5.39,0,0,1,2.59-3.28,5.44,5.44,0,0,1,2.65-.68,5.22,5.22,0,0,1,1.51.23A5.32,5.32,0,0,1,129,139,5.42,5.42,0,0,1,129.48,143.13Z"/><path class="cls-3" d="M57.48,111.89a9.06,9.06,0,0,0-12.28-3.61L20.69,83.75C20,84.81,19.4,85.89,18.75,87L42.38,110.6A9.13,9.13,0,0,0,47,125.08a9.51,9.51,0,0,0,2.52.35,8.88,8.88,0,0,0,4.42-1.16,9,9,0,0,0,4.36-5.45A9.1,9.1,0,0,0,57.48,111.89Zm-2.72,5.93A5.48,5.48,0,0,1,48,121.55a5.46,5.46,0,1,1,6.28-7.9A5.51,5.51,0,0,1,54.76,117.82Z"/><path class="cls-3" d="M28.51,151a9,9,0,0,0-1,10.29,9.25,9.25,0,0,0,8,4.72,9.28,9.28,0,0,0,4.41-1.16A9.13,9.13,0,0,0,38,148.1a9,9,0,0,0-6.58.63L2.91,120.19c-.38,1.21-.71,2.39-1,3.55v0m38.83,34.6a5.32,5.32,0,0,1-2.6,3.27,5.38,5.38,0,0,1-4.16.48,5.47,5.47,0,0,1-3.73-6.76,5.44,5.44,0,0,1,5.25-4,6.09,6.09,0,0,1,1.51.2A5.46,5.46,0,0,1,40.71,158.37Z"/><path class="cls-3" d="M92.61,170.39a9.13,9.13,0,0,0-16,8.86,9.07,9.07,0,0,0,5.47,4.36c.18,0,.35,0,.5.1v57.65l1.94.83,1.74-.76V183.78a9.13,9.13,0,0,0,6.31-13.39Zm-2.72,5.93a5.46,5.46,0,0,1-10.72-1.49A5.51,5.51,0,0,1,82,170a5.68,5.68,0,0,1,2.65-.68,5.47,5.47,0,0,1,5.27,7Z"/></svg>