<svg height="40" width="300" xmlns="http://www.w3.org/2000/svg" xmlns:xlink="http://www.w3.org/1999/xlink"><linearGradient id="a"><stop offset="0" stop-color="#bd4be5"/><stop offset="1" stop-color="#5856de"/></linearGradient><linearGradient id="b" x1="100%" x2="0%" xlink:href="#a" y1="50%" y2="51.842%"/><linearGradient id="c" x1="100%" x2="0%" xlink:href="#a" y1="50%" y2="61.073%"/><g fill="none" fill-rule="evenodd"><path d="M10.912 32.384c5.984 0 9.248-4 9.248-9.344V9.6h-4.864v13.056c0 3.264-1.536 5.12-4.384 5.12s-4.384-1.856-4.384-5.12V9.6H1.664v13.44c0 5.344 3.264 9.344 9.248 9.344zM31.168 32c4.896 0 7.936-2.784 7.936-6.656 0-3.008-1.632-4.64-4-5.536 1.76-.736 2.944-2.272 2.944-4.8 0-3.328-2.848-5.408-7.168-5.408h-7.456V32zm-.32-13.376h-2.56v-4.736h2.56c1.504 0 2.528.864 2.528 2.368s-1.024 2.368-2.528 2.368zm.128 9.088h-2.688V22.08h2.688c2.08 0 3.264.96 3.264 2.816s-1.184 2.816-3.264 2.816zM46.4 32V9.6h-4.864V32zm10.848.384c4.192 0 7.744-2.56 7.744-7.2 0-3.456-1.984-5.184-5.824-6.528-3.36-1.184-4.576-1.984-4.576-3.296 0-1.152 1.088-1.952 2.56-1.952 1.76 0 2.912.928 3.648 2.592l3.872-2.688c-1.248-2.72-3.904-4.096-7.328-4.096-4.32 0-7.296 2.72-7.296 6.304 0 3.712 2.56 5.44 6.016 6.688 3.2 1.152 4.064 1.984 4.064 3.328 0 1.44-1.152 2.304-2.752 2.304-1.824 0-3.648-1.248-4.352-3.264l-3.872 2.88c1.248 3.2 4.224 4.928 8.096 4.928zm21.568 0c6.656 0 11.392-4.992 11.392-11.584 0-6.528-4.736-11.584-11.392-11.584-3.648 0-6.752 1.376-8.448 3.136l.768.768c-2.208 1.824-3.712 4.608-3.712 8.448 0 5.92 4.576 10.816 11.392 10.816zm0-4.608c-4.064 0-6.464-2.976-6.464-6.368 0-2.464 1.056-3.84 2.24-4.832l-.768-.768c1.024-1.12 2.72-1.984 4.992-1.984 3.904 0 6.464 2.944 6.464 6.976s-2.56 6.976-6.464 6.976zM97.952 32v-8.928h9.504V19.36h-9.504v-5.152h10.464V9.6H93.088V32zm24.128 0V14.208h6.272V9.6h-17.44v4.608h6.304V32z" fill="#fff" fill-rule="nonzero"/><path d="M150.48 32.384c2.208 0 5.216-.768 7.072-2.56l2.432 2.432 2.4-2.24-3.168-3.232c1.376-1.76 2.272-3.776 2.272-6.656 0-5.728-4.544-10.912-11.008-10.912s-11.008 4.928-11.008 11.584 4.416 11.584 11.008 11.584zm0-2.752c-4.64 0-8-3.552-8-8.832 0-5.152 3.264-8.832 8-8.832s8 3.68 8 8.512c0 2.912-1.728 5.568-3.424 6.88l.416.48c-1.184 1.152-3.456 1.792-4.992 1.792zm22.816 2.752c5.344 0 8.672-3.584 8.672-8.864V9.6h-2.944v13.6c0 4.288-2.368 6.432-5.728 6.432s-5.728-2.144-5.728-6.432V9.6h-2.944v13.92c0 5.28 3.328 8.864 8.672 8.864zM187.76 32l1.856-5.088h10.656L202.16 32h2.912l-8.416-22.4h-3.584L184.656 32zm11.648-7.456h-8.928l3.584-9.76.768-2.688h.192l.768 2.688zM210.896 32v-9.28h4.128l5.024 9.28h3.424l-5.216-9.6c2.944-.832 4.768-3.136 4.768-6.24 0-3.904-2.912-6.56-7.36-6.56h-7.712V32zm4.736-11.712h-4.736v-7.936h4.736c2.592 0 4.448 1.248 4.448 3.968s-1.856 3.968-4.448 3.968zM235.696 32V12.288h6.624V9.6h-16.224v2.688h6.656V32zm24.48.032V29.28l-11.232-.032v-.192l10.656-18.08V9.632L245.296 9.6v2.752l10.24.032v.192l-10.656 18.08h.032V32z" fill="url(#b)" fill-rule="nonzero"/><path d="M2 0h30a2 2 0 0 1 2 2v12a2 2 0 0 1-2 2H2a2 2 0 0 1-2-2V2a2 2 0 0 1 2-2z" fill="url(#c)" transform="translate(266)"/><path d="M273.09 11.5c.36 0 .693-.038 1-.115s.572-.195.795-.355.398-.36.525-.6.19-.523.19-.85c0-.44-.118-.788-.355-1.045s-.535-.425-.895-.505v-.04c.287-.1.51-.283.67-.55s.24-.557.24-.87c0-.3-.058-.553-.175-.76s-.28-.372-.49-.495-.457-.213-.74-.27-.595-.085-.935-.085h-2.09v6.54zm-.27-3.84h-.83v-1.8h.85c.427 0 .747.067.96.2s.32.36.32.68c0 .28-.102.503-.305.67s-.535.25-.995.25zm.15 2.94h-.98V8.53h.98c.493 0 .867.078 1.12.235s.38.408.38.755c0 .367-.13.638-.39.815s-.63.265-1.11.265zm8.87.9v-.98h-2.88V8.59h2.35v-.98h-2.35V5.94h2.78v-.98h-3.94v6.54zm4.82 0V5.94h1.89v-.98h-4.94v.98h1.89v5.56zm3.91 0 .51-1.77h2.2l.51 1.77h1.22l-2.13-6.54h-1.36l-2.13 6.54zm2.45-2.68h-1.67l.23-.8c.107-.347.207-.702.3-1.065l.28-1.095h.04c.093.36.188.723.285 1.09s.198.723.305 1.07z" fill="#f1f1f1" fill-rule="nonzero"/></g></svg>