<svg version="1.1" id="color" xmlns="http://www.w3.org/2000/svg" x="0" y="0" viewBox="0 0 300 300" style="enable-background:new 0 0 300 300" xml:space="preserve"><style>.st2{fill:#ff5417}</style><path d="M289.7 162.8c0-.1.1-.3.1-.4-32.5-13.1-32.3-20.1 1.8-38.9-12.7-1.9-21.4-4.6-26.4-8.4-11.5-13.9 12.2-40 12.2-40s-.2.2-.6.4c.3-.3.5-.6.8-.9-5.6 1.2-10.2 1.8-14.1 1.8-18.3 0-29-3.2-21.3-25.4 1.2-3.3 2.5-6.7 3.9-10.2 1.6-3.9 3.3-8.1 5.3-12.4-20.7 14-29.1 14.1-44.5 14.1-13.7 0-25.3-8.2-28.2-26.1-9.8 15.1-18 22.7-26 22.7-8.5 0-16.8-8.6-26.6-25.9-.9 6.6-2.4 10.3-2.9 12.1-2.9 8.2-7.2 11.9-12.8 11.9-9.4 0-22.7-10.3-40.1-26.6 0 .2.1.4.1.5l-.3-.4s6.5 21.7-2.4 36.6C64.1 51.2 58.8 53 52 53c-8.5 0-20.1-3-33.3-8.4C26.5 55.2 33.2 64.7 38.1 73c7 13.5 10.6 27.8-1.6 33-3.1 1.1-5.2 2.2-10.1 2.5 26.1 25.3 24.6 35.8-7.6 50.9 37.1 10.5 8.6 33-8.5 49.7 42.5-.2 47.5 19.7 33.2 50.6-1.7 3.3-4.6 8.2-4.6 8.2s37.8-18 54-17.6c22 .5 22.5 21.5 22.5 21.5s11.8-14.8 23.7-14.5c17-.2 26.3 22.9 31.4 33.1 5.4-22.4 17.7-35.8 31.2-33.8 14 2.1 28 11.7 28 11.7-2.9-10.9-2.6-18.8.4-24.2 3.4-5 10-8.3 21.8-7.6 8.4.5 39.1 6.4 39.1 6.4-15.5-18.5-25.8-36.7-26-51.4.9-12.8 8.2-23.4 24.7-28.7z" style="fill:#6b1009"/><path d="M77 23.1C92.4 36.6 102.2 42 110.3 42c10.2 0 15.1-8.8 17.7-16.8 8.7 13 16.4 18.7 24.7 18.7 7.8 0 15.4-5.2 24.2-16.8 1.9 5 4.6 9.1 8.1 12.2 13.3 11.6 45.2 7.4 57 .6-8.2 20.4-8.5 25.3-2.9 34 3.3 5 16.2 7.3 24.5 7.3 1.1 0 2.2 0 3.4-.1-10.1 13.2-13.2 22.5-10.4 30.1 2.5 6.8 9.5 11.5 22.1 14.6-.9.5-1.7.9-2.5 1.3-11.3 5.9-15.6 13.9-15.3 18.7.3 4.8 2.6 15 18 17.4-8.1 4.8-23.3 16.2-19.1 35.2 1.5 8.9 11.2 30.3 19.5 37.2-11.3-3.2-20.7-4.7-28.5-4.7-10.6 0-19.2 2.5-23.7 8.4-3.6 4.7-5.2 10.7-4.5 18.6-9.1-5.9-16.3-8.2-23.7-8.2-7.2.1-14.8 4-20.3 11-3.3 4.3-8.6 16.6-8.6 16.6s-7-20.8-26.3-24.9c-9.4-2.5-18.3 1.6-24.5 7.4-4.7-21.9-42.9-17.5-68.6-3 9.5-21.7 6.3-32.6 1.5-39.9-4.3-7.1-17.5-12.4-28.8-13.1C38 190.7 47 181 44.8 171.5c-1.3-5.3-5.8-9.4-14.3-12.8 12.4-7 18.3-13.7 19.2-21.5.9-7.9-3.6-16.1-14.5-25.9 7.1-1.8 11.8-5 14-9.9 5.2-11-3.8-27.3-17.9-47.4 7.9 2.4 14.8 3.6 20.7 3.6 9 0 15.8-2.8 20.1-8.4 4.6-5.8 6.3-14.5 4.9-26.1" style="fill:#ff2b0a"/><path class="st2" d="M157.3 174.3c-2 1.6-4.2 1.9-6.7.9 2 3.1 1.9 5.6-.2 7.4-1.9 1.7-4.9 1.8-7.1.2-2.2-1.5-3-4.2-2.1-6.4 1.1-2.6 3.5-3.4 7.4-2.6-1.4-1.6-1.9-3.4-1.4-5.5-1.8 1.1-3.7 1.3-5.8.6 1 1.4 1.4 2.9 1.1 4.4-.3 1.5-1.1 2.7-2.5 3.4-2.1 1.2-4.8.9-6.7-.7-2-1.6-2.6-4.2-1.7-6.3 1.1-2.4 3.3-3.3 6.8-2.8-.3-.8-.8-1.6-1-2.5-.2-.8-.1-1.7-.2-2.6-1.7.8-3.5 1-5.5.3 1 1.3 1.5 2.7 1.4 4.2-.2 1.5-.9 2.7-2.2 3.6-2 1.4-4.8 1.2-6.9-.3-2-1.5-2.8-4.1-1.8-6.3 1.1-2.5 3.3-3.4 7.3-2.7-1.5-1.8-2-3.8-1.2-6-1.4.9-2.7 1.2-4.3 1-1.5-.2-2.8-.9-3.8-2.1-1.6-1.9-1.8-4.5-.4-6.4 1.5-2.1 4-2.6 7.3-1.5-2.2-3.1-2.4-5.3-.7-7.4 1.3-1.5 3.8-2.8 7.3-1.3-1.2-1.3-1.9-2.6-1.9-4.1 0-1.5.6-2.8 1.7-3.8 1.8-1.6 4.5-1.8 6.7-.5 2.4 1.4 3.4 3.7 2.8 6.6.9-.3 1.9-.8 2.9-.9 1-.1 2.1.1 3.1.1-1.6-3-1.4-5.4.7-7.2 1.9-1.6 4.9-1.7 7.1-.2 1.9 1.2 3.5 3.9 2.1 7 2.5-1.9 5.2-2.2 7.9-.1 2.4 1.9 2.8 4.3 1.6 7 1.2-1 2.5-1.6 4-1.6s2.9.5 4.1 1.5c2 1.7 2.6 4.5 1.3 6.6-1.4 2.3-3.9 3.1-7.4 2.1 1.7 1.9 2.1 4 1.3 6.3 1.4-1 2.8-1.4 4.5-1.2 1.6.2 2.9 1 3.9 2.2 1.6 2 1.6 4.6 0 6.5-1.5 1.8-4.3 2.4-6.6 1.4-2.7-1.2-3.8-3.3-3.3-7-2.6 1.5-3.2 1.3-5.5 1.1 1.1 1.6 1.3 3.3.8 5.3 1.7-1 3.4-1.2 5.2-.7 1.2.4 2.3 1.1 3 2.1 1.5 2 1.5 4.7-.1 6.5-1.6 1.8-4.4 2.4-6.8 1.3-2.6-1.2-3.8-3.5-3.2-6.7-1.7 1.1-3.5 1.4-5.7.8 1.2 1.9 1.4 3.8.6 5.7 1.3-1 2.7-1.5 4.3-1.3 1.7.2 3 .9 4.1 2.1 1.7 2 1.7 4.8 0 6.7-1.7 1.9-4.7 2.3-7.1.9-2-1.3-3.7-4-2.5-7.1zm10.3-32.8c-1.6 1.4-3.5 1.8-5.5 1.4.3.8.7 1.6.9 2.4.2.8.1 1.6.2 2.4 1.8-.8 3.6-.8 5.6.1-1.9-2.1-2.2-4.1-1.2-6.3zm-39.4 4.7c1.8 1.8 2.3 3.7 1.6 6 1.6-1.2 3.4-1.4 5.3-1.1-1-2-1-2-.9-4.9-3.1.9-3.2.9-6 0zm13.3-4.1c-.2-.8-.5-1.7-.6-2.5-.1-.8.1-1.6.2-2.4-1.9 1.2-3.9 1.4-6 .4.4.8 1 1.6 1.3 2.5.3.9.3 1.9.4 2.8 2-.9 2.3-1 4.7-.8zm16.3-7.2c-1.7 1.4-3.7 1.8-6.1 1.1 1.3 1.5 1.6 3.1 1.5 4.9 1.6-.8 3.3-.9 5.1-.5-1.1-1.9-1.2-3.7-.5-5.5zm-4.6 25.9c-1.4.2-2.7.3-4.1.5.6 1.3.6 2.6.3 4.1 1.6-1 3.2-1.1 5-.7-.9-1.3-1.2-2.6-1.2-3.9zm-10.2-6.9c-1.3 0-2.6.1-4 .1.8 1.3 1 2.7.7 4.3 1.3-.8 2.6-1 3.9-.9-.1-1.2-.3-2.4-.6-3.5zm13.9 2c1.2-.5 2.6-.5 4.1-.2-.9-1.4-1.2-2.8-1-4.1-1.3.2-2.6.4-3.8.7.2 1.2.5 2.4.7 3.6zm-6.3-7.6c-.2-1.1-.3-2.3-.5-3.4-1.2.2-2.6.3-3.8.5.2 1.1.4 2.3.7 3.4 1.3-.2 2.5-.3 3.6-.5z"/><path class="st2" d="M145.1 129.4c-3 .4-5.9-1.7-6.5-4.5-.5-2.8 1.5-5.4 4.4-5.8 3-.4 5.9 1.7 6.5 4.5.6 2.9-1.4 5.5-4.4 5.8zm-26.2 34.4c-3 .4-5.8-1.6-6.4-4.4-.5-2.8 1.4-5.4 4.4-5.8 3-.4 5.8 1.6 6.4 4.4.5 2.8-1.4 5.4-4.4 5.8zm64.2-7.9c-3 .4-5.8-1.6-6.3-4.5-.5-2.8 1.4-5.4 4.4-5.7 3-.4 5.8 1.6 6.3 4.5.5 2.8-1.4 5.3-4.4 5.7zm-60.7-16c-2.9.4-5.8-1.6-6.3-4.4-.6-2.8 1.4-5.4 4.4-5.7 2.9-.3 5.8 1.7 6.3 4.4s-1.5 5.3-4.4 5.7zm48.3-5.9c-2.9.4-5.8-1.6-6.3-4.4-.6-2.8 1.4-5.4 4.4-5.8 2.9-.3 5.8 1.7 6.3 4.4.5 2.8-1.5 5.4-4.4 5.8z"/><path class="st2" d="M127 121.1c2.9-.4 5.7 1.6 6.3 4.3.5 2.8-1.4 5.3-4.3 5.7-2.9.4-5.7-1.6-6.3-4.3-.6-2.8 1.3-5.3 4.3-5.7zm34.2 6.2c-2.9.4-5.7-1.6-6.3-4.4-.5-2.8 1.4-5.3 4.3-5.7 2.9-.4 5.7 1.6 6.3 4.4.5 2.8-1.4 5.3-4.3 5.7zm-6.2 52.9c2.9-.3 5.7 1.6 6.2 4.4.5 2.8-1.4 5.3-4.3 5.6-2.9.3-5.7-1.6-6.2-4.4-.6-2.7 1.4-5.2 4.3-5.6zm-34.9-37.4c.6 2.8-1.3 5.3-4.2 5.7-2.9.4-5.7-1.5-6.3-4.3-.5-2.8 1.3-5.3 4.3-5.6 2.9-.5 5.7 1.4 6.2 4.2zm64.4-7.9c.5 2.8-1.4 5.2-4.3 5.6-2.9.4-5.7-1.6-6.2-4.4-.5-2.8 1.4-5.2 4.3-5.6 2.9-.3 5.7 1.6 6.2 4.4zM135.6 180c.5 2.7-1.4 5.2-4.3 5.6-2.9.4-5.7-1.6-6.2-4.3-.5-2.7 1.4-5.2 4.3-5.6 2.9-.4 5.6 1.5 6.2 4.3zm44-.3c-2.9.4-5.7-1.6-6.2-4.3-.5-2.8 1.4-5.3 4.3-5.6 2.9-.4 5.7 1.6 6.2 4.3.5 2.7-1.4 5.2-4.3 5.6z"/><path class="st2" d="M184.2 161.1c2.9-.3 5.6 1.6 6.1 4.3.5 2.7-1.4 5.2-4.3 5.6-2.9.3-5.6-1.6-6.1-4.3-.5-2.7 1.5-5.3 4.3-5.6zm-62.4 17.8c-2.8.4-5.6-1.6-6.2-4.3-.5-2.7 1.4-5.2 4.2-5.6 2.8-.4 5.6 1.6 6.2 4.3.5 2.7-1.4 5.3-4.2 5.6zm55.4 3.9c.5 2.7-1.5 5.2-4.3 5.5-2.9.3-5.6-1.7-6.1-4.4-.4-2.7 1.5-5.2 4.3-5.4 3-.3 5.7 1.6 6.1 4.3zm-32.2 3.8c.5 2.7-1.3 5.2-4.2 5.5-2.9.4-5.6-1.6-6.1-4.3-.5-2.7 1.4-5.2 4.2-5.5 2.9-.3 5.6 1.6 6.1 4.3zm6.5-66.1c-2.8.3-5.5-1.6-6-4.3-.5-2.7 1.4-5.1 4.2-5.4 2.8-.3 5.5 1.6 6 4.3.5 2.6-1.3 5-4.2 5.4zm-11.9-3.6c.5 2.7-1.4 5.1-4.2 5.4-2.8.3-5.5-1.6-6-4.3-.5-2.6 1.4-5.1 4.2-5.4 2.8-.3 5.5 1.6 6 4.3zm-26.2 34.5c.5 2.6-1.4 5.1-4.1 5.5-2.8.3-5.5-1.5-6-4.2-.5-2.6 1.4-5.1 4.1-5.5 2.8-.3 5.5 1.6 6 4.2zm74.5-14.1c2.8-.3 5.5 1.6 6 4.2s-1.4 5.1-4.1 5.4c-2.8.3-5.5-1.6-6-4.2s1.3-5 4.1-5.4zm-75.8 34.8c-2.8.3-5.4-1.6-5.9-4.2-.5-2.7 1.4-5 4.2-5.3 2.8-.3 5.4 1.6 5.8 4.2.5 2.7-1.3 5-4.1 5.3zm84.6-15.2c.5 2.7-1.4 5-4.2 5.3-2.8.3-5.4-1.6-5.9-4.3-.4-2.6 1.4-5 4.2-5.3 2.8-.2 5.5 1.6 5.9 4.3zm-26.2 34.5c.5 2.6-1.3 5-4 5.3-2.8.3-5.4-1.5-5.9-4.1-.5-2.6 1.3-4.9 4.1-5.3 2.7-.4 5.3 1.5 5.8 4.1zm-16.1 1.8c.5 2.6-1.3 5-4 5.3-2.8.4-5.4-1.5-5.9-4.1-.5-2.6 1.3-5 4-5.3 2.7-.3 5.4 1.6 5.9 4.1zm-37.6-65.6c.5 2.6-1.3 4.9-4 5.3-2.7.3-5.4-1.5-5.8-4.1-.5-2.6 1.4-4.9 4-5.2 2.7-.4 5.3 1.4 5.8 4zm64.4-8c.5 2.6-1.3 4.9-4 5.3-2.7.3-5.4-1.5-5.8-4.1-.5-2.6 1.3-4.9 4-5.2 2.7-.3 5.3 1.5 5.8 4zm-9.6-6.6c.5 2.6-1.3 4.9-4 5.2-2.7.3-5.3-1.5-5.8-4.1-.5-2.6 1.3-4.8 4-5.2 2.7-.2 5.3 1.6 5.8 4.1zm-52.3 11.1c-2.7.3-5.2-1.5-5.7-4-.5-2.6 1.3-4.9 4-5.2 2.7-.3 5.2 1.5 5.7 4.1.5 2.5-1.3 4.8-4 5.1zm-9.1 12.1c.5 2.6-1.3 4.9-4 5.2-2.7.3-5.2-1.5-5.7-4-.5-2.6 1.3-4.9 4-5.2 2.6-.3 5.2 1.5 5.7 4zm74.7-13.9c2.7-.3 5.2 1.5 5.7 4s-1.3 4.8-4 5.1c-2.7.3-5.2-1.5-5.7-4-.4-2.5 1.4-4.8 4-5.1zm-44.8-17.9c2.7-.3 5.2 1.4 5.7 3.9s-1.2 4.9-3.9 5.2c-2.6.3-5.2-1.5-5.7-4-.4-2.4 1.3-4.7 3.9-5.1zm52.9 76.3c.5 2.5-1.3 4.9-3.9 5.2-2.6.3-5.2-1.5-5.7-4s1.3-4.8 3.9-5.2c2.6-.3 5.2 1.5 5.7 4zm-68.3 13.1c-2.6.3-5.2-1.5-5.7-4s1.3-4.9 3.9-5.2c2.6-.3 5.2 1.5 5.7 3.9.5 2.6-1.3 5-3.9 5.3zm74.8-21.7c.5 2.5-1.3 4.8-3.9 5.1-2.6.3-5.2-1.5-5.7-4s1.3-4.8 3.9-5.1c2.7-.3 5.2 1.5 5.7 4zM119 182c.5 2.5-1.2 4.8-3.9 5.1-2.6.3-5.1-1.4-5.6-3.9s1.2-4.8 3.9-5.1c2.6-.3 5.1 1.4 5.6 3.9zm-12.4-21.9c.5 2.5-1.2 4.8-3.9 5.1-2.6.3-5.1-1.4-5.6-3.9s1.2-4.8 3.9-5.1c2.6-.3 5.1 1.4 5.6 3.9zm92.5-6.8c-2.6.3-5.2-1.4-5.7-3.9s1.2-4.7 3.8-5.1c2.6-.3 5.2 1.4 5.7 3.9.6 2.5-1.1 4.7-3.8 5.1zm-61 42c.5 2.5-1.2 4.7-3.9 5.1-2.7.3-5.1-1.4-5.6-4-.5-2.5 1.3-4.7 3.9-5 2.6-.3 5.1 1.4 5.6 3.9zm42.6-9.8c2.6-.3 5.1 1.4 5.6 3.9s-1.2 4.8-3.9 5.1c-2.6.3-5.1-1.4-5.6-3.9-.4-2.5 1.3-4.8 3.9-5.1zm-24.4-83c2.6-.3 5.1 1.4 5.6 3.9s-1.3 4.7-3.9 5c-2.6.3-5-1.4-5.5-3.9-.5-2.4 1.2-4.7 3.8-5zm-30.5 12.9c-2.6.3-5.1-1.4-5.6-3.9s1.3-4.7 3.9-5c2.6-.3 5 1.4 5.5 3.9.6 2.4-1.2 4.6-3.8 5zm70.4 22.5c-2.6.3-5.1-1.4-5.6-3.9-.5-2.4 1.3-4.7 3.8-5 2.5-.3 5 1.4 5.5 3.8.6 2.5-1.1 4.8-3.7 5.1zm-92.7 7c.5 2.4-1.3 4.7-3.8 5-2.6.3-5.1-1.5-5.5-3.9-.5-2.4 1.3-4.7 3.8-5 2.5-.3 5 1.4 5.5 3.9zm60.1 55c.5 2.4-1.2 4.7-3.8 5-2.6.3-5.1-1.4-5.6-3.9-.5-2.4 1.2-4.7 3.8-5 2.6-.3 5.2 1.5 5.6 3.9zm-58.1-19.5c-2.6.3-5-1.4-5.5-3.8s1.2-4.7 3.8-5c2.6-.3 5 1.4 5.4 3.8.6 2.5-1.1 4.7-3.7 5zm100.3-16.9c.5 2.4-1.2 4.6-3.7 4.9-2.6.3-5-1.4-5.5-3.8s1.2-4.6 3.8-4.9c2.6-.3 5 1.4 5.4 3.8zM142 198.2c2.5-.3 4.9 1.3 5.4 3.7.5 2.4-1.2 4.6-3.7 4.9-2.5.3-4.9-1.4-5.4-3.8-.5-2.3 1.2-4.5 3.7-4.8zm32.2-3.9c2.5-.3 4.9 1.4 5.4 3.8s-1.2 4.6-3.8 4.9c-2.5.3-4.9-1.4-5.4-3.8-.3-2.4 1.3-4.6 3.8-4.9zM136 101.7c.5 2.4-1.1 4.5-3.6 4.8-2.5.3-4.8-1.3-5.3-3.7-.5-2.4 1.1-4.5 3.6-4.8 2.5-.3 4.8 1.3 5.3 3.7zm12.4 2.9c-2.5.3-4.8-1.4-5.3-3.7-.4-2.4 1.2-4.5 3.7-4.8 2.5-.3 4.8 1.4 5.3 3.7.4 2.4-1.2 4.5-3.7 4.8zm-46.9 12.7c2.4-.3 4.8 1.3 5.2 3.7.5 2.3-1.2 4.5-3.7 4.7-2.4.3-4.8-1.4-5.2-3.7-.3-2.3 1.3-4.4 3.7-4.7zm80.5-9.9c2.4-.3 4.8 1.3 5.2 3.7.5 2.4-1.2 4.5-3.7 4.8-2.4.3-4.8-1.4-5.2-3.7-.4-2.4 1.2-4.5 3.7-4.8zm-8 1.8c-2.4.3-4.8-1.4-5.2-3.7-.4-2.3 1.2-4.4 3.6-4.7 2.4-.3 4.8 1.4 5.2 3.7.5 2.3-1.2 4.4-3.6 4.7zm35.3 30.4c.4 2.3-1.2 4.5-3.6 4.7-2.4.3-4.7-1.4-5.2-3.7-.4-2.3 1.2-4.5 3.6-4.7 2.4-.2 4.8 1.4 5.2 3.7zm-112.6 14c.4 2.3-1.2 4.5-3.6 4.7-2.4.3-4.7-1.4-5.2-3.7-.4-2.3 1.2-4.5 3.6-4.7 2.4-.3 4.7 1.4 5.2 3.7zm16.6-41.2c.4 2.3-1.2 4.4-3.7 4.7-2.4.3-4.7-1.4-5.2-3.7-.4-2.3 1.2-4.4 3.7-4.7 2.4-.2 4.8 1.4 5.2 3.7zm95.3 47.2c-2.4.3-4.8-1.3-5.2-3.6-.5-2.3 1.2-4.4 3.6-4.7 2.4-.3 4.8 1.3 5.2 3.6.4 2.2-1.2 4.4-3.6 4.7zm-15.4-37.2c-2.4.3-4.8-1.4-5.2-3.6-.4-2.3 1.2-4.4 3.6-4.7 2.4-.3 4.8 1.4 5.2 3.6.4 2.3-1.2 4.4-3.6 4.7zm-93 7.3c.4 2.3-1.2 4.4-3.6 4.7-2.4.3-4.8-1.4-5.2-3.6-.4-2.3 1.2-4.4 3.6-4.7 2.4-.4 4.8 1.3 5.2 3.6zm-4.3 43.8c-2.4.3-4.8-1.4-5.2-3.7-.4-2.3 1.2-4.4 3.6-4.6 2.4-.3 4.8 1.4 5.2 3.7.4 2.3-1.2 4.4-3.6 4.6zm102.6 18.6c-2.4.3-4.7-1.3-5.1-3.6-.4-2.3 1.1-4.3 3.5-4.6 2.4-.3 4.7 1.3 5.1 3.6.5 2.2-1.1 4.3-3.5 4.6zm-76.9 5.3c.4 2.3-1.1 4.3-3.6 4.6-2.4.3-4.6-1.3-5.1-3.6-.4-2.3 1.1-4.3 3.6-4.6 2.4-.3 4.6 1.3 5.1 3.6zm30.1 7.7c2.4-.3 4.6 1.3 5.1 3.6.4 2.3-1.1 4.3-3.6 4.6-2.4.3-4.6-1.3-5-3.6-.5-2.3 1.1-4.4 3.5-4.6zm17.6 6.2c-2.4.3-4.6-1.3-5.1-3.6-.4-2.2 1.2-4.3 3.6-4.6 2.3-.3 4.6 1.3 5 3.6.5 2.3-1.1 4.3-3.5 4.6zm39.2-32.5c.4 2.2-1.2 4.3-3.6 4.6-2.4.3-4.6-1.3-5-3.6-.4-2.2 1.2-4.3 3.5-4.5 2.4-.3 4.7 1.3 5.1 3.5zm-96.5 12c.4 2.3-1.2 4.3-3.5 4.6-2.4.3-4.6-1.3-5.1-3.6-.4-2.2 1.2-4.3 3.5-4.6 2.4-.3 4.7 1.3 5.1 3.6zm79.9 9.9c-2.3.3-4.6-1.3-5-3.5-.4-2.2 1.2-4.3 3.6-4.6 2.3-.3 4.6 1.4 5 3.6.4 2.1-1.2 4.2-3.6 4.5zm-60.8 3.3c.4 2.2-1.2 4.3-3.5 4.6-2.4.3-4.7-1.3-5.1-3.6-.4-2.2 1.2-4.3 3.5-4.5 2.4-.3 4.7 1.3 5.1 3.5zm28.3-105.1c-.4-2.2 1.2-4.3 3.5-4.6 2.4-.3 4.7 1.3 5.1 3.6.4 2.2-1.2 4.3-3.5 4.5-2.4.3-4.7-1.3-5.1-3.5zm-44.8 1.3c2.3-.3 4.6 1.3 5.1 3.5.4 2.2-1.2 4.3-3.5 4.6-2.3.3-4.6-1.3-5-3.6-.5-2.2 1.1-4.2 3.4-4.5zM90 142.8c-2.3.3-4.6-1.3-5-3.5-.4-2.2 1.1-4.2 3.4-4.5 2.3-.3 4.6 1.3 5 3.5.5 2.2-1 4.2-3.4 4.5zm111.1-21.9c2.3-.3 4.6 1.2 5 3.5.4 2.2-1.1 4.2-3.4 4.5-2.3.3-4.6-1.2-5-3.5-.5-2.2 1.1-4.2 3.4-4.5zm-98.8 63.2c.4 2.2-1.1 4.2-3.4 4.5-2.3.3-4.5-1.3-4.9-3.4-.4-2.2 1.1-4.2 3.4-4.5 2.3-.3 4.5 1.2 4.9 3.4zm112.6-13.9c.4 2.2-1.1 4.2-3.4 4.5-2.3.3-4.5-1.3-4.9-3.4-.4-2.2 1.1-4.2 3.4-4.5 2.3-.3 4.5 1.2 4.9 3.4zm-76.1-72.5c-2.3.3-4.5-1.2-4.9-3.4-.4-2.2 1.1-4.2 3.4-4.5 2.3-.3 4.5 1.3 4.9 3.4.4 2.2-1.1 4.2-3.4 4.5zm46.6 111.4c-2.2.3-4.4-1.2-4.9-3.3-.4-2.1 1.1-4.2 3.3-4.4 2.3-.3 4.4 1.3 4.9 3.4.4 2.1-1 4-3.3 4.3zm-44.9 1.6c.3 2.2-1.2 4.1-3.4 4.3-2.3.2-4.5-1.4-4.8-3.5-.3-2.2 1.2-4.1 3.5-4.3 2.2-.2 4.3 1.4 4.7 3.5zm73-67.8c2.3-.3 4.4 1.2 4.8 3.3.4 2.1-1 4.1-3.3 4.3-2.2.3-4.3-1.2-4.8-3.3-.3-2 1.1-4 3.3-4.3zm-58.6-47.4c-2.2.3-4.4-1.2-4.8-3.3-.4-2.1 1.1-4 3.3-4.3 2.2-.3 4.3 1.2 4.7 3.3.5 2.1-1 4.1-3.2 4.3zm-28.9-.4c.4 2.1-1.1 4-3.3 4.3-2.2.3-4.4-1.2-4.8-3.4-.4-2.1 1.1-4 3.3-4.3 2.2-.2 4.4 1.3 4.8 3.4zm-36.2 67.1c.4 2.1-1 4.1-3.3 4.3-2.2.3-4.4-1.2-4.8-3.4-.4-2.1 1-4 3.3-4.3 2.2-.2 4.3 1.3 4.8 3.4zm122.4-26.9c-2.2.3-4.4-1.2-4.8-3.3-.4-2.1 1-4 3.2-4.3 2.2-.3 4.4 1.2 4.8 3.3.4 2-1 4-3.2 4.3zM86.7 147c.4 2.1-1.1 4-3.3 4.3-2.2.2-4.3-1.2-4.7-3.3-.4-2.1 1.1-4 3.3-4.3 2.2-.3 4.3 1.2 4.7 3.3zm79.2 68.3c.4 2.1-1 4-3.2 4.3-2.2.3-4.3-1.2-4.7-3.3-.4-2.1 1-4 3.2-4.3 2.2-.3 4.3 1.2 4.7 3.3zm55.4-53.7c.4 2.1-1 4-3.3 4.2-2.2.2-4.2-1.2-4.6-3.3-.4-2.1 1-4 3.3-4.2 2.1-.2 4.2 1.2 4.6 3.3zM96.7 114.4c.4 2.1-1 3.9-3.1 4.2-2.2.3-4.2-1.1-4.7-3.2-.4-2.1 1-3.9 3.1-4.2 2.2-.3 4.3 1.1 4.7 3.2zm93.3-7.7c-2.2.3-4.2-1.2-4.6-3.3-.4-2.1 1-3.9 3.2-4.2 2.2-.3 4.2 1.2 4.6 3.3.4 2.1-1 3.9-3.2 4.2zm-97.5 70.8c.4 2.1-1 3.9-3.2 4.2-2.2.3-4.2-1.1-4.6-3.2-.4-2.1 1-3.9 3.2-4.2 2.1-.3 4.2 1.2 4.6 3.2zm88-77.5c-2.2.3-4.2-1.2-4.6-3.2-.4-2 1-3.9 3.2-4.2 2.2-.3 4.2 1.2 4.6 3.2.4 2.1-1 4-3.2 4.2zm-81.9 2.6c2.1-.3 4.2 1.2 4.6 3.2.4 2-1.1 3.9-3.2 4.1-2.1.3-4.2-1.2-4.6-3.2-.3-2 1.1-3.9 3.2-4.1zm-8.5 20.5c.4 2-1 3.9-3.2 4.2-2.1.3-4.2-1.2-4.6-3.2-.4-2 1-3.9 3.2-4.2 2.1-.3 4.2 1.2 4.6 3.2zm59.7 94.2c.4 2-1.1 3.9-3.2 4.1-2.1.2-4.2-1.2-4.5-3.2-.4-2 1.1-3.9 3.2-4.1 2-.2 4.1 1.2 4.5 3.2zm32.1-3.9c.4 2-1 3.9-3.1 4.2-2.1.3-4.2-1.2-4.6-3.2-.4-2 1-3.9 3.1-4.2 2.2-.2 4.2 1.2 4.6 3.2zm16.3-107.5c2.1-.2 4.2 1.3 4.5 3.3.3 2-1.1 3.8-3.2 4.1-2.1.2-4.2-1.3-4.5-3.3-.3-2 1.1-3.9 3.2-4.1zm9.8 92.3c-2.1.3-4.1-1.1-4.5-3.1-.4-2 .9-3.8 3-4.1 2.1-.3 4.1 1.1 4.5 3.1.4 2-.9 3.8-3 4.1zm-93.5 7.9c.4 2-1 3.8-3.1 4.1-2.1.3-4.1-1.1-4.5-3.1-.4-2 1-3.8 3.1-4.1 2.1-.3 4.1 1.1 4.5 3.1zm56.4-112.8c-2.1.3-4.1-1.1-4.4-3.1-.4-2 1-3.8 3.1-4 2.1-.3 4.1 1.1 4.4 3.1.4 1.9-1 3.7-3.1 4zm-64.4 7.9c-2.1.3-4.1-1.1-4.4-3.1-.4-2 1-3.8 3.1-4 2.1-.3 4.1 1.1 4.4 3.1.4 1.9-1 3.7-3.1 4zm-1.6 98.2c.4 2-1 3.8-3 4-2.1.3-4.1-1.1-4.5-3.1-.4-2 1-3.8 3-4 2.1-.2 4.1 1.2 4.5 3.1zm112.6-13.9c.4 2-1 3.8-3.1 4-2.1.2-4.1-1.2-4.4-3.1-.4-2 1-3.8 3.1-4 2.1-.3 4.1 1.1 4.4 3.1zM124 212.7c.4 1.9-1 3.8-3.1 4-2 .2-4-1.2-4.4-3.1-.4-1.9 1-3.8 3.1-4 2-.2 4 1.2 4.4 3.1zm80.4-10c.4 1.9-1 3.8-3.1 4-2 .2-4-1.1-4.4-3.1-.4-1.9 1-3.8 3.1-4 2.1-.2 4.1 1.2 4.4 3.1zM148.3 84.6c.4 1.9-1 3.8-3.1 4-2 .2-4-1.2-4.4-3.1-.4-1.9 1-3.8 3.1-4 2.1-.2 4.1 1.2 4.4 3.1zm-16.1 1.9c.4 2-1.1 3.8-3.1 4-2 .2-4-1.2-4.4-3.1-.4-2 1.1-3.8 3.1-4 2.1-.2 4.1 1.2 4.4 3.1zm79.9 29.2c.4 1.9-1 3.7-3 4-2 .3-4-1.1-4.4-3-.4-1.9 1-3.7 3-4 2-.3 4 1.1 4.4 3zM79 128.7c2-.3 4 1.1 4.4 3 .4 1.9-1 3.7-3 4-2 .3-4-1.1-4.4-3-.4-1.9 1-3.8 3-4zm-3.5 24c2-.2 3.9 1.1 4.3 3.1.3 1.9-1 3.6-3 3.8-2 .2-3.9-1.1-4.3-3.1-.3-1.9 1-3.6 3-3.8zm19.7 40.1c.4 1.9-.9 3.6-2.9 3.9-2 .3-3.9-1.1-4.3-3-.4-1.9.9-3.6 2.9-3.9 2-.2 3.9 1.1 4.3 3zM221 180.7c-2 .2-3.9-1.1-4.3-3-.4-1.9 1-3.6 3-3.9 2-.2 3.9 1.1 4.3 3 .3 2-1 3.7-3 3.9zm3.6-43c.4 1.9-.9 3.6-2.9 3.9-2 .2-3.9-1.1-4.3-3-.4-1.9.9-3.6 2.9-3.9 2-.3 3.9 1.1 4.3 3zm-1.4 12.3c2-.2 3.9 1.1 4.3 3 .4 1.9-1 3.6-2.9 3.9-2 .2-3.9-1.1-4.3-3-.4-1.9.9-3.7 2.9-3.9zM82.6 170.9c.4 1.9-1 3.6-3 3.9-2 .2-3.9-1.1-4.3-3-.4-1.9 1-3.6 3-3.9 2.1-.2 4 1.2 4.3 3zm50.8 48.5c.4 1.9-1 3.6-2.9 3.8-2 .2-3.9-1.1-4.2-3-.4-1.9 1-3.6 2.9-3.8 1.9-.2 3.8 1.1 4.2 3zm60.1-10.9c1.9-.3 3.9 1.1 4.3 2.9.4 1.8-.9 3.6-2.9 3.9-1.9.3-3.9-1.1-4.3-2.9-.4-1.9.9-3.7 2.9-3.9zM164.2 82.7c.4 1.9-.9 3.5-2.9 3.7-2 .2-3.8-1.1-4.1-3-.3-1.8.9-3.5 2.9-3.7 1.9-.2 3.8 1.1 4.1 3zm-48.3 5.9c.4 1.9-.9 3.5-2.9 3.7-2 .2-3.8-1.1-4.1-3-.3-1.8.9-3.5 2.9-3.7 1.9-.2 3.8 1.1 4.1 3zM159 224c.4 1.9-.9 3.5-2.9 3.7-2 .2-3.8-1.1-4.1-3-.3-1.8.9-3.5 2.9-3.7 1.9-.2 3.7 1.1 4.1 3zm11.9-4.8c1.9-.2 3.8 1 4.1 2.9.4 1.9-.9 3.5-2.9 3.8-1.9.2-3.8-1.1-4.1-2.9-.3-1.9 1-3.6 2.9-3.8zm-97.1-75.1c-1.9.2-3.7-1.1-4.1-2.9-.4-1.8 1-3.5 2.9-3.7 1.9-.2 3.7 1.1 4.1 2.9.3 1.8-1 3.5-2.9 3.7zm144.8-18c-1.9.2-3.7-1-4.1-2.8-.4-1.8.9-3.5 2.8-3.8 1.9-.2 3.7 1.1 4.1 2.9.4 1.8-.9 3.5-2.8 3.7zM85.4 186.3c.3 1.8-.9 3.4-2.8 3.6-1.9.2-3.6-1-4-2.8-.3-1.8.9-3.4 2.8-3.6 1.9-.3 3.7 1 4 2.8zm140.9-20.8c1.9-.2 3.7 1 4 2.8.3 1.8-.9 3.3-2.8 3.6-1.9.2-3.7-1-4-2.8-.3-1.8.9-3.4 2.8-3.6zm-38.1 58.2c-1.8.2-3.6-1.1-3.9-2.8-.3-1.7 1-3.4 2.8-3.5 1.8-.2 3.6 1.1 3.9 2.8.3 1.6-1 3.3-2.8 3.5zm-48.2 5.9c-1.8.2-3.6-1-4-2.7-.3-1.7.9-3.4 2.7-3.6 1.8-.2 3.6 1 3.9 2.7.4 1.7-.8 3.3-2.6 3.6zm56.5-132.1c-1.8.2-3.6-1-4-2.7-.3-1.7.9-3.4 2.7-3.6 1.8-.2 3.6 1 3.9 2.7.5 1.7-.8 3.3-2.6 3.6zm-60.8-15.9c-1.8.2-3.6-1-4-2.7-.3-1.7.9-3.4 2.7-3.6 1.8-.2 3.6 1 3.9 2.7.4 1.7-.8 3.4-2.6 3.6zm-49.1 26.3c.3 1.7-.9 3.4-2.7 3.6-1.8.2-3.6-1.1-3.9-2.8-.3-1.7.9-3.3 2.7-3.5 1.7-.3 3.5 1 3.9 2.7zm6.5-8.7c.3 1.7-.8 3.3-2.7 3.5-1.8.2-3.6-1-3.9-2.7-.3-1.7.9-3.3 2.7-3.5 1.8-.2 3.5 1 3.9 2.7zm96.5-11.9c.3 1.7-.8 3.3-2.7 3.5-1.8.2-3.6-1-3.9-2.7-.3-1.7.9-3.3 2.7-3.5 1.8-.2 3.6 1 3.9 2.7zM206 104c-1.8.2-3.5-1-3.9-2.7-.3-1.7.9-3.3 2.7-3.5 1.8-.2 3.5 1 3.8 2.7.4 1.8-.7 3.3-2.6 3.5zM77.3 120c-1.8.2-3.5-1-3.8-2.7-.3-1.7.9-3.3 2.7-3.5 1.8-.2 3.5 1 3.8 2.7.3 1.8-.9 3.3-2.7 3.5zm44.9-40.1c.3 1.7-.8 3.3-2.6 3.5-1.8.2-3.5-1-3.8-2.6-.3-1.7.8-3.3 2.6-3.5 1.7-.2 3.4 1 3.8 2.6zm29.5-.4c-1.8.2-3.5-1-3.8-2.7-.3-1.7.9-3.2 2.6-3.4 1.8-.2 3.5 1 3.8 2.7.4 1.7-.8 3.2-2.6 3.4zm79.3 68.3c-1.7.2-3.5-1-3.8-2.6-.3-1.7.9-3.2 2.6-3.4 1.7-.2 3.5 1 3.8 2.6.3 1.6-.9 3.2-2.6 3.4zm-160.8 20c-1.7.2-3.5-1-3.8-2.6-.3-1.7.9-3.2 2.6-3.4 1.7-.2 3.5 1 3.8 2.6.4 1.6-.8 3.2-2.6 3.4zm34.5 50.4c-1.7.2-3.4-1-3.8-2.6-.3-1.7.9-3.2 2.6-3.4 1.7-.2 3.4 1 3.7 2.6.4 1.7-.7 3.2-2.5 3.4zm112.7-14c-1.7.2-3.4-1-3.8-2.6-.3-1.7.9-3.2 2.6-3.4 1.7-.2 3.4 1 3.7 2.6.4 1.7-.8 3.2-2.5 3.4zM99.4 90.6c.3 1.7-.8 3.2-2.5 3.4-1.8.2-3.4-.9-3.7-2.6-.3-1.6.8-3.1 2.5-3.3 1.7-.3 3.4.8 3.7 2.5zm78-6.6c-1.8.2-3.4-.9-3.7-2.6-.3-1.7.8-3.1 2.6-3.4 1.7-.2 3.3.9 3.7 2.6.2 1.7-.9 3.2-2.6 3.4zm49 108.2c.3 1.6-.8 3.1-2.5 3.3-1.7.2-3.4-.9-3.7-2.5-.3-1.6.8-3.1 2.5-3.3 1.8-.3 3.4.8 3.7 2.5zM95.2 211.5c-1.7.2-3.4-.9-3.7-2.5-.3-1.6.8-3.1 2.5-3.3 1.7-.2 3.4.9 3.7 2.5.3 1.6-.8 3.1-2.5 3.3zm122.9-104.3c.3 1.7-.8 3.1-2.5 3.4-1.7.2-3.4-.9-3.7-2.5-.3-1.7.8-3.1 2.5-3.4 1.7-.3 3.3.8 3.7 2.5zM69.7 149.1c.3 1.6-.8 3.1-2.5 3.3-1.7.2-3.4-.9-3.7-2.6-.3-1.6.8-3.1 2.5-3.3 1.8-.2 3.4.9 3.7 2.6zm158.4-16.7c-1.7.2-3.4-.9-3.7-2.6-.3-1.6.8-3.1 2.5-3.3 1.7-.2 3.4.9 3.7 2.6.4 1.6-.8 3.1-2.5 3.3zm-14.8 77.1c.3 1.6-.8 3.1-2.5 3.3-1.7.2-3.3-.9-3.6-2.5-.3-1.6.8-3.1 2.5-3.3 1.7-.3 3.3.9 3.6 2.5zm-100.2 9.4c1.7-.2 3.4.9 3.7 2.5.3 1.6-.8 3.1-2.5 3.3-1.7.2-3.4-.9-3.7-2.5-.3-1.6.8-3.1 2.5-3.3zm-42.3-90.4c-1.7.2-3.4-.9-3.7-2.5-.3-1.6.8-3.1 2.5-3.3 1.7-.2 3.4.9 3.7 2.5.3 1.6-.9 3.1-2.5 3.3zm97.3 102.1c.3 1.6-.8 3.1-2.5 3.3-1.7.2-3.3-.9-3.6-2.5-.3-1.6.8-3.1 2.5-3.3 1.6-.2 3.2 1 3.6 2.5zm68.4-71c.3 1.6-.8 3.1-2.5 3.3-1.7.2-3.3-.9-3.7-2.5-.3-1.6.8-3.1 2.5-3.3 1.7-.2 3.4.9 3.7 2.5zM73.1 182.9c-1.7.2-3.3-1-3.6-2.6-.3-1.6.9-3.1 2.5-3.3 1.7-.2 3.3 1 3.6 2.6.3 1.7-.9 3.2-2.5 3.3zm12.5 21.8c-1.7.2-3.2-.9-3.5-2.5-.3-1.6.8-3 2.5-3.1 1.7-.2 3.2.9 3.5 2.5.2 1.6-.9 3-2.5 3.1zm98.5 24.1c.3 1.6-.8 3-2.4 3.2-1.7.2-3.2-.9-3.5-2.5-.3-1.6.8-3 2.4-3.2 1.6-.2 3.2.9 3.5 2.5zm48.8-45.2c.3 1.6-.8 3-2.5 3.1-1.7.2-3.2-.9-3.5-2.5-.3-1.6.8-3 2.5-3.1 1.6-.2 3.2.9 3.5 2.5zm-84.5 46.6c1.7-.2 3.2.9 3.5 2.5.3 1.6-.8 3-2.4 3.2-1.7.2-3.2-.9-3.5-2.5-.4-1.6.7-3 2.4-3.2zm-22.2-2.2c.3 1.5-.8 3-2.4 3.2-1.6.2-3.2-.9-3.5-2.4-.3-1.5.8-2.9 2.3-3.1 1.7-.3 3.3.8 3.6 2.3zm40.5-156.3c1.6-.2 3.2.9 3.5 2.5.3 1.5-.8 3-2.4 3.1-1.6.2-3.1-.9-3.4-2.4-.4-1.6.7-3.1 2.3-3.2zm40 146.4c.3 1.5-.8 3-2.4 3.1-1.6.2-3.2-1-3.5-2.5-.3-1.5.8-2.9 2.4-3.1 1.6-.1 3.2 1 3.5 2.5zM102.3 79.6c1.6-.2 3.2.9 3.5 2.4.3 1.5-.7 2.9-2.3 3.1-1.6.2-3.2-.9-3.5-2.4-.4-1.4.7-2.9 2.3-3.1zm122.8 37.3c-1.6.2-3.1-.8-3.4-2.3-.3-1.5.7-2.9 2.3-3.1 1.6-.2 3 .8 3.3 2.3.4 1.5-.6 2.9-2.2 3.1zm-161 20c-1.6.2-3.1-.9-3.3-2.4-.3-1.5.8-2.8 2.4-3 1.6-.2 3 .9 3.3 2.4.2 1.5-.8 2.8-2.4 3zM141 67.2c1.5-.2 3.1.9 3.3 2.3.3 1.4-.7 2.8-2.3 3-1.5.2-3.1-.9-3.3-2.3-.2-1.5.8-2.8 2.3-3zm-12.7 4.3c.3 1.4-.7 2.8-2.3 3-1.5.2-3-.8-3.3-2.3-.3-1.4.7-2.8 2.3-3 1.5-.2 3 .8 3.3 2.3zm110.9 103.4c.3 1.4-.7 2.8-2.3 3-1.5.2-3-.9-3.3-2.3-.3-1.4.7-2.7 2.2-2.9 1.6-.2 3.1.8 3.4 2.2zM75 192.7c1.5-.2 2.9.8 3.2 2.2.3 1.4-.7 2.7-2.2 2.9-1.5.2-2.9-.8-3.2-2.2-.3-1.4.7-2.7 2.2-2.9zm161.5-59.1c1.5-.2 2.9.9 3.2 2.2.2 1.4-.8 2.7-2.2 2.8-1.4.1-2.8-.9-3.1-2.2-.4-1.4.6-2.7 2.1-2.8zm-103.2 104c-1.5.2-2.9-.9-3.1-2.3-.2-1.4.8-2.7 2.2-2.8 1.4-.1 2.8.9 3.1 2.2.2 1.4-.8 2.7-2.2 2.9zm66.6-10.8c.3 1.4-.7 2.7-2.2 2.9-1.5.2-2.9-.9-3.1-2.3-.2-1.4.7-2.6 2.2-2.8 1.4-.2 2.8.8 3.1 2.2zm42.7-75.7c.2 1.4-.7 2.7-2.2 2.8-1.4.2-2.9-.8-3.1-2.2-.2-1.4.7-2.7 2.2-2.8 1.4-.2 2.9.8 3.1 2.2zm-179.9 6.7c.3 1.4-.7 2.7-2.2 2.8-1.4.2-2.9-.8-3.1-2.2-.3-1.4.7-2.7 2.2-2.8 1.4-.2 2.9.8 3.1 2.2zm2.9 15.3c.3 1.4-.7 2.6-2.1 2.8-1.5.2-2.8-.8-3.1-2.1-.3-1.4.7-2.6 2.1-2.8 1.4-.2 2.8.7 3.1 2.1zm136.3-89.8c1.4-.2 2.8.8 3.1 2.1.3 1.3-.7 2.5-2.1 2.7-1.4.2-2.8-.8-3.1-2.1-.2-1.4.7-2.6 2.1-2.7zM74.2 104.1c-1.4.2-2.8-.8-3.1-2.1-.3-1.3.7-2.5 2.1-2.7 1.4-.2 2.8.8 3.1 2.1.2 1.3-.7 2.5-2.1 2.7zm83-38.7c1.5-.2 2.8.7 3.1 2.1.3 1.3-.6 2.6-2.1 2.7-1.5.2-2.8-.7-3.1-2.1-.2-1.3.7-2.5 2.1-2.7zm-45.3 8c.3 1.3-.7 2.6-2.1 2.7-1.4.2-2.8-.8-3-2.1-.2-1.3.7-2.5 2.1-2.7 1.4-.2 2.8.8 3 2.1zm83.5 5.3c.3 1.3-.7 2.6-2.1 2.7-1.4.2-2.8-.8-3-2.1-.2-1.3.7-2.5 2.1-2.7 1.4-.1 2.7.8 3 2.1zm-112.6 14c.3 1.3-.7 2.6-2.1 2.7-1.4.2-2.8-.8-3-2.1-.2-1.3.7-2.5 2.1-2.7 1.3-.2 2.7.8 3 2.1zM69.7 110c.2 1.3-.7 2.5-2.1 2.7-1.4.2-2.7-.8-3-2.1-.2-1.3.7-2.5 2.1-2.7 1.4-.1 2.7.8 3 2.1zm141.8-20.1c1.4-.2 2.7.8 3 2 .3 1.3-.7 2.5-2 2.7-1.4.2-2.7-.8-3-2-.3-1.2.6-2.5 2-2.7zM158.9 242c-1.4.2-2.7-.7-2.9-2-.3-1.3.6-2.5 2-2.7 1.4-.1 2.7.8 2.9 2.1.3 1.3-.6 2.4-2 2.6zm16.1-1.9c-1.4.2-2.7-.7-2.9-2-.3-1.3.6-2.5 2-2.7 1.4-.1 2.7.8 2.9 2.1.3 1.3-.6 2.5-2 2.6zm61.5-119.6c.3 1.3-.6 2.5-2 2.6-1.4.2-2.6-.7-2.9-2-.3-1.3.6-2.5 2-2.6 1.4-.1 2.6.7 2.9 2zm-177 22c.3 1.3-.6 2.5-2 2.6-1.3.2-2.6-.7-2.9-2-.3-1.3.6-2.5 2-2.6 1.4-.1 2.7.8 2.9 2zm166.4 63.1c1.3-.2 2.6.7 2.9 2 .2 1.2-.6 2.4-1.9 2.6-1.3.2-2.5-.7-2.8-1.9-.4-1.3.5-2.5 1.8-2.7zm-43-135.4c1.3-.2 2.6.7 2.9 2 .2 1.2-.7 2.4-2 2.6-1.3.1-2.5-.7-2.8-1.9-.3-1.4.6-2.6 1.9-2.7zM89.2 84.1c.2 1.2-.7 2.4-2 2.5-1.3.1-2.6-.8-2.8-2.1-.2-1.2.7-2.4 2-2.5 1.3 0 2.6.9 2.8 2.1zm156.1 82.3c.2 1.2-.7 2.4-2 2.6-1.3.1-2.6-.8-2.8-2-.2-1.2.7-2.4 1.9-2.5 1.4-.3 2.7.6 2.9 1.9zm-176.9 22c.2 1.2-.7 2.4-2 2.5-1.3.1-2.6-.8-2.8-2-.2-1.2.7-2.4 2-2.5 1.2-.1 2.5.8 2.8 2zm31.6 35.1c.3 1.2-.6 2.4-1.9 2.5-1.3.2-2.5-.7-2.8-1.9-.3-1.2.6-2.4 1.9-2.5 1.3-.2 2.5.7 2.8 1.9zM219.2 99.2c-.2-1.2.6-2.3 1.9-2.4 1.3-.2 2.5.7 2.7 2 .2 1.2-.6 2.3-1.9 2.4-1.3.1-2.5-.8-2.7-2zM62.9 118.6c.3 1.2-.5 2.3-1.8 2.5-1.3.2-2.5-.7-2.8-1.9-.2-1.2.6-2.3 1.9-2.5 1.3-.1 2.4.7 2.7 1.9zM87.7 215c1.3-.2 2.5.7 2.7 1.9.2 1.2-.6 2.3-1.9 2.5-1.3.1-2.4-.7-2.7-1.9-.3-1.3.6-2.3 1.9-2.5zm144.8-18c1.3-.1 2.5.7 2.7 1.9.2 1.2-.6 2.3-1.9 2.5-1.3.1-2.4-.7-2.7-2-.2-1.2.6-2.2 1.9-2.4zm-124.9 35.6c-1.3.2-2.5-.7-2.7-1.9-.2-1.2.6-2.3 1.8-2.4 1.3-.2 2.5.7 2.7 1.9.3 1.1-.5 2.2-1.8 2.4zm112.7-14c-1.3.2-2.5-.7-2.7-1.9-.2-1.2.6-2.3 1.8-2.4 1.3-.2 2.5.7 2.7 1.9.2 1.2-.6 2.3-1.8 2.4zm-75.7 22.8c.2 1.2-.6 2.3-1.9 2.5-1.2.1-2.4-.7-2.7-1.9-.2-1.2.6-2.3 1.9-2.5 1.3-.1 2.5.7 2.7 1.9zm48.3-5.9c.2 1.2-.6 2.3-1.9 2.4-1.2.1-2.4-.7-2.6-1.9-.2-1.2.6-2.3 1.9-2.4 1.2-.1 2.4.7 2.6 1.9zM131.6 61.2c1.2-.2 2.3.6 2.6 1.8.2 1.1-.6 2.2-1.8 2.3-1.2.1-2.3-.6-2.5-1.7-.2-1.2.5-2.3 1.7-2.4zM78.9 212.6c-1.2.1-2.3-.7-2.5-1.8-.2-1.1.6-2.2 1.8-2.3 1.2-.1 2.3.7 2.5 1.8.2 1.1-.6 2.2-1.8 2.3zm162.7-22.3c.2 1.1-.6 2.2-1.8 2.3-1.2.1-2.3-.7-2.5-1.8-.2-1.1.6-2.1 1.8-2.3 1.1-.1 2.3.7 2.5 1.8zM175.9 65.5c.2 1.1-.5 2.1-1.7 2.3-1.1.2-2.3-.6-2.5-1.7-.2-1.1.5-2.1 1.7-2.3 1.1-.1 2.2.6 2.5 1.7zm-59.6 169.6c1.1-.1 2.3.6 2.5 1.7.2 1.1-.6 2.1-1.7 2.2-1.1.1-2.3-.6-2.5-1.7-.2-1 .6-2.1 1.7-2.2zm99.1-10.2c.2 1.1-.6 2.1-1.7 2.2-1.1.1-2.3-.7-2.5-1.7-.2-1.1.6-2.1 1.7-2.2 1.1-.2 2.3.6 2.5 1.7zM95.4 75.5c.2 1.1-.5 2.1-1.7 2.3-1.1.2-2.3-.6-2.5-1.7-.2-1.1.5-2.1 1.7-2.3 1.1-.2 2.3.6 2.5 1.7zm52.4-16.2c1.1-.1 2.2.6 2.4 1.7.2 1.1-.5 2-1.7 2.2-1.1.1-2.2-.6-2.4-1.7-.2-1.2.5-2.1 1.7-2.2zm-32.2 3.9c1.1-.1 2.2.6 2.4 1.7.2 1.1-.5 2-1.7 2.2-1.1.1-2.2-.6-2.4-1.7-.2-1.2.5-2.1 1.7-2.2zm-60 103.3c.2 1-.5 2-1.6 2.1-1.1.1-2.2-.6-2.4-1.7-.2-1 .6-2 1.7-2.1 1-.1 2.1.7 2.3 1.7zm175.1-62.8c1.1-.1 2.2.7 2.3 1.7.2 1.1-.6 2-1.7 2.1-1.1.1-2.1-.7-2.3-1.7-.1-1.1.6-2 1.7-2.1zM54.5 129.5c-1.1.1-2.2-.6-2.4-1.6-.2-1.1.5-2.1 1.6-2.2 1.1-.1 2.2.6 2.4 1.7.2 1-.5 1.9-1.6 2.1zm194 13c.2 1-.5 2-1.6 2.2-1.1.2-2.2-.6-2.4-1.7-.2-1 .5-2 1.6-2.1 1.1-.2 2.2.5 2.4 1.6zm-196.1 8.8c.2 1-.5 1.9-1.5 2-1.1.1-2.1-.6-2.3-1.6-.2-1 .5-1.9 1.6-2 1-.1 2 .6 2.2 1.6zm190.9-25.6c1-.1 2 .6 2.2 1.6.2 1-.5 1.9-1.6 2-1 .1-2-.6-2.2-1.6-.1-1 .6-1.9 1.6-2zm8 32.1c.2.9-.5 1.9-1.5 2-1 .2-2.1-.6-2.2-1.5-.2-.9.5-1.8 1.5-2 1-.2 2 .5 2.2 1.5zM67.1 204.1c-.1-.9.6-1.8 1.5-1.9 1-.1 2 .7 2.2 1.6.1 1-.6 1.8-1.6 1.9-1 .1-1.9-.6-2.1-1.6zm178.5-23.9c1-.1 2 .6 2.2 1.5.2 1-.5 1.9-1.5 2-1 .1-2-.6-2.2-1.5-.2-1 .5-1.9 1.5-2zm-187.4 1.7c.2.9-.5 1.8-1.5 1.9-1 .1-2-.6-2.1-1.5-.2-.9.5-1.8 1.5-1.9 1-.2 1.9.5 2.1 1.5zm111.6 64.2c.2.9-.5 1.8-1.5 1.9-1 .1-2-.5-2.1-1.5-.2-.9.5-1.8 1.5-1.9 1-.1 1.9.5 2.1 1.5zm38.7-12.6c.2.9-.4 1.7-1.4 1.9-1 .1-1.9-.5-2.1-1.5-.2-.9.5-1.7 1.4-1.9 1 0 1.9.6 2.1 1.5zm-81.9 11.9c-1 .1-1.9-.5-2-1.5-.2-.9.5-1.8 1.5-1.9 1-.1 1.9.6 2 1.5.1.9-.6 1.8-1.5 1.9zM165.9 59c.2.9-.4 1.7-1.4 1.8-.9.1-1.8-.5-1.9-1.4-.1-.9.4-1.6 1.3-1.7.9-.2 1.8.4 2 1.3zm-64.4 7.9c.2.9-.4 1.7-1.4 1.8-.9.1-1.8-.5-1.9-1.4-.2-.9.4-1.6 1.3-1.7 1-.2 1.8.4 2 1.3zM242.1 112c.2.8-.4 1.5-1.2 1.6-.9.1-1.6-.4-1.8-1.3-.1-.8.4-1.5 1.2-1.6.9 0 1.6.5 1.8 1.3zM47.8 137.6c-.8.1-1.6-.4-1.8-1.2-.2-.8.4-1.5 1.3-1.6.8-.1 1.6.5 1.7 1.3.2.8-.4 1.4-1.2 1.5zm160.9-62c.8-.1 1.6.4 1.8 1.2.2.8-.4 1.5-1.2 1.6-.8.1-1.6-.5-1.7-1.3-.3-.7.2-1.4 1.1-1.5zm-144.8 18c.8-.1 1.6.4 1.7 1.2.2.8-.4 1.5-1.3 1.6-.8.1-1.6-.5-1.7-1.3-.1-.7.4-1.4 1.3-1.5zm6.5-8.6c.8-.1 1.6.5 1.7 1.2.1.7-.4 1.5-1.2 1.5-.8.1-1.6-.5-1.7-1.2-.1-.7.4-1.4 1.2-1.5zm148.4.1c-.8.1-1.6-.5-1.7-1.2-.1-.7.4-1.5 1.2-1.6.8-.1 1.6.5 1.7 1.2.1.7-.5 1.5-1.2 1.6zM59 103.5c.2.7-.4 1.5-1.2 1.6-.8.1-1.6-.4-1.7-1.2-.2-.7.4-1.5 1.2-1.6.8-.1 1.6.4 1.7 1.2zM199.1 69c.8-.1 1.6.4 1.7 1.2.2.7-.4 1.5-1.2 1.6-.8.1-1.6-.4-1.7-1.2-.1-.7.4-1.5 1.2-1.6zm54.8 104.1c.1.8-.4 1.4-1.2 1.5-.8.1-1.5-.4-1.6-1.1-.1-.8.4-1.4 1.2-1.5.8-.1 1.4.4 1.6 1.1zm-193.1 24c.2.8-.3 1.4-1.1 1.5-.8.1-1.5-.4-1.6-1.1-.2-.8.3-1.4 1.1-1.5.8-.1 1.5.4 1.6 1.1zm61.4-141.8c.7-.1 1.4.4 1.6 1.1.2.7-.4 1.4-1.1 1.5-.7.1-1.4-.4-1.6-1.1-.1-.7.4-1.4 1.1-1.5zm16.2-2c.7-.1 1.4.4 1.6 1.1.1.7-.4 1.4-1.1 1.4-.7.1-1.4-.5-1.5-1.1-.3-.7.2-1.3 1-1.4zM77.4 79c-.7.1-1.4-.4-1.5-1.1-.1-.7.4-1.3 1.1-1.3.7-.1 1.3.4 1.4 1.1.2.6-.3 1.2-1 1.3zm113.7-15.4c.1.7-.3 1.3-1 1.4-.7.1-1.4-.4-1.5-1-.1-.7.3-1.2 1-1.3.7-.2 1.4.2 1.5.9zm45 152c-.7.1-1.3-.4-1.4-1-.1-.6.4-1.2 1-1.3.7 0 1.3.4 1.4 1 .1.7-.4 1.2-1 1.3zm-8.3-126.4c.7-.1 1.3.4 1.4 1 .1.6-.3 1.2-1 1.3-.7.1-1.3-.4-1.4-1-.1-.7.4-1.3 1-1.3zM51.3 113.5c-.6.1-1.3-.3-1.5-.9-.2-.6.3-1.3 1-1.3.7-.1 1.3.4 1.4 1 .2.5-.2 1.1-.9 1.2zM254.2 134c.1.6-.3 1.1-.9 1.2-.6.1-1.2-.3-1.3-.9-.1-.6.3-1.1.9-1.2.6-.1 1.1.3 1.3.9zm2.1 16.4c-.6.1-1.2-.3-1.3-.9-.1-.6.3-1.2.9-1.2.6-.1 1.2.3 1.3.9.1.6-.3 1.2-.9 1.2zM48 175.3c.1.6-.3 1.1-1 1.2-.6 0-1.2-.4-1.3-1-.1-.6.3-1.1 1-1.2.6 0 1.2.4 1.3 1zM45.1 160c.1.6-.3 1.1-1 1.2-.6.1-1.2-.4-1.3-.9-.1-.6.3-1.1 1-1.2.6-.1 1.2.3 1.3.9zm198.5 45.7c.1.6-.3 1.1-.9 1.2-.6.1-1.2-.3-1.3-.9-.1-.6.3-1.1.9-1.2.6-.1 1.1.3 1.3.9zm-160.9 20c.1.6-.3 1.1-1 1.2-.6.1-1.2-.4-1.3-.9-.1-.6.3-1.1 1-1.2.6-.1 1.1.3 1.3.9zM181.3 57c.1.5-.2 1-.8 1-.6.1-1-.3-1.1-.8-.1-.4.1-.8.5-.9.4-.1 1.3.5 1.4.7zM83.9 70c-.5.1-1-.3-1.1-.7 0-.3.8-1.1 1.1-1 .3.1.7.5.8.8.2.4-.2.9-.8.9zm165.8 48.1.6 1.5-.2.2c-.3-.2-.7-.4-.8-.7-.1-.3.1-.7.1-1h.3zm-204.6 2.1c.1.3.3.7.2 1-.1.3-.4.5-.6.7-.1 0-.1-.1-.2-.1.1-.5.2-1 .4-1.5.1-.1.2-.1.2-.1zm191.8-23.8c.3.5.6.9.9 1.4-1-.1-1.3-.6-.9-1.4z"/><path style="fill:#15238a" d="M192.2 71.8H147l-1.8 1.6-8.9 8-.4.4-.4.6-29.4 40.8-14.3-47.1-1.3-4.3H40.8L39 73.4l-4.1 3.7-4.8 4.3-1.4 1.3-.4 2L3.7 202.8l-1.5 7.3h50.6l1.7-1.5 8.9-8.1 1.5-1.3.4-2 1.9-8.9 5 17.4 1.3 4.4h19.1l1.8-1.5 8.8-8.1.5-.4.4-.6 12-17-4.2 20.3-1.5 7.3h53.2l1-4.8.7-3.2h7.2l1-4.9 24.6-118.1 1.6-7.3z"/><path d="m140.4 85.9 8.9-8 34 8-24.6 118.2h-40.8l11.5-55.3L99.2 196l-8.9 8H78l-16-55.3-9.7 43.4 7.1 3.9-8.9 8H9.6L34.2 85.9l8.9-8 1.8 8h32.2l18.8 61.9 44.5-61.9z" style="fill:#007aff"/><linearGradient id="SVGID_1_" gradientUnits="userSpaceOnUse" x1="206.728" y1="199.284" x2="206.728" y2="127.72" gradientTransform="matrix(1 0 -.2082 1 -72.872 0)"><stop offset="0" style="stop-color:#fff"/><stop offset="1" style="stop-color:#d4faff"/></linearGradient><path d="M149.3 77.9h42.9L167.6 196h-40.8l11.5-55.3L99.2 196H86.9l-16.1-55.3L59.4 196H18.5L43.1 77.9H86l18.8 61.9 44.5-61.9z" style="fill:url(#SVGID_1_)"/><path d="m149.3 77.9-44.5 61.9L86 77.9H43.1L18.5 196h40.8l11.5-55.3L86.9 196h12.3l39.1-55.3-11.6 55.3h40.8l24.6-118.2h-42.8zm16.6 116h-36.6l11-52.8 2-9.7-5.7 8.1L98.1 194h-9.6l-15.6-53.8-2.3-8-1.7 8.1L57.7 194H21L44.7 80h39.7l18.3 60.4 1.2 4 2.4-3.4 43.9-61h39.3l-23.6 113.9z" style="fill:#fff"/><path d="M296.3 128.6v-.4c-3.2-15.5-17.2-27.1-34.8-28.9-.6-.1-1.2-.1-1.9-.2-1.4-.2-3-.4-4.9-.5-4-.3-8.8-.4-14.2-.4-22.1 0-50.4 2.4-60.6 3.6l-4.7.5v.1s-2.7 15.8-2.9 15.8c-2.1 14.2-20 128.6-20 128.6l54.6-4.4 6.6-4.8.6-4.9 1.8-15c3.9-.4 7.8-1 12.1-2 7.4-1.8 19.7-3.9 34.3-13.5 14.6-9.5 25-23.7 30.5-39.3 5-14.9 4.4-27.9 3.5-34.3zm-72 17.4c10.8.9 15.7 6.9 16.8 12.9-3.4 5.3-10.3 10.2-19.8 12.4l3-25.3z" style="fill:#633d00"/><linearGradient id="SVGID_2_" gradientUnits="userSpaceOnUse" x1="223.962" y1="238.266" x2="228.345" y2="103.599"><stop offset="0" style="stop-color:#fbe63b"/><stop offset="1" style="stop-color:#ffc300"/></linearGradient><path d="M240.3 104.1c5 0 9.7.1 13.8.4 2.6.2 4.9.6 6.7.8 14.5 1.5 26.7 10.8 29.5 24.1 2.1 15.3-.4 45.9-31.9 67.2-7 3.8-14.5 6.6-22.3 8.6-7.7 1.7-13.8 2.4-21.7 2.4l-3.5.1-2.9 24.1c-7.6.7-28.9 2.6-47.5 4.4.2-1.7 17.9-114.3 20-128.6 9.3-1 37.7-3.5 59.8-3.5m-26 74.4 3.6-.5c20.8-2.8 32.5-16.3 31.7-27.9-.5-6.5-5.3-13.8-17.5-14.6v-.1c-.8 0-1.5-.1-2.3-.1-2.9 0-5.8.3-8.7.9l-1.9.3-4.9 42" style="fill:url(#SVGID_2_)"/><linearGradient id="SVGID_3_" gradientUnits="userSpaceOnUse" x1="244.171" y1="45.45" x2="244.171" y2="-63.937" gradientTransform="matrix(1.0019 .07323 -.0324 .9957 -17.554 166.054)"><stop offset="0" style="stop-color:#fff;stop-opacity:0"/><stop offset="1" style="stop-color:#fff"/></linearGradient><path d="M170.6 212.9c4.8-30.7 13.3-85.4 16-102.9 15.1-1.5 49.5-4.1 68.8-2.7 1.5.1 2.9.3 4.2.5.8.1 1.6.2 2.3.3 12.4 1.3 22.2 9 24.5 19.4 1.2 9.2 2.5 39.9-29.5 61.6-6.6 3.5-13.6 6.2-20.8 8-7.2 1.6-13 2.3-20.5 2.3l-8.1.2-3 24.4c-8.2.7-22.3 2-36.1 3.3.5-3.7 1.3-8.8 2.2-14.4zm63.1-85.7c-4.2-.2-8.3.1-12.4.9l-5.5 1-6.3 53.1 10.8-1.5c24.8-3.3 37.1-19.7 36.2-33.5-.6-7.5-5.5-16.3-17.3-19.2l-5.5-.8z" style="opacity:.5;fill:url(#SVGID_3_)"/></svg>