<?xml version="1.0" encoding="utf-8"?>
<!-- Generator: Adobe Illustrator 25.2.3, SVG Export Plug-In . SVG Version: 6.00 Build 0)  -->
<svg version="1.1" id="color" xmlns="http://www.w3.org/2000/svg" xmlns:xlink="http://www.w3.org/1999/xlink" x="0px" y="0px"
	 viewBox="0 0 300 300" style="enable-background:new 0 0 300 300;" xml:space="preserve">
<style type="text/css">
	.st0{fill:#6B1009;}
	.st1{fill:#FF2B0A;}
	.st2{fill:#FF5417;}
	.st3{fill:#15238A;}
	.st4{fill:#007AFF;}
	.st5{fill:url(#SVGID_1_);}
	.st6{fill:#FFFFFF;}
	.st7{fill:#633D00;}
	.st8{fill:url(#SVGID_2_);}
	.st9{opacity:0.5;fill:url(#SVGID_3_);}
</style>
<path class="st0" d="M289.7,162.8c0-0.1,0.1-0.3,0.1-0.4c-32.5-13.1-32.3-20.1,1.8-38.9c-12.7-1.9-21.4-4.6-26.4-8.4
	c-11.5-13.9,12.2-40,12.2-40s-0.2,0.2-0.6,0.4c0.3-0.3,0.5-0.6,0.8-0.9c-5.6,1.2-10.2,1.8-14.1,1.8c-18.3,0-29-3.2-21.3-25.4
	c1.2-3.3,2.5-6.7,3.9-10.2c1.6-3.9,3.3-8.1,5.3-12.4c-20.7,14-29.1,14.1-44.5,14.1c-13.7,0-25.3-8.2-28.2-26.1
	c-9.8,15.1-18,22.7-26,22.7c-8.5,0-16.8-8.6-26.6-25.9c-0.9,6.6-2.4,10.3-2.9,12.1c-2.9,8.2-7.2,11.9-12.8,11.9
	c-9.4,0-22.7-10.3-40.1-26.6c0,0.2,0.1,0.4,0.1,0.5l-0.3-0.4c0,0,6.5,21.7-2.4,36.6C64.1,51.2,58.8,53,52,53c-8.5,0-20.1-3-33.3-8.4
	C26.5,55.2,33.2,64.7,38.1,73c7,13.5,10.6,27.8-1.6,33c-3.1,1.1-5.2,2.2-10.1,2.5c26.1,25.3,24.6,35.8-7.6,50.9
	c37.1,10.5,8.6,33-8.5,49.7c42.5-0.2,47.5,19.7,33.2,50.6c-1.7,3.3-4.6,8.2-4.6,8.2s37.8-18,54-17.6c22,0.5,22.5,21.5,22.5,21.5
	s11.8-14.8,23.7-14.5c17-0.2,26.3,22.9,31.4,33.1c5.4-22.4,17.7-35.8,31.2-33.8c14,2.1,28,11.7,28,11.7c-2.9-10.9-2.6-18.8,0.4-24.2
	c3.4-5,10-8.3,21.8-7.6c8.4,0.5,39.1,6.4,39.1,6.4c-15.5-18.5-25.8-36.7-26-51.4C265.9,178.7,273.2,168.1,289.7,162.8z"/>
<path class="st1" d="M77,23.1C92.4,36.6,102.2,42,110.3,42c10.2,0,15.1-8.8,17.7-16.8c8.7,13,16.4,18.7,24.7,18.7
	c7.8,0,15.4-5.2,24.2-16.8c1.9,5,4.6,9.1,8.1,12.2c13.3,11.6,45.2,7.4,57,0.6c-8.2,20.4-8.5,25.3-2.9,34c3.3,5,16.2,7.3,24.5,7.3
	c1.1,0,2.2,0,3.4-0.1c-10.1,13.2-13.2,22.5-10.4,30.1c2.5,6.8,9.5,11.5,22.1,14.6c-0.9,0.5-1.7,0.9-2.5,1.3
	c-11.3,5.9-15.6,13.9-15.3,18.7c0.3,4.8,2.6,15,18,17.4c-8.1,4.8-23.3,16.2-19.1,35.2c1.5,8.9,11.2,30.3,19.5,37.2
	c-11.3-3.2-20.7-4.7-28.5-4.7c-10.6,0-19.2,2.5-23.7,8.4c-3.6,4.7-5.2,10.7-4.5,18.6c-9.1-5.9-16.3-8.2-23.7-8.2
	c-7.2,0.1-14.8,4-20.3,11c-3.3,4.3-8.6,16.6-8.6,16.6s-7-20.8-26.3-24.9c-9.4-2.5-18.3,1.6-24.5,7.4c-4.7-21.9-42.9-17.5-68.6-3
	c9.5-21.7,6.3-32.6,1.5-39.9c-4.3-7.1-17.5-12.4-28.8-13.1C38,190.7,47,181,44.8,171.5c-1.3-5.3-5.8-9.4-14.3-12.8
	c12.4-7,18.3-13.7,19.2-21.5c0.9-7.9-3.6-16.1-14.5-25.9c7.1-1.8,11.8-5,14-9.9c5.2-11-3.8-27.3-17.9-47.4
	c7.9,2.4,14.8,3.6,20.7,3.6c9,0,15.8-2.8,20.1-8.4C76.7,43.4,78.4,34.7,77,23.1"/>
<g>
	<path class="st2" d="M157.3,174.3c-2,1.6-4.2,1.9-6.7,0.9c2,3.1,1.9,5.6-0.2,7.4c-1.9,1.7-4.9,1.8-7.1,0.2c-2.2-1.5-3-4.2-2.1-6.4
		c1.1-2.6,3.5-3.4,7.4-2.6c-1.4-1.6-1.9-3.4-1.4-5.5c-1.8,1.1-3.7,1.3-5.8,0.6c1,1.4,1.4,2.9,1.1,4.4c-0.3,1.5-1.1,2.7-2.5,3.4
		c-2.1,1.2-4.8,0.9-6.7-0.7c-2-1.6-2.6-4.2-1.7-6.3c1.1-2.4,3.3-3.3,6.8-2.8c-0.3-0.8-0.8-1.6-1-2.5c-0.2-0.8-0.1-1.7-0.2-2.6
		c-1.7,0.8-3.5,1-5.5,0.3c1,1.3,1.5,2.7,1.4,4.2c-0.2,1.5-0.9,2.7-2.2,3.6c-2,1.4-4.8,1.2-6.9-0.3c-2-1.5-2.8-4.1-1.8-6.3
		c1.1-2.5,3.3-3.4,7.3-2.7c-1.5-1.8-2-3.8-1.2-6c-1.4,0.9-2.7,1.2-4.3,1c-1.5-0.2-2.8-0.9-3.8-2.1c-1.6-1.9-1.8-4.5-0.4-6.4
		c1.5-2.1,4-2.6,7.3-1.5c-2.2-3.1-2.4-5.3-0.7-7.4c1.3-1.5,3.8-2.8,7.3-1.3c-1.2-1.3-1.9-2.6-1.9-4.1c0-1.5,0.6-2.8,1.7-3.8
		c1.8-1.6,4.5-1.8,6.7-0.5c2.4,1.4,3.4,3.7,2.8,6.6c0.9-0.3,1.9-0.8,2.9-0.9c1-0.1,2.1,0.1,3.1,0.1c-1.6-3-1.4-5.4,0.7-7.2
		c1.9-1.6,4.9-1.7,7.1-0.2c1.9,1.2,3.5,3.9,2.1,7c2.5-1.9,5.2-2.2,7.9-0.1c2.4,1.9,2.8,4.3,1.6,7c1.2-1,2.5-1.6,4-1.6
		c1.5,0,2.9,0.5,4.1,1.5c2,1.7,2.6,4.5,1.3,6.6c-1.4,2.3-3.9,3.1-7.4,2.1c1.7,1.9,2.1,4,1.3,6.3c1.4-1,2.8-1.4,4.5-1.2
		c1.6,0.2,2.9,1,3.9,2.2c1.6,2,1.6,4.6,0,6.5c-1.5,1.8-4.3,2.4-6.6,1.4c-2.7-1.2-3.8-3.3-3.3-7c-2.6,1.5-3.2,1.3-5.5,1.1
		c1.1,1.6,1.3,3.3,0.8,5.3c1.7-1,3.4-1.2,5.2-0.7c1.2,0.4,2.3,1.1,3,2.1c1.5,2,1.5,4.7-0.1,6.5c-1.6,1.8-4.4,2.4-6.8,1.3
		c-2.6-1.2-3.8-3.5-3.2-6.7c-1.7,1.1-3.5,1.4-5.7,0.8c1.2,1.9,1.4,3.8,0.6,5.7c1.3-1,2.7-1.5,4.3-1.3c1.7,0.2,3,0.9,4.1,2.1
		c1.7,2,1.7,4.8,0,6.7c-1.7,1.9-4.7,2.3-7.1,0.9C157.8,180.1,156.1,177.4,157.3,174.3z M167.6,141.5c-1.6,1.4-3.5,1.8-5.5,1.4
		c0.3,0.8,0.7,1.6,0.9,2.4c0.2,0.8,0.1,1.6,0.2,2.4c1.8-0.8,3.6-0.8,5.6,0.1C166.9,145.7,166.6,143.7,167.6,141.5z M128.2,146.2
		c1.8,1.8,2.3,3.7,1.6,6c1.6-1.2,3.4-1.4,5.3-1.1c-1-2-1-2-0.9-4.9C131.1,147.1,131,147.1,128.2,146.2z M141.5,142.1
		c-0.2-0.8-0.5-1.7-0.6-2.5c-0.1-0.8,0.1-1.6,0.2-2.4c-1.9,1.2-3.9,1.4-6,0.4c0.4,0.8,1,1.6,1.3,2.5c0.3,0.9,0.3,1.9,0.4,2.8
		C138.8,142,139.1,141.9,141.5,142.1z M157.8,134.9c-1.7,1.4-3.7,1.8-6.1,1.1c1.3,1.5,1.6,3.1,1.5,4.9c1.6-0.8,3.3-0.9,5.1-0.5
		C157.2,138.5,157.1,136.7,157.8,134.9z M153.2,160.8c-1.4,0.2-2.7,0.3-4.1,0.5c0.6,1.3,0.6,2.6,0.3,4.1c1.6-1,3.2-1.1,5-0.7
		C153.5,163.4,153.2,162.1,153.2,160.8z M143,153.9c-1.3,0-2.6,0.1-4,0.1c0.8,1.3,1,2.7,0.7,4.3c1.3-0.8,2.6-1,3.9-0.9
		C143.5,156.2,143.3,155,143,153.9z M156.9,155.9c1.2-0.5,2.6-0.5,4.1-0.2c-0.9-1.4-1.2-2.8-1-4.1c-1.3,0.2-2.6,0.4-3.8,0.7
		C156.4,153.5,156.7,154.7,156.9,155.9z M150.6,148.3c-0.2-1.1-0.3-2.3-0.5-3.4c-1.2,0.2-2.6,0.3-3.8,0.5c0.2,1.1,0.4,2.3,0.7,3.4
		C148.3,148.6,149.5,148.5,150.6,148.3z"/>
	<path class="st2" d="M145.1,129.4c-3,0.4-5.9-1.7-6.5-4.5c-0.5-2.8,1.5-5.4,4.4-5.8c3-0.4,5.9,1.7,6.5,4.5
		C150.1,126.5,148.1,129.1,145.1,129.4z"/>
	<path class="st2" d="M118.9,163.8c-3,0.4-5.8-1.6-6.4-4.4c-0.5-2.8,1.4-5.4,4.4-5.8c3-0.4,5.8,1.6,6.4,4.4
		C123.8,160.8,121.9,163.4,118.9,163.8z"/>
	<path class="st2" d="M183.1,155.9c-3,0.4-5.8-1.6-6.3-4.5c-0.5-2.8,1.4-5.4,4.4-5.7c3-0.4,5.8,1.6,6.3,4.5
		C188,153,186.1,155.5,183.1,155.9z"/>
	<path class="st2" d="M122.4,139.9c-2.9,0.4-5.8-1.6-6.3-4.4c-0.6-2.8,1.4-5.4,4.4-5.7c2.9-0.3,5.8,1.7,6.3,4.4
		C127.3,136.9,125.3,139.5,122.4,139.9z"/>
	<path class="st2" d="M170.7,134c-2.9,0.4-5.8-1.6-6.3-4.4c-0.6-2.8,1.4-5.4,4.4-5.8c2.9-0.3,5.8,1.7,6.3,4.4
		C175.6,131,173.6,133.6,170.7,134z"/>
	<path class="st2" d="M127,121.1c2.9-0.4,5.7,1.6,6.3,4.3c0.5,2.8-1.4,5.3-4.3,5.7c-2.9,0.4-5.7-1.6-6.3-4.3
		C122.1,124,124,121.5,127,121.1z"/>
	<path class="st2" d="M161.2,127.3c-2.9,0.4-5.7-1.6-6.3-4.4c-0.5-2.8,1.4-5.3,4.3-5.7c2.9-0.4,5.7,1.6,6.3,4.4
		C166,124.4,164.1,126.9,161.2,127.3z"/>
	<path class="st2" d="M155,180.2c2.9-0.3,5.7,1.6,6.2,4.4c0.5,2.8-1.4,5.3-4.3,5.6c-2.9,0.3-5.7-1.6-6.2-4.4
		C150.1,183.1,152.1,180.6,155,180.2z"/>
	<path class="st2" d="M120.1,142.8c0.6,2.8-1.3,5.3-4.2,5.7c-2.9,0.4-5.7-1.5-6.3-4.3c-0.5-2.8,1.3-5.3,4.3-5.6
		C116.8,138.1,119.6,140,120.1,142.8z"/>
	<path class="st2" d="M184.5,134.9c0.5,2.8-1.4,5.2-4.3,5.6c-2.9,0.4-5.7-1.6-6.2-4.4c-0.5-2.8,1.4-5.2,4.3-5.6
		C181.2,130.2,184,132.1,184.5,134.9z"/>
	<path class="st2" d="M135.6,180c0.5,2.7-1.4,5.2-4.3,5.6c-2.9,0.4-5.7-1.6-6.2-4.3c-0.5-2.7,1.4-5.2,4.3-5.6
		C132.3,175.3,135,177.2,135.6,180z"/>
	<path class="st2" d="M179.6,179.7c-2.9,0.4-5.7-1.6-6.2-4.3c-0.5-2.8,1.4-5.3,4.3-5.6c2.9-0.4,5.7,1.6,6.2,4.3
		C184.4,176.8,182.5,179.3,179.6,179.7z"/>
	<path class="st2" d="M184.2,161.1c2.9-0.3,5.6,1.6,6.1,4.3c0.5,2.7-1.4,5.2-4.3,5.6c-2.9,0.3-5.6-1.6-6.1-4.3
		C179.4,164,181.4,161.4,184.2,161.1z"/>
	<path class="st2" d="M121.8,178.9c-2.8,0.4-5.6-1.6-6.2-4.3c-0.5-2.7,1.4-5.2,4.2-5.6c2.8-0.4,5.6,1.6,6.2,4.3
		C126.5,176,124.6,178.6,121.8,178.9z"/>
	<path class="st2" d="M177.2,182.8c0.5,2.7-1.5,5.2-4.3,5.5c-2.9,0.3-5.6-1.7-6.1-4.4c-0.4-2.7,1.5-5.2,4.3-5.4
		C174.1,178.2,176.8,180.1,177.2,182.8z"/>
	<path class="st2" d="M145,186.6c0.5,2.7-1.3,5.2-4.2,5.5c-2.9,0.4-5.6-1.6-6.1-4.3c-0.5-2.7,1.4-5.2,4.2-5.5
		C141.8,182,144.5,183.9,145,186.6z"/>
	<path class="st2" d="M151.5,120.5c-2.8,0.3-5.5-1.6-6-4.3c-0.5-2.7,1.4-5.1,4.2-5.4c2.8-0.3,5.5,1.6,6,4.3
		C156.2,117.7,154.4,120.1,151.5,120.5z"/>
	<path class="st2" d="M139.6,116.9c0.5,2.7-1.4,5.1-4.2,5.4c-2.8,0.3-5.5-1.6-6-4.3c-0.5-2.6,1.4-5.1,4.2-5.4
		C136.4,112.3,139.1,114.2,139.6,116.9z"/>
	<path class="st2" d="M113.4,151.4c0.5,2.6-1.4,5.1-4.1,5.5c-2.8,0.3-5.5-1.5-6-4.2c-0.5-2.6,1.4-5.1,4.1-5.5
		C110.2,146.9,112.9,148.8,113.4,151.4z"/>
	<path class="st2" d="M187.9,137.3c2.8-0.3,5.5,1.6,6,4.2c0.5,2.6-1.4,5.1-4.1,5.4c-2.8,0.3-5.5-1.6-6-4.2
		C183.3,140.1,185.1,137.7,187.9,137.3z"/>
	<path class="st2" d="M112.1,172.1c-2.8,0.3-5.4-1.6-5.9-4.2c-0.5-2.7,1.4-5,4.2-5.3c2.8-0.3,5.4,1.6,5.8,4.2
		C116.7,169.5,114.9,171.8,112.1,172.1z"/>
	<path class="st2" d="M196.7,156.9c0.5,2.7-1.4,5-4.2,5.3c-2.8,0.3-5.4-1.6-5.9-4.3c-0.4-2.6,1.4-5,4.2-5.3
		C193.6,152.4,196.3,154.2,196.7,156.9z"/>
	<path class="st2" d="M170.5,191.4c0.5,2.6-1.3,5-4,5.3c-2.8,0.3-5.4-1.5-5.9-4.1c-0.5-2.6,1.3-4.9,4.1-5.3
		C167.4,186.9,170,188.8,170.5,191.4z"/>
	<path class="st2" d="M154.4,193.2c0.5,2.6-1.3,5-4,5.3c-2.8,0.4-5.4-1.5-5.9-4.1c-0.5-2.6,1.3-5,4-5.3
		C151.2,188.8,153.9,190.7,154.4,193.2z"/>
	<path class="st2" d="M116.8,127.6c0.5,2.6-1.3,4.9-4,5.3c-2.7,0.3-5.4-1.5-5.8-4.1c-0.5-2.6,1.4-4.9,4-5.2
		C113.7,123.2,116.3,125,116.8,127.6z"/>
	<path class="st2" d="M181.2,119.6c0.5,2.6-1.3,4.9-4,5.3c-2.7,0.3-5.4-1.5-5.8-4.1c-0.5-2.6,1.3-4.9,4-5.2
		C178.1,115.3,180.7,117.1,181.2,119.6z"/>
	<path class="st2" d="M171.6,113c0.5,2.6-1.3,4.9-4,5.2c-2.7,0.3-5.3-1.5-5.8-4.1c-0.5-2.6,1.3-4.8,4-5.2
		C168.5,108.7,171.1,110.5,171.6,113z"/>
	<path class="st2" d="M119.3,124.1c-2.7,0.3-5.2-1.5-5.7-4c-0.5-2.6,1.3-4.9,4-5.2c2.7-0.3,5.2,1.5,5.7,4.1
		C123.8,121.5,122,123.8,119.3,124.1z"/>
	<path class="st2" d="M110.2,136.2c0.5,2.6-1.3,4.9-4,5.2c-2.7,0.3-5.2-1.5-5.7-4c-0.5-2.6,1.3-4.9,4-5.2
		C107.1,131.9,109.7,133.7,110.2,136.2z"/>
	<path class="st2" d="M184.9,122.3c2.7-0.3,5.2,1.5,5.7,4c0.5,2.5-1.3,4.8-4,5.1c-2.7,0.3-5.2-1.5-5.7-4
		C180.5,124.9,182.3,122.6,184.9,122.3z"/>
	<path class="st2" d="M140.1,104.4c2.7-0.3,5.2,1.4,5.7,3.9c0.5,2.5-1.2,4.9-3.9,5.2c-2.6,0.3-5.2-1.5-5.7-4
		C135.8,107.1,137.5,104.8,140.1,104.4z"/>
	<path class="st2" d="M193,180.7c0.5,2.5-1.3,4.9-3.9,5.2c-2.6,0.3-5.2-1.5-5.7-4c-0.5-2.5,1.3-4.8,3.9-5.2
		C189.9,176.4,192.5,178.2,193,180.7z"/>
	<path class="st2" d="M124.7,193.8c-2.6,0.3-5.2-1.5-5.7-4c-0.5-2.5,1.3-4.9,3.9-5.2c2.6-0.3,5.2,1.5,5.7,3.9
		C129.1,191.1,127.3,193.5,124.7,193.8z"/>
	<path class="st2" d="M199.5,172.1c0.5,2.5-1.3,4.8-3.9,5.1c-2.6,0.3-5.2-1.5-5.7-4c-0.5-2.5,1.3-4.8,3.9-5.1
		C196.5,167.8,199,169.6,199.5,172.1z"/>
	<path class="st2" d="M119,182c0.5,2.5-1.2,4.8-3.9,5.1c-2.6,0.3-5.1-1.4-5.6-3.9c-0.5-2.5,1.2-4.8,3.9-5.1
		C116,177.8,118.5,179.5,119,182z"/>
	<path class="st2" d="M106.6,160.1c0.5,2.5-1.2,4.8-3.9,5.1c-2.6,0.3-5.1-1.4-5.6-3.9c-0.5-2.5,1.2-4.8,3.9-5.1
		C103.6,155.9,106.1,157.6,106.6,160.1z"/>
	<path class="st2" d="M199.1,153.3c-2.6,0.3-5.2-1.4-5.7-3.9c-0.5-2.5,1.2-4.7,3.8-5.1c2.6-0.3,5.2,1.4,5.7,3.9
		C203.5,150.7,201.8,152.9,199.1,153.3z"/>
	<path class="st2" d="M138.1,195.3c0.5,2.5-1.2,4.7-3.9,5.1c-2.7,0.3-5.1-1.4-5.6-4c-0.5-2.5,1.3-4.7,3.9-5
		C135.1,191.1,137.6,192.8,138.1,195.3z"/>
	<path class="st2" d="M180.7,185.5c2.6-0.3,5.1,1.4,5.6,3.9c0.5,2.5-1.2,4.8-3.9,5.1c-2.6,0.3-5.1-1.4-5.6-3.9
		C176.4,188.1,178.1,185.8,180.7,185.5z"/>
	<path class="st2" d="M156.3,102.5c2.6-0.3,5.1,1.4,5.6,3.9c0.5,2.5-1.3,4.7-3.9,5c-2.6,0.3-5-1.4-5.5-3.9
		C152,105.1,153.7,102.8,156.3,102.5z"/>
	<path class="st2" d="M125.8,115.4c-2.6,0.3-5.1-1.4-5.6-3.9c-0.5-2.5,1.3-4.7,3.9-5c2.6-0.3,5,1.4,5.5,3.9
		C130.2,112.8,128.4,115,125.8,115.4z"/>
	<path class="st2" d="M196.2,137.9c-2.6,0.3-5.1-1.4-5.6-3.9c-0.5-2.4,1.3-4.7,3.8-5c2.5-0.3,5,1.4,5.5,3.8
		C200.5,135.3,198.8,137.6,196.2,137.9z"/>
	<path class="st2" d="M103.5,144.9c0.5,2.4-1.3,4.7-3.8,5c-2.6,0.3-5.1-1.5-5.5-3.9c-0.5-2.4,1.3-4.7,3.8-5
		C100.5,140.7,103,142.4,103.5,144.9z"/>
	<path class="st2" d="M163.6,199.9c0.5,2.4-1.2,4.7-3.8,5c-2.6,0.3-5.1-1.4-5.6-3.9c-0.5-2.4,1.2-4.7,3.8-5
		C160.6,195.7,163.2,197.5,163.6,199.9z"/>
	<path class="st2" d="M105.5,180.4c-2.6,0.3-5-1.4-5.5-3.8c-0.5-2.4,1.2-4.7,3.8-5c2.6-0.3,5,1.4,5.4,3.8
		C109.8,177.9,108.1,180.1,105.5,180.4z"/>
	<path class="st2" d="M205.8,163.5c0.5,2.4-1.2,4.6-3.7,4.9c-2.6,0.3-5-1.4-5.5-3.8c-0.5-2.4,1.2-4.6,3.8-4.9
		C203,159.4,205.4,161.1,205.8,163.5z"/>
	<path class="st2" d="M142,198.2c2.5-0.3,4.9,1.3,5.4,3.7c0.5,2.4-1.2,4.6-3.7,4.9c-2.5,0.3-4.9-1.4-5.4-3.8
		C137.8,200.7,139.5,198.5,142,198.2z"/>
	<path class="st2" d="M174.2,194.3c2.5-0.3,4.9,1.4,5.4,3.8c0.5,2.4-1.2,4.6-3.8,4.9c-2.5,0.3-4.9-1.4-5.4-3.8
		C170.1,196.8,171.7,194.6,174.2,194.3z"/>
	<path class="st2" d="M136,101.7c0.5,2.4-1.1,4.5-3.6,4.8c-2.5,0.3-4.8-1.3-5.3-3.7c-0.5-2.4,1.1-4.5,3.6-4.8
		C133.2,97.7,135.5,99.3,136,101.7z"/>
	<path class="st2" d="M148.4,104.6c-2.5,0.3-4.8-1.4-5.3-3.7c-0.4-2.4,1.2-4.5,3.7-4.8c2.5-0.3,4.8,1.4,5.3,3.7
		C152.5,102.2,150.9,104.3,148.4,104.6z"/>
	<path class="st2" d="M101.5,117.3c2.4-0.3,4.8,1.3,5.2,3.7c0.5,2.3-1.2,4.5-3.7,4.7c-2.4,0.3-4.8-1.4-5.2-3.7
		C97.5,119.7,99.1,117.6,101.5,117.3z"/>
	<path class="st2" d="M182,107.4c2.4-0.3,4.8,1.3,5.2,3.7c0.5,2.4-1.2,4.5-3.7,4.8c-2.4,0.3-4.8-1.4-5.2-3.7
		C177.9,109.8,179.5,107.7,182,107.4z"/>
	<path class="st2" d="M174,109.2c-2.4,0.3-4.8-1.4-5.2-3.7c-0.4-2.3,1.2-4.4,3.6-4.7c2.4-0.3,4.8,1.4,5.2,3.7
		C178.1,106.8,176.4,108.9,174,109.2z"/>
	<path class="st2" d="M209.3,139.6c0.4,2.3-1.2,4.5-3.6,4.7c-2.4,0.3-4.7-1.4-5.2-3.7c-0.4-2.3,1.2-4.5,3.6-4.7
		C206.5,135.7,208.9,137.3,209.3,139.6z"/>
	<path class="st2" d="M96.7,153.6c0.4,2.3-1.2,4.5-3.6,4.7c-2.4,0.3-4.7-1.4-5.2-3.7c-0.4-2.3,1.2-4.5,3.6-4.7
		C93.9,149.6,96.2,151.3,96.7,153.6z"/>
	<path class="st2" d="M113.3,112.4c0.4,2.3-1.2,4.4-3.7,4.7c-2.4,0.3-4.7-1.4-5.2-3.7c-0.4-2.3,1.2-4.4,3.7-4.7
		C110.5,108.5,112.9,110.1,113.3,112.4z"/>
	<path class="st2" d="M208.6,159.6c-2.4,0.3-4.8-1.3-5.2-3.6c-0.5-2.3,1.2-4.4,3.6-4.7c2.4-0.3,4.8,1.3,5.2,3.6
		C212.6,157.1,211,159.3,208.6,159.6z"/>
	<path class="st2" d="M193.2,122.4c-2.4,0.3-4.8-1.4-5.2-3.6c-0.4-2.3,1.2-4.4,3.6-4.7c2.4-0.3,4.8,1.4,5.2,3.6
		C197.2,120,195.6,122.1,193.2,122.4z"/>
	<path class="st2" d="M100.2,129.7c0.4,2.3-1.2,4.4-3.6,4.7c-2.4,0.3-4.8-1.4-5.2-3.6c-0.4-2.3,1.2-4.4,3.6-4.7
		C97.4,125.7,99.8,127.4,100.2,129.7z"/>
	<path class="st2" d="M95.9,173.5c-2.4,0.3-4.8-1.4-5.2-3.7c-0.4-2.3,1.2-4.4,3.6-4.6c2.4-0.3,4.8,1.4,5.2,3.7
		C99.9,171.2,98.3,173.3,95.9,173.5z"/>
	<path class="st2" d="M198.5,192.1c-2.4,0.3-4.7-1.3-5.1-3.6c-0.4-2.3,1.1-4.3,3.5-4.6c2.4-0.3,4.7,1.3,5.1,3.6
		C202.5,189.7,200.9,191.8,198.5,192.1z"/>
	<path class="st2" d="M121.6,197.4c0.4,2.3-1.1,4.3-3.6,4.6c-2.4,0.3-4.6-1.3-5.1-3.6c-0.4-2.3,1.1-4.3,3.6-4.6
		C118.9,193.5,121.1,195.1,121.6,197.4z"/>
	<path class="st2" d="M151.7,205.1c2.4-0.3,4.6,1.3,5.1,3.6c0.4,2.3-1.1,4.3-3.6,4.6c-2.4,0.3-4.6-1.3-5-3.6
		C147.7,207.4,149.3,205.3,151.7,205.1z"/>
	<path class="st2" d="M169.3,211.3c-2.4,0.3-4.6-1.3-5.1-3.6c-0.4-2.2,1.2-4.3,3.6-4.6c2.3-0.3,4.6,1.3,5,3.6
		C173.3,209,171.7,211,169.3,211.3z"/>
	<path class="st2" d="M208.5,178.8c0.4,2.2-1.2,4.3-3.6,4.6c-2.4,0.3-4.6-1.3-5-3.6c-0.4-2.2,1.2-4.3,3.5-4.5
		C205.8,175,208.1,176.6,208.5,178.8z"/>
	<path class="st2" d="M112,190.8c0.4,2.3-1.2,4.3-3.5,4.6c-2.4,0.3-4.6-1.3-5.1-3.6c-0.4-2.2,1.2-4.3,3.5-4.6
		C109.3,186.9,111.6,188.5,112,190.8z"/>
	<path class="st2" d="M191.9,200.7c-2.3,0.3-4.6-1.3-5-3.5c-0.4-2.2,1.2-4.3,3.6-4.6c2.3-0.3,4.6,1.4,5,3.6
		C195.9,198.3,194.3,200.4,191.9,200.7z"/>
	<path class="st2" d="M131.1,204c0.4,2.2-1.2,4.3-3.5,4.6c-2.4,0.3-4.7-1.3-5.1-3.6c-0.4-2.2,1.2-4.3,3.5-4.5
		C128.4,200.2,130.7,201.8,131.1,204z"/>
	<path class="st2" d="M159.4,98.9c-0.4-2.2,1.2-4.3,3.5-4.6c2.4-0.3,4.7,1.3,5.1,3.6c0.4,2.2-1.2,4.3-3.5,4.5
		C162.1,102.7,159.8,101.1,159.4,98.9z"/>
	<path class="st2" d="M114.6,100.2c2.3-0.3,4.6,1.3,5.1,3.5c0.4,2.2-1.2,4.3-3.5,4.6c-2.3,0.3-4.6-1.3-5-3.6
		C110.7,102.5,112.3,100.5,114.6,100.2z"/>
	<path class="st2" d="M90,142.8c-2.3,0.3-4.6-1.3-5-3.5c-0.4-2.2,1.1-4.2,3.4-4.5c2.3-0.3,4.6,1.3,5,3.5
		C93.9,140.5,92.4,142.5,90,142.8z"/>
	<path class="st2" d="M201.1,120.9c2.3-0.3,4.6,1.2,5,3.5c0.4,2.2-1.1,4.2-3.4,4.5c-2.3,0.3-4.6-1.2-5-3.5
		C197.2,123.2,198.8,121.2,201.1,120.9z"/>
	<path class="st2" d="M102.3,184.1c0.4,2.2-1.1,4.2-3.4,4.5c-2.3,0.3-4.5-1.3-4.9-3.4c-0.4-2.2,1.1-4.2,3.4-4.5
		C99.7,180.4,101.9,181.9,102.3,184.1z"/>
	<path class="st2" d="M214.9,170.2c0.4,2.2-1.1,4.2-3.4,4.5c-2.3,0.3-4.5-1.3-4.9-3.4c-0.4-2.2,1.1-4.2,3.4-4.5
		C212.3,166.5,214.5,168,214.9,170.2z"/>
	<path class="st2" d="M138.8,97.7c-2.3,0.3-4.5-1.2-4.9-3.4c-0.4-2.2,1.1-4.2,3.4-4.5c2.3-0.3,4.5,1.3,4.9,3.4
		C142.6,95.4,141.1,97.4,138.8,97.7z"/>
	<path class="st2" d="M185.4,209.1c-2.2,0.3-4.4-1.2-4.9-3.3c-0.4-2.1,1.1-4.2,3.3-4.4c2.3-0.3,4.4,1.3,4.9,3.4
		C189.1,206.9,187.7,208.8,185.4,209.1z"/>
	<path class="st2" d="M140.5,210.7c0.3,2.2-1.2,4.1-3.4,4.3c-2.3,0.2-4.5-1.4-4.8-3.5c-0.3-2.2,1.2-4.1,3.5-4.3
		C138,207,140.1,208.6,140.5,210.7z"/>
	<path class="st2" d="M213.5,142.9c2.3-0.3,4.4,1.2,4.8,3.3c0.4,2.1-1,4.1-3.3,4.3c-2.2,0.3-4.3-1.2-4.8-3.3
		C209.9,145.2,211.3,143.2,213.5,142.9z"/>
	<path class="st2" d="M154.9,95.5c-2.2,0.3-4.4-1.2-4.8-3.3c-0.4-2.1,1.1-4,3.3-4.3c2.2-0.3,4.3,1.2,4.7,3.3
		C158.6,93.3,157.1,95.3,154.9,95.5z"/>
	<path class="st2" d="M126,95.1c0.4,2.1-1.1,4-3.3,4.3c-2.2,0.3-4.4-1.2-4.8-3.4c-0.4-2.1,1.1-4,3.3-4.3
		C123.4,91.5,125.6,93,126,95.1z"/>
	<path class="st2" d="M89.8,162.2c0.4,2.1-1,4.1-3.3,4.3c-2.2,0.3-4.4-1.2-4.8-3.4c-0.4-2.1,1-4,3.3-4.3
		C87.2,158.6,89.3,160.1,89.8,162.2z"/>
	<path class="st2" d="M212.2,135.3c-2.2,0.3-4.4-1.2-4.8-3.3c-0.4-2.1,1-4,3.2-4.3c2.2-0.3,4.4,1.2,4.8,3.3
		C215.8,133,214.4,135,212.2,135.3z"/>
	<path class="st2" d="M86.7,147c0.4,2.1-1.1,4-3.3,4.3c-2.2,0.2-4.3-1.2-4.7-3.3c-0.4-2.1,1.1-4,3.3-4.3
		C84.2,143.4,86.3,144.9,86.7,147z"/>
	<path class="st2" d="M165.9,215.3c0.4,2.1-1,4-3.2,4.3c-2.2,0.3-4.3-1.2-4.7-3.3c-0.4-2.1,1-4,3.2-4.3
		C163.4,211.7,165.5,213.2,165.9,215.3z"/>
	<path class="st2" d="M221.3,161.6c0.4,2.1-1,4-3.3,4.2c-2.2,0.2-4.2-1.2-4.6-3.3c-0.4-2.1,1-4,3.3-4.2
		C218.8,158.1,220.9,159.5,221.3,161.6z"/>
	<path class="st2" d="M96.7,114.4c0.4,2.1-1,3.9-3.1,4.2c-2.2,0.3-4.2-1.1-4.7-3.2c-0.4-2.1,1-3.9,3.1-4.2
		C94.2,110.9,96.3,112.3,96.7,114.4z"/>
	<path class="st2" d="M190,106.7c-2.2,0.3-4.2-1.2-4.6-3.3c-0.4-2.1,1-3.9,3.2-4.2c2.2-0.3,4.2,1.2,4.6,3.3
		C193.6,104.6,192.2,106.4,190,106.7z"/>
	<path class="st2" d="M92.5,177.5c0.4,2.1-1,3.9-3.2,4.2c-2.2,0.3-4.2-1.1-4.6-3.2c-0.4-2.1,1-3.9,3.2-4.2
		C90,174,92.1,175.5,92.5,177.5z"/>
	<path class="st2" d="M180.5,100c-2.2,0.3-4.2-1.2-4.6-3.2c-0.4-2,1-3.9,3.2-4.2c2.2-0.3,4.2,1.2,4.6,3.2
		C184.1,97.9,182.7,99.8,180.5,100z"/>
	<path class="st2" d="M98.6,102.6c2.1-0.3,4.2,1.2,4.6,3.2c0.4,2-1.1,3.9-3.2,4.1c-2.1,0.3-4.2-1.2-4.6-3.2
		C95.1,104.7,96.5,102.8,98.6,102.6z"/>
	<path class="st2" d="M90.1,123.1c0.4,2-1,3.9-3.2,4.2c-2.1,0.3-4.2-1.2-4.6-3.2c-0.4-2,1-3.9,3.2-4.2
		C87.6,119.6,89.7,121.1,90.1,123.1z"/>
	<path class="st2" d="M149.8,217.3c0.4,2-1.1,3.9-3.2,4.1c-2.1,0.2-4.2-1.2-4.5-3.2c-0.4-2,1.1-3.9,3.2-4.1
		C147.3,213.9,149.4,215.3,149.8,217.3z"/>
	<path class="st2" d="M181.9,213.4c0.4,2-1,3.9-3.1,4.2c-2.1,0.3-4.2-1.2-4.6-3.2c-0.4-2,1-3.9,3.1-4.2
		C179.5,210,181.5,211.4,181.9,213.4z"/>
	<path class="st2" d="M198.2,105.9c2.1-0.2,4.2,1.3,4.5,3.3c0.3,2-1.1,3.8-3.2,4.1c-2.1,0.2-4.2-1.3-4.5-3.3
		C194.7,108,196.1,106.1,198.2,105.9z"/>
	<path class="st2" d="M208,198.2c-2.1,0.3-4.1-1.1-4.5-3.1c-0.4-2,0.9-3.8,3-4.1c2.1-0.3,4.1,1.1,4.5,3.1
		C211.4,196.1,210.1,197.9,208,198.2z"/>
	<path class="st2" d="M114.5,206.1c0.4,2-1,3.8-3.1,4.1c-2.1,0.3-4.1-1.1-4.5-3.1c-0.4-2,1-3.8,3.1-4.1
		C112.1,202.7,114.1,204.1,114.5,206.1z"/>
	<path class="st2" d="M170.9,93.3c-2.1,0.3-4.1-1.1-4.4-3.1c-0.4-2,1-3.8,3.1-4c2.1-0.3,4.1,1.1,4.4,3.1
		C174.4,91.2,173,93,170.9,93.3z"/>
	<path class="st2" d="M106.5,101.2c-2.1,0.3-4.1-1.1-4.4-3.1c-0.4-2,1-3.8,3.1-4c2.1-0.3,4.1,1.1,4.4,3.1
		C110,99.1,108.6,100.9,106.5,101.2z"/>
	<path class="st2" d="M104.9,199.4c0.4,2-1,3.8-3,4c-2.1,0.3-4.1-1.1-4.5-3.1c-0.4-2,1-3.8,3-4C102.5,196.1,104.5,197.5,104.9,199.4
		z"/>
	<path class="st2" d="M217.5,185.5c0.4,2-1,3.8-3.1,4c-2.1,0.2-4.1-1.2-4.4-3.1c-0.4-2,1-3.8,3.1-4
		C215.2,182.1,217.2,183.5,217.5,185.5z"/>
	<path class="st2" d="M124,212.7c0.4,1.9-1,3.8-3.1,4c-2,0.2-4-1.2-4.4-3.1c-0.4-1.9,1-3.8,3.1-4C121.6,209.4,123.6,210.8,124,212.7
		z"/>
	<path class="st2" d="M204.4,202.7c0.4,1.9-1,3.8-3.1,4c-2,0.2-4-1.1-4.4-3.1c-0.4-1.9,1-3.8,3.1-4
		C202.1,199.4,204.1,200.8,204.4,202.7z"/>
	<path class="st2" d="M148.3,84.6c0.4,1.9-1,3.8-3.1,4c-2,0.2-4-1.2-4.4-3.1c-0.4-1.9,1-3.8,3.1-4C146,81.3,148,82.7,148.3,84.6z"/>
	<path class="st2" d="M132.2,86.5c0.4,2-1.1,3.8-3.1,4c-2,0.2-4-1.2-4.4-3.1c-0.4-2,1.1-3.8,3.1-4C129.9,83.2,131.9,84.6,132.2,86.5
		z"/>
	<path class="st2" d="M212.1,115.7c0.4,1.9-1,3.7-3,4c-2,0.3-4-1.1-4.4-3c-0.4-1.9,1-3.7,3-4C209.7,112.4,211.7,113.8,212.1,115.7z"
		/>
	<path class="st2" d="M79,128.7c2-0.3,4,1.1,4.4,3c0.4,1.9-1,3.7-3,4c-2,0.3-4-1.1-4.4-3C75.6,130.8,77,128.9,79,128.7z"/>
	<path class="st2" d="M75.5,152.7c2-0.2,3.9,1.1,4.3,3.1c0.3,1.9-1,3.6-3,3.8c-2,0.2-3.9-1.1-4.3-3.1
		C72.2,154.6,73.5,152.9,75.5,152.7z"/>
	<path class="st2" d="M95.2,192.8c0.4,1.9-0.9,3.6-2.9,3.9c-2,0.3-3.9-1.1-4.3-3c-0.4-1.9,0.9-3.6,2.9-3.9
		C92.9,189.6,94.8,190.9,95.2,192.8z"/>
	<path class="st2" d="M221,180.7c-2,0.2-3.9-1.1-4.3-3c-0.4-1.9,1-3.6,3-3.9c2-0.2,3.9,1.1,4.3,3C224.3,178.8,223,180.5,221,180.7z"
		/>
	<path class="st2" d="M224.6,137.7c0.4,1.9-0.9,3.6-2.9,3.9c-2,0.2-3.9-1.1-4.3-3c-0.4-1.9,0.9-3.6,2.9-3.9
		C222.3,134.4,224.2,135.8,224.6,137.7z"/>
	<path class="st2" d="M223.2,150c2-0.2,3.9,1.1,4.3,3c0.4,1.9-1,3.6-2.9,3.9c-2,0.2-3.9-1.1-4.3-3C219.9,152,221.2,150.2,223.2,150z
		"/>
	<path class="st2" d="M82.6,170.9c0.4,1.9-1,3.6-3,3.9c-2,0.2-3.9-1.1-4.3-3c-0.4-1.9,1-3.6,3-3.9C80.4,167.7,82.3,169.1,82.6,170.9
		z"/>
	<path class="st2" d="M133.4,219.4c0.4,1.9-1,3.6-2.9,3.8c-2,0.2-3.9-1.1-4.2-3c-0.4-1.9,1-3.6,2.9-3.8
		C131.1,216.2,133,217.5,133.4,219.4z"/>
	<path class="st2" d="M193.5,208.5c1.9-0.3,3.9,1.1,4.3,2.9c0.4,1.8-0.9,3.6-2.9,3.9c-1.9,0.3-3.9-1.1-4.3-2.9
		C190.2,210.5,191.5,208.7,193.5,208.5z"/>
	<path class="st2" d="M164.2,82.7c0.4,1.9-0.9,3.5-2.9,3.7c-2,0.2-3.8-1.1-4.1-3c-0.3-1.8,0.9-3.5,2.9-3.7
		C162,79.5,163.9,80.8,164.2,82.7z"/>
	<path class="st2" d="M115.9,88.6c0.4,1.9-0.9,3.5-2.9,3.7c-2,0.2-3.8-1.1-4.1-3c-0.3-1.8,0.9-3.5,2.9-3.7
		C113.7,85.4,115.6,86.7,115.9,88.6z"/>
	<path class="st2" d="M159,224c0.4,1.9-0.9,3.5-2.9,3.7c-2,0.2-3.8-1.1-4.1-3c-0.3-1.8,0.9-3.5,2.9-3.7
		C156.8,220.8,158.6,222.1,159,224z"/>
	<path class="st2" d="M170.9,219.2c1.9-0.2,3.8,1,4.1,2.9c0.4,1.9-0.9,3.5-2.9,3.8c-1.9,0.2-3.8-1.1-4.1-2.9
		C167.7,221.1,169,219.4,170.9,219.2z"/>
	<path class="st2" d="M73.8,144.1c-1.9,0.2-3.7-1.1-4.1-2.9c-0.4-1.8,1-3.5,2.9-3.7c1.9-0.2,3.7,1.1,4.1,2.9
		C77,142.2,75.7,143.9,73.8,144.1z"/>
	<path class="st2" d="M218.6,126.1c-1.9,0.2-3.7-1-4.1-2.8c-0.4-1.8,0.9-3.5,2.8-3.8c1.9-0.2,3.7,1.1,4.1,2.9
		C221.8,124.2,220.5,125.9,218.6,126.1z"/>
	<path class="st2" d="M85.4,186.3c0.3,1.8-0.9,3.4-2.8,3.6c-1.9,0.2-3.6-1-4-2.8c-0.3-1.8,0.9-3.4,2.8-3.6
		C83.3,183.2,85.1,184.5,85.4,186.3z"/>
	<path class="st2" d="M226.3,165.5c1.9-0.2,3.7,1,4,2.8c0.3,1.8-0.9,3.3-2.8,3.6c-1.9,0.2-3.7-1-4-2.8
		C223.2,167.3,224.4,165.7,226.3,165.5z"/>
	<path class="st2" d="M188.2,223.7c-1.8,0.2-3.6-1.1-3.9-2.8c-0.3-1.7,1-3.4,2.8-3.5c1.8-0.2,3.6,1.1,3.9,2.8
		C191.3,221.8,190,223.5,188.2,223.7z"/>
	<path class="st2" d="M140,229.6c-1.8,0.2-3.6-1-4-2.7c-0.3-1.7,0.9-3.4,2.7-3.6c1.8-0.2,3.6,1,3.9,2.7
		C143,227.7,141.8,229.3,140,229.6z"/>
	<path class="st2" d="M196.5,97.5c-1.8,0.2-3.6-1-4-2.7c-0.3-1.7,0.9-3.4,2.7-3.6c1.8-0.2,3.6,1,3.9,2.7
		C199.6,95.6,198.3,97.2,196.5,97.5z"/>
	<path class="st2" d="M135.7,81.6c-1.8,0.2-3.6-1-4-2.7c-0.3-1.7,0.9-3.4,2.7-3.6c1.8-0.2,3.6,1,3.9,2.7
		C138.7,79.7,137.5,81.4,135.7,81.6z"/>
	<path class="st2" d="M86.6,107.9c0.3,1.7-0.9,3.4-2.7,3.6c-1.8,0.2-3.6-1.1-3.9-2.8c-0.3-1.7,0.9-3.3,2.7-3.5
		C84.4,104.9,86.2,106.2,86.6,107.9z"/>
	<path class="st2" d="M93.1,99.2c0.3,1.7-0.8,3.3-2.7,3.5c-1.8,0.2-3.6-1-3.9-2.7c-0.3-1.7,0.9-3.3,2.7-3.5
		C91,96.3,92.7,97.5,93.1,99.2z"/>
	<path class="st2" d="M189.6,87.3c0.3,1.7-0.8,3.3-2.7,3.5c-1.8,0.2-3.6-1-3.9-2.7c-0.3-1.7,0.9-3.3,2.7-3.5
		C187.5,84.4,189.3,85.6,189.6,87.3z"/>
	<path class="st2" d="M206,104c-1.8,0.2-3.5-1-3.9-2.7c-0.3-1.7,0.9-3.3,2.7-3.5c1.8-0.2,3.5,1,3.8,2.7
		C209,102.3,207.9,103.8,206,104z"/>
	<path class="st2" d="M77.3,120c-1.8,0.2-3.5-1-3.8-2.7c-0.3-1.7,0.9-3.3,2.7-3.5c1.8-0.2,3.5,1,3.8,2.7
		C80.3,118.3,79.1,119.8,77.3,120z"/>
	<path class="st2" d="M122.2,79.9c0.3,1.7-0.8,3.3-2.6,3.5c-1.8,0.2-3.5-1-3.8-2.6c-0.3-1.7,0.8-3.3,2.6-3.5
		C120.1,77.1,121.8,78.3,122.2,79.9z"/>
	<path class="st2" d="M151.7,79.5c-1.8,0.2-3.5-1-3.8-2.7c-0.3-1.7,0.9-3.2,2.6-3.4c1.8-0.2,3.5,1,3.8,2.7
		C154.7,77.8,153.5,79.3,151.7,79.5z"/>
	<path class="st2" d="M231,147.8c-1.7,0.2-3.5-1-3.8-2.6c-0.3-1.7,0.9-3.2,2.6-3.4c1.7-0.2,3.5,1,3.8,2.6
		C233.9,146,232.7,147.6,231,147.8z"/>
	<path class="st2" d="M70.2,167.8c-1.7,0.2-3.5-1-3.8-2.6c-0.3-1.7,0.9-3.2,2.6-3.4c1.7-0.2,3.5,1,3.8,2.6
		C73.2,166,72,167.6,70.2,167.8z"/>
	<path class="st2" d="M104.7,218.2c-1.7,0.2-3.4-1-3.8-2.6c-0.3-1.7,0.9-3.2,2.6-3.4c1.7-0.2,3.4,1,3.7,2.6
		C107.6,216.5,106.5,218,104.7,218.2z"/>
	<path class="st2" d="M217.4,204.2c-1.7,0.2-3.4-1-3.8-2.6c-0.3-1.7,0.9-3.2,2.6-3.4c1.7-0.2,3.4,1,3.7,2.6
		C220.3,202.5,219.1,204,217.4,204.2z"/>
	<path class="st2" d="M99.4,90.6c0.3,1.7-0.8,3.2-2.5,3.4c-1.8,0.2-3.4-0.9-3.7-2.6c-0.3-1.6,0.8-3.1,2.5-3.3
		C97.4,87.8,99.1,88.9,99.4,90.6z"/>
	<path class="st2" d="M177.4,84c-1.8,0.2-3.4-0.9-3.7-2.6c-0.3-1.7,0.8-3.1,2.6-3.4c1.7-0.2,3.3,0.9,3.7,2.6
		C180.2,82.3,179.1,83.8,177.4,84z"/>
	<path class="st2" d="M226.4,192.2c0.3,1.6-0.8,3.1-2.5,3.3c-1.7,0.2-3.4-0.9-3.7-2.5c-0.3-1.6,0.8-3.1,2.5-3.3
		C224.5,189.4,226.1,190.5,226.4,192.2z"/>
	<path class="st2" d="M95.2,211.5c-1.7,0.2-3.4-0.9-3.7-2.5c-0.3-1.6,0.8-3.1,2.5-3.3c1.7-0.2,3.4,0.9,3.7,2.5
		C98,209.8,96.9,211.3,95.2,211.5z"/>
	<path class="st2" d="M218.1,107.2c0.3,1.7-0.8,3.1-2.5,3.4c-1.7,0.2-3.4-0.9-3.7-2.5c-0.3-1.7,0.8-3.1,2.5-3.4
		C216.1,104.4,217.7,105.5,218.1,107.2z"/>
	<path class="st2" d="M69.7,149.1c0.3,1.6-0.8,3.1-2.5,3.3c-1.7,0.2-3.4-0.9-3.7-2.6c-0.3-1.6,0.8-3.1,2.5-3.3
		C67.8,146.3,69.4,147.4,69.7,149.1z"/>
	<path class="st2" d="M228.1,132.4c-1.7,0.2-3.4-0.9-3.7-2.6c-0.3-1.6,0.8-3.1,2.5-3.3c1.7-0.2,3.4,0.9,3.7,2.6
		C231,130.7,229.8,132.2,228.1,132.4z"/>
	<path class="st2" d="M213.3,209.5c0.3,1.6-0.8,3.1-2.5,3.3c-1.7,0.2-3.3-0.9-3.6-2.5c-0.3-1.6,0.8-3.1,2.5-3.3
		C211.4,206.7,213,207.9,213.3,209.5z"/>
	<path class="st2" d="M113.1,218.9c1.7-0.2,3.4,0.9,3.7,2.5c0.3,1.6-0.8,3.1-2.5,3.3c-1.7,0.2-3.4-0.9-3.7-2.5
		C110.3,220.6,111.4,219.1,113.1,218.9z"/>
	<path class="st2" d="M70.8,128.5c-1.7,0.2-3.4-0.9-3.7-2.5c-0.3-1.6,0.8-3.1,2.5-3.3c1.7-0.2,3.4,0.9,3.7,2.5
		C73.6,126.8,72.4,128.3,70.8,128.5z"/>
	<path class="st2" d="M168.1,230.6c0.3,1.6-0.8,3.1-2.5,3.3c-1.7,0.2-3.3-0.9-3.6-2.5c-0.3-1.6,0.8-3.1,2.5-3.3
		C166.1,227.9,167.7,229.1,168.1,230.6z"/>
	<path class="st2" d="M236.5,159.6c0.3,1.6-0.8,3.1-2.5,3.3c-1.7,0.2-3.3-0.9-3.7-2.5c-0.3-1.6,0.8-3.1,2.5-3.3
		C234.5,156.9,236.2,158,236.5,159.6z"/>
	<path class="st2" d="M73.1,182.9c-1.7,0.2-3.3-1-3.6-2.6c-0.3-1.6,0.9-3.1,2.5-3.3c1.7-0.2,3.3,1,3.6,2.6
		C75.9,181.3,74.7,182.8,73.1,182.9z"/>
	<path class="st2" d="M85.6,204.7c-1.7,0.2-3.2-0.9-3.5-2.5c-0.3-1.6,0.8-3,2.5-3.1c1.7-0.2,3.2,0.9,3.5,2.5
		C88.3,203.2,87.2,204.6,85.6,204.7z"/>
	<path class="st2" d="M184.1,228.8c0.3,1.6-0.8,3-2.4,3.2c-1.7,0.2-3.2-0.9-3.5-2.5c-0.3-1.6,0.8-3,2.4-3.2
		C182.2,226.1,183.8,227.2,184.1,228.8z"/>
	<path class="st2" d="M232.9,183.6c0.3,1.6-0.8,3-2.5,3.1c-1.7,0.2-3.2-0.9-3.5-2.5c-0.3-1.6,0.8-3,2.5-3.1
		C231,180.9,232.6,182,232.9,183.6z"/>
	<path class="st2" d="M148.4,230.2c1.7-0.2,3.2,0.9,3.5,2.5c0.3,1.6-0.8,3-2.4,3.2c-1.7,0.2-3.2-0.9-3.5-2.5
		C145.6,231.8,146.7,230.4,148.4,230.2z"/>
	<path class="st2" d="M126.2,228c0.3,1.5-0.8,3-2.4,3.2c-1.6,0.2-3.2-0.9-3.5-2.4c-0.3-1.5,0.8-2.9,2.3-3.1
		C124.3,225.4,125.9,226.5,126.2,228z"/>
	<path class="st2" d="M166.7,71.7c1.6-0.2,3.2,0.9,3.5,2.5c0.3,1.5-0.8,3-2.4,3.1c-1.6,0.2-3.1-0.9-3.4-2.4
		C164,73.3,165.1,71.8,166.7,71.7z"/>
	<path class="st2" d="M206.7,218.1c0.3,1.5-0.8,3-2.4,3.1c-1.6,0.2-3.2-1-3.5-2.5c-0.3-1.5,0.8-2.9,2.4-3.1
		C204.8,215.5,206.4,216.6,206.7,218.1z"/>
	<path class="st2" d="M102.3,79.6c1.6-0.2,3.2,0.9,3.5,2.4c0.3,1.5-0.7,2.9-2.3,3.1c-1.6,0.2-3.2-0.9-3.5-2.4
		C99.6,81.3,100.7,79.8,102.3,79.6z"/>
	<path class="st2" d="M225.1,116.9c-1.6,0.2-3.1-0.8-3.4-2.3c-0.3-1.5,0.7-2.9,2.3-3.1c1.6-0.2,3,0.8,3.3,2.3
		C227.7,115.3,226.7,116.7,225.1,116.9z"/>
	<path class="st2" d="M64.1,136.9c-1.6,0.2-3.1-0.9-3.3-2.4c-0.3-1.5,0.8-2.8,2.4-3c1.6-0.2,3,0.9,3.3,2.4
		C66.7,135.4,65.7,136.7,64.1,136.9z"/>
	<path class="st2" d="M141,67.2c1.5-0.2,3.1,0.9,3.3,2.3c0.3,1.4-0.7,2.8-2.3,3c-1.5,0.2-3.1-0.9-3.3-2.3
		C138.5,68.7,139.5,67.4,141,67.2z"/>
	<path class="st2" d="M128.3,71.5c0.3,1.4-0.7,2.8-2.3,3c-1.5,0.2-3-0.8-3.3-2.3c-0.3-1.4,0.7-2.8,2.3-3C126.5,69,128,70,128.3,71.5
		z"/>
	<path class="st2" d="M239.2,174.9c0.3,1.4-0.7,2.8-2.3,3c-1.5,0.2-3-0.9-3.3-2.3c-0.3-1.4,0.7-2.7,2.2-2.9
		C237.4,172.5,238.9,173.5,239.2,174.9z"/>
	<path class="st2" d="M75,192.7c1.5-0.2,2.9,0.8,3.2,2.2c0.3,1.4-0.7,2.7-2.2,2.9c-1.5,0.2-2.9-0.8-3.2-2.2
		C72.5,194.2,73.5,192.9,75,192.7z"/>
	<path class="st2" d="M236.5,133.6c1.5-0.2,2.9,0.9,3.2,2.2c0.2,1.4-0.8,2.7-2.2,2.8c-1.4,0.1-2.8-0.9-3.1-2.2
		C234,135,235,133.7,236.5,133.6z"/>
	<path class="st2" d="M133.3,237.6c-1.5,0.2-2.9-0.9-3.1-2.3c-0.2-1.4,0.8-2.7,2.2-2.8c1.4-0.1,2.8,0.9,3.1,2.2
		C135.7,236.1,134.7,237.4,133.3,237.6z"/>
	<path class="st2" d="M199.9,226.8c0.3,1.4-0.7,2.7-2.2,2.9c-1.5,0.2-2.9-0.9-3.1-2.3c-0.2-1.4,0.7-2.6,2.2-2.8
		C198.2,224.4,199.6,225.4,199.9,226.8z"/>
	<path class="st2" d="M242.6,151.1c0.2,1.4-0.7,2.7-2.2,2.8c-1.4,0.2-2.9-0.8-3.1-2.2c-0.2-1.4,0.7-2.7,2.2-2.8
		C240.9,148.7,242.4,149.7,242.6,151.1z"/>
	<path class="st2" d="M62.7,157.8c0.3,1.4-0.7,2.7-2.2,2.8c-1.4,0.2-2.9-0.8-3.1-2.2c-0.3-1.4,0.7-2.7,2.2-2.8
		C61,155.4,62.5,156.4,62.7,157.8z"/>
	<path class="st2" d="M65.6,173.1c0.3,1.4-0.7,2.6-2.1,2.8c-1.5,0.2-2.8-0.8-3.1-2.1c-0.3-1.4,0.7-2.6,2.1-2.8
		C63.9,170.8,65.3,171.7,65.6,173.1z"/>
	<path class="st2" d="M201.9,83.3c1.4-0.2,2.8,0.8,3.1,2.1c0.3,1.3-0.7,2.5-2.1,2.7c-1.4,0.2-2.8-0.8-3.1-2.1
		C199.6,84.6,200.5,83.4,201.9,83.3z"/>
	<path class="st2" d="M74.2,104.1c-1.4,0.2-2.8-0.8-3.1-2.1c-0.3-1.3,0.7-2.5,2.1-2.7c1.4-0.2,2.8,0.8,3.1,2.1
		C76.5,102.7,75.6,103.9,74.2,104.1z"/>
	<path class="st2" d="M157.2,65.4c1.5-0.2,2.8,0.7,3.1,2.1c0.3,1.3-0.6,2.6-2.1,2.7c-1.5,0.2-2.8-0.7-3.1-2.1
		C154.9,66.8,155.8,65.6,157.2,65.4z"/>
	<path class="st2" d="M111.9,73.4c0.3,1.3-0.7,2.6-2.1,2.7c-1.4,0.2-2.8-0.8-3-2.1c-0.2-1.3,0.7-2.5,2.1-2.7
		C110.3,71.1,111.7,72.1,111.9,73.4z"/>
	<path class="st2" d="M195.4,78.7c0.3,1.3-0.7,2.6-2.1,2.7c-1.4,0.2-2.8-0.8-3-2.1c-0.2-1.3,0.7-2.5,2.1-2.7
		C193.8,76.5,195.1,77.4,195.4,78.7z"/>
	<path class="st2" d="M82.8,92.7c0.3,1.3-0.7,2.6-2.1,2.7c-1.4,0.2-2.8-0.8-3-2.1c-0.2-1.3,0.7-2.5,2.1-2.7
		C81.1,90.4,82.5,91.4,82.8,92.7z"/>
	<path class="st2" d="M69.7,110c0.2,1.3-0.7,2.5-2.1,2.7c-1.4,0.2-2.7-0.8-3-2.1c-0.2-1.3,0.7-2.5,2.1-2.7
		C68.1,107.8,69.4,108.7,69.7,110z"/>
	<path class="st2" d="M211.5,89.9c1.4-0.2,2.7,0.8,3,2c0.3,1.3-0.7,2.5-2,2.7c-1.4,0.2-2.7-0.8-3-2
		C209.2,91.4,210.1,90.1,211.5,89.9z"/>
	<path class="st2" d="M158.9,242c-1.4,0.2-2.7-0.7-2.9-2c-0.3-1.3,0.6-2.5,2-2.7c1.4-0.1,2.7,0.8,2.9,2.1
		C161.2,240.7,160.3,241.8,158.9,242z"/>
	<path class="st2" d="M175,240.1c-1.4,0.2-2.7-0.7-2.9-2c-0.3-1.3,0.6-2.5,2-2.7c1.4-0.1,2.7,0.8,2.9,2.1
		C177.3,238.8,176.4,240,175,240.1z"/>
	<path class="st2" d="M236.5,120.5c0.3,1.3-0.6,2.5-2,2.6c-1.4,0.2-2.6-0.7-2.9-2c-0.3-1.3,0.6-2.5,2-2.6
		C235,118.4,236.2,119.2,236.5,120.5z"/>
	<path class="st2" d="M59.5,142.5c0.3,1.3-0.6,2.5-2,2.6c-1.3,0.2-2.6-0.7-2.9-2c-0.3-1.3,0.6-2.5,2-2.6
		C58,140.4,59.3,141.3,59.5,142.5z"/>
	<path class="st2" d="M225.9,205.6c1.3-0.2,2.6,0.7,2.9,2c0.2,1.2-0.6,2.4-1.9,2.6c-1.3,0.2-2.5-0.7-2.8-1.9
		C223.7,207,224.6,205.8,225.9,205.6z"/>
	<path class="st2" d="M182.9,70.2c1.3-0.2,2.6,0.7,2.9,2c0.2,1.2-0.7,2.4-2,2.6c-1.3,0.1-2.5-0.7-2.8-1.9
		C180.7,71.5,181.6,70.3,182.9,70.2z"/>
	<path class="st2" d="M89.2,84.1c0.2,1.2-0.7,2.4-2,2.5c-1.3,0.1-2.6-0.8-2.8-2.1c-0.2-1.2,0.7-2.4,2-2.5C87.7,82,89,82.9,89.2,84.1
		z"/>
	<path class="st2" d="M245.3,166.4c0.2,1.2-0.7,2.4-2,2.6c-1.3,0.1-2.6-0.8-2.8-2c-0.2-1.2,0.7-2.4,1.9-2.5
		C243.8,164.2,245.1,165.1,245.3,166.4z"/>
	<path class="st2" d="M68.4,188.4c0.2,1.2-0.7,2.4-2,2.5c-1.3,0.1-2.6-0.8-2.8-2c-0.2-1.2,0.7-2.4,2-2.5
		C66.8,186.3,68.1,187.2,68.4,188.4z"/>
	<path class="st2" d="M100,223.5c0.3,1.2-0.6,2.4-1.9,2.5c-1.3,0.2-2.5-0.7-2.8-1.9c-0.3-1.2,0.6-2.4,1.9-2.5
		C98.5,221.4,99.7,222.3,100,223.5z"/>
	<path class="st2" d="M219.2,99.2c-0.2-1.2,0.6-2.3,1.9-2.4c1.3-0.2,2.5,0.7,2.7,2c0.2,1.2-0.6,2.3-1.9,2.4
		C220.6,101.3,219.4,100.4,219.2,99.2z"/>
	<path class="st2" d="M62.9,118.6c0.3,1.2-0.5,2.3-1.8,2.5c-1.3,0.2-2.5-0.7-2.8-1.9c-0.2-1.2,0.6-2.3,1.9-2.5
		C61.5,116.6,62.6,117.4,62.9,118.6z"/>
	<path class="st2" d="M87.7,215c1.3-0.2,2.5,0.7,2.7,1.9c0.2,1.2-0.6,2.3-1.9,2.5c-1.3,0.1-2.4-0.7-2.7-1.9
		C85.5,216.2,86.4,215.2,87.7,215z"/>
	<path class="st2" d="M232.5,197c1.3-0.1,2.5,0.7,2.7,1.9c0.2,1.2-0.6,2.3-1.9,2.5c-1.3,0.1-2.4-0.7-2.7-2
		C230.4,198.2,231.2,197.2,232.5,197z"/>
	<path class="st2" d="M107.6,232.6c-1.3,0.2-2.5-0.7-2.7-1.9c-0.2-1.2,0.6-2.3,1.8-2.4c1.3-0.2,2.5,0.7,2.7,1.9
		C109.7,231.3,108.9,232.4,107.6,232.6z"/>
	<path class="st2" d="M220.3,218.6c-1.3,0.2-2.5-0.7-2.7-1.9c-0.2-1.2,0.6-2.3,1.8-2.4c1.3-0.2,2.5,0.7,2.7,1.9
		C222.3,217.4,221.5,218.5,220.3,218.6z"/>
	<path class="st2" d="M144.6,241.4c0.2,1.2-0.6,2.3-1.9,2.5c-1.2,0.1-2.4-0.7-2.7-1.9c-0.2-1.2,0.6-2.3,1.9-2.5
		C143.2,239.4,144.4,240.2,144.6,241.4z"/>
	<path class="st2" d="M192.9,235.5c0.2,1.2-0.6,2.3-1.9,2.4c-1.2,0.1-2.4-0.7-2.6-1.9c-0.2-1.2,0.6-2.3,1.9-2.4
		C191.5,233.5,192.7,234.3,192.9,235.5z"/>
	<path class="st2" d="M131.6,61.2c1.2-0.2,2.3,0.6,2.6,1.8c0.2,1.1-0.6,2.2-1.8,2.3c-1.2,0.1-2.3-0.6-2.5-1.7
		C129.7,62.4,130.4,61.3,131.6,61.2z"/>
	<path class="st2" d="M78.9,212.6c-1.2,0.1-2.3-0.7-2.5-1.8c-0.2-1.1,0.6-2.2,1.8-2.3c1.2-0.1,2.3,0.7,2.5,1.8
		C80.9,211.4,80.1,212.5,78.9,212.6z"/>
	<path class="st2" d="M241.6,190.3c0.2,1.1-0.6,2.2-1.8,2.3c-1.2,0.1-2.3-0.7-2.5-1.8c-0.2-1.1,0.6-2.1,1.8-2.3
		C240.2,188.4,241.4,189.2,241.6,190.3z"/>
	<path class="st2" d="M175.9,65.5c0.2,1.1-0.5,2.1-1.7,2.3c-1.1,0.2-2.3-0.6-2.5-1.7c-0.2-1.1,0.5-2.1,1.7-2.3
		C174.5,63.7,175.6,64.4,175.9,65.5z"/>
	<path class="st2" d="M116.3,235.1c1.1-0.1,2.3,0.6,2.5,1.7c0.2,1.1-0.6,2.1-1.7,2.2c-1.1,0.1-2.3-0.6-2.5-1.7
		C114.4,236.3,115.2,235.2,116.3,235.1z"/>
	<path class="st2" d="M215.4,224.9c0.2,1.1-0.6,2.1-1.7,2.2c-1.1,0.1-2.3-0.7-2.5-1.7c-0.2-1.1,0.6-2.1,1.7-2.2
		C214,223,215.2,223.8,215.4,224.9z"/>
	<path class="st2" d="M95.4,75.5c0.2,1.1-0.5,2.1-1.7,2.3c-1.1,0.2-2.3-0.6-2.5-1.7c-0.2-1.1,0.5-2.1,1.7-2.3
		C94,73.6,95.2,74.4,95.4,75.5z"/>
	<path class="st2" d="M147.8,59.3c1.1-0.1,2.2,0.6,2.4,1.7c0.2,1.1-0.5,2-1.7,2.2c-1.1,0.1-2.2-0.6-2.4-1.7
		C145.9,60.3,146.6,59.4,147.8,59.3z"/>
	<path class="st2" d="M115.6,63.2c1.1-0.1,2.2,0.6,2.4,1.7c0.2,1.1-0.5,2-1.7,2.2c-1.1,0.1-2.2-0.6-2.4-1.7
		C113.7,64.2,114.4,63.3,115.6,63.2z"/>
	<path class="st2" d="M55.6,166.5c0.2,1-0.5,2-1.6,2.1c-1.1,0.1-2.2-0.6-2.4-1.7c-0.2-1,0.6-2,1.7-2.1
		C54.3,164.7,55.4,165.5,55.6,166.5z"/>
	<path class="st2" d="M230.7,103.7c1.1-0.1,2.2,0.7,2.3,1.7c0.2,1.1-0.6,2-1.7,2.1c-1.1,0.1-2.1-0.7-2.3-1.7
		C228.9,104.7,229.6,103.8,230.7,103.7z"/>
	<path class="st2" d="M54.5,129.5c-1.1,0.1-2.2-0.6-2.4-1.6c-0.2-1.1,0.5-2.1,1.6-2.2c1.1-0.1,2.2,0.6,2.4,1.7
		C56.3,128.4,55.6,129.3,54.5,129.5z"/>
	<path class="st2" d="M248.5,142.5c0.2,1-0.5,2-1.6,2.2c-1.1,0.2-2.2-0.6-2.4-1.7c-0.2-1,0.5-2,1.6-2.1
		C247.2,140.7,248.3,141.4,248.5,142.5z"/>
	<path class="st2" d="M52.4,151.3c0.2,1-0.5,1.9-1.5,2c-1.1,0.1-2.1-0.6-2.3-1.6c-0.2-1,0.5-1.9,1.6-2
		C51.2,149.6,52.2,150.3,52.4,151.3z"/>
	<path class="st2" d="M243.3,125.7c1-0.1,2,0.6,2.2,1.6c0.2,1-0.5,1.9-1.6,2c-1,0.1-2-0.6-2.2-1.6
		C241.6,126.7,242.3,125.8,243.3,125.7z"/>
	<path class="st2" d="M251.3,157.8c0.2,0.9-0.5,1.9-1.5,2c-1,0.2-2.1-0.6-2.2-1.5c-0.2-0.9,0.5-1.8,1.5-2
		C250.1,156.1,251.1,156.8,251.3,157.8z"/>
	<path class="st2" d="M67.1,204.1c-0.1-0.9,0.6-1.8,1.5-1.9c1-0.1,2,0.7,2.2,1.6c0.1,1-0.6,1.8-1.6,1.9
		C68.2,205.8,67.3,205.1,67.1,204.1z"/>
	<path class="st2" d="M245.6,180.2c1-0.1,2,0.6,2.2,1.5c0.2,1-0.5,1.9-1.5,2c-1,0.1-2-0.6-2.2-1.5
		C243.9,181.2,244.6,180.3,245.6,180.2z"/>
	<path class="st2" d="M58.2,181.9c0.2,0.9-0.5,1.8-1.5,1.9c-1,0.1-2-0.6-2.1-1.5c-0.2-0.9,0.5-1.8,1.5-1.9
		C57.1,180.2,58,180.9,58.2,181.9z"/>
	<path class="st2" d="M169.8,246.1c0.2,0.9-0.5,1.8-1.5,1.9c-1,0.1-2-0.5-2.1-1.5c-0.2-0.9,0.5-1.8,1.5-1.9
		C168.7,244.5,169.6,245.1,169.8,246.1z"/>
	<path class="st2" d="M208.5,233.5c0.2,0.9-0.4,1.7-1.4,1.9c-1,0.1-1.9-0.5-2.1-1.5c-0.2-0.9,0.5-1.7,1.4-1.9
		C207.4,232,208.3,232.6,208.5,233.5z"/>
	<path class="st2" d="M126.6,245.4c-1,0.1-1.9-0.5-2-1.5c-0.2-0.9,0.5-1.8,1.5-1.9c1-0.1,1.9,0.6,2,1.5
		C128.2,244.4,127.5,245.3,126.6,245.4z"/>
	<path class="st2" d="M165.9,59c0.2,0.9-0.4,1.7-1.4,1.8c-0.9,0.1-1.8-0.5-1.9-1.4c-0.1-0.9,0.4-1.6,1.3-1.7
		C164.8,57.5,165.7,58.1,165.9,59z"/>
	<path class="st2" d="M101.5,66.9c0.2,0.9-0.4,1.7-1.4,1.8c-0.9,0.1-1.8-0.5-1.9-1.4c-0.2-0.9,0.4-1.6,1.3-1.7
		C100.5,65.4,101.3,66,101.5,66.9z"/>
	<path class="st2" d="M242.1,112c0.2,0.8-0.4,1.5-1.2,1.6c-0.9,0.1-1.6-0.4-1.8-1.3c-0.1-0.8,0.4-1.5,1.2-1.6
		C241.2,110.7,241.9,111.2,242.1,112z"/>
	<path class="st2" d="M47.8,137.6c-0.8,0.1-1.6-0.4-1.8-1.2c-0.2-0.8,0.4-1.5,1.3-1.6c0.8-0.1,1.6,0.5,1.7,1.3
		C49.2,136.9,48.6,137.5,47.8,137.6z"/>
	<path class="st2" d="M208.7,75.6c0.8-0.1,1.6,0.4,1.8,1.2c0.2,0.8-0.4,1.5-1.2,1.6c-0.8,0.1-1.6-0.5-1.7-1.3
		C207.3,76.4,207.8,75.7,208.7,75.6z"/>
	<path class="st2" d="M63.9,93.6c0.8-0.1,1.6,0.4,1.7,1.2c0.2,0.8-0.4,1.5-1.3,1.6c-0.8,0.1-1.6-0.5-1.7-1.3
		C62.5,94.4,63,93.7,63.9,93.6z"/>
	<path class="st2" d="M70.4,85c0.8-0.1,1.6,0.5,1.7,1.2c0.1,0.7-0.4,1.5-1.2,1.5c-0.8,0.1-1.6-0.5-1.7-1.2
		C69.1,85.8,69.6,85.1,70.4,85z"/>
	<path class="st2" d="M218.8,85.1c-0.8,0.1-1.6-0.5-1.7-1.2c-0.1-0.7,0.4-1.5,1.2-1.6c0.8-0.1,1.6,0.5,1.7,1.2
		C220.1,84.2,219.5,85,218.8,85.1z"/>
	<path class="st2" d="M59,103.5c0.2,0.7-0.4,1.5-1.2,1.6c-0.8,0.1-1.6-0.4-1.7-1.2c-0.2-0.7,0.4-1.5,1.2-1.6
		C58.1,102.2,58.9,102.7,59,103.5z"/>
	<path class="st2" d="M199.1,69c0.8-0.1,1.6,0.4,1.7,1.2c0.2,0.7-0.4,1.5-1.2,1.6c-0.8,0.1-1.6-0.4-1.7-1.2
		C197.8,69.9,198.3,69.1,199.1,69z"/>
	<path class="st2" d="M253.9,173.1c0.1,0.8-0.4,1.4-1.2,1.5c-0.8,0.1-1.5-0.4-1.6-1.1c-0.1-0.8,0.4-1.4,1.2-1.5
		C253.1,171.9,253.7,172.4,253.9,173.1z"/>
	<path class="st2" d="M60.8,197.1c0.2,0.8-0.3,1.4-1.1,1.5c-0.8,0.1-1.5-0.4-1.6-1.1c-0.2-0.8,0.3-1.4,1.1-1.5
		C60,195.9,60.7,196.4,60.8,197.1z"/>
	<path class="st2" d="M122.2,55.3c0.7-0.1,1.4,0.4,1.6,1.1c0.2,0.7-0.4,1.4-1.1,1.5c-0.7,0.1-1.4-0.4-1.6-1.1
		C121,56.1,121.5,55.4,122.2,55.3z"/>
	<path class="st2" d="M138.4,53.3c0.7-0.1,1.4,0.4,1.6,1.1c0.1,0.7-0.4,1.4-1.1,1.4c-0.7,0.1-1.4-0.5-1.5-1.1
		C137.1,54,137.6,53.4,138.4,53.3z"/>
	<path class="st2" d="M77.4,79c-0.7,0.1-1.4-0.4-1.5-1.1c-0.1-0.7,0.4-1.3,1.1-1.3c0.7-0.1,1.3,0.4,1.4,1.1
		C78.6,78.3,78.1,78.9,77.4,79z"/>
	<path class="st2" d="M191.1,63.6c0.1,0.7-0.3,1.3-1,1.4c-0.7,0.1-1.4-0.4-1.5-1c-0.1-0.7,0.3-1.2,1-1.3
		C190.3,62.5,191,62.9,191.1,63.6z"/>
	<path class="st2" d="M236.1,215.6c-0.7,0.1-1.3-0.4-1.4-1c-0.1-0.6,0.4-1.2,1-1.3c0.7,0,1.3,0.4,1.4,1
		C237.2,215,236.7,215.5,236.1,215.6z"/>
	<path class="st2" d="M227.8,89.2c0.7-0.1,1.3,0.4,1.4,1c0.1,0.6-0.3,1.2-1,1.3c-0.7,0.1-1.3-0.4-1.4-1
		C226.7,89.8,227.2,89.2,227.8,89.2z"/>
	<path class="st2" d="M51.3,113.5c-0.6,0.1-1.3-0.3-1.5-0.9c-0.2-0.6,0.3-1.3,1-1.3c0.7-0.1,1.3,0.4,1.4,1
		C52.4,112.8,52,113.4,51.3,113.5z"/>
	<path class="st2" d="M254.2,134c0.1,0.6-0.3,1.1-0.9,1.2c-0.6,0.1-1.2-0.3-1.3-0.9c-0.1-0.6,0.3-1.1,0.9-1.2
		C253.5,133,254,133.4,254.2,134z"/>
	<path class="st2" d="M256.3,150.4c-0.6,0.1-1.2-0.3-1.3-0.9c-0.1-0.6,0.3-1.2,0.9-1.2c0.6-0.1,1.2,0.3,1.3,0.9
		C257.3,149.8,256.9,150.4,256.3,150.4z"/>
	<path class="st2" d="M48,175.3c0.1,0.6-0.3,1.1-1,1.2c-0.6,0-1.2-0.4-1.3-1c-0.1-0.6,0.3-1.1,1-1.2C47.3,174.3,47.9,174.7,48,175.3
		z"/>
	<path class="st2" d="M45.1,160c0.1,0.6-0.3,1.1-1,1.2c-0.6,0.1-1.2-0.4-1.3-0.9c-0.1-0.6,0.3-1.1,1-1.2C44.4,159,45,159.4,45.1,160
		z"/>
	<path class="st2" d="M243.6,205.7c0.1,0.6-0.3,1.1-0.9,1.2c-0.6,0.1-1.2-0.3-1.3-0.9c-0.1-0.6,0.3-1.1,0.9-1.2
		C242.9,204.7,243.4,205.1,243.6,205.7z"/>
	<path class="st2" d="M82.7,225.7c0.1,0.6-0.3,1.1-1,1.2c-0.6,0.1-1.2-0.4-1.3-0.9c-0.1-0.6,0.3-1.1,1-1.2
		C82,224.7,82.5,225.1,82.7,225.7z"/>
	<path class="st2" d="M181.3,57c0.1,0.5-0.2,1-0.8,1c-0.6,0.1-1-0.3-1.1-0.8c-0.1-0.4,0.1-0.8,0.5-0.9
		C180.3,56.2,181.2,56.8,181.3,57z"/>
	<path class="st2" d="M83.9,70c-0.5,0.1-1-0.3-1.1-0.7c0-0.3,0.8-1.1,1.1-1c0.3,0.1,0.7,0.5,0.8,0.8C84.9,69.5,84.5,70,83.9,70z"/>
	<path class="st2" d="M249.7,118.1c0.2,0.5,0.4,1,0.6,1.5c-0.1,0.1-0.1,0.1-0.2,0.2c-0.3-0.2-0.7-0.4-0.8-0.7
		c-0.1-0.3,0.1-0.7,0.1-1C249.5,118.1,249.6,118.1,249.7,118.1z"/>
	<path class="st2" d="M45.1,120.2c0.1,0.3,0.3,0.7,0.2,1c-0.1,0.3-0.4,0.5-0.6,0.7c-0.1,0-0.1-0.1-0.2-0.1c0.1-0.5,0.2-1,0.4-1.5
		C45,120.2,45.1,120.2,45.1,120.2z"/>
	<path class="st2" d="M236.9,96.4c0.3,0.5,0.6,0.9,0.9,1.4C236.8,97.7,236.5,97.2,236.9,96.4z"/>
</g>
<g>
	<polygon class="st3" points="192.2,71.8 149.3,71.8 147,71.8 145.2,73.4 136.3,81.4 135.9,81.8 135.5,82.4 106.1,123.2 91.8,76.1 
		90.5,71.8 86,71.8 43.1,71.8 40.8,71.8 39,73.4 34.9,77.1 30.1,81.4 28.7,82.7 28.3,84.7 3.7,202.8 2.2,210.1 9.6,210.1 
		50.5,210.1 52.8,210.1 54.5,208.6 63.4,200.5 64.9,199.2 65.3,197.2 67.2,188.3 72.2,205.7 73.5,210.1 78,210.1 90.3,210.1 
		92.6,210.1 94.4,208.6 103.2,200.5 103.7,200.1 104.1,199.5 116.1,182.5 111.9,202.8 110.4,210.1 117.9,210.1 158.7,210.1 
		163.6,210.1 164.6,205.3 165.3,202.1 167.6,202.1 172.5,202.1 173.5,197.2 198.1,79.1 199.7,71.8 	"/>
	<g>
		<g>
			<path class="st4" d="M140.4,85.9l8.9-8l34,8l-24.6,118.2h-40.8l11.5-55.3L99.2,196l-8.9,8H78L62,148.7l-9.7,43.4l7.1,3.9l-8.9,8
				H9.6L34.2,85.9l8.9-8l1.8,8h32.2l18.8,61.9L140.4,85.9z"/>
		</g>
		<g>
			
				<linearGradient id="SVGID_1_" gradientUnits="userSpaceOnUse" x1="206.7282" y1="199.2835" x2="206.7282" y2="127.72" gradientTransform="matrix(1 0 -0.2082 1 -72.872 0)">
				<stop  offset="4.528621e-07" style="stop-color:#FFFFFF"/>
				<stop  offset="1" style="stop-color:#D4FAFF"/>
			</linearGradient>
			<path class="st5" d="M149.3,77.9h42.9L167.6,196h-40.8l11.5-55.3L99.2,196H86.9l-16.1-55.3L59.4,196H18.5L43.1,77.9H86l18.8,61.9
				L149.3,77.9z"/>
		</g>
		<path class="st6" d="M149.3,77.9l-44.5,61.9L86,77.9H43.1L18.5,196h40.8l11.5-55.3L86.9,196h12.3l39.1-55.3L126.7,196h40.8
			l24.6-118.2H149.3z M165.9,193.9h-36.6l11-52.8l2-9.7l-5.7,8.1l-38.5,54.5h-9.6l-15.6-53.8l-2.3-8l-1.7,8.1l-11.2,53.7H21
			l23.7-114h39.7l18.3,60.4l1.2,4l2.4-3.4l43.9-61h39.3L165.9,193.9z"/>
	</g>
	<g>
		<path class="st7" d="M296.3,128.6l0-0.2l0-0.2c-3.2-15.5-17.2-27.1-34.8-28.9c-0.6-0.1-1.2-0.1-1.9-0.2c-1.4-0.2-3-0.4-4.9-0.5
			c-4-0.3-8.8-0.4-14.2-0.4c-22.1,0-50.4,2.4-60.6,3.6l-4.7,0.5l0,0.1c0,0,0,0,0,0s-2.7,15.8-2.9,15.8c-2.1,14.2-20,128.6-20,128.6
			l54.6-4.4l6.6-4.8l0.6-4.9l1.8-15c3.9-0.4,7.8-1,12.1-2c7.4-1.8,19.7-3.9,34.3-13.5c14.6-9.5,25-23.7,30.5-39.3
			C297.8,148,297.2,135,296.3,128.6z M224.3,146c10.8,0.9,15.7,6.9,16.8,12.9c-3.4,5.3-10.3,10.2-19.8,12.4L224.3,146z"/>
		<linearGradient id="SVGID_2_" gradientUnits="userSpaceOnUse" x1="223.9624" y1="238.2661" x2="228.3455" y2="103.5986">
			<stop  offset="0" style="stop-color:#FBE63B"/>
			<stop  offset="1" style="stop-color:#FFC300"/>
		</linearGradient>
		<path class="st8" d="M240.3,104.1c5,0,9.7,0.1,13.8,0.4c2.6,0.2,4.9,0.6,6.7,0.8c14.5,1.5,26.7,10.8,29.5,24.1
			c2.1,15.3-0.4,45.9-31.9,67.2c-7,3.8-14.5,6.6-22.3,8.6c-7.7,1.7-13.8,2.4-21.7,2.4l-3.5,0.1l-2.9,24.1
			c-7.6,0.7-28.9,2.6-47.5,4.4c0.2-1.7,17.9-114.3,20-128.6C189.8,106.6,218.2,104.1,240.3,104.1 M214.3,178.5l3.6-0.5
			c20.8-2.8,32.5-16.3,31.7-27.9c-0.5-6.5-5.3-13.8-17.5-14.6l0-0.1c-0.8,0-1.5-0.1-2.3-0.1c-2.9,0-5.8,0.3-8.7,0.9l-1.9,0.3
			L214.3,178.5"/>
		
			<linearGradient id="SVGID_3_" gradientUnits="userSpaceOnUse" x1="244.1712" y1="45.4495" x2="244.1712" y2="-63.9365" gradientTransform="matrix(1.0019 7.323164e-02 -3.240887e-02 0.9957 -17.5544 166.0539)">
			<stop  offset="0" style="stop-color:#FFFFFF;stop-opacity:0"/>
			<stop  offset="1" style="stop-color:#FFFFFF"/>
		</linearGradient>
		<path class="st9" d="M167.2,234.5 M170.6,212.9c4.8-30.7,13.3-85.4,16-102.9c15.1-1.5,49.5-4.1,68.8-2.7c1.5,0.1,2.9,0.3,4.2,0.5
			c0.8,0.1,1.6,0.2,2.3,0.3c12.4,1.3,22.2,9,24.5,19.4c1.2,9.2,2.5,39.9-29.5,61.6c-6.6,3.5-13.6,6.2-20.8,8
			c-7.2,1.6-13,2.3-20.5,2.3l-8.1,0.2l-3,24.4c-8.2,0.7-22.3,2-36.1,3.3C168.9,223.6,169.7,218.5,170.6,212.9z M233.7,127.2
			c-4.2-0.2-8.3,0.1-12.4,0.9l-5.5,1l-6.3,53.1l10.8-1.5c24.8-3.3,37.1-19.7,36.2-33.5c-0.6-7.5-5.5-16.3-17.3-19.2L233.7,127.2z"/>
	</g>
</g>
</svg>
