<?xml version="1.0" encoding="UTF-8" standalone="no"?>
<!-- Created with Inkscape (http://www.inkscape.org/) -->

<svg
   xmlns:dc="http://purl.org/dc/elements/1.1/"
   xmlns:cc="http://creativecommons.org/ns#"
   xmlns:rdf="http://www.w3.org/1999/02/22-rdf-syntax-ns#"
   xmlns:svg="http://www.w3.org/2000/svg"
   xmlns="http://www.w3.org/2000/svg"
   xmlns:sodipodi="http://sodipodi.sourceforge.net/DTD/sodipodi-0.dtd"
   xmlns:inkscape="http://www.inkscape.org/namespaces/inkscape"
   width="512px"
   height="512px"
   viewBox="0 0 512 512"
   version="1.1"
   id="SVGRoot"
   inkscape:version="0.92.5 (2060ec1f9f, 2020-04-08)"
   sodipodi:docname="a1a1a1a1.svg">
  <defs
     id="defs815">
    <clipPath
       id="clip0_497_123">
      <rect
         style="fill:#000000"
         y="0"
         x="0"
         width="400"
         height="400"
         id="rect1432" />
    </clipPath>
  </defs>
  <sodipodi:namedview
     id="base"
     pagecolor="#ffffff"
     bordercolor="#666666"
     borderopacity="1.0"
     inkscape:pageopacity="0.0"
     inkscape:pageshadow="2"
     inkscape:zoom="0.35"
     inkscape:cx="256"
     inkscape:cy="256"
     inkscape:document-units="px"
     inkscape:current-layer="layer1"
     showgrid="false"
     inkscape:window-width="1920"
     inkscape:window-height="1015"
     inkscape:window-x="0"
     inkscape:window-y="0"
     inkscape:window-maximized="1" />
  <metadata
     id="metadata818">
    <rdf:RDF>
      <cc:Work
         rdf:about="">
        <dc:format>image/svg+xml</dc:format>
        <dc:type
           rdf:resource="http://purl.org/dc/dcmitype/StillImage" />
        <dc:title></dc:title>
      </cc:Work>
    </rdf:RDF>
  </metadata>
  <g
     inkscape:label="Layer 1"
     inkscape:groupmode="layer"
     id="layer1">
    <g
       clip-path="url(#clip0_497_123)"
       id="g1430"
       transform="matrix(1.1571428,0,0,1.1571428,24.571433,27.142861)">
      <path
         style="fill:#555a74"
         inkscape:connector-curvature="0"
         d="M 170.37,159.759 C 178.948,153.42 189.334,150 200,150 c 13.261,0 25.978,5.268 35.355,14.645 9.377,9.376 14.645,22.094 14.645,35.355 0.003,10.667 -3.418,21.053 -9.759,29.63 15.765,8.279 32.76,13.969 50.333,16.852 3.971,-7.675 6.94,-15.828 8.833,-24.26 1.625,-7.296 2.444,-14.747 2.445,-22.222 -10e-4,-7.474 -0.82,-14.926 -2.445,-22.222 -4.248,-18.848 -13.756,-36.105 -27.418,-49.767 -13.662,-13.662 -30.919,-23.17 -49.767,-27.418 -7.296,-1.6248 -14.748,-2.4445 -22.222,-2.4448 -7.475,3e-4 -14.926,0.82 -22.222,2.4448 -8.457,1.886 -16.636,4.854 -24.334,8.833 2.904,17.578 8.619,34.573 16.926,50.333 z"
         id="path1426" />
      <path
         style="fill:#555a74"
         inkscape:connector-curvature="0"
         d="m 400,200 c 0.024,-13.471 -4.396,-26.574 -12.574,-37.278 3.454,-13.022 2.524,-26.819 -2.648,-39.259 C 379.641,110.997 370.526,100.579 358.852,93.8334 357.047,80.5073 350.911,68.1442 341.389,58.6482 331.893,49.1262 319.53,42.9902 306.204,41.1852 299.458,29.5113 289.04,20.3961 276.574,15.2593 264.134,10.0875 250.337,9.1568 237.315,12.6112 226.605,4.41181 213.488,-0.0214309 200,5.10938e-5 186.529,-0.0239042 173.426,4.39574 162.722,12.5741 149.7,9.11976 135.903,10.0504 123.463,15.2223 110.997,20.359 100.58,29.4742 93.8335,41.1482 c -13.3261,1.805 -25.6891,7.941 -35.1852,17.463 -9.54,9.5203 -15.6775,21.9188 -17.463,35.2777 -11.674,6.7461 -20.7892,17.1631 -25.926,29.6301 -5.1718,12.44 -6.10234,26.237 -2.648,39.259 C 4.43127,173.462 -0.00100575,186.544 9.68686e-5,200 -0.0238584,213.471 4.39586,226.574 12.5742,237.278 c -3.45432,13.022 -2.5238,26.819 2.6481,39.259 5.1367,12.466 14.2519,22.884 25.9259,29.63 1.7855,13.359 7.923,25.757 17.4631,35.277 9.496,9.522 21.8591,15.658 35.1851,17.463 6.7466,11.674 17.1636,20.79 29.6296,25.926 12.44,5.172 26.237,6.103 39.259,2.648 10.722,8.167 23.838,12.567 37.315,12.519 13.471,0.024 26.574,-4.396 37.278,-12.574 13.022,3.454 26.819,2.524 39.259,-2.648 12.466,-5.137 22.884,-14.252 29.63,-25.926 13.326,-1.805 25.689,-7.941 35.185,-17.463 9.54,-9.521 15.677,-21.919 17.463,-35.278 11.674,-6.746 20.789,-17.163 25.926,-29.63 5.172,-12.44 6.102,-26.237 2.648,-39.259 C 395.569,226.538 400.001,213.456 400,200 Z m -97.778,112.278 c -0.611,0.574 -1.241,1.111 -1.852,1.666 -1.166,1.019 -2.333,2.056 -3.537,3.056 -0.777,0.648 -1.574,1.278 -2.37,1.852 -0.796,0.574 -2.111,1.685 -3.185,2.5 l -2.704,1.981 c -1,0.723 -2,1.445 -3,2.13 -1,0.685 -1.981,1.333 -2.981,1.981 -1,0.649 -1.852,1.223 -2.834,1.852 -0.981,0.63 -2.166,1.352 -3.259,1.982 l -2.611,1.5 c -1.204,0.666 -2.407,1.352 -3.704,1.981 l -2.129,1.093 c -1.408,0.704 -2.797,1.407 -4.223,2.074 l -0.814,0.37 c -7.707,3.541 -15.699,6.428 -23.889,8.63 l -0.315,0.092 c -1.963,0.519 -3.945,0.982 -5.945,1.426 l -0.666,0.149 c -1.963,0.426 -3.945,0.814 -5.926,1.166 l -0.704,0.13 c -2,0.333 -4.018,0.648 -6.055,0.907 H 219 c -2.111,0.278 -4.222,0.5 -6.352,0.685 -4.222,0.352 -8.463,0.556 -12.741,0.556 -4.277,0 -8.462,-0.204 -12.666,-0.556 -1.852,-0.148 -3.704,-0.351 -5.556,-0.592 l -0.944,-0.111 c -1.741,-0.222 -3.463,-0.482 -5.204,-0.76 l -1.278,-0.222 c -1.666,-0.278 -3.314,-0.592 -4.981,-0.944 l -1.407,-0.296 c -1.63,-0.352 -3.26,-0.741 -4.871,-1.149 l -1.37,-0.351 c -1.63,-0.426 -3.26,-0.871 -4.889,-1.371 l -1.019,-0.315 c -5.466,-1.675 -10.833,-3.659 -16.074,-5.944 l -0.703,-0.296 c -1.26,-0.556 -2.5,-1.167 -3.704,-1.741 l -2.333,-1.13 c -1.112,-0.537 -2.186,-1.111 -3.26,-1.685 l -2.722,-1.444 c -1,-0.556 -1.982,-1.13 -2.963,-1.704 l -2.889,-1.722 -2.759,-1.741 -3,-1.982 -2.519,-1.74 c -1.074,-0.741 -2.111,-1.519 -3.166,-2.297 l -2.222,-1.574 c -1.167,-0.907 -2.315,-1.851 -3.463,-2.796 -0.612,-0.481 -1.223,-0.963 -1.852,-1.463 -1.723,-1.463 -3.4262,-2.963 -5.0929,-4.518 -1.6667,-1.556 -3.7037,-3.445 -5.3704,-5.223 -0.6111,-0.629 -1.2037,-1.277 -1.8519,-1.851 -1.1111,-1.167 -2.2037,-2.315 -3.2778,-3.5 l -2.0926,-2.445 c -0.8889,-1.056 -1.8517,-2.093 -2.648,-3.167 -0.7963,-1.074 -1.4631,-1.851 -2.1853,-2.777 -0.7222,-0.926 -1.5184,-1.982 -2.2592,-2.982 -0.7407,-1 -1.4814,-2.055 -2.2036,-3.092 l -1.8518,-2.797 c -0.7408,-1.129 -1.4816,-2.278 -2.2039,-3.426 l -1.5925,-2.611 C 68.7223,276.481 68,275.241 67.2963,274.019 l -1.2776,-2.371 c -0.7408,-1.37 -1.4631,-2.741 -2.1483,-4.148 -0.3333,-0.648 -0.6296,-1.315 -0.9444,-1.963 -0.7408,-1.556 -1.463,-3.111 -2.1482,-4.667 -0.2037,-0.444 -0.3703,-0.889 -0.574,-1.351 -0.7592,-1.852 -1.5001,-3.593 -2.2038,-5.426 -4.9572,-13.125 -8.0732,-26.873 -9.2593,-40.852 -0.2777,-3.371 -0.4998,-6.76 -0.5554,-10.167 -0.1526,-7.569 0.256,-15.139 1.2223,-22.648 0.1481,-1.241 0.3702,-2.482 0.5554,-3.704 0.1852,-1.222 0.3334,-2.24 0.5186,-3.352 0.1852,-1.111 0.4815,-2.444 0.7222,-3.703 0.2408,-1.26 0.4445,-2.241 0.7038,-3.352 0.2592,-1.111 0.5554,-2.371 0.8517,-3.574 0.2963,-1.204 0.5741,-2.222 0.8889,-3.334 0.3148,-1.111 0.6482,-2.314 1.0001,-3.481 0.3518,-1.167 0.7036,-2.259 1.074,-3.37 0.3703,-1.112 0.7221,-2.241 1.111,-3.334 0.3889,-1.092 0.8705,-2.352 1.315,-3.518 0.4444,-1.167 0.7778,-2.056 1.1852,-3.074 0.5741,-1.389 1.1852,-2.778 1.8519,-4.148 0.3518,-0.778 0.6665,-1.556 1.0183,-2.334 0.9877,-2.074 2.0063,-4.129 3.0556,-6.167 0.426,-0.796 0.8703,-1.574 1.2962,-2.351 0.7037,-1.315 1.4261,-2.611 2.1668,-3.908 0.5,-0.852 1.037,-1.685 1.5555,-2.537 0.7222,-1.204 1.4631,-2.389 2.2409,-3.574 0.537,-0.852 1.1109,-1.685 1.685,-2.518 0.7963,-1.167 1.5927,-2.334 2.426,-3.463 0.5741,-0.815 1.1667,-1.63 1.8519,-2.426 0.8889,-1.167 1.8518,-2.315 2.7036,-3.463 l 1.8519,-2.222 c 1.037,-1.241 2.1113,-2.482 3.1853,-3.7042 0.5371,-0.6111 1.037,-1.2222 1.5926,-1.8518 1.6296,-1.8519 3.2962,-3.5741 5.037,-5.2963 12.971,-12.992 28.193,-23.5208 44.926,-31.0741 -0.222,1.8519 -0.389,3.7037 -0.537,5.5556 0,0.3889 0,0.7592 0,1.1481 -0.13,1.5556 -0.222,3.1111 -0.297,4.6667 0,0.2778 0,0.5741 0,0.8518 0,1.7037 -0.129,3.4075 -0.148,5.1112 -0.009,0.1356 -0.009,0.2717 0,0.4074 0,1.8518 0,3.7037 0,5.5555 0.776,47.1321 19.802,92.1271 53.075,125.5181 16.81,16.905 36.807,30.307 58.832,39.43 22.026,9.123 45.642,13.786 69.482,13.719 6.881,0 13.756,-0.39 20.593,-1.167 -7.551,16.678 -18.046,31.859 -30.982,44.815 -2.037,1.796 -3.796,3.463 -5.574,5.074 z M 177.778,70.3704 v -3.7037 c 0,-5.8937 2.341,-11.546 6.509,-15.7135 4.167,-4.1675 9.819,-6.5087 15.713,-6.5087 5.894,0 11.546,2.3412 15.713,6.5087 4.168,4.1675 6.509,9.8198 6.509,15.7135 v 3.7037 c 26.796,4.6371 51.502,17.4482 70.731,36.6776 19.229,19.229 32.04,43.934 36.677,70.73 h 3.703 c 5.894,0 11.546,2.341 15.714,6.509 4.167,4.167 6.509,9.819 6.509,15.713 0,5.894 -2.342,11.546 -6.509,15.714 -4.168,4.167 -9.82,6.508 -15.714,6.508 h -3.703 c -1.551,9.089 -4.072,17.986 -7.519,26.537 -1.407,0 -2.815,0 -4.222,0 -21.894,0.042 -43.58,-4.244 -63.811,-12.612 C 233.846,227.779 215.468,215.495 200,200 c -16.001,-15.966 -28.577,-35.028 -36.958,-56.021 -8.381,-20.993 -12.39,-43.476 -11.783,-66.0716 8.548,-3.4451 17.437,-5.9717 26.519,-7.537 z"
         id="path1428" />
    </g>
  </g>
</svg>
