<svg xmlns="http://www.w3.org/2000/svg" width="512" height="512"><defs><clipPath id="a"><path style="fill:#000" d="M0 0h400v400H0z"/></clipPath></defs><g clip-path="url(#a)" transform="translate(24.571 27.143) scale(1.15714)"><path style="fill:#555a74" d="M170.37 159.759A49.856 49.856 0 0 1 200 150a49.999 49.999 0 0 1 50 50 49.818 49.818 0 0 1-9.759 29.63 166.092 166.092 0 0 0 50.333 16.852 100.88 100.88 0 0 0 8.833-24.26A102.274 102.274 0 0 0 301.852 200a102.28 102.28 0 0 0-2.445-22.222 102.143 102.143 0 0 0-77.185-77.185 102.25 102.25 0 0 0-44.444 0 100.755 100.755 0 0 0-24.334 8.833 165.956 165.956 0 0 0 16.926 50.333z"/><path style="fill:#555a74" d="M400 200a61.224 61.224 0 0 0-12.574-37.278 61.315 61.315 0 0 0-2.648-39.259 61.11 61.11 0 0 0-25.926-29.63 61.314 61.314 0 0 0-17.463-35.185 61.314 61.314 0 0 0-35.185-17.463 61.113 61.113 0 0 0-29.63-25.926 61.314 61.314 0 0 0-39.259-2.648A61.223 61.223 0 0 0 200 .001a61.222 61.222 0 0 0-37.278 12.573 61.314 61.314 0 0 0-39.259 2.648 61.113 61.113 0 0 0-29.63 25.926 61.315 61.315 0 0 0-35.185 17.463A61.314 61.314 0 0 0 41.185 93.89a61.109 61.109 0 0 0-25.926 29.63 61.314 61.314 0 0 0-2.648 39.259A61.221 61.221 0 0 0 .001 200a61.223 61.223 0 0 0 12.573 37.278 61.314 61.314 0 0 0 2.648 39.259 61.112 61.112 0 0 0 25.926 29.63 61.31 61.31 0 0 0 17.463 35.277 61.314 61.314 0 0 0 35.185 17.463 61.11 61.11 0 0 0 29.63 25.926 61.309 61.309 0 0 0 39.259 2.648A61.22 61.22 0 0 0 200 400a61.224 61.224 0 0 0 37.278-12.574 61.315 61.315 0 0 0 39.259-2.648 61.113 61.113 0 0 0 29.63-25.926 61.314 61.314 0 0 0 35.185-17.463 61.32 61.32 0 0 0 17.463-35.278 61.109 61.109 0 0 0 25.926-29.63 61.315 61.315 0 0 0 2.648-39.259A61.222 61.222 0 0 0 400 200Zm-97.778 112.278c-.611.574-1.241 1.111-1.852 1.666-1.166 1.019-2.333 2.056-3.537 3.056a43.086 43.086 0 0 1-2.37 1.852c-.796.574-2.111 1.685-3.185 2.5l-2.704 1.981c-1 .723-2 1.445-3 2.13-1 .685-1.981 1.333-2.981 1.981-1 .649-1.852 1.223-2.834 1.852a83.316 83.316 0 0 1-3.259 1.982l-2.611 1.5c-1.204.666-2.407 1.352-3.704 1.981l-2.129 1.093c-1.408.704-2.797 1.407-4.223 2.074l-.814.37a151.346 151.346 0 0 1-23.889 8.63l-.315.092c-1.963.519-3.945.982-5.945 1.426l-.666.149c-1.963.426-3.945.814-5.926 1.166l-.704.13c-2 .333-4.018.648-6.055.907H219c-2.111.278-4.222.5-6.352.685-4.222.352-8.463.556-12.741.556-4.277 0-8.462-.204-12.666-.556a112.549 112.549 0 0 1-5.556-.592l-.944-.111a166.395 166.395 0 0 1-5.204-.76l-1.278-.222a118.149 118.149 0 0 1-4.981-.944l-1.407-.296a141.84 141.84 0 0 1-4.871-1.149l-1.37-.351c-1.63-.426-3.26-.871-4.889-1.371l-1.019-.315a150.7 150.7 0 0 1-16.074-5.944l-.703-.296c-1.26-.556-2.5-1.167-3.704-1.741l-2.333-1.13a89.221 89.221 0 0 1-3.26-1.685l-2.722-1.444c-1-.556-1.982-1.13-2.963-1.704l-2.889-1.722-2.759-1.741-3-1.982-2.519-1.74c-1.074-.741-2.111-1.519-3.166-2.297l-2.222-1.574a159.117 159.117 0 0 1-3.463-2.796 424.73 424.73 0 0 1-1.852-1.463A145.521 145.521 0 0 1 97 311.593c-1.667-1.556-3.704-3.445-5.37-5.223-.611-.629-1.204-1.277-1.852-1.851a194.986 194.986 0 0 1-3.278-3.5l-2.093-2.445c-.889-1.056-1.851-2.093-2.648-3.167-.796-1.074-1.463-1.851-2.185-2.777a156.212 156.212 0 0 1-2.26-2.982c-.74-1-1.48-2.055-2.203-3.092l-1.852-2.797a214.09 214.09 0 0 1-2.203-3.426l-1.593-2.611a273.604 273.604 0 0 1-2.167-3.703l-1.277-2.371a110.477 110.477 0 0 1-2.149-4.148c-.333-.648-.63-1.315-.944-1.963a174.214 174.214 0 0 1-2.148-4.667c-.204-.444-.37-.889-.574-1.351-.76-1.852-1.5-3.593-2.204-5.426a151.988 151.988 0 0 1-9.26-40.852c-.277-3.371-.5-6.76-.555-10.167a153.244 153.244 0 0 1 1.223-22.648c.148-1.241.37-2.482.555-3.704.185-1.222.333-2.24.519-3.352.185-1.111.481-2.444.722-3.703.24-1.26.444-2.241.704-3.352.259-1.111.555-2.371.851-3.574a94.29 94.29 0 0 1 .89-3.334c.314-1.111.647-2.314 1-3.481a120.08 120.08 0 0 1 1.073-3.37c.37-1.112.722-2.241 1.111-3.334.39-1.092.87-2.352 1.315-3.518.445-1.167.778-2.056 1.185-3.074a74.538 74.538 0 0 1 1.852-4.148c.352-.778.667-1.556 1.019-2.334a221.841 221.841 0 0 1 3.055-6.167c.426-.796.87-1.574 1.296-2.351a162 162 0 0 1 2.167-3.908c.5-.852 1.037-1.685 1.556-2.537a103.712 103.712 0 0 1 2.24-3.574 73.917 73.917 0 0 1 1.686-2.518 114.376 114.376 0 0 1 2.426-3.463c.574-.815 1.166-1.63 1.852-2.426.888-1.167 1.851-2.315 2.703-3.463l1.852-2.222a197.363 197.363 0 0 1 3.185-3.704c.537-.611 1.037-1.222 1.593-1.852 1.63-1.852 3.296-3.574 5.037-5.296a151.647 151.647 0 0 1 44.926-31.074 140.997 140.997 0 0 0-.537 5.555v1.148c-.13 1.556-.222 3.111-.297 4.667v.852c0 1.703-.129 3.407-.148 5.111a3.077 3.077 0 0 0 0 .407v5.556a182.072 182.072 0 0 0 53.075 125.518 180.238 180.238 0 0 0 128.314 53.149c6.881 0 13.756-.39 20.593-1.167a152.374 152.374 0 0 1-30.982 44.815c-2.037 1.796-3.796 3.463-5.574 5.074zM177.778 70.37v-3.703a22.22 22.22 0 0 1 37.935-15.714 22.22 22.22 0 0 1 6.509 15.714v3.703A131.814 131.814 0 0 1 329.63 177.778h3.703a22.222 22.222 0 1 1 0 44.444h-3.703a129.036 129.036 0 0 1-7.519 26.537h-4.222A166.115 166.115 0 0 1 200 200a166.167 166.167 0 0 1-48.741-122.093 130.014 130.014 0 0 1 26.519-7.537z"/></g></svg>