<svg width="410" height="125" fill="none" xmlns="http://www.w3.org/2000/svg"><path fill="#fff" d="M0 0h410v125H0z"/><path d="M34.9 97.2c-4.2 0-8.033-1-11.5-3-3.467-2.067-6.233-4.967-8.3-8.7-2.067-3.733-3.1-8.067-3.1-13 0-4.6 1.033-8.767 3.1-12.5 2.067-3.733 4.833-6.7 8.3-8.9 3.467-2.2 7.3-3.3 11.5-3.3s8.033 1.1 11.5 3.3c3.533 2.2 6.333 5.167 8.4 8.9 2.133 3.733 3.2 7.9 3.2 12.5 0 4.867-1.067 9.167-3.2 12.9-2.067 3.733-4.867 6.633-8.4 8.7-3.467 2.067-7.3 3.1-11.5 3.1Zm0-11.1c2.667 0 4.867-1.233 6.6-3.7 1.733-2.533 2.6-5.833 2.6-9.9 0-4.333-.867-7.667-2.6-10-1.733-2.4-3.933-3.6-6.6-3.6-2.467 0-4.6 1.2-6.4 3.6-1.733 2.333-2.6 5.667-2.6 10 0 4.067.833 7.367 2.5 9.9 1.733 2.467 3.9 3.7 6.5 3.7Zm53.8 11.1c-2.2 0-4.367-.467-6.5-1.4-2.133-.933-3.967-2.367-5.5-4.3L75.2 96H64V28.5h15v1.1c-.333.4-.567.833-.7 1.3-.067.467-.1 1.267-.1 2.4V53c1.333-1.6 2.967-2.867 4.9-3.8 1.933-1 4.033-1.467 6.3-1.4 5.733.067 10.3 2.1 13.7 6.1 3.4 3.933 5.1 9.8 5.1 17.6 0 5.867-.867 10.7-2.6 14.5-1.733 3.8-4.067 6.633-7 8.5-2.933 1.8-6.233 2.7-9.9 2.7Zm-3.1-10.4c2.533 0 4.6-1.033 6.2-3.1 1.667-2.133 2.5-5.7 2.5-10.7 0-4.533-.7-8.167-2.1-10.9-1.4-2.8-3.533-4.2-6.4-4.2-2.467 0-4.333 1.2-5.6 3.6-1.2 2.4-1.833 5.867-1.9 10.4-.067 5.067.533 8.833 1.8 11.3 1.333 2.4 3.167 3.6 5.5 3.6Zm43.3 26.9c-3.333 0-6.333-.667-9-2-2.6-1.267-5.033-3.133-7.3-5.6l7.6-10 .6-.7.9.6c.133.533.233 1.067.3 1.6.133.6.533 1.333 1.2 2.2a8.319 8.319 0 0 0 2.4 1.7c.933.467 2.033.7 3.3.7 2.333 0 3.867-.7 4.6-2.1.733-1.333 1.1-3.333 1.1-6V59.9h-15.7v-11h30v43.8c0 5-.967 9.033-2.9 12.1-1.933 3.133-4.433 5.4-7.5 6.8-3 1.4-6.2 2.1-9.6 2.1Zm11.9-71.2c-2.333 0-4.333-.767-6-2.3-1.6-1.6-2.4-3.467-2.4-5.6 0-2.333.767-4.233 2.3-5.7 1.6-1.467 3.633-2.2 6.1-2.2 2.2 0 4.133.8 5.8 2.4 1.733 1.533 2.6 3.367 2.6 5.5s-.867 4-2.6 5.6c-1.667 1.533-3.6 2.3-5.8 2.3Zm40 33.6-2.3 2.4V96h-14.2V28.5h15v1.1c-.333.4-.567.833-.7 1.3-.067.467-.1 1.267-.1 2.4V63L193 48.4c1.133.267 2.533.467 4.2.6 1.667.133 2.833.2 3.5.2h7.3l-18 18.2 20 28.5-15.2.5-14-20.3Zm59.1 21.1c-3.333 0-6.267-.7-8.8-2.1-2.533-1.4-4.467-3.9-5.8-7.5-1.333-3.6-1.867-8.667-1.6-15.2l.5-12.5h-9.3l.2-11h9.6l.4-10.5 14.4-1.9.9-.1.1 1.1-.8 1.4c-.267.467-.433 1.267-.5 2.4l-.6 7.6h14.3l-.2 11h-14.3l-.6 11.8c-.2 3.8-.067 6.767.4 8.9.533 2.067 1.267 3.5 2.2 4.3 1 .8 2.033 1.2 3.1 1.2 2.067 0 3.933-.433 5.6-1.3 1.733-.867 3.233-1.833 4.5-2.9l2.4 9.9a30.513 30.513 0 0 1-7.4 4c-2.6.933-5.5 1.4-8.7 1.4Zm36.83-.36c-1.447 0-2.707-.513-3.78-1.54-1.027-1.027-1.54-2.263-1.54-3.71s.513-2.683 1.54-3.71c1.073-1.027 2.333-1.54 3.78-1.54 1.447 0 2.683.513 3.71 1.54 1.027 1.027 1.54 2.263 1.54 3.71s-.513 2.683-1.54 3.71c-1.027 1.027-2.263 1.54-3.71 1.54Zm37.73 0c-3.173 0-6.02-.723-8.54-2.17-2.52-1.447-4.527-3.43-6.02-5.95-1.447-2.567-2.17-5.483-2.17-8.75 0-3.22.723-6.137 2.17-8.75 1.493-2.613 3.5-4.69 6.02-6.23 2.52-1.54 5.39-2.31 8.61-2.31 2.987 0 5.6.56 7.84 1.68 2.24 1.12 4.013 2.66 5.32 4.62l-4.41 4.83-.42.49-.56-.42c0-.42-.047-.793-.14-1.12-.093-.373-.397-.863-.91-1.47a7.309 7.309 0 0 0-3.01-1.75c-1.073-.327-2.287-.49-3.64-.49-1.54 0-2.987.42-4.34 1.26-1.353.84-2.45 2.077-3.29 3.71-.793 1.633-1.19 3.617-1.19 5.95 0 2.1.42 3.943 1.26 5.53.84 1.54 1.937 2.753 3.29 3.64 1.4.84 2.893 1.26 4.48 1.26 1.447 0 2.87-.303 4.27-.91 1.4-.607 2.707-1.657 3.92-3.15l4.41 5.04c-1.727 1.913-3.733 3.313-6.02 4.2-2.287.84-4.597 1.26-6.93 1.26Zm32.97-.14c-2.893 0-5.53-.7-7.91-2.1-2.333-1.447-4.177-3.43-5.53-5.95-1.353-2.567-2.03-5.553-2.03-8.96 0-3.22.677-6.113 2.03-8.68 1.353-2.567 3.197-4.597 5.53-6.09 2.38-1.493 5.017-2.24 7.91-2.24 2.94 0 5.577.747 7.91 2.24 2.38 1.493 4.247 3.523 5.6 6.09 1.4 2.567 2.1 5.46 2.1 8.68 0 3.36-.7 6.323-2.1 8.89-1.353 2.567-3.22 4.573-5.6 6.02-2.333 1.4-4.97 2.1-7.91 2.1Zm0-6.3c2.24 0 4.083-.98 5.53-2.94 1.447-2.007 2.17-4.597 2.17-7.77 0-3.267-.723-5.857-2.17-7.77-1.447-1.913-3.29-2.87-5.53-2.87-2.147 0-3.943.957-5.39 2.87-1.447 1.913-2.17 4.503-2.17 7.77 0 3.173.7 5.763 2.1 7.77 1.447 1.96 3.267 2.94 5.46 2.94ZM367.1 96V63.45h6.65v2.38c.793-1.12 1.68-1.913 2.66-2.38.98-.513 1.983-.77 3.01-.77a6 6 0 0 1 3.22.91c1.027.607 1.797 1.61 2.31 3.01 1.447-2.613 3.733-3.92 6.86-3.92 2.38 0 4.083.84 5.11 2.52 1.073 1.633 1.587 3.897 1.54 6.79V96h-6.86V73.67c0-2.1-.163-3.5-.49-4.2-.327-.747-.817-1.12-1.47-1.12-.933 0-1.773.63-2.52 1.89-.747 1.213-1.12 2.847-1.12 4.9V96h-6.44V73.88c0-2.24-.163-3.733-.49-4.48-.327-.747-.933-1.12-1.82-1.12-.84 0-1.61.56-2.31 1.68-.653 1.073-.98 2.66-.98 4.76V96h-6.86Z" fill="#000"/></svg>