<?xml version="1.0" encoding="UTF-8" standalone="no"?>
<svg
   xmlns:dc="http://purl.org/dc/elements/1.1/"
   xmlns:cc="http://creativecommons.org/ns#"
   xmlns:rdf="http://www.w3.org/1999/02/22-rdf-syntax-ns#"
   xmlns:svg="http://www.w3.org/2000/svg"
   xmlns="http://www.w3.org/2000/svg"
   xmlns:sodipodi="http://sodipodi.sourceforge.net/DTD/sodipodi-0.dtd"
   xmlns:inkscape="http://www.inkscape.org/namespaces/inkscape"
   version="1.1"
   id="svg2"
   xml:space="preserve"
   width="537.34668"
   height="375"
   viewBox="0 0 537.34668 309"
   sodipodi:docname="primary_logomark-horizontal.eps"><metadata
     id="metadata8"><rdf:RDF><cc:Work
         rdf:about=""><dc:format>image/svg+xml</dc:format><dc:type
           rdf:resource="http://purl.org/dc/dcmitype/StillImage" /></cc:Work></rdf:RDF></metadata><defs
     id="defs6" /><sodipodi:namedview
     pagecolor="#ffffff"
     bordercolor="#666666"
     borderopacity="1"
     objecttolerance="10"
     gridtolerance="10"
     guidetolerance="10"
     inkscape:pageopacity="0"
     inkscape:pageshadow="2"
     inkscape:window-width="640"
     inkscape:window-height="480"
     id="namedview4" /><g
     id="g10"
     inkscape:groupmode="layer"
     inkscape:label="ink_ext_XXXXXX"
     transform="matrix(1.3333333,0,0,-1.3333333,0,309)"><g
       id="g12"
       transform="scale(0.1)"><path
         d="m 1373.84,1352.23 v 225.14 c 0,185.75 -80.21,298.32 -213.89,296.91 -135.08,0 -216.7,-113.98 -216.7,-296.91 v -225.14 c 0,-182.94 80.21,-296.91 216.7,-296.91 133.68,-1.41 213.89,111.16 213.89,296.91 z m -537.539,7.03 v 209.66 c 0,249.07 121.027,408.09 323.649,408.09 204.05,0 320.84,-154.8 320.84,-408.09 v -209.66 c 0,-254.69 -116.79,-406.67 -320.84,-406.67 -202.622,0 -323.649,157.61 -323.649,406.67"
         style="fill:#ffffff;fill-opacity:1;fill-rule:nonzero;stroke:none"
         id="path14" /><path
         d="m 1375.35,739.891 v 225.14 c 0,185.749 -80.21,298.319 -213.89,296.909 -135.09,0 -216.706,-113.99 -216.706,-296.909 v -225.14 c 0,-182.942 80.206,-296.911 216.706,-296.911 133.68,-1.41 213.89,111.168 213.89,296.911 z m -537.541,7.039 v 209.66 c 0,249.06 121.023,408.07 323.651,408.07 204.05,0 320.84,-154.79 320.84,-408.07 V 746.93 c 0,-254.7 -116.79,-406.668 -320.84,-406.668 -202.628,0 -323.651,157.597 -323.651,406.668"
         style="fill:#ffffff;fill-opacity:1;fill-rule:nonzero;stroke:none"
         id="path16" /><path
         d="m 1158.75,2217.04 c -583.551,0 -1058.297,-474.75 -1058.297,-1058.29 0,-583.551 474.746,-1058.301 1058.297,-1058.301 583.54,0 1058.28,474.75 1058.28,1058.301 0,583.54 -474.74,1058.29 -1058.28,1058.29 z M 1158.75,0 C 519.813,0 -0.00390625,519.809 -0.00390625,1158.75 c 0,638.93 519.81690625,1158.74 1158.75390625,1158.74 638.92,0 1158.73,-519.81 1158.73,-1158.74 C 2317.48,519.809 1797.67,0 1158.75,0"
         style="fill:#ffffff;fill-opacity:1;fill-rule:nonzero;stroke:none"
         id="path18" /><path
         d="m 2734.66,1120.79 14.45,102.24 c 6.72,51.12 -13.41,83.13 -52.66,83.13 -40.79,-0.52 -69.71,-34.08 -76.42,-83.13 l -14.46,-102.24 c -7.23,-49.06 12.39,-82.62 53.18,-83.14 38.73,0 68.68,32.01 75.91,83.14 z m -185.37,4.65 13.42,92.94 c 11.37,83.13 65.07,141.48 140.96,141.48 76.95,0 112.57,-55.25 100.7,-141.48 l -13.43,-92.94 c -12.39,-86.75 -63,-141.479 -139.93,-141.479 -75.9,0 -113.09,58.339 -101.72,141.479"
         style="fill:#ffffff;fill-opacity:1;fill-rule:nonzero;stroke:none"
         id="path20" /><path
         d="m 2853.92,1012.36 44.93,317.55 c 2.06,16.53 17.04,29.95 33.56,29.95 11.88,0 21.17,-6.71 24.79,-16.52 l 84.68,-234.43 h 1.55 l 30.98,222.55 c 2.58,15.49 17.04,28.4 32.53,28.4 15.49,0 26.85,-12.91 24.26,-28.4 l -44.4,-317.56 c -2.58,-16.521 -17.56,-29.939 -34.08,-29.939 -11.88,0 -21.16,6.187 -24.27,16.519 l -84.68,235.46 h -1.55 l -31.49,-223.58 c -2.07,-15.501 -16.53,-28.399 -32.53,-28.399 -15.5,0 -26.34,12.898 -24.28,28.399"
         style="fill:#ffffff;fill-opacity:1;fill-rule:nonzero;stroke:none"
         id="path22" /><path
         d="m 3204.5,991.191 c -18.59,0 -28.39,10.839 -25.82,29.939 l 42.35,301.56 c 3.09,19.1 15.49,29.94 34.08,29.94 h 161.62 c 13.94,0 23.75,-12.91 21.17,-26.85 -1.55,-13.94 -14.98,-26.85 -28.41,-26.85 h -134.76 l -13.95,-97.59 h 107.41 c 13.94,0 23.76,-12.39 21.69,-26.85 -2.06,-14.46 -15.49,-27.37 -29.44,-27.37 h -107.4 l -13.94,-102.24 h 134.77 c 13.43,0 23.23,-12.91 21.17,-26.85 -2.07,-13.93 -14.97,-26.839 -28.91,-26.839 H 3204.5"
         style="fill:#ffffff;fill-opacity:1;fill-rule:nonzero;stroke:none"
         id="path24" /><path
         d="m 3701.21,1130.6 v 82.61 c 0,68.17 -29.43,109.48 -78.48,108.96 -49.57,0 -79.52,-41.83 -79.52,-108.96 v -82.61 c 0,-67.13 29.43,-108.95 79.52,-108.95 49.05,-0.52 78.48,40.79 78.48,108.95 z m -197.24,2.58 v 76.94 c 0,91.39 44.4,149.74 118.76,149.74 74.87,0 117.72,-56.8 117.72,-149.74 v -76.94 c 0,-93.46 -42.85,-149.219 -117.72,-149.219 -74.36,0 -118.76,57.829 -118.76,149.219"
         style="fill:#ffffff;fill-opacity:1;fill-rule:nonzero;stroke:none"
         id="path26" /><path
         d="m 3820.47,1003.57 v 328.41 c 0,12.91 7.75,20.65 21.17,20.65 h 170.92 c 9.3,0 17.56,-7.74 17.56,-19.1 0,-10.33 -8.26,-18.59 -17.56,-18.59 h -152.32 v -123.41 h 123.92 c 9.81,0 17.55,-7.75 17.55,-18.59 0,-11.36 -7.74,-19.11 -17.55,-19.11 h -123.92 v -150.26 c 0,-10.84 -9.3,-19.609 -19.62,-19.609 -10.85,0 -20.15,8.769 -20.15,19.609"
         style="fill:#ffffff;fill-opacity:1;fill-rule:nonzero;stroke:none"
         id="path28" /></g></g></svg>
