<svg xmlns="http://www.w3.org/2000/svg" xml:space="preserve" width="537.347" height="375" viewBox="0 0 537.347 309"><path d="M1373.84 1352.23v225.14c0 185.75-80.21 298.32-213.89 296.91-135.08 0-216.7-113.98-216.7-296.91v-225.14c0-182.94 80.21-296.91 216.7-296.91 133.68-1.41 213.89 111.16 213.89 296.91zm-537.539 7.03v209.66c0 249.07 121.027 408.09 323.649 408.09 204.05 0 320.84-154.8 320.84-408.09v-209.66c0-254.69-116.79-406.67-320.84-406.67-202.622 0-323.649 157.61-323.649 406.67" style="fill:#fff;fill-opacity:1;fill-rule:nonzero;stroke:none" transform="matrix(.13333 0 0 -.13333 0 309)"/><path d="M1375.35 739.891v225.14c0 185.749-80.21 298.319-213.89 296.909-135.09 0-216.706-113.99-216.706-296.909v-225.14c0-182.942 80.206-296.911 216.706-296.911 133.68-1.41 213.89 111.168 213.89 296.911zm-537.541 7.039v209.66c0 249.06 121.023 408.07 323.651 408.07 204.05 0 320.84-154.79 320.84-408.07V746.93c0-254.7-116.79-406.668-320.84-406.668-202.628 0-323.651 157.597-323.651 406.668" style="fill:#fff;fill-opacity:1;fill-rule:nonzero;stroke:none" transform="matrix(.13333 0 0 -.13333 0 309)"/><path d="M1158.75 2217.04c-583.551 0-1058.297-474.75-1058.297-1058.29 0-583.551 474.746-1058.301 1058.297-1058.301 583.54 0 1058.28 474.75 1058.28 1058.301 0 583.54-474.74 1058.29-1058.28 1058.29zm0-2217.04C519.813 0-.004 519.809-.004 1158.75c0 638.93 519.817 1158.74 1158.754 1158.74 638.92 0 1158.73-519.81 1158.73-1158.74C2317.48 519.809 1797.67 0 1158.75 0M2734.66 1120.79l14.45 102.24c6.72 51.12-13.41 83.13-52.66 83.13-40.79-.52-69.71-34.08-76.42-83.13l-14.46-102.24c-7.23-49.06 12.39-82.62 53.18-83.14 38.73 0 68.68 32.01 75.91 83.14zm-185.37 4.65 13.42 92.94c11.37 83.13 65.07 141.48 140.96 141.48 76.95 0 112.57-55.25 100.7-141.48l-13.43-92.94c-12.39-86.75-63-141.479-139.93-141.479-75.9 0-113.09 58.339-101.72 141.479M2853.92 1012.36l44.93 317.55c2.06 16.53 17.04 29.95 33.56 29.95 11.88 0 21.17-6.71 24.79-16.52l84.68-234.43h1.55l30.98 222.55c2.58 15.49 17.04 28.4 32.53 28.4 15.49 0 26.85-12.91 24.26-28.4l-44.4-317.56c-2.58-16.521-17.56-29.939-34.08-29.939-11.88 0-21.16 6.187-24.27 16.519l-84.68 235.46h-1.55l-31.49-223.58c-2.07-15.501-16.53-28.399-32.53-28.399-15.5 0-26.34 12.898-24.28 28.399M3204.5 991.191c-18.59 0-28.39 10.839-25.82 29.939l42.35 301.56c3.09 19.1 15.49 29.94 34.08 29.94h161.62c13.94 0 23.75-12.91 21.17-26.85-1.55-13.94-14.98-26.85-28.41-26.85h-134.76l-13.95-97.59h107.41c13.94 0 23.76-12.39 21.69-26.85-2.06-14.46-15.49-27.37-29.44-27.37h-107.4l-13.94-102.24h134.77c13.43 0 23.23-12.91 21.17-26.85-2.07-13.93-14.97-26.839-28.91-26.839H3204.5M3701.21 1130.6v82.61c0 68.17-29.43 109.48-78.48 108.96-49.57 0-79.52-41.83-79.52-108.96v-82.61c0-67.13 29.43-108.95 79.52-108.95 49.05-.52 78.48 40.79 78.48 108.95zm-197.24 2.58v76.94c0 91.39 44.4 149.74 118.76 149.74 74.87 0 117.72-56.8 117.72-149.74v-76.94c0-93.46-42.85-149.219-117.72-149.219-74.36 0-118.76 57.829-118.76 149.219M3820.47 1003.57v328.41c0 12.91 7.75 20.65 21.17 20.65h170.92c9.3 0 17.56-7.74 17.56-19.1 0-10.33-8.26-18.59-17.56-18.59h-152.32v-123.41h123.92c9.81 0 17.55-7.75 17.55-18.59 0-11.36-7.74-19.11-17.55-19.11h-123.92v-150.26c0-10.84-9.3-19.609-19.62-19.609-10.85 0-20.15 8.769-20.15 19.609" style="fill:#fff;fill-opacity:1;fill-rule:nonzero;stroke:none" transform="matrix(.13333 0 0 -.13333 0 309)"/></svg>