<svg width="38" height="23" fill="none" xmlns="http://www.w3.org/2000/svg"><path d="M26.924 3.691a7.385 7.385 0 1 1-7.387 7.385 7.394 7.394 0 0 1 7.387-7.385Zm0-3.691a11.078 11.078 0 1 0-.004 22.157A11.078 11.078 0 0 0 26.924 0Z" fill="#2764F6"/><path d="M.062 16.497a.39.39 0 0 1 .109-.533l6.804-4.595s.659-.518 0-.966c-.563-.383-5.344-3.575-6.73-4.507a.452.452 0 0 1-.12-.631l1.472-2.141a.38.38 0 0 1 .507-.101l10.033 6.65s.589.495.614 1.178a1.605 1.605 0 0 1-.778 1.531l-9.85 6.599a.394.394 0 0 1-.551-.116l-1.51-2.368Z" fill="#7EFBC5"/></svg>