<svg width="72" height="71" fill="none" xmlns="http://www.w3.org/2000/svg"><path d="M35.571 60.938c14.532 0 26.313-11.721 26.313-26.18 0-14.46-11.78-26.181-26.313-26.181-14.532 0-26.312 11.721-26.312 26.18 0 14.46 11.78 26.181 26.312 26.181Z" fill="#2F79BD"/><g opacity=".3"><path opacity=".3" d="M59.136 10.3H12.27v46.63h46.866V10.3Z" fill="url(#a)"/><g opacity=".3"><path opacity=".3" d="M69.318 2.434H2.106v55.639h67.212V2.434Z" fill="url(#b)"/><path opacity=".3" d="M35.646 56.93a23.516 23.516 0 0 1-13.003-3.956 23.34 23.34 0 0 1-8.605-10.475 23.208 23.208 0 0 1-1.31-13.467 23.28 23.28 0 0 1 6.425-11.923 23.47 23.47 0 0 1 11.999-6.366 23.542 23.542 0 0 1 13.531 1.337 23.408 23.408 0 0 1 10.507 8.587 23.233 23.233 0 0 1 2.162 21.886 23.29 23.29 0 0 1-5.094 7.574 23.424 23.424 0 0 1-7.624 5.05 23.519 23.519 0 0 1-8.988 1.753Z" fill="url(#c)"/></g></g><path d="M35.929 1.498a34 34 0 0 0-18.823 5.68A33.747 33.747 0 0 0 4.63 22.308 33.552 33.552 0 0 0 2.7 41.783a33.657 33.657 0 0 0 9.272 17.26 33.932 33.932 0 0 0 17.346 9.225 34.036 34.036 0 0 0 19.574-1.918 33.841 33.841 0 0 0 15.205-12.415 33.589 33.589 0 0 0 5.71-18.728c0-8.94-3.57-17.514-9.924-23.836A33.965 33.965 0 0 0 35.93 1.498Zm.225 52.436a21.062 21.062 0 0 1-11.663-3.521 20.904 20.904 0 0 1-7.729-9.378 20.784 20.784 0 0 1-1.188-12.07 20.849 20.849 0 0 1 5.754-10.69 21.02 21.02 0 0 1 10.755-5.706 21.085 21.085 0 0 1 12.129 1.204 20.964 20.964 0 0 1 9.41 7.707 20.806 20.806 0 0 1 3.518 11.61c0 5.539-2.21 10.85-6.146 14.766a21.04 21.04 0 0 1-14.84 6.116v-.038Z" fill="#fff"/><path d="M35.929 70.265a35.436 35.436 0 0 1-19.612-5.93A35.171 35.171 0 0 1 3.321 48.564a34.969 34.969 0 0 1-2.002-20.297 35.079 35.079 0 0 1 9.668-17.984A35.365 35.365 0 0 1 29.066.673a35.474 35.474 0 0 1 20.398 2.003 35.272 35.272 0 0 1 15.843 12.94 35.008 35.008 0 0 1 5.95 19.516 35.08 35.08 0 0 1-10.36 24.838A35.437 35.437 0 0 1 35.93 70.265Zm0-67.25a32.394 32.394 0 0 0-17.934 5.413A32.152 32.152 0 0 0 6.107 22.842 31.968 31.968 0 0 0 4.27 41.398a32.068 32.068 0 0 0 8.834 16.445 32.33 32.33 0 0 0 16.527 8.79 32.43 32.43 0 0 0 18.65-1.828 32.244 32.244 0 0 0 14.486-11.83 32.002 32.002 0 0 0 5.44-17.843 32.055 32.055 0 0 0-9.46-22.704A32.38 32.38 0 0 0 35.93 3.015Z" fill="#000"/><path d="M36.154 49.796c9.273 0 16.79-7.48 16.79-16.705 0-9.226-7.517-16.705-16.79-16.705-9.272 0-16.788 7.48-16.788 16.705 0 9.226 7.516 16.705 16.788 16.705Z" fill="#000"/><path d="M36.154 49.796c9.273 0 16.79-7.48 16.79-16.705 0-9.226-7.517-16.705-16.79-16.705-9.272 0-16.788 7.48-16.788 16.705 0 9.226 7.516 16.705 16.788 16.705Z" fill="#000"/><path d="M41.801 29.308c2.38 0 4.31-1.92 4.31-4.289 0-2.368-1.93-4.288-4.31-4.288s-4.31 1.92-4.31 4.288c0 2.369 1.93 4.289 4.31 4.289Z" fill="#fff"/><path opacity=".35" d="M43.909 32.248a3.117 3.117 0 0 0 3.124-3.109 3.117 3.117 0 0 0-3.124-3.108 3.117 3.117 0 0 0-3.125 3.108 3.117 3.117 0 0 0 3.125 3.11Z" fill="#fff"/><defs><linearGradient id="a" x1="12.27" y1="56.93" x2="58.9" y2="10.065" gradientUnits="userSpaceOnUse"><stop stop-color="#fff" stop-opacity="0"/><stop offset=".13" stop-color="#fff" stop-opacity=".13"/><stop offset=".3" stop-color="#fff" stop-opacity=".26"/><stop offset=".47" stop-color="#fff" stop-opacity=".37"/><stop offset=".64" stop-color="#fff" stop-opacity=".44"/><stop offset=".81" stop-color="#fff" stop-opacity=".49"/><stop offset="1" stop-color="#fff" stop-opacity=".5"/></linearGradient><linearGradient id="b" x1="1728.1" y1="3208.34" x2="3515.48" y2="1049.19" gradientUnits="userSpaceOnUse"><stop stop-color="#fff" stop-opacity="0"/><stop offset=".13" stop-color="#fff" stop-opacity=".129"/><stop offset=".3" stop-color="#fff" stop-opacity=".259"/><stop offset=".47" stop-color="#fff" stop-opacity=".369"/><stop offset=".64" stop-color="#fff" stop-opacity=".439"/><stop offset=".81" stop-color="#fff" stop-opacity=".49"/><stop offset="1" stop-color="#fff" stop-opacity=".502"/></linearGradient><linearGradient id="c" x1="1569.61" y1="2429.52" x2="2390.78" y2="1604.22" gradientUnits="userSpaceOnUse"><stop stop-color="#fff" stop-opacity="0"/><stop offset=".13" stop-color="#fff" stop-opacity=".129"/><stop offset=".3" stop-color="#fff" stop-opacity=".259"/><stop offset=".47" stop-color="#fff" stop-opacity=".369"/><stop offset=".64" stop-color="#fff" stop-opacity=".439"/><stop offset=".81" stop-color="#fff" stop-opacity=".49"/><stop offset="1" stop-color="#fff" stop-opacity=".502"/></linearGradient></defs></svg>