<?xml version="1.0" encoding="UTF-8"?><svg style="background-color: black" id="Ebene_1" xmlns="http://www.w3.org/2000/svg" viewBox="-200 -200 2750.79 2237.92"><defs><style>.cls-1{fill:#fff;}</style></defs><path class="cls-1" d="M349.3,845.92c-21.58,0-42.97-2.61-64.17-7.81s-40.55-13.94-58.03-26.22-32.36-27.34-44.64-45.2c-12.28-17.84-22.14-37-29.58-57.47-7.44-20.45-12.28-41.28-14.5-62.48-2.23-21.2-3.34-42.59-3.34-64.19v-213.16H0v-112.7H135.03V16.73h131.69v239.95h181.91v112.7h-181.91v213.16c0,10.42,.36,21.03,1.11,31.81,.75,10.8,2.23,21.41,4.47,31.81,2.22,10.41,5.02,20.64,8.36,30.69s8.19,19.34,14.52,27.91c6.31,8.56,14.12,15.44,23.44,20.64,9.3,5.22,19.53,7.81,30.69,7.81,12.64,0,24.55-3.34,35.7-10.05,11.16-6.69,19.91-15.62,26.23-26.78,6.31-11.16,10.78-23.06,13.39-35.72,2.59-12.64,3.91-25.28,3.91-37.94v-6.7h132.81v12.28c0,19.34-2.05,38.5-6.14,57.47s-10.23,37.02-18.42,54.12c-8.19,17.12-18.78,32.75-31.8,46.88-13.03,14.14-28.09,25.86-45.2,35.16-17.12,9.31-35.16,15.62-54.12,18.97s-37.77,5.02-56.36,5.02Z"/><path class="cls-1" d="M915.29,845.92c-22.31,0-44.64-1.86-66.95-5.58-22.33-3.72-43.72-10.22-64.17-19.52-20.47-9.3-39.06-21.58-55.8-36.83-16.75-15.25-30.33-32.56-40.73-51.91-10.42-19.34-17.86-40.17-22.33-62.48s-6.69-44.64-6.69-66.97v-111.59c0-22.31,2.05-44.45,6.14-66.41,4.09-21.94,11.34-42.78,21.75-62.5s23.98-37.2,40.73-52.45,35.16-27.52,55.25-36.83c20.08-9.3,41.09-15.81,63.05-19.53,21.94-3.72,44.08-5.58,66.41-5.58s44.45,1.86,66.41,5.58c21.94,3.72,42.95,10.23,63.05,19.53,20.09,9.31,38.5,21.58,55.25,36.83,16.73,15.25,30.31,32.73,40.73,52.45,10.41,19.72,17.66,40.56,21.75,62.5,4.09,21.95,6.14,44.09,6.14,66.41v111.59h-373.86c0,17.12,2.22,34.05,6.69,50.78,4.47,16.75,12.47,31.44,24,44.08,11.53,12.66,25.67,21.77,42.42,27.34,16.73,5.59,33.66,8.38,50.77,8.38,11.91,0,24.17-.92,36.83-2.8,12.66-1.86,24.56-5.39,35.72-10.59s20.83-12.83,29.02-22.88,12.64-21.03,13.39-32.94h132.81c-1.5,18.61-5.78,37.03-12.84,55.25-7.06,18.23-16.73,34.61-29.02,49.11s-26.41,26.97-42.41,37.38c-16,10.42-33.12,18.61-51.34,24.56s-36.83,10.03-55.8,12.27c-18.97,2.22-37.77,3.34-56.36,3.34Zm-123.88-354.88h241.06c0-17.11-2.23-34.03-6.7-50.78-4.47-16.73-12.28-31.42-23.44-44.08s-24.73-21.77-40.73-27.34-32.55-8.38-49.66-8.38-33.67,2.8-49.67,8.38-29.58,14.69-40.73,27.34-18.97,27.34-23.44,44.08c-4.47,16.75-6.69,33.67-6.69,50.78Z"/><path class="cls-1" d="M1284.86,837v-112.72h167.41V369.39h-149.55v-112.7h281.23v467.59h149.53v112.72h-448.62Zm224.31-658.44c-11.91,0-23.81-1.86-35.72-5.58s-21.95-9.67-30.14-17.86-14.12-18.22-17.84-30.12-5.58-23.81-5.58-35.72,1.86-23.8,5.58-35.7,9.66-21.95,17.84-30.14,18.23-14.14,30.14-17.86,23.81-5.58,35.72-5.58,23.8,1.86,35.7,5.58,21.94,9.67,30.12,17.86,14.14,18.23,17.86,30.14,5.59,23.8,5.59,35.7-1.88,23.81-5.59,35.72-9.67,21.94-17.86,30.12-18.22,14.14-30.12,17.86-23.8,5.58-35.7,5.58Z"/><path class="cls-1" d="M2032.74,845.92c-23.81,0-47.42-2.98-70.86-8.92s-44.09-16.73-61.94-32.36c-17.86-15.62-31.06-34.78-39.62-57.47s-12.83-45.95-12.83-69.77c0-20.83,3.34-41.66,10.05-62.48,6.69-20.83,17.3-39.23,31.8-55.23s31.25-29.02,50.22-39.06,38.69-18.05,59.16-24c20.45-5.95,41.28-10.05,62.48-12.28,21.2-2.22,42.59-3.34,64.19-3.34h87.05v-27.91c0-14.12-2.98-27.7-8.94-40.73-5.95-13.02-14.52-23.44-25.67-31.25s-23.62-13.2-37.39-16.17-27.72-4.47-41.84-4.47c-12.66,0-25.48,1.12-38.5,3.34-13.03,2.23-24.94,6.7-35.72,13.39-10.78,6.7-19.72,15.81-26.78,27.34s-10.59,23.62-10.59,36.27h-132.81c0-19.34,3.16-38.5,9.48-57.47s15.27-36.27,26.8-51.89,25.47-29.02,41.84-40.17,33.67-19.91,51.89-26.23c18.22-6.31,37.02-10.78,56.36-13.39,19.34-2.59,38.69-3.91,58.03-3.91s40.36,1.31,60.83,3.91c20.45,2.61,40.17,7.45,59.14,14.52s36.64,16.55,53.02,28.45c16.36,11.91,30.31,26.23,41.84,42.97,11.53,16.75,19.72,35.16,24.56,55.25,4.83,20.09,7.25,40.17,7.25,60.25v383.91h-132.8v-90.39c-8.19,16.38-18.8,31.06-31.81,44.08s-27.53,23.81-43.53,32.38-32.92,14.5-50.77,17.84c-17.86,3.34-35.72,5.02-53.58,5.02Zm52.45-112.7c15.62,0,31.25-1.67,46.88-5.02s29.75-9.86,42.41-19.53c12.64-9.67,22.12-21.95,28.45-36.83s9.5-30.14,9.5-45.77v-32.36h-87.05c-9.69,0-19.55,.38-29.58,1.11-10.05,.75-19.91,1.86-29.58,3.34-9.67,1.5-19.34,3.55-29.02,6.14-9.67,2.61-18.78,6.52-27.34,11.72-8.56,5.22-15.62,12.09-21.2,20.66-5.59,8.56-8.38,17.67-8.38,27.33,0,11.91,3.34,22.89,10.05,32.94,6.69,10.05,15.25,17.86,25.67,23.44,10.41,5.58,21.56,9.11,33.47,10.59,11.91,1.5,23.81,2.23,35.72,2.23Z"/><path class="cls-1" d="M262.25,1837.92c-14.88,0-29.39-2.23-43.52-6.69-14.14-4.47-26.42-11.72-36.83-21.77-10.42-10.03-17.67-22.31-21.77-36.83-4.09-14.5-6.14-28.83-6.14-42.97,0-14.88,2.05-29.38,6.14-43.52,4.09-14.12,11.34-26.41,21.77-36.83s22.69-17.84,36.83-22.31c14.12-4.47,28.64-6.7,43.52-6.7s29.39,2.23,43.53,6.7c14.12,4.47,26.41,11.91,36.83,22.31,10.41,10.42,17.66,22.7,21.75,36.83,4.09,14.14,6.14,28.64,6.14,43.52s-2.05,28.47-6.14,42.97c-4.09,14.52-11.34,26.8-21.75,36.83-10.42,10.05-22.7,17.3-36.83,21.77-14.14,4.45-28.66,6.69-43.53,6.69Z"/><path class="cls-1" d="M820.42,1837.92c-23.81,0-47.42-2.98-70.86-8.92s-44.09-16.73-61.94-32.36c-17.86-15.62-31.06-34.78-39.62-57.47s-12.83-45.95-12.83-69.77c0-20.83,3.34-41.66,10.05-62.48,6.69-20.83,17.3-39.23,31.8-55.23s31.25-29.02,50.22-39.06,38.69-18.05,59.16-24c20.45-5.95,41.28-10.05,62.48-12.28,21.2-2.22,42.59-3.34,64.19-3.34h87.05v-27.91c0-14.12-2.98-27.7-8.94-40.73-5.95-13.02-14.52-23.44-25.67-31.25s-23.62-13.2-37.39-16.17-27.72-4.47-41.84-4.47c-12.66,0-25.48,1.12-38.5,3.34-13.03,2.23-24.94,6.7-35.72,13.39-10.78,6.7-19.72,15.81-26.78,27.34s-10.59,23.62-10.59,36.27h-132.81c0-19.34,3.16-38.5,9.48-57.47s15.27-36.27,26.8-51.89,25.47-29.02,41.84-40.17,33.67-19.91,51.89-26.23c18.22-6.31,37.02-10.78,56.36-13.39,19.34-2.59,38.69-3.91,58.03-3.91s40.36,1.31,60.83,3.91c20.45,2.61,40.17,7.45,59.14,14.52s36.64,16.55,53.02,28.45c16.36,11.91,30.31,26.23,41.84,42.97,11.53,16.75,19.72,35.16,24.56,55.25,4.83,20.09,7.25,40.17,7.25,60.25v383.91h-132.8v-90.39c-8.19,16.38-18.8,31.06-31.81,44.08s-27.53,23.81-43.53,32.38-32.92,14.5-50.77,17.84c-17.86,3.34-35.72,5.02-53.58,5.02Zm52.45-112.7c15.62,0,31.25-1.67,46.88-5.02s29.75-9.86,42.41-19.53c12.64-9.67,22.12-21.95,28.45-36.83s9.5-30.14,9.5-45.77v-32.36h-87.05c-9.69,0-19.55,.38-29.58,1.11-10.05,.75-19.91,1.86-29.58,3.34-9.67,1.5-19.34,3.55-29.02,6.14-9.67,2.61-18.78,6.52-27.34,11.72-8.56,5.22-15.62,12.09-21.2,20.66-5.59,8.56-8.38,17.67-8.38,27.33,0,11.91,3.34,22.89,10.05,32.94,6.69,10.05,15.25,17.86,25.67,23.44,10.41,5.58,21.56,9.11,33.47,10.59,11.91,1.5,23.81,2.23,35.72,2.23Z"/><path class="cls-1" d="M1273.68,1829v-580.31h132.8v109.36c5.95-16.36,13.77-31.98,23.44-46.86s21.02-27.91,34.05-39.06c13.02-11.16,28.08-19.34,45.19-24.56,17.11-5.2,34.22-7.81,51.34-7.81s32.36,2.23,47.98,6.7,29.56,11.91,41.84,22.31c12.28,10.42,22.5,22.7,30.69,36.83,8.19,14.14,14.5,29.02,18.97,44.64s7.44,31.44,8.94,47.44c1.48,16,2.23,32.17,2.23,48.55h-132.8c0-11.16-.75-22.14-2.23-32.92-1.5-10.78-4.84-20.83-10.05-30.14-5.22-9.3-12.47-16.73-21.77-22.31-9.31-5.58-19.53-8.38-30.69-8.38-12.66,0-24.92,2.42-36.83,7.25-11.91,4.84-21.95,11.91-30.14,21.2-8.19,9.31-14.88,19.55-20.08,30.7-5.22,11.16-9.5,22.88-12.84,35.16s-5.39,24.73-6.14,37.38c-.75,12.66-1.11,24.92-1.11,36.83v308.02h-132.8Z"/><path class="cls-1" d="M2138.74,1837.92c-21.58,0-42.97-2.61-64.17-7.81s-40.55-13.94-58.03-26.22-32.36-27.34-44.64-45.2c-12.28-17.84-22.14-37-29.58-57.47-7.44-20.45-12.28-41.28-14.5-62.48-2.23-21.2-3.34-42.59-3.34-64.19v-213.16h-135.03v-112.7h135.03v-239.95h131.69v239.95h181.91v112.7h-181.91v213.16c0,10.42,.36,21.03,1.11,31.81,.75,10.8,2.23,21.41,4.47,31.81,2.22,10.41,5.02,20.64,8.36,30.69s8.19,19.34,14.52,27.91c6.31,8.56,14.12,15.44,23.44,20.64,9.3,5.22,19.53,7.81,30.69,7.81,12.64,0,24.55-3.34,35.7-10.05,11.16-6.69,19.91-15.62,26.23-26.78,6.31-11.16,10.78-23.06,13.39-35.72,2.59-12.64,3.91-25.28,3.91-37.94v-6.7h132.81v12.28c0,19.34-2.05,38.5-6.14,57.47s-10.23,37.02-18.42,54.12c-8.19,17.12-18.78,32.75-31.8,46.88-13.03,14.14-28.09,25.86-45.2,35.16-17.12,9.31-35.16,15.62-54.12,18.97s-37.77,5.02-56.36,5.02Z"/></svg>