<svg width="350" height="350" viewBox="0 0 350 350" fill="none" xmlns="http://www.w3.org/2000/svg">
<rect width="350" height="350" rx="175" fill="black"/>
<path d="M305.524 102.81C300.103 93.1747 293.619 84.1801 286.194 75.995L187.642 174.745L286.194 273.551C293.621 265.317 300.105 256.276 305.524 246.596L233.873 174.633L305.524 102.81Z" fill="white"/>
<path d="M103.197 43.75C93.5141 49.2326 84.4886 55.8063 76.2962 63.3432L175.016 162.093L273.568 63.3432C265.398 55.8408 256.423 49.2696 246.807 43.75L175.016 115.713L103.197 43.75Z" fill="white"/>
<path d="M275.495 158.314L259.154 174.689L275.495 191.091H322.788C323.382 185.644 323.68 180.168 323.682 174.689C323.684 169.218 323.386 163.752 322.788 158.314H275.495Z" fill="white"/>
<path d="M63.8095 75.939C39.0119 102.741 25.5799 138.15 26.3497 174.689C26.0105 194.3 29.7016 213.77 37.1937 231.891C44.6857 250.011 55.8184 266.392 69.8992 280.017C99.0346 309.211 133.98 323.822 175.016 323.654C211.485 324.381 246.831 310.998 273.707 286.287L63.8095 75.939Z" fill="white"/>
</svg>
