<svg width="350" height="350" fill="none" xmlns="http://www.w3.org/2000/svg"><rect width="350" height="350" rx="175" fill="#000"/><path d="M305.524 102.81a147.707 147.707 0 0 0-19.33-26.815l-98.552 98.75 98.552 98.806a148.674 148.674 0 0 0 19.33-26.955l-71.651-71.963 71.651-71.823ZM103.197 43.75a145.935 145.935 0 0 0-26.9 19.593l98.719 98.75 98.552-98.75a149.879 149.879 0 0 0-26.761-19.593l-71.791 71.963-71.819-71.963Z" fill="#fff"/><path d="m275.495 158.314-16.341 16.375 16.341 16.402h47.293c.594-5.447.892-10.923.894-16.402a149.298 149.298 0 0 0-.894-16.375h-47.293ZM63.81 75.939c-24.798 26.802-38.23 62.211-37.46 98.75a143.23 143.23 0 0 0 10.844 57.202 142.993 142.993 0 0 0 32.705 48.126c29.136 29.194 64.081 43.805 105.117 43.637a141.637 141.637 0 0 0 98.691-37.367L63.81 75.939Z" fill="#fff"/></svg>