<?xml version="1.0" encoding="utf-8"?>
<!DOCTYPE svg PUBLIC "-//W3C//DTD SVG 1.1//EN" "http://www.w3.org/Graphics/SVG/1.1/DTD/svg11.dtd">
<svg version="1.1" xmlns="http://www.w3.org/2000/svg" xmlns:xlink="http://www.w3.org/1999/xlink" x="0px" y="0px" viewBox="0 0 1000 1000" enable-background="new 0 0 1000 1000" xml:space="preserve">
<g><path d="M500,10C229.4,10,10,229.4,10,500c0,270.6,219.4,490,490,490c270.6,0,490-219.4,490-490C990,229.4,770.6,10,500,10z M182.2,255.1h638.7c4.3,0,8.3,0.8,12.2,2L595.4,460.5l-31.5,25.7l-62.3,50.7l-62.2-50.6l-31.6-25.7L169.9,257.1C173.8,255.9,177.9,255.1,182.2,255.1z M141.2,715.3c-1.5-4.4-2.5-9-2.5-13.9V298.5c0-4.6,0.9-9,2.3-13.2l236.8,202.8L141.2,715.3z M820.9,744.9H182.2c-4.1,0-8-0.8-11.7-1.8l238.9-229.3l92.2,75l92.3-75.1l238.8,229.4C828.9,744.2,825,744.9,820.9,744.9z M861.9,715.3L625.4,488l236.7-202.7c1.4,4.2,2.3,8.6,2.3,13.2v402.9C864.3,706.3,863.4,710.9,861.9,715.3z"/></g>
</svg>