<svg xmlns="http://www.w3.org/2000/svg" viewBox="0 0 1000 1000" xml:space="preserve"><path d="M500 10C229.4 10 10 229.4 10 500s219.4 490 490 490 490-219.4 490-490S770.6 10 500 10zM182.2 255.1h638.7c4.3 0 8.3.8 12.2 2L595.4 460.5l-31.5 25.7-62.3 50.7-62.2-50.6-31.6-25.7-237.9-203.5c3.9-1.2 8-2 12.3-2zm-41 460.2c-1.5-4.4-2.5-9-2.5-13.9V298.5c0-4.6.9-9 2.3-13.2l236.8 202.8-236.6 227.2zm679.7 29.6H182.2c-4.1 0-8-.8-11.7-1.8l238.9-229.3 92.2 75 92.3-75.1 238.8 229.4c-3.8 1.1-7.7 1.8-11.8 1.8zm41-29.6L625.4 488l236.7-202.7c1.4 4.2 2.3 8.6 2.3 13.2v402.9c-.1 4.9-1 9.5-2.5 13.9z"/></svg>