<svg width="32" height="32" fill="none" xmlns="http://www.w3.org/2000/svg"><path d="M32 16c0-8.836-7.164-16-16-16S0 7.164 0 16c0 7.986 5.85 14.606 13.5 15.806v-11.18H9.438V16H13.5v-3.524c0-4.01 2.388-6.226 6.044-6.226 1.75 0 3.582.312 3.582.312V10.5h-2.018c-1.988 0-2.608 1.234-2.608 2.498V16h4.438l-.71 4.626H18.5v11.18C26.15 30.606 32 23.986 32 16Z" fill="url(#a)"/><path d="M22.938 16H18.5v-3.002c0-1.266.62-2.498 2.608-2.498h2.017V6.562s-1.831-.312-3.581-.312c-3.657 0-6.045 2.216-6.045 6.226V16H9.438v4.626H13.5v11.18c.813.128 1.65.194 2.5.194.85 0 1.686-.066 2.5-.194v-11.18h3.727l.71-4.626Z" fill="#fff"/><defs><linearGradient id="a" x1="16" y1="31.806" x2="16" y2="0" gradientUnits="userSpaceOnUse"><stop stop-color="#1569CB"/><stop offset="1" stop-color="#29AEF3"/></linearGradient></defs></svg>