<svg width="219" height="40" fill="none" xmlns="http://www.w3.org/2000/svg"><rect width="219" height="40" rx="2" fill="#55ADEE"/><rect width="219" height="40" rx="2" fill="#1877F2"/><path d="M53.114 23.62h4.518V25h-6.248v-9.953h1.73v8.572Zm5.593-2.387c0-.724.143-1.376.43-1.955a3.12 3.12 0 0 1 1.21-1.34c.52-.314 1.117-.471 1.791-.471.998 0 1.807.321 2.427.964.624.642.962 1.494 1.012 2.556l.007.39c0 .73-.142 1.38-.424 1.955a3.08 3.08 0 0 1-1.203 1.333c-.52.315-1.121.472-1.805.472-1.044 0-1.88-.347-2.509-1.04-.624-.697-.936-1.624-.936-2.782v-.082Zm1.66.144c0 .761.158 1.358.473 1.791.314.428.752.643 1.312.643s.996-.22 1.306-.657c.314-.437.471-1.078.471-1.92 0-.748-.161-1.34-.485-1.778-.319-.437-.754-.656-1.306-.656-.542 0-.972.216-1.292.65-.319.428-.478 1.07-.478 1.927Zm6.551-.13c0-1.148.269-2.064.807-2.748.542-.688 1.26-1.032 2.153-1.032.843 0 1.506.294 1.99.882l.074-.745h1.498v7.17c0 .971-.304 1.737-.91 2.297-.601.56-1.415.841-2.44.841a3.929 3.929 0 0 1-1.593-.342c-.515-.223-.907-.517-1.176-.881l.787-.999c.51.607 1.139.91 1.886.91.552 0 .987-.15 1.306-.452.319-.296.478-.733.478-1.312v-.5c-.478.534-1.116.8-1.914.8-.866 0-1.574-.343-2.126-1.031-.547-.689-.82-1.641-.82-2.858Zm1.654.144c0 .743.15 1.328.451 1.757.306.423.727.635 1.265.635.67 0 1.167-.287 1.49-.861v-3.254c-.314-.56-.806-.84-1.476-.84-.547 0-.973.216-1.279.649-.3.433-.45 1.07-.45 1.914ZM77.14 25h-1.661v-7.396h1.661V25Zm-1.764-9.317c0-.256.08-.467.24-.636.164-.169.396-.253.697-.253.3 0 .533.084.697.253.164.168.246.38.246.636 0 .25-.082.46-.246.628-.164.165-.396.247-.697.247-.3 0-.533-.082-.697-.247a.88.88 0 0 1-.24-.628Zm5.34 1.92.048.855c.547-.66 1.265-.991 2.154-.991 1.54 0 2.324.882 2.351 2.645V25h-1.661v-4.792c0-.47-.103-.816-.308-1.04-.2-.227-.53-.34-.99-.34-.67 0-1.17.302-1.498.908V25H79.15v-7.396h1.565Zm16.676 5.107 1.176-5.107h1.62L98.17 25h-1.367l-1.586-5.08L93.658 25h-1.367l-2.023-7.396h1.62l1.196 5.051 1.518-5.052h1.25l1.539 5.107Zm5.894 2.29h-1.662v-7.396h1.662V25Zm-1.764-9.317a.89.89 0 0 1 .239-.636c.164-.169.397-.253.697-.253.301 0 .534.084.698.253.164.168.246.38.246.636 0 .25-.082.46-.246.628-.164.165-.397.247-.698.247-.3 0-.533-.082-.697-.247a.882.882 0 0 1-.239-.628Zm5.88.123v1.798h1.306v1.23h-1.306v4.129c0 .282.055.488.164.615.114.123.315.185.602.185.191 0 .385-.023.581-.069v1.286a4.092 4.092 0 0 1-1.094.157c-1.276 0-1.914-.704-1.914-2.113v-4.19h-1.217v-1.23h1.217v-1.798h1.661Zm4.438 2.604a2.599 2.599 0 0 1 2.057-.943c1.577 0 2.377.9 2.4 2.7V25h-1.661v-4.771c0-.51-.112-.87-.335-1.08-.219-.215-.543-.322-.971-.322-.665 0-1.162.296-1.49.889V25h-1.661V14.5h1.661v3.91Zm15.964 2.372h-4.006V25h-1.729v-9.953h6.323v1.394h-4.594v2.96h4.006v1.381ZM134.012 25c-.073-.141-.137-.371-.192-.69a2.585 2.585 0 0 1-1.941.827c-.743 0-1.349-.212-1.819-.636a2.035 2.035 0 0 1-.704-1.572c0-.789.292-1.392.875-1.812.588-.424 1.427-.636 2.516-.636h1.018v-.485c0-.383-.107-.688-.321-.916-.214-.232-.54-.349-.977-.349-.379 0-.689.096-.93.288a.867.867 0 0 0-.362.717h-1.661c0-.405.134-.784.403-1.134a2.674 2.674 0 0 1 1.094-.834c.464-.2.982-.301 1.551-.301.866 0 1.557.219 2.072.656.515.433.779 1.044.793 1.832v3.336c0 .665.093 1.196.28 1.593V25h-1.695Zm-1.826-1.196c.328 0 .636-.08.923-.24.292-.16.511-.373.656-.642v-1.395h-.895c-.615 0-1.078.107-1.388.322-.31.214-.465.517-.465.909 0 .319.105.574.315.765.214.187.499.28.854.28Zm8.239.007c.415 0 .759-.121 1.032-.363.274-.241.419-.54.438-.895h1.565c-.018.46-.162.89-.431 1.292a2.829 2.829 0 0 1-1.093.943 3.263 3.263 0 0 1-1.491.349c-1.034 0-1.854-.335-2.461-1.005-.606-.67-.909-1.595-.909-2.776v-.17c0-1.126.301-2.026.903-2.7.601-.68 1.422-1.02 2.461-1.02.879 0 1.595.258 2.146.773.556.51.848 1.183.875 2.017h-1.565c-.019-.424-.164-.773-.438-1.046-.269-.274-.613-.41-1.032-.41-.538 0-.953.196-1.244.588-.292.387-.44.977-.445 1.77v.267c0 .802.144 1.401.431 1.798.292.392.711.588 1.258.588Zm7.767 1.326c-1.053 0-1.907-.33-2.564-.992-.651-.665-.977-1.549-.977-2.652v-.205c0-.738.141-1.397.424-1.976a3.27 3.27 0 0 1 1.203-1.36 3.171 3.171 0 0 1 1.722-.485c1.008 0 1.785.321 2.331.964.552.642.828 1.551.828 2.727v.67h-4.833c.05.61.253 1.094.608 1.45.36.355.811.533 1.353.533.762 0 1.381-.308 1.86-.923l.895.854a3.007 3.007 0 0 1-1.189 1.032 3.72 3.72 0 0 1-1.661.363Zm-.198-6.337c-.456 0-.825.16-1.108.478-.278.32-.456.764-.533 1.333h3.165v-.123c-.036-.556-.185-.975-.444-1.258-.26-.287-.62-.43-1.08-.43Zm11.171 2.577c0 1.148-.258 2.062-.773 2.741-.51.68-1.214 1.019-2.112 1.019-.866 0-1.54-.313-2.023-.937l-.083.8h-1.503V14.5h1.661v3.814c.478-.565 1.123-.847 1.934-.847.903 0 1.611.335 2.126 1.005.515.67.773 1.606.773 2.81v.095Zm-1.661-.144c0-.802-.142-1.403-.424-1.804-.283-.401-.693-.602-1.231-.602-.72 0-1.226.315-1.517.943v3.05c.296.642.806.963 1.531.963.519 0 .921-.194 1.203-.58.283-.388.428-.974.438-1.758v-.212Zm2.968 0c0-.724.143-1.376.43-1.955a3.122 3.122 0 0 1 1.21-1.34c.52-.314 1.117-.471 1.791-.471.998 0 1.807.321 2.427.964.624.642.962 1.494 1.012 2.556l.007.39c0 .73-.142 1.38-.424 1.955a3.08 3.08 0 0 1-1.203 1.333c-.52.315-1.121.472-1.805.472-1.044 0-1.88-.347-2.509-1.04-.624-.697-.936-1.624-.936-2.782v-.082Zm1.661.144c0 .761.157 1.358.471 1.791.315.428.752.643 1.313.643.56 0 .996-.22 1.306-.657.314-.437.471-1.078.471-1.92 0-.748-.161-1.34-.485-1.778-.319-.437-.754-.656-1.306-.656a1.52 1.52 0 0 0-1.292.65c-.319.428-.478 1.07-.478 1.927Zm6.529-.144c0-.724.144-1.376.431-1.955.287-.583.69-1.03 1.21-1.34.519-.314 1.116-.471 1.791-.471.998 0 1.807.321 2.427.964.624.642.961 1.494 1.011 2.556l.007.39c0 .73-.141 1.38-.424 1.955a3.08 3.08 0 0 1-1.203 1.333c-.519.315-1.121.472-1.804.472-1.044 0-1.88-.347-2.509-1.04-.624-.697-.937-1.624-.937-2.782v-.082Zm1.661.144c0 .761.158 1.358.472 1.791.315.428.752.643 1.313.643.56 0 .995-.22 1.305-.657.315-.437.472-1.078.472-1.92 0-.748-.162-1.34-.485-1.778-.319-.437-.755-.656-1.306-.656a1.52 1.52 0 0 0-1.292.65c-.319.428-.479 1.07-.479 1.927Zm9.244.451-.738.759V25h-1.662V14.5h1.662v6.057l.519-.65 2.044-2.303h1.996l-2.748 3.082L183.682 25h-1.921l-2.194-3.172Z" fill="#fff"/><g clip-path="url(#a)"><path d="M31 20.5C31 14.701 26.299 10 20.5 10S10 14.701 10 20.5c0 5.24 3.84 9.585 8.86 10.372v-7.337h-2.667V20.5h2.666v-2.313c0-2.632 1.568-4.085 3.966-4.085 1.149 0 2.35.205 2.35.205v2.584h-1.323c-1.305 0-1.711.81-1.711 1.64V20.5h2.912l-.466 3.035h-2.446v7.337C27.16 30.085 31 25.741 31 20.5Z" fill="#fff"/></g><defs><clipPath id="a"><path fill="#fff" transform="translate(10 10)" d="M0 0h21v20.872H0z"/></clipPath></defs></svg>