<svg width="219" height="40" fill="none" xmlns="http://www.w3.org/2000/svg"><path fill="#4285F4" d="M0 0h219v40H0z"/><g filter="url(#a)" clip-path="url(#b)"><path fill-rule="evenodd" clip-rule="evenodd" d="M19 0a2 2 0 0 0-2 2v36a2 2 0 0 0 2 2h181a2 2 0 0 0 2-2V2a2 2 0 0 0-2-2H19Z" fill="#4285F4"/></g><path d="M56.214 22.436c0-.437-.155-.774-.465-1.011-.305-.237-.859-.476-1.661-.718s-1.44-.51-1.914-.807c-.907-.57-1.36-1.312-1.36-2.228 0-.802.325-1.463.977-1.982.656-.52 1.506-.78 2.55-.78.692 0 1.31.128 1.852.383.543.255.969.62 1.279 1.094.31.47.465.99.465 1.565h-1.723c0-.52-.164-.925-.492-1.217-.324-.296-.789-.444-1.395-.444-.565 0-1.005.12-1.32.362-.31.242-.464.58-.464 1.012 0 .365.169.67.506.916.337.242.893.479 1.668.711.775.228 1.397.49 1.866.786.47.292.814.629 1.032 1.012.219.378.328.822.328 1.333 0 .83-.319 1.49-.957 1.982-.633.488-1.494.732-2.584.732a4.91 4.91 0 0 1-1.989-.397c-.601-.269-1.07-.638-1.408-1.107-.333-.47-.5-1.017-.5-1.64h1.73c0 .564.187 1.002.56 1.312.375.31.91.465 1.607.465.602 0 1.053-.121 1.354-.363.305-.246.458-.57.458-.97ZM61.286 25h-1.661v-7.396h1.661V25Zm-1.764-9.317c0-.256.08-.467.24-.636.164-.169.396-.253.697-.253.3 0 .533.084.697.253.164.168.246.38.246.636 0 .25-.082.46-.246.628-.164.165-.396.247-.697.247-.3 0-.533-.082-.697-.247a.88.88 0 0 1-.24-.628Zm3.507 5.564c0-1.148.27-2.064.807-2.748.542-.688 1.26-1.032 2.153-1.032.843 0 1.506.294 1.99.882l.075-.745h1.497v7.17c0 .971-.303 1.737-.91 2.297-.601.56-1.414.841-2.44.841a3.929 3.929 0 0 1-1.593-.342c-.515-.223-.907-.517-1.175-.881l.786-.999c.51.607 1.14.91 1.887.91.55 0 .986-.15 1.305-.452.32-.296.479-.733.479-1.312v-.5c-.479.534-1.117.8-1.914.8-.866 0-1.575-.343-2.126-1.031-.547-.689-.82-1.641-.82-2.858Zm1.655.144c0 .743.15 1.328.45 1.757.306.423.728.635 1.265.635.67 0 1.167-.287 1.49-.861v-3.254c-.314-.56-.806-.84-1.476-.84-.547 0-.973.216-1.278.649-.301.433-.451 1.07-.451 1.914Zm8.34-3.787.047.854c.547-.66 1.265-.991 2.154-.991 1.54 0 2.324.882 2.351 2.645V25h-1.661v-4.792c0-.47-.103-.816-.308-1.04-.2-.227-.53-.34-.99-.34-.67 0-1.17.302-1.498.908V25h-1.661v-7.396h1.565ZM84.965 25h-1.661v-7.396h1.66V25Zm-1.764-9.317c0-.256.08-.467.24-.636.164-.169.396-.253.697-.253.3 0 .533.084.697.253.164.168.246.38.246.636 0 .25-.082.46-.246.628-.164.165-.397.247-.697.247-.301 0-.533-.082-.698-.247a.88.88 0 0 1-.239-.628Zm5.339 1.92.048.855c.547-.66 1.264-.991 2.153-.991 1.54 0 2.324.882 2.352 2.645V25h-1.661v-4.792c0-.47-.103-.816-.308-1.04-.2-.227-.53-.34-.991-.34-.67 0-1.17.302-1.497.908V25h-1.661v-7.396h1.565Zm16.673 5.107 1.176-5.107h1.62L105.993 25h-1.367l-1.586-5.08-1.559 5.08h-1.367l-2.023-7.396h1.62l1.196 5.051 1.518-5.052h1.251l1.538 5.107Zm5.892 2.29h-1.661v-7.396h1.661V25Zm-1.763-9.317a.89.89 0 0 1 .239-.636c.164-.169.397-.253.697-.253.301 0 .533.084.698.253.164.168.246.38.246.636 0 .25-.082.46-.246.628-.165.165-.397.247-.698.247-.3 0-.533-.082-.697-.247a.882.882 0 0 1-.239-.628Zm5.879.123v1.798h1.305v1.23h-1.305v4.129c0 .282.054.488.164.615.114.123.314.185.601.185.192 0 .385-.023.581-.069v1.286a4.085 4.085 0 0 1-1.093.157c-1.276 0-1.914-.704-1.914-2.113v-4.19h-1.217v-1.23h1.217v-1.798h1.661Zm4.436 2.604c.543-.629 1.228-.943 2.058-.943 1.577 0 2.376.9 2.399 2.7V25h-1.661v-4.771c0-.51-.112-.87-.335-1.08-.219-.215-.542-.322-.971-.322-.665 0-1.162.296-1.49.889V25h-1.661V14.5h1.661v3.91Zm17.856 5.298c-.36.47-.859.825-1.497 1.066-.638.242-1.363.363-2.174.363-.834 0-1.572-.19-2.215-.568a3.802 3.802 0 0 1-1.49-1.62c-.347-.706-.527-1.529-.54-2.468v-.779c0-1.504.36-2.677 1.08-3.52.72-.848 1.725-1.272 3.014-1.272 1.108 0 1.987.274 2.639.82.652.547 1.044 1.336 1.176 2.366h-1.695c-.192-1.199-.887-1.798-2.085-1.798-.775 0-1.365.28-1.771.84-.401.557-.608 1.375-.622 2.455v.765c0 1.076.226 1.912.677 2.51.455.592 1.087.888 1.893.888.884 0 1.513-.2 1.887-.602v-1.948h-2.051v-1.312h3.774v3.814Zm1.647-2.475c0-.724.144-1.376.431-1.955.287-.583.69-1.03 1.21-1.34.519-.314 1.116-.471 1.791-.471.998 0 1.807.321 2.427.964.624.642.961 1.494 1.011 2.556l.007.39c0 .73-.141 1.38-.424 1.955a3.08 3.08 0 0 1-1.203 1.333c-.519.315-1.121.472-1.805.472-1.043 0-1.879-.347-2.508-1.04-.625-.697-.937-1.624-.937-2.782v-.082Zm1.661.144c0 .761.157 1.358.472 1.791.314.428.752.643 1.312.643.561 0 .996-.22 1.306-.657.315-.437.472-1.078.472-1.92 0-.748-.162-1.34-.486-1.778-.319-.437-.754-.656-1.305-.656a1.52 1.52 0 0 0-1.292.65c-.319.428-.479 1.07-.479 1.927Zm6.529-.144c0-.724.143-1.376.43-1.955a3.122 3.122 0 0 1 1.21-1.34c.52-.314 1.117-.471 1.791-.471.998 0 1.807.321 2.427.964.624.642.962 1.494 1.012 2.556l.007.39c0 .73-.142 1.38-.424 1.955a3.08 3.08 0 0 1-1.203 1.333c-.52.315-1.122.472-1.805.472-1.044 0-1.88-.347-2.509-1.04-.624-.697-.936-1.624-.936-2.782v-.082Zm1.661.144c0 .761.157 1.358.471 1.791.315.428.752.643 1.313.643.56 0 .996-.22 1.306-.657.314-.437.471-1.078.471-1.92 0-.748-.162-1.34-.485-1.778-.319-.437-.754-.656-1.306-.656a1.52 1.52 0 0 0-1.292.65c-.319.428-.478 1.07-.478 1.927Zm6.549-.13c0-1.148.268-2.064.806-2.748.543-.688 1.26-1.032 2.154-1.032.843 0 1.506.294 1.989.882l.075-.745h1.497v7.17c0 .971-.303 1.737-.909 2.297-.602.56-1.415.841-2.441.841a3.924 3.924 0 0 1-1.592-.342c-.515-.223-.907-.517-1.176-.881l.786-.999c.51.607 1.139.91 1.887.91.551 0 .986-.15 1.305-.452.319-.296.479-.733.479-1.312v-.5c-.479.534-1.117.8-1.914.8-.866 0-1.575-.343-2.126-1.031-.547-.689-.82-1.641-.82-2.858Zm1.654.144c0 .743.15 1.328.451 1.757.305.423.727.635 1.265.635.67 0 1.166-.287 1.49-.861v-3.254c-.315-.56-.807-.84-1.477-.84-.547 0-.973.216-1.278.649-.301.433-.451 1.07-.451 1.914ZM165.78 25h-1.661V14.5h1.661V25Zm5.291.137c-1.052 0-1.907-.33-2.563-.992-.652-.665-.978-1.549-.978-2.652v-.205c0-.738.142-1.397.424-1.976a3.27 3.27 0 0 1 1.203-1.36 3.172 3.172 0 0 1 1.723-.485c1.007 0 1.784.321 2.331.964.551.642.827 1.551.827 2.727v.67h-4.833c.05.61.253 1.094.608 1.45.361.355.812.533 1.354.533.761 0 1.381-.308 1.859-.923l.896.854a3.01 3.01 0 0 1-1.19 1.032 3.711 3.711 0 0 1-1.661.363Zm-.198-6.337c-.456 0-.825.16-1.107.478-.278.32-.456.764-.534 1.333h3.165v-.123c-.036-.556-.184-.975-.444-1.258-.26-.287-.62-.43-1.08-.43Z" fill="#fff"/><path fill-rule="evenodd" clip-rule="evenodd" d="M2 1a1 1 0 0 0-1 1v36a1 1 0 0 0 1 1h36a1 1 0 0 0 1-1V2a1 1 0 0 0-1-1H2Z" fill="#fff"/><path fill-rule="evenodd" clip-rule="evenodd" d="M28.64 20.205c0-.639-.057-1.252-.164-1.841H20v3.481h4.844a4.14 4.14 0 0 1-1.796 2.716v2.259h2.908c1.702-1.567 2.684-3.875 2.684-6.615Z" fill="#4285F4"/><path fill-rule="evenodd" clip-rule="evenodd" d="M20 29c2.43 0 4.467-.806 5.956-2.18l-2.908-2.259c-.806.54-1.837.86-3.048.86-2.344 0-4.328-1.584-5.036-3.711h-3.007v2.332A8.997 8.997 0 0 0 20 29Z" fill="#34A853"/><path fill-rule="evenodd" clip-rule="evenodd" d="M14.964 21.71a5.41 5.41 0 0 1-.282-1.71c0-.593.102-1.17.282-1.71v-2.332h-3.007A8.996 8.996 0 0 0 11 20c0 1.452.348 2.827.957 4.042l3.007-2.332Z" fill="#FBBC05"/><path fill-rule="evenodd" clip-rule="evenodd" d="M20 14.58c1.321 0 2.508.454 3.44 1.345l2.582-2.58C24.463 11.891 22.426 11 20 11a8.996 8.996 0 0 0-8.043 4.958l3.007 2.332c.708-2.127 2.692-3.71 5.036-3.71Z" fill="#EA4335"/><defs><clipPath id="b"><path fill="#fff" transform="translate(17)" d="M0 0h185v40H0z"/></clipPath><filter id="a" x="16" y="-1" width="187" height="43" filterUnits="userSpaceOnUse" color-interpolation-filters="sRGB"><feFlood flood-opacity="0" result="BackgroundImageFix"/><feColorMatrix in="SourceAlpha" values="0 0 0 0 0 0 0 0 0 0 0 0 0 0 0 0 0 0 127 0"/><feOffset dy="1"/><feGaussianBlur stdDeviation=".5"/><feColorMatrix values="0 0 0 0 0 0 0 0 0 0 0 0 0 0 0 0 0 0 0.24 0"/><feBlend in2="BackgroundImageFix" result="effect1_dropShadow"/><feColorMatrix in="SourceAlpha" values="0 0 0 0 0 0 0 0 0 0 0 0 0 0 0 0 0 0 127 0"/><feOffset/><feGaussianBlur stdDeviation=".5"/><feColorMatrix values="0 0 0 0 0 0 0 0 0 0 0 0 0 0 0 0 0 0 0.12 0"/><feBlend in2="effect1_dropShadow" result="effect2_dropShadow"/><feBlend in="SourceGraphic" in2="effect2_dropShadow" result="shape"/></filter></defs></svg>