<svg xmlns="http://www.w3.org/2000/svg" viewBox="0 0 27 27" fill="none"><path fill-rule="evenodd" clip-rule="evenodd" d="M25.848 13.487c0-.935-.084-1.834-.24-2.697h-12.42v5.101h7.097a6.067 6.067 0 0 1-2.631 3.98v3.309h4.262c2.493-2.296 3.932-5.677 3.932-9.693Z" fill="#4285F4"/><path fill-rule="evenodd" clip-rule="evenodd" d="M13.187 26.374c3.56 0 6.546-1.18 8.728-3.195l-4.262-3.308c-1.18.79-2.691 1.258-4.466 1.258-3.434 0-6.341-2.32-7.378-5.436H1.403v3.416a13.182 13.182 0 0 0 11.784 7.265Z" fill="#34A853"/><path fill-rule="evenodd" clip-rule="evenodd" d="M5.808 15.693a7.927 7.927 0 0 1-.413-2.506c0-.869.15-1.714.413-2.505V7.265H1.403A13.182 13.182 0 0 0 0 13.187c0 2.128.51 4.142 1.403 5.922l4.405-3.416Z" fill="#FBBC05"/><path fill-rule="evenodd" clip-rule="evenodd" d="M13.187 5.245c1.937 0 3.675.665 5.042 1.972l3.782-3.782C19.727 1.307 16.74 0 13.187 0A13.182 13.182 0 0 0 1.403 7.265l4.406 3.417c1.037-3.117 3.944-5.437 7.378-5.437Z" fill="#EA4335"/></svg>