<svg viewBox="0 0 26 27" fill="none" xmlns="http://www.w3.org/2000/svg" aria-hidden="true" class="v-icon notranslate v-icon--is-component theme--light loginBtnGray--text"><path fill-rule="evenodd" clip-rule="evenodd" d="M18.229 7.217c-1.367-1.307-3.105-1.972-5.042-1.972-3.434 0-6.341 2.32-7.378 5.437a7.927 7.927 0 0 0-.414 2.505c0 .87.15 1.714.413 2.506 1.038 3.117 3.945 5.436 7.38 5.436 1.774 0 3.284-.467 4.465-1.259v.001a6.066 6.066 0 0 0 2.632-3.98h-7.097V10.79h12.42c.156.863.24 1.762.24 2.697 0 4.016-1.439 7.397-3.933 9.693-2.182 2.014-5.167 3.194-8.728 3.194-5.155 0-9.614-2.955-11.784-7.265A13.182 13.182 0 0 1 0 13.187c0-2.128.51-4.142 1.403-5.922C3.573 2.955 8.033 0 13.187 0c3.555 0 6.54 1.307 8.824 3.435l-3.782 3.782Z" fill="currentColor"/></svg>