<svg xmlns="http://www.w3.org/2000/svg" viewBox="0 0 32 32" fill="none"><path d="M15.907 31.814c8.785 0 15.907-7.122 15.907-15.907S24.692 0 15.907 0 0 7.122 0 15.907s7.122 15.907 15.907 15.907Z" fill="#FF4500"/><path d="M26.511 15.907a2.326 2.326 0 0 0-2.325-2.326c-.633 0-1.19.242-1.6.652-1.581-1.135-3.777-1.88-6.195-1.973l1.06-4.967 3.442.726a1.658 1.658 0 0 0 3.311-.075 1.66 1.66 0 0 0-1.655-1.656 1.61 1.61 0 0 0-1.47.93L17.228 6.4a.464.464 0 0 0-.317.056.453.453 0 0 0-.186.26l-1.172 5.545c-2.474.074-4.688.8-6.288 1.972a2.347 2.347 0 0 0-1.6-.652 2.326 2.326 0 0 0-2.326 2.326c0 .949.558 1.749 1.377 2.12a4.354 4.354 0 0 0-.056.708c0 3.572 4.15 6.456 9.284 6.456 5.135 0 9.284-2.884 9.284-6.456a4.14 4.14 0 0 0-.056-.688 2.407 2.407 0 0 0 1.34-2.14Zm-15.906 1.656a1.66 1.66 0 0 1 1.655-1.656 1.66 1.66 0 0 1 1.656 1.656 1.66 1.66 0 0 1-1.656 1.656 1.66 1.66 0 0 1-1.655-1.656Zm9.246 4.372c-1.135 1.135-3.293 1.21-3.926 1.21-.632 0-2.809-.094-3.925-1.21a.438.438 0 0 1 0-.614.438.438 0 0 1 .614 0c.707.707 2.232.967 3.33.967 1.098 0 2.605-.26 3.33-.967a.438.438 0 0 1 .614 0 .48.48 0 0 1-.037.614Zm-.298-2.716a1.66 1.66 0 0 1-1.655-1.656 1.66 1.66 0 0 1 1.655-1.656 1.66 1.66 0 0 1 1.656 1.656 1.66 1.66 0 0 1-1.656 1.656Z" fill="#fff"/></svg>