<svg viewBox="0 0 18 18" fill="none" xmlns="http://www.w3.org/2000/svg" aria-hidden="true" class="v-icon notranslate v-icon--is-component theme--light loginBtnGray--text"><path fill-rule="evenodd" clip-rule="evenodd" d="M17.3 12.5c.5-1.1.7-2.3.7-3.5 0-1.2-.2-2.4-.7-3.5-.5-1.1-1.1-2.1-1.9-2.9-.8-.8-1.8-1.4-2.9-1.9C11.4.2 10.2 0 9 0 7.8 0 6.6.2 5.5.7c-1.1.5-2.1 1.1-2.9 1.9-.8.8-1.4 1.8-1.9 2.9C.2 6.6 0 7.8 0 9c0 1.2.2 2.4.7 3.5.5 1.1 1.1 2.1 1.9 2.9.8.8 1.8 1.4 2.9 1.9 1.1.5 2.3.7 3.5.7 1.2 0 2.4-.2 3.5-.7 1.1-.5 2.1-1.1 2.9-1.9.8-.8 1.4-1.8 1.9-2.9Zm-2.9-3.8c0-.3-.1-.6-.4-.8-.052-.034-.1-.069-.147-.102-.227-.16-.422-.298-.753-.298-.3 0-.6.1-.9.4-.9-.6-1.9-.9-3.1-1l.6-2.8 2 .5c0 .2.1.5.3.6.2.2.4.3.6.3.2 0 .5-.1.6-.3.033-.067.078-.133.122-.2.09-.133.178-.267.178-.4 0-.2-.1-.5-.3-.6-.2-.2-.4-.3-.6-.3-.4 0-.6.2-.8.5l-2.2-.5c-.1 0-.2 0-.3.2L8.6 7c-1.2 0-2.2.4-3.1 1-.2-.2-.5-.4-.9-.4-.3 0-.6.1-.9.4-.3.3-.4.5-.4.8 0 .2.1.4.2.6.1.2.3.3.5.4 0 .1-.025.2-.05.3-.025.1-.05.2-.05.3 0 1 .5 1.8 1.4 2.4.9.7 2.1 1 3.4 1 1.3 0 2.5-.3 3.4-1 .9-.7 1.4-1.5 1.4-2.4 0-.2 0-.4-.1-.6.2-.1.4-.2.5-.4.4-.2.5-.4.5-.7ZM7.9 9.9c0 .2-.1.5-.3.6-.2.2-.4.3-.6.3-.2 0-.5-.1-.6-.3-.2-.2-.3-.4-.3-.6 0-.3.1-.5.3-.6.2-.2.4-.3.6-.3.2 0 .5.1.6.3.2.2.3.4.3.6Zm3.1 1.9c.1.1.1.2 0 .3-.4.4-1.1.6-2 .6-.9 0-1.6-.2-2-.6-.1-.1-.1-.2 0-.3 0 0 .1-.1.2-.1.042 0 .067 0 .089.008.03.01.054.034.111.092.3.3.9.5 1.7.5.8 0 1.4-.2 1.7-.5 0 0 .1-.1.2-.1.032 0 .043 0 .044.003 0 .002-.002.005-.007.01A.114.114 0 0 0 11 11.8Zm.6-1.3c.2-.1.3-.4.3-.6 0-.2-.1-.4-.3-.6-.1-.2-.4-.3-.6-.3-.2 0-.4.1-.6.3-.2.1-.3.4-.3.6 0 .2.1.4.3.6.1.2.4.3.6.3.2 0 .4-.1.6-.3Z" fill="currentColor"/></svg>