<svg data-v-0f5b03b5="" viewBox="0 0 18 18" fill="none" xmlns="http://www.w3.org/2000/svg" aria-hidden="true" class="v-icon notranslate v-icon--is-component theme--light loginBtnGray--text"><path fill-rule="evenodd" clip-rule="evenodd" d="M17.3 12.5C17.8 11.4 18 10.2 18 9C18 7.8 17.8 6.6 17.3 5.5C16.8 4.4 16.2 3.4 15.4&#10;      2.6C14.6 1.8 13.6 1.2 12.5 0.7C11.4 0.2 10.2 0 9 0C7.8 0 6.6 0.2 5.5 0.7C4.4 1.2&#10;      3.4 1.8 2.6 2.6C1.8 3.4 1.2 4.4 0.7 5.5C0.2 6.6 0 7.8 0 9C0 10.2 0.2 11.4 0.7&#10;      12.5C1.2 13.6 1.8 14.6 2.6 15.4C3.4 16.2 4.4 16.8 5.5 17.3C6.6 17.8 7.8 18 9&#10;      18C10.2 18 11.4 17.8 12.5 17.3C13.6 16.8 14.6 16.2 15.4 15.4C16.2 14.6 16.8 13.6&#10;      17.3 12.5ZM14.4 8.7C14.4 8.4 14.3 8.1 14 7.9C13.9485 7.86568 13.9 7.83137 13.8529&#10;      7.79807C13.6255 7.63726 13.4314 7.5 13.1 7.5C12.8 7.5 12.5 7.6 12.2 7.9C11.3 7.3&#10;      10.3 7 9.1 6.9L9.7 4.1L11.7 4.6C11.7 4.8 11.8 5.1 12 5.2C12.2 5.4 12.4 5.5 12.6&#10;      5.5C12.8 5.5 13.1 5.4 13.2 5.2C13.2333 5.13333 13.2778 5.06667 13.3222 5C13.4111&#10;      4.86667 13.5 4.73333 13.5 4.6C13.5 4.4 13.4 4.1 13.2 4C13 3.8 12.8 3.7 12.6 3.7C12.2&#10;      3.7 12 3.9 11.8 4.2L9.6 3.7C9.5 3.7 9.4 3.7 9.3 3.9L8.6 7C7.4 7 6.4 7.4 5.5 8C5.3&#10;      7.8 5 7.6 4.6 7.6C4.3 7.6 4 7.7 3.7 8C3.4 8.3 3.3 8.5 3.3 8.8C3.3 9 3.4 9.2 3.5&#10;      9.4C3.6 9.6 3.8 9.7 4 9.8C4 9.9 3.975 10 3.95 10.1C3.925 10.2 3.9 10.3 3.9 10.4C3.9&#10;      11.4 4.4 12.2 5.3 12.8C6.2 13.5 7.4 13.8 8.7 13.8C10 13.8 11.2 13.5 12.1 12.8C13 12.1&#10;      13.5 11.3 13.5 10.4C13.5 10.2 13.5 10 13.4 9.8C13.6 9.7 13.8 9.6 13.9 9.4C14.3 9.2&#10;      14.4 9 14.4 8.7ZM7.9 9.9C7.9 10.1 7.8 10.4 7.6 10.5C7.4 10.7 7.2 10.8 7 10.8C6.8 10.8&#10;      6.5 10.7 6.4 10.5C6.2 10.3 6.1 10.1 6.1 9.9C6.1 9.6 6.2 9.4 6.4 9.3C6.6 9.1 6.8 9 7&#10;      9C7.2 9 7.5 9.1 7.6 9.3C7.8 9.5 7.9 9.7 7.9 9.9ZM11 11.8C11.1 11.9 11.1 12 11 12.1C10.6&#10;      12.5 9.9 12.7 9 12.7C8.1 12.7 7.4 12.5 7 12.1C6.9 12 6.9 11.9 7 11.8C7 11.8 7.1 11.7 7.2&#10;      11.7C7.2425 11.7 7.26693 11.7 7.28866 11.7077C7.31806 11.7181 7.3425 11.7425 7.4 11.8C7.7&#10;      12.1 8.3 12.3 9.1 12.3C9.9 12.3 10.5 12.1 10.8 11.8C10.8 11.8 10.9 11.7 11 11.7C11.0318&#10;      11.7 11.0434 11.7 11.0444 11.7032C11.0449 11.7051 11.042 11.708 11.0375 11.7125C11.025&#10;      11.725 11 11.75 11 11.8ZM11.6 10.5C11.8 10.4 11.9 10.1 11.9 9.9C11.9 9.7 11.8 9.5 11.6&#10;      9.3C11.5 9.1 11.2 9 11 9C10.8 9 10.6 9.1 10.4 9.3C10.2 9.4 10.1 9.7 10.1 9.9C10.1 10.1&#10;      10.2 10.3 10.4 10.5C10.5 10.7 10.8 10.8 11 10.8C11.2 10.8 11.4 10.7 11.6 10.5Z" fill="currentColor"/></svg>