<svg xmlns="http://www.w3.org/2000/svg" viewBox="0 0 39 32" fill="currentColor"><path d="M38.4 3.789a15.387 15.387 0 0 1-4.523 1.27A8.06 8.06 0 0 0 37.34.592a15.517 15.517 0 0 1-5.007 1.957A7.77 7.77 0 0 0 26.586 0c-4.35 0-7.876 3.616-7.876 8.078 0 .634.068 1.248.202 1.84-6.547-.337-12.352-3.552-16.24-8.443A8.224 8.224 0 0 0 1.606 5.54a8.14 8.14 0 0 0 3.504 6.725 7.734 7.734 0 0 1-3.568-1.008v.1c0 3.914 2.716 7.18 6.32 7.92a7.513 7.513 0 0 1-2.073.284 7.557 7.557 0 0 1-1.483-.144c1.001 3.21 3.91 5.546 7.358 5.608A15.554 15.554 0 0 1 0 28.373 21.936 21.936 0 0 0 12.077 32C26.57 32 34.493 19.693 34.493 9.016c0-.352-.008-.702-.021-1.046A16.16 16.16 0 0 0 38.4 3.789Z" fill="#1DA1F2"/></svg>